<?xml version="1.0" encoding="UTF-8" standalone="no"?>
<!DOCTYPE svg PUBLIC "-//W3C//DTD SVG 1.1//EN"
 "http://www.w3.org/Graphics/SVG/1.1/DTD/svg11.dtd">
<!-- Generated by graphviz version 9.0.0 (20230911.1827)
 -->
<!-- Title: src/Camera.h Pages: 1 -->
<!--zoomable 364 -->

<svg id="main" version="1.1" xmlns="http://www.w3.org/2000/svg" xmlns:xlink="http://www.w3.org/1999/xlink" xml:space="preserve" onload="init(evt)">
<style type="text/css"><![CDATA[
.node, .edge {opacity: 0.7;}
.node.selected, .edge.selected {opacity: 1;}
.edge:hover path { stroke: red; }
.edge:hover polygon { stroke: red; fill: red; }
]]></style>

<defs>
  <circle id="rim" cx="0" cy="0" r="7"/>
  <circle id="rim2" cx="0" cy="0" r="3.5"/>
  <g id="zoomPlus">
    <use xlink:href="#rim" fill="#404040"><set attributeName="fill" to="#808080" begin="zoomplus.mouseover" end="zoomplus.mouseout"/></use>
    <path d="M-4,0h8M0,-4v8" fill="none" stroke="white" stroke-width="1.5" pointer-events="none"/>
  </g>
  <g id="zoomMin">
    <use xlink:href="#rim" fill="#404040"><set attributeName="fill" to="#808080" begin="zoomminus.mouseover" end="zoomminus.mouseout"/></use>
    <path d="M-4,0h8" fill="none" stroke="white" stroke-width="1.5" pointer-events="none"/>
  </g>
  <g id="arrowUp" transform="translate(30 24)">
    <use xlink:href="#rim"/>
    <path pointer-events="none" fill="none" stroke="white" stroke-width="1.5" d="M0,-3.0v7 M-2.5,-0.5L0,-3.0L2.5,-0.5"/>
  </g>
  <g id="arrowRight" transform="rotate(90) translate(36 -43)">
    <use xlink:href="#rim"/>
    <path pointer-events="none" fill="none" stroke="white" stroke-width="1.5" d="M0,-3.0v7 M-2.5,-0.5L0,-3.0L2.5,-0.5"/>
  </g>
  <g id="arrowDown" transform="rotate(180) translate(-30 -48)">
    <use xlink:href="#rim"/>
    <path pointer-events="none" fill="none" stroke="white" stroke-width="1.5" d="M0,-3.0v7 M-2.5,-0.5L0,-3.0L2.5,-0.5"/>
  </g>
  <g id="arrowLeft" transform="rotate(270) translate(-36 17)">
    <use xlink:href="#rim"/>
    <path pointer-events="none" fill="none" stroke="white" stroke-width="1.5" d="M0,-3.0v7 M-2.5,-0.5L0,-3.0L2.5,-0.5"/>
  </g>
  <g id="resetDef">
    <use xlink:href="#rim2" fill="#404040"><set attributeName="fill" to="#808080" begin="reset.mouseover" end="reset.mouseout"/></use>
  </g>
</defs>
<script type="application/ecmascript">
var viewWidth = 1582;
var viewHeight = 364;
var sectionId = 'dynsection-1';
</script>
<script type="application/ecmascript" xlink:href="svg.min.js"/>
<svg id="graph" class="graph">
<g id="viewport">
<title>src/Camera.h</title>
<!-- Node1 -->
<g id="Node000001" class="node">
<title>Node1</title>
<g id="a_Node000001"><a xlink:title=" ">
<polygon fill="#999999" stroke="#666666" points="901.88,-356 827.38,-356 827.38,-336 901.88,-336 901.88,-356"/>
<text text-anchor="middle" x="864.62" y="-342.5" font-family="Helvetica,sans-Serif" font-size="10.00">src/Camera.h</text>
</a>
</g>
</g>
<!-- Node2 -->
<g id="Node000002" class="node">
<title>Node2</title>
<g id="a_Node000002"><a xlink:href="_camera_8cpp.html" target="_top" xlink:title=" ">
<polygon fill="white" stroke="#666666" points="178.12,-132 93.12,-132 93.12,-112 178.12,-112 178.12,-132"/>
<text text-anchor="middle" x="135.62" y="-118.5" font-family="Helvetica,sans-Serif" font-size="10.00">src/Camera.cpp</text>
</a>
</g>
</g>
<!-- Node1&#45;&gt;Node2 -->
<g id="edge1_Node000001_Node000002" class="edge">
<title>Node1&#45;&gt;Node2</title>
<g id="a_edge1_Node000001_Node000002"><a xlink:title=" ">
<path fill="none" stroke="#63b8ff" d="M822.92,-332.3C690.61,-292.01 282.24,-167.65 166.49,-132.4"/>
<polygon fill="#63b8ff" stroke="#63b8ff" points="821.73,-335.6 832.32,-335.16 823.77,-328.9 821.73,-335.6"/>
</a>
</g>
</g>
<!-- Node3 -->
<g id="Node000003" class="node">
<title>Node3</title>
<g id="a_Node000003"><a xlink:href="_direct_x_manager_8h.html" target="_top" xlink:title=" ">
<polygon fill="white" stroke="#666666" points="1011.12,-300 902.12,-300 902.12,-280 1011.12,-280 1011.12,-300"/>
<text text-anchor="middle" x="956.62" y="-286.5" font-family="Helvetica,sans-Serif" font-size="10.00">src/DirectXManager.h</text>
</a>
</g>
</g>
<!-- Node1&#45;&gt;Node3 -->
<g id="edge2_Node000001_Node000003" class="edge">
<title>Node1&#45;&gt;Node3</title>
<g id="a_edge2_Node000001_Node000003"><a xlink:title=" ">
<path fill="none" stroke="#63b8ff" d="M890.5,-329.81C906.55,-320.39 926.67,-308.58 940.47,-300.48"/>
<polygon fill="#63b8ff" stroke="#63b8ff" points="888.81,-326.75 881.96,-334.83 892.35,-332.78 888.81,-326.75"/>
</a>
</g>
</g>
<!-- Node5 -->
<g id="Node000005" class="node">
<title>Node5</title>
<g id="a_Node000005"><a xlink:href="_game_engine_8h.html" target="_top" xlink:title=" ">
<polygon fill="white" stroke="#666666" points="913.12,-244 816.12,-244 816.12,-224 913.12,-224 913.12,-244"/>
<text text-anchor="middle" x="864.62" y="-230.5" font-family="Helvetica,sans-Serif" font-size="10.00">src/GameEngine.h</text>
</a>
</g>
</g>
<!-- Node1&#45;&gt;Node5 -->
<g id="edge61_Node000001_Node000005" class="edge">
<title>Node1&#45;&gt;Node5</title>
<g id="a_edge61_Node000001_Node000005"><a xlink:title=" ">
<path fill="none" stroke="#63b8ff" d="M859.21,-324.31C857.04,-300.36 857.51,-261.95 860.65,-244.35"/>
<polygon fill="#63b8ff" stroke="#63b8ff" points="855.73,-324.64 860.46,-334.12 862.67,-323.76 855.73,-324.64"/>
</a>
</g>
</g>
<!-- Node4 -->
<g id="Node000004" class="node">
<title>Node4</title>
<g id="a_Node000004"><a xlink:href="_direct_x_manager_8cpp.html" target="_top" xlink:title=" ">
<polygon fill="white" stroke="#666666" points="1471.38,-132 1351.88,-132 1351.88,-112 1471.38,-112 1471.38,-132"/>
<text text-anchor="middle" x="1411.62" y="-118.5" font-family="Helvetica,sans-Serif" font-size="10.00">src/DirectXManager.cpp</text>
</a>
</g>
</g>
<!-- Node3&#45;&gt;Node4 -->
<g id="edge3_Node000003_Node000004" class="edge">
<title>Node3&#45;&gt;Node4</title>
<g id="a_edge3_Node000003_Node000004"><a xlink:title=" ">
<path fill="none" stroke="#63b8ff" d="M1022.81,-280.92C1101.61,-269.23 1235.4,-242.69 1337.62,-188 1365.07,-173.32 1390.89,-146.66 1403.53,-132.47"/>
<polygon fill="#63b8ff" stroke="#63b8ff" points="1022.49,-277.43 1013.09,-282.33 1023.49,-284.36 1022.49,-277.43"/>
</a>
</g>
</g>
<!-- Node3&#45;&gt;Node5 -->
<g id="edge4_Node000003_Node000005" class="edge">
<title>Node3&#45;&gt;Node5</title>
<g id="a_edge4_Node000003_Node000005"><a xlink:title=" ">
<path fill="none" stroke="#63b8ff" d="M925.58,-274.35C908.28,-264.84 887.92,-252.74 875.49,-244.48"/>
<polygon fill="#63b8ff" stroke="#63b8ff" points="923.54,-277.22 934,-278.88 926.85,-271.06 923.54,-277.22"/>
</a>
</g>
</g>
<!-- Node23 -->
<g id="Node000023" class="node">
<title>Node23</title>
<g id="a_Node000023"><a xlink:href="_win32_application_8h.html" target="_top" xlink:title=" ">
<polygon fill="white" stroke="#666666" points="1328.88,-188 1212.38,-188 1212.38,-168 1328.88,-168 1328.88,-188"/>
<text text-anchor="middle" x="1270.62" y="-174.5" font-family="Helvetica,sans-Serif" font-size="10.00">src/Win32Application.h</text>
</a>
</g>
</g>
<!-- Node3&#45;&gt;Node23 -->
<g id="edge60_Node000003_Node000023" class="edge">
<title>Node3&#45;&gt;Node23</title>
<g id="a_edge60_Node000003_Node000023"><a xlink:title=" ">
<path fill="none" stroke="#63b8ff" d="M994.51,-275.73C1058.75,-253.22 1187.5,-208.12 1243.54,-188.49"/>
<polygon fill="#63b8ff" stroke="#63b8ff" points="993.38,-272.42 985.1,-279.03 995.69,-279.02 993.38,-272.42"/>
</a>
</g>
</g>
<!-- Node5&#45;&gt;Node1 -->
<g id="edge5_Node000005_Node000001" class="edge">
<title>Node5&#45;&gt;Node1</title>
<g id="a_edge5_Node000005_Node000001"><a xlink:title=" ">
<path fill="none" stroke="#63b8ff" d="M870.03,-255.65C872.21,-279.59 871.74,-318.01 868.6,-335.62"/>
<polygon fill="#63b8ff" stroke="#63b8ff" points="873.52,-255.34 868.79,-245.86 866.58,-256.22 873.52,-255.34"/>
</a>
</g>
</g>
<!-- Node5&#45;&gt;Node3 -->
<g id="edge6_Node000005_Node000003" class="edge">
<title>Node5&#45;&gt;Node3</title>
<g id="a_edge6_Node000005_Node000003"><a xlink:title=" ">
<path fill="none" stroke="#63b8ff" d="M895.82,-249.74C913.14,-259.26 933.49,-271.36 945.87,-279.59"/>
<polygon fill="#63b8ff" stroke="#63b8ff" points="897.85,-246.86 887.39,-245.2 894.53,-253.02 897.85,-246.86"/>
</a>
</g>
</g>
<!-- Node6 -->
<g id="Node000006" class="node">
<title>Node6</title>
<g id="a_Node000006"><a xlink:href="_game_engine_8cpp.html" target="_top" xlink:title=" ">
<polygon fill="white" stroke="#666666" points="563.38,-132 455.88,-132 455.88,-112 563.38,-112 563.38,-132"/>
<text text-anchor="middle" x="509.62" y="-118.5" font-family="Helvetica,sans-Serif" font-size="10.00">src/GameEngine.cpp</text>
</a>
</g>
</g>
<!-- Node5&#45;&gt;Node6 -->
<g id="edge7_Node000005_Node000006" class="edge">
<title>Node5&#45;&gt;Node6</title>
<g id="a_edge7_Node000005_Node000006"><a xlink:title=" ">
<path fill="none" stroke="#63b8ff" d="M804.48,-222.58C767.01,-215.12 718.19,-203.63 676.62,-188 658.76,-181.28 656.13,-175.61 638.62,-168 606,-153.82 567.32,-140.8 540.88,-132.46"/>
<polygon fill="#63b8ff" stroke="#63b8ff" points="803.76,-226.01 814.24,-224.48 805.09,-219.14 803.76,-226.01"/>
</a>
</g>
</g>
<!-- Node7 -->
<g id="Node000007" class="node">
<title>Node7</title>
<g id="a_Node000007"><a xlink:href="_graphics_device_8h.html" target="_top" xlink:title=" ">
<polygon fill="white" stroke="#666666" points="1010.75,-188 902.5,-188 902.5,-168 1010.75,-168 1010.75,-188"/>
<text text-anchor="middle" x="956.62" y="-174.5" font-family="Helvetica,sans-Serif" font-size="10.00">src/GraphicsDevice.h</text>
</a>
</g>
</g>
<!-- Node5&#45;&gt;Node7 -->
<g id="edge8_Node000005_Node000007" class="edge">
<title>Node5&#45;&gt;Node7</title>
<g id="a_edge8_Node000005_Node000007"><a xlink:title=" ">
<path fill="none" stroke="#63b8ff" d="M884.79,-217.54C899.76,-208.17 919.92,-196.51 935.19,-188.48"/>
<polygon fill="#63b8ff" stroke="#63b8ff" points="883.17,-214.42 876.66,-222.78 886.96,-220.31 883.17,-214.42"/>
</a>
</g>
</g>
<!-- Node9 -->
<g id="Node000009" class="node">
<title>Node9</title>
<g id="a_Node000009"><a xlink:href="_mesh_8h.html" target="_top" xlink:title=" ">
<polygon fill="white" stroke="#666666" points="1554,-132 1489.25,-132 1489.25,-112 1554,-112 1554,-132"/>
<text text-anchor="middle" x="1521.62" y="-118.5" font-family="Helvetica,sans-Serif" font-size="10.00">src/Mesh.h</text>
</a>
</g>
</g>
<!-- Node5&#45;&gt;Node9 -->
<g id="edge26_Node000005_Node000009" class="edge">
<title>Node5&#45;&gt;Node9</title>
<g id="a_edge26_Node000005_Node000009"><a xlink:title=" ">
<path fill="none" stroke="#63b8ff" d="M903.24,-220.36C932.82,-211.71 974.34,-199.74 1010.62,-188 1035.77,-179.87 1040.81,-173.66 1066.62,-168 1243.14,-129.3 1293.01,-159.43 1471.62,-132 1477.24,-131.14 1483.24,-129.96 1489.13,-128.75"/>
<polygon fill="#63b8ff" stroke="#63b8ff" points="902.59,-216.9 893.98,-223.07 904.56,-223.62 902.59,-216.9"/>
</a>
</g>
</g>
<!-- Node12 -->
<g id="Node000012" class="node">
<title>Node12</title>
<g id="a_Node000012"><a xlink:href="_material_8h.html" target="_top" xlink:title=" ">
<polygon fill="white" stroke="#666666" points="75.25,-132 0,-132 0,-112 75.25,-112 75.25,-132"/>
<text text-anchor="middle" x="37.62" y="-118.5" font-family="Helvetica,sans-Serif" font-size="10.00">src/Material.h</text>
</a>
</g>
</g>
<!-- Node5&#45;&gt;Node12 -->
<g id="edge17_Node000005_Node000012" class="edge">
<title>Node5&#45;&gt;Node12</title>
<g id="a_edge17_Node000005_Node000012"><a xlink:title=" ">
<path fill="none" stroke="#63b8ff" d="M804.31,-229.12C713.9,-222.61 538.43,-208.22 390.62,-188 249.58,-168.71 214.98,-158.18 75.45,-132.15"/>
<polygon fill="#63b8ff" stroke="#63b8ff" points="803.96,-232.6 814.18,-229.82 804.46,-225.62 803.96,-232.6"/>
</a>
</g>
</g>
<!-- Node14 -->
<g id="Node000014" class="node">
<title>Node14</title>
<g id="a_Node000014"><a xlink:href="_model_8h.html" target="_top" xlink:title=" ">
<polygon fill="white" stroke="#666666" points="945.12,-76 878.12,-76 878.12,-56 945.12,-56 945.12,-76"/>
<text text-anchor="middle" x="911.62" y="-62.5" font-family="Helvetica,sans-Serif" font-size="10.00">src/Model.h</text>
</a>
</g>
</g>
<!-- Node5&#45;&gt;Node14 -->
<g id="edge27_Node000005_Node000014" class="edge">
<title>Node5&#45;&gt;Node14</title>
<g id="a_edge27_Node000005_Node000014"><a xlink:title=" ">
<path fill="none" stroke="#63b8ff" d="M865.8,-212.5C872.85,-176.27 894.22,-102.31 905.67,-76.3"/>
<polygon fill="#63b8ff" stroke="#63b8ff" points="862.39,-211.67 864.2,-222.11 869.3,-212.82 862.39,-211.67"/>
</a>
</g>
</g>
<!-- Node15 -->
<g id="Node000015" class="node">
<title>Node15</title>
<g id="a_Node000015"><a xlink:href="_render_state_8h.html" target="_top" xlink:title=" ">
<polygon fill="white" stroke="#666666" points="503,-188 408.25,-188 408.25,-168 503,-168 503,-188"/>
<text text-anchor="middle" x="455.62" y="-174.5" font-family="Helvetica,sans-Serif" font-size="10.00">src/RenderState.h</text>
</a>
</g>
</g>
<!-- Node5&#45;&gt;Node15 -->
<g id="edge28_Node000005_Node000015" class="edge">
<title>Node5&#45;&gt;Node15</title>
<g id="a_edge28_Node000005_Node000015"><a xlink:title=" ">
<path fill="none" stroke="#63b8ff" d="M804.66,-226.63C732.79,-218.32 609.13,-203.07 503.62,-188 503.53,-187.99 503.43,-187.97 503.33,-187.96"/>
<polygon fill="#63b8ff" stroke="#63b8ff" points="803.9,-230.06 814.23,-227.73 804.7,-223.11 803.9,-230.06"/>
</a>
</g>
</g>
<!-- Node17 -->
<g id="Node000017" class="node">
<title>Node17</title>
<g id="a_Node000017"><a xlink:href="_scene_8h.html" target="_top" xlink:title=" ">
<polygon fill="white" stroke="#666666" points="753.88,-188 685.38,-188 685.38,-168 753.88,-168 753.88,-188"/>
<text text-anchor="middle" x="719.62" y="-174.5" font-family="Helvetica,sans-Serif" font-size="10.00">src/Scene.h</text>
</a>
</g>
</g>
<!-- Node5&#45;&gt;Node17 -->
<g id="edge33_Node000005_Node000017" class="edge">
<title>Node5&#45;&gt;Node17</title>
<g id="a_edge33_Node000005_Node000017"><a xlink:title=" ">
<path fill="none" stroke="#63b8ff" d="M828.81,-219.66C802.82,-209.98 768.29,-197.12 745.08,-188.48"/>
<polygon fill="#63b8ff" stroke="#63b8ff" points="827.36,-222.86 837.95,-223.07 829.8,-216.3 827.36,-222.86"/>
</a>
</g>
</g>
<!-- Node19 -->
<g id="Node000019" class="node">
<title>Node19</title>
<g id="a_Node000019"><a xlink:href="_shader_manager_8h.html" target="_top" xlink:title=" ">
<polygon fill="white" stroke="#666666" points="1194.12,-188 1085.12,-188 1085.12,-168 1194.12,-168 1194.12,-188"/>
<text text-anchor="middle" x="1139.62" y="-174.5" font-family="Helvetica,sans-Serif" font-size="10.00">src/ShaderManager.h</text>
</a>
</g>
</g>
<!-- Node5&#45;&gt;Node19 -->
<g id="edge35_Node000005_Node000019" class="edge">
<title>Node5&#45;&gt;Node19</title>
<g id="a_edge35_Node000005_Node000019"><a xlink:title=" ">
<path fill="none" stroke="#63b8ff" d="M923.83,-221.37C973.92,-211.54 1044.8,-197.62 1091.46,-188.46"/>
<polygon fill="#63b8ff" stroke="#63b8ff" points="923.46,-217.88 914.33,-223.24 924.81,-224.75 923.46,-217.88"/>
</a>
</g>
</g>
<!-- Node21 -->
<g id="Node000021" class="node">
<title>Node21</title>
<g id="a_Node000021"><a xlink:href="_shader_program_8h.html" target="_top" xlink:title=" ">
<polygon fill="white" stroke="#666666" points="629.75,-188 521.5,-188 521.5,-168 629.75,-168 629.75,-188"/>
<text text-anchor="middle" x="575.62" y="-174.5" font-family="Helvetica,sans-Serif" font-size="10.00">src/ShaderProgram.h</text>
</a>
</g>
</g>
<!-- Node5&#45;&gt;Node21 -->
<g id="edge38_Node000005_Node000021" class="edge">
<title>Node5&#45;&gt;Node21</title>
<g id="a_edge38_Node000005_Node000021"><a xlink:title=" ">
<path fill="none" stroke="#63b8ff" d="M804.45,-222.77C749.8,-212.9 670.49,-198.07 620.99,-188.46"/>
<polygon fill="#63b8ff" stroke="#63b8ff" points="803.77,-226.2 814.23,-224.53 805.01,-219.31 803.77,-226.2"/>
</a>
</g>
</g>
<!-- Node5&#45;&gt;Node23 -->
<g id="edge43_Node000005_Node000023" class="edge">
<title>Node5&#45;&gt;Node23</title>
<g id="a_edge43_Node000005_Node000023"><a xlink:title=" ">
<path fill="none" stroke="#63b8ff" d="M924.49,-224.19C990.63,-215.14 1100.05,-200.63 1194.62,-188 1200.21,-187.25 1206.05,-186.47 1211.93,-185.69"/>
<polygon fill="#63b8ff" stroke="#63b8ff" points="924.39,-220.67 914.96,-225.49 925.34,-227.6 924.39,-220.67"/>
</a>
</g>
</g>
<!-- Node25 -->
<g id="Node000025" class="node">
<title>Node25</title>
<g id="a_Node000025"><a xlink:href="pch_8h.html" target="_top" xlink:title=" ">
<polygon fill="white" stroke="#666666" points="828.88,-188 772.38,-188 772.38,-168 828.88,-168 828.88,-188"/>
<text text-anchor="middle" x="800.62" y="-174.5" font-family="Helvetica,sans-Serif" font-size="10.00">src/pch.h</text>
</a>
</g>
</g>
<!-- Node5&#45;&gt;Node25 -->
<g id="edge46_Node000005_Node000025" class="edge">
<title>Node5&#45;&gt;Node25</title>
<g id="a_edge46_Node000005_Node000025"><a xlink:title=" ">
<path fill="none" stroke="#63b8ff" d="M844.95,-216.4C834.01,-207.17 820.78,-196.01 811.65,-188.3"/>
<polygon fill="#63b8ff" stroke="#63b8ff" points="842.42,-218.84 852.32,-222.62 846.93,-213.49 842.42,-218.84"/>
</a>
</g>
</g>
<!-- Node7&#45;&gt;Node3 -->
<g id="edge9_Node000007_Node000003" class="edge">
<title>Node7&#45;&gt;Node3</title>
<g id="a_edge9_Node000007_Node000003"><a xlink:title=" ">
<path fill="none" stroke="#63b8ff" d="M956.62,-199.65C956.62,-223.59 956.62,-262.01 956.62,-279.62"/>
<polygon fill="#63b8ff" stroke="#63b8ff" points="960.13,-199.87 956.63,-189.87 953.13,-199.87 960.13,-199.87"/>
</a>
</g>
</g>
<!-- Node7&#45;&gt;Node5 -->
<g id="edge10_Node000007_Node000005" class="edge">
<title>Node7&#45;&gt;Node5</title>
<g id="a_edge10_Node000007_Node000005"><a xlink:title=" ">
<path fill="none" stroke="#63b8ff" d="M936.32,-194.54C921.32,-203.93 901.16,-215.59 885.92,-223.59"/>
<polygon fill="#63b8ff" stroke="#63b8ff" points="937.96,-197.65 944.48,-189.3 934.18,-191.76 937.96,-197.65"/>
</a>
</g>
</g>
<!-- Node8 -->
<g id="Node000008" class="node">
<title>Node8</title>
<g id="a_Node000008"><a xlink:href="_graphics_device_8cpp.html" target="_top" xlink:title=" ">
<polygon fill="white" stroke="#666666" points="1052,-132 933.25,-132 933.25,-112 1052,-112 1052,-132"/>
<text text-anchor="middle" x="992.62" y="-118.5" font-family="Helvetica,sans-Serif" font-size="10.00">src/GraphicsDevice.cpp</text>
</a>
</g>
</g>
<!-- Node7&#45;&gt;Node8 -->
<g id="edge11_Node000007_Node000008" class="edge">
<title>Node7&#45;&gt;Node8</title>
<g id="a_edge11_Node000007_Node000008"><a xlink:title=" ">
<path fill="none" stroke="#63b8ff" d="M969.19,-158.15C975.02,-149.4 981.7,-139.39 986.43,-132.3"/>
<polygon fill="#63b8ff" stroke="#63b8ff" points="966.37,-156.07 963.74,-166.33 972.19,-159.96 966.37,-156.07"/>
</a>
</g>
</g>
<!-- Node7&#45;&gt;Node9 -->
<g id="edge12_Node000007_Node000009" class="edge">
<title>Node7&#45;&gt;Node9</title>
<g id="a_edge12_Node000007_Node000009"><a xlink:title=" ">
<path fill="none" stroke="#63b8ff" d="M1022.56,-168.22C1023.25,-168.15 1023.94,-168.07 1024.62,-168 1226.8,-146.66 1279.53,-161.86 1480.62,-132 1483.36,-131.59 1486.19,-131.11 1489.03,-130.58"/>
<polygon fill="#63b8ff" stroke="#63b8ff" points="1022.2,-164.74 1012.66,-169.35 1022.99,-171.69 1022.2,-164.74"/>
</a>
</g>
</g>
<!-- Node9&#45;&gt;Node3 -->
<g id="edge13_Node000009_Node000003" class="edge">
<title>Node9&#45;&gt;Node3</title>
<g id="a_edge13_Node000009_Node000003"><a xlink:title=" ">
<path fill="none" stroke="#63b8ff" d="M1493.92,-137.71C1444.48,-163.32 1337.15,-216.05 1240.62,-244 1162.71,-266.56 1069.28,-278.61 1011.42,-284.41"/>
<polygon fill="#63b8ff" stroke="#63b8ff" points="1495.53,-140.82 1502.78,-133.09 1492.29,-134.61 1495.53,-140.82"/>
</a>
</g>
</g>
<!-- Node9&#45;&gt;Node5 -->
<g id="edge14_Node000009_Node000005" class="edge">
<title>Node9&#45;&gt;Node5</title>
<g id="a_edge14_Node000009_Node000005"><a xlink:title=" ">
<path fill="none" stroke="#63b8ff" d="M1477.54,-133.8C1308.66,-158.08 1257.1,-130.18 1084.62,-168 1058.81,-173.66 1053.77,-179.87 1028.62,-188 987.7,-201.24 940.13,-214.78 906.65,-223.5"/>
<polygon fill="#63b8ff" stroke="#63b8ff" points="1477.97,-137.27 1487.34,-132.34 1476.94,-130.35 1477.97,-137.27"/>
</a>
</g>
</g>
<!-- Node10 -->
<g id="Node000010" class="node">
<title>Node10</title>
<g id="a_Node000010"><a xlink:href="_mesh_8cpp.html" target="_top" xlink:title=" ">
<polygon fill="white" stroke="#666666" points="902.25,-20 827,-20 827,0 902.25,0 902.25,-20"/>
<text text-anchor="middle" x="864.62" y="-6.5" font-family="Helvetica,sans-Serif" font-size="10.00">src/Mesh.cpp</text>
</a>
</g>
</g>
<!-- Node9&#45;&gt;Node10 -->
<g id="edge15_Node000009_Node000010" class="edge">
<title>Node9&#45;&gt;Node10</title>
<g id="a_edge15_Node000009_Node000010"><a xlink:title=" ">
<path fill="none" stroke="#63b8ff" d="M1477.96,-111.6C1373.54,-92.53 1344.76,-92.34 1242.62,-76 1094.86,-52.36 1057.84,-46.81 910.62,-20 907.9,-19.5 905.09,-18.98 902.27,-18.45"/>
<polygon fill="#63b8ff" stroke="#63b8ff" points="1477.03,-114.99 1487.5,-113.36 1478.3,-108.1 1477.03,-114.99"/>
</a>
</g>
</g>
<!-- Node11 -->
<g id="Node000011" class="node">
<title>Node11</title>
<g id="a_Node000011"><a xlink:href="_model_8cpp.html" target="_top" xlink:title=" ">
<polygon fill="white" stroke="#666666" points="997.38,-20 919.88,-20 919.88,0 997.38,0 997.38,-20"/>
<text text-anchor="middle" x="958.62" y="-6.5" font-family="Helvetica,sans-Serif" font-size="10.00">src/Model.cpp</text>
</a>
</g>
</g>
<!-- Node9&#45;&gt;Node11 -->
<g id="edge16_Node000009_Node000011" class="edge">
<title>Node9&#45;&gt;Node11</title>
<g id="a_edge16_Node000009_Node000011"><a xlink:title=" ">
<path fill="none" stroke="#63b8ff" d="M1478.13,-109.85C1423.42,-96.05 1326.47,-72.39 1242.62,-56 1155.66,-39 1052.76,-23.94 997.83,-16.3"/>
<polygon fill="#63b8ff" stroke="#63b8ff" points="1477.12,-113.2 1487.68,-112.26 1478.84,-106.41 1477.12,-113.2"/>
</a>
</g>
</g>
<!-- Node12&#45;&gt;Node3 -->
<g id="edge18_Node000012_Node000003" class="edge">
<title>Node12&#45;&gt;Node3</title>
<g id="a_edge18_Node000012_Node000003"><a xlink:title=" ">
<path fill="none" stroke="#63b8ff" d="M77.69,-135.86C123.64,-150.23 201.42,-173.39 269.62,-188 502.43,-237.89 784.92,-270.91 901.87,-283.4"/>
<polygon fill="#63b8ff" stroke="#63b8ff" points="79.03,-132.62 68.44,-132.95 76.93,-139.29 79.03,-132.62"/>
</a>
</g>
</g>
<!-- Node12&#45;&gt;Node5 -->
<g id="edge19_Node000012_Node000005" class="edge">
<title>Node12&#45;&gt;Node5</title>
<g id="a_edge19_Node000012_Node000005"><a xlink:title=" ">
<path fill="none" stroke="#63b8ff" d="M86.91,-130.93C88.84,-131.29 90.76,-131.65 92.62,-132 232.84,-158.14 267.31,-168.67 408.62,-188 556.48,-208.22 732.02,-222.62 815.71,-229.12"/>
<polygon fill="#63b8ff" stroke="#63b8ff" points="87.61,-127.5 77.13,-129.07 86.3,-134.37 87.61,-127.5"/>
</a>
</g>
</g>
<!-- Node13 -->
<g id="Node000013" class="node">
<title>Node13</title>
<g id="a_Node000013"><a xlink:href="_material_8cpp.html" target="_top" xlink:title=" ">
<polygon fill="white" stroke="#666666" points="432.5,-76 346.75,-76 346.75,-56 432.5,-56 432.5,-76"/>
<text text-anchor="middle" x="389.62" y="-62.5" font-family="Helvetica,sans-Serif" font-size="10.00">src/Material.cpp</text>
</a>
</g>
</g>
<!-- Node12&#45;&gt;Node13 -->
<g id="edge20_Node000012_Node000013" class="edge">
<title>Node12&#45;&gt;Node13</title>
<g id="a_edge20_Node000012_Node000013"><a xlink:title=" ">
<path fill="none" stroke="#63b8ff" d="M86.32,-111.6C184.93,-94.9 289.24,-80.39 346.45,-72.7"/>
<polygon fill="#63b8ff" stroke="#63b8ff" points="86.02,-108.1 76.75,-113.23 87.19,-115 86.02,-108.1"/>
</a>
</g>
</g>
<!-- Node12&#45;&gt;Node14 -->
<g id="edge21_Node000012_Node000014" class="edge">
<title>Node12&#45;&gt;Node14</title>
<g id="a_edge21_Node000012_Node000014"><a xlink:title=" ">
<path fill="none" stroke="#63b8ff" d="M86.8,-111.76C399.17,-73.7 766.48,-68.03 877.96,-67.16"/>
<polygon fill="#63b8ff" stroke="#63b8ff" points="86.71,-108.24 77.22,-112.94 87.57,-115.19 86.71,-108.24"/>
</a>
</g>
</g>
<!-- Node14&#45;&gt;Node3 -->
<g id="edge22_Node000014_Node000003" class="edge">
<title>Node14&#45;&gt;Node3</title>
<g id="a_edge22_Node000014_Node000003"><a xlink:title=" ">
<path fill="none" stroke="#63b8ff" d="M956.57,-66.65C1097.11,-66.03 1521.42,-67.84 1562.62,-112 1610.66,-163.47 1489,-161.85 1423.62,-188 1361.02,-213.04 1347.83,-226.82 1282.62,-244 1189.12,-268.64 1076.76,-280.37 1011.35,-285.49"/>
<polygon fill="#63b8ff" stroke="#63b8ff" points="956.9,-63.15 946.91,-66.7 956.93,-70.15 956.9,-63.15"/>
</a>
</g>
</g>
<!-- Node14&#45;&gt;Node5 -->
<g id="edge23_Node000014_Node000005" class="edge">
<title>Node14&#45;&gt;Node5</title>
<g id="a_edge23_Node000014_Node000005"><a xlink:title=" ">
<path fill="none" stroke="#63b8ff" d="M910.48,-87.36C903.47,-123.48 882.1,-197.46 870.62,-223.6"/>
<polygon fill="#63b8ff" stroke="#63b8ff" points="913.88,-88.23 912.07,-77.79 906.97,-87.08 913.88,-88.23"/>
</a>
</g>
</g>
<!-- Node14&#45;&gt;Node10 -->
<g id="edge24_Node000014_Node000010" class="edge">
<title>Node14&#45;&gt;Node10</title>
<g id="a_edge24_Node000014_Node000010"><a xlink:title=" ">
<path fill="none" stroke="#63b8ff" d="M895.96,-47C888.18,-38.06 879.09,-27.62 872.72,-20.3"/>
<polygon fill="#63b8ff" stroke="#63b8ff" points="893.24,-49.21 902.44,-54.45 898.52,-44.61 893.24,-49.21"/>
</a>
</g>
</g>
<!-- Node14&#45;&gt;Node11 -->
<g id="edge25_Node000014_Node000011" class="edge">
<title>Node14&#45;&gt;Node11</title>
<g id="a_edge25_Node000014_Node000011"><a xlink:title=" ">
<path fill="none" stroke="#63b8ff" d="M927.29,-47C935.07,-38.06 944.16,-27.62 950.53,-20.3"/>
<polygon fill="#63b8ff" stroke="#63b8ff" points="924.73,-44.61 920.81,-54.45 930.01,-49.21 924.73,-44.61"/>
</a>
</g>
</g>
<!-- Node15&#45;&gt;Node3 -->
<g id="edge29_Node000015_Node000003" class="edge">
<title>Node15&#45;&gt;Node3</title>
<g id="a_edge29_Node000015_Node000003"><a xlink:title=" ">
<path fill="none" stroke="#63b8ff" d="M504.11,-191.15C558.59,-204.65 649.74,-226.83 728.62,-244 789.34,-257.21 859.51,-270.81 905.8,-279.55"/>
<polygon fill="#63b8ff" stroke="#63b8ff" points="505.07,-187.78 494.52,-188.76 503.38,-194.57 505.07,-187.78"/>
</a>
</g>
</g>
<!-- Node15&#45;&gt;Node5 -->
<g id="edge30_Node000015_Node000005" class="edge">
<title>Node15&#45;&gt;Node5</title>
<g id="a_edge30_Node000015_Node000005"><a xlink:title=" ">
<path fill="none" stroke="#63b8ff" d="M514.64,-186.98C517,-187.33 519.34,-187.67 521.62,-188 626.37,-202.96 749.01,-218.1 815.66,-226.45"/>
<polygon fill="#63b8ff" stroke="#63b8ff" points="515.34,-183.55 504.93,-185.53 514.3,-190.47 515.34,-183.55"/>
</a>
</g>
</g>
<!-- Node15&#45;&gt;Node12 -->
<g id="edge31_Node000015_Node000012" class="edge">
<title>Node15&#45;&gt;Node12</title>
<g id="a_edge31_Node000015_Node000012"><a xlink:title=" ">
<path fill="none" stroke="#63b8ff" d="M396.6,-171.2C323.07,-163.67 193.72,-149.41 83.62,-132 81.05,-131.59 78.41,-131.15 75.74,-130.68"/>
<polygon fill="#63b8ff" stroke="#63b8ff" points="396.1,-174.67 406.4,-172.2 396.81,-167.7 396.1,-174.67"/>
</a>
</g>
</g>
<!-- Node16 -->
<g id="Node000016" class="node">
<title>Node16</title>
<g id="a_Node000016"><a xlink:href="_render_state_8cpp.html" target="_top" xlink:title=" ">
<polygon fill="white" stroke="#666666" points="301.25,-132 196,-132 196,-112 301.25,-112 301.25,-132"/>
<text text-anchor="middle" x="248.62" y="-118.5" font-family="Helvetica,sans-Serif" font-size="10.00">src/RenderState.cpp</text>
</a>
</g>
</g>
<!-- Node15&#45;&gt;Node16 -->
<g id="edge32_Node000015_Node000016" class="edge">
<title>Node15&#45;&gt;Node16</title>
<g id="a_edge32_Node000015_Node000016"><a xlink:title=" ">
<path fill="none" stroke="#63b8ff" d="M408.91,-164.81C371.38,-155.02 319.43,-141.47 284.96,-132.48"/>
<polygon fill="#63b8ff" stroke="#63b8ff" points="407.54,-168.07 418.1,-167.21 409.31,-161.3 407.54,-168.07"/>
</a>
</g>
</g>
<!-- Node18 -->
<g id="Node000018" class="node">
<title>Node18</title>
<g id="a_Node000018"><a xlink:href="_scene_8cpp.html" target="_top" xlink:title=" ">
<polygon fill="white" stroke="#666666" points="660.12,-132 581.12,-132 581.12,-112 660.12,-112 660.12,-132"/>
<text text-anchor="middle" x="620.62" y="-118.5" font-family="Helvetica,sans-Serif" font-size="10.00">src/Scene.cpp</text>
</a>
</g>
</g>
<!-- Node17&#45;&gt;Node18 -->
<g id="edge34_Node000017_Node000018" class="edge">
<title>Node17&#45;&gt;Node18</title>
<g id="a_edge34_Node000017_Node000018"><a xlink:title=" ">
<path fill="none" stroke="#63b8ff" d="M692.76,-162.35C675.34,-152.84 653.14,-140.74 638,-132.48"/>
<polygon fill="#63b8ff" stroke="#63b8ff" points="690.6,-165.15 701.05,-166.87 693.95,-159.01 690.6,-165.15"/>
</a>
</g>
</g>
<!-- Node19&#45;&gt;Node3 -->
<g id="edge36_Node000019_Node000003" class="edge">
<title>Node19&#45;&gt;Node3</title>
<g id="a_edge36_Node000019_Node000003"><a xlink:title=" ">
<path fill="none" stroke="#63b8ff" d="M1114.64,-194.02C1076.28,-217.08 1003.97,-260.54 972.23,-279.62"/>
<polygon fill="#63b8ff" stroke="#63b8ff" points="1116,-197.29 1122.76,-189.13 1112.39,-191.29 1116,-197.29"/>
</a>
</g>
</g>
<!-- Node20 -->
<g id="Node000020" class="node">
<title>Node20</title>
<g id="a_Node000020"><a xlink:href="_shader_manager_8cpp.html" target="_top" xlink:title=" ">
<polygon fill="white" stroke="#666666" points="1189.38,-132 1069.88,-132 1069.88,-112 1189.38,-112 1189.38,-132"/>
<text text-anchor="middle" x="1129.62" y="-118.5" font-family="Helvetica,sans-Serif" font-size="10.00">src/ShaderManager.cpp</text>
</a>
</g>
</g>
<!-- Node19&#45;&gt;Node20 -->
<g id="edge37_Node000019_Node000020" class="edge">
<title>Node19&#45;&gt;Node20</title>
<g id="a_edge37_Node000019_Node000020"><a xlink:title=" ">
<path fill="none" stroke="#63b8ff" d="M1135.81,-156.43C1134.27,-148.11 1132.58,-138.93 1131.35,-132.3"/>
<polygon fill="#63b8ff" stroke="#63b8ff" points="1132.35,-156.91 1137.61,-166.11 1139.23,-155.64 1132.35,-156.91"/>
</a>
</g>
</g>
<!-- Node21&#45;&gt;Node3 -->
<g id="edge39_Node000021_Node000003" class="edge">
<title>Node21&#45;&gt;Node3</title>
<g id="a_edge39_Node000021_Node000003"><a xlink:title=" ">
<path fill="none" stroke="#63b8ff" d="M619.26,-191.6C696.4,-213.87 855.17,-259.71 923.81,-279.53"/>
<polygon fill="#63b8ff" stroke="#63b8ff" points="620.53,-188.32 609.95,-188.91 618.59,-195.05 620.53,-188.32"/>
</a>
</g>
</g>
<!-- Node21&#45;&gt;Node5 -->
<g id="edge40_Node000021_Node000005" class="edge">
<title>Node21&#45;&gt;Node5</title>
<g id="a_edge40_Node000021_Node000005"><a xlink:title=" ">
<path fill="none" stroke="#63b8ff" d="M641.27,-190.22C695.63,-200.07 771.36,-214.24 819.23,-223.53"/>
<polygon fill="#63b8ff" stroke="#63b8ff" points="641.96,-186.79 631.5,-188.46 640.72,-193.68 641.96,-186.79"/>
</a>
</g>
</g>
<!-- Node21&#45;&gt;Node12 -->
<g id="edge41_Node000021_Node000012" class="edge">
<title>Node21&#45;&gt;Node12</title>
<g id="a_edge41_Node000021_Node000012"><a xlink:title=" ">
<path fill="none" stroke="#63b8ff" d="M509.96,-167.89C320,-147.13 269.09,-157.86 83.62,-132 81.05,-131.64 78.39,-131.23 75.72,-130.79"/>
<polygon fill="#63b8ff" stroke="#63b8ff" points="509.35,-171.34 519.68,-168.97 510.13,-164.39 509.35,-171.34"/>
</a>
</g>
</g>
<!-- Node22 -->
<g id="Node000022" class="node">
<title>Node22</title>
<g id="a_Node000022"><a xlink:href="_shader_program_8cpp.html" target="_top" xlink:title=" ">
<polygon fill="white" stroke="#666666" points="438,-132 319.25,-132 319.25,-112 438,-112 438,-132"/>
<text text-anchor="middle" x="378.62" y="-118.5" font-family="Helvetica,sans-Serif" font-size="10.00">src/ShaderProgram.cpp</text>
</a>
</g>
</g>
<!-- Node21&#45;&gt;Node22 -->
<g id="edge42_Node000021_Node000022" class="edge">
<title>Node21&#45;&gt;Node22</title>
<g id="a_edge42_Node000021_Node000022"><a xlink:title=" ">
<path fill="none" stroke="#63b8ff" d="M530.24,-164.56C494.6,-154.79 445.73,-141.39 413.21,-132.48"/>
<polygon fill="#63b8ff" stroke="#63b8ff" points="529.28,-167.93 539.85,-167.19 531.13,-161.17 529.28,-167.93"/>
</a>
</g>
</g>
<!-- Node23&#45;&gt;Node5 -->
<g id="edge44_Node000023_Node000005" class="edge">
<title>Node23&#45;&gt;Node5</title>
<g id="a_edge44_Node000023_Node000005"><a xlink:title=" ">
<path fill="none" stroke="#63b8ff" d="M1200.73,-189.59C1097.06,-203.42 978.59,-219.1 913.54,-227.3"/>
<polygon fill="#63b8ff" stroke="#63b8ff" points="1201.05,-193.08 1210.5,-188.28 1200.13,-186.14 1201.05,-193.08"/>
</a>
</g>
</g>
<!-- Node24 -->
<g id="Node000024" class="node">
<title>Node24</title>
<g id="a_Node000024"><a xlink:href="_win32_application_8cpp.html" target="_top" xlink:title=" ">
<polygon fill="white" stroke="#666666" points="1334.12,-132 1207.12,-132 1207.12,-112 1334.12,-112 1334.12,-132"/>
<text text-anchor="middle" x="1270.62" y="-118.5" font-family="Helvetica,sans-Serif" font-size="10.00">src/Win32Application.cpp</text>
</a>
</g>
</g>
<!-- Node23&#45;&gt;Node24 -->
<g id="edge45_Node000023_Node000024" class="edge">
<title>Node23&#45;&gt;Node24</title>
<g id="a_edge45_Node000023_Node000024"><a xlink:title=" ">
<path fill="none" stroke="#63b8ff" d="M1270.62,-156.13C1270.62,-147.9 1270.62,-138.85 1270.62,-132.3"/>
<polygon fill="#63b8ff" stroke="#63b8ff" points="1267.13,-156.08 1270.63,-166.08 1274.13,-156.08 1267.13,-156.08"/>
</a>
</g>
</g>
<!-- Node25&#45;&gt;Node2 -->
<g id="edge47_Node000025_Node000002" class="edge">
<title>Node25&#45;&gt;Node2</title>
<g id="a_edge47_Node000025_Node000002"><a xlink:title=" ">
<path fill="none" stroke="#63b8ff" d="M761.03,-168.06C506.96,-131.2 437.72,-161.91 186.62,-132 183.95,-131.68 181.2,-131.31 178.43,-130.91"/>
<polygon fill="#63b8ff" stroke="#63b8ff" points="760.19,-171.48 770.59,-169.47 761.21,-164.55 760.19,-171.48"/>
</a>
</g>
</g>
<!-- Node25&#45;&gt;Node4 -->
<g id="edge48_Node000025_Node000004" class="edge">
<title>Node25&#45;&gt;Node4</title>
<g id="a_edge48_Node000025_Node000004"><a xlink:title=" ">
<path fill="none" stroke="#63b8ff" d="M840.52,-172.99C856.96,-171.38 876.2,-169.54 893.62,-168 1093.48,-150.34 1144.11,-153.17 1343.62,-132 1346.23,-131.72 1348.89,-131.43 1351.58,-131.12"/>
<polygon fill="#63b8ff" stroke="#63b8ff" points="840.22,-169.5 830.61,-173.97 840.91,-176.47 840.22,-169.5"/>
</a>
</g>
</g>
<!-- Node25&#45;&gt;Node6 -->
<g id="edge49_Node000025_Node000006" class="edge">
<title>Node25&#45;&gt;Node6</title>
<g id="a_edge49_Node000025_Node000006"><a xlink:title=" ">
<path fill="none" stroke="#63b8ff" d="M761.09,-167.78C686.88,-152.57 612.52,-139.77 563.59,-131.69"/>
<polygon fill="#63b8ff" stroke="#63b8ff" points="760.05,-171.14 770.55,-169.74 761.46,-164.29 760.05,-171.14"/>
</a>
</g>
</g>
<!-- Node25&#45;&gt;Node8 -->
<g id="edge50_Node000025_Node000008" class="edge">
<title>Node25&#45;&gt;Node8</title>
<g id="a_edge50_Node000025_Node000008"><a xlink:title=" ">
<path fill="none" stroke="#63b8ff" d="M840.18,-165.88C875.29,-156 926.02,-141.73 959.16,-132.41"/>
<polygon fill="#63b8ff" stroke="#63b8ff" points="839.51,-162.43 830.83,-168.51 841.4,-169.17 839.51,-162.43"/>
</a>
</g>
</g>
<!-- Node25&#45;&gt;Node10 -->
<g id="edge52_Node000025_Node000010" class="edge">
<title>Node25&#45;&gt;Node10</title>
<g id="a_edge52_Node000025_Node000010"><a xlink:title=" ">
<path fill="none" stroke="#63b8ff" d="M804.66,-156.43C809.91,-131.83 820.28,-89.73 835.62,-56 841.63,-42.8 851.09,-28.98 857.56,-20.19"/>
<polygon fill="#63b8ff" stroke="#63b8ff" points="801.26,-155.58 802.68,-166.08 808.12,-156.99 801.26,-155.58"/>
</a>
</g>
</g>
<!-- Node25&#45;&gt;Node11 -->
<g id="edge53_Node000025_Node000011" class="edge">
<title>Node25&#45;&gt;Node11</title>
<g id="a_edge53_Node000025_Node000011"><a xlink:title=" ">
<path fill="none" stroke="#63b8ff" d="M812.3,-157.98C817.13,-150 822.73,-140.6 827.62,-132 846.61,-98.65 841.07,-82.71 868.62,-56 885.68,-39.46 910.02,-27.8 929.08,-20.49"/>
<polygon fill="#63b8ff" stroke="#63b8ff" points="809.34,-156.11 807.12,-166.47 815.32,-159.76 809.34,-156.11"/>
</a>
</g>
</g>
<!-- Node25&#45;&gt;Node13 -->
<g id="edge51_Node000025_Node000013" class="edge">
<title>Node25&#45;&gt;Node13</title>
<g id="a_edge51_Node000025_Node000013"><a xlink:title=" ">
<path fill="none" stroke="#63b8ff" d="M791.84,-157.23C784.06,-142.2 771.2,-122.39 753.62,-112 700.25,-80.45 517.43,-70.86 433,-68.08"/>
<polygon fill="#63b8ff" stroke="#63b8ff" points="788.66,-158.69 796.14,-166.2 794.97,-155.67 788.66,-158.69"/>
</a>
</g>
</g>
<!-- Node25&#45;&gt;Node16 -->
<g id="edge54_Node000025_Node000016" class="edge">
<title>Node25&#45;&gt;Node16</title>
<g id="a_edge54_Node000025_Node000016"><a xlink:title=" ">
<path fill="none" stroke="#63b8ff" d="M760.93,-168C561.6,-137.32 507.27,-154.08 310.62,-132 307.71,-131.67 304.71,-131.31 301.7,-130.93"/>
<polygon fill="#63b8ff" stroke="#63b8ff" points="760.17,-171.43 770.59,-169.51 761.25,-164.51 760.17,-171.43"/>
</a>
</g>
</g>
<!-- Node25&#45;&gt;Node18 -->
<g id="edge55_Node000025_Node000018" class="edge">
<title>Node25&#45;&gt;Node18</title>
<g id="a_edge55_Node000025_Node000018"><a xlink:title=" ">
<path fill="none" stroke="#63b8ff" d="M761.11,-165.14C728.33,-155.31 682.35,-141.52 652.04,-132.42"/>
<polygon fill="#63b8ff" stroke="#63b8ff" points="760.07,-168.49 770.65,-168.01 762.08,-161.78 760.07,-168.49"/>
</a>
</g>
</g>
<!-- Node25&#45;&gt;Node20 -->
<g id="edge56_Node000025_Node000020" class="edge">
<title>Node25&#45;&gt;Node20</title>
<g id="a_edge56_Node000025_Node000020"><a xlink:title=" ">
<path fill="none" stroke="#63b8ff" d="M840.44,-170.47C898.15,-160.99 1005.39,-143.39 1071.82,-132.49"/>
<polygon fill="#63b8ff" stroke="#63b8ff" points="840.04,-166.98 830.74,-172.06 841.17,-173.89 840.04,-166.98"/>
</a>
</g>
</g>
<!-- Node25&#45;&gt;Node22 -->
<g id="edge57_Node000025_Node000022" class="edge">
<title>Node25&#45;&gt;Node22</title>
<g id="a_edge57_Node000025_Node000022"><a xlink:title=" ">
<path fill="none" stroke="#63b8ff" d="M760.95,-167.92C621.46,-143.94 583.36,-148.84 446.62,-132 443.91,-131.67 441.13,-131.32 438.32,-130.96"/>
<polygon fill="#63b8ff" stroke="#63b8ff" points="760.12,-171.33 770.58,-169.59 761.32,-164.43 760.12,-171.33"/>
</a>
</g>
</g>
<!-- Node25&#45;&gt;Node24 -->
<g id="edge58_Node000025_Node000024" class="edge">
<title>Node25&#45;&gt;Node24</title>
<g id="a_edge58_Node000025_Node000024"><a xlink:title=" ">
<path fill="none" stroke="#63b8ff" d="M840.27,-172.67C911.86,-164.83 1067.48,-147.61 1198.62,-132 1201.25,-131.69 1203.93,-131.37 1206.64,-131.04"/>
<polygon fill="#63b8ff" stroke="#63b8ff" points="840.18,-169.16 830.62,-173.73 840.94,-176.12 840.18,-169.16"/>
</a>
</g>
</g>
<!-- Node26 -->
<g id="Node000026" class="node">
<title>Node26</title>
<g id="a_Node000026"><a xlink:href="pch_8cpp.html" target="_top" xlink:title=" ">
<polygon fill="white" stroke="#666666" points="745.12,-132 678.12,-132 678.12,-112 745.12,-112 745.12,-132"/>
<text text-anchor="middle" x="711.62" y="-118.5" font-family="Helvetica,sans-Serif" font-size="10.00">src/pch.cpp</text>
</a>
</g>
</g>
<!-- Node25&#45;&gt;Node26 -->
<g id="edge59_Node000025_Node000026" class="edge">
<title>Node25&#45;&gt;Node26</title>
<g id="a_edge59_Node000025_Node000026"><a xlink:title=" ">
<path fill="none" stroke="#63b8ff" d="M775.59,-161.81C760.07,-152.39 740.6,-140.58 727.25,-132.48"/>
<polygon fill="#63b8ff" stroke="#63b8ff" points="773.46,-164.61 783.83,-166.81 777.09,-158.63 773.46,-164.61"/>
</a>
</g>
</g>
</g>
</svg>

<g id="navigator" transform="translate(0 0)" fill="#404254">
  <rect fill="#f2f5e9" fill-opacity="0.5" stroke="#606060" stroke-width=".5" x="0" y="0" width="60" height="60"/>
  <use id="zoomplus" xlink:href="#zoomPlus" x="17" y="9" onmousedown="handleZoom(evt,'in')"/>
  <use id="zoomminus" xlink:href="#zoomMin" x="42" y="9" onmousedown="handleZoom(evt,'out')"/>
  <use id="reset" xlink:href="#resetDef" x="30" y="36" onmousedown="handleReset()"/>
   <use id="arrowup" xlink:href="#arrowUp" x="0" y="0" onmousedown="handlePan(0,-1)"/>
  <use id="arrowright" xlink:href="#arrowRight" x="0" y="0" onmousedown="handlePan(1,0)"/>
  <use id="arrowdown" xlink:href="#arrowDown" x="0" y="0" onmousedown="handlePan(0,1)"/>
  <use id="arrowleft" xlink:href="#arrowLeft" x="0" y="0" onmousedown="handlePan(-1,0)"/>
</g>
<svg viewBox="0 0 15 15" width="100%" height="30px" preserveAspectRatio="xMaxYMin meet">
 <g id="arrow_out" transform="scale(0.3 0.3)">
  <a xlink:href="_camera_8h__dep__incl_org.svg" target="_base">
   <rect id="button" ry="5" rx="5" y="6" x="6" height="38" width="38"
        fill="#f2f5e9" fill-opacity="0.5" stroke="#606060" stroke-width="1.0"/>
   <path id="arrow"
     d="M 11.500037,31.436501 C 11.940474,20.09759 22.043105,11.32322 32.158766,21.979434 L 37.068811,17.246167 C 37.068811,17.246167 37.088388,32 37.088388,32 L 22.160133,31.978069 C 22.160133,31.978069 26.997745,27.140456 26.997745,27.140456 C 18.528582,18.264221 13.291696,25.230495 11.500037,31.436501 z"
     style="fill:#404040;"/>
  </a>
 </g>
</svg>

<style type='text/css'>
<![CDATA[
[data-mouse-over-selected='false'] { opacity: 0.7; }
[data-mouse-over-selected='true']  { opacity: 1.0; }
]]>
</style>
<script type="application/ecmascript"><![CDATA[
document.addEventListener('DOMContentLoaded', (event) => {
  highlightEdges();
  highlightAdjacentNodes();
});
]]></script>
</svg>
