<?xml version="1.0" encoding="UTF-8" standalone="no"?>
<!DOCTYPE svg PUBLIC "-//W3C//DTD SVG 1.1//EN"
 "http://www.w3.org/Graphics/SVG/1.1/DTD/svg11.dtd">
<!-- Generated by graphviz version 9.0.0 (20230911.1827)
 -->
<!-- Title: src/Camera.h Pages: 1 -->
<svg width="2829pt" height="364pt"
 viewBox="0.00 0.00 2829.38 364.00" xmlns="http://www.w3.org/2000/svg" xmlns:xlink="http://www.w3.org/1999/xlink">
<g id="graph0" class="graph" transform="scale(1 1) rotate(0) translate(4 360)">
<title>src/Camera.h</title>
<!-- Node1 -->
<g id="Node000001" class="node">
<title>Node1</title>
<g id="a_Node000001"><a xlink:title=" ">
<polygon fill="#999999" stroke="#666666" points="1949.62,-356 1875.12,-356 1875.12,-336 1949.62,-336 1949.62,-356"/>
<text text-anchor="middle" x="1912.38" y="-342.5" font-family="Helvetica,sans-Serif" font-size="10.00">src/Camera.h</text>
</a>
</g>
</g>
<!-- Node2 -->
<g id="Node000002" class="node">
<title>Node2</title>
<g id="a_Node000002"><a xlink:href="_game_engine_8h.html" target="_top" xlink:title=" ">
<polygon fill="white" stroke="#666666" points="1952.62,-300 1872.12,-300 1872.12,-280 1952.62,-280 1952.62,-300"/>
<text text-anchor="middle" x="1912.38" y="-286.5" font-family="Helvetica,sans-Serif" font-size="10.00">GameEngine.h</text>
</a>
</g>
</g>
<!-- Node1&#45;&gt;Node2 -->
<g id="edge1_Node000001_Node000002" class="edge">
<title>Node1&#45;&gt;Node2</title>
<g id="a_edge1_Node000001_Node000002"><a xlink:title=" ">
<path fill="none" stroke="#63b8ff" d="M1907.11,-335.59C1905.79,-329.01 1905.35,-319.96 1905.79,-311.73"/>
<polygon fill="#63b8ff" stroke="#63b8ff" points="1909.27,-312.14 1906.95,-301.8 1902.31,-311.33 1909.27,-312.14"/>
</a>
</g>
</g>
<!-- Node2&#45;&gt;Node1 -->
<g id="edge53_Node000002_Node000001" class="edge">
<title>Node2&#45;&gt;Node1</title>
<g id="a_edge53_Node000002_Node000001"><a xlink:title=" ">
<path fill="none" stroke="#63b8ff" d="M1917.62,-300.3C1918.96,-306.93 1919.41,-316.11 1918.95,-324.43"/>
<polygon fill="#63b8ff" stroke="#63b8ff" points="1915.51,-323.75 1917.82,-334.09 1922.46,-324.57 1915.51,-323.75"/>
</a>
</g>
</g>
<!-- Node3 -->
<g id="Node000003" class="node">
<title>Node3</title>
<g id="a_Node000003"><a xlink:title=" ">
<polygon fill="#e0e0e0" stroke="#999999" points="2443.25,-244 2363.5,-244 2363.5,-224 2443.25,-224 2443.25,-244"/>
<text text-anchor="middle" x="2403.38" y="-230.5" font-family="Helvetica,sans-Serif" font-size="10.00">SDKDDKVer.h</text>
</a>
</g>
</g>
<!-- Node2&#45;&gt;Node3 -->
<g id="edge2_Node000002_Node000003" class="edge">
<title>Node2&#45;&gt;Node3</title>
<g id="a_edge2_Node000002_Node000003"><a xlink:title=" ">
<path fill="none" stroke="#63b8ff" d="M1952.84,-285.68C2030.1,-279.17 2203.87,-263.6 2349.38,-244 2350.21,-243.89 2351.04,-243.77 2351.88,-243.66"/>
<polygon fill="#63b8ff" stroke="#63b8ff" points="2352.14,-247.16 2361.52,-242.23 2351.12,-240.23 2352.14,-247.16"/>
</a>
</g>
</g>
<!-- Node4 -->
<g id="Node000004" class="node">
<title>Node4</title>
<g id="a_Node000004"><a xlink:title=" ">
<polygon fill="#e0e0e0" stroke="#999999" points="2521.88,-244 2460.88,-244 2460.88,-224 2521.88,-224 2521.88,-244"/>
<text text-anchor="middle" x="2491.38" y="-230.5" font-family="Helvetica,sans-Serif" font-size="10.00">windows.h</text>
</a>
</g>
</g>
<!-- Node2&#45;&gt;Node4 -->
<g id="edge3_Node000002_Node000004" class="edge">
<title>Node2&#45;&gt;Node4</title>
<g id="a_edge3_Node000002_Node000004"><a xlink:title=" ">
<path fill="none" stroke="#63b8ff" d="M1952.92,-287.61C2041.42,-284.15 2258.69,-273.35 2449.71,-244.21"/>
<polygon fill="#63b8ff" stroke="#63b8ff" points="2449.96,-247.71 2459.3,-242.72 2448.89,-240.8 2449.96,-247.71"/>
</a>
</g>
</g>
<!-- Node5 -->
<g id="Node000005" class="node">
<title>Node5</title>
<g id="a_Node000005"><a xlink:title=" ">
<polygon fill="#e0e0e0" stroke="#999999" points="2587.12,-244 2539.62,-244 2539.62,-224 2587.12,-224 2587.12,-244"/>
<text text-anchor="middle" x="2563.38" y="-230.5" font-family="Helvetica,sans-Serif" font-size="10.00">stdlib.h</text>
</a>
</g>
</g>
<!-- Node2&#45;&gt;Node5 -->
<g id="edge4_Node000002_Node000005" class="edge">
<title>Node2&#45;&gt;Node5</title>
<g id="a_edge4_Node000002_Node000005"><a xlink:title=" ">
<path fill="none" stroke="#63b8ff" d="M1952.83,-288.75C2050.36,-287.58 2306.18,-281.1 2528.13,-244.03"/>
<polygon fill="#63b8ff" stroke="#63b8ff" points="2528.58,-247.51 2537.85,-242.38 2527.41,-240.61 2528.58,-247.51"/>
</a>
</g>
</g>
<!-- Node6 -->
<g id="Node000006" class="node">
<title>Node6</title>
<g id="a_Node000006"><a xlink:title=" ">
<polygon fill="#e0e0e0" stroke="#999999" points="52.75,-244 0,-244 0,-224 52.75,-224 52.75,-244"/>
<text text-anchor="middle" x="26.38" y="-230.5" font-family="Helvetica,sans-Serif" font-size="10.00">malloc.h</text>
</a>
</g>
</g>
<!-- Node2&#45;&gt;Node6 -->
<g id="edge5_Node000002_Node000006" class="edge">
<title>Node2&#45;&gt;Node6</title>
<g id="a_edge5_Node000002_Node000006"><a xlink:title=" ">
<path fill="none" stroke="#63b8ff" d="M1871.86,-289.27C1637.4,-290.62 451.8,-294.88 64.23,-244.03"/>
<polygon fill="#63b8ff" stroke="#63b8ff" points="64.88,-240.59 54.5,-242.72 63.94,-247.53 64.88,-240.59"/>
</a>
</g>
</g>
<!-- Node7 -->
<g id="Node000007" class="node">
<title>Node7</title>
<g id="a_Node000007"><a xlink:title=" ">
<polygon fill="#e0e0e0" stroke="#999999" points="130.12,-244 70.62,-244 70.62,-224 130.12,-224 130.12,-244"/>
<text text-anchor="middle" x="100.38" y="-230.5" font-family="Helvetica,sans-Serif" font-size="10.00">memory.h</text>
</a>
</g>
</g>
<!-- Node2&#45;&gt;Node7 -->
<g id="edge6_Node000002_Node000007" class="edge">
<title>Node2&#45;&gt;Node7</title>
<g id="a_edge6_Node000002_Node000007"><a xlink:title=" ">
<path fill="none" stroke="#63b8ff" d="M1871.72,-289.08C1643,-289.36 513.96,-288.52 141.82,-243.98"/>
<polygon fill="#63b8ff" stroke="#63b8ff" points="142.36,-240.52 132,-242.77 141.5,-247.47 142.36,-240.52"/>
</a>
</g>
</g>
<!-- Node8 -->
<g id="Node000008" class="node">
<title>Node8</title>
<g id="a_Node000008"><a xlink:title=" ">
<polygon fill="#e0e0e0" stroke="#999999" points="194.38,-244 148.38,-244 148.38,-224 194.38,-224 194.38,-244"/>
<text text-anchor="middle" x="171.38" y="-230.5" font-family="Helvetica,sans-Serif" font-size="10.00">tchar.h</text>
</a>
</g>
</g>
<!-- Node2&#45;&gt;Node8 -->
<g id="edge7_Node000002_Node000008" class="edge">
<title>Node2&#45;&gt;Node8</title>
<g id="a_edge7_Node000002_Node000008"><a xlink:title=" ">
<path fill="none" stroke="#63b8ff" d="M1871.91,-288.54C1633.96,-285.72 420.42,-270.27 205.99,-243.82"/>
<polygon fill="#63b8ff" stroke="#63b8ff" points="206.53,-240.36 196.15,-242.47 205.58,-247.29 206.53,-240.36"/>
</a>
</g>
</g>
<!-- Node9 -->
<g id="Node000009" class="node">
<title>Node9</title>
<g id="a_Node000009"><a xlink:title=" ">
<polygon fill="#e0e0e0" stroke="#999999" points="274.25,-244 212.5,-244 212.5,-224 274.25,-224 274.25,-244"/>
<text text-anchor="middle" x="243.38" y="-230.5" font-family="Helvetica,sans-Serif" font-size="10.00">resource.h</text>
</a>
</g>
</g>
<!-- Node2&#45;&gt;Node9 -->
<g id="edge8_Node000002_Node000009" class="edge">
<title>Node2&#45;&gt;Node9</title>
<g id="a_edge8_Node000002_Node000009"><a xlink:title=" ">
<path fill="none" stroke="#63b8ff" d="M1871.85,-288.94C1654.85,-288.49 627.89,-284.27 286.1,-244.04"/>
<polygon fill="#63b8ff" stroke="#63b8ff" points="286.57,-240.57 276.22,-242.84 285.72,-247.52 286.57,-240.57"/>
</a>
</g>
</g>
<!-- Node10 -->
<g id="Node000010" class="node">
<title>Node10</title>
<g id="a_Node000010"><a xlink:title=" ">
<polygon fill="#e0e0e0" stroke="#999999" points="338,-244 292.75,-244 292.75,-224 338,-224 338,-244"/>
<text text-anchor="middle" x="315.38" y="-230.5" font-family="Helvetica,sans-Serif" font-size="10.00">chrono</text>
</a>
</g>
</g>
<!-- Node2&#45;&gt;Node10 -->
<g id="edge9_Node000002_Node000010" class="edge">
<title>Node2&#45;&gt;Node10</title>
<g id="a_edge9_Node000002_Node000010"><a xlink:title=" ">
<path fill="none" stroke="#63b8ff" d="M1871.97,-289.22C1660.26,-290.19 676.47,-292.07 349.6,-244.07"/>
<polygon fill="#63b8ff" stroke="#63b8ff" points="350.16,-240.62 339.75,-242.57 349.11,-247.54 350.16,-240.62"/>
</a>
</g>
</g>
<!-- Node11 -->
<g id="Node000011" class="node">
<title>Node11</title>
<g id="a_Node000011"><a xlink:title=" ">
<polygon fill="#e0e0e0" stroke="#999999" points="397.12,-244 355.62,-244 355.62,-224 397.12,-224 397.12,-244"/>
<text text-anchor="middle" x="376.38" y="-230.5" font-family="Helvetica,sans-Serif" font-size="10.00">vector</text>
</a>
</g>
</g>
<!-- Node2&#45;&gt;Node11 -->
<g id="edge10_Node000002_Node000011" class="edge">
<title>Node2&#45;&gt;Node11</title>
<g id="a_edge10_Node000002_Node000011"><a xlink:title=" ">
<path fill="none" stroke="#63b8ff" d="M1871.8,-289.22C1664.63,-290.12 722.69,-291.59 408.43,-243.81"/>
<polygon fill="#63b8ff" stroke="#63b8ff" points="409.44,-240.43 399.01,-242.33 408.35,-247.34 409.44,-240.43"/>
</a>
</g>
</g>
<!-- Node12 -->
<g id="Node000012" class="node">
<title>Node12</title>
<g id="a_Node000012"><a xlink:title=" ">
<polygon fill="#e0e0e0" stroke="#999999" points="469.12,-244 415.62,-244 415.62,-224 469.12,-224 469.12,-244"/>
<text text-anchor="middle" x="442.38" y="-230.5" font-family="Helvetica,sans-Serif" font-size="10.00">iostream</text>
</a>
</g>
</g>
<!-- Node2&#45;&gt;Node12 -->
<g id="edge11_Node000002_Node000012" class="edge">
<title>Node2&#45;&gt;Node12</title>
<g id="a_edge11_Node000002_Node000012"><a xlink:title=" ">
<path fill="none" stroke="#63b8ff" d="M1871.78,-288.9C1670.91,-288.21 781.23,-283.05 480.68,-243.93"/>
<polygon fill="#63b8ff" stroke="#63b8ff" points="481.26,-240.48 470.88,-242.61 480.32,-247.42 481.26,-240.48"/>
</a>
</g>
</g>
<!-- Node13 -->
<g id="Node000013" class="node">
<title>Node13</title>
<g id="a_Node000013"><a xlink:title=" ">
<polygon fill="#e0e0e0" stroke="#999999" points="535.5,-244 487.25,-244 487.25,-224 535.5,-224 535.5,-244"/>
<text text-anchor="middle" x="511.38" y="-230.5" font-family="Helvetica,sans-Serif" font-size="10.00">fstream</text>
</a>
</g>
</g>
<!-- Node2&#45;&gt;Node13 -->
<g id="edge12_Node000002_Node000013" class="edge">
<title>Node2&#45;&gt;Node13</title>
<g id="a_edge12_Node000002_Node000013"><a xlink:title=" ">
<path fill="none" stroke="#63b8ff" d="M1871.69,-288.94C1676.33,-288.46 832.7,-284.15 546.9,-243.96"/>
<polygon fill="#63b8ff" stroke="#63b8ff" points="547.65,-240.53 537.25,-242.55 546.63,-247.46 547.65,-240.53"/>
</a>
</g>
</g>
<!-- Node14 -->
<g id="Node000014" class="node">
<title>Node14</title>
<g id="a_Node000014"><a xlink:title=" ">
<polygon fill="#e0e0e0" stroke="#999999" points="613.5,-244 553.25,-244 553.25,-224 613.5,-224 613.5,-244"/>
<text text-anchor="middle" x="583.38" y="-230.5" font-family="Helvetica,sans-Serif" font-size="10.00">filesystem</text>
</a>
</g>
</g>
<!-- Node2&#45;&gt;Node14 -->
<g id="edge13_Node000002_Node000014" class="edge">
<title>Node2&#45;&gt;Node14</title>
<g id="a_edge13_Node000002_Node000014"><a xlink:title=" ">
<path fill="none" stroke="#63b8ff" d="M1871.84,-288.63C1683.9,-286.78 895.38,-277.2 625.25,-244.08"/>
<polygon fill="#63b8ff" stroke="#63b8ff" points="625.79,-240.62 615.43,-242.83 624.91,-247.56 625.79,-240.62"/>
</a>
</g>
</g>
<!-- Node15 -->
<g id="Node000015" class="node">
<title>Node15</title>
<g id="a_Node000015"><a xlink:title=" ">
<polygon fill="#e0e0e0" stroke="#999999" points="683,-244 631.75,-244 631.75,-224 683,-224 683,-244"/>
<text text-anchor="middle" x="657.38" y="-230.5" font-family="Helvetica,sans-Serif" font-size="10.00">sstream</text>
</a>
</g>
</g>
<!-- Node2&#45;&gt;Node15 -->
<g id="edge14_Node000002_Node000015" class="edge">
<title>Node2&#45;&gt;Node15</title>
<g id="a_edge14_Node000002_Node000015"><a xlink:title=" ">
<path fill="none" stroke="#63b8ff" d="M1871.89,-288.67C1690.4,-287.04 949.83,-278.45 694.31,-243.87"/>
<polygon fill="#63b8ff" stroke="#63b8ff" points="695.13,-240.45 684.74,-242.52 694.16,-247.38 695.13,-240.45"/>
</a>
</g>
</g>
<!-- Node16 -->
<g id="Node000016" class="node">
<title>Node16</title>
<g id="a_Node000016"><a xlink:title=" ">
<polygon fill="#e0e0e0" stroke="#999999" points="783.75,-244 701,-244 701,-224 783.75,-224 783.75,-244"/>
<text text-anchor="middle" x="742.38" y="-230.5" font-family="Helvetica,sans-Serif" font-size="10.00">unordered_map</text>
</a>
</g>
</g>
<!-- Node2&#45;&gt;Node16 -->
<g id="edge15_Node000002_Node000016" class="edge">
<title>Node2&#45;&gt;Node16</title>
<g id="a_edge15_Node000002_Node000016"><a xlink:title=" ">
<path fill="none" stroke="#63b8ff" d="M1871.84,-289.33C1727.08,-290.11 1222.08,-289.28 795.39,-244.04"/>
<polygon fill="#63b8ff" stroke="#63b8ff" points="795.88,-240.57 785.56,-242.99 795.13,-247.53 795.88,-240.57"/>
</a>
</g>
</g>
<!-- Node17 -->
<g id="Node000017" class="node">
<title>Node17</title>
<g id="a_Node000017"><a xlink:title=" ">
<polygon fill="#e0e0e0" stroke="#999999" points="906.62,-244 802.12,-244 802.12,-224 906.62,-224 906.62,-244"/>
<text text-anchor="middle" x="854.38" y="-230.5" font-family="Helvetica,sans-Serif" font-size="10.00">assimp/Importer.hpp</text>
</a>
</g>
</g>
<!-- Node2&#45;&gt;Node17 -->
<g id="edge16_Node000002_Node000017" class="edge">
<title>Node2&#45;&gt;Node17</title>
<g id="a_edge16_Node000002_Node000017"><a xlink:title=" ">
<path fill="none" stroke="#63b8ff" d="M1871.91,-288.64C1737.68,-287.15 1294.75,-279.74 918.3,-244.18"/>
<polygon fill="#63b8ff" stroke="#63b8ff" points="918.7,-240.7 908.41,-243.24 918.04,-247.67 918.7,-240.7"/>
</a>
</g>
</g>
<!-- Node18 -->
<g id="Node000018" class="node">
<title>Node18</title>
<g id="a_Node000018"><a xlink:title=" ">
<polygon fill="#e0e0e0" stroke="#999999" points="1009.88,-244 924.88,-244 924.88,-224 1009.88,-224 1009.88,-244"/>
<text text-anchor="middle" x="967.38" y="-230.5" font-family="Helvetica,sans-Serif" font-size="10.00">assimp/scene.h</text>
</a>
</g>
</g>
<!-- Node2&#45;&gt;Node18 -->
<g id="edge17_Node000002_Node000018" class="edge">
<title>Node2&#45;&gt;Node18</title>
<g id="a_edge17_Node000002_Node000018"><a xlink:title=" ">
<path fill="none" stroke="#63b8ff" d="M1871.74,-288.7C1746.58,-287.41 1355.74,-280.61 1021.53,-244.08"/>
<polygon fill="#63b8ff" stroke="#63b8ff" points="1021.99,-240.61 1011.67,-242.99 1021.22,-247.57 1021.99,-240.61"/>
</a>
</g>
</g>
<!-- Node19 -->
<g id="Node000019" class="node">
<title>Node19</title>
<g id="a_Node000019"><a xlink:title=" ">
<polygon fill="#e0e0e0" stroke="#999999" points="1140.38,-244 1028.38,-244 1028.38,-224 1140.38,-224 1140.38,-244"/>
<text text-anchor="middle" x="1084.38" y="-230.5" font-family="Helvetica,sans-Serif" font-size="10.00">assimp/postprocess.h</text>
</a>
</g>
</g>
<!-- Node2&#45;&gt;Node19 -->
<g id="edge18_Node000002_Node000019" class="edge">
<title>Node2&#45;&gt;Node19</title>
<g id="a_edge18_Node000002_Node000019"><a xlink:title=" ">
<path fill="none" stroke="#63b8ff" d="M1871.76,-287.73C1759.18,-283.97 1433.45,-271.47 1151.97,-244.18"/>
<polygon fill="#63b8ff" stroke="#63b8ff" points="1152.51,-240.72 1142.22,-243.22 1151.83,-247.68 1152.51,-240.72"/>
</a>
</g>
</g>
<!-- Node20 -->
<g id="Node000020" class="node">
<title>Node20</title>
<g id="a_Node000020"><a xlink:title=" ">
<polygon fill="#e0e0e0" stroke="#999999" points="1303.88,-244 1158.88,-244 1158.88,-224 1303.88,-224 1303.88,-244"/>
<text text-anchor="middle" x="1231.38" y="-230.5" font-family="Helvetica,sans-Serif" font-size="10.00">directxtk\WICTextureLoader.h</text>
</a>
</g>
</g>
<!-- Node2&#45;&gt;Node20 -->
<g id="edge19_Node000002_Node000020" class="edge">
<title>Node2&#45;&gt;Node20</title>
<g id="a_edge19_Node000002_Node000020"><a xlink:title=" ">
<path fill="none" stroke="#63b8ff" d="M1871.66,-286.43C1776.47,-280.3 1531.7,-263.96 1315.49,-244.16"/>
<polygon fill="#63b8ff" stroke="#63b8ff" points="1316.03,-240.7 1305.75,-243.27 1315.38,-247.67 1316.03,-240.7"/>
</a>
</g>
</g>
<!-- Node21 -->
<g id="Node000021" class="node">
<title>Node21</title>
<g id="a_Node000021"><a xlink:title=" ">
<polygon fill="#e0e0e0" stroke="#999999" points="1386.75,-244 1322,-244 1322,-224 1386.75,-224 1386.75,-244"/>
<text text-anchor="middle" x="1354.38" y="-230.5" font-family="Helvetica,sans-Serif" font-size="10.00">wincodec.h</text>
</a>
</g>
</g>
<!-- Node2&#45;&gt;Node21 -->
<g id="edge20_Node000002_Node000021" class="edge">
<title>Node2&#45;&gt;Node21</title>
<g id="a_edge20_Node000002_Node000021"><a xlink:title=" ">
<path fill="none" stroke="#63b8ff" d="M1871.94,-287.26C1786.3,-283.2 1580.19,-271.4 1398.11,-244.24"/>
<polygon fill="#63b8ff" stroke="#63b8ff" points="1398.89,-240.82 1388.47,-242.78 1397.84,-247.74 1398.89,-240.82"/>
</a>
</g>
</g>
<!-- Node22 -->
<g id="Node000022" class="node">
<title>Node22</title>
<g id="a_Node000022"><a xlink:title=" ">
<polygon fill="#e0e0e0" stroke="#999999" points="1462.38,-244 1404.38,-244 1404.38,-224 1462.38,-224 1462.38,-244"/>
<text text-anchor="middle" x="1433.38" y="-230.5" font-family="Helvetica,sans-Serif" font-size="10.00">lodepng.h</text>
</a>
</g>
</g>
<!-- Node2&#45;&gt;Node22 -->
<g id="edge21_Node000002_Node000022" class="edge">
<title>Node2&#45;&gt;Node22</title>
<g id="a_edge21_Node000002_Node000022"><a xlink:title=" ">
<path fill="none" stroke="#63b8ff" d="M1871.7,-286.64C1795.49,-281.82 1625.85,-269.28 1473.68,-244.19"/>
<polygon fill="#63b8ff" stroke="#63b8ff" points="1474.69,-240.81 1464.25,-242.61 1473.53,-247.71 1474.69,-240.81"/>
</a>
</g>
</g>
<!-- Node23 -->
<g id="Node000023" class="node">
<title>Node23</title>
<g id="a_Node000023"><a xlink:title=" ">
<polygon fill="#e0e0e0" stroke="#999999" points="1530.62,-244 1480.12,-244 1480.12,-224 1530.62,-224 1530.62,-244"/>
<text text-anchor="middle" x="1505.38" y="-230.5" font-family="Helvetica,sans-Serif" font-size="10.00">d3d11.h</text>
</a>
</g>
</g>
<!-- Node2&#45;&gt;Node23 -->
<g id="edge22_Node000002_Node000023" class="edge">
<title>Node2&#45;&gt;Node23</title>
<g id="a_edge22_Node000002_Node000023"><a xlink:title=" ">
<path fill="none" stroke="#63b8ff" d="M1871.65,-285.84C1804.88,-280.27 1667.82,-267.24 1541.88,-244.03"/>
<polygon fill="#63b8ff" stroke="#63b8ff" points="1542.86,-240.65 1532.39,-242.26 1541.58,-247.54 1542.86,-240.65"/>
</a>
</g>
</g>
<!-- Node24 -->
<g id="Node000024" class="node">
<title>Node24</title>
<g id="a_Node000024"><a xlink:title=" ">
<polygon fill="#e0e0e0" stroke="#999999" points="1625.75,-244 1549,-244 1549,-224 1625.75,-224 1625.75,-244"/>
<text text-anchor="middle" x="1587.38" y="-230.5" font-family="Helvetica,sans-Serif" font-size="10.00">DirectXMath.h</text>
</a>
</g>
</g>
<!-- Node2&#45;&gt;Node24 -->
<g id="edge23_Node000002_Node000024" class="edge">
<title>Node2&#45;&gt;Node24</title>
<g id="a_edge23_Node000002_Node000024"><a xlink:title=" ">
<path fill="none" stroke="#63b8ff" d="M1871.8,-282.81C1819.77,-274.78 1726.49,-260.12 1637.23,-244.47"/>
<polygon fill="#63b8ff" stroke="#63b8ff" points="1638.03,-241.05 1627.58,-242.77 1636.82,-247.95 1638.03,-241.05"/>
</a>
</g>
</g>
<!-- Node25 -->
<g id="Node000025" class="node">
<title>Node25</title>
<g id="a_Node000025"><a xlink:title=" ">
<polygon fill="#e0e0e0" stroke="#999999" points="1723.25,-244 1643.5,-244 1643.5,-224 1723.25,-224 1723.25,-244"/>
<text text-anchor="middle" x="1683.38" y="-230.5" font-family="Helvetica,sans-Serif" font-size="10.00">D3Dcompiler.h</text>
</a>
</g>
</g>
<!-- Node2&#45;&gt;Node25 -->
<g id="edge24_Node000002_Node000025" class="edge">
<title>Node2&#45;&gt;Node25</title>
<g id="a_edge24_Node000002_Node000025"><a xlink:title=" ">
<path fill="none" stroke="#63b8ff" d="M1872.22,-279.53C1833.92,-270.5 1776.05,-256.85 1734.48,-247.05"/>
<polygon fill="#63b8ff" stroke="#63b8ff" points="1735.49,-243.69 1724.95,-244.8 1733.88,-250.51 1735.49,-243.69"/>
</a>
</g>
</g>
<!-- Node26 -->
<g id="Node000026" class="node">
<title>Node26</title>
<g id="a_Node000026"><a xlink:title=" ">
<polygon fill="#e0e0e0" stroke="#999999" points="1797.25,-244 1741.5,-244 1741.5,-224 1797.25,-224 1797.25,-244"/>
<text text-anchor="middle" x="1769.38" y="-230.5" font-family="Helvetica,sans-Serif" font-size="10.00">d2d1_2.h</text>
</a>
</g>
</g>
<!-- Node2&#45;&gt;Node26 -->
<g id="edge25_Node000002_Node000026" class="edge">
<title>Node2&#45;&gt;Node26</title>
<g id="a_edge25_Node000002_Node000026"><a xlink:title=" ">
<path fill="none" stroke="#63b8ff" d="M1887.47,-279.59C1864.64,-270.97 1830.59,-258.12 1804.91,-248.42"/>
<polygon fill="#63b8ff" stroke="#63b8ff" points="1806.49,-245.27 1795.89,-245.01 1804.01,-251.82 1806.49,-245.27"/>
</a>
</g>
</g>
<!-- Node27 -->
<g id="Node000027" class="node">
<title>Node27</title>
<g id="a_Node000027"><a xlink:title=" ">
<polygon fill="#e0e0e0" stroke="#999999" points="1871.25,-244 1815.5,-244 1815.5,-224 1871.25,-224 1871.25,-244"/>
<text text-anchor="middle" x="1843.38" y="-230.5" font-family="Helvetica,sans-Serif" font-size="10.00">d2d1_1.h</text>
</a>
</g>
</g>
<!-- Node2&#45;&gt;Node27 -->
<g id="edge26_Node000002_Node000027" class="edge">
<title>Node2&#45;&gt;Node27</title>
<g id="a_edge26_Node000002_Node000027"><a xlink:title=" ">
<path fill="none" stroke="#63b8ff" d="M1900.36,-279.59C1890.36,-271.77 1875.91,-260.46 1864.07,-251.19"/>
<polygon fill="#63b8ff" stroke="#63b8ff" points="1866.48,-248.64 1856.45,-245.23 1862.17,-254.15 1866.48,-248.64"/>
</a>
</g>
</g>
<!-- Node28 -->
<g id="Node000028" class="node">
<title>Node28</title>
<g id="a_Node000028"><a xlink:title=" ">
<polygon fill="#e0e0e0" stroke="#999999" points="1935,-244 1889.75,-244 1889.75,-224 1935,-224 1935,-244"/>
<text text-anchor="middle" x="1912.38" y="-230.5" font-family="Helvetica,sans-Serif" font-size="10.00">d2d1.h</text>
</a>
</g>
</g>
<!-- Node2&#45;&gt;Node28 -->
<g id="edge27_Node000002_Node000028" class="edge">
<title>Node2&#45;&gt;Node28</title>
<g id="a_edge27_Node000002_Node000028"><a xlink:title=" ">
<path fill="none" stroke="#63b8ff" d="M1912.38,-279.59C1912.38,-273.01 1912.38,-263.96 1912.38,-255.73"/>
<polygon fill="#63b8ff" stroke="#63b8ff" points="1915.88,-255.81 1912.38,-245.81 1908.88,-255.81 1915.88,-255.81"/>
</a>
</g>
</g>
<!-- Node29 -->
<g id="Node000029" class="node">
<title>Node29</title>
<g id="a_Node000029"><a xlink:title=" ">
<polygon fill="#e0e0e0" stroke="#999999" points="2003.25,-244 1953.5,-244 1953.5,-224 2003.25,-224 2003.25,-244"/>
<text text-anchor="middle" x="1978.38" y="-230.5" font-family="Helvetica,sans-Serif" font-size="10.00">dwrite.h</text>
</a>
</g>
</g>
<!-- Node2&#45;&gt;Node29 -->
<g id="edge28_Node000002_Node000029" class="edge">
<title>Node2&#45;&gt;Node29</title>
<g id="a_edge28_Node000002_Node000029"><a xlink:title=" ">
<path fill="none" stroke="#63b8ff" d="M1923.87,-279.59C1933.34,-271.85 1946.98,-260.69 1958.25,-251.47"/>
<polygon fill="#63b8ff" stroke="#63b8ff" points="1960.32,-254.3 1965.84,-245.26 1955.88,-248.88 1960.32,-254.3"/>
</a>
</g>
</g>
<!-- Node30 -->
<g id="Node000030" class="node">
<title>Node30</title>
<g id="a_Node000030"><a xlink:href="_win32_application_8h.html" target="_top" xlink:title=" ">
<polygon fill="white" stroke="#666666" points="2289.38,-244 2189.38,-244 2189.38,-224 2289.38,-224 2289.38,-244"/>
<text text-anchor="middle" x="2239.38" y="-230.5" font-family="Helvetica,sans-Serif" font-size="10.00">Win32Application.h</text>
</a>
</g>
</g>
<!-- Node2&#45;&gt;Node30 -->
<g id="edge29_Node000002_Node000030" class="edge">
<title>Node2&#45;&gt;Node30</title>
<g id="a_edge29_Node000002_Node000030"><a xlink:title=" ">
<path fill="none" stroke="#63b8ff" d="M1953,-281.49C2009.49,-271.77 2112,-254.82 2177.87,-244.29"/>
<polygon fill="#63b8ff" stroke="#63b8ff" points="2178.1,-247.8 2187.42,-242.77 2177,-240.89 2178.1,-247.8"/>
</a>
</g>
</g>
<!-- Node31 -->
<g id="Node000031" class="node">
<title>Node31</title>
<g id="a_Node000031"><a xlink:href="_direct_x_manager_8h.html" target="_top" xlink:title=" ">
<polygon fill="white" stroke="#666666" points="2372.62,-188 2280.12,-188 2280.12,-168 2372.62,-168 2372.62,-188"/>
<text text-anchor="middle" x="2326.38" y="-174.5" font-family="Helvetica,sans-Serif" font-size="10.00">DirectXManager.h</text>
</a>
</g>
</g>
<!-- Node2&#45;&gt;Node31 -->
<g id="edge52_Node000002_Node000031" class="edge">
<title>Node2&#45;&gt;Node31</title>
<g id="a_edge52_Node000002_Node000031"><a xlink:title=" ">
<path fill="none" stroke="#63b8ff" d="M1953.01,-289.25C2039.26,-288.86 2236.48,-283.39 2289.38,-244 2303.68,-233.35 2310.77,-213.87 2315.86,-199"/>
<polygon fill="#63b8ff" stroke="#63b8ff" points="2319.1,-200.35 2319.12,-189.76 2312.5,-198.03 2319.1,-200.35"/>
</a>
</g>
</g>
<!-- Node32 -->
<g id="Node000032" class="node">
<title>Node32</title>
<g id="a_Node000032"><a xlink:href="_graphics_device_8h.html" target="_top" xlink:title=" ">
<polygon fill="white" stroke="#666666" points="2186.25,-76 2094.5,-76 2094.5,-56 2186.25,-56 2186.25,-76"/>
<text text-anchor="middle" x="2140.38" y="-62.5" font-family="Helvetica,sans-Serif" font-size="10.00">GraphicsDevice.h</text>
</a>
</g>
</g>
<!-- Node2&#45;&gt;Node32 -->
<g id="edge54_Node000002_Node000032" class="edge">
<title>Node2&#45;&gt;Node32</title>
<g id="a_edge54_Node000002_Node000032"><a xlink:title=" ">
<path fill="none" stroke="#63b8ff" d="M1953.11,-285.14C1984.15,-280.24 2026.02,-269.13 2054.38,-244 2066.98,-232.83 2107.27,-130.05 2128.35,-86.43"/>
<polygon fill="#63b8ff" stroke="#63b8ff" points="2131.42,-88.11 2132.82,-77.61 2125.18,-84.95 2131.42,-88.11"/>
</a>
</g>
</g>
<!-- Node33 -->
<g id="Node000033" class="node">
<title>Node33</title>
<g id="a_Node000033"><a xlink:href="_mesh_8h.html" target="_top" xlink:title=" ">
<polygon fill="white" stroke="#666666" points="2181.5,-132 2133.25,-132 2133.25,-112 2181.5,-112 2181.5,-132"/>
<text text-anchor="middle" x="2157.38" y="-118.5" font-family="Helvetica,sans-Serif" font-size="10.00">Mesh.h</text>
</a>
</g>
</g>
<!-- Node2&#45;&gt;Node33 -->
<g id="edge56_Node000002_Node000033" class="edge">
<title>Node2&#45;&gt;Node33</title>
<g id="a_edge56_Node000002_Node000033"><a xlink:title=" ">
<path fill="none" stroke="#63b8ff" d="M1953.03,-284.26C2004.08,-277.93 2087.36,-265.02 2110.38,-244 2139,-217.85 2146.23,-170.41 2150.88,-143.36"/>
<polygon fill="#63b8ff" stroke="#63b8ff" points="2154.29,-144.16 2152.69,-133.69 2147.41,-142.87 2154.29,-144.16"/>
</a>
</g>
</g>
<!-- Node34 -->
<g id="Node000034" class="node">
<title>Node34</title>
<g id="a_Node000034"><a xlink:href="_render_state_8h.html" target="_top" xlink:title=" ">
<polygon fill="white" stroke="#666666" points="2202.5,-20 2124.25,-20 2124.25,0 2202.5,0 2202.5,-20"/>
<text text-anchor="middle" x="2163.38" y="-6.5" font-family="Helvetica,sans-Serif" font-size="10.00">RenderState.h</text>
</a>
</g>
</g>
<!-- Node2&#45;&gt;Node34 -->
<g id="edge58_Node000002_Node000034" class="edge">
<title>Node2&#45;&gt;Node34</title>
<g id="a_edge58_Node000002_Node000034"><a xlink:title=" ">
<path fill="none" stroke="#63b8ff" d="M1941.68,-279.53C1961.28,-272.62 1986.28,-261.37 2003.38,-244 2025.44,-221.58 2031.38,-210.46 2031.38,-179 2031.38,-179 2031.38,-179 2031.38,-121 2031.38,-73.6 2082.75,-41.53 2121.52,-24.76"/>
<polygon fill="#63b8ff" stroke="#63b8ff" points="2122.74,-28.04 2130.67,-21.01 2120.09,-21.57 2122.74,-28.04"/>
</a>
</g>
</g>
<!-- Node35 -->
<g id="Node000035" class="node">
<title>Node35</title>
<g id="a_Node000035"><a xlink:href="_shader_program_8h.html" target="_top" xlink:title=" ">
<polygon fill="white" stroke="#666666" points="2800.25,-20 2708.5,-20 2708.5,0 2800.25,0 2800.25,-20"/>
<text text-anchor="middle" x="2754.38" y="-6.5" font-family="Helvetica,sans-Serif" font-size="10.00">ShaderProgram.h</text>
</a>
</g>
</g>
<!-- Node2&#45;&gt;Node35 -->
<g id="edge59_Node000002_Node000035" class="edge">
<title>Node2&#45;&gt;Node35</title>
<g id="a_edge59_Node000002_Node000035"><a xlink:title=" ">
<path fill="none" stroke="#63b8ff" d="M1952.78,-288.9C2090.67,-288.2 2540.95,-282.89 2680.38,-244 2739.93,-227.39 2803.38,-240.83 2803.38,-179 2803.38,-179 2803.38,-179 2803.38,-121 2803.38,-85.54 2779.5,-50.3 2764.76,-29.6"/>
<polygon fill="#63b8ff" stroke="#63b8ff" points="2767.76,-27.77 2759.11,-21.65 2762.05,-31.83 2767.76,-27.77"/>
</a>
</g>
</g>
<!-- Node37 -->
<g id="Node000037" class="node">
<title>Node37</title>
<g id="a_Node000037"><a xlink:href="_material_8h.html" target="_top" xlink:title=" ">
<polygon fill="white" stroke="#666666" points="2669.75,-76 2611,-76 2611,-56 2669.75,-56 2669.75,-76"/>
<text text-anchor="middle" x="2640.38" y="-62.5" font-family="Helvetica,sans-Serif" font-size="10.00">Material.h</text>
</a>
</g>
</g>
<!-- Node2&#45;&gt;Node37 -->
<g id="edge55_Node000002_Node000037" class="edge">
<title>Node2&#45;&gt;Node37</title>
<g id="a_edge55_Node000002_Node000037"><a xlink:title=" ">
<path fill="none" stroke="#63b8ff" d="M1952.96,-288.51C2097.36,-286.56 2579.95,-277.7 2640.38,-244 2700.09,-210.7 2755.06,-170.32 2719.38,-112 2710.51,-97.51 2695.35,-87.5 2680.6,-80.67"/>
<polygon fill="#63b8ff" stroke="#63b8ff" points="2682,-77.46 2671.43,-76.82 2679.3,-83.92 2682,-77.46"/>
</a>
</g>
</g>
<!-- Node38 -->
<g id="Node000038" class="node">
<title>Node38</title>
<g id="a_Node000038"><a xlink:href="_model_8h.html" target="_top" xlink:title=" ">
<polygon fill="white" stroke="#666666" points="2608.62,-132 2558.12,-132 2558.12,-112 2608.62,-112 2608.62,-132"/>
<text text-anchor="middle" x="2583.38" y="-118.5" font-family="Helvetica,sans-Serif" font-size="10.00">Model.h</text>
</a>
</g>
</g>
<!-- Node2&#45;&gt;Node38 -->
<g id="edge57_Node000002_Node000038" class="edge">
<title>Node2&#45;&gt;Node38</title>
<g id="a_edge57_Node000002_Node000038"><a xlink:title=" ">
<path fill="none" stroke="#63b8ff" d="M1952.84,-289.5C2091.97,-290.7 2543.7,-290.64 2587.38,-244 2612.8,-216.85 2597.11,-169.82 2587.75,-143.09"/>
<polygon fill="#63b8ff" stroke="#63b8ff" points="2591.13,-142.14 2584.57,-133.82 2584.51,-144.41 2591.13,-142.14"/>
</a>
</g>
</g>
<!-- Node30&#45;&gt;Node2 -->
<g id="edge30_Node000030_Node000002" class="edge">
<title>Node30&#45;&gt;Node2</title>
<g id="a_edge30_Node000030_Node000002"><a xlink:title=" ">
<path fill="none" stroke="#63b8ff" d="M2189.11,-244.16C2128.06,-254.6 2025.78,-271.47 1964.08,-281.27"/>
<polygon fill="#63b8ff" stroke="#63b8ff" points="1963.88,-277.76 1954.55,-282.78 1964.97,-284.67 1963.88,-277.76"/>
</a>
</g>
</g>
<!-- Node30&#45;&gt;Node31 -->
<g id="edge31_Node000030_Node000031" class="edge">
<title>Node30&#45;&gt;Node31</title>
<g id="a_edge31_Node000030_Node000031"><a xlink:title=" ">
<path fill="none" stroke="#63b8ff" d="M2254.53,-223.59C2267.42,-215.59 2286.21,-203.93 2301.33,-194.54"/>
<polygon fill="#63b8ff" stroke="#63b8ff" points="2303.17,-197.53 2309.82,-189.28 2299.47,-191.58 2303.17,-197.53"/>
</a>
</g>
</g>
<!-- Node31&#45;&gt;Node1 -->
<g id="edge33_Node000031_Node000001" class="edge">
<title>Node31&#45;&gt;Node1</title>
<g id="a_edge33_Node000031_Node000001"><a xlink:title=" ">
<path fill="none" stroke="#63b8ff" d="M2372.86,-179.8C2442.38,-182.08 2568.27,-190.82 2596.38,-224 2602.12,-230.78 2602.18,-237.27 2596.38,-244 2513.7,-339.79 2103.31,-346.3 1961.04,-345.62"/>
<polygon fill="#63b8ff" stroke="#63b8ff" points="1961.22,-342.12 1951.2,-345.56 1961.18,-349.12 1961.22,-342.12"/>
</a>
</g>
</g>
<!-- Node31&#45;&gt;Node2 -->
<g id="edge32_Node000031_Node000002" class="edge">
<title>Node31&#45;&gt;Node2</title>
<g id="a_edge32_Node000031_Node000002"><a xlink:title=" ">
<path fill="none" stroke="#63b8ff" d="M2330.94,-188.33C2332.04,-202.83 2325.51,-230.5 2307.38,-244 2254.71,-283.21 2059.01,-288.81 1964.25,-289.24"/>
<polygon fill="#63b8ff" stroke="#63b8ff" points="1964.44,-285.74 1954.45,-289.27 1964.46,-292.74 1964.44,-285.74"/>
</a>
</g>
</g>
<!-- Node31&#45;&gt;Node32 -->
<g id="edge34_Node000031_Node000032" class="edge">
<title>Node31&#45;&gt;Node32</title>
<g id="a_edge34_Node000031_Node000032"><a xlink:title=" ">
<path fill="none" stroke="#63b8ff" d="M2310.52,-167.62C2278.26,-148.54 2204.76,-105.08 2165.77,-82.02"/>
<polygon fill="#63b8ff" stroke="#63b8ff" points="2167.88,-79.2 2157.5,-77.13 2164.32,-85.23 2167.88,-79.2"/>
</a>
</g>
</g>
<!-- Node31&#45;&gt;Node33 -->
<g id="edge36_Node000031_Node000033" class="edge">
<title>Node31&#45;&gt;Node33</title>
<g id="a_edge36_Node000031_Node000033"><a xlink:title=" ">
<path fill="none" stroke="#63b8ff" d="M2296.94,-167.59C2267.88,-158.31 2223.43,-144.11 2192.54,-134.23"/>
<polygon fill="#63b8ff" stroke="#63b8ff" points="2193.85,-130.98 2183.26,-131.27 2191.72,-137.65 2193.85,-130.98"/>
</a>
</g>
</g>
<!-- Node31&#45;&gt;Node34 -->
<g id="edge39_Node000031_Node000034" class="edge">
<title>Node31&#45;&gt;Node34</title>
<g id="a_edge39_Node000031_Node000034"><a xlink:title=" ">
<path fill="none" stroke="#63b8ff" d="M2317.14,-167.6C2290.7,-140.66 2214.35,-62.92 2180.22,-28.15"/>
<polygon fill="#63b8ff" stroke="#63b8ff" points="2183.07,-26.06 2173.56,-21.38 2178.07,-30.96 2183.07,-26.06"/>
</a>
</g>
</g>
<!-- Node31&#45;&gt;Node35 -->
<g id="edge41_Node000031_Node000035" class="edge">
<title>Node31&#45;&gt;Node35</title>
<g id="a_edge41_Node000031_Node000035"><a xlink:title=" ">
<path fill="none" stroke="#63b8ff" d="M2342.63,-167.71C2366.18,-154.45 2411.35,-129.75 2451.38,-112 2539.47,-72.94 2647.61,-40.36 2707.97,-23.47"/>
<polygon fill="#63b8ff" stroke="#63b8ff" points="2708.86,-26.85 2717.56,-20.81 2706.99,-20.11 2708.86,-26.85"/>
</a>
</g>
</g>
<!-- Node36 -->
<g id="Node000036" class="node">
<title>Node36</title>
<g id="a_Node000036"><a xlink:href="_shader_manager_8h.html" target="_top" xlink:title=" ">
<polygon fill="white" stroke="#666666" points="2719.62,-132 2627.12,-132 2627.12,-112 2719.62,-112 2719.62,-132"/>
<text text-anchor="middle" x="2673.38" y="-118.5" font-family="Helvetica,sans-Serif" font-size="10.00">ShaderManager.h</text>
</a>
</g>
</g>
<!-- Node31&#45;&gt;Node36 -->
<g id="edge43_Node000031_Node000036" class="edge">
<title>Node31&#45;&gt;Node36</title>
<g id="a_edge43_Node000031_Node000036"><a xlink:title=" ">
<path fill="none" stroke="#63b8ff" d="M2373.01,-169.88C2428.24,-161.42 2523.35,-146.79 2615.42,-132.3"/>
<polygon fill="#63b8ff" stroke="#63b8ff" points="2615.8,-135.78 2625.13,-130.77 2614.71,-128.87 2615.8,-135.78"/>
</a>
</g>
</g>
<!-- Node31&#45;&gt;Node37 -->
<g id="edge45_Node000031_Node000037" class="edge">
<title>Node31&#45;&gt;Node37</title>
<g id="a_edge45_Node000031_Node000037"><a xlink:title=" ">
<path fill="none" stroke="#63b8ff" d="M2353.42,-167.53C2409.41,-147.91 2538.16,-102.81 2602.44,-80.29"/>
<polygon fill="#63b8ff" stroke="#63b8ff" points="2603.58,-83.6 2611.86,-76.99 2601.26,-76.99 2603.58,-83.6"/>
</a>
</g>
</g>
<!-- Node31&#45;&gt;Node38 -->
<g id="edge49_Node000031_Node000038" class="edge">
<title>Node31&#45;&gt;Node38</title>
<g id="a_edge49_Node000031_Node000038"><a xlink:title=" ">
<path fill="none" stroke="#63b8ff" d="M2371.44,-167.53C2421.23,-157.07 2500.47,-140.42 2546.65,-130.72"/>
<polygon fill="#63b8ff" stroke="#63b8ff" points="2547.37,-134.14 2556.43,-128.66 2545.93,-127.29 2547.37,-134.14"/>
</a>
</g>
</g>
<!-- Node32&#45;&gt;Node2 -->
<g id="edge35_Node000032_Node000002" class="edge">
<title>Node32&#45;&gt;Node2</title>
<g id="a_edge35_Node000032_Node000002"><a xlink:title=" ">
<path fill="none" stroke="#63b8ff" d="M2140.24,-76.26C2132.7,-110.95 2086.11,-231.83 2072.38,-244 2042.85,-270.16 1998.68,-281.13 1964.12,-285.72"/>
<polygon fill="#63b8ff" stroke="#63b8ff" points="1963.83,-282.23 1954.3,-286.86 1964.64,-289.18 1963.83,-282.23"/>
</a>
</g>
</g>
<!-- Node33&#45;&gt;Node2 -->
<g id="edge37_Node000033_Node000002" class="edge">
<title>Node33&#45;&gt;Node2</title>
<g id="a_edge37_Node000033_Node000002"><a xlink:title=" ">
<path fill="none" stroke="#63b8ff" d="M2161.86,-132.2C2165.98,-154.86 2161.54,-213.7 2128.38,-244 2105.13,-265.23 2020.4,-278.19 1964.12,-284.45"/>
<polygon fill="#63b8ff" stroke="#63b8ff" points="1964,-280.94 1954.43,-285.49 1964.74,-287.9 1964,-280.94"/>
</a>
</g>
</g>
<!-- Node33&#45;&gt;Node32 -->
<g id="edge38_Node000033_Node000032" class="edge">
<title>Node33&#45;&gt;Node32</title>
<g id="a_edge38_Node000033_Node000032"><a xlink:title=" ">
<path fill="none" stroke="#63b8ff" d="M2154.41,-111.59C2152.29,-104.86 2149.36,-95.53 2146.72,-87.15"/>
<polygon fill="#63b8ff" stroke="#63b8ff" points="2150.1,-86.23 2143.76,-77.74 2143.42,-88.33 2150.1,-86.23"/>
</a>
</g>
</g>
<!-- Node34&#45;&gt;Node2 -->
<g id="edge40_Node000034_Node000002" class="edge">
<title>Node34&#45;&gt;Node2</title>
<g id="a_edge40_Node000034_Node000002"><a xlink:title=" ">
<path fill="none" stroke="#63b8ff" d="M2143.71,-20.44C2110.86,-35.63 2049.38,-69.15 2049.38,-121 2049.38,-179 2049.38,-179 2049.38,-179 2049.38,-210.46 2043.44,-221.58 2021.38,-244 2005.87,-259.76 1983.85,-270.48 1963.58,-277.49"/>
<polygon fill="#63b8ff" stroke="#63b8ff" points="1962.77,-274.08 1954.31,-280.46 1964.9,-280.74 1962.77,-274.08"/>
</a>
</g>
</g>
<!-- Node35&#45;&gt;Node2 -->
<g id="edge42_Node000035_Node000002" class="edge">
<title>Node35&#45;&gt;Node2</title>
<g id="a_edge42_Node000035_Node000002"><a xlink:title=" ">
<path fill="none" stroke="#63b8ff" d="M2768.64,-20.42C2788.75,-38.4 2821.38,-79.55 2821.38,-121 2821.38,-179 2821.38,-179 2821.38,-179 2821.38,-240.83 2757.93,-227.39 2698.38,-244 2560.11,-282.56 2116.15,-288.11 1964,-288.88"/>
<polygon fill="#63b8ff" stroke="#63b8ff" points="1964.22,-285.38 1954.23,-288.93 1964.25,-292.38 1964.22,-285.38"/>
</a>
</g>
</g>
<!-- Node36&#45;&gt;Node2 -->
<g id="edge44_Node000036_Node000002" class="edge">
<title>Node36&#45;&gt;Node2</title>
<g id="a_edge44_Node000036_Node000002"><a xlink:title=" ">
<path fill="none" stroke="#63b8ff" d="M2672.88,-132.25C2671.09,-155.56 2662.86,-216.78 2625.38,-244 2572.25,-282.58 2119.26,-288.12 1964.19,-288.89"/>
<polygon fill="#63b8ff" stroke="#63b8ff" points="1964.19,-285.39 1954.21,-288.93 1964.22,-292.39 1964.19,-285.39"/>
</a>
</g>
</g>
<!-- Node37&#45;&gt;Node2 -->
<g id="edge46_Node000037_Node000002" class="edge">
<title>Node37&#45;&gt;Node2</title>
<g id="a_edge46_Node000037_Node000002"><a xlink:title=" ">
<path fill="none" stroke="#63b8ff" d="M2669.85,-71.57C2693.02,-77.15 2723.23,-88.87 2737.38,-112 2773.06,-170.32 2718.09,-210.7 2658.38,-244 2598.47,-277.41 2123.63,-286.41 1964.24,-288.46"/>
<polygon fill="#63b8ff" stroke="#63b8ff" points="1964.35,-284.96 1954.39,-288.58 1964.44,-291.96 1964.35,-284.96"/>
</a>
</g>
</g>
<!-- Node37&#45;&gt;Node34 -->
<g id="edge48_Node000037_Node000034" class="edge">
<title>Node37&#45;&gt;Node34</title>
<g id="a_edge48_Node000037_Node000034"><a xlink:title=" ">
<path fill="none" stroke="#63b8ff" d="M2610.54,-61.62C2531.08,-52.63 2313.65,-28.01 2214.22,-16.76"/>
<polygon fill="#63b8ff" stroke="#63b8ff" points="2214.81,-13.3 2204.48,-15.65 2214.02,-20.26 2214.81,-13.3"/>
</a>
</g>
</g>
<!-- Node37&#45;&gt;Node35 -->
<g id="edge47_Node000037_Node000035" class="edge">
<title>Node37&#45;&gt;Node35</title>
<g id="a_edge47_Node000037_Node000035"><a xlink:title=" ">
<path fill="none" stroke="#63b8ff" d="M2660.23,-55.59C2677.86,-47.24 2703.88,-34.92 2724.1,-25.34"/>
<polygon fill="#63b8ff" stroke="#63b8ff" points="2725.46,-28.57 2732.99,-21.13 2722.46,-22.25 2725.46,-28.57"/>
</a>
</g>
</g>
<!-- Node38&#45;&gt;Node2 -->
<g id="edge50_Node000038_Node000002" class="edge">
<title>Node38&#45;&gt;Node2</title>
<g id="a_edge50_Node000038_Node000002"><a xlink:title=" ">
<path fill="none" stroke="#63b8ff" d="M2593.1,-132.39C2609.34,-154.95 2634.69,-212.69 2605.38,-244 2562.07,-290.25 2117.51,-290.69 1964.04,-289.53"/>
<polygon fill="#63b8ff" stroke="#63b8ff" points="1964.19,-286.03 1954.16,-289.45 1964.13,-293.03 1964.19,-286.03"/>
</a>
</g>
</g>
<!-- Node38&#45;&gt;Node37 -->
<g id="edge51_Node000038_Node000037" class="edge">
<title>Node38&#45;&gt;Node37</title>
<g id="a_edge51_Node000038_Node000037"><a xlink:title=" ">
<path fill="none" stroke="#63b8ff" d="M2593.3,-111.59C2601.31,-104.01 2612.79,-93.13 2622.41,-84.02"/>
<polygon fill="#63b8ff" stroke="#63b8ff" points="2624.61,-86.76 2629.46,-77.34 2619.79,-81.68 2624.61,-86.76"/>
</a>
</g>
</g>
</g>
</svg>
