<?xml version="1.0" encoding="UTF-8" standalone="no"?>
<!DOCTYPE svg PUBLIC "-//W3C//DTD SVG 1.1//EN"
 "http://www.w3.org/Graphics/SVG/1.1/DTD/svg11.dtd">
<!-- Generated by graphviz version 9.0.0 (20230911.1827)
 -->
<!-- Title: src/Camera.cpp Pages: 1 -->
<svg width="2849pt" height="420pt"
 viewBox="0.00 0.00 2848.75 420.00" xmlns="http://www.w3.org/2000/svg" xmlns:xlink="http://www.w3.org/1999/xlink">
<g id="graph0" class="graph" transform="scale(1 1) rotate(0) translate(4 416)">
<title>src/Camera.cpp</title>
<!-- Node1 -->
<g id="Node000001" class="node">
<title>Node1</title>
<g id="a_Node000001"><a xlink:title=" ">
<polygon fill="#999999" stroke="#666666" points="2467.25,-412 2382.25,-412 2382.25,-392 2467.25,-392 2467.25,-412"/>
<text text-anchor="middle" x="2424.75" y="-398.5" font-family="Helvetica,sans-Serif" font-size="10.00">src/Camera.cpp</text>
</a>
</g>
</g>
<!-- Node2 -->
<g id="Node000002" class="node">
<title>Node2</title>
<g id="a_Node000002"><a xlink:href="pch_8h.html" target="_top" xlink:title=" ">
<polygon fill="white" stroke="#666666" points="2420.75,-356 2380.75,-356 2380.75,-336 2420.75,-336 2420.75,-356"/>
<text text-anchor="middle" x="2400.75" y="-342.5" font-family="Helvetica,sans-Serif" font-size="10.00">pch.h</text>
</a>
</g>
</g>
<!-- Node1&#45;&gt;Node2 -->
<g id="edge1_Node000001_Node000002" class="edge">
<title>Node1&#45;&gt;Node2</title>
<g id="a_edge1_Node000001_Node000002"><a xlink:title=" ">
<path fill="none" stroke="#63b8ff" d="M2420.57,-391.59C2417.51,-384.7 2413.24,-375.1 2409.45,-366.57"/>
<polygon fill="#63b8ff" stroke="#63b8ff" points="2412.76,-365.4 2405.5,-357.68 2406.36,-368.24 2412.76,-365.4"/>
</a>
</g>
</g>
<!-- Node33 -->
<g id="Node000033" class="node">
<title>Node33</title>
<g id="a_Node000033"><a xlink:href="_camera_8h.html" target="_top" xlink:title=" ">
<polygon fill="white" stroke="#666666" points="2264.75,-132 2206.75,-132 2206.75,-112 2264.75,-112 2264.75,-132"/>
<text text-anchor="middle" x="2235.75" y="-118.5" font-family="Helvetica,sans-Serif" font-size="10.00">Camera.h</text>
</a>
</g>
</g>
<!-- Node1&#45;&gt;Node33 -->
<g id="edge62_Node000001_Node000033" class="edge">
<title>Node1&#45;&gt;Node33</title>
<g id="a_edge62_Node000001_Node000033"><a xlink:title=" ">
<path fill="none" stroke="#63b8ff" d="M2467.39,-397.14C2585.43,-384.9 2901.46,-340.62 2803.75,-224 2735.96,-143.1 2394.8,-126.95 2276.34,-123.77"/>
<polygon fill="#63b8ff" stroke="#63b8ff" points="2276.54,-120.27 2266.46,-123.52 2276.37,-127.27 2276.54,-120.27"/>
</a>
</g>
</g>
<!-- Node3 -->
<g id="Node000003" class="node">
<title>Node3</title>
<g id="a_Node000003"><a xlink:href="_game_engine_8h.html" target="_top" xlink:title=" ">
<polygon fill="white" stroke="#666666" points="2010,-300 1929.5,-300 1929.5,-280 2010,-280 2010,-300"/>
<text text-anchor="middle" x="1969.75" y="-286.5" font-family="Helvetica,sans-Serif" font-size="10.00">GameEngine.h</text>
</a>
</g>
</g>
<!-- Node2&#45;&gt;Node3 -->
<g id="edge2_Node000002_Node000003" class="edge">
<title>Node2&#45;&gt;Node3</title>
<g id="a_edge2_Node000002_Node000003"><a xlink:title=" ">
<path fill="none" stroke="#63b8ff" d="M2380.25,-342.43C2316.01,-334.38 2117.24,-309.48 2021.86,-297.53"/>
<polygon fill="#63b8ff" stroke="#63b8ff" points="2022.34,-294.06 2011.98,-296.29 2021.47,-301.01 2022.34,-294.06"/>
</a>
</g>
</g>
<!-- Node4 -->
<g id="Node000004" class="node">
<title>Node4</title>
<g id="a_Node000004"><a xlink:title=" ">
<polygon fill="#e0e0e0" stroke="#999999" points="2198.62,-244 2118.88,-244 2118.88,-224 2198.62,-224 2198.62,-244"/>
<text text-anchor="middle" x="2158.75" y="-230.5" font-family="Helvetica,sans-Serif" font-size="10.00">SDKDDKVer.h</text>
</a>
</g>
</g>
<!-- Node3&#45;&gt;Node4 -->
<g id="edge3_Node000003_Node000004" class="edge">
<title>Node3&#45;&gt;Node4</title>
<g id="a_edge3_Node000003_Node000004"><a xlink:title=" ">
<path fill="none" stroke="#63b8ff" d="M2002.67,-279.59C2033.78,-270.71 2080.67,-257.31 2114.93,-247.52"/>
<polygon fill="#63b8ff" stroke="#63b8ff" points="2115.46,-251.01 2124.12,-244.9 2113.54,-244.28 2115.46,-251.01"/>
</a>
</g>
</g>
<!-- Node5 -->
<g id="Node000005" class="node">
<title>Node5</title>
<g id="a_Node000005"><a xlink:title=" ">
<polygon fill="#e0e0e0" stroke="#999999" points="2390.25,-244 2329.25,-244 2329.25,-224 2390.25,-224 2390.25,-244"/>
<text text-anchor="middle" x="2359.75" y="-230.5" font-family="Helvetica,sans-Serif" font-size="10.00">windows.h</text>
</a>
</g>
</g>
<!-- Node3&#45;&gt;Node5 -->
<g id="edge4_Node000003_Node000005" class="edge">
<title>Node3&#45;&gt;Node5</title>
<g id="a_edge4_Node000003_Node000005"><a xlink:title=" ">
<path fill="none" stroke="#63b8ff" d="M2010.25,-284.62C2074.84,-277.43 2205.09,-262.1 2314.75,-244 2315.75,-243.84 2316.76,-243.67 2317.77,-243.49"/>
<polygon fill="#63b8ff" stroke="#63b8ff" points="2318.12,-246.98 2327.33,-241.75 2316.86,-240.1 2318.12,-246.98"/>
</a>
</g>
</g>
<!-- Node6 -->
<g id="Node000006" class="node">
<title>Node6</title>
<g id="a_Node000006"><a xlink:title=" ">
<polygon fill="#e0e0e0" stroke="#999999" points="2574.5,-244 2527,-244 2527,-224 2574.5,-224 2574.5,-244"/>
<text text-anchor="middle" x="2550.75" y="-230.5" font-family="Helvetica,sans-Serif" font-size="10.00">stdlib.h</text>
</a>
</g>
</g>
<!-- Node3&#45;&gt;Node6 -->
<g id="edge5_Node000003_Node000006" class="edge">
<title>Node3&#45;&gt;Node6</title>
<g id="a_edge5_Node000003_Node000006"><a xlink:title=" ">
<path fill="none" stroke="#63b8ff" d="M2010.29,-288.22C2099.85,-285.96 2321.3,-277.36 2515.44,-244.07"/>
<polygon fill="#63b8ff" stroke="#63b8ff" points="2515.97,-247.53 2525.22,-242.37 2514.77,-240.64 2515.97,-247.53"/>
</a>
</g>
</g>
<!-- Node7 -->
<g id="Node000007" class="node">
<title>Node7</title>
<g id="a_Node000007"><a xlink:title=" ">
<polygon fill="#e0e0e0" stroke="#999999" points="2795.12,-244 2742.38,-244 2742.38,-224 2795.12,-224 2795.12,-244"/>
<text text-anchor="middle" x="2768.75" y="-230.5" font-family="Helvetica,sans-Serif" font-size="10.00">malloc.h</text>
</a>
</g>
</g>
<!-- Node3&#45;&gt;Node7 -->
<g id="edge6_Node000003_Node000007" class="edge">
<title>Node3&#45;&gt;Node7</title>
<g id="a_edge6_Node000003_Node000007"><a xlink:title=" ">
<path fill="none" stroke="#63b8ff" d="M2010.3,-288.9C2124.15,-288.13 2456.23,-282.48 2728.75,-244 2729.57,-243.88 2730.4,-243.76 2731.23,-243.63"/>
<polygon fill="#63b8ff" stroke="#63b8ff" points="2731.49,-247.14 2740.69,-241.88 2730.22,-240.26 2731.49,-247.14"/>
</a>
</g>
</g>
<!-- Node8 -->
<g id="Node000008" class="node">
<title>Node8</title>
<g id="a_Node000008"><a xlink:title=" ">
<polygon fill="#e0e0e0" stroke="#999999" points="59.5,-244 0,-244 0,-224 59.5,-224 59.5,-244"/>
<text text-anchor="middle" x="29.75" y="-230.5" font-family="Helvetica,sans-Serif" font-size="10.00">memory.h</text>
</a>
</g>
</g>
<!-- Node3&#45;&gt;Node8 -->
<g id="edge7_Node000003_Node000008" class="edge">
<title>Node3&#45;&gt;Node8</title>
<g id="a_edge7_Node000003_Node000008"><a xlink:title=" ">
<path fill="none" stroke="#63b8ff" d="M1929.34,-289.16C1691.42,-289.94 470.42,-291.57 71.16,-243.97"/>
<polygon fill="#63b8ff" stroke="#63b8ff" points="71.73,-240.52 61.38,-242.77 70.88,-247.47 71.73,-240.52"/>
</a>
</g>
</g>
<!-- Node9 -->
<g id="Node000009" class="node">
<title>Node9</title>
<g id="a_Node000009"><a xlink:title=" ">
<polygon fill="#e0e0e0" stroke="#999999" points="123.75,-244 77.75,-244 77.75,-224 123.75,-224 123.75,-244"/>
<text text-anchor="middle" x="100.75" y="-230.5" font-family="Helvetica,sans-Serif" font-size="10.00">tchar.h</text>
</a>
</g>
</g>
<!-- Node3&#45;&gt;Node9 -->
<g id="edge8_Node000003_Node000009" class="edge">
<title>Node3&#45;&gt;Node9</title>
<g id="a_edge8_Node000003_Node000009"><a xlink:title=" ">
<path fill="none" stroke="#63b8ff" d="M1929.17,-288.61C1680.22,-286.16 363.19,-272.04 135.2,-243.8"/>
<polygon fill="#63b8ff" stroke="#63b8ff" points="135.9,-240.36 125.52,-242.48 134.95,-247.3 135.9,-240.36"/>
</a>
</g>
</g>
<!-- Node10 -->
<g id="Node000010" class="node">
<title>Node10</title>
<g id="a_Node000010"><a xlink:title=" ">
<polygon fill="#e0e0e0" stroke="#999999" points="203.62,-244 141.88,-244 141.88,-224 203.62,-224 203.62,-244"/>
<text text-anchor="middle" x="172.75" y="-230.5" font-family="Helvetica,sans-Serif" font-size="10.00">resource.h</text>
</a>
</g>
</g>
<!-- Node3&#45;&gt;Node10 -->
<g id="edge9_Node000003_Node000010" class="edge">
<title>Node3&#45;&gt;Node10</title>
<g id="a_edge9_Node000003_Node000010"><a xlink:title=" ">
<path fill="none" stroke="#63b8ff" d="M1929.09,-289.04C1701.6,-289.1 583.86,-287.21 215.3,-244.02"/>
<polygon fill="#63b8ff" stroke="#63b8ff" points="215.94,-240.57 205.59,-242.84 215.1,-247.52 215.94,-240.57"/>
</a>
</g>
</g>
<!-- Node11 -->
<g id="Node000011" class="node">
<title>Node11</title>
<g id="a_Node000011"><a xlink:title=" ">
<polygon fill="#e0e0e0" stroke="#999999" points="267.38,-244 222.12,-244 222.12,-224 267.38,-224 267.38,-244"/>
<text text-anchor="middle" x="244.75" y="-230.5" font-family="Helvetica,sans-Serif" font-size="10.00">chrono</text>
</a>
</g>
</g>
<!-- Node3&#45;&gt;Node11 -->
<g id="edge10_Node000003_Node000011" class="edge">
<title>Node3&#45;&gt;Node11</title>
<g id="a_edge10_Node000003_Node000011"><a xlink:title=" ">
<path fill="none" stroke="#63b8ff" d="M1929.24,-288.54C1692.43,-285.8 490.65,-270.74 278.83,-243.92"/>
<polygon fill="#63b8ff" stroke="#63b8ff" points="279.51,-240.49 269.12,-242.56 278.54,-247.42 279.51,-240.49"/>
</a>
</g>
</g>
<!-- Node12 -->
<g id="Node000012" class="node">
<title>Node12</title>
<g id="a_Node000012"><a xlink:title=" ">
<polygon fill="#e0e0e0" stroke="#999999" points="326.5,-244 285,-244 285,-224 326.5,-224 326.5,-244"/>
<text text-anchor="middle" x="305.75" y="-230.5" font-family="Helvetica,sans-Serif" font-size="10.00">vector</text>
</a>
</g>
</g>
<!-- Node3&#45;&gt;Node12 -->
<g id="edge11_Node000003_Node000012" class="edge">
<title>Node3&#45;&gt;Node12</title>
<g id="a_edge11_Node000003_Node000012"><a xlink:title=" ">
<path fill="none" stroke="#63b8ff" d="M1929.15,-288.52C1697.22,-285.71 543.54,-270.58 338.03,-243.72"/>
<polygon fill="#63b8ff" stroke="#63b8ff" points="338.79,-240.29 328.39,-242.31 337.78,-247.22 338.79,-240.29"/>
</a>
</g>
</g>
<!-- Node13 -->
<g id="Node000013" class="node">
<title>Node13</title>
<g id="a_Node000013"><a xlink:title=" ">
<polygon fill="#e0e0e0" stroke="#999999" points="398.5,-244 345,-244 345,-224 398.5,-224 398.5,-244"/>
<text text-anchor="middle" x="371.75" y="-230.5" font-family="Helvetica,sans-Serif" font-size="10.00">iostream</text>
</a>
</g>
</g>
<!-- Node3&#45;&gt;Node13 -->
<g id="edge12_Node000003_Node000013" class="edge">
<title>Node3&#45;&gt;Node13</title>
<g id="a_edge12_Node000003_Node000013"><a xlink:title=" ">
<path fill="none" stroke="#63b8ff" d="M1929.13,-289.02C1717.38,-288.93 737.64,-286.29 410.13,-243.94"/>
<polygon fill="#63b8ff" stroke="#63b8ff" points="410.63,-240.48 400.25,-242.62 409.7,-247.41 410.63,-240.48"/>
</a>
</g>
</g>
<!-- Node14 -->
<g id="Node000014" class="node">
<title>Node14</title>
<g id="a_Node000014"><a xlink:title=" ">
<polygon fill="#e0e0e0" stroke="#999999" points="464.88,-244 416.62,-244 416.62,-224 464.88,-224 464.88,-244"/>
<text text-anchor="middle" x="440.75" y="-230.5" font-family="Helvetica,sans-Serif" font-size="10.00">fstream</text>
</a>
</g>
</g>
<!-- Node3&#45;&gt;Node14 -->
<g id="edge13_Node000003_Node000014" class="edge">
<title>Node3&#45;&gt;Node14</title>
<g id="a_edge13_Node000003_Node000014"><a xlink:title=" ">
<path fill="none" stroke="#63b8ff" d="M1929.12,-289.07C1722.84,-289.25 789.26,-287.67 476.43,-243.98"/>
<polygon fill="#63b8ff" stroke="#63b8ff" points="477.02,-240.52 466.62,-242.55 476.01,-247.45 477.02,-240.52"/>
</a>
</g>
</g>
<!-- Node15 -->
<g id="Node000015" class="node">
<title>Node15</title>
<g id="a_Node000015"><a xlink:title=" ">
<polygon fill="#e0e0e0" stroke="#999999" points="542.88,-244 482.62,-244 482.62,-224 542.88,-224 542.88,-244"/>
<text text-anchor="middle" x="512.75" y="-230.5" font-family="Helvetica,sans-Serif" font-size="10.00">filesystem</text>
</a>
</g>
</g>
<!-- Node3&#45;&gt;Node15 -->
<g id="edge14_Node000003_Node000015" class="edge">
<title>Node3&#45;&gt;Node15</title>
<g id="a_edge14_Node000003_Node000015"><a xlink:title=" ">
<path fill="none" stroke="#63b8ff" d="M1929.29,-288.78C1730.07,-287.55 851.38,-280.19 554.47,-244.05"/>
<polygon fill="#63b8ff" stroke="#63b8ff" points="555.17,-240.61 544.81,-242.83 554.29,-247.56 555.17,-240.61"/>
</a>
</g>
</g>
<!-- Node16 -->
<g id="Node000016" class="node">
<title>Node16</title>
<g id="a_Node000016"><a xlink:title=" ">
<polygon fill="#e0e0e0" stroke="#999999" points="612.38,-244 561.12,-244 561.12,-224 612.38,-224 612.38,-244"/>
<text text-anchor="middle" x="586.75" y="-230.5" font-family="Helvetica,sans-Serif" font-size="10.00">sstream</text>
</a>
</g>
</g>
<!-- Node3&#45;&gt;Node16 -->
<g id="edge15_Node000003_Node000016" class="edge">
<title>Node3&#45;&gt;Node16</title>
<g id="a_edge15_Node000003_Node000016"><a xlink:title=" ">
<path fill="none" stroke="#63b8ff" d="M1929.02,-288.84C1735.36,-287.89 905.8,-281.73 623.63,-243.86"/>
<polygon fill="#63b8ff" stroke="#63b8ff" points="624.5,-240.45 614.12,-242.53 623.54,-247.38 624.5,-240.45"/>
</a>
</g>
</g>
<!-- Node17 -->
<g id="Node000017" class="node">
<title>Node17</title>
<g id="a_Node000017"><a xlink:title=" ">
<polygon fill="#e0e0e0" stroke="#999999" points="713.12,-244 630.38,-244 630.38,-224 713.12,-224 713.12,-244"/>
<text text-anchor="middle" x="671.75" y="-230.5" font-family="Helvetica,sans-Serif" font-size="10.00">unordered_map</text>
</a>
</g>
</g>
<!-- Node3&#45;&gt;Node17 -->
<g id="edge16_Node000003_Node000017" class="edge">
<title>Node3&#45;&gt;Node17</title>
<g id="a_edge16_Node000003_Node000017"><a xlink:title=" ">
<path fill="none" stroke="#63b8ff" d="M1929.05,-288.29C1744.87,-284.97 987.36,-270.04 724.81,-244.01"/>
<polygon fill="#63b8ff" stroke="#63b8ff" points="725.24,-240.53 714.94,-243 724.53,-247.5 725.24,-240.53"/>
</a>
</g>
</g>
<!-- Node18 -->
<g id="Node000018" class="node">
<title>Node18</title>
<g id="a_Node000018"><a xlink:title=" ">
<polygon fill="#e0e0e0" stroke="#999999" points="836,-244 731.5,-244 731.5,-224 836,-224 836,-244"/>
<text text-anchor="middle" x="783.75" y="-230.5" font-family="Helvetica,sans-Serif" font-size="10.00">assimp/Importer.hpp</text>
</a>
</g>
</g>
<!-- Node3&#45;&gt;Node18 -->
<g id="edge17_Node000003_Node000018" class="edge">
<title>Node3&#45;&gt;Node18</title>
<g id="a_edge17_Node000003_Node000018"><a xlink:title=" ">
<path fill="none" stroke="#63b8ff" d="M1929.03,-288.94C1783.65,-288.38 1276.34,-283.6 847.66,-244.17"/>
<polygon fill="#63b8ff" stroke="#63b8ff" points="848.07,-240.69 837.79,-243.25 847.42,-247.66 848.07,-240.69"/>
</a>
</g>
</g>
<!-- Node19 -->
<g id="Node000019" class="node">
<title>Node19</title>
<g id="a_Node000019"><a xlink:title=" ">
<polygon fill="#e0e0e0" stroke="#999999" points="939.25,-244 854.25,-244 854.25,-224 939.25,-224 939.25,-244"/>
<text text-anchor="middle" x="896.75" y="-230.5" font-family="Helvetica,sans-Serif" font-size="10.00">assimp/scene.h</text>
</a>
</g>
</g>
<!-- Node3&#45;&gt;Node19 -->
<g id="edge18_Node000003_Node000019" class="edge">
<title>Node3&#45;&gt;Node19</title>
<g id="a_edge18_Node000003_Node000019"><a xlink:title=" ">
<path fill="none" stroke="#63b8ff" d="M1929.24,-289.06C1792.8,-288.89 1337.46,-285.13 950.95,-244.08"/>
<polygon fill="#63b8ff" stroke="#63b8ff" points="951.36,-240.6 941.04,-243.01 950.61,-247.56 951.36,-240.6"/>
</a>
</g>
</g>
<!-- Node20 -->
<g id="Node000020" class="node">
<title>Node20</title>
<g id="a_Node000020"><a xlink:title=" ">
<polygon fill="#e0e0e0" stroke="#999999" points="1069.75,-244 957.75,-244 957.75,-224 1069.75,-224 1069.75,-244"/>
<text text-anchor="middle" x="1013.75" y="-230.5" font-family="Helvetica,sans-Serif" font-size="10.00">assimp/postprocess.h</text>
</a>
</g>
</g>
<!-- Node3&#45;&gt;Node20 -->
<g id="edge19_Node000003_Node000020" class="edge">
<title>Node3&#45;&gt;Node20</title>
<g id="a_edge19_Node000003_Node000020"><a xlink:title=" ">
<path fill="none" stroke="#63b8ff" d="M1929.25,-288.21C1804.52,-285.51 1414.92,-275.1 1081.43,-244.17"/>
<polygon fill="#63b8ff" stroke="#63b8ff" points="1081.87,-240.69 1071.59,-243.25 1081.22,-247.66 1081.87,-240.69"/>
</a>
</g>
</g>
<!-- Node21 -->
<g id="Node000021" class="node">
<title>Node21</title>
<g id="a_Node000021"><a xlink:title=" ">
<polygon fill="#e0e0e0" stroke="#999999" points="1233.25,-244 1088.25,-244 1088.25,-224 1233.25,-224 1233.25,-244"/>
<text text-anchor="middle" x="1160.75" y="-230.5" font-family="Helvetica,sans-Serif" font-size="10.00">directxtk\WICTextureLoader.h</text>
</a>
</g>
</g>
<!-- Node3&#45;&gt;Node21 -->
<g id="edge20_Node000003_Node000021" class="edge">
<title>Node3&#45;&gt;Node21</title>
<g id="a_edge20_Node000003_Node000021"><a xlink:title=" ">
<path fill="none" stroke="#63b8ff" d="M1929.11,-287.16C1820.19,-282.09 1512.44,-266.82 1244.72,-244.13"/>
<polygon fill="#63b8ff" stroke="#63b8ff" points="1245.38,-240.67 1235.12,-243.31 1244.78,-247.64 1245.38,-240.67"/>
</a>
</g>
</g>
<!-- Node22 -->
<g id="Node000022" class="node">
<title>Node22</title>
<g id="a_Node000022"><a xlink:title=" ">
<polygon fill="#e0e0e0" stroke="#999999" points="1316.12,-244 1251.38,-244 1251.38,-224 1316.12,-224 1316.12,-244"/>
<text text-anchor="middle" x="1283.75" y="-230.5" font-family="Helvetica,sans-Serif" font-size="10.00">wincodec.h</text>
</a>
</g>
</g>
<!-- Node3&#45;&gt;Node22 -->
<g id="edge21_Node000003_Node000022" class="edge">
<title>Node3&#45;&gt;Node22</title>
<g id="a_edge21_Node000003_Node000022"><a xlink:title=" ">
<path fill="none" stroke="#63b8ff" d="M1929.16,-288.23C1828.68,-285.88 1560.25,-276.93 1327.41,-244.18"/>
<polygon fill="#63b8ff" stroke="#63b8ff" points="1328.24,-240.77 1317.84,-242.82 1327.25,-247.7 1328.24,-240.77"/>
</a>
</g>
</g>
<!-- Node23 -->
<g id="Node000023" class="node">
<title>Node23</title>
<g id="a_Node000023"><a xlink:title=" ">
<polygon fill="#e0e0e0" stroke="#999999" points="1391.75,-244 1333.75,-244 1333.75,-224 1391.75,-224 1391.75,-244"/>
<text text-anchor="middle" x="1362.75" y="-230.5" font-family="Helvetica,sans-Serif" font-size="10.00">lodepng.h</text>
</a>
</g>
</g>
<!-- Node3&#45;&gt;Node23 -->
<g id="edge22_Node000003_Node000023" class="edge">
<title>Node3&#45;&gt;Node23</title>
<g id="a_edge22_Node000003_Node000023"><a xlink:title=" ">
<path fill="none" stroke="#63b8ff" d="M1929.14,-287.93C1837.17,-285.04 1605.83,-275.22 1403.27,-244.16"/>
<polygon fill="#63b8ff" stroke="#63b8ff" points="1404.03,-240.74 1393.62,-242.66 1402.96,-247.66 1404.03,-240.74"/>
</a>
</g>
</g>
<!-- Node24 -->
<g id="Node000024" class="node">
<title>Node24</title>
<g id="a_Node000024"><a xlink:title=" ">
<polygon fill="#e0e0e0" stroke="#999999" points="1460,-244 1409.5,-244 1409.5,-224 1460,-224 1460,-244"/>
<text text-anchor="middle" x="1434.75" y="-230.5" font-family="Helvetica,sans-Serif" font-size="10.00">d3d11.h</text>
</a>
</g>
</g>
<!-- Node3&#45;&gt;Node24 -->
<g id="edge23_Node000003_Node000024" class="edge">
<title>Node3&#45;&gt;Node24</title>
<g id="a_edge23_Node000003_Node000024"><a xlink:title=" ">
<path fill="none" stroke="#63b8ff" d="M1929.28,-287.58C1845.62,-284.17 1647.5,-273.63 1471.55,-244"/>
<polygon fill="#63b8ff" stroke="#63b8ff" points="1472.2,-240.56 1461.75,-242.32 1471.02,-247.46 1472.2,-240.56"/>
</a>
</g>
</g>
<!-- Node25 -->
<g id="Node000025" class="node">
<title>Node25</title>
<g id="a_Node000025"><a xlink:title=" ">
<polygon fill="#e0e0e0" stroke="#999999" points="1555.12,-244 1478.38,-244 1478.38,-224 1555.12,-224 1555.12,-244"/>
<text text-anchor="middle" x="1516.75" y="-230.5" font-family="Helvetica,sans-Serif" font-size="10.00">DirectXMath.h</text>
</a>
</g>
</g>
<!-- Node3&#45;&gt;Node25 -->
<g id="edge24_Node000003_Node000025" class="edge">
<title>Node3&#45;&gt;Node25</title>
<g id="a_edge24_Node000003_Node000025"><a xlink:title=" ">
<path fill="none" stroke="#63b8ff" d="M1929.27,-285.58C1858.02,-279.33 1705.32,-264.9 1566.67,-244.34"/>
<polygon fill="#63b8ff" stroke="#63b8ff" points="1567.34,-240.9 1556.93,-242.88 1566.3,-247.83 1567.34,-240.9"/>
</a>
</g>
</g>
<!-- Node26 -->
<g id="Node000026" class="node">
<title>Node26</title>
<g id="a_Node000026"><a xlink:title=" ">
<polygon fill="#e0e0e0" stroke="#999999" points="1652.62,-244 1572.88,-244 1572.88,-224 1652.62,-224 1652.62,-244"/>
<text text-anchor="middle" x="1612.75" y="-230.5" font-family="Helvetica,sans-Serif" font-size="10.00">D3Dcompiler.h</text>
</a>
</g>
</g>
<!-- Node3&#45;&gt;Node26 -->
<g id="edge25_Node000003_Node000026" class="edge">
<title>Node3&#45;&gt;Node26</title>
<g id="a_edge25_Node000003_Node000026"><a xlink:title=" ">
<path fill="none" stroke="#63b8ff" d="M1929.32,-283.57C1872.51,-275.84 1765.55,-260.91 1664.45,-244.4"/>
<polygon fill="#63b8ff" stroke="#63b8ff" points="1665.03,-240.95 1654.6,-242.78 1663.9,-247.85 1665.03,-240.95"/>
</a>
</g>
</g>
<!-- Node27 -->
<g id="Node000027" class="node">
<title>Node27</title>
<g id="a_Node000027"><a xlink:title=" ">
<polygon fill="#e0e0e0" stroke="#999999" points="1726.62,-244 1670.88,-244 1670.88,-224 1726.62,-224 1726.62,-244"/>
<text text-anchor="middle" x="1698.75" y="-230.5" font-family="Helvetica,sans-Serif" font-size="10.00">d2d1_2.h</text>
</a>
</g>
</g>
<!-- Node3&#45;&gt;Node27 -->
<g id="edge26_Node000003_Node000027" class="edge">
<title>Node3&#45;&gt;Node27</title>
<g id="a_edge26_Node000003_Node000027"><a xlink:title=" ">
<path fill="none" stroke="#63b8ff" d="M1929.05,-281.79C1884.55,-273.78 1810.9,-260.11 1738.19,-244.45"/>
<polygon fill="#63b8ff" stroke="#63b8ff" points="1738.99,-241.04 1728.48,-242.34 1737.51,-247.88 1738.99,-241.04"/>
</a>
</g>
</g>
<!-- Node28 -->
<g id="Node000028" class="node">
<title>Node28</title>
<g id="a_Node000028"><a xlink:title=" ">
<polygon fill="#e0e0e0" stroke="#999999" points="1800.62,-244 1744.88,-244 1744.88,-224 1800.62,-224 1800.62,-244"/>
<text text-anchor="middle" x="1772.75" y="-230.5" font-family="Helvetica,sans-Serif" font-size="10.00">d2d1_1.h</text>
</a>
</g>
</g>
<!-- Node3&#45;&gt;Node28 -->
<g id="edge27_Node000003_Node000028" class="edge">
<title>Node3&#45;&gt;Node28</title>
<g id="a_edge27_Node000003_Node000028"><a xlink:title=" ">
<path fill="none" stroke="#63b8ff" d="M1935.44,-279.59C1901.02,-270.16 1848.08,-255.65 1812.01,-245.76"/>
<polygon fill="#63b8ff" stroke="#63b8ff" points="1812.97,-242.39 1802.4,-243.13 1811.11,-249.15 1812.97,-242.39"/>
</a>
</g>
</g>
<!-- Node29 -->
<g id="Node000029" class="node">
<title>Node29</title>
<g id="a_Node000029"><a xlink:title=" ">
<polygon fill="#e0e0e0" stroke="#999999" points="1864.38,-244 1819.12,-244 1819.12,-224 1864.38,-224 1864.38,-244"/>
<text text-anchor="middle" x="1841.75" y="-230.5" font-family="Helvetica,sans-Serif" font-size="10.00">d2d1.h</text>
</a>
</g>
</g>
<!-- Node3&#45;&gt;Node29 -->
<g id="edge28_Node000003_Node000029" class="edge">
<title>Node3&#45;&gt;Node29</title>
<g id="a_edge28_Node000003_Node000029"><a xlink:title=" ">
<path fill="none" stroke="#63b8ff" d="M1947.45,-279.59C1927.39,-271.13 1897.63,-258.58 1874.8,-248.94"/>
<polygon fill="#63b8ff" stroke="#63b8ff" points="1876.19,-245.73 1865.61,-245.07 1873.47,-252.18 1876.19,-245.73"/>
</a>
</g>
</g>
<!-- Node30 -->
<g id="Node000030" class="node">
<title>Node30</title>
<g id="a_Node000030"><a xlink:title=" ">
<polygon fill="#e0e0e0" stroke="#999999" points="1932.62,-244 1882.88,-244 1882.88,-224 1932.62,-224 1932.62,-244"/>
<text text-anchor="middle" x="1907.75" y="-230.5" font-family="Helvetica,sans-Serif" font-size="10.00">dwrite.h</text>
</a>
</g>
</g>
<!-- Node3&#45;&gt;Node30 -->
<g id="edge29_Node000003_Node000030" class="edge">
<title>Node3&#45;&gt;Node30</title>
<g id="a_edge29_Node000003_Node000030"><a xlink:title=" ">
<path fill="none" stroke="#63b8ff" d="M1958.95,-279.59C1950.15,-271.93 1937.5,-260.91 1926.98,-251.75"/>
<polygon fill="#63b8ff" stroke="#63b8ff" points="1929.41,-249.22 1919.57,-245.29 1924.81,-254.5 1929.41,-249.22"/>
</a>
</g>
</g>
<!-- Node31 -->
<g id="Node000031" class="node">
<title>Node31</title>
<g id="a_Node000031"><a xlink:href="_win32_application_8h.html" target="_top" xlink:title=" ">
<polygon fill="white" stroke="#666666" points="2508.75,-244 2408.75,-244 2408.75,-224 2508.75,-224 2508.75,-244"/>
<text text-anchor="middle" x="2458.75" y="-230.5" font-family="Helvetica,sans-Serif" font-size="10.00">Win32Application.h</text>
</a>
</g>
</g>
<!-- Node3&#45;&gt;Node31 -->
<g id="edge30_Node000003_Node000031" class="edge">
<title>Node3&#45;&gt;Node31</title>
<g id="a_edge30_Node000003_Node000031"><a xlink:title=" ">
<path fill="none" stroke="#63b8ff" d="M2010.38,-284.84C2085.52,-277.59 2250.65,-261.72 2389.75,-244 2392.21,-243.69 2394.73,-243.35 2397.28,-243.01"/>
<polygon fill="#63b8ff" stroke="#63b8ff" points="2397.65,-246.49 2407.08,-241.65 2396.69,-239.56 2397.65,-246.49"/>
</a>
</g>
</g>
<!-- Node32 -->
<g id="Node000032" class="node">
<title>Node32</title>
<g id="a_Node000032"><a xlink:href="_direct_x_manager_8h.html" target="_top" xlink:title=" ">
<polygon fill="white" stroke="#666666" points="2377,-188 2284.5,-188 2284.5,-168 2377,-168 2377,-188"/>
<text text-anchor="middle" x="2330.75" y="-174.5" font-family="Helvetica,sans-Serif" font-size="10.00">DirectXManager.h</text>
</a>
</g>
</g>
<!-- Node3&#45;&gt;Node32 -->
<g id="edge54_Node000003_Node000032" class="edge">
<title>Node3&#45;&gt;Node32</title>
<g id="a_edge54_Node000003_Node000032"><a xlink:title=" ">
<path fill="none" stroke="#63b8ff" d="M2010.44,-289.78C2066.94,-289 2170.67,-281.66 2249.75,-244 2273.35,-232.76 2294.81,-211.25 2310.05,-196.06"/>
<polygon fill="#63b8ff" stroke="#63b8ff" points="2312.1,-198.94 2316.77,-189.43 2307.19,-193.96 2312.1,-198.94"/>
</a>
</g>
</g>
<!-- Node3&#45;&gt;Node33 -->
<g id="edge55_Node000003_Node000033" class="edge">
<title>Node3&#45;&gt;Node33</title>
<g id="a_edge55_Node000003_Node000033"><a xlink:title=" ">
<path fill="none" stroke="#63b8ff" d="M2010.06,-286.15C2068.41,-281.42 2171.91,-269.78 2198.75,-244 2226.14,-217.7 2229.1,-170.32 2231.2,-143.31"/>
<polygon fill="#63b8ff" stroke="#63b8ff" points="2234.66,-143.97 2232.1,-133.69 2227.69,-143.32 2234.66,-143.97"/>
</a>
</g>
</g>
<!-- Node34 -->
<g id="Node000034" class="node">
<title>Node34</title>
<g id="a_Node000034"><a xlink:href="_graphics_device_8h.html" target="_top" xlink:title=" ">
<polygon fill="white" stroke="#666666" points="2115.62,-76 2023.88,-76 2023.88,-56 2115.62,-56 2115.62,-76"/>
<text text-anchor="middle" x="2069.75" y="-62.5" font-family="Helvetica,sans-Serif" font-size="10.00">GraphicsDevice.h</text>
</a>
</g>
</g>
<!-- Node3&#45;&gt;Node34 -->
<g id="edge56_Node000003_Node000034" class="edge">
<title>Node3&#45;&gt;Node34</title>
<g id="a_edge56_Node000003_Node000034"><a xlink:title=" ">
<path fill="none" stroke="#63b8ff" d="M1967.79,-279.78C1970.45,-270.74 1977.83,-256.53 1983.75,-244 2010.52,-187.35 2039.25,-119.04 2056.31,-86.32"/>
<polygon fill="#63b8ff" stroke="#63b8ff" points="2059.34,-88.08 2061.11,-77.63 2053.21,-84.69 2059.34,-88.08"/>
</a>
</g>
</g>
<!-- Node35 -->
<g id="Node000035" class="node">
<title>Node35</title>
<g id="a_Node000035"><a xlink:href="_mesh_8h.html" target="_top" xlink:title=" ">
<polygon fill="white" stroke="#666666" points="2110.88,-132 2062.62,-132 2062.62,-112 2110.88,-112 2110.88,-132"/>
<text text-anchor="middle" x="2086.75" y="-118.5" font-family="Helvetica,sans-Serif" font-size="10.00">Mesh.h</text>
</a>
</g>
</g>
<!-- Node3&#45;&gt;Node35 -->
<g id="edge58_Node000003_Node000035" class="edge">
<title>Node3&#45;&gt;Node35</title>
<g id="a_edge58_Node000003_Node000035"><a xlink:title=" ">
<path fill="none" stroke="#63b8ff" d="M1989.02,-279.62C2004.82,-272.37 2026.27,-260.71 2039.75,-244 2063.74,-214.25 2072.67,-169.21 2078.74,-143.29"/>
<polygon fill="#63b8ff" stroke="#63b8ff" points="2082.1,-144.28 2081.17,-133.73 2075.31,-142.56 2082.1,-144.28"/>
</a>
</g>
</g>
<!-- Node36 -->
<g id="Node000036" class="node">
<title>Node36</title>
<g id="a_Node000036"><a xlink:href="_render_state_8h.html" target="_top" xlink:title=" ">
<polygon fill="white" stroke="#666666" points="2189.88,-20 2111.62,-20 2111.62,0 2189.88,0 2189.88,-20"/>
<text text-anchor="middle" x="2150.75" y="-6.5" font-family="Helvetica,sans-Serif" font-size="10.00">RenderState.h</text>
</a>
</g>
</g>
<!-- Node3&#45;&gt;Node36 -->
<g id="edge60_Node000003_Node000036" class="edge">
<title>Node3&#45;&gt;Node36</title>
<g id="a_edge60_Node000003_Node000036"><a xlink:title=" ">
<path fill="none" stroke="#63b8ff" d="M1964.73,-279.58C1960.75,-260.57 1960.75,-216.24 1960.75,-179 1960.75,-179 1960.75,-179 1960.75,-121 1960.75,-57.19 2043.93,-29.34 2100.32,-18.02"/>
<polygon fill="#63b8ff" stroke="#63b8ff" points="2100.88,-21.48 2110.07,-16.19 2099.59,-14.6 2100.88,-21.48"/>
</a>
</g>
</g>
<!-- Node37 -->
<g id="Node000037" class="node">
<title>Node37</title>
<g id="a_Node000037"><a xlink:href="_shader_program_8h.html" target="_top" xlink:title=" ">
<polygon fill="white" stroke="#666666" points="2802.62,-20 2710.88,-20 2710.88,0 2802.62,0 2802.62,-20"/>
<text text-anchor="middle" x="2756.75" y="-6.5" font-family="Helvetica,sans-Serif" font-size="10.00">ShaderProgram.h</text>
</a>
</g>
</g>
<!-- Node3&#45;&gt;Node37 -->
<g id="edge61_Node000003_Node000037" class="edge">
<title>Node3&#45;&gt;Node37</title>
<g id="a_edge61_Node000003_Node000037"><a xlink:title=" ">
<path fill="none" stroke="#63b8ff" d="M2010.34,-289.3C2167.51,-290.06 2729.74,-289.33 2794.75,-244 2820.55,-226.01 2822.75,-210.46 2822.75,-179 2822.75,-179 2822.75,-179 2822.75,-121 2822.75,-82.92 2791.68,-48.29 2771.94,-28.44"/>
<polygon fill="#63b8ff" stroke="#63b8ff" points="2774.46,-26.02 2764.89,-21.47 2769.54,-30.99 2774.46,-26.02"/>
</a>
</g>
</g>
<!-- Node39 -->
<g id="Node000039" class="node">
<title>Node39</title>
<g id="a_Node000039"><a xlink:href="_material_8h.html" target="_top" xlink:title=" ">
<polygon fill="white" stroke="#666666" points="2637.12,-76 2578.38,-76 2578.38,-56 2637.12,-56 2637.12,-76"/>
<text text-anchor="middle" x="2607.75" y="-62.5" font-family="Helvetica,sans-Serif" font-size="10.00">Material.h</text>
</a>
</g>
</g>
<!-- Node3&#45;&gt;Node39 -->
<g id="edge57_Node000003_Node000039" class="edge">
<title>Node3&#45;&gt;Node39</title>
<g id="a_edge57_Node000003_Node000039"><a xlink:title=" ">
<path fill="none" stroke="#63b8ff" d="M2010.45,-288.64C2145.42,-287.15 2571.81,-279.71 2621.75,-244 2672.41,-207.78 2698.59,-166.66 2668.75,-112 2661.5,-98.73 2648.48,-88.78 2636.23,-81.67"/>
<polygon fill="#63b8ff" stroke="#63b8ff" points="2638.07,-78.68 2627.6,-77.06 2634.77,-84.85 2638.07,-78.68"/>
</a>
</g>
</g>
<!-- Node40 -->
<g id="Node000040" class="node">
<title>Node40</title>
<g id="a_Node000040"><a xlink:href="_model_8h.html" target="_top" xlink:title=" ">
<polygon fill="white" stroke="#666666" points="2558,-132 2507.5,-132 2507.5,-112 2558,-112 2558,-132"/>
<text text-anchor="middle" x="2532.75" y="-118.5" font-family="Helvetica,sans-Serif" font-size="10.00">Model.h</text>
</a>
</g>
</g>
<!-- Node3&#45;&gt;Node40 -->
<g id="edge59_Node000003_Node000040" class="edge">
<title>Node3&#45;&gt;Node40</title>
<g id="a_edge59_Node000003_Node000040"><a xlink:title=" ">
<path fill="none" stroke="#63b8ff" d="M2010.17,-289.15C2139.48,-289.13 2536.14,-285.54 2574.75,-244 2602.55,-214.09 2566.48,-166.8 2545.39,-141.09"/>
<polygon fill="#63b8ff" stroke="#63b8ff" points="2548.23,-139.03 2539.17,-133.55 2542.83,-143.49 2548.23,-139.03"/>
</a>
</g>
</g>
<!-- Node31&#45;&gt;Node3 -->
<g id="edge31_Node000031_Node000003" class="edge">
<title>Node31&#45;&gt;Node3</title>
<g id="a_edge31_Node000031_Node000003"><a xlink:title=" ">
<path fill="none" stroke="#63b8ff" d="M2408.38,-243.92C2408.17,-243.95 2407.96,-243.97 2407.75,-244 2268.83,-261.7 2103.95,-277.55 2021.66,-284.81"/>
<polygon fill="#63b8ff" stroke="#63b8ff" points="2021.53,-281.31 2011.87,-285.67 2022.14,-288.28 2021.53,-281.31"/>
</a>
</g>
</g>
<!-- Node31&#45;&gt;Node32 -->
<g id="edge32_Node000031_Node000032" class="edge">
<title>Node31&#45;&gt;Node32</title>
<g id="a_edge32_Node000031_Node000032"><a xlink:title=" ">
<path fill="none" stroke="#63b8ff" d="M2436.45,-223.59C2416.39,-215.13 2386.63,-202.58 2363.8,-192.94"/>
<polygon fill="#63b8ff" stroke="#63b8ff" points="2365.19,-189.73 2354.61,-189.07 2362.47,-196.18 2365.19,-189.73"/>
</a>
</g>
</g>
<!-- Node32&#45;&gt;Node3 -->
<g id="edge33_Node000032_Node000003" class="edge">
<title>Node32&#45;&gt;Node3</title>
<g id="a_edge33_Node000032_Node000003"><a xlink:title=" ">
<path fill="none" stroke="#63b8ff" d="M2329.16,-188.37C2320.68,-202.93 2295.73,-230.68 2267.75,-244 2188.07,-281.94 2083.38,-289.11 2021.54,-289.8"/>
<polygon fill="#63b8ff" stroke="#63b8ff" points="2021.64,-286.3 2011.65,-289.85 2021.67,-293.3 2021.64,-286.3"/>
</a>
</g>
</g>
<!-- Node32&#45;&gt;Node33 -->
<g id="edge34_Node000032_Node000033" class="edge">
<title>Node32&#45;&gt;Node33</title>
<g id="a_edge34_Node000032_Node000033"><a xlink:title=" ">
<path fill="none" stroke="#63b8ff" d="M2314.2,-167.59C2299.85,-159.44 2278.82,-147.48 2262.15,-138"/>
<polygon fill="#63b8ff" stroke="#63b8ff" points="2264.17,-135.13 2253.74,-133.23 2260.71,-141.21 2264.17,-135.13"/>
</a>
</g>
</g>
<!-- Node32&#45;&gt;Node34 -->
<g id="edge36_Node000032_Node000034" class="edge">
<title>Node32&#45;&gt;Node34</title>
<g id="a_edge36_Node000032_Node000034"><a xlink:title=" ">
<path fill="none" stroke="#63b8ff" d="M2325.4,-167.8C2316.57,-153.49 2297.52,-126.06 2273.75,-112 2229,-85.54 2170.39,-74.6 2127.49,-70.1"/>
<polygon fill="#63b8ff" stroke="#63b8ff" points="2127.9,-66.62 2117.61,-69.16 2127.23,-73.59 2127.9,-66.62"/>
</a>
</g>
</g>
<!-- Node32&#45;&gt;Node35 -->
<g id="edge38_Node000032_Node000035" class="edge">
<title>Node32&#45;&gt;Node35</title>
<g id="a_edge38_Node000032_Node000035"><a xlink:title=" ">
<path fill="none" stroke="#63b8ff" d="M2287.97,-167.53C2240.92,-157.12 2166.18,-140.58 2122.25,-130.86"/>
<polygon fill="#63b8ff" stroke="#63b8ff" points="2123.25,-127.49 2112.73,-128.75 2121.74,-134.33 2123.25,-127.49"/>
</a>
</g>
</g>
<!-- Node32&#45;&gt;Node36 -->
<g id="edge41_Node000032_Node000036" class="edge">
<title>Node32&#45;&gt;Node36</title>
<g id="a_edge41_Node000032_Node000036"><a xlink:title=" ">
<path fill="none" stroke="#63b8ff" d="M2328.05,-167.73C2323.79,-154.27 2314.42,-129.07 2299.75,-112 2266.11,-72.87 2213.87,-42.2 2181.03,-25.35"/>
<polygon fill="#63b8ff" stroke="#63b8ff" points="2182.96,-22.4 2172.45,-21.05 2179.82,-28.66 2182.96,-22.4"/>
</a>
</g>
</g>
<!-- Node32&#45;&gt;Node37 -->
<g id="edge43_Node000032_Node000037" class="edge">
<title>Node32&#45;&gt;Node37</title>
<g id="a_edge43_Node000032_Node000037"><a xlink:title=" ">
<path fill="none" stroke="#63b8ff" d="M2345.37,-167.57C2366.14,-154.36 2405.58,-129.94 2440.75,-112 2496.43,-83.6 2510.48,-75.83 2569.75,-56 2612.37,-41.74 2661.86,-30.04 2699.21,-22.14"/>
<polygon fill="#63b8ff" stroke="#63b8ff" points="2699.84,-25.59 2708.91,-20.13 2698.41,-18.74 2699.84,-25.59"/>
</a>
</g>
</g>
<!-- Node38 -->
<g id="Node000038" class="node">
<title>Node38</title>
<g id="a_Node000038"><a xlink:href="_shader_manager_8h.html" target="_top" xlink:title=" ">
<polygon fill="white" stroke="#666666" points="2669,-132 2576.5,-132 2576.5,-112 2669,-112 2669,-132"/>
<text text-anchor="middle" x="2622.75" y="-118.5" font-family="Helvetica,sans-Serif" font-size="10.00">ShaderManager.h</text>
</a>
</g>
</g>
<!-- Node32&#45;&gt;Node38 -->
<g id="edge45_Node000032_Node000038" class="edge">
<title>Node32&#45;&gt;Node38</title>
<g id="a_edge45_Node000032_Node000038"><a xlink:title=" ">
<path fill="none" stroke="#63b8ff" d="M2377.34,-168.38C2428.3,-158.96 2510.03,-143.85 2565.02,-133.68"/>
<polygon fill="#63b8ff" stroke="#63b8ff" points="2565.64,-137.12 2574.84,-131.86 2564.37,-130.24 2565.64,-137.12"/>
</a>
</g>
</g>
<!-- Node32&#45;&gt;Node39 -->
<g id="edge47_Node000032_Node000039" class="edge">
<title>Node32&#45;&gt;Node39</title>
<g id="a_edge47_Node000032_Node000039"><a xlink:title=" ">
<path fill="none" stroke="#63b8ff" d="M2354.37,-167.62C2403.43,-148.14 2516.55,-103.22 2573.57,-80.57"/>
<polygon fill="#63b8ff" stroke="#63b8ff" points="2574.78,-83.86 2582.79,-76.91 2572.2,-77.35 2574.78,-83.86"/>
</a>
</g>
</g>
<!-- Node32&#45;&gt;Node40 -->
<g id="edge51_Node000032_Node000040" class="edge">
<title>Node32&#45;&gt;Node40</title>
<g id="a_edge51_Node000032_Node000040"><a xlink:title=" ">
<path fill="none" stroke="#63b8ff" d="M2365.94,-167.59C2402.51,-157.82 2459.47,-142.59 2496.45,-132.7"/>
<polygon fill="#63b8ff" stroke="#63b8ff" points="2497.02,-136.18 2505.77,-130.21 2495.21,-129.41 2497.02,-136.18"/>
</a>
</g>
</g>
<!-- Node33&#45;&gt;Node3 -->
<g id="edge35_Node000033_Node000003" class="edge">
<title>Node33&#45;&gt;Node3</title>
<g id="a_edge35_Node000033_Node000003"><a xlink:title=" ">
<path fill="none" stroke="#63b8ff" d="M2241.13,-132.18C2247.42,-154.79 2248.48,-213.53 2216.75,-244 2189.78,-269.9 2085.44,-281.53 2021.22,-286.22"/>
<polygon fill="#63b8ff" stroke="#63b8ff" points="2021.35,-282.7 2011.62,-286.88 2021.84,-289.68 2021.35,-282.7"/>
</a>
</g>
</g>
<!-- Node34&#45;&gt;Node3 -->
<g id="edge37_Node000034_Node000003" class="edge">
<title>Node34&#45;&gt;Node3</title>
<g id="a_edge37_Node000034_Node000003"><a xlink:title=" ">
<path fill="none" stroke="#63b8ff" d="M2070.05,-76.3C2064.06,-102.77 2031.67,-180.68 2001.75,-244 1997.63,-252.71 1992.81,-262.24 1987.94,-270.27"/>
<polygon fill="#63b8ff" stroke="#63b8ff" points="1985.07,-268.26 1982.4,-278.52 1990.88,-272.17 1985.07,-268.26"/>
</a>
</g>
</g>
<!-- Node35&#45;&gt;Node3 -->
<g id="edge39_Node000035_Node000003" class="edge">
<title>Node35&#45;&gt;Node3</title>
<g id="a_edge39_Node000035_Node000003"><a xlink:title=" ">
<path fill="none" stroke="#63b8ff" d="M2090.7,-132.26C2093.19,-154.06 2085.67,-209.38 2057.75,-244 2046.7,-257.71 2030.27,-268.01 2014.52,-275.28"/>
<polygon fill="#63b8ff" stroke="#63b8ff" points="2013.54,-271.89 2005.71,-279.03 2016.28,-278.33 2013.54,-271.89"/>
</a>
</g>
</g>
<!-- Node35&#45;&gt;Node34 -->
<g id="edge40_Node000035_Node000034" class="edge">
<title>Node35&#45;&gt;Node34</title>
<g id="a_edge40_Node000035_Node000034"><a xlink:title=" ">
<path fill="none" stroke="#63b8ff" d="M2083.79,-111.59C2081.67,-104.86 2078.73,-95.53 2076.09,-87.15"/>
<polygon fill="#63b8ff" stroke="#63b8ff" points="2079.47,-86.23 2073.13,-77.74 2072.8,-88.33 2079.47,-86.23"/>
</a>
</g>
</g>
<!-- Node36&#45;&gt;Node3 -->
<g id="edge42_Node000036_Node000003" class="edge">
<title>Node36&#45;&gt;Node3</title>
<g id="a_edge42_Node000036_Node000003"><a xlink:title=" ">
<path fill="none" stroke="#63b8ff" d="M2111.35,-18.33C2060.46,-29.84 1978.75,-57.75 1978.75,-121 1978.75,-179 1978.75,-179 1978.75,-179 1978.75,-210.13 1978.75,-246.22 1976.43,-268.32"/>
<polygon fill="#63b8ff" stroke="#63b8ff" points="1972.98,-267.68 1974.99,-278.09 1979.91,-268.7 1972.98,-267.68"/>
</a>
</g>
</g>
<!-- Node37&#45;&gt;Node3 -->
<g id="edge44_Node000037_Node000003" class="edge">
<title>Node37&#45;&gt;Node3</title>
<g id="a_edge44_Node000037_Node000003"><a xlink:title=" ">
<path fill="none" stroke="#63b8ff" d="M2774.46,-20.41C2799.44,-37.76 2840.75,-77.08 2840.75,-121 2840.75,-179 2840.75,-179 2840.75,-179 2840.75,-210.46 2838.55,-226.01 2812.75,-244 2748.33,-288.92 2195.65,-290.04 2021.79,-289.32"/>
<polygon fill="#63b8ff" stroke="#63b8ff" points="2021.95,-285.82 2011.93,-289.28 2021.92,-292.82 2021.95,-285.82"/>
</a>
</g>
</g>
<!-- Node38&#45;&gt;Node3 -->
<g id="edge46_Node000038_Node000003" class="edge">
<title>Node38&#45;&gt;Node3</title>
<g id="a_edge46_Node000038_Node000003"><a xlink:title=" ">
<path fill="none" stroke="#63b8ff" d="M2625.29,-132.23C2630.92,-154.97 2641.64,-213.99 2610.75,-244 2568.88,-284.68 2166.89,-288.92 2021.72,-289.11"/>
<polygon fill="#63b8ff" stroke="#63b8ff" points="2022.01,-285.61 2012.01,-289.12 2022.02,-292.61 2022.01,-285.61"/>
</a>
</g>
</g>
<!-- Node39&#45;&gt;Node3 -->
<g id="edge48_Node000039_Node000003" class="edge">
<title>Node39&#45;&gt;Node3</title>
<g id="a_edge48_Node000039_Node000003"><a xlink:title=" ">
<path fill="none" stroke="#63b8ff" d="M2637.52,-74.67C2655.59,-81.62 2676.71,-93.61 2686.75,-112 2716.59,-166.66 2690.41,-207.78 2639.75,-244 2590.21,-279.42 2170.33,-287.03 2021.61,-288.61"/>
<polygon fill="#63b8ff" stroke="#63b8ff" points="2021.61,-285.11 2011.65,-288.71 2021.68,-292.11 2021.61,-285.11"/>
</a>
</g>
</g>
<!-- Node39&#45;&gt;Node36 -->
<g id="edge50_Node000039_Node000036" class="edge">
<title>Node39&#45;&gt;Node36</title>
<g id="a_edge50_Node000039_Node000036"><a xlink:title=" ">
<path fill="none" stroke="#63b8ff" d="M2578.12,-61.5C2501.69,-52.47 2297.23,-28.31 2201.5,-17"/>
<polygon fill="#63b8ff" stroke="#63b8ff" points="2201.95,-13.53 2191.61,-15.83 2201.13,-20.48 2201.95,-13.53"/>
</a>
</g>
</g>
<!-- Node39&#45;&gt;Node37 -->
<g id="edge49_Node000039_Node000037" class="edge">
<title>Node39&#45;&gt;Node37</title>
<g id="a_edge49_Node000039_Node000037"><a xlink:title=" ">
<path fill="none" stroke="#63b8ff" d="M2633.7,-55.59C2657.59,-46.94 2693.28,-34 2720.08,-24.29"/>
<polygon fill="#63b8ff" stroke="#63b8ff" points="2720.96,-27.69 2729.17,-21 2718.58,-21.11 2720.96,-27.69"/>
</a>
</g>
</g>
<!-- Node40&#45;&gt;Node3 -->
<g id="edge52_Node000040_Node000003" class="edge">
<title>Node40&#45;&gt;Node3</title>
<g id="a_edge52_Node000040_Node000003"><a xlink:title=" ">
<path fill="none" stroke="#63b8ff" d="M2547.36,-132.38C2574.22,-154.43 2624.1,-210.27 2592.75,-244 2554.49,-285.17 2164.61,-289.06 2021.74,-289.15"/>
<polygon fill="#63b8ff" stroke="#63b8ff" points="2021.81,-285.65 2011.81,-289.14 2021.81,-292.65 2021.81,-285.65"/>
</a>
</g>
</g>
<!-- Node40&#45;&gt;Node39 -->
<g id="edge53_Node000040_Node000039" class="edge">
<title>Node40&#45;&gt;Node39</title>
<g id="a_edge53_Node000040_Node000039"><a xlink:title=" ">
<path fill="none" stroke="#63b8ff" d="M2545.81,-111.59C2556.72,-103.74 2572.5,-92.38 2585.41,-83.09"/>
<polygon fill="#63b8ff" stroke="#63b8ff" points="2587.29,-86.05 2593.36,-77.36 2583.2,-80.37 2587.29,-86.05"/>
</a>
</g>
</g>
</g>
</svg>
