<?xml version="1.0" encoding="UTF-8" standalone="no"?>
<!DOCTYPE svg PUBLIC "-//W3C//DTD SVG 1.1//EN"
 "http://www.w3.org/Graphics/SVG/1.1/DTD/svg11.dtd">
<!-- Generated by graphviz version 9.0.0 (20230911.1827)
 -->
<!-- Title: src/DirectXManager.h Pages: 1 -->
<svg width="2947pt" height="308pt"
 viewBox="0.00 0.00 2946.93 308.00" xmlns="http://www.w3.org/2000/svg" xmlns:xlink="http://www.w3.org/1999/xlink">
<g id="graph0" class="graph" transform="scale(1 1) rotate(0) translate(4 304)">
<title>src/DirectXManager.h</title>
<!-- Node1 -->
<g id="Node000001" class="node">
<title>Node1</title>
<g id="a_Node000001"><a xlink:title=" ">
<polygon fill="#999999" stroke="#666666" points="2754.38,-300 2645.38,-300 2645.38,-280 2754.38,-280 2754.38,-300"/>
<text text-anchor="middle" x="2699.88" y="-286.5" font-family="Helvetica,sans-Serif" font-size="10.00">src/DirectXManager.h</text>
</a>
</g>
</g>
<!-- Node2 -->
<g id="Node000002" class="node">
<title>Node2</title>
<g id="a_Node000002"><a xlink:href="_game_engine_8h.html" target="_top" xlink:title=" ">
<polygon fill="white" stroke="#666666" points="1619.12,-188 1538.62,-188 1538.62,-168 1619.12,-168 1619.12,-188"/>
<text text-anchor="middle" x="1578.88" y="-174.5" font-family="Helvetica,sans-Serif" font-size="10.00">GameEngine.h</text>
</a>
</g>
</g>
<!-- Node1&#45;&gt;Node2 -->
<g id="edge1_Node000001_Node000002" class="edge">
<title>Node1&#45;&gt;Node2</title>
<g id="a_edge1_Node000001_Node000002"><a xlink:title=" ">
<path fill="none" stroke="#63b8ff" d="M2644.95,-285.03C2548.9,-277.57 2344.7,-260.72 2172.88,-244 1972.06,-224.46 1734.04,-197.75 1630.78,-185.56"/>
<polygon fill="#63b8ff" stroke="#63b8ff" points="1631.3,-182.09 1620.96,-184.39 1630.48,-189.05 1631.3,-182.09"/>
</a>
</g>
</g>
<!-- Node31 -->
<g id="Node000031" class="node">
<title>Node31</title>
<g id="a_Node000031"><a xlink:href="_camera_8h.html" target="_top" xlink:title=" ">
<polygon fill="white" stroke="#666666" points="2728.88,-132 2670.88,-132 2670.88,-112 2728.88,-112 2728.88,-132"/>
<text text-anchor="middle" x="2699.88" y="-118.5" font-family="Helvetica,sans-Serif" font-size="10.00">Camera.h</text>
</a>
</g>
</g>
<!-- Node1&#45;&gt;Node31 -->
<g id="edge51_Node000001_Node000031" class="edge">
<title>Node1&#45;&gt;Node31</title>
<g id="a_edge51_Node000001_Node000031"><a xlink:title=" ">
<path fill="none" stroke="#63b8ff" d="M2699.88,-279.6C2699.88,-253.46 2699.88,-179.48 2699.88,-143.36"/>
<polygon fill="#63b8ff" stroke="#63b8ff" points="2703.38,-143.81 2699.88,-133.81 2696.38,-143.81 2703.38,-143.81"/>
</a>
</g>
</g>
<!-- Node32 -->
<g id="Node000032" class="node">
<title>Node32</title>
<g id="a_Node000032"><a xlink:href="_graphics_device_8h.html" target="_top" xlink:title=" ">
<polygon fill="white" stroke="#666666" points="1679.75,-76 1588,-76 1588,-56 1679.75,-56 1679.75,-76"/>
<text text-anchor="middle" x="1633.88" y="-62.5" font-family="Helvetica,sans-Serif" font-size="10.00">GraphicsDevice.h</text>
</a>
</g>
</g>
<!-- Node1&#45;&gt;Node32 -->
<g id="edge52_Node000001_Node000032" class="edge">
<title>Node1&#45;&gt;Node32</title>
<g id="a_edge52_Node000001_Node000032"><a xlink:title=" ">
<path fill="none" stroke="#63b8ff" d="M2713.42,-279.55C2752.35,-251.33 2858.45,-166.29 2805.88,-112 2764.25,-69.01 1822.54,-81.05 1691.29,-75.68"/>
<polygon fill="#63b8ff" stroke="#63b8ff" points="1691.74,-72.2 1681.54,-75.09 1691.31,-79.19 1691.74,-72.2"/>
</a>
</g>
</g>
<!-- Node33 -->
<g id="Node000033" class="node">
<title>Node33</title>
<g id="a_Node000033"><a xlink:href="_material_8h.html" target="_top" xlink:title=" ">
<polygon fill="white" stroke="#666666" points="1756.25,-76 1697.5,-76 1697.5,-56 1756.25,-56 1756.25,-76"/>
<text text-anchor="middle" x="1726.88" y="-62.5" font-family="Helvetica,sans-Serif" font-size="10.00">Material.h</text>
</a>
</g>
</g>
<!-- Node1&#45;&gt;Node33 -->
<g id="edge58_Node000001_Node000033" class="edge">
<title>Node1&#45;&gt;Node33</title>
<g id="a_edge58_Node000001_Node000033"><a xlink:title=" ">
<path fill="none" stroke="#63b8ff" d="M2754.7,-286.25C2784.76,-281.59 2819.7,-270.36 2838.88,-244 2873.38,-196.56 2879.51,-154.31 2838.88,-112 2801.09,-72.65 1964.22,-67.71 1767.85,-67.09"/>
<polygon fill="#63b8ff" stroke="#63b8ff" points="1768.15,-63.59 1758.14,-67.06 1768.13,-70.59 1768.15,-63.59"/>
</a>
</g>
</g>
<!-- Node34 -->
<g id="Node000034" class="node">
<title>Node34</title>
<g id="a_Node000034"><a xlink:href="_shader_program_8h.html" target="_top" xlink:title=" ">
<polygon fill="white" stroke="#666666" points="970.75,-20 879,-20 879,0 970.75,0 970.75,-20"/>
<text text-anchor="middle" x="924.88" y="-6.5" font-family="Helvetica,sans-Serif" font-size="10.00">ShaderProgram.h</text>
</a>
</g>
</g>
<!-- Node1&#45;&gt;Node34 -->
<g id="edge55_Node000001_Node000034" class="edge">
<title>Node1&#45;&gt;Node34</title>
<g id="a_edge55_Node000001_Node000034"><a xlink:title=" ">
<path fill="none" stroke="#63b8ff" d="M2754.8,-282.63C2814.31,-272.32 2900.88,-245.83 2900.88,-179 2900.88,-179 2900.88,-179 2900.88,-121 2900.88,-71.63 1307.13,-22.22 982.27,-12.66"/>
<polygon fill="#63b8ff" stroke="#63b8ff" points="982.42,-9.16 972.32,-12.36 982.22,-16.16 982.42,-9.16"/>
</a>
</g>
</g>
<!-- Node35 -->
<g id="Node000035" class="node">
<title>Node35</title>
<g id="a_Node000035"><a xlink:href="_render_state_8h.html" target="_top" xlink:title=" ">
<polygon fill="white" stroke="#666666" points="1678,-20 1599.75,-20 1599.75,0 1678,0 1678,-20"/>
<text text-anchor="middle" x="1638.88" y="-6.5" font-family="Helvetica,sans-Serif" font-size="10.00">RenderState.h</text>
</a>
</g>
</g>
<!-- Node1&#45;&gt;Node35 -->
<g id="edge54_Node000001_Node000035" class="edge">
<title>Node1&#45;&gt;Node35</title>
<g id="a_edge54_Node000001_Node000035"><a xlink:title=" ">
<path fill="none" stroke="#63b8ff" d="M2754.81,-283.57C2810.36,-277.03 2891.3,-264.33 2914.88,-244 2938.19,-223.89 2938.88,-209.8 2938.88,-179 2938.88,-179 2938.88,-179 2938.88,-121 2938.88,-90.2 2939.83,-74.05 2914.88,-56 2864.48,-19.55 1921.4,-12.42 1689.88,-11.22"/>
<polygon fill="#63b8ff" stroke="#63b8ff" points="1689.98,-7.72 1679.97,-11.17 1689.95,-14.72 1689.98,-7.72"/>
</a>
</g>
</g>
<!-- Node36 -->
<g id="Node000036" class="node">
<title>Node36</title>
<g id="a_Node000036"><a xlink:href="_mesh_8h.html" target="_top" xlink:title=" ">
<polygon fill="white" stroke="#666666" points="2535,-132 2486.75,-132 2486.75,-112 2535,-112 2535,-132"/>
<text text-anchor="middle" x="2510.88" y="-118.5" font-family="Helvetica,sans-Serif" font-size="10.00">Mesh.h</text>
</a>
</g>
</g>
<!-- Node1&#45;&gt;Node36 -->
<g id="edge53_Node000001_Node000036" class="edge">
<title>Node1&#45;&gt;Node36</title>
<g id="a_edge53_Node000001_Node000036"><a xlink:title=" ">
<path fill="none" stroke="#63b8ff" d="M2689.17,-279.6C2658.37,-252.55 2569.23,-174.26 2529.9,-139.71"/>
<polygon fill="#63b8ff" stroke="#63b8ff" points="2532.42,-137.27 2522.6,-133.3 2527.8,-142.53 2532.42,-137.27"/>
</a>
</g>
</g>
<!-- Node37 -->
<g id="Node000037" class="node">
<title>Node37</title>
<g id="a_Node000037"><a xlink:href="_model_8h.html" target="_top" xlink:title=" ">
<polygon fill="white" stroke="#666666" points="2797.12,-132 2746.62,-132 2746.62,-112 2797.12,-112 2797.12,-132"/>
<text text-anchor="middle" x="2771.88" y="-118.5" font-family="Helvetica,sans-Serif" font-size="10.00">Model.h</text>
</a>
</g>
</g>
<!-- Node1&#45;&gt;Node37 -->
<g id="edge59_Node000001_Node000037" class="edge">
<title>Node1&#45;&gt;Node37</title>
<g id="a_edge59_Node000001_Node000037"><a xlink:title=" ">
<path fill="none" stroke="#63b8ff" d="M2703.95,-279.6C2715.39,-253.23 2747.94,-178.19 2763.45,-142.42"/>
<polygon fill="#63b8ff" stroke="#63b8ff" points="2766.47,-144.25 2767.24,-133.69 2760.05,-141.47 2766.47,-144.25"/>
</a>
</g>
</g>
<!-- Node38 -->
<g id="Node000038" class="node">
<title>Node38</title>
<g id="a_Node000038"><a xlink:href="_shader_manager_8h.html" target="_top" xlink:title=" ">
<polygon fill="white" stroke="#666666" points="2283.12,-244 2190.62,-244 2190.62,-224 2283.12,-224 2283.12,-244"/>
<text text-anchor="middle" x="2236.88" y="-230.5" font-family="Helvetica,sans-Serif" font-size="10.00">ShaderManager.h</text>
</a>
</g>
</g>
<!-- Node1&#45;&gt;Node38 -->
<g id="edge56_Node000001_Node000038" class="edge">
<title>Node1&#45;&gt;Node38</title>
<g id="a_edge56_Node000001_Node000038"><a xlink:title=" ">
<path fill="none" stroke="#63b8ff" d="M2644.94,-282.59C2556.82,-272.32 2384.67,-252.24 2294.73,-241.75"/>
<polygon fill="#63b8ff" stroke="#63b8ff" points="2295.23,-238.28 2284.89,-240.6 2294.42,-245.24 2295.23,-238.28"/>
</a>
</g>
</g>
<!-- Node2&#45;&gt;Node1 -->
<g id="edge32_Node000002_Node000001" class="edge">
<title>Node2&#45;&gt;Node1</title>
<g id="a_edge32_Node000002_Node000001"><a xlink:title=" ">
<path fill="none" stroke="#63b8ff" d="M1619.57,-183.18C1717.97,-193.92 1975.78,-223.07 2190.88,-244 2349.73,-259.46 2536.25,-275.03 2633.48,-283.18"/>
<polygon fill="#63b8ff" stroke="#63b8ff" points="2633.12,-286.67 2643.38,-284.01 2633.71,-279.69 2633.12,-286.67"/>
</a>
</g>
</g>
<!-- Node3 -->
<g id="Node000003" class="node">
<title>Node3</title>
<g id="a_Node000003"><a xlink:title=" ">
<polygon fill="#e0e0e0" stroke="#999999" points="341.75,-132 262,-132 262,-112 341.75,-112 341.75,-132"/>
<text text-anchor="middle" x="301.88" y="-118.5" font-family="Helvetica,sans-Serif" font-size="10.00">SDKDDKVer.h</text>
</a>
</g>
</g>
<!-- Node2&#45;&gt;Node3 -->
<g id="edge2_Node000002_Node000003" class="edge">
<title>Node2&#45;&gt;Node3</title>
<g id="a_edge2_Node000002_Node000003"><a xlink:title=" ">
<path fill="none" stroke="#63b8ff" d="M1538.14,-176.32C1355.51,-173.17 610.22,-158.95 353.27,-132.2"/>
<polygon fill="#63b8ff" stroke="#63b8ff" points="353.96,-128.76 343.65,-131.16 353.21,-135.71 353.96,-128.76"/>
</a>
</g>
</g>
<!-- Node4 -->
<g id="Node000004" class="node">
<title>Node4</title>
<g id="a_Node000004"><a xlink:title=" ">
<polygon fill="#e0e0e0" stroke="#999999" points="420.38,-132 359.38,-132 359.38,-112 420.38,-112 420.38,-132"/>
<text text-anchor="middle" x="389.88" y="-118.5" font-family="Helvetica,sans-Serif" font-size="10.00">windows.h</text>
</a>
</g>
</g>
<!-- Node2&#45;&gt;Node4 -->
<g id="edge3_Node000002_Node000004" class="edge">
<title>Node2&#45;&gt;Node4</title>
<g id="a_edge3_Node000002_Node000004"><a xlink:title=" ">
<path fill="none" stroke="#63b8ff" d="M1538.38,-176.44C1363.59,-173.84 672.14,-161.96 431.95,-132.14"/>
<polygon fill="#63b8ff" stroke="#63b8ff" points="432.73,-128.71 422.36,-130.9 431.83,-135.65 432.73,-128.71"/>
</a>
</g>
</g>
<!-- Node5 -->
<g id="Node000005" class="node">
<title>Node5</title>
<g id="a_Node000005"><a xlink:title=" ">
<polygon fill="#e0e0e0" stroke="#999999" points="485.62,-132 438.12,-132 438.12,-112 485.62,-112 485.62,-132"/>
<text text-anchor="middle" x="461.88" y="-118.5" font-family="Helvetica,sans-Serif" font-size="10.00">stdlib.h</text>
</a>
</g>
</g>
<!-- Node2&#45;&gt;Node5 -->
<g id="edge4_Node000002_Node000005" class="edge">
<title>Node2&#45;&gt;Node5</title>
<g id="a_edge4_Node000002_Node000005"><a xlink:title=" ">
<path fill="none" stroke="#63b8ff" d="M1538.39,-176.54C1370.02,-174.42 723.79,-164.44 497.01,-131.89"/>
<polygon fill="#63b8ff" stroke="#63b8ff" points="497.8,-128.47 487.39,-130.44 496.76,-135.39 497.8,-128.47"/>
</a>
</g>
</g>
<!-- Node6 -->
<g id="Node000006" class="node">
<title>Node6</title>
<g id="a_Node000006"><a xlink:title=" ">
<polygon fill="#e0e0e0" stroke="#999999" points="556.25,-132 503.5,-132 503.5,-112 556.25,-112 556.25,-132"/>
<text text-anchor="middle" x="529.88" y="-118.5" font-family="Helvetica,sans-Serif" font-size="10.00">malloc.h</text>
</a>
</g>
</g>
<!-- Node2&#45;&gt;Node6 -->
<g id="edge5_Node000002_Node000006" class="edge">
<title>Node2&#45;&gt;Node6</title>
<g id="a_edge5_Node000002_Node000006"><a xlink:title=" ">
<path fill="none" stroke="#63b8ff" d="M1538.28,-176.32C1376.89,-173.46 779.7,-161.19 567.81,-132.08"/>
<polygon fill="#63b8ff" stroke="#63b8ff" points="568.41,-128.63 558.01,-130.67 567.41,-135.56 568.41,-128.63"/>
</a>
</g>
</g>
<!-- Node7 -->
<g id="Node000007" class="node">
<title>Node7</title>
<g id="a_Node000007"><a xlink:title=" ">
<polygon fill="#e0e0e0" stroke="#999999" points="633.62,-132 574.12,-132 574.12,-112 633.62,-112 633.62,-132"/>
<text text-anchor="middle" x="603.88" y="-118.5" font-family="Helvetica,sans-Serif" font-size="10.00">memory.h</text>
</a>
</g>
</g>
<!-- Node2&#45;&gt;Node7 -->
<g id="edge6_Node000002_Node000007" class="edge">
<title>Node2&#45;&gt;Node7</title>
<g id="a_edge6_Node000002_Node000007"><a xlink:title=" ">
<path fill="none" stroke="#63b8ff" d="M1538.27,-176.01C1385.12,-172.15 841.65,-157.08 645.32,-132.02"/>
<polygon fill="#63b8ff" stroke="#63b8ff" points="645.88,-128.57 635.51,-130.71 644.96,-135.51 645.88,-128.57"/>
</a>
</g>
</g>
<!-- Node8 -->
<g id="Node000008" class="node">
<title>Node8</title>
<g id="a_Node000008"><a xlink:title=" ">
<polygon fill="#e0e0e0" stroke="#999999" points="697.88,-132 651.88,-132 651.88,-112 697.88,-112 697.88,-132"/>
<text text-anchor="middle" x="674.88" y="-118.5" font-family="Helvetica,sans-Serif" font-size="10.00">tchar.h</text>
</a>
</g>
</g>
<!-- Node2&#45;&gt;Node8 -->
<g id="edge7_Node000002_Node000008" class="edge">
<title>Node2&#45;&gt;Node8</title>
<g id="a_edge7_Node000002_Node000008"><a xlink:title=" ">
<path fill="none" stroke="#63b8ff" d="M1538.23,-176.1C1391.94,-172.69 891.73,-159.4 709.44,-131.98"/>
<polygon fill="#63b8ff" stroke="#63b8ff" points="710.08,-128.54 699.65,-130.43 708.98,-135.45 710.08,-128.54"/>
</a>
</g>
</g>
<!-- Node9 -->
<g id="Node000009" class="node">
<title>Node9</title>
<g id="a_Node000009"><a xlink:title=" ">
<polygon fill="#e0e0e0" stroke="#999999" points="777.75,-132 716,-132 716,-112 777.75,-112 777.75,-132"/>
<text text-anchor="middle" x="746.88" y="-118.5" font-family="Helvetica,sans-Serif" font-size="10.00">resource.h</text>
</a>
</g>
</g>
<!-- Node2&#45;&gt;Node9 -->
<g id="edge8_Node000002_Node000009" class="edge">
<title>Node2&#45;&gt;Node9</title>
<g id="a_edge8_Node000002_Node000009"><a xlink:title=" ">
<path fill="none" stroke="#63b8ff" d="M1538.26,-177.04C1422.58,-176.67 1081.43,-172.1 789.47,-132.13"/>
<polygon fill="#63b8ff" stroke="#63b8ff" points="790.11,-128.68 779.73,-130.77 789.15,-135.62 790.11,-128.68"/>
</a>
</g>
</g>
<!-- Node10 -->
<g id="Node000010" class="node">
<title>Node10</title>
<g id="a_Node000010"><a xlink:title=" ">
<polygon fill="#e0e0e0" stroke="#999999" points="841.5,-132 796.25,-132 796.25,-112 841.5,-112 841.5,-132"/>
<text text-anchor="middle" x="818.88" y="-118.5" font-family="Helvetica,sans-Serif" font-size="10.00">chrono</text>
</a>
</g>
</g>
<!-- Node2&#45;&gt;Node10 -->
<g id="edge9_Node000002_Node000010" class="edge">
<title>Node2&#45;&gt;Node10</title>
<g id="a_edge9_Node000002_Node000010"><a xlink:title=" ">
<path fill="none" stroke="#63b8ff" d="M1538.21,-177.62C1428.56,-178.62 1117.76,-177.1 852.76,-132.15"/>
<polygon fill="#63b8ff" stroke="#63b8ff" points="853.71,-128.76 843.26,-130.51 852.52,-135.66 853.71,-128.76"/>
</a>
</g>
</g>
<!-- Node11 -->
<g id="Node000011" class="node">
<title>Node11</title>
<g id="a_Node000011"><a xlink:title=" ">
<polygon fill="#e0e0e0" stroke="#999999" points="900.62,-132 859.12,-132 859.12,-112 900.62,-112 900.62,-132"/>
<text text-anchor="middle" x="879.88" y="-118.5" font-family="Helvetica,sans-Serif" font-size="10.00">vector</text>
</a>
</g>
</g>
<!-- Node2&#45;&gt;Node11 -->
<g id="edge10_Node000002_Node000011" class="edge">
<title>Node2&#45;&gt;Node11</title>
<g id="a_edge10_Node000002_Node000011"><a xlink:title=" ">
<path fill="none" stroke="#63b8ff" d="M1538.14,-177.42C1434.72,-177.82 1153.65,-174.71 912.14,-131.99"/>
<polygon fill="#63b8ff" stroke="#63b8ff" points="912.99,-128.58 902.53,-130.26 911.75,-135.47 912.99,-128.58"/>
</a>
</g>
</g>
<!-- Node12 -->
<g id="Node000012" class="node">
<title>Node12</title>
<g id="a_Node000012"><a xlink:title=" ">
<polygon fill="#e0e0e0" stroke="#999999" points="972.62,-132 919.12,-132 919.12,-112 972.62,-112 972.62,-132"/>
<text text-anchor="middle" x="945.88" y="-118.5" font-family="Helvetica,sans-Serif" font-size="10.00">iostream</text>
</a>
</g>
</g>
<!-- Node2&#45;&gt;Node12 -->
<g id="edge11_Node000002_Node000012" class="edge">
<title>Node2&#45;&gt;Node12</title>
<g id="a_edge11_Node000002_Node000012"><a xlink:title=" ">
<path fill="none" stroke="#63b8ff" d="M1538.42,-176.31C1443.3,-174.2 1197.98,-165.81 984.03,-132.06"/>
<polygon fill="#63b8ff" stroke="#63b8ff" points="984.82,-128.64 974.39,-130.52 983.71,-135.56 984.82,-128.64"/>
</a>
</g>
</g>
<!-- Node13 -->
<g id="Node000013" class="node">
<title>Node13</title>
<g id="a_Node000013"><a xlink:title=" ">
<polygon fill="#e0e0e0" stroke="#999999" points="1039,-132 990.75,-132 990.75,-112 1039,-112 1039,-132"/>
<text text-anchor="middle" x="1014.88" y="-118.5" font-family="Helvetica,sans-Serif" font-size="10.00">fstream</text>
</a>
</g>
</g>
<!-- Node2&#45;&gt;Node13 -->
<g id="edge12_Node000002_Node000013" class="edge">
<title>Node2&#45;&gt;Node13</title>
<g id="a_edge12_Node000002_Node000013"><a xlink:title=" ">
<path fill="none" stroke="#63b8ff" d="M1538.25,-176.07C1450.66,-173.53 1237.48,-164.45 1050.42,-132.14"/>
<polygon fill="#63b8ff" stroke="#63b8ff" points="1051.22,-128.73 1040.76,-130.45 1050.01,-135.62 1051.22,-128.73"/>
</a>
</g>
</g>
<!-- Node14 -->
<g id="Node000014" class="node">
<title>Node14</title>
<g id="a_Node000014"><a xlink:title=" ">
<polygon fill="#e0e0e0" stroke="#999999" points="1117,-132 1056.75,-132 1056.75,-112 1117,-112 1117,-132"/>
<text text-anchor="middle" x="1086.88" y="-118.5" font-family="Helvetica,sans-Serif" font-size="10.00">filesystem</text>
</a>
</g>
</g>
<!-- Node2&#45;&gt;Node14 -->
<g id="edge13_Node000002_Node000014" class="edge">
<title>Node2&#45;&gt;Node14</title>
<g id="a_edge13_Node000002_Node000014"><a xlink:title=" ">
<path fill="none" stroke="#63b8ff" d="M1538.35,-174.72C1460.7,-169.97 1285.44,-157.44 1128.71,-132.28"/>
<polygon fill="#63b8ff" stroke="#63b8ff" points="1129.38,-128.84 1118.95,-130.69 1128.26,-135.75 1129.38,-128.84"/>
</a>
</g>
</g>
<!-- Node15 -->
<g id="Node000015" class="node">
<title>Node15</title>
<g id="a_Node000015"><a xlink:title=" ">
<polygon fill="#e0e0e0" stroke="#999999" points="1186.5,-132 1135.25,-132 1135.25,-112 1186.5,-112 1186.5,-132"/>
<text text-anchor="middle" x="1160.88" y="-118.5" font-family="Helvetica,sans-Serif" font-size="10.00">sstream</text>
</a>
</g>
</g>
<!-- Node2&#45;&gt;Node15 -->
<g id="edge14_Node000002_Node000015" class="edge">
<title>Node2&#45;&gt;Node15</title>
<g id="a_edge14_Node000002_Node000015"><a xlink:title=" ">
<path fill="none" stroke="#63b8ff" d="M1538.35,-174.04C1470.15,-168.68 1327.96,-155.82 1198.1,-132.17"/>
<polygon fill="#63b8ff" stroke="#63b8ff" points="1198.74,-128.73 1188.27,-130.35 1197.47,-135.61 1198.74,-128.73"/>
</a>
</g>
</g>
<!-- Node16 -->
<g id="Node000016" class="node">
<title>Node16</title>
<g id="a_Node000016"><a xlink:title=" ">
<polygon fill="#e0e0e0" stroke="#999999" points="1287.25,-132 1204.5,-132 1204.5,-112 1287.25,-112 1287.25,-132"/>
<text text-anchor="middle" x="1245.88" y="-118.5" font-family="Helvetica,sans-Serif" font-size="10.00">unordered_map</text>
</a>
</g>
</g>
<!-- Node2&#45;&gt;Node16 -->
<g id="edge15_Node000002_Node000016" class="edge">
<title>Node2&#45;&gt;Node16</title>
<g id="a_edge15_Node000002_Node000016"><a xlink:title=" ">
<path fill="none" stroke="#63b8ff" d="M1538.21,-170.73C1485.51,-162.55 1390.48,-147.64 1298.78,-132.3"/>
<polygon fill="#63b8ff" stroke="#63b8ff" points="1299.55,-128.88 1289.11,-130.67 1298.39,-135.78 1299.55,-128.88"/>
</a>
</g>
</g>
<!-- Node17 -->
<g id="Node000017" class="node">
<title>Node17</title>
<g id="a_Node000017"><a xlink:title=" ">
<polygon fill="#e0e0e0" stroke="#999999" points="1410.12,-132 1305.62,-132 1305.62,-112 1410.12,-112 1410.12,-132"/>
<text text-anchor="middle" x="1357.88" y="-118.5" font-family="Helvetica,sans-Serif" font-size="10.00">assimp/Importer.hpp</text>
</a>
</g>
</g>
<!-- Node2&#45;&gt;Node17 -->
<g id="edge16_Node000002_Node000017" class="edge">
<title>Node2&#45;&gt;Node17</title>
<g id="a_edge16_Node000002_Node000017"><a xlink:title=" ">
<path fill="none" stroke="#63b8ff" d="M1540.13,-167.53C1503.32,-158.54 1447.79,-144.97 1407.71,-135.18"/>
<polygon fill="#63b8ff" stroke="#63b8ff" points="1408.59,-131.79 1398.05,-132.82 1406.93,-138.59 1408.59,-131.79"/>
</a>
</g>
</g>
<!-- Node18 -->
<g id="Node000018" class="node">
<title>Node18</title>
<g id="a_Node000018"><a xlink:title=" ">
<polygon fill="#e0e0e0" stroke="#999999" points="1513.38,-132 1428.38,-132 1428.38,-112 1513.38,-112 1513.38,-132"/>
<text text-anchor="middle" x="1470.88" y="-118.5" font-family="Helvetica,sans-Serif" font-size="10.00">assimp/scene.h</text>
</a>
</g>
</g>
<!-- Node2&#45;&gt;Node18 -->
<g id="edge17_Node000002_Node000018" class="edge">
<title>Node2&#45;&gt;Node18</title>
<g id="a_edge17_Node000002_Node000018"><a xlink:title=" ">
<path fill="none" stroke="#63b8ff" d="M1560.06,-167.59C1543.52,-159.32 1519.16,-147.14 1500.08,-137.6"/>
<polygon fill="#63b8ff" stroke="#63b8ff" points="1501.7,-134.5 1491.19,-133.16 1498.57,-140.76 1501.7,-134.5"/>
</a>
</g>
</g>
<!-- Node19 -->
<g id="Node000019" class="node">
<title>Node19</title>
<g id="a_Node000019"><a xlink:title=" ">
<polygon fill="#e0e0e0" stroke="#999999" points="1811.88,-132 1699.88,-132 1699.88,-112 1811.88,-112 1811.88,-132"/>
<text text-anchor="middle" x="1755.88" y="-118.5" font-family="Helvetica,sans-Serif" font-size="10.00">assimp/postprocess.h</text>
</a>
</g>
</g>
<!-- Node2&#45;&gt;Node19 -->
<g id="edge18_Node000002_Node000019" class="edge">
<title>Node2&#45;&gt;Node19</title>
<g id="a_edge18_Node000002_Node000019"><a xlink:title=" ">
<path fill="none" stroke="#63b8ff" d="M1609.71,-167.59C1638.59,-158.78 1681.99,-145.54 1714,-135.78"/>
<polygon fill="#63b8ff" stroke="#63b8ff" points="1714.81,-139.19 1723.36,-132.92 1712.77,-132.49 1714.81,-139.19"/>
</a>
</g>
</g>
<!-- Node20 -->
<g id="Node000020" class="node">
<title>Node20</title>
<g id="a_Node000020"><a xlink:title=" ">
<polygon fill="#e0e0e0" stroke="#999999" points="1975.38,-132 1830.38,-132 1830.38,-112 1975.38,-112 1975.38,-132"/>
<text text-anchor="middle" x="1902.88" y="-118.5" font-family="Helvetica,sans-Serif" font-size="10.00">directxtk\WICTextureLoader.h</text>
</a>
</g>
</g>
<!-- Node2&#45;&gt;Node20 -->
<g id="edge19_Node000002_Node000020" class="edge">
<title>Node2&#45;&gt;Node20</title>
<g id="a_edge19_Node000002_Node000020"><a xlink:title=" ">
<path fill="none" stroke="#63b8ff" d="M1619.58,-170.22C1673.65,-161.2 1769.88,-145.17 1835.02,-134.31"/>
<polygon fill="#63b8ff" stroke="#63b8ff" points="1835.22,-137.82 1844.5,-132.73 1834.06,-130.92 1835.22,-137.82"/>
</a>
</g>
</g>
<!-- Node21 -->
<g id="Node000021" class="node">
<title>Node21</title>
<g id="a_Node000021"><a xlink:title=" ">
<polygon fill="#e0e0e0" stroke="#999999" points="2058.25,-132 1993.5,-132 1993.5,-112 2058.25,-112 2058.25,-132"/>
<text text-anchor="middle" x="2025.88" y="-118.5" font-family="Helvetica,sans-Serif" font-size="10.00">wincodec.h</text>
</a>
</g>
</g>
<!-- Node2&#45;&gt;Node21 -->
<g id="edge20_Node000002_Node000021" class="edge">
<title>Node2&#45;&gt;Node21</title>
<g id="a_edge20_Node000002_Node000021"><a xlink:title=" ">
<path fill="none" stroke="#63b8ff" d="M1619.41,-173.94C1690.75,-168.23 1843.58,-154.64 1982.05,-132.32"/>
<polygon fill="#63b8ff" stroke="#63b8ff" points="1982.46,-135.8 1991.77,-130.73 1981.33,-128.89 1982.46,-135.8"/>
</a>
</g>
</g>
<!-- Node22 -->
<g id="Node000022" class="node">
<title>Node22</title>
<g id="a_Node000022"><a xlink:title=" ">
<polygon fill="#e0e0e0" stroke="#999999" points="2133.88,-132 2075.88,-132 2075.88,-112 2133.88,-112 2133.88,-132"/>
<text text-anchor="middle" x="2104.88" y="-118.5" font-family="Helvetica,sans-Serif" font-size="10.00">lodepng.h</text>
</a>
</g>
</g>
<!-- Node2&#45;&gt;Node22 -->
<g id="edge21_Node000002_Node000022" class="edge">
<title>Node2&#45;&gt;Node22</title>
<g id="a_edge21_Node000002_Node000022"><a xlink:title=" ">
<path fill="none" stroke="#63b8ff" d="M1619.61,-175.18C1701.87,-171.1 1893.82,-159.45 2064.3,-132.21"/>
<polygon fill="#63b8ff" stroke="#63b8ff" points="2064.69,-135.69 2074,-130.63 2063.57,-128.78 2064.69,-135.69"/>
</a>
</g>
</g>
<!-- Node23 -->
<g id="Node000023" class="node">
<title>Node23</title>
<g id="a_Node000023"><a xlink:title=" ">
<polygon fill="#e0e0e0" stroke="#999999" points="2202.12,-132 2151.62,-132 2151.62,-112 2202.12,-112 2202.12,-132"/>
<text text-anchor="middle" x="2176.88" y="-118.5" font-family="Helvetica,sans-Serif" font-size="10.00">d3d11.h</text>
</a>
</g>
</g>
<!-- Node2&#45;&gt;Node23 -->
<g id="edge22_Node000002_Node000023" class="edge">
<title>Node2&#45;&gt;Node23</title>
<g id="a_edge22_Node000002_Node000023"><a xlink:title=" ">
<path fill="none" stroke="#63b8ff" d="M1619.53,-176.25C1711.01,-174.02 1940.03,-165.49 2140.05,-132.19"/>
<polygon fill="#63b8ff" stroke="#63b8ff" points="2140.6,-135.65 2149.87,-130.53 2139.43,-128.75 2140.6,-135.65"/>
</a>
</g>
</g>
<!-- Node24 -->
<g id="Node000024" class="node">
<title>Node24</title>
<g id="a_Node000024"><a xlink:title=" ">
<polygon fill="#e0e0e0" stroke="#999999" points="2297.25,-132 2220.5,-132 2220.5,-112 2297.25,-112 2297.25,-132"/>
<text text-anchor="middle" x="2258.88" y="-118.5" font-family="Helvetica,sans-Serif" font-size="10.00">DirectXMath.h</text>
</a>
</g>
</g>
<!-- Node2&#45;&gt;Node24 -->
<g id="edge23_Node000002_Node000024" class="edge">
<title>Node2&#45;&gt;Node24</title>
<g id="a_edge23_Node000002_Node000024"><a xlink:title=" ">
<path fill="none" stroke="#63b8ff" d="M1619.33,-175.72C1718.18,-172.26 1979.97,-161.03 2208.94,-132.09"/>
<polygon fill="#63b8ff" stroke="#63b8ff" points="2209.19,-135.58 2218.66,-130.84 2208.3,-128.64 2209.19,-135.58"/>
</a>
</g>
</g>
<!-- Node25 -->
<g id="Node000025" class="node">
<title>Node25</title>
<g id="a_Node000025"><a xlink:title=" ">
<polygon fill="#e0e0e0" stroke="#999999" points="2394.75,-132 2315,-132 2315,-112 2394.75,-112 2394.75,-132"/>
<text text-anchor="middle" x="2354.88" y="-118.5" font-family="Helvetica,sans-Serif" font-size="10.00">D3Dcompiler.h</text>
</a>
</g>
</g>
<!-- Node2&#45;&gt;Node25 -->
<g id="edge24_Node000002_Node000025" class="edge">
<title>Node2&#45;&gt;Node25</title>
<g id="a_edge24_Node000002_Node000025"><a xlink:title=" ">
<path fill="none" stroke="#63b8ff" d="M1619.62,-176.19C1728.81,-173.65 2037.15,-164.09 2303.51,-132.14"/>
<polygon fill="#63b8ff" stroke="#63b8ff" points="2303.55,-135.66 2313.05,-130.98 2302.71,-128.71 2303.55,-135.66"/>
</a>
</g>
</g>
<!-- Node26 -->
<g id="Node000026" class="node">
<title>Node26</title>
<g id="a_Node000026"><a xlink:title=" ">
<polygon fill="#e0e0e0" stroke="#999999" points="2468.75,-132 2413,-132 2413,-112 2468.75,-112 2468.75,-132"/>
<text text-anchor="middle" x="2440.88" y="-118.5" font-family="Helvetica,sans-Serif" font-size="10.00">d2d1_2.h</text>
</a>
</g>
</g>
<!-- Node2&#45;&gt;Node26 -->
<g id="edge25_Node000002_Node000026" class="edge">
<title>Node2&#45;&gt;Node26</title>
<g id="a_edge25_Node000002_Node000026"><a xlink:title=" ">
<path fill="none" stroke="#63b8ff" d="M1619.49,-177.42C1738.42,-178.09 2096.28,-176.14 2401.41,-132.07"/>
<polygon fill="#63b8ff" stroke="#63b8ff" points="2401.81,-135.55 2411.2,-130.64 2400.8,-128.63 2401.81,-135.55"/>
</a>
</g>
</g>
<!-- Node27 -->
<g id="Node000027" class="node">
<title>Node27</title>
<g id="a_Node000027"><a xlink:title=" ">
<polygon fill="#e0e0e0" stroke="#999999" points="55.75,-132 0,-132 0,-112 55.75,-112 55.75,-132"/>
<text text-anchor="middle" x="27.88" y="-118.5" font-family="Helvetica,sans-Serif" font-size="10.00">d2d1_1.h</text>
</a>
</g>
</g>
<!-- Node2&#45;&gt;Node27 -->
<g id="edge26_Node000002_Node000027" class="edge">
<title>Node2&#45;&gt;Node27</title>
<g id="a_edge26_Node000002_Node000027"><a xlink:title=" ">
<path fill="none" stroke="#63b8ff" d="M1538.13,-176.94C1330.07,-176.46 384.01,-172.14 67.05,-131.94"/>
<polygon fill="#63b8ff" stroke="#63b8ff" points="67.91,-128.52 57.54,-130.69 67,-135.46 67.91,-128.52"/>
</a>
</g>
</g>
<!-- Node28 -->
<g id="Node000028" class="node">
<title>Node28</title>
<g id="a_Node000028"><a xlink:title=" ">
<polygon fill="#e0e0e0" stroke="#999999" points="119.5,-132 74.25,-132 74.25,-112 119.5,-112 119.5,-132"/>
<text text-anchor="middle" x="96.88" y="-118.5" font-family="Helvetica,sans-Serif" font-size="10.00">d2d1.h</text>
</a>
</g>
</g>
<!-- Node2&#45;&gt;Node28 -->
<g id="edge27_Node000002_Node000028" class="edge">
<title>Node2&#45;&gt;Node28</title>
<g id="a_edge27_Node000002_Node000028"><a xlink:title=" ">
<path fill="none" stroke="#63b8ff" d="M1538.15,-177.07C1335.48,-177.22 433.8,-175.49 130.76,-131.81"/>
<polygon fill="#63b8ff" stroke="#63b8ff" points="131.7,-128.41 121.3,-130.39 130.67,-135.33 131.7,-128.41"/>
</a>
</g>
</g>
<!-- Node29 -->
<g id="Node000029" class="node">
<title>Node29</title>
<g id="a_Node000029"><a xlink:title=" ">
<polygon fill="#e0e0e0" stroke="#999999" points="187.75,-132 138,-132 138,-112 187.75,-112 187.75,-132"/>
<text text-anchor="middle" x="162.88" y="-118.5" font-family="Helvetica,sans-Serif" font-size="10.00">dwrite.h</text>
</a>
</g>
</g>
<!-- Node2&#45;&gt;Node29 -->
<g id="edge28_Node000002_Node000029" class="edge">
<title>Node2&#45;&gt;Node29</title>
<g id="a_edge28_Node000002_Node000029"><a xlink:title=" ">
<path fill="none" stroke="#63b8ff" d="M1538.28,-176.74C1339.79,-175.28 470.18,-167.01 201.88,-132 200.88,-131.87 199.87,-131.73 198.86,-131.57"/>
<polygon fill="#63b8ff" stroke="#63b8ff" points="199.88,-128.2 189.41,-129.81 198.6,-135.08 199.88,-128.2"/>
</a>
</g>
</g>
<!-- Node30 -->
<g id="Node000030" class="node">
<title>Node30</title>
<g id="a_Node000030"><a xlink:href="_win32_application_8h.html" target="_top" xlink:title=" ">
<polygon fill="white" stroke="#666666" points="2652.88,-132 2552.88,-132 2552.88,-112 2652.88,-112 2652.88,-132"/>
<text text-anchor="middle" x="2602.88" y="-118.5" font-family="Helvetica,sans-Serif" font-size="10.00">Win32Application.h</text>
</a>
</g>
</g>
<!-- Node2&#45;&gt;Node30 -->
<g id="edge29_Node000002_Node000030" class="edge">
<title>Node2&#45;&gt;Node30</title>
<g id="a_edge29_Node000002_Node000030"><a xlink:title=" ">
<path fill="none" stroke="#63b8ff" d="M1619.35,-176.58C1751.46,-174.94 2181.06,-167.14 2534.88,-132 2536.91,-131.8 2538.99,-131.57 2541.09,-131.33"/>
<polygon fill="#63b8ff" stroke="#63b8ff" points="2541.47,-134.81 2550.95,-130.08 2540.59,-127.87 2541.47,-134.81"/>
</a>
</g>
</g>
<!-- Node2&#45;&gt;Node31 -->
<g id="edge33_Node000002_Node000031" class="edge">
<title>Node2&#45;&gt;Node31</title>
<g id="a_edge33_Node000002_Node000031"><a xlink:title=" ">
<path fill="none" stroke="#63b8ff" d="M1619.6,-176.29C1790.18,-173.29 2447,-160.39 2652.88,-132 2654.99,-131.71 2657.16,-131.35 2659.36,-130.95"/>
<polygon fill="#63b8ff" stroke="#63b8ff" points="2659.85,-134.42 2668.94,-128.98 2658.44,-127.57 2659.85,-134.42"/>
</a>
</g>
</g>
<!-- Node2&#45;&gt;Node32 -->
<g id="edge35_Node000002_Node000032" class="edge">
<title>Node2&#45;&gt;Node32</title>
<g id="a_edge35_Node000002_Node000032"><a xlink:title=" ">
<path fill="none" stroke="#63b8ff" d="M1579.58,-167.62C1585.39,-149.6 1604.86,-109.81 1619.11,-86.02"/>
<polygon fill="#63b8ff" stroke="#63b8ff" points="1622.03,-87.96 1624.41,-77.63 1616.11,-84.22 1622.03,-87.96"/>
</a>
</g>
</g>
<!-- Node2&#45;&gt;Node33 -->
<g id="edge37_Node000002_Node000033" class="edge">
<title>Node2&#45;&gt;Node33</title>
<g id="a_edge37_Node000002_Node000033"><a xlink:title=" ">
<path fill="none" stroke="#63b8ff" d="M1587.51,-167.62C1609.6,-148.71 1667.01,-105.82 1700.99,-82.61"/>
<polygon fill="#63b8ff" stroke="#63b8ff" points="1702.7,-85.68 1709.06,-77.2 1698.8,-79.86 1702.7,-85.68"/>
</a>
</g>
</g>
<!-- Node2&#45;&gt;Node34 -->
<g id="edge50_Node000002_Node000034" class="edge">
<title>Node2&#45;&gt;Node34</title>
<g id="a_edge50_Node000002_Node000034"><a xlink:title=" ">
<path fill="none" stroke="#63b8ff" d="M1538.15,-177.18C1319.07,-178 289.8,-179.51 243.88,-132 155.45,-40.52 687.81,-17.38 867.36,-12.29"/>
<polygon fill="#63b8ff" stroke="#63b8ff" points="867.25,-15.79 877.15,-12.02 867.06,-8.8 867.25,-15.79"/>
</a>
</g>
</g>
<!-- Node2&#45;&gt;Node35 -->
<g id="edge49_Node000002_Node000035" class="edge">
<title>Node2&#45;&gt;Node35</title>
<g id="a_edge49_Node000002_Node000035"><a xlink:title=" ">
<path fill="none" stroke="#63b8ff" d="M1571.47,-167.56C1561.65,-146.29 1551.09,-93.58 1569.88,-56 1576.26,-43.23 1588.19,-33.14 1600.45,-25.78"/>
<polygon fill="#63b8ff" stroke="#63b8ff" points="1601.79,-29.03 1608.91,-21.18 1598.46,-22.88 1601.79,-29.03"/>
</a>
</g>
</g>
<!-- Node2&#45;&gt;Node36 -->
<g id="edge43_Node000002_Node000036" class="edge">
<title>Node2&#45;&gt;Node36</title>
<g id="a_edge43_Node000002_Node000036"><a xlink:title=" ">
<path fill="none" stroke="#63b8ff" d="M1619.41,-176.06C1770.69,-172.5 2301.24,-158.73 2468.88,-132 2470.99,-131.66 2473.16,-131.24 2475.35,-130.77"/>
<polygon fill="#63b8ff" stroke="#63b8ff" points="2476.02,-134.21 2484.92,-128.46 2474.37,-127.41 2476.02,-134.21"/>
</a>
</g>
</g>
<!-- Node2&#45;&gt;Node37 -->
<g id="edge46_Node000002_Node000037" class="edge">
<title>Node2&#45;&gt;Node37</title>
<g id="a_edge46_Node000002_Node000037"><a xlink:title=" ">
<path fill="none" stroke="#63b8ff" d="M1619.35,-176.59C1796.98,-174.66 2507.58,-165.17 2728.88,-132 2730.87,-131.7 2732.92,-131.33 2734.99,-130.91"/>
<polygon fill="#63b8ff" stroke="#63b8ff" points="2735.72,-134.33 2744.68,-128.66 2734.14,-127.51 2735.72,-134.33"/>
</a>
</g>
</g>
<!-- Node30&#45;&gt;Node1 -->
<g id="edge31_Node000030_Node000001" class="edge">
<title>Node30&#45;&gt;Node1</title>
<g id="a_edge31_Node000030_Node000001"><a xlink:title=" ">
<path fill="none" stroke="#63b8ff" d="M2608.31,-132.3C2623.71,-158.65 2667.86,-234.22 2688.72,-269.9"/>
<polygon fill="#63b8ff" stroke="#63b8ff" points="2685.55,-271.42 2693.62,-278.29 2691.6,-267.89 2685.55,-271.42"/>
</a>
</g>
</g>
<!-- Node30&#45;&gt;Node2 -->
<g id="edge30_Node000030_Node000002" class="edge">
<title>Node30&#45;&gt;Node2</title>
<g id="a_edge30_Node000030_Node000002"><a xlink:title=" ">
<path fill="none" stroke="#63b8ff" d="M2552.61,-132.03C2201.67,-166.86 1776.29,-174.81 1630.6,-176.54"/>
<polygon fill="#63b8ff" stroke="#63b8ff" points="1630.85,-173.04 1620.9,-176.65 1630.93,-180.04 1630.85,-173.04"/>
</a>
</g>
</g>
<!-- Node31&#45;&gt;Node2 -->
<g id="edge34_Node000031_Node000002" class="edge">
<title>Node31&#45;&gt;Node2</title>
<g id="a_edge34_Node000031_Node000002"><a xlink:title=" ">
<path fill="none" stroke="#63b8ff" d="M2670.57,-132.04C2466.16,-160.15 1819.61,-173.06 1630.95,-176.21"/>
<polygon fill="#63b8ff" stroke="#63b8ff" points="1630.91,-172.71 1620.97,-176.38 1631.03,-179.71 1630.91,-172.71"/>
</a>
</g>
</g>
<!-- Node32&#45;&gt;Node2 -->
<g id="edge36_Node000032_Node000002" class="edge">
<title>Node32&#45;&gt;Node2</title>
<g id="a_edge36_Node000032_Node000002"><a xlink:title=" ">
<path fill="none" stroke="#63b8ff" d="M1633.17,-76.35C1627.38,-94.36 1607.91,-134.14 1593.66,-157.95"/>
<polygon fill="#63b8ff" stroke="#63b8ff" points="1590.74,-156.02 1588.35,-166.34 1596.65,-159.76 1590.74,-156.02"/>
</a>
</g>
</g>
<!-- Node33&#45;&gt;Node2 -->
<g id="edge38_Node000033_Node000002" class="edge">
<title>Node33&#45;&gt;Node2</title>
<g id="a_edge38_Node000033_Node000002"><a xlink:title=" ">
<path fill="none" stroke="#63b8ff" d="M1718.26,-76.35C1696.21,-95.25 1638.81,-138.14 1604.8,-161.36"/>
<polygon fill="#63b8ff" stroke="#63b8ff" points="1603.08,-158.3 1596.73,-166.78 1606.98,-164.11 1603.08,-158.3"/>
</a>
</g>
</g>
<!-- Node33&#45;&gt;Node34 -->
<g id="edge39_Node000033_Node000034" class="edge">
<title>Node33&#45;&gt;Node34</title>
<g id="a_edge39_Node000033_Node000034"><a xlink:title=" ">
<path fill="none" stroke="#63b8ff" d="M1697.1,-57.43C1694.33,-56.88 1691.56,-56.39 1688.88,-56 1427.22,-17.61 1110.61,-11.71 982.66,-10.99"/>
<polygon fill="#63b8ff" stroke="#63b8ff" points="982.76,-7.49 972.75,-10.94 982.73,-14.49 982.76,-7.49"/>
</a>
</g>
</g>
<!-- Node33&#45;&gt;Node35 -->
<g id="edge41_Node000033_Node000035" class="edge">
<title>Node33&#45;&gt;Node35</title>
<g id="a_edge41_Node000033_Node000035"><a xlink:title=" ">
<path fill="none" stroke="#63b8ff" d="M1711.55,-55.59C1698.38,-47.51 1679.14,-35.71 1663.77,-26.27"/>
<polygon fill="#63b8ff" stroke="#63b8ff" points="1665.97,-23.52 1655.61,-21.27 1662.31,-29.48 1665.97,-23.52"/>
</a>
</g>
</g>
<!-- Node34&#45;&gt;Node2 -->
<g id="edge40_Node000034_Node000002" class="edge">
<title>Node34&#45;&gt;Node2</title>
<g id="a_edge40_Node000034_Node000002"><a xlink:title=" ">
<path fill="none" stroke="#63b8ff" d="M878.72,-12.17C714.35,-17.01 172.74,-39.79 261.88,-132 306.69,-178.37 1288.03,-178.05 1526.87,-177.24"/>
<polygon fill="#63b8ff" stroke="#63b8ff" points="1526.82,-180.74 1536.81,-177.2 1526.8,-173.74 1526.82,-180.74"/>
</a>
</g>
</g>
<!-- Node35&#45;&gt;Node2 -->
<g id="edge42_Node000035_Node000002" class="edge">
<title>Node35&#45;&gt;Node2</title>
<g id="a_edge42_Node000035_Node000002"><a xlink:title=" ">
<path fill="none" stroke="#63b8ff" d="M1625.36,-20.46C1612.96,-27.94 1595.97,-39.81 1587.88,-56 1571.87,-88 1577.16,-130.98 1579.85,-156.16"/>
<polygon fill="#63b8ff" stroke="#63b8ff" points="1576.36,-156.41 1580.75,-166.05 1583.33,-155.77 1576.36,-156.41"/>
</a>
</g>
</g>
<!-- Node36&#45;&gt;Node2 -->
<g id="edge44_Node000036_Node000002" class="edge">
<title>Node36&#45;&gt;Node2</title>
<g id="a_edge44_Node000036_Node000002"><a xlink:title=" ">
<path fill="none" stroke="#63b8ff" d="M2486.38,-132.08C2319.67,-158.52 1797.84,-172.26 1630.78,-175.96"/>
<polygon fill="#63b8ff" stroke="#63b8ff" points="1630.81,-172.46 1620.89,-176.18 1630.96,-179.46 1630.81,-172.46"/>
</a>
</g>
</g>
<!-- Node36&#45;&gt;Node32 -->
<g id="edge45_Node000036_Node000032" class="edge">
<title>Node36&#45;&gt;Node32</title>
<g id="a_edge45_Node000036_Node000032"><a xlink:title=" ">
<path fill="none" stroke="#63b8ff" d="M2486.5,-113.71C2483.61,-113.04 2480.69,-112.44 2477.88,-112 2134.83,-58.07 2040.04,-111.24 1691.48,-76.13"/>
<polygon fill="#63b8ff" stroke="#63b8ff" points="1691.85,-72.65 1681.54,-75.11 1691.13,-79.61 1691.85,-72.65"/>
</a>
</g>
</g>
<!-- Node37&#45;&gt;Node2 -->
<g id="edge47_Node000037_Node000002" class="edge">
<title>Node37&#45;&gt;Node2</title>
<g id="a_edge47_Node000037_Node000002"><a xlink:title=" ">
<path fill="none" stroke="#63b8ff" d="M2746.22,-132.1C2526.17,-164.89 1827.5,-174.49 1630.79,-176.54"/>
<polygon fill="#63b8ff" stroke="#63b8ff" points="1630.85,-173.03 1620.89,-176.64 1630.92,-180.03 1630.85,-173.03"/>
</a>
</g>
</g>
<!-- Node37&#45;&gt;Node33 -->
<g id="edge48_Node000037_Node000033" class="edge">
<title>Node37&#45;&gt;Node33</title>
<g id="a_edge48_Node000037_Node000033"><a xlink:title=" ">
<path fill="none" stroke="#63b8ff" d="M2746.38,-113.62C2743.53,-112.99 2740.65,-112.42 2737.88,-112 2546.01,-82.68 1932.24,-70.45 1767.76,-67.65"/>
<polygon fill="#63b8ff" stroke="#63b8ff" points="1768.27,-64.16 1758.22,-67.49 1768.16,-71.16 1768.27,-64.16"/>
</a>
</g>
</g>
<!-- Node38&#45;&gt;Node2 -->
<g id="edge57_Node000038_Node000002" class="edge">
<title>Node38&#45;&gt;Node2</title>
<g id="a_edge57_Node000038_Node000002"><a xlink:title=" ">
<path fill="none" stroke="#63b8ff" d="M2190.34,-229.18C2071.12,-219.4 1755.34,-193.48 1630.61,-183.25"/>
<polygon fill="#63b8ff" stroke="#63b8ff" points="1631.26,-179.79 1621.01,-182.46 1630.69,-186.76 1631.26,-179.79"/>
</a>
</g>
</g>
</g>
</svg>
