<?xml version="1.0" encoding="UTF-8" standalone="no"?>
<!DOCTYPE svg PUBLIC "-//W3C//DTD SVG 1.1//EN"
 "http://www.w3.org/Graphics/SVG/1.1/DTD/svg11.dtd">
<!-- Generated by graphviz version 9.0.0 (20230911.1827)
 -->
<!-- Title: src/DirectXManager.h Pages: 1 -->
<!--zoomable 308 -->

<svg id="main" version="1.1" xmlns="http://www.w3.org/2000/svg" xmlns:xlink="http://www.w3.org/1999/xlink" xml:space="preserve" onload="init(evt)">
<style type="text/css"><![CDATA[
.node, .edge {opacity: 0.7;}
.node.selected, .edge.selected {opacity: 1;}
.edge:hover path { stroke: red; }
.edge:hover polygon { stroke: red; fill: red; }
]]></style>

<defs>
  <circle id="rim" cx="0" cy="0" r="7"/>
  <circle id="rim2" cx="0" cy="0" r="3.5"/>
  <g id="zoomPlus">
    <use xlink:href="#rim" fill="#404040"><set attributeName="fill" to="#808080" begin="zoomplus.mouseover" end="zoomplus.mouseout"/></use>
    <path d="M-4,0h8M0,-4v8" fill="none" stroke="white" stroke-width="1.5" pointer-events="none"/>
  </g>
  <g id="zoomMin">
    <use xlink:href="#rim" fill="#404040"><set attributeName="fill" to="#808080" begin="zoomminus.mouseover" end="zoomminus.mouseout"/></use>
    <path d="M-4,0h8" fill="none" stroke="white" stroke-width="1.5" pointer-events="none"/>
  </g>
  <g id="arrowUp" transform="translate(30 24)">
    <use xlink:href="#rim"/>
    <path pointer-events="none" fill="none" stroke="white" stroke-width="1.5" d="M0,-3.0v7 M-2.5,-0.5L0,-3.0L2.5,-0.5"/>
  </g>
  <g id="arrowRight" transform="rotate(90) translate(36 -43)">
    <use xlink:href="#rim"/>
    <path pointer-events="none" fill="none" stroke="white" stroke-width="1.5" d="M0,-3.0v7 M-2.5,-0.5L0,-3.0L2.5,-0.5"/>
  </g>
  <g id="arrowDown" transform="rotate(180) translate(-30 -48)">
    <use xlink:href="#rim"/>
    <path pointer-events="none" fill="none" stroke="white" stroke-width="1.5" d="M0,-3.0v7 M-2.5,-0.5L0,-3.0L2.5,-0.5"/>
  </g>
  <g id="arrowLeft" transform="rotate(270) translate(-36 17)">
    <use xlink:href="#rim"/>
    <path pointer-events="none" fill="none" stroke="white" stroke-width="1.5" d="M0,-3.0v7 M-2.5,-0.5L0,-3.0L2.5,-0.5"/>
  </g>
  <g id="resetDef">
    <use xlink:href="#rim2" fill="#404040"><set attributeName="fill" to="#808080" begin="reset.mouseover" end="reset.mouseout"/></use>
  </g>
</defs>
<script type="application/ecmascript">
var viewWidth = 1577;
var viewHeight = 308;
var sectionId = 'dynsection-1';
</script>
<script type="application/ecmascript" xlink:href="svg.min.js"/>
<svg id="graph" class="graph">
<g id="viewport">
<title>src/DirectXManager.h</title>
<!-- Node1 -->
<g id="Node000001" class="node">
<title>Node1</title>
<g id="a_Node000001"><a xlink:title=" ">
<polygon fill="#999999" stroke="#666666" points="744.6,-300 635.6,-300 635.6,-280 744.6,-280 744.6,-300"/>
<text text-anchor="middle" x="690.1" y="-286.5" font-family="Helvetica,sans-Serif" font-size="10.00">src/DirectXManager.h</text>
</a>
</g>
</g>
<!-- Node2 -->
<g id="Node000002" class="node">
<title>Node2</title>
<g id="a_Node000002"><a xlink:href="_direct_x_manager_8cpp.html" target="_top" xlink:title=" ">
<polygon fill="white" stroke="#666666" points="214.85,-132 95.35,-132 95.35,-112 214.85,-112 214.85,-132"/>
<text text-anchor="middle" x="155.1" y="-118.5" font-family="Helvetica,sans-Serif" font-size="10.00">src/DirectXManager.cpp</text>
</a>
</g>
</g>
<!-- Node1&#45;&gt;Node2 -->
<g id="edge1_Node000001_Node000002" class="edge">
<title>Node1&#45;&gt;Node2</title>
<g id="a_edge1_Node000001_Node000002"><a xlink:title=" ">
<path fill="none" stroke="#63b8ff" d="M630.64,-277.31C553.39,-261.27 414.93,-229.63 301.1,-188 254.46,-170.94 201.66,-145.96 174.12,-132.47"/>
<polygon fill="#63b8ff" stroke="#63b8ff" points="629.6,-280.67 640.1,-279.25 631.01,-273.81 629.6,-280.67"/>
</a>
</g>
</g>
<!-- Node3 -->
<g id="Node000003" class="node">
<title>Node3</title>
<g id="a_Node000003"><a xlink:href="_game_engine_8h.html" target="_top" xlink:title=" ">
<polygon fill="white" stroke="#666666" points="738.6,-244 641.6,-244 641.6,-224 738.6,-224 738.6,-244"/>
<text text-anchor="middle" x="690.1" y="-230.5" font-family="Helvetica,sans-Serif" font-size="10.00">src/GameEngine.h</text>
</a>
</g>
</g>
<!-- Node1&#45;&gt;Node3 -->
<g id="edge2_Node000001_Node000003" class="edge">
<title>Node1&#45;&gt;Node3</title>
<g id="a_edge2_Node000001_Node000003"><a xlink:title=" ">
<path fill="none" stroke="#63b8ff" d="M683.52,-268.43C683.07,-260.11 683.51,-250.93 684.86,-244.3"/>
<polygon fill="#63b8ff" stroke="#63b8ff" points="680.02,-268.57 684.66,-278.09 686.97,-267.75 680.02,-268.57"/>
</a>
</g>
</g>
<!-- Node23 -->
<g id="Node000023" class="node">
<title>Node23</title>
<g id="a_Node000023"><a xlink:href="_win32_application_8h.html" target="_top" xlink:title=" ">
<polygon fill="white" stroke="#666666" points="1336.35,-188 1219.85,-188 1219.85,-168 1336.35,-168 1336.35,-188"/>
<text text-anchor="middle" x="1278.1" y="-174.5" font-family="Helvetica,sans-Serif" font-size="10.00">src/Win32Application.h</text>
</a>
</g>
</g>
<!-- Node1&#45;&gt;Node23 -->
<g id="edge61_Node000001_Node000023" class="edge">
<title>Node1&#45;&gt;Node23</title>
<g id="a_edge61_Node000001_Node000023"><a xlink:title=" ">
<path fill="none" stroke="#63b8ff" d="M752.12,-277.5C801.02,-268.43 870.92,-255.44 932.1,-244 1037.39,-224.32 1160.67,-201.12 1227.97,-188.45"/>
<polygon fill="#63b8ff" stroke="#63b8ff" points="751.78,-274 742.58,-279.27 753.05,-280.89 751.78,-274"/>
</a>
</g>
</g>
<!-- Node3&#45;&gt;Node1 -->
<g id="edge7_Node000003_Node000001" class="edge">
<title>Node3&#45;&gt;Node1</title>
<g id="a_edge7_Node000003_Node000001"><a xlink:title=" ">
<path fill="none" stroke="#63b8ff" d="M696.69,-255.73C697.13,-263.96 696.69,-273.01 695.37,-279.59"/>
<polygon fill="#63b8ff" stroke="#63b8ff" points="700.16,-255.33 695.52,-245.8 693.21,-256.14 700.16,-255.33"/>
</a>
</g>
</g>
<!-- Node4 -->
<g id="Node000004" class="node">
<title>Node4</title>
<g id="a_Node000004"><a xlink:href="_camera_8h.html" target="_top" xlink:title=" ">
<polygon fill="white" stroke="#666666" points="510.35,-188 435.85,-188 435.85,-168 510.35,-168 510.35,-188"/>
<text text-anchor="middle" x="473.1" y="-174.5" font-family="Helvetica,sans-Serif" font-size="10.00">src/Camera.h</text>
</a>
</g>
</g>
<!-- Node3&#45;&gt;Node4 -->
<g id="edge3_Node000003_Node000004" class="edge">
<title>Node3&#45;&gt;Node4</title>
<g id="a_edge3_Node000003_Node000004"><a xlink:title=" ">
<path fill="none" stroke="#63b8ff" d="M635.64,-220.88C594.76,-211.07 540.24,-197.47 505.83,-188.46"/>
<polygon fill="#63b8ff" stroke="#63b8ff" points="634.76,-224.27 645.3,-223.18 636.39,-217.46 634.76,-224.27"/>
</a>
</g>
</g>
<!-- Node6 -->
<g id="Node000006" class="node">
<title>Node6</title>
<g id="a_Node000006"><a xlink:href="_game_engine_8cpp.html" target="_top" xlink:title=" ">
<polygon fill="white" stroke="#666666" points="635.85,-132 528.35,-132 528.35,-112 635.85,-112 635.85,-132"/>
<text text-anchor="middle" x="582.1" y="-118.5" font-family="Helvetica,sans-Serif" font-size="10.00">src/GameEngine.cpp</text>
</a>
</g>
</g>
<!-- Node3&#45;&gt;Node6 -->
<g id="edge8_Node000003_Node000006" class="edge">
<title>Node3&#45;&gt;Node6</title>
<g id="a_edge8_Node000003_Node000006"><a xlink:title=" ">
<path fill="none" stroke="#63b8ff" d="M664.37,-217.55C652.29,-209.6 638.16,-199.22 627.1,-188 609.76,-170.4 594.56,-145.42 587.06,-132.13"/>
<polygon fill="#63b8ff" stroke="#63b8ff" points="662.33,-220.4 672.64,-222.82 666.09,-214.5 662.33,-220.4"/>
</a>
</g>
</g>
<!-- Node7 -->
<g id="Node000007" class="node">
<title>Node7</title>
<g id="a_Node000007"><a xlink:href="_graphics_device_8h.html" target="_top" xlink:title=" ">
<polygon fill="white" stroke="#666666" points="418.23,-188 309.98,-188 309.98,-168 418.23,-168 418.23,-188"/>
<text text-anchor="middle" x="364.1" y="-174.5" font-family="Helvetica,sans-Serif" font-size="10.00">src/GraphicsDevice.h</text>
</a>
</g>
</g>
<!-- Node3&#45;&gt;Node7 -->
<g id="edge9_Node000003_Node000007" class="edge">
<title>Node3&#45;&gt;Node7</title>
<g id="a_edge9_Node000003_Node000007"><a xlink:title=" ">
<path fill="none" stroke="#63b8ff" d="M630.28,-223.95C568.87,-214.12 474.42,-198.48 416.05,-188.48"/>
<polygon fill="#63b8ff" stroke="#63b8ff" points="629.43,-227.36 639.85,-225.48 630.53,-220.45 629.43,-227.36"/>
</a>
</g>
</g>
<!-- Node9 -->
<g id="Node000009" class="node">
<title>Node9</title>
<g id="a_Node000009"><a xlink:href="_mesh_8h.html" target="_top" xlink:title=" ">
<polygon fill="white" stroke="#666666" points="77.48,-132 12.73,-132 12.73,-112 77.48,-112 77.48,-132"/>
<text text-anchor="middle" x="45.1" y="-118.5" font-family="Helvetica,sans-Serif" font-size="10.00">src/Mesh.h</text>
</a>
</g>
</g>
<!-- Node3&#45;&gt;Node9 -->
<g id="edge27_Node000003_Node000009" class="edge">
<title>Node3&#45;&gt;Node9</title>
<g id="a_edge27_Node000003_Node000009"><a xlink:title=" ">
<path fill="none" stroke="#63b8ff" d="M630.31,-229.06C551.93,-223.03 410.8,-209.83 292.1,-188 210.25,-172.94 115.78,-146.56 70.94,-132.49"/>
<polygon fill="#63b8ff" stroke="#63b8ff" points="629.66,-232.52 639.9,-229.79 630.19,-225.54 629.66,-232.52"/>
</a>
</g>
</g>
<!-- Node12 -->
<g id="Node000012" class="node">
<title>Node12</title>
<g id="a_Node000012"><a xlink:href="_material_8h.html" target="_top" xlink:title=" ">
<polygon fill="white" stroke="#666666" points="1568.73,-132 1493.48,-132 1493.48,-112 1568.73,-112 1568.73,-132"/>
<text text-anchor="middle" x="1531.1" y="-118.5" font-family="Helvetica,sans-Serif" font-size="10.00">src/Material.h</text>
</a>
</g>
</g>
<!-- Node3&#45;&gt;Node12 -->
<g id="edge18_Node000003_Node000012" class="edge">
<title>Node3&#45;&gt;Node12</title>
<g id="a_edge18_Node000003_Node000012"><a xlink:title=" ">
<path fill="none" stroke="#63b8ff" d="M747.66,-221.4C788.34,-213.38 843.85,-201.7 892.1,-188 917.53,-180.78 922.23,-173.39 948.1,-168 1178.36,-119.99 1242.89,-162.64 1476.1,-132 1481.59,-131.28 1487.4,-130.31 1493.16,-129.27"/>
<polygon fill="#63b8ff" stroke="#63b8ff" points="747.23,-217.92 738.09,-223.28 748.57,-224.79 747.23,-217.92"/>
</a>
</g>
</g>
<!-- Node14 -->
<g id="Node000014" class="node">
<title>Node14</title>
<g id="a_Node000014"><a xlink:href="_model_8h.html" target="_top" xlink:title=" ">
<polygon fill="white" stroke="#666666" points="285.6,-76 218.6,-76 218.6,-56 285.6,-56 285.6,-76"/>
<text text-anchor="middle" x="252.1" y="-62.5" font-family="Helvetica,sans-Serif" font-size="10.00">src/Model.h</text>
</a>
</g>
</g>
<!-- Node3&#45;&gt;Node14 -->
<g id="edge28_Node000003_Node000014" class="edge">
<title>Node3&#45;&gt;Node14</title>
<g id="a_edge28_Node000003_Node000014"><a xlink:title=" ">
<path fill="none" stroke="#63b8ff" d="M653.23,-219.22C617.13,-204.43 560.77,-181.28 510.1,-168 406.19,-140.76 356.17,-197.59 271.1,-132 253.2,-118.2 246.56,-90.66 247.59,-76.26"/>
<polygon fill="#63b8ff" stroke="#63b8ff" points="651.76,-222.4 662.35,-222.95 654.41,-215.92 651.76,-222.4"/>
</a>
</g>
</g>
<!-- Node15 -->
<g id="Node000015" class="node">
<title>Node15</title>
<g id="a_Node000015"><a xlink:href="_render_state_8h.html" target="_top" xlink:title=" ">
<polygon fill="white" stroke="#666666" points="892.48,-188 797.73,-188 797.73,-168 892.48,-168 892.48,-188"/>
<text text-anchor="middle" x="845.1" y="-174.5" font-family="Helvetica,sans-Serif" font-size="10.00">src/RenderState.h</text>
</a>
</g>
</g>
<!-- Node3&#45;&gt;Node15 -->
<g id="edge29_Node000003_Node000015" class="edge">
<title>Node3&#45;&gt;Node15</title>
<g id="a_edge29_Node000003_Node000015"><a xlink:title=" ">
<path fill="none" stroke="#63b8ff" d="M722.47,-219.66C748.96,-209.98 786.08,-197.12 812.61,-188.48"/>
<polygon fill="#63b8ff" stroke="#63b8ff" points="721.42,-216.32 713.25,-223.07 723.85,-222.89 721.42,-216.32"/>
</a>
</g>
</g>
<!-- Node17 -->
<g id="Node000017" class="node">
<title>Node17</title>
<g id="a_Node000017"><a xlink:href="_scene_8h.html" target="_top" xlink:title=" ">
<polygon fill="white" stroke="#666666" points="779.35,-188 710.85,-188 710.85,-168 779.35,-168 779.35,-188"/>
<text text-anchor="middle" x="745.1" y="-174.5" font-family="Helvetica,sans-Serif" font-size="10.00">src/Scene.h</text>
</a>
</g>
</g>
<!-- Node3&#45;&gt;Node17 -->
<g id="edge34_Node000003_Node000017" class="edge">
<title>Node3&#45;&gt;Node17</title>
<g id="a_edge34_Node000003_Node000017"><a xlink:title=" ">
<path fill="none" stroke="#63b8ff" d="M707.86,-215.57C717.09,-206.5 728.01,-195.78 735.63,-188.3"/>
<polygon fill="#63b8ff" stroke="#63b8ff" points="705.44,-213.03 700.76,-222.53 710.35,-218.03 705.44,-213.03"/>
</a>
</g>
</g>
<!-- Node19 -->
<g id="Node000019" class="node">
<title>Node19</title>
<g id="a_Node000019"><a xlink:href="_shader_manager_8h.html" target="_top" xlink:title=" ">
<polygon fill="white" stroke="#666666" points="1201.6,-188 1092.6,-188 1092.6,-168 1201.6,-168 1201.6,-188"/>
<text text-anchor="middle" x="1147.1" y="-174.5" font-family="Helvetica,sans-Serif" font-size="10.00">src/ShaderManager.h</text>
</a>
</g>
</g>
<!-- Node3&#45;&gt;Node19 -->
<g id="edge36_Node000003_Node000019" class="edge">
<title>Node3&#45;&gt;Node19</title>
<g id="a_edge36_Node000003_Node000019"><a xlink:title=" ">
<path fill="none" stroke="#63b8ff" d="M750.25,-226.6C827.4,-218.28 965.33,-203.02 1083.1,-188 1086.11,-187.62 1089.19,-187.21 1092.3,-186.8"/>
<polygon fill="#63b8ff" stroke="#63b8ff" points="749.93,-223.11 740.36,-227.66 750.68,-230.07 749.93,-223.11"/>
</a>
</g>
</g>
<!-- Node21 -->
<g id="Node000021" class="node">
<title>Node21</title>
<g id="a_Node000021"><a xlink:href="_shader_program_8h.html" target="_top" xlink:title=" ">
<polygon fill="white" stroke="#666666" points="1074.23,-188 965.98,-188 965.98,-168 1074.23,-168 1074.23,-188"/>
<text text-anchor="middle" x="1020.1" y="-174.5" font-family="Helvetica,sans-Serif" font-size="10.00">src/ShaderProgram.h</text>
</a>
</g>
</g>
<!-- Node3&#45;&gt;Node21 -->
<g id="edge39_Node000003_Node000021" class="edge">
<title>Node3&#45;&gt;Node21</title>
<g id="a_edge39_Node000003_Node000021"><a xlink:title=" ">
<path fill="none" stroke="#63b8ff" d="M750.15,-222.27C811.6,-211.92 906.15,-196.48 965.55,-187.11"/>
<polygon fill="#63b8ff" stroke="#63b8ff" points="749.84,-218.77 740.56,-223.89 751.01,-225.68 749.84,-218.77"/>
</a>
</g>
</g>
<!-- Node3&#45;&gt;Node23 -->
<g id="edge44_Node000003_Node000023" class="edge">
<title>Node3&#45;&gt;Node23</title>
<g id="a_edge44_Node000003_Node000023"><a xlink:title=" ">
<path fill="none" stroke="#63b8ff" d="M750.25,-228.31C846.05,-221.04 1038.81,-206.01 1202.1,-188 1207.7,-187.38 1213.56,-186.68 1219.43,-185.95"/>
<polygon fill="#63b8ff" stroke="#63b8ff" points="750,-224.82 740.29,-229.06 750.52,-231.8 750,-224.82"/>
</a>
</g>
</g>
<!-- Node25 -->
<g id="Node000025" class="node">
<title>Node25</title>
<g id="a_Node000025"><a xlink:href="pch_8h.html" target="_top" xlink:title=" ">
<polygon fill="white" stroke="#666666" points="692.35,-188 635.85,-188 635.85,-168 692.35,-168 692.35,-188"/>
<text text-anchor="middle" x="664.1" y="-174.5" font-family="Helvetica,sans-Serif" font-size="10.00">src/pch.h</text>
</a>
</g>
</g>
<!-- Node3&#45;&gt;Node25 -->
<g id="edge47_Node000003_Node000025" class="edge">
<title>Node3&#45;&gt;Node25</title>
<g id="a_edge47_Node000003_Node000025"><a xlink:title=" ">
<path fill="none" stroke="#63b8ff" d="M680.61,-213.29C676.5,-204.75 671.88,-195.16 668.58,-188.3"/>
<polygon fill="#63b8ff" stroke="#63b8ff" points="677.42,-214.74 684.92,-222.23 683.73,-211.7 677.42,-214.74"/>
</a>
</g>
</g>
<!-- Node4&#45;&gt;Node1 -->
<g id="edge5_Node000004_Node000001" class="edge">
<title>Node4&#45;&gt;Node1</title>
<g id="a_edge5_Node000004_Node000001"><a xlink:title=" ">
<path fill="none" stroke="#63b8ff" d="M501.57,-193.43C546.76,-216.34 633.64,-260.38 671.6,-279.62"/>
<polygon fill="#63b8ff" stroke="#63b8ff" points="503.41,-190.44 492.91,-189.04 500.24,-196.68 503.41,-190.44"/>
</a>
</g>
</g>
<!-- Node4&#45;&gt;Node3 -->
<g id="edge6_Node000004_Node000003" class="edge">
<title>Node4&#45;&gt;Node3</title>
<g id="a_edge6_Node000004_Node000003"><a xlink:title=" ">
<path fill="none" stroke="#63b8ff" d="M521.44,-189.66C562.92,-199.55 621.42,-214.13 657.57,-223.59"/>
<polygon fill="#63b8ff" stroke="#63b8ff" points="522.5,-186.31 511.97,-187.42 520.89,-193.13 522.5,-186.31"/>
</a>
</g>
</g>
<!-- Node5 -->
<g id="Node000005" class="node">
<title>Node5</title>
<g id="a_Node000005"><a xlink:href="_camera_8cpp.html" target="_top" xlink:title=" ">
<polygon fill="white" stroke="#666666" points="510.6,-132 425.6,-132 425.6,-112 510.6,-112 510.6,-132"/>
<text text-anchor="middle" x="468.1" y="-118.5" font-family="Helvetica,sans-Serif" font-size="10.00">src/Camera.cpp</text>
</a>
</g>
</g>
<!-- Node4&#45;&gt;Node5 -->
<g id="edge4_Node000004_Node000005" class="edge">
<title>Node4&#45;&gt;Node5</title>
<g id="a_edge4_Node000004_Node000005"><a xlink:title=" ">
<path fill="none" stroke="#63b8ff" d="M471.17,-156.13C470.41,-147.9 469.57,-138.85 468.96,-132.3"/>
<polygon fill="#63b8ff" stroke="#63b8ff" points="467.68,-156.45 472.09,-166.09 474.65,-155.81 467.68,-156.45"/>
</a>
</g>
</g>
<!-- Node7&#45;&gt;Node1 -->
<g id="edge10_Node000007_Node000001" class="edge">
<title>Node7&#45;&gt;Node1</title>
<g id="a_edge10_Node000007_Node000001"><a xlink:title=" ">
<path fill="none" stroke="#63b8ff" d="M403.08,-192.15C469.66,-214.62 603.77,-259.87 662.02,-279.53"/>
<polygon fill="#63b8ff" stroke="#63b8ff" points="404.25,-188.85 393.66,-188.97 402.02,-195.49 404.25,-188.85"/>
</a>
</g>
</g>
<!-- Node7&#45;&gt;Node3 -->
<g id="edge11_Node000007_Node000003" class="edge">
<title>Node7&#45;&gt;Node3</title>
<g id="a_edge11_Node000007_Node000003"><a xlink:title=" ">
<path fill="none" stroke="#63b8ff" d="M429.8,-188.99C492.43,-199.05 585.16,-214.42 641.43,-224.08"/>
<polygon fill="#63b8ff" stroke="#63b8ff" points="430.4,-185.54 419.97,-187.42 429.29,-192.45 430.4,-185.54"/>
</a>
</g>
</g>
<!-- Node8 -->
<g id="Node000008" class="node">
<title>Node8</title>
<g id="a_Node000008"><a xlink:href="_graphics_device_8cpp.html" target="_top" xlink:title=" ">
<polygon fill="white" stroke="#666666" points="407.48,-132 288.73,-132 288.73,-112 407.48,-112 407.48,-132"/>
<text text-anchor="middle" x="348.1" y="-118.5" font-family="Helvetica,sans-Serif" font-size="10.00">src/GraphicsDevice.cpp</text>
</a>
</g>
</g>
<!-- Node7&#45;&gt;Node8 -->
<g id="edge12_Node000007_Node000008" class="edge">
<title>Node7&#45;&gt;Node8</title>
<g id="a_edge12_Node000007_Node000008"><a xlink:title=" ">
<path fill="none" stroke="#63b8ff" d="M358.09,-156.71C355.6,-148.32 352.84,-139.01 350.86,-132.3"/>
<polygon fill="#63b8ff" stroke="#63b8ff" points="354.69,-157.55 360.88,-166.14 361.4,-155.56 354.69,-157.55"/>
</a>
</g>
</g>
<!-- Node7&#45;&gt;Node9 -->
<g id="edge13_Node000007_Node000009" class="edge">
<title>Node7&#45;&gt;Node9</title>
<g id="a_edge13_Node000007_Node000009"><a xlink:title=" ">
<path fill="none" stroke="#63b8ff" d="M298.34,-167.41C241.89,-158.93 158.44,-145.78 86.1,-132 83.38,-131.48 80.56,-130.92 77.74,-130.34"/>
<polygon fill="#63b8ff" stroke="#63b8ff" points="297.7,-170.85 308.11,-168.87 298.74,-163.93 297.7,-170.85"/>
</a>
</g>
</g>
<!-- Node9&#45;&gt;Node1 -->
<g id="edge14_Node000009_Node000001" class="edge">
<title>Node9&#45;&gt;Node1</title>
<g id="a_edge14_Node000009_Node000001"><a xlink:title=" ">
<path fill="none" stroke="#63b8ff" d="M76.48,-137.05C108.44,-151.04 159.63,-172.61 205.1,-188 294.57,-218.27 317.79,-224.03 410.1,-244 487.7,-260.78 578.63,-274.28 635.31,-281.97"/>
<polygon fill="#63b8ff" stroke="#63b8ff" points="77.97,-133.88 67.41,-133.05 75.14,-140.28 77.97,-133.88"/>
</a>
</g>
</g>
<!-- Node9&#45;&gt;Node3 -->
<g id="edge15_Node000009_Node000003" class="edge">
<title>Node9&#45;&gt;Node3</title>
<g id="a_edge15_Node000009_Node000003"><a xlink:title=" ">
<path fill="none" stroke="#63b8ff" d="M88.48,-134.12C140.86,-148.53 231.32,-173.51 310.1,-188 428.28,-209.74 568.71,-222.91 641.36,-228.98"/>
<polygon fill="#63b8ff" stroke="#63b8ff" points="89.61,-130.8 79.04,-131.53 87.76,-137.55 89.61,-130.8"/>
</a>
</g>
</g>
<!-- Node10 -->
<g id="Node000010" class="node">
<title>Node10</title>
<g id="a_Node000010"><a xlink:href="_mesh_8cpp.html" target="_top" xlink:title=" ">
<polygon fill="white" stroke="#666666" points="242.73,-20 167.48,-20 167.48,0 242.73,0 242.73,-20"/>
<text text-anchor="middle" x="205.1" y="-6.5" font-family="Helvetica,sans-Serif" font-size="10.00">src/Mesh.cpp</text>
</a>
</g>
</g>
<!-- Node9&#45;&gt;Node10 -->
<g id="edge16_Node000009_Node000010" class="edge">
<title>Node9&#45;&gt;Node10</title>
<g id="a_edge16_Node000009_Node000010"><a xlink:title=" ">
<path fill="none" stroke="#63b8ff" d="M67.85,-105.36C101.63,-82.14 164.01,-39.25 191.49,-20.35"/>
<polygon fill="#63b8ff" stroke="#63b8ff" points="66.25,-102.21 59.99,-110.76 70.21,-107.98 66.25,-102.21"/>
</a>
</g>
</g>
<!-- Node11 -->
<g id="Node000011" class="node">
<title>Node11</title>
<g id="a_Node000011"><a xlink:href="_model_8cpp.html" target="_top" xlink:title=" ">
<polygon fill="white" stroke="#666666" points="337.85,-20 260.35,-20 260.35,0 337.85,0 337.85,-20"/>
<text text-anchor="middle" x="299.1" y="-6.5" font-family="Helvetica,sans-Serif" font-size="10.00">src/Model.cpp</text>
</a>
</g>
</g>
<!-- Node9&#45;&gt;Node11 -->
<g id="edge17_Node000009_Node000011" class="edge">
<title>Node9&#45;&gt;Node11</title>
<g id="a_edge17_Node000009_Node000011"><a xlink:title=" ">
<path fill="none" stroke="#63b8ff" d="M77.16,-107.12C129.7,-84.36 232.75,-39.74 277.5,-20.35"/>
<polygon fill="#63b8ff" stroke="#63b8ff" points="75.93,-103.83 68.15,-111.02 78.71,-110.26 75.93,-103.83"/>
</a>
</g>
</g>
<!-- Node12&#45;&gt;Node1 -->
<g id="edge19_Node000012_Node000001" class="edge">
<title>Node12&#45;&gt;Node1</title>
<g id="a_edge19_Node000012_Node000001"><a xlink:title=" ">
<path fill="none" stroke="#63b8ff" d="M1497.7,-136.68C1460.88,-151.29 1399.64,-174.18 1345.1,-188 1126.21,-243.45 857.99,-273.24 744.72,-284.12"/>
<polygon fill="#63b8ff" stroke="#63b8ff" points="1498.92,-139.97 1506.9,-133 1496.31,-133.47 1498.92,-139.97"/>
</a>
</g>
</g>
<!-- Node12&#45;&gt;Node3 -->
<g id="edge20_Node000012_Node000003" class="edge">
<title>Node12&#45;&gt;Node3</title>
<g id="a_edge20_Node000012_Node000003"><a xlink:title=" ">
<path fill="none" stroke="#63b8ff" d="M1481.97,-133.55C1258.58,-161.17 1192.32,-120.83 966.1,-168 940.23,-173.39 935.53,-180.78 910.1,-188 852.27,-204.42 784.02,-217.94 738.92,-225.74"/>
<polygon fill="#63b8ff" stroke="#63b8ff" points="1482.1,-137.06 1491.58,-132.33 1481.21,-130.12 1482.1,-137.06"/>
</a>
</g>
</g>
<!-- Node13 -->
<g id="Node000013" class="node">
<title>Node13</title>
<g id="a_Node000013"><a xlink:href="_material_8cpp.html" target="_top" xlink:title=" ">
<polygon fill="white" stroke="#666666" points="1237.98,-76 1152.23,-76 1152.23,-56 1237.98,-56 1237.98,-76"/>
<text text-anchor="middle" x="1195.1" y="-62.5" font-family="Helvetica,sans-Serif" font-size="10.00">src/Material.cpp</text>
</a>
</g>
</g>
<!-- Node12&#45;&gt;Node13 -->
<g id="edge21_Node000012_Node000013" class="edge">
<title>Node12&#45;&gt;Node13</title>
<g id="a_edge21_Node000012_Node000013"><a xlink:title=" ">
<path fill="none" stroke="#63b8ff" d="M1482.23,-111.55C1389.84,-95.51 1292.97,-81.08 1238.42,-73.18"/>
<polygon fill="#63b8ff" stroke="#63b8ff" points="1481.52,-114.98 1491.98,-113.25 1482.73,-108.08 1481.52,-114.98"/>
</a>
</g>
</g>
<!-- Node12&#45;&gt;Node14 -->
<g id="edge22_Node000012_Node000014" class="edge">
<title>Node12&#45;&gt;Node14</title>
<g id="a_edge22_Node000012_Node000014"><a xlink:title=" ">
<path fill="none" stroke="#63b8ff" d="M1481.7,-111.81C1220.32,-83.69 455.8,-70.22 285.83,-67.52"/>
<polygon fill="#63b8ff" stroke="#63b8ff" points="1481.19,-115.27 1491.51,-112.9 1481.97,-108.32 1481.19,-115.27"/>
</a>
</g>
</g>
<!-- Node14&#45;&gt;Node1 -->
<g id="edge23_Node000014_Node000001" class="edge">
<title>Node14&#45;&gt;Node1</title>
<g id="a_edge23_Node000014_Node000001"><a xlink:title=" ">
<path fill="none" stroke="#63b8ff" d="M206.98,-68.51C142.63,-71.72 29.45,-81.64 4.1,-112 -1.6,-118.82 -0.91,-124.66 4.1,-132 75.85,-237.15 485.3,-275.14 635.16,-285.64"/>
<polygon fill="#63b8ff" stroke="#63b8ff" points="207.06,-72.01 216.89,-68.05 206.74,-65.02 207.06,-72.01"/>
</a>
</g>
</g>
<!-- Node14&#45;&gt;Node3 -->
<g id="edge24_Node000014_Node000003" class="edge">
<title>Node14&#45;&gt;Node3</title>
<g id="a_edge24_Node000014_Node000003"><a xlink:title=" ">
<path fill="none" stroke="#63b8ff" d="M262.71,-86.87C267.86,-101.66 274.97,-121.11 289.1,-132 374.17,-197.59 424.19,-140.76 528.1,-168 584.01,-182.66 646.85,-209.33 675.28,-223.52"/>
<polygon fill="#63b8ff" stroke="#63b8ff" points="266.09,-85.91 259.42,-77.68 259.5,-88.28 266.09,-85.91"/>
</a>
</g>
</g>
<!-- Node14&#45;&gt;Node10 -->
<g id="edge25_Node000014_Node000010" class="edge">
<title>Node14&#45;&gt;Node10</title>
<g id="a_edge25_Node000014_Node000010"><a xlink:title=" ">
<path fill="none" stroke="#63b8ff" d="M236.44,-47C228.65,-38.06 219.57,-27.62 213.19,-20.3"/>
<polygon fill="#63b8ff" stroke="#63b8ff" points="233.72,-49.21 242.92,-54.45 239,-44.61 233.72,-49.21"/>
</a>
</g>
</g>
<!-- Node14&#45;&gt;Node11 -->
<g id="edge26_Node000014_Node000011" class="edge">
<title>Node14&#45;&gt;Node11</title>
<g id="a_edge26_Node000014_Node000011"><a xlink:title=" ">
<path fill="none" stroke="#63b8ff" d="M267.76,-47C275.55,-38.06 284.63,-27.62 291.01,-20.3"/>
<polygon fill="#63b8ff" stroke="#63b8ff" points="265.21,-44.61 261.28,-54.45 270.49,-49.21 265.21,-44.61"/>
</a>
</g>
</g>
<!-- Node15&#45;&gt;Node1 -->
<g id="edge30_Node000015_Node000001" class="edge">
<title>Node15&#45;&gt;Node1</title>
<g id="a_edge30_Node000015_Node000001"><a xlink:title=" ">
<path fill="none" stroke="#63b8ff" d="M822.68,-194.91C789.89,-218.18 729.85,-260.79 703.32,-279.62"/>
<polygon fill="#63b8ff" stroke="#63b8ff" points="824.56,-197.87 830.68,-189.23 820.5,-192.16 824.56,-197.87"/>
</a>
</g>
</g>
<!-- Node15&#45;&gt;Node3 -->
<g id="edge31_Node000015_Node000003" class="edge">
<title>Node15&#45;&gt;Node3</title>
<g id="a_edge31_Node000015_Node000003"><a xlink:title=" ">
<path fill="none" stroke="#63b8ff" d="M812.5,-192.42C785.96,-202.12 748.83,-214.97 722.37,-223.59"/>
<polygon fill="#63b8ff" stroke="#63b8ff" points="813.59,-195.75 821.75,-189 811.16,-189.19 813.59,-195.75"/>
</a>
</g>
</g>
<!-- Node15&#45;&gt;Node12 -->
<g id="edge32_Node000015_Node000012" class="edge">
<title>Node15&#45;&gt;Node12</title>
<g id="a_edge32_Node000015_Node000012"><a xlink:title=" ">
<path fill="none" stroke="#63b8ff" d="M904.04,-168.22C904.73,-168.14 905.42,-168.07 906.1,-168 1162.53,-141.16 1229.37,-164.82 1485.1,-132 1487.68,-131.67 1490.34,-131.28 1493.01,-130.85"/>
<polygon fill="#63b8ff" stroke="#63b8ff" points="903.69,-164.74 894.17,-169.4 904.52,-171.69 903.69,-164.74"/>
</a>
</g>
</g>
<!-- Node16 -->
<g id="Node000016" class="node">
<title>Node16</title>
<g id="a_Node000016"><a xlink:href="_render_state_8cpp.html" target="_top" xlink:title=" ">
<polygon fill="white" stroke="#666666" points="1056.73,-132 951.48,-132 951.48,-112 1056.73,-112 1056.73,-132"/>
<text text-anchor="middle" x="1004.1" y="-118.5" font-family="Helvetica,sans-Serif" font-size="10.00">src/RenderState.cpp</text>
</a>
</g>
</g>
<!-- Node15&#45;&gt;Node16 -->
<g id="edge33_Node000015_Node000016" class="edge">
<title>Node15&#45;&gt;Node16</title>
<g id="a_edge33_Node000015_Node000016"><a xlink:title=" ">
<path fill="none" stroke="#63b8ff" d="M883.61,-163.92C912.2,-154.21 950.51,-141.2 976.19,-132.48"/>
<polygon fill="#63b8ff" stroke="#63b8ff" points="882.57,-160.58 874.23,-167.11 884.82,-167.21 882.57,-160.58"/>
</a>
</g>
</g>
<!-- Node18 -->
<g id="Node000018" class="node">
<title>Node18</title>
<g id="a_Node000018"><a xlink:href="_scene_8cpp.html" target="_top" xlink:title=" ">
<polygon fill="white" stroke="#666666" points="933.6,-132 854.6,-132 854.6,-112 933.6,-112 933.6,-132"/>
<text text-anchor="middle" x="894.1" y="-118.5" font-family="Helvetica,sans-Serif" font-size="10.00">src/Scene.cpp</text>
</a>
</g>
</g>
<!-- Node17&#45;&gt;Node18 -->
<g id="edge35_Node000017_Node000018" class="edge">
<title>Node17&#45;&gt;Node18</title>
<g id="a_edge35_Node000017_Node000018"><a xlink:title=" ">
<path fill="none" stroke="#63b8ff" d="M781.55,-163.79C808.29,-154.1 843.99,-141.16 867.94,-132.48"/>
<polygon fill="#63b8ff" stroke="#63b8ff" points="780.69,-160.38 772.48,-167.08 783.07,-166.96 780.69,-160.38"/>
</a>
</g>
</g>
<!-- Node19&#45;&gt;Node1 -->
<g id="edge37_Node000019_Node000001" class="edge">
<title>Node19&#45;&gt;Node1</title>
<g id="a_edge37_Node000019_Node000001"><a xlink:title=" ">
<path fill="none" stroke="#63b8ff" d="M1096.73,-191.12C1004.97,-213.21 812.39,-259.57 729.46,-279.53"/>
<polygon fill="#63b8ff" stroke="#63b8ff" points="1097.3,-194.59 1106.2,-188.84 1095.66,-187.78 1097.3,-194.59"/>
</a>
</g>
</g>
<!-- Node20 -->
<g id="Node000020" class="node">
<title>Node20</title>
<g id="a_Node000020"><a xlink:href="_shader_manager_8cpp.html" target="_top" xlink:title=" ">
<polygon fill="white" stroke="#666666" points="1330.85,-132 1211.35,-132 1211.35,-112 1330.85,-112 1330.85,-132"/>
<text text-anchor="middle" x="1271.1" y="-118.5" font-family="Helvetica,sans-Serif" font-size="10.00">src/ShaderManager.cpp</text>
</a>
</g>
</g>
<!-- Node19&#45;&gt;Node20 -->
<g id="edge38_Node000019_Node000020" class="edge">
<title>Node19&#45;&gt;Node20</title>
<g id="a_edge38_Node000019_Node000020"><a xlink:title=" ">
<path fill="none" stroke="#63b8ff" d="M1179.23,-163.01C1201.27,-153.41 1229.93,-140.93 1249.33,-132.48"/>
<polygon fill="#63b8ff" stroke="#63b8ff" points="1177.86,-159.79 1170.09,-166.99 1180.65,-166.21 1177.86,-159.79"/>
</a>
</g>
</g>
<!-- Node21&#45;&gt;Node1 -->
<g id="edge40_Node000021_Node000001" class="edge">
<title>Node21&#45;&gt;Node1</title>
<g id="a_edge40_Node000021_Node000001"><a xlink:title=" ">
<path fill="none" stroke="#63b8ff" d="M981.06,-192.01C913.8,-214.43 777.61,-259.83 718.52,-279.53"/>
<polygon fill="#63b8ff" stroke="#63b8ff" points="981.82,-195.45 990.2,-188.97 979.6,-188.81 981.82,-195.45"/>
</a>
</g>
</g>
<!-- Node21&#45;&gt;Node3 -->
<g id="edge41_Node000021_Node000003" class="edge">
<title>Node21&#45;&gt;Node3</title>
<g id="a_edge41_Node000021_Node000003"><a xlink:title=" ">
<path fill="none" stroke="#63b8ff" d="M956.54,-190.32C893.02,-201 796.86,-216.69 739.04,-225.77"/>
<polygon fill="#63b8ff" stroke="#63b8ff" points="956.84,-193.82 966.12,-188.7 955.67,-186.92 956.84,-193.82"/>
</a>
</g>
</g>
<!-- Node21&#45;&gt;Node12 -->
<g id="edge42_Node000021_Node000012" class="edge">
<title>Node21&#45;&gt;Node12</title>
<g id="a_edge42_Node000021_Node000012"><a xlink:title=" ">
<path fill="none" stroke="#63b8ff" d="M1085.89,-167.86C1263.81,-147.92 1311.58,-156.7 1485.1,-132 1487.68,-131.63 1490.33,-131.22 1493,-130.77"/>
<polygon fill="#63b8ff" stroke="#63b8ff" points="1085.59,-164.38 1076.05,-168.98 1086.38,-171.33 1085.59,-164.38"/>
</a>
</g>
</g>
<!-- Node22 -->
<g id="Node000022" class="node">
<title>Node22</title>
<g id="a_Node000022"><a xlink:href="_shader_program_8cpp.html" target="_top" xlink:title=" ">
<polygon fill="white" stroke="#666666" points="1193.48,-132 1074.73,-132 1074.73,-112 1193.48,-112 1193.48,-132"/>
<text text-anchor="middle" x="1134.1" y="-118.5" font-family="Helvetica,sans-Serif" font-size="10.00">src/ShaderProgram.cpp</text>
</a>
</g>
</g>
<!-- Node21&#45;&gt;Node22 -->
<g id="edge43_Node000021_Node000022" class="edge">
<title>Node21&#45;&gt;Node22</title>
<g id="a_edge43_Node000021_Node000022"><a xlink:title=" ">
<path fill="none" stroke="#63b8ff" d="M1050.19,-162.75C1070.38,-153.18 1096.41,-140.85 1114.09,-132.48"/>
<polygon fill="#63b8ff" stroke="#63b8ff" points="1048.87,-159.5 1041.33,-166.95 1051.86,-165.83 1048.87,-159.5"/>
</a>
</g>
</g>
<!-- Node23&#45;&gt;Node3 -->
<g id="edge45_Node000023_Node000003" class="edge">
<title>Node23&#45;&gt;Node3</title>
<g id="a_edge45_Node000023_Node000003"><a xlink:title=" ">
<path fill="none" stroke="#63b8ff" d="M1208.17,-189.3C1034.28,-208.17 830.77,-223.59 739.07,-229.91"/>
<polygon fill="#63b8ff" stroke="#63b8ff" points="1208.52,-192.79 1218.08,-188.22 1207.76,-185.83 1208.52,-192.79"/>
</a>
</g>
</g>
<!-- Node24 -->
<g id="Node000024" class="node">
<title>Node24</title>
<g id="a_Node000024"><a xlink:href="_win32_application_8cpp.html" target="_top" xlink:title=" ">
<polygon fill="white" stroke="#666666" points="1475.6,-132 1348.6,-132 1348.6,-112 1475.6,-112 1475.6,-132"/>
<text text-anchor="middle" x="1412.1" y="-118.5" font-family="Helvetica,sans-Serif" font-size="10.00">src/Win32Application.cpp</text>
</a>
</g>
</g>
<!-- Node23&#45;&gt;Node24 -->
<g id="edge46_Node000023_Node000024" class="edge">
<title>Node23&#45;&gt;Node24</title>
<g id="a_edge46_Node000023_Node000024"><a xlink:title=" ">
<path fill="none" stroke="#63b8ff" d="M1311.84,-163.4C1335.79,-153.75 1367.32,-141.05 1388.58,-132.48"/>
<polygon fill="#63b8ff" stroke="#63b8ff" points="1310.81,-160.04 1302.85,-167.03 1313.43,-166.54 1310.81,-160.04"/>
</a>
</g>
</g>
<!-- Node25&#45;&gt;Node2 -->
<g id="edge49_Node000025_Node000002" class="edge">
<title>Node25&#45;&gt;Node2</title>
<g id="a_edge49_Node000025_Node000002"><a xlink:title=" ">
<path fill="none" stroke="#63b8ff" d="M624.2,-172.77C535.26,-163.33 320.31,-140.53 215.11,-129.37"/>
<polygon fill="#63b8ff" stroke="#63b8ff" points="623.83,-176.25 634.14,-173.82 624.56,-169.29 623.83,-176.25"/>
</a>
</g>
</g>
<!-- Node25&#45;&gt;Node5 -->
<g id="edge48_Node000025_Node000005" class="edge">
<title>Node25&#45;&gt;Node5</title>
<g id="a_edge48_Node000025_Node000005"><a xlink:title=" ">
<path fill="none" stroke="#63b8ff" d="M624.61,-166.12C588.85,-156.27 536.7,-141.9 502.58,-132.5"/>
<polygon fill="#63b8ff" stroke="#63b8ff" points="623.57,-169.46 634.14,-168.75 625.43,-162.72 623.57,-169.46"/>
</a>
</g>
</g>
<!-- Node25&#45;&gt;Node6 -->
<g id="edge50_Node000025_Node000006" class="edge">
<title>Node25&#45;&gt;Node6</title>
<g id="a_edge50_Node000025_Node000006"><a xlink:title=" ">
<path fill="none" stroke="#63b8ff" d="M640.22,-161.27C626.05,-151.94 608.57,-140.43 596.5,-132.48"/>
<polygon fill="#63b8ff" stroke="#63b8ff" points="638.28,-164.18 648.55,-166.76 642.13,-158.34 638.28,-164.18"/>
</a>
</g>
</g>
<!-- Node25&#45;&gt;Node8 -->
<g id="edge51_Node000025_Node000008" class="edge">
<title>Node25&#45;&gt;Node8</title>
<g id="a_edge51_Node000025_Node000008"><a xlink:title=" ">
<path fill="none" stroke="#63b8ff" d="M624.31,-170.2C568.48,-160.66 466.65,-143.26 403.45,-132.46"/>
<polygon fill="#63b8ff" stroke="#63b8ff" points="623.56,-173.62 634.01,-171.86 624.74,-166.72 623.56,-173.62"/>
</a>
</g>
</g>
<!-- Node25&#45;&gt;Node10 -->
<g id="edge53_Node000025_Node000010" class="edge">
<title>Node25&#45;&gt;Node10</title>
<g id="a_edge53_Node000025_Node000010"><a xlink:title=" ">
<path fill="none" stroke="#63b8ff" d="M663.34,-156.25C661.69,-141.87 657.14,-123.35 645.1,-112 630.22,-97.97 347.04,-39.66 243.01,-18.62"/>
<polygon fill="#63b8ff" stroke="#63b8ff" points="659.83,-156.3 664.05,-166.02 666.81,-155.79 659.83,-156.3"/>
</a>
</g>
</g>
<!-- Node25&#45;&gt;Node11 -->
<g id="edge54_Node000025_Node000011" class="edge">
<title>Node25&#45;&gt;Node11</title>
<g id="a_edge54_Node000025_Node000011"><a xlink:title=" ">
<path fill="none" stroke="#63b8ff" d="M703.2,-165.24C729.72,-156.38 761.33,-143.79 769.1,-132 773.99,-124.58 773.44,-119.76 769.1,-112 745.94,-70.54 722.95,-71.61 678.1,-56 559.36,-14.67 408.42,-9.89 338.25,-10.18"/>
<polygon fill="#63b8ff" stroke="#63b8ff" points="702.47,-161.8 694.04,-168.21 704.63,-168.46 702.47,-161.8"/>
</a>
</g>
</g>
<!-- Node25&#45;&gt;Node13 -->
<g id="edge52_Node000025_Node000013" class="edge">
<title>Node25&#45;&gt;Node13</title>
<g id="a_edge52_Node000025_Node000013"><a xlink:title=" ">
<path fill="none" stroke="#63b8ff" d="M703.59,-165.41C731.41,-156.93 769.38,-144.72 802.1,-132 822.12,-124.21 825.44,-117.88 846.1,-112 953.33,-81.46 1085.04,-71.6 1151.83,-68.45"/>
<polygon fill="#63b8ff" stroke="#63b8ff" points="702.72,-162.01 694.16,-168.25 704.74,-168.71 702.72,-162.01"/>
</a>
</g>
</g>
<!-- Node25&#45;&gt;Node16 -->
<g id="edge55_Node000025_Node000016" class="edge">
<title>Node25&#45;&gt;Node16</title>
<g id="a_edge55_Node000025_Node000016"><a xlink:title=" ">
<path fill="none" stroke="#63b8ff" d="M703.92,-168.03C744.77,-161.41 876.23,-141.92 951.09,-130.84"/>
<polygon fill="#63b8ff" stroke="#63b8ff" points="703.43,-164.56 694.17,-169.7 704.62,-171.46 703.43,-164.56"/>
</a>
</g>
</g>
<!-- Node25&#45;&gt;Node18 -->
<g id="edge56_Node000025_Node000018" class="edge">
<title>Node25&#45;&gt;Node18</title>
<g id="a_edge56_Node000025_Node000018"><a xlink:title=" ">
<path fill="none" stroke="#63b8ff" d="M703.62,-167.65C761.8,-153.94 817.82,-140.83 854.38,-132.28"/>
<polygon fill="#63b8ff" stroke="#63b8ff" points="703.14,-164.16 694.21,-169.86 704.74,-170.98 703.14,-164.16"/>
</a>
</g>
</g>
<!-- Node25&#45;&gt;Node20 -->
<g id="edge57_Node000025_Node000020" class="edge">
<title>Node25&#45;&gt;Node20</title>
<g id="a_edge57_Node000025_Node000020"><a xlink:title=" ">
<path fill="none" stroke="#63b8ff" d="M703.94,-168C924.3,-134.88 984.11,-154.05 1202.1,-132 1204.99,-131.71 1207.94,-131.39 1210.91,-131.06"/>
<polygon fill="#63b8ff" stroke="#63b8ff" points="703.49,-164.53 694.13,-169.49 704.55,-171.45 703.49,-164.53"/>
</a>
</g>
</g>
<!-- Node25&#45;&gt;Node22 -->
<g id="edge58_Node000025_Node000022" class="edge">
<title>Node25&#45;&gt;Node22</title>
<g id="a_edge58_Node000025_Node000022"><a xlink:title=" ">
<path fill="none" stroke="#63b8ff" d="M703.9,-167.93C864.4,-141.62 908.24,-150.25 1066.1,-132 1068.82,-131.69 1071.6,-131.35 1074.41,-131.01"/>
<polygon fill="#63b8ff" stroke="#63b8ff" points="703.44,-164.46 694.14,-169.56 704.58,-171.37 703.44,-164.46"/>
</a>
</g>
</g>
<!-- Node25&#45;&gt;Node24 -->
<g id="edge59_Node000025_Node000024" class="edge">
<title>Node25&#45;&gt;Node24</title>
<g id="a_edge59_Node000025_Node000024"><a xlink:title=" ">
<path fill="none" stroke="#63b8ff" d="M704.01,-168.03C985.14,-127.91 1060.98,-157.29 1340.1,-132 1342.74,-131.76 1345.42,-131.5 1348.14,-131.22"/>
<polygon fill="#63b8ff" stroke="#63b8ff" points="703.52,-164.56 694.13,-169.46 704.53,-171.49 703.52,-164.56"/>
</a>
</g>
</g>
<!-- Node26 -->
<g id="Node000026" class="node">
<title>Node26</title>
<g id="a_Node000026"><a xlink:href="pch_8cpp.html" target="_top" xlink:title=" ">
<polygon fill="white" stroke="#666666" points="759.6,-132 692.6,-132 692.6,-112 759.6,-112 759.6,-132"/>
<text text-anchor="middle" x="726.1" y="-118.5" font-family="Helvetica,sans-Serif" font-size="10.00">src/pch.cpp</text>
</a>
</g>
</g>
<!-- Node25&#45;&gt;Node26 -->
<g id="edge60_Node000025_Node000026" class="edge">
<title>Node25&#45;&gt;Node26</title>
<g id="a_edge60_Node000025_Node000026"><a xlink:title=" ">
<path fill="none" stroke="#63b8ff" d="M683.48,-160.13C694.02,-150.94 706.66,-139.93 715.43,-132.3"/>
<polygon fill="#63b8ff" stroke="#63b8ff" points="681.28,-157.39 676.04,-166.6 685.88,-162.67 681.28,-157.39"/>
</a>
</g>
</g>
</g>
</svg>

<g id="navigator" transform="translate(0 0)" fill="#404254">
  <rect fill="#f2f5e9" fill-opacity="0.5" stroke="#606060" stroke-width=".5" x="0" y="0" width="60" height="60"/>
  <use id="zoomplus" xlink:href="#zoomPlus" x="17" y="9" onmousedown="handleZoom(evt,'in')"/>
  <use id="zoomminus" xlink:href="#zoomMin" x="42" y="9" onmousedown="handleZoom(evt,'out')"/>
  <use id="reset" xlink:href="#resetDef" x="30" y="36" onmousedown="handleReset()"/>
   <use id="arrowup" xlink:href="#arrowUp" x="0" y="0" onmousedown="handlePan(0,-1)"/>
  <use id="arrowright" xlink:href="#arrowRight" x="0" y="0" onmousedown="handlePan(1,0)"/>
  <use id="arrowdown" xlink:href="#arrowDown" x="0" y="0" onmousedown="handlePan(0,1)"/>
  <use id="arrowleft" xlink:href="#arrowLeft" x="0" y="0" onmousedown="handlePan(-1,0)"/>
</g>
<svg viewBox="0 0 15 15" width="100%" height="30px" preserveAspectRatio="xMaxYMin meet">
 <g id="arrow_out" transform="scale(0.3 0.3)">
  <a xlink:href="_direct_x_manager_8h__dep__incl_org.svg" target="_base">
   <rect id="button" ry="5" rx="5" y="6" x="6" height="38" width="38"
        fill="#f2f5e9" fill-opacity="0.5" stroke="#606060" stroke-width="1.0"/>
   <path id="arrow"
     d="M 11.500037,31.436501 C 11.940474,20.09759 22.043105,11.32322 32.158766,21.979434 L 37.068811,17.246167 C 37.068811,17.246167 37.088388,32 37.088388,32 L 22.160133,31.978069 C 22.160133,31.978069 26.997745,27.140456 26.997745,27.140456 C 18.528582,18.264221 13.291696,25.230495 11.500037,31.436501 z"
     style="fill:#404040;"/>
  </a>
 </g>
</svg>

<style type='text/css'>
<![CDATA[
[data-mouse-over-selected='false'] { opacity: 0.7; }
[data-mouse-over-selected='true']  { opacity: 1.0; }
]]>
</style>
<script type="application/ecmascript"><![CDATA[
document.addEventListener('DOMContentLoaded', (event) => {
  highlightEdges();
  highlightAdjacentNodes();
});
]]></script>
</svg>
