<?xml version="1.0" encoding="UTF-8" standalone="no"?>
<!DOCTYPE svg PUBLIC "-//W3C//DTD SVG 1.1//EN"
 "http://www.w3.org/Graphics/SVG/1.1/DTD/svg11.dtd">
<!-- Generated by graphviz version 9.0.0 (20230911.1827)
 -->
<!-- Title: src/DirectXManager.cpp Pages: 1 -->
<svg width="2886pt" height="420pt"
 viewBox="0.00 0.00 2885.75 420.00" xmlns="http://www.w3.org/2000/svg" xmlns:xlink="http://www.w3.org/1999/xlink">
<g id="graph0" class="graph" transform="scale(1 1) rotate(0) translate(4 416)">
<title>src/DirectXManager.cpp</title>
<!-- Node1 -->
<g id="Node000001" class="node">
<title>Node1</title>
<g id="a_Node000001"><a xlink:title=" ">
<polygon fill="#999999" stroke="#666666" points="2408.5,-412 2289,-412 2289,-392 2408.5,-392 2408.5,-412"/>
<text text-anchor="middle" x="2348.75" y="-398.5" font-family="Helvetica,sans-Serif" font-size="10.00">src/DirectXManager.cpp</text>
</a>
</g>
</g>
<!-- Node2 -->
<g id="Node000002" class="node">
<title>Node2</title>
<g id="a_Node000002"><a xlink:href="pch_8h.html" target="_top" xlink:title=" ">
<polygon fill="white" stroke="#666666" points="2344.75,-356 2304.75,-356 2304.75,-336 2344.75,-336 2344.75,-356"/>
<text text-anchor="middle" x="2324.75" y="-342.5" font-family="Helvetica,sans-Serif" font-size="10.00">pch.h</text>
</a>
</g>
</g>
<!-- Node1&#45;&gt;Node2 -->
<g id="edge1_Node000001_Node000002" class="edge">
<title>Node1&#45;&gt;Node2</title>
<g id="a_edge1_Node000001_Node000002"><a xlink:title=" ">
<path fill="none" stroke="#63b8ff" d="M2344.57,-391.59C2341.51,-384.7 2337.24,-375.1 2333.45,-366.57"/>
<polygon fill="#63b8ff" stroke="#63b8ff" points="2336.76,-365.4 2329.5,-357.68 2330.36,-368.24 2336.76,-365.4"/>
</a>
</g>
</g>
<!-- Node32 -->
<g id="Node000032" class="node">
<title>Node32</title>
<g id="a_Node000032"><a xlink:href="_direct_x_manager_8h.html" target="_top" xlink:title=" ">
<polygon fill="white" stroke="#666666" points="2462,-188 2369.5,-188 2369.5,-168 2462,-168 2462,-188"/>
<text text-anchor="middle" x="2415.75" y="-174.5" font-family="Helvetica,sans-Serif" font-size="10.00">DirectXManager.h</text>
</a>
</g>
</g>
<!-- Node1&#45;&gt;Node32 -->
<g id="edge62_Node000001_Node000032" class="edge">
<title>Node1&#45;&gt;Node32</title>
<g id="a_edge62_Node000001_Node000032"><a xlink:title=" ">
<path fill="none" stroke="#63b8ff" d="M2408.72,-394.65C2492.52,-382.18 2641.89,-346.11 2708.75,-244 2713.62,-236.56 2714.54,-230.75 2708.75,-224 2679.1,-189.45 2550.5,-181.16 2473.87,-179.34"/>
<polygon fill="#63b8ff" stroke="#63b8ff" points="2474.08,-175.84 2464.01,-179.14 2473.94,-182.84 2474.08,-175.84"/>
</a>
</g>
</g>
<!-- Node3 -->
<g id="Node000003" class="node">
<title>Node3</title>
<g id="a_Node000003"><a xlink:href="_game_engine_8h.html" target="_top" xlink:title=" ">
<polygon fill="white" stroke="#666666" points="2010,-300 1929.5,-300 1929.5,-280 2010,-280 2010,-300"/>
<text text-anchor="middle" x="1969.75" y="-286.5" font-family="Helvetica,sans-Serif" font-size="10.00">GameEngine.h</text>
</a>
</g>
</g>
<!-- Node2&#45;&gt;Node3 -->
<g id="edge2_Node000002_Node000003" class="edge">
<title>Node2&#45;&gt;Node3</title>
<g id="a_edge2_Node000002_Node000003"><a xlink:title=" ">
<path fill="none" stroke="#63b8ff" d="M2304.39,-341.9C2250.19,-333.66 2101.09,-310.98 2021.47,-298.87"/>
<polygon fill="#63b8ff" stroke="#63b8ff" points="2022.15,-295.43 2011.74,-297.39 2021.1,-302.35 2022.15,-295.43"/>
</a>
</g>
</g>
<!-- Node4 -->
<g id="Node000004" class="node">
<title>Node4</title>
<g id="a_Node000004"><a xlink:title=" ">
<polygon fill="#e0e0e0" stroke="#999999" points="2254.62,-244 2174.88,-244 2174.88,-224 2254.62,-224 2254.62,-244"/>
<text text-anchor="middle" x="2214.75" y="-230.5" font-family="Helvetica,sans-Serif" font-size="10.00">SDKDDKVer.h</text>
</a>
</g>
</g>
<!-- Node3&#45;&gt;Node4 -->
<g id="edge3_Node000003_Node000004" class="edge">
<title>Node3&#45;&gt;Node4</title>
<g id="a_edge3_Node000003_Node000004"><a xlink:title=" ">
<path fill="none" stroke="#63b8ff" d="M2010.48,-280.02C2052.5,-270.76 2118.15,-256.29 2163.63,-246.27"/>
<polygon fill="#63b8ff" stroke="#63b8ff" points="2164.24,-249.72 2173.26,-244.15 2162.74,-242.88 2164.24,-249.72"/>
</a>
</g>
</g>
<!-- Node5 -->
<g id="Node000005" class="node">
<title>Node5</title>
<g id="a_Node000005"><a xlink:title=" ">
<polygon fill="#e0e0e0" stroke="#999999" points="2390.25,-244 2329.25,-244 2329.25,-224 2390.25,-224 2390.25,-244"/>
<text text-anchor="middle" x="2359.75" y="-230.5" font-family="Helvetica,sans-Serif" font-size="10.00">windows.h</text>
</a>
</g>
</g>
<!-- Node3&#45;&gt;Node5 -->
<g id="edge4_Node000003_Node000005" class="edge">
<title>Node3&#45;&gt;Node5</title>
<g id="a_edge4_Node000003_Node000005"><a xlink:title=" ">
<path fill="none" stroke="#63b8ff" d="M2010.25,-284.62C2074.84,-277.43 2205.09,-262.1 2314.75,-244 2315.75,-243.84 2316.76,-243.67 2317.77,-243.49"/>
<polygon fill="#63b8ff" stroke="#63b8ff" points="2318.12,-246.98 2327.33,-241.75 2316.86,-240.1 2318.12,-246.98"/>
</a>
</g>
</g>
<!-- Node6 -->
<g id="Node000006" class="node">
<title>Node6</title>
<g id="a_Node000006"><a xlink:title=" ">
<polygon fill="#e0e0e0" stroke="#999999" points="2455.5,-244 2408,-244 2408,-224 2455.5,-224 2455.5,-244"/>
<text text-anchor="middle" x="2431.75" y="-230.5" font-family="Helvetica,sans-Serif" font-size="10.00">stdlib.h</text>
</a>
</g>
</g>
<!-- Node3&#45;&gt;Node6 -->
<g id="edge5_Node000003_Node000006" class="edge">
<title>Node3&#45;&gt;Node6</title>
<g id="a_edge5_Node000003_Node000006"><a xlink:title=" ">
<path fill="none" stroke="#63b8ff" d="M2010.4,-287.05C2085.23,-282.97 2249.91,-271.68 2396.75,-244.31"/>
<polygon fill="#63b8ff" stroke="#63b8ff" points="2397.08,-247.81 2406.25,-242.51 2395.78,-240.93 2397.08,-247.81"/>
</a>
</g>
</g>
<!-- Node7 -->
<g id="Node000007" class="node">
<title>Node7</title>
<g id="a_Node000007"><a xlink:title=" ">
<polygon fill="#e0e0e0" stroke="#999999" points="2700.12,-244 2647.38,-244 2647.38,-224 2700.12,-224 2700.12,-244"/>
<text text-anchor="middle" x="2673.75" y="-230.5" font-family="Helvetica,sans-Serif" font-size="10.00">malloc.h</text>
</a>
</g>
</g>
<!-- Node3&#45;&gt;Node7 -->
<g id="edge6_Node000003_Node000007" class="edge">
<title>Node3&#45;&gt;Node7</title>
<g id="a_edge6_Node000003_Node000007"><a xlink:title=" ">
<path fill="none" stroke="#63b8ff" d="M2010.4,-288.41C2114.57,-286.45 2399.36,-278.11 2633.75,-244 2634.57,-243.88 2635.4,-243.75 2636.23,-243.62"/>
<polygon fill="#63b8ff" stroke="#63b8ff" points="2636.5,-247.13 2645.69,-241.85 2635.22,-240.25 2636.5,-247.13"/>
</a>
</g>
</g>
<!-- Node8 -->
<g id="Node000008" class="node">
<title>Node8</title>
<g id="a_Node000008"><a xlink:title=" ">
<polygon fill="#e0e0e0" stroke="#999999" points="59.5,-244 0,-244 0,-224 59.5,-224 59.5,-244"/>
<text text-anchor="middle" x="29.75" y="-230.5" font-family="Helvetica,sans-Serif" font-size="10.00">memory.h</text>
</a>
</g>
</g>
<!-- Node3&#45;&gt;Node8 -->
<g id="edge7_Node000003_Node000008" class="edge">
<title>Node3&#45;&gt;Node8</title>
<g id="a_edge7_Node000003_Node000008"><a xlink:title=" ">
<path fill="none" stroke="#63b8ff" d="M1929.34,-289.16C1691.42,-289.94 470.42,-291.57 71.16,-243.97"/>
<polygon fill="#63b8ff" stroke="#63b8ff" points="71.73,-240.52 61.38,-242.77 70.88,-247.47 71.73,-240.52"/>
</a>
</g>
</g>
<!-- Node9 -->
<g id="Node000009" class="node">
<title>Node9</title>
<g id="a_Node000009"><a xlink:title=" ">
<polygon fill="#e0e0e0" stroke="#999999" points="123.75,-244 77.75,-244 77.75,-224 123.75,-224 123.75,-244"/>
<text text-anchor="middle" x="100.75" y="-230.5" font-family="Helvetica,sans-Serif" font-size="10.00">tchar.h</text>
</a>
</g>
</g>
<!-- Node3&#45;&gt;Node9 -->
<g id="edge8_Node000003_Node000009" class="edge">
<title>Node3&#45;&gt;Node9</title>
<g id="a_edge8_Node000003_Node000009"><a xlink:title=" ">
<path fill="none" stroke="#63b8ff" d="M1929.17,-288.61C1680.22,-286.16 363.19,-272.04 135.2,-243.8"/>
<polygon fill="#63b8ff" stroke="#63b8ff" points="135.9,-240.36 125.52,-242.48 134.95,-247.3 135.9,-240.36"/>
</a>
</g>
</g>
<!-- Node10 -->
<g id="Node000010" class="node">
<title>Node10</title>
<g id="a_Node000010"><a xlink:title=" ">
<polygon fill="#e0e0e0" stroke="#999999" points="203.62,-244 141.88,-244 141.88,-224 203.62,-224 203.62,-244"/>
<text text-anchor="middle" x="172.75" y="-230.5" font-family="Helvetica,sans-Serif" font-size="10.00">resource.h</text>
</a>
</g>
</g>
<!-- Node3&#45;&gt;Node10 -->
<g id="edge9_Node000003_Node000010" class="edge">
<title>Node3&#45;&gt;Node10</title>
<g id="a_edge9_Node000003_Node000010"><a xlink:title=" ">
<path fill="none" stroke="#63b8ff" d="M1929.09,-289.04C1701.6,-289.1 583.86,-287.21 215.3,-244.02"/>
<polygon fill="#63b8ff" stroke="#63b8ff" points="215.94,-240.57 205.59,-242.84 215.1,-247.52 215.94,-240.57"/>
</a>
</g>
</g>
<!-- Node11 -->
<g id="Node000011" class="node">
<title>Node11</title>
<g id="a_Node000011"><a xlink:title=" ">
<polygon fill="#e0e0e0" stroke="#999999" points="267.38,-244 222.12,-244 222.12,-224 267.38,-224 267.38,-244"/>
<text text-anchor="middle" x="244.75" y="-230.5" font-family="Helvetica,sans-Serif" font-size="10.00">chrono</text>
</a>
</g>
</g>
<!-- Node3&#45;&gt;Node11 -->
<g id="edge10_Node000003_Node000011" class="edge">
<title>Node3&#45;&gt;Node11</title>
<g id="a_edge10_Node000003_Node000011"><a xlink:title=" ">
<path fill="none" stroke="#63b8ff" d="M1929.24,-288.54C1692.43,-285.8 490.65,-270.74 278.83,-243.92"/>
<polygon fill="#63b8ff" stroke="#63b8ff" points="279.51,-240.49 269.12,-242.56 278.54,-247.42 279.51,-240.49"/>
</a>
</g>
</g>
<!-- Node12 -->
<g id="Node000012" class="node">
<title>Node12</title>
<g id="a_Node000012"><a xlink:title=" ">
<polygon fill="#e0e0e0" stroke="#999999" points="326.5,-244 285,-244 285,-224 326.5,-224 326.5,-244"/>
<text text-anchor="middle" x="305.75" y="-230.5" font-family="Helvetica,sans-Serif" font-size="10.00">vector</text>
</a>
</g>
</g>
<!-- Node3&#45;&gt;Node12 -->
<g id="edge11_Node000003_Node000012" class="edge">
<title>Node3&#45;&gt;Node12</title>
<g id="a_edge11_Node000003_Node000012"><a xlink:title=" ">
<path fill="none" stroke="#63b8ff" d="M1929.15,-288.52C1697.22,-285.71 543.54,-270.58 338.03,-243.72"/>
<polygon fill="#63b8ff" stroke="#63b8ff" points="338.79,-240.29 328.39,-242.31 337.78,-247.22 338.79,-240.29"/>
</a>
</g>
</g>
<!-- Node13 -->
<g id="Node000013" class="node">
<title>Node13</title>
<g id="a_Node000013"><a xlink:title=" ">
<polygon fill="#e0e0e0" stroke="#999999" points="398.5,-244 345,-244 345,-224 398.5,-224 398.5,-244"/>
<text text-anchor="middle" x="371.75" y="-230.5" font-family="Helvetica,sans-Serif" font-size="10.00">iostream</text>
</a>
</g>
</g>
<!-- Node3&#45;&gt;Node13 -->
<g id="edge12_Node000003_Node000013" class="edge">
<title>Node3&#45;&gt;Node13</title>
<g id="a_edge12_Node000003_Node000013"><a xlink:title=" ">
<path fill="none" stroke="#63b8ff" d="M1929.13,-289.02C1717.38,-288.93 737.64,-286.29 410.13,-243.94"/>
<polygon fill="#63b8ff" stroke="#63b8ff" points="410.63,-240.48 400.25,-242.62 409.7,-247.41 410.63,-240.48"/>
</a>
</g>
</g>
<!-- Node14 -->
<g id="Node000014" class="node">
<title>Node14</title>
<g id="a_Node000014"><a xlink:title=" ">
<polygon fill="#e0e0e0" stroke="#999999" points="464.88,-244 416.62,-244 416.62,-224 464.88,-224 464.88,-244"/>
<text text-anchor="middle" x="440.75" y="-230.5" font-family="Helvetica,sans-Serif" font-size="10.00">fstream</text>
</a>
</g>
</g>
<!-- Node3&#45;&gt;Node14 -->
<g id="edge13_Node000003_Node000014" class="edge">
<title>Node3&#45;&gt;Node14</title>
<g id="a_edge13_Node000003_Node000014"><a xlink:title=" ">
<path fill="none" stroke="#63b8ff" d="M1929.12,-289.07C1722.84,-289.25 789.26,-287.67 476.43,-243.98"/>
<polygon fill="#63b8ff" stroke="#63b8ff" points="477.02,-240.52 466.62,-242.55 476.01,-247.45 477.02,-240.52"/>
</a>
</g>
</g>
<!-- Node15 -->
<g id="Node000015" class="node">
<title>Node15</title>
<g id="a_Node000015"><a xlink:title=" ">
<polygon fill="#e0e0e0" stroke="#999999" points="542.88,-244 482.62,-244 482.62,-224 542.88,-224 542.88,-244"/>
<text text-anchor="middle" x="512.75" y="-230.5" font-family="Helvetica,sans-Serif" font-size="10.00">filesystem</text>
</a>
</g>
</g>
<!-- Node3&#45;&gt;Node15 -->
<g id="edge14_Node000003_Node000015" class="edge">
<title>Node3&#45;&gt;Node15</title>
<g id="a_edge14_Node000003_Node000015"><a xlink:title=" ">
<path fill="none" stroke="#63b8ff" d="M1929.29,-288.78C1730.07,-287.55 851.38,-280.19 554.47,-244.05"/>
<polygon fill="#63b8ff" stroke="#63b8ff" points="555.17,-240.61 544.81,-242.83 554.29,-247.56 555.17,-240.61"/>
</a>
</g>
</g>
<!-- Node16 -->
<g id="Node000016" class="node">
<title>Node16</title>
<g id="a_Node000016"><a xlink:title=" ">
<polygon fill="#e0e0e0" stroke="#999999" points="612.38,-244 561.12,-244 561.12,-224 612.38,-224 612.38,-244"/>
<text text-anchor="middle" x="586.75" y="-230.5" font-family="Helvetica,sans-Serif" font-size="10.00">sstream</text>
</a>
</g>
</g>
<!-- Node3&#45;&gt;Node16 -->
<g id="edge15_Node000003_Node000016" class="edge">
<title>Node3&#45;&gt;Node16</title>
<g id="a_edge15_Node000003_Node000016"><a xlink:title=" ">
<path fill="none" stroke="#63b8ff" d="M1929.02,-288.84C1735.36,-287.89 905.8,-281.73 623.63,-243.86"/>
<polygon fill="#63b8ff" stroke="#63b8ff" points="624.5,-240.45 614.12,-242.53 623.54,-247.38 624.5,-240.45"/>
</a>
</g>
</g>
<!-- Node17 -->
<g id="Node000017" class="node">
<title>Node17</title>
<g id="a_Node000017"><a xlink:title=" ">
<polygon fill="#e0e0e0" stroke="#999999" points="713.12,-244 630.38,-244 630.38,-224 713.12,-224 713.12,-244"/>
<text text-anchor="middle" x="671.75" y="-230.5" font-family="Helvetica,sans-Serif" font-size="10.00">unordered_map</text>
</a>
</g>
</g>
<!-- Node3&#45;&gt;Node17 -->
<g id="edge16_Node000003_Node000017" class="edge">
<title>Node3&#45;&gt;Node17</title>
<g id="a_edge16_Node000003_Node000017"><a xlink:title=" ">
<path fill="none" stroke="#63b8ff" d="M1929.05,-288.29C1744.87,-284.97 987.36,-270.04 724.81,-244.01"/>
<polygon fill="#63b8ff" stroke="#63b8ff" points="725.24,-240.53 714.94,-243 724.53,-247.5 725.24,-240.53"/>
</a>
</g>
</g>
<!-- Node18 -->
<g id="Node000018" class="node">
<title>Node18</title>
<g id="a_Node000018"><a xlink:title=" ">
<polygon fill="#e0e0e0" stroke="#999999" points="836,-244 731.5,-244 731.5,-224 836,-224 836,-244"/>
<text text-anchor="middle" x="783.75" y="-230.5" font-family="Helvetica,sans-Serif" font-size="10.00">assimp/Importer.hpp</text>
</a>
</g>
</g>
<!-- Node3&#45;&gt;Node18 -->
<g id="edge17_Node000003_Node000018" class="edge">
<title>Node3&#45;&gt;Node18</title>
<g id="a_edge17_Node000003_Node000018"><a xlink:title=" ">
<path fill="none" stroke="#63b8ff" d="M1929.07,-288.9C1783.82,-288.22 1277,-283.08 847.87,-244.08"/>
<polygon fill="#63b8ff" stroke="#63b8ff" points="848.26,-240.6 837.98,-243.17 847.62,-247.57 848.26,-240.6"/>
</a>
</g>
</g>
<!-- Node19 -->
<g id="Node000019" class="node">
<title>Node19</title>
<g id="a_Node000019"><a xlink:title=" ">
<polygon fill="#e0e0e0" stroke="#999999" points="939.25,-244 854.25,-244 854.25,-224 939.25,-224 939.25,-244"/>
<text text-anchor="middle" x="896.75" y="-230.5" font-family="Helvetica,sans-Serif" font-size="10.00">assimp/scene.h</text>
</a>
</g>
</g>
<!-- Node3&#45;&gt;Node19 -->
<g id="edge18_Node000003_Node000019" class="edge">
<title>Node3&#45;&gt;Node19</title>
<g id="a_edge18_Node000003_Node000019"><a xlink:title=" ">
<path fill="none" stroke="#63b8ff" d="M1929.24,-289.06C1792.8,-288.89 1337.46,-285.13 950.95,-244.08"/>
<polygon fill="#63b8ff" stroke="#63b8ff" points="951.36,-240.6 941.04,-243.01 950.61,-247.56 951.36,-240.6"/>
</a>
</g>
</g>
<!-- Node20 -->
<g id="Node000020" class="node">
<title>Node20</title>
<g id="a_Node000020"><a xlink:title=" ">
<polygon fill="#e0e0e0" stroke="#999999" points="1069.75,-244 957.75,-244 957.75,-224 1069.75,-224 1069.75,-244"/>
<text text-anchor="middle" x="1013.75" y="-230.5" font-family="Helvetica,sans-Serif" font-size="10.00">assimp/postprocess.h</text>
</a>
</g>
</g>
<!-- Node3&#45;&gt;Node20 -->
<g id="edge19_Node000003_Node000020" class="edge">
<title>Node3&#45;&gt;Node20</title>
<g id="a_edge19_Node000003_Node000020"><a xlink:title=" ">
<path fill="none" stroke="#63b8ff" d="M1929.3,-288.18C1804.71,-285.39 1415.58,-274.75 1081.6,-244.08"/>
<polygon fill="#63b8ff" stroke="#63b8ff" points="1082.03,-240.6 1071.75,-243.16 1081.38,-247.57 1082.03,-240.6"/>
</a>
</g>
</g>
<!-- Node21 -->
<g id="Node000021" class="node">
<title>Node21</title>
<g id="a_Node000021"><a xlink:title=" ">
<polygon fill="#e0e0e0" stroke="#999999" points="1233.25,-244 1088.25,-244 1088.25,-224 1233.25,-224 1233.25,-244"/>
<text text-anchor="middle" x="1160.75" y="-230.5" font-family="Helvetica,sans-Serif" font-size="10.00">directxtk\WICTextureLoader.h</text>
</a>
</g>
</g>
<!-- Node3&#45;&gt;Node21 -->
<g id="edge20_Node000003_Node000021" class="edge">
<title>Node3&#45;&gt;Node21</title>
<g id="a_edge20_Node000003_Node000021"><a xlink:title=" ">
<path fill="none" stroke="#63b8ff" d="M1929.11,-287.16C1820.19,-282.09 1512.44,-266.82 1244.72,-244.13"/>
<polygon fill="#63b8ff" stroke="#63b8ff" points="1245.38,-240.67 1235.12,-243.31 1244.78,-247.64 1245.38,-240.67"/>
</a>
</g>
</g>
<!-- Node22 -->
<g id="Node000022" class="node">
<title>Node22</title>
<g id="a_Node000022"><a xlink:title=" ">
<polygon fill="#e0e0e0" stroke="#999999" points="1316.12,-244 1251.38,-244 1251.38,-224 1316.12,-224 1316.12,-244"/>
<text text-anchor="middle" x="1283.75" y="-230.5" font-family="Helvetica,sans-Serif" font-size="10.00">wincodec.h</text>
</a>
</g>
</g>
<!-- Node3&#45;&gt;Node22 -->
<g id="edge21_Node000003_Node000022" class="edge">
<title>Node3&#45;&gt;Node22</title>
<g id="a_edge21_Node000003_Node000022"><a xlink:title=" ">
<path fill="none" stroke="#63b8ff" d="M1929.16,-288.23C1828.68,-285.88 1560.25,-276.93 1327.41,-244.18"/>
<polygon fill="#63b8ff" stroke="#63b8ff" points="1328.24,-240.77 1317.84,-242.82 1327.25,-247.7 1328.24,-240.77"/>
</a>
</g>
</g>
<!-- Node23 -->
<g id="Node000023" class="node">
<title>Node23</title>
<g id="a_Node000023"><a xlink:title=" ">
<polygon fill="#e0e0e0" stroke="#999999" points="1391.75,-244 1333.75,-244 1333.75,-224 1391.75,-224 1391.75,-244"/>
<text text-anchor="middle" x="1362.75" y="-230.5" font-family="Helvetica,sans-Serif" font-size="10.00">lodepng.h</text>
</a>
</g>
</g>
<!-- Node3&#45;&gt;Node23 -->
<g id="edge22_Node000003_Node000023" class="edge">
<title>Node3&#45;&gt;Node23</title>
<g id="a_edge22_Node000003_Node000023"><a xlink:title=" ">
<path fill="none" stroke="#63b8ff" d="M1929.14,-287.93C1837.17,-285.04 1605.83,-275.22 1403.27,-244.16"/>
<polygon fill="#63b8ff" stroke="#63b8ff" points="1404.03,-240.74 1393.62,-242.66 1402.96,-247.66 1404.03,-240.74"/>
</a>
</g>
</g>
<!-- Node24 -->
<g id="Node000024" class="node">
<title>Node24</title>
<g id="a_Node000024"><a xlink:title=" ">
<polygon fill="#e0e0e0" stroke="#999999" points="1460,-244 1409.5,-244 1409.5,-224 1460,-224 1460,-244"/>
<text text-anchor="middle" x="1434.75" y="-230.5" font-family="Helvetica,sans-Serif" font-size="10.00">d3d11.h</text>
</a>
</g>
</g>
<!-- Node3&#45;&gt;Node24 -->
<g id="edge23_Node000003_Node000024" class="edge">
<title>Node3&#45;&gt;Node24</title>
<g id="a_edge23_Node000003_Node000024"><a xlink:title=" ">
<path fill="none" stroke="#63b8ff" d="M1929.28,-287.58C1845.62,-284.17 1647.5,-273.63 1471.55,-244"/>
<polygon fill="#63b8ff" stroke="#63b8ff" points="1472.2,-240.56 1461.75,-242.32 1471.02,-247.46 1472.2,-240.56"/>
</a>
</g>
</g>
<!-- Node25 -->
<g id="Node000025" class="node">
<title>Node25</title>
<g id="a_Node000025"><a xlink:title=" ">
<polygon fill="#e0e0e0" stroke="#999999" points="1555.12,-244 1478.38,-244 1478.38,-224 1555.12,-224 1555.12,-244"/>
<text text-anchor="middle" x="1516.75" y="-230.5" font-family="Helvetica,sans-Serif" font-size="10.00">DirectXMath.h</text>
</a>
</g>
</g>
<!-- Node3&#45;&gt;Node25 -->
<g id="edge24_Node000003_Node000025" class="edge">
<title>Node3&#45;&gt;Node25</title>
<g id="a_edge24_Node000003_Node000025"><a xlink:title=" ">
<path fill="none" stroke="#63b8ff" d="M1929.27,-285.58C1858.02,-279.33 1705.32,-264.9 1566.67,-244.34"/>
<polygon fill="#63b8ff" stroke="#63b8ff" points="1567.34,-240.9 1556.93,-242.88 1566.3,-247.83 1567.34,-240.9"/>
</a>
</g>
</g>
<!-- Node26 -->
<g id="Node000026" class="node">
<title>Node26</title>
<g id="a_Node000026"><a xlink:title=" ">
<polygon fill="#e0e0e0" stroke="#999999" points="1652.62,-244 1572.88,-244 1572.88,-224 1652.62,-224 1652.62,-244"/>
<text text-anchor="middle" x="1612.75" y="-230.5" font-family="Helvetica,sans-Serif" font-size="10.00">D3Dcompiler.h</text>
</a>
</g>
</g>
<!-- Node3&#45;&gt;Node26 -->
<g id="edge25_Node000003_Node000026" class="edge">
<title>Node3&#45;&gt;Node26</title>
<g id="a_edge25_Node000003_Node000026"><a xlink:title=" ">
<path fill="none" stroke="#63b8ff" d="M1929.32,-283.57C1872.51,-275.84 1765.55,-260.91 1664.45,-244.4"/>
<polygon fill="#63b8ff" stroke="#63b8ff" points="1665.03,-240.95 1654.6,-242.78 1663.9,-247.85 1665.03,-240.95"/>
</a>
</g>
</g>
<!-- Node27 -->
<g id="Node000027" class="node">
<title>Node27</title>
<g id="a_Node000027"><a xlink:title=" ">
<polygon fill="#e0e0e0" stroke="#999999" points="1726.62,-244 1670.88,-244 1670.88,-224 1726.62,-224 1726.62,-244"/>
<text text-anchor="middle" x="1698.75" y="-230.5" font-family="Helvetica,sans-Serif" font-size="10.00">d2d1_2.h</text>
</a>
</g>
</g>
<!-- Node3&#45;&gt;Node27 -->
<g id="edge26_Node000003_Node000027" class="edge">
<title>Node3&#45;&gt;Node27</title>
<g id="a_edge26_Node000003_Node000027"><a xlink:title=" ">
<path fill="none" stroke="#63b8ff" d="M1929.05,-281.79C1884.55,-273.78 1810.9,-260.11 1738.19,-244.45"/>
<polygon fill="#63b8ff" stroke="#63b8ff" points="1738.99,-241.04 1728.48,-242.34 1737.51,-247.88 1738.99,-241.04"/>
</a>
</g>
</g>
<!-- Node28 -->
<g id="Node000028" class="node">
<title>Node28</title>
<g id="a_Node000028"><a xlink:title=" ">
<polygon fill="#e0e0e0" stroke="#999999" points="1800.62,-244 1744.88,-244 1744.88,-224 1800.62,-224 1800.62,-244"/>
<text text-anchor="middle" x="1772.75" y="-230.5" font-family="Helvetica,sans-Serif" font-size="10.00">d2d1_1.h</text>
</a>
</g>
</g>
<!-- Node3&#45;&gt;Node28 -->
<g id="edge27_Node000003_Node000028" class="edge">
<title>Node3&#45;&gt;Node28</title>
<g id="a_edge27_Node000003_Node000028"><a xlink:title=" ">
<path fill="none" stroke="#63b8ff" d="M1935.44,-279.59C1901.02,-270.16 1848.08,-255.65 1812.01,-245.76"/>
<polygon fill="#63b8ff" stroke="#63b8ff" points="1812.97,-242.39 1802.4,-243.13 1811.11,-249.15 1812.97,-242.39"/>
</a>
</g>
</g>
<!-- Node29 -->
<g id="Node000029" class="node">
<title>Node29</title>
<g id="a_Node000029"><a xlink:title=" ">
<polygon fill="#e0e0e0" stroke="#999999" points="1864.38,-244 1819.12,-244 1819.12,-224 1864.38,-224 1864.38,-244"/>
<text text-anchor="middle" x="1841.75" y="-230.5" font-family="Helvetica,sans-Serif" font-size="10.00">d2d1.h</text>
</a>
</g>
</g>
<!-- Node3&#45;&gt;Node29 -->
<g id="edge28_Node000003_Node000029" class="edge">
<title>Node3&#45;&gt;Node29</title>
<g id="a_edge28_Node000003_Node000029"><a xlink:title=" ">
<path fill="none" stroke="#63b8ff" d="M1947.45,-279.59C1927.39,-271.13 1897.63,-258.58 1874.8,-248.94"/>
<polygon fill="#63b8ff" stroke="#63b8ff" points="1876.19,-245.73 1865.61,-245.07 1873.47,-252.18 1876.19,-245.73"/>
</a>
</g>
</g>
<!-- Node30 -->
<g id="Node000030" class="node">
<title>Node30</title>
<g id="a_Node000030"><a xlink:title=" ">
<polygon fill="#e0e0e0" stroke="#999999" points="1932.62,-244 1882.88,-244 1882.88,-224 1932.62,-224 1932.62,-244"/>
<text text-anchor="middle" x="1907.75" y="-230.5" font-family="Helvetica,sans-Serif" font-size="10.00">dwrite.h</text>
</a>
</g>
</g>
<!-- Node3&#45;&gt;Node30 -->
<g id="edge29_Node000003_Node000030" class="edge">
<title>Node3&#45;&gt;Node30</title>
<g id="a_edge29_Node000003_Node000030"><a xlink:title=" ">
<path fill="none" stroke="#63b8ff" d="M1958.95,-279.59C1950.15,-271.93 1937.5,-260.91 1926.98,-251.75"/>
<polygon fill="#63b8ff" stroke="#63b8ff" points="1929.41,-249.22 1919.57,-245.29 1924.81,-254.5 1929.41,-249.22"/>
</a>
</g>
</g>
<!-- Node31 -->
<g id="Node000031" class="node">
<title>Node31</title>
<g id="a_Node000031"><a xlink:href="_win32_application_8h.html" target="_top" xlink:title=" ">
<polygon fill="white" stroke="#666666" points="2573.75,-244 2473.75,-244 2473.75,-224 2573.75,-224 2573.75,-244"/>
<text text-anchor="middle" x="2523.75" y="-230.5" font-family="Helvetica,sans-Serif" font-size="10.00">Win32Application.h</text>
</a>
</g>
</g>
<!-- Node3&#45;&gt;Node31 -->
<g id="edge30_Node000003_Node000031" class="edge">
<title>Node3&#45;&gt;Node31</title>
<g id="a_edge30_Node000003_Node000031"><a xlink:title=" ">
<path fill="none" stroke="#63b8ff" d="M2010.4,-285.77C2094.06,-279.39 2290.85,-264.05 2455.75,-244 2457.78,-243.75 2459.85,-243.49 2461.95,-243.22"/>
<polygon fill="#63b8ff" stroke="#63b8ff" points="2462.37,-246.69 2471.8,-241.87 2461.42,-239.76 2462.37,-246.69"/>
</a>
</g>
</g>
<!-- Node3&#45;&gt;Node32 -->
<g id="edge54_Node000003_Node000032" class="edge">
<title>Node3&#45;&gt;Node32</title>
<g id="a_edge54_Node000003_Node000032"><a xlink:title=" ">
<path fill="none" stroke="#63b8ff" d="M2010.08,-285.52C2065.99,-280.31 2169.35,-268.37 2254.75,-244 2300,-231.09 2349.64,-208.05 2381.85,-193.16"/>
<polygon fill="#63b8ff" stroke="#63b8ff" points="2383.08,-196.44 2390.7,-189.08 2380.15,-190.08 2383.08,-196.44"/>
</a>
</g>
</g>
<!-- Node33 -->
<g id="Node000033" class="node">
<title>Node33</title>
<g id="a_Node000033"><a xlink:href="_camera_8h.html" target="_top" xlink:title=" ">
<polygon fill="white" stroke="#666666" points="2064.75,-132 2006.75,-132 2006.75,-112 2064.75,-112 2064.75,-132"/>
<text text-anchor="middle" x="2035.75" y="-118.5" font-family="Helvetica,sans-Serif" font-size="10.00">Camera.h</text>
</a>
</g>
</g>
<!-- Node3&#45;&gt;Node33 -->
<g id="edge55_Node000003_Node000033" class="edge">
<title>Node3&#45;&gt;Node33</title>
<g id="a_edge55_Node000003_Node000033"><a xlink:title=" ">
<path fill="none" stroke="#63b8ff" d="M1968.09,-279.52C1970.98,-270.53 1978.33,-256.57 1983.75,-244 1998.84,-208.99 2012.96,-166.76 2023.35,-142.58"/>
<polygon fill="#63b8ff" stroke="#63b8ff" points="2026.47,-144.18 2027.51,-133.64 2020.12,-141.23 2026.47,-144.18"/>
</a>
</g>
</g>
<!-- Node34 -->
<g id="Node000034" class="node">
<title>Node34</title>
<g id="a_Node000034"><a xlink:href="_graphics_device_8h.html" target="_top" xlink:title=" ">
<polygon fill="white" stroke="#666666" points="2213.62,-76 2121.88,-76 2121.88,-56 2213.62,-56 2213.62,-76"/>
<text text-anchor="middle" x="2167.75" y="-62.5" font-family="Helvetica,sans-Serif" font-size="10.00">GraphicsDevice.h</text>
</a>
</g>
</g>
<!-- Node3&#45;&gt;Node34 -->
<g id="edge56_Node000003_Node000034" class="edge">
<title>Node3&#45;&gt;Node34</title>
<g id="a_edge56_Node000003_Node000034"><a xlink:title=" ">
<path fill="none" stroke="#63b8ff" d="M1983.6,-279.63C1998.63,-271.61 2022.05,-259 2039.75,-244 2088.68,-202.53 2097.53,-186.86 2130.75,-132 2139.6,-117.38 2147.1,-99.47 2153.54,-86.15"/>
<polygon fill="#63b8ff" stroke="#63b8ff" points="2156.5,-88.04 2158.02,-77.56 2150.29,-84.81 2156.5,-88.04"/>
</a>
</g>
</g>
<!-- Node35 -->
<g id="Node000035" class="node">
<title>Node35</title>
<g id="a_Node000035"><a xlink:href="_mesh_8h.html" target="_top" xlink:title=" ">
<polygon fill="white" stroke="#666666" points="2130.88,-132 2082.62,-132 2082.62,-112 2130.88,-112 2130.88,-132"/>
<text text-anchor="middle" x="2106.75" y="-118.5" font-family="Helvetica,sans-Serif" font-size="10.00">Mesh.h</text>
</a>
</g>
</g>
<!-- Node3&#45;&gt;Node35 -->
<g id="edge58_Node000003_Node000035" class="edge">
<title>Node3&#45;&gt;Node35</title>
<g id="a_edge58_Node000003_Node000035"><a xlink:title=" ">
<path fill="none" stroke="#63b8ff" d="M1974.21,-279.58C1982.58,-270.86 1997.91,-257.27 2009.75,-244 2040.14,-209.93 2070.29,-165.6 2089.11,-141.16"/>
<polygon fill="#63b8ff" stroke="#63b8ff" points="2091.76,-143.45 2095.27,-133.45 2086.29,-139.08 2091.76,-143.45"/>
</a>
</g>
</g>
<!-- Node36 -->
<g id="Node000036" class="node">
<title>Node36</title>
<g id="a_Node000036"><a xlink:href="_render_state_8h.html" target="_top" xlink:title=" ">
<polygon fill="white" stroke="#666666" points="2207.88,-20 2129.62,-20 2129.62,0 2207.88,0 2207.88,-20"/>
<text text-anchor="middle" x="2168.75" y="-6.5" font-family="Helvetica,sans-Serif" font-size="10.00">RenderState.h</text>
</a>
</g>
</g>
<!-- Node3&#45;&gt;Node36 -->
<g id="edge60_Node000003_Node000036" class="edge">
<title>Node3&#45;&gt;Node36</title>
<g id="a_edge60_Node000003_Node000036"><a xlink:title=" ">
<path fill="none" stroke="#63b8ff" d="M1964.73,-279.58C1960.75,-260.57 1960.75,-216.24 1960.75,-179 1960.75,-179 1960.75,-179 1960.75,-121 1960.75,-50.95 2056.37,-25.16 2118.04,-15.93"/>
<polygon fill="#63b8ff" stroke="#63b8ff" points="2118.21,-19.44 2127.63,-14.6 2117.25,-12.5 2118.21,-19.44"/>
</a>
</g>
</g>
<!-- Node37 -->
<g id="Node000037" class="node">
<title>Node37</title>
<g id="a_Node000037"><a xlink:href="_shader_program_8h.html" target="_top" xlink:title=" ">
<polygon fill="white" stroke="#666666" points="2849.62,-20 2757.88,-20 2757.88,0 2849.62,0 2849.62,-20"/>
<text text-anchor="middle" x="2803.75" y="-6.5" font-family="Helvetica,sans-Serif" font-size="10.00">ShaderProgram.h</text>
</a>
</g>
</g>
<!-- Node3&#45;&gt;Node37 -->
<g id="edge61_Node000003_Node000037" class="edge">
<title>Node3&#45;&gt;Node37</title>
<g id="a_edge61_Node000003_Node000037"><a xlink:title=" ">
<path fill="none" stroke="#63b8ff" d="M2010.19,-289.32C2150.18,-289.92 2612.45,-288.23 2753.75,-244 2806.49,-227.49 2859.75,-234.26 2859.75,-179 2859.75,-179 2859.75,-179 2859.75,-121 2859.75,-84.59 2833.03,-49.65 2816.22,-29.26"/>
<polygon fill="#63b8ff" stroke="#63b8ff" points="2818.98,-27.1 2809.9,-21.64 2813.59,-31.57 2818.98,-27.1"/>
</a>
</g>
</g>
<!-- Node39 -->
<g id="Node000039" class="node">
<title>Node39</title>
<g id="a_Node000039"><a xlink:href="_material_8h.html" target="_top" xlink:title=" ">
<polygon fill="white" stroke="#666666" points="2704.12,-76 2645.38,-76 2645.38,-56 2704.12,-56 2704.12,-76"/>
<text text-anchor="middle" x="2674.75" y="-62.5" font-family="Helvetica,sans-Serif" font-size="10.00">Material.h</text>
</a>
</g>
</g>
<!-- Node3&#45;&gt;Node39 -->
<g id="edge57_Node000003_Node000039" class="edge">
<title>Node3&#45;&gt;Node39</title>
<g id="a_edge57_Node000003_Node000039"><a xlink:title=" ">
<path fill="none" stroke="#63b8ff" d="M2010.46,-289.15C2158.58,-289.28 2662.22,-286.44 2719.75,-244 2769.29,-207.45 2794.78,-163.96 2761.75,-112 2751.12,-95.28 2732.45,-84.66 2715.06,-77.97"/>
<polygon fill="#63b8ff" stroke="#63b8ff" points="2716.5,-74.77 2705.9,-74.79 2714.2,-81.38 2716.5,-74.77"/>
</a>
</g>
</g>
<!-- Node40 -->
<g id="Node000040" class="node">
<title>Node40</title>
<g id="a_Node000040"><a xlink:href="_model_8h.html" target="_top" xlink:title=" ">
<polygon fill="white" stroke="#666666" points="2636,-132 2585.5,-132 2585.5,-112 2636,-112 2636,-132"/>
<text text-anchor="middle" x="2610.75" y="-118.5" font-family="Helvetica,sans-Serif" font-size="10.00">Model.h</text>
</a>
</g>
</g>
<!-- Node3&#45;&gt;Node40 -->
<g id="edge59_Node000003_Node000040" class="edge">
<title>Node3&#45;&gt;Node40</title>
<g id="a_edge59_Node000003_Node000040"><a xlink:title=" ">
<path fill="none" stroke="#63b8ff" d="M2010.16,-288.73C2138.6,-287.51 2530.8,-280.79 2573.75,-244 2602.59,-219.3 2605,-171.32 2606.63,-143.78"/>
<polygon fill="#63b8ff" stroke="#63b8ff" points="2610.11,-144.14 2607.33,-133.92 2603.13,-143.64 2610.11,-144.14"/>
</a>
</g>
</g>
<!-- Node31&#45;&gt;Node3 -->
<g id="edge31_Node000031_Node000003" class="edge">
<title>Node31&#45;&gt;Node3</title>
<g id="a_edge31_Node000031_Node000003"><a xlink:title=" ">
<path fill="none" stroke="#63b8ff" d="M2473.5,-244.03C2309.21,-264 2113.35,-279.29 2021.68,-285.7"/>
<polygon fill="#63b8ff" stroke="#63b8ff" points="2021.48,-282.21 2011.75,-286.39 2021.97,-289.19 2021.48,-282.21"/>
</a>
</g>
</g>
<!-- Node31&#45;&gt;Node32 -->
<g id="edge32_Node000031_Node000032" class="edge">
<title>Node31&#45;&gt;Node32</title>
<g id="a_edge32_Node000031_Node000032"><a xlink:title=" ">
<path fill="none" stroke="#63b8ff" d="M2504.94,-223.59C2488.39,-215.32 2464.04,-203.14 2444.96,-193.6"/>
<polygon fill="#63b8ff" stroke="#63b8ff" points="2446.57,-190.5 2436.06,-189.16 2443.44,-196.76 2446.57,-190.5"/>
</a>
</g>
</g>
<!-- Node32&#45;&gt;Node3 -->
<g id="edge33_Node000032_Node000003" class="edge">
<title>Node32&#45;&gt;Node3</title>
<g id="a_edge33_Node000032_Node000003"><a xlink:title=" ">
<path fill="none" stroke="#63b8ff" d="M2403.75,-188.33C2379.23,-202.56 2323.26,-229.59 2272.75,-244 2186.92,-268.49 2082.95,-280.43 2021.71,-285.59"/>
<polygon fill="#63b8ff" stroke="#63b8ff" points="2021.61,-282.09 2011.92,-286.39 2022.17,-289.07 2021.61,-282.09"/>
</a>
</g>
</g>
<!-- Node32&#45;&gt;Node33 -->
<g id="edge34_Node000032_Node000033" class="edge">
<title>Node32&#45;&gt;Node33</title>
<g id="a_edge34_Node000032_Node000033"><a xlink:title=" ">
<path fill="none" stroke="#63b8ff" d="M2369.05,-172.38C2305.11,-165.72 2186.55,-152.17 2076.15,-132.28"/>
<polygon fill="#63b8ff" stroke="#63b8ff" points="2077.1,-128.9 2066.63,-130.55 2075.84,-135.78 2077.1,-128.9"/>
</a>
</g>
</g>
<!-- Node32&#45;&gt;Node34 -->
<g id="edge36_Node000032_Node000034" class="edge">
<title>Node32&#45;&gt;Node34</title>
<g id="a_edge36_Node000032_Node000034"><a xlink:title=" ">
<path fill="none" stroke="#63b8ff" d="M2394.61,-167.62C2350.95,-148.26 2250.67,-103.78 2199.31,-81"/>
<polygon fill="#63b8ff" stroke="#63b8ff" points="2200.78,-77.82 2190.22,-76.97 2197.95,-84.22 2200.78,-77.82"/>
</a>
</g>
</g>
<!-- Node32&#45;&gt;Node35 -->
<g id="edge38_Node000032_Node000035" class="edge">
<title>Node32&#45;&gt;Node35</title>
<g id="a_edge38_Node000032_Node000035"><a xlink:title=" ">
<path fill="none" stroke="#63b8ff" d="M2369.16,-168.86C2306.98,-157.99 2198.24,-138.99 2142.27,-129.21"/>
<polygon fill="#63b8ff" stroke="#63b8ff" points="2143.11,-125.8 2132.65,-127.53 2141.9,-132.7 2143.11,-125.8"/>
</a>
</g>
</g>
<!-- Node32&#45;&gt;Node36 -->
<g id="edge41_Node000032_Node000036" class="edge">
<title>Node32&#45;&gt;Node36</title>
<g id="a_edge41_Node000032_Node000036"><a xlink:title=" ">
<path fill="none" stroke="#63b8ff" d="M2401.76,-167.6C2361.09,-140.26 2242.55,-60.6 2192.01,-26.63"/>
<polygon fill="#63b8ff" stroke="#63b8ff" points="2194.09,-23.81 2183.84,-21.14 2190.19,-29.62 2194.09,-23.81"/>
</a>
</g>
</g>
<!-- Node32&#45;&gt;Node37 -->
<g id="edge43_Node000032_Node000037" class="edge">
<title>Node32&#45;&gt;Node37</title>
<g id="a_edge43_Node000032_Node000037"><a xlink:title=" ">
<path fill="none" stroke="#63b8ff" d="M2429.27,-167.6C2448.49,-154.42 2485.01,-130.04 2517.75,-112 2568.95,-83.79 2581.87,-76.13 2636.75,-56 2673.73,-42.44 2716.66,-30.96 2749.73,-22.99"/>
<polygon fill="#63b8ff" stroke="#63b8ff" points="2750.15,-26.49 2759.07,-20.77 2748.53,-19.68 2750.15,-26.49"/>
</a>
</g>
</g>
<!-- Node38 -->
<g id="Node000038" class="node">
<title>Node38</title>
<g id="a_Node000038"><a xlink:href="_shader_manager_8h.html" target="_top" xlink:title=" ">
<polygon fill="white" stroke="#666666" points="2762,-132 2669.5,-132 2669.5,-112 2762,-112 2762,-132"/>
<text text-anchor="middle" x="2715.75" y="-118.5" font-family="Helvetica,sans-Serif" font-size="10.00">ShaderManager.h</text>
</a>
</g>
</g>
<!-- Node32&#45;&gt;Node38 -->
<g id="edge45_Node000032_Node000038" class="edge">
<title>Node32&#45;&gt;Node38</title>
<g id="a_edge45_Node000032_Node000038"><a xlink:title=" ">
<path fill="none" stroke="#63b8ff" d="M2462.3,-168.62C2515.06,-159.12 2601.14,-143.63 2658.11,-133.38"/>
<polygon fill="#63b8ff" stroke="#63b8ff" points="2658.38,-136.88 2667.61,-131.67 2657.14,-129.99 2658.38,-136.88"/>
</a>
</g>
</g>
<!-- Node32&#45;&gt;Node39 -->
<g id="edge47_Node000032_Node000039" class="edge">
<title>Node32&#45;&gt;Node39</title>
<g id="a_edge47_Node000032_Node000039"><a xlink:title=" ">
<path fill="none" stroke="#63b8ff" d="M2437.83,-167.62C2483.61,-148.18 2589.03,-103.4 2642.46,-80.71"/>
<polygon fill="#63b8ff" stroke="#63b8ff" points="2643.49,-84.08 2651.33,-76.95 2640.76,-77.63 2643.49,-84.08"/>
</a>
</g>
</g>
<!-- Node32&#45;&gt;Node40 -->
<g id="edge51_Node000032_Node000040" class="edge">
<title>Node32&#45;&gt;Node40</title>
<g id="a_edge51_Node000032_Node000040"><a xlink:title=" ">
<path fill="none" stroke="#63b8ff" d="M2449.72,-167.59C2484.57,-157.94 2538.62,-142.98 2574.34,-133.08"/>
<polygon fill="#63b8ff" stroke="#63b8ff" points="2575.08,-136.51 2583.79,-130.47 2573.21,-129.76 2575.08,-136.51"/>
</a>
</g>
</g>
<!-- Node33&#45;&gt;Node3 -->
<g id="edge35_Node000033_Node000003" class="edge">
<title>Node33&#45;&gt;Node3</title>
<g id="a_edge35_Node000033_Node000003"><a xlink:title=" ">
<path fill="none" stroke="#63b8ff" d="M2037.69,-132.27C2035.55,-152.74 2019.31,-203.26 2001.75,-244 1997.98,-252.74 1993.28,-262.15 1988.42,-270.1"/>
<polygon fill="#63b8ff" stroke="#63b8ff" points="1985.6,-268.03 1982.87,-278.27 1991.39,-271.96 1985.6,-268.03"/>
</a>
</g>
</g>
<!-- Node34&#45;&gt;Node3 -->
<g id="edge37_Node000034_Node000003" class="edge">
<title>Node34&#45;&gt;Node3</title>
<g id="a_edge37_Node000034_Node000003"><a xlink:title=" ">
<path fill="none" stroke="#63b8ff" d="M2170.67,-76.22C2169.19,-89.17 2160.08,-113.29 2148.75,-132 2115.53,-186.86 2106.68,-202.53 2057.75,-244 2043.23,-256.31 2024.86,-267 2008.55,-274.88"/>
<polygon fill="#63b8ff" stroke="#63b8ff" points="2007.19,-271.65 1999.56,-279 2010.11,-278.01 2007.19,-271.65"/>
</a>
</g>
</g>
<!-- Node35&#45;&gt;Node3 -->
<g id="edge39_Node000035_Node000003" class="edge">
<title>Node35&#45;&gt;Node3</title>
<g id="a_edge39_Node000035_Node000003"><a xlink:title=" ">
<path fill="none" stroke="#63b8ff" d="M2105.63,-132.27C2096.59,-153.19 2062.33,-205.23 2027.75,-244 2018.69,-254.16 2007.58,-264.51 1997.35,-272.72"/>
<polygon fill="#63b8ff" stroke="#63b8ff" points="1995.35,-269.84 1989.5,-278.67 1999.58,-275.42 1995.35,-269.84"/>
</a>
</g>
</g>
<!-- Node35&#45;&gt;Node34 -->
<g id="edge40_Node000035_Node000034" class="edge">
<title>Node35&#45;&gt;Node34</title>
<g id="a_edge40_Node000035_Node000034"><a xlink:title=" ">
<path fill="none" stroke="#63b8ff" d="M2117.38,-111.59C2126.03,-103.93 2138.48,-92.91 2148.83,-83.75"/>
<polygon fill="#63b8ff" stroke="#63b8ff" points="2150.95,-86.55 2156.11,-77.3 2146.31,-81.31 2150.95,-86.55"/>
</a>
</g>
</g>
<!-- Node36&#45;&gt;Node3 -->
<g id="edge42_Node000036_Node000003" class="edge">
<title>Node36&#45;&gt;Node3</title>
<g id="a_edge42_Node000036_Node000003"><a xlink:title=" ">
<path fill="none" stroke="#63b8ff" d="M2129.15,-16.08C2073.34,-25.44 1978.75,-51.33 1978.75,-121 1978.75,-179 1978.75,-179 1978.75,-179 1978.75,-210.13 1978.75,-246.22 1976.43,-268.32"/>
<polygon fill="#63b8ff" stroke="#63b8ff" points="1972.98,-267.68 1974.99,-278.09 1979.91,-268.7 1972.98,-267.68"/>
</a>
</g>
</g>
<!-- Node37&#45;&gt;Node3 -->
<g id="edge44_Node000037_Node000003" class="edge">
<title>Node37&#45;&gt;Node3</title>
<g id="a_edge44_Node000037_Node000003"><a xlink:title=" ">
<path fill="none" stroke="#63b8ff" d="M2819.46,-20.48C2841.57,-38.25 2877.75,-78.63 2877.75,-121 2877.75,-179 2877.75,-179 2877.75,-179 2877.75,-234.26 2824.49,-227.49 2771.75,-244 2631.79,-287.81 2176.94,-289.89 2021.94,-289.33"/>
<polygon fill="#63b8ff" stroke="#63b8ff" points="2021.98,-285.83 2011.96,-289.29 2021.95,-292.83 2021.98,-285.83"/>
</a>
</g>
</g>
<!-- Node38&#45;&gt;Node3 -->
<g id="edge46_Node000038_Node000003" class="edge">
<title>Node38&#45;&gt;Node3</title>
<g id="a_edge46_Node000038_Node000003"><a xlink:title=" ">
<path fill="none" stroke="#63b8ff" d="M2718.75,-132.19C2725.51,-154.81 2739.06,-213.6 2708.75,-244 2684.5,-268.32 2185.57,-283.4 2021.52,-287.71"/>
<polygon fill="#63b8ff" stroke="#63b8ff" points="2021.72,-284.21 2011.81,-287.97 2021.9,-291.21 2021.72,-284.21"/>
</a>
</g>
</g>
<!-- Node39&#45;&gt;Node3 -->
<g id="edge48_Node000039_Node000003" class="edge">
<title>Node39&#45;&gt;Node3</title>
<g id="a_edge48_Node000039_Node000003"><a xlink:title=" ">
<path fill="none" stroke="#63b8ff" d="M2704.32,-70.57C2729.56,-75.5 2763.75,-86.83 2779.75,-112 2812.78,-163.96 2787.29,-207.45 2737.75,-244 2680.7,-286.09 2184.83,-289.23 2021.55,-289.15"/>
<polygon fill="#63b8ff" stroke="#63b8ff" points="2021.9,-285.65 2011.89,-289.14 2021.89,-292.65 2021.9,-285.65"/>
</a>
</g>
</g>
<!-- Node39&#45;&gt;Node36 -->
<g id="edge50_Node000039_Node000036" class="edge">
<title>Node39&#45;&gt;Node36</title>
<g id="a_edge50_Node000039_Node000036"><a xlink:title=" ">
<path fill="none" stroke="#63b8ff" d="M2644.99,-61.82C2561.47,-52.91 2324.23,-27.59 2219.5,-16.42"/>
<polygon fill="#63b8ff" stroke="#63b8ff" points="2220.12,-12.96 2209.8,-15.38 2219.37,-19.92 2220.12,-12.96"/>
</a>
</g>
</g>
<!-- Node39&#45;&gt;Node37 -->
<g id="edge49_Node000039_Node000037" class="edge">
<title>Node39&#45;&gt;Node37</title>
<g id="a_edge49_Node000039_Node000037"><a xlink:title=" ">
<path fill="none" stroke="#63b8ff" d="M2697.22,-55.59C2717.54,-47.09 2747.7,-34.46 2770.76,-24.81"/>
<polygon fill="#63b8ff" stroke="#63b8ff" points="2771.84,-28.15 2779.71,-21.06 2769.13,-21.7 2771.84,-28.15"/>
</a>
</g>
</g>
<!-- Node40&#45;&gt;Node3 -->
<g id="edge52_Node000040_Node000003" class="edge">
<title>Node40&#45;&gt;Node3</title>
<g id="a_edge52_Node000040_Node000003"><a xlink:title=" ">
<path fill="none" stroke="#63b8ff" d="M2616.33,-132.41C2623.1,-155.54 2625.16,-215.38 2591.75,-244 2549.18,-280.46 2163.62,-287.39 2021.73,-288.7"/>
<polygon fill="#63b8ff" stroke="#63b8ff" points="2021.84,-285.19 2011.87,-288.78 2021.9,-292.19 2021.84,-285.19"/>
</a>
</g>
</g>
<!-- Node40&#45;&gt;Node39 -->
<g id="edge53_Node000040_Node000039" class="edge">
<title>Node40&#45;&gt;Node39</title>
<g id="a_edge53_Node000040_Node000039"><a xlink:title=" ">
<path fill="none" stroke="#63b8ff" d="M2621.9,-111.59C2631.08,-103.85 2644.3,-92.69 2655.23,-83.47"/>
<polygon fill="#63b8ff" stroke="#63b8ff" points="2657.19,-86.4 2662.57,-77.27 2652.67,-81.05 2657.19,-86.4"/>
</a>
</g>
</g>
</g>
</svg>
