<?xml version="1.0" encoding="UTF-8" standalone="no"?>
<!DOCTYPE svg PUBLIC "-//W3C//DTD SVG 1.1//EN"
 "http://www.w3.org/Graphics/SVG/1.1/DTD/svg11.dtd">
<!-- Generated by graphviz version 9.0.0 (20230911.1827)
 -->
<!-- Title: src/GameEngine.h Pages: 1 -->
<!--zoomable 308 -->

<svg id="main" version="1.1" xmlns="http://www.w3.org/2000/svg" xmlns:xlink="http://www.w3.org/1999/xlink" xml:space="preserve" onload="init(evt)">
<style type="text/css"><![CDATA[
.node, .edge {opacity: 0.7;}
.node.selected, .edge.selected {opacity: 1;}
.edge:hover path { stroke: red; }
.edge:hover polygon { stroke: red; fill: red; }
]]></style>

<defs>
  <circle id="rim" cx="0" cy="0" r="7"/>
  <circle id="rim2" cx="0" cy="0" r="3.5"/>
  <g id="zoomPlus">
    <use xlink:href="#rim" fill="#404040"><set attributeName="fill" to="#808080" begin="zoomplus.mouseover" end="zoomplus.mouseout"/></use>
    <path d="M-4,0h8M0,-4v8" fill="none" stroke="white" stroke-width="1.5" pointer-events="none"/>
  </g>
  <g id="zoomMin">
    <use xlink:href="#rim" fill="#404040"><set attributeName="fill" to="#808080" begin="zoomminus.mouseover" end="zoomminus.mouseout"/></use>
    <path d="M-4,0h8" fill="none" stroke="white" stroke-width="1.5" pointer-events="none"/>
  </g>
  <g id="arrowUp" transform="translate(30 24)">
    <use xlink:href="#rim"/>
    <path pointer-events="none" fill="none" stroke="white" stroke-width="1.5" d="M0,-3.0v7 M-2.5,-0.5L0,-3.0L2.5,-0.5"/>
  </g>
  <g id="arrowRight" transform="rotate(90) translate(36 -43)">
    <use xlink:href="#rim"/>
    <path pointer-events="none" fill="none" stroke="white" stroke-width="1.5" d="M0,-3.0v7 M-2.5,-0.5L0,-3.0L2.5,-0.5"/>
  </g>
  <g id="arrowDown" transform="rotate(180) translate(-30 -48)">
    <use xlink:href="#rim"/>
    <path pointer-events="none" fill="none" stroke="white" stroke-width="1.5" d="M0,-3.0v7 M-2.5,-0.5L0,-3.0L2.5,-0.5"/>
  </g>
  <g id="arrowLeft" transform="rotate(270) translate(-36 17)">
    <use xlink:href="#rim"/>
    <path pointer-events="none" fill="none" stroke="white" stroke-width="1.5" d="M0,-3.0v7 M-2.5,-0.5L0,-3.0L2.5,-0.5"/>
  </g>
  <g id="resetDef">
    <use xlink:href="#rim2" fill="#404040"><set attributeName="fill" to="#808080" begin="reset.mouseover" end="reset.mouseout"/></use>
  </g>
</defs>
<script type="application/ecmascript">
var viewWidth = 2935;
var viewHeight = 308;
var sectionId = 'dynsection-0';
</script>
<script type="application/ecmascript" xlink:href="svg.min.js"/>
<svg id="graph" class="graph">
<g id="viewport">
<title>src/GameEngine.h</title>
<!-- Node1 -->
<g id="Node000001" class="node">
<title>Node1</title>
<g id="a_Node000001"><a xlink:title=" ">
<polygon fill="#999999" stroke="#666666" points="2016.38,-300 1919.38,-300 1919.38,-280 2016.38,-280 2016.38,-300"/>
<text text-anchor="middle" x="1967.88" y="-286.5" font-family="Helvetica,sans-Serif" font-size="10.00">src/GameEngine.h</text>
</a>
</g>
</g>
<!-- Node2 -->
<g id="Node000002" class="node">
<title>Node2</title>
<g id="a_Node000002"><a xlink:title=" ">
<polygon fill="#e0e0e0" stroke="#999999" points="79.75,-244 0,-244 0,-224 79.75,-224 79.75,-244"/>
<text text-anchor="middle" x="39.88" y="-230.5" font-family="Helvetica,sans-Serif" font-size="10.00">SDKDDKVer.h</text>
</a>
</g>
</g>
<!-- Node1&#45;&gt;Node2 -->
<g id="edge1_Node000001_Node000002" class="edge">
<title>Node1&#45;&gt;Node2</title>
<g id="a_edge1_Node000001_Node000002"><a xlink:title=" ">
<path fill="none" stroke="#63b8ff" d="M1919.03,-288.9C1663.92,-288.21 481.64,-283 91.45,-244.19"/>
<polygon fill="#63b8ff" stroke="#63b8ff" points="91.95,-240.73 81.64,-243.19 91.23,-247.69 91.95,-240.73"/>
</a>
</g>
</g>
<!-- Node3 -->
<g id="Node000003" class="node">
<title>Node3</title>
<g id="a_Node000003"><a xlink:title=" ">
<polygon fill="#e0e0e0" stroke="#999999" points="158.38,-244 97.38,-244 97.38,-224 158.38,-224 158.38,-244"/>
<text text-anchor="middle" x="127.88" y="-230.5" font-family="Helvetica,sans-Serif" font-size="10.00">windows.h</text>
</a>
</g>
</g>
<!-- Node1&#45;&gt;Node3 -->
<g id="edge2_Node000001_Node000003" class="edge">
<title>Node1&#45;&gt;Node3</title>
<g id="a_edge2_Node000001_Node000003"><a xlink:title=" ">
<path fill="none" stroke="#63b8ff" d="M1919,-289.11C1670.36,-289.48 543.28,-288.69 170.2,-244.14"/>
<polygon fill="#63b8ff" stroke="#63b8ff" points="170.71,-240.68 160.36,-242.93 169.85,-247.62 170.71,-240.68"/>
</a>
</g>
</g>
<!-- Node4 -->
<g id="Node000004" class="node">
<title>Node4</title>
<g id="a_Node000004"><a xlink:title=" ">
<polygon fill="#e0e0e0" stroke="#999999" points="223.62,-244 176.12,-244 176.12,-224 223.62,-224 223.62,-244"/>
<text text-anchor="middle" x="199.88" y="-230.5" font-family="Helvetica,sans-Serif" font-size="10.00">stdlib.h</text>
</a>
</g>
</g>
<!-- Node1&#45;&gt;Node4 -->
<g id="edge3_Node000001_Node000004" class="edge">
<title>Node1&#45;&gt;Node4</title>
<g id="a_edge3_Node000001_Node000004"><a xlink:title=" ">
<path fill="none" stroke="#63b8ff" d="M1919.15,-289.32C1676.29,-290.65 594.28,-293.72 235.07,-243.87"/>
<polygon fill="#63b8ff" stroke="#63b8ff" points="235.78,-240.43 225.38,-242.48 234.78,-247.36 235.78,-240.43"/>
</a>
</g>
</g>
<!-- Node5 -->
<g id="Node000005" class="node">
<title>Node5</title>
<g id="a_Node000005"><a xlink:title=" ">
<polygon fill="#e0e0e0" stroke="#999999" points="294.25,-244 241.5,-244 241.5,-224 294.25,-224 294.25,-244"/>
<text text-anchor="middle" x="267.88" y="-230.5" font-family="Helvetica,sans-Serif" font-size="10.00">malloc.h</text>
</a>
</g>
</g>
<!-- Node1&#45;&gt;Node5 -->
<g id="edge4_Node000001_Node000005" class="edge">
<title>Node1&#45;&gt;Node5</title>
<g id="a_edge4_Node000001_Node000005"><a xlink:title=" ">
<path fill="none" stroke="#63b8ff" d="M1919.17,-289.16C1682.46,-289.7 650.04,-289.47 305.72,-244.04"/>
<polygon fill="#63b8ff" stroke="#63b8ff" points="306.39,-240.59 296,-242.71 305.44,-247.53 306.39,-240.59"/>
</a>
</g>
</g>
<!-- Node6 -->
<g id="Node000006" class="node">
<title>Node6</title>
<g id="a_Node000006"><a xlink:title=" ">
<polygon fill="#e0e0e0" stroke="#999999" points="371.62,-244 312.12,-244 312.12,-224 371.62,-224 371.62,-244"/>
<text text-anchor="middle" x="341.88" y="-230.5" font-family="Helvetica,sans-Serif" font-size="10.00">memory.h</text>
</a>
</g>
</g>
<!-- Node1&#45;&gt;Node6 -->
<g id="edge5_Node000001_Node000006" class="edge">
<title>Node1&#45;&gt;Node6</title>
<g id="a_edge5_Node000001_Node000006"><a xlink:title=" ">
<path fill="none" stroke="#63b8ff" d="M1919.18,-288.92C1689.41,-288.35 711.6,-283.67 382.95,-243.94"/>
<polygon fill="#63b8ff" stroke="#63b8ff" points="383.86,-240.53 373.5,-242.76 382.99,-247.47 383.86,-240.53"/>
</a>
</g>
</g>
<!-- Node7 -->
<g id="Node000007" class="node">
<title>Node7</title>
<g id="a_Node000007"><a xlink:title=" ">
<polygon fill="#e0e0e0" stroke="#999999" points="435.88,-244 389.88,-244 389.88,-224 435.88,-224 435.88,-244"/>
<text text-anchor="middle" x="412.88" y="-230.5" font-family="Helvetica,sans-Serif" font-size="10.00">tchar.h</text>
</a>
</g>
</g>
<!-- Node1&#45;&gt;Node7 -->
<g id="edge6_Node000001_Node000007" class="edge">
<title>Node1&#45;&gt;Node7</title>
<g id="a_edge6_Node000001_Node000007"><a xlink:title=" ">
<path fill="none" stroke="#63b8ff" d="M1919.23,-289.16C1695.37,-289.66 762.21,-289.03 447.53,-243.95"/>
<polygon fill="#63b8ff" stroke="#63b8ff" points="448.05,-240.49 437.65,-242.48 447.02,-247.41 448.05,-240.49"/>
</a>
</g>
</g>
<!-- Node8 -->
<g id="Node000008" class="node">
<title>Node8</title>
<g id="a_Node000008"><a xlink:title=" ">
<polygon fill="#e0e0e0" stroke="#999999" points="515.75,-244 454,-244 454,-224 515.75,-224 515.75,-244"/>
<text text-anchor="middle" x="484.88" y="-230.5" font-family="Helvetica,sans-Serif" font-size="10.00">resource.h</text>
</a>
</g>
</g>
<!-- Node1&#45;&gt;Node8 -->
<g id="edge7_Node000001_Node000008" class="edge">
<title>Node1&#45;&gt;Node8</title>
<g id="a_edge7_Node000001_Node000008"><a xlink:title=" ">
<path fill="none" stroke="#63b8ff" d="M1918.93,-288.72C1702.08,-287.31 826,-279.55 527.45,-244.03"/>
<polygon fill="#63b8ff" stroke="#63b8ff" points="528.07,-240.58 517.72,-242.83 527.22,-247.53 528.07,-240.58"/>
</a>
</g>
</g>
<!-- Node9 -->
<g id="Node000009" class="node">
<title>Node9</title>
<g id="a_Node000009"><a xlink:title=" ">
<polygon fill="#e0e0e0" stroke="#999999" points="579.5,-244 534.25,-244 534.25,-224 579.5,-224 579.5,-244"/>
<text text-anchor="middle" x="556.88" y="-230.5" font-family="Helvetica,sans-Serif" font-size="10.00">chrono</text>
</a>
</g>
</g>
<!-- Node1&#45;&gt;Node9 -->
<g id="edge8_Node000001_Node000009" class="edge">
<title>Node1&#45;&gt;Node9</title>
<g id="a_edge8_Node000001_Node000009"><a xlink:title=" ">
<path fill="none" stroke="#63b8ff" d="M1919.23,-289.04C1708.76,-288.97 874.68,-286.09 590.83,-244.04"/>
<polygon fill="#63b8ff" stroke="#63b8ff" points="591.66,-240.63 581.25,-242.56 590.6,-247.55 591.66,-240.63"/>
</a>
</g>
</g>
<!-- Node10 -->
<g id="Node000010" class="node">
<title>Node10</title>
<g id="a_Node000010"><a xlink:title=" ">
<polygon fill="#e0e0e0" stroke="#999999" points="638.62,-244 597.12,-244 597.12,-224 638.62,-224 638.62,-244"/>
<text text-anchor="middle" x="617.88" y="-230.5" font-family="Helvetica,sans-Serif" font-size="10.00">vector</text>
</a>
</g>
</g>
<!-- Node1&#45;&gt;Node10 -->
<g id="edge9_Node000001_Node000010" class="edge">
<title>Node1&#45;&gt;Node10</title>
<g id="a_edge9_Node000001_Node000010"><a xlink:title=" ">
<path fill="none" stroke="#63b8ff" d="M1918.91,-289.01C1713.74,-288.81 921.67,-285.43 650.02,-243.83"/>
<polygon fill="#63b8ff" stroke="#63b8ff" points="650.94,-240.43 640.52,-242.32 649.84,-247.35 650.94,-240.43"/>
</a>
</g>
</g>
<!-- Node11 -->
<g id="Node000011" class="node">
<title>Node11</title>
<g id="a_Node000011"><a xlink:title=" ">
<polygon fill="#e0e0e0" stroke="#999999" points="710.62,-244 657.12,-244 657.12,-224 710.62,-224 710.62,-244"/>
<text text-anchor="middle" x="683.88" y="-230.5" font-family="Helvetica,sans-Serif" font-size="10.00">iostream</text>
</a>
</g>
</g>
<!-- Node1&#45;&gt;Node11 -->
<g id="edge10_Node000001_Node000011" class="edge">
<title>Node1&#45;&gt;Node11</title>
<g id="a_edge10_Node000001_Node000011"><a xlink:title=" ">
<path fill="none" stroke="#63b8ff" d="M1918.94,-288.6C1721.19,-286.78 979.79,-277.89 722.05,-243.93"/>
<polygon fill="#63b8ff" stroke="#63b8ff" points="722.76,-240.49 712.38,-242.6 721.81,-247.43 722.76,-240.49"/>
</a>
</g>
</g>
<!-- Node12 -->
<g id="Node000012" class="node">
<title>Node12</title>
<g id="a_Node000012"><a xlink:title=" ">
<polygon fill="#e0e0e0" stroke="#999999" points="777,-244 728.75,-244 728.75,-224 777,-224 777,-244"/>
<text text-anchor="middle" x="752.88" y="-230.5" font-family="Helvetica,sans-Serif" font-size="10.00">fstream</text>
</a>
</g>
</g>
<!-- Node1&#45;&gt;Node12 -->
<g id="edge11_Node000001_Node000012" class="edge">
<title>Node1&#45;&gt;Node12</title>
<g id="a_edge11_Node000001_Node000012"><a xlink:title=" ">
<path fill="none" stroke="#63b8ff" d="M1918.9,-288.62C1727.88,-286.93 1031.89,-278.58 788.49,-243.98"/>
<polygon fill="#63b8ff" stroke="#63b8ff" points="789.15,-240.54 778.75,-242.54 788.13,-247.47 789.15,-240.54"/>
</a>
</g>
</g>
<!-- Node13 -->
<g id="Node000013" class="node">
<title>Node13</title>
<g id="a_Node000013"><a xlink:title=" ">
<polygon fill="#e0e0e0" stroke="#999999" points="855,-244 794.75,-244 794.75,-224 855,-224 855,-244"/>
<text text-anchor="middle" x="824.88" y="-230.5" font-family="Helvetica,sans-Serif" font-size="10.00">filesystem</text>
</a>
</g>
</g>
<!-- Node1&#45;&gt;Node13 -->
<g id="edge12_Node000001_Node000013" class="edge">
<title>Node1&#45;&gt;Node13</title>
<g id="a_edge12_Node000001_Node000013"><a xlink:title=" ">
<path fill="none" stroke="#63b8ff" d="M1919.04,-288.22C1736.57,-285.11 1094.11,-272.48 866.6,-244.07"/>
<polygon fill="#63b8ff" stroke="#63b8ff" points="867.3,-240.63 856.93,-242.81 866.4,-247.57 867.3,-240.63"/>
</a>
</g>
</g>
<!-- Node14 -->
<g id="Node000014" class="node">
<title>Node14</title>
<g id="a_Node000014"><a xlink:title=" ">
<polygon fill="#e0e0e0" stroke="#999999" points="924.5,-244 873.25,-244 873.25,-224 924.5,-224 924.5,-244"/>
<text text-anchor="middle" x="898.88" y="-230.5" font-family="Helvetica,sans-Serif" font-size="10.00">sstream</text>
</a>
</g>
</g>
<!-- Node1&#45;&gt;Node14 -->
<g id="edge13_Node000001_Node000014" class="edge">
<title>Node1&#45;&gt;Node14</title>
<g id="a_edge13_Node000001_Node000014"><a xlink:title=" ">
<path fill="none" stroke="#63b8ff" d="M1919.1,-288.22C1744.42,-285.24 1149.63,-273.25 936.14,-243.93"/>
<polygon fill="#63b8ff" stroke="#63b8ff" points="936.64,-240.46 926.24,-242.51 935.64,-247.39 936.64,-240.46"/>
</a>
</g>
</g>
<!-- Node15 -->
<g id="Node000015" class="node">
<title>Node15</title>
<g id="a_Node000015"><a xlink:title=" ">
<polygon fill="#e0e0e0" stroke="#999999" points="1025.25,-244 942.5,-244 942.5,-224 1025.25,-224 1025.25,-244"/>
<text text-anchor="middle" x="983.88" y="-230.5" font-family="Helvetica,sans-Serif" font-size="10.00">unordered_map</text>
</a>
</g>
</g>
<!-- Node1&#45;&gt;Node15 -->
<g id="edge14_Node000001_Node000015" class="edge">
<title>Node1&#45;&gt;Node15</title>
<g id="a_edge14_Node000001_Node000015"><a xlink:title=" ">
<path fill="none" stroke="#63b8ff" d="M1918.89,-288.82C1781.45,-287.84 1380.44,-281.8 1036.99,-244.07"/>
<polygon fill="#63b8ff" stroke="#63b8ff" points="1037.39,-240.59 1027.07,-242.97 1036.62,-247.55 1037.39,-240.59"/>
</a>
</g>
</g>
<!-- Node16 -->
<g id="Node000016" class="node">
<title>Node16</title>
<g id="a_Node000016"><a xlink:title=" ">
<polygon fill="#e0e0e0" stroke="#999999" points="1148.12,-244 1043.62,-244 1043.62,-224 1148.12,-224 1148.12,-244"/>
<text text-anchor="middle" x="1095.88" y="-230.5" font-family="Helvetica,sans-Serif" font-size="10.00">assimp/Importer.hpp</text>
</a>
</g>
</g>
<!-- Node1&#45;&gt;Node16 -->
<g id="edge15_Node000001_Node000016" class="edge">
<title>Node1&#45;&gt;Node16</title>
<g id="a_edge15_Node000001_Node000016"><a xlink:title=" ">
<path fill="none" stroke="#63b8ff" d="M1919.31,-287.85C1794.82,-284.56 1453.99,-273.49 1159.74,-244.2"/>
<polygon fill="#63b8ff" stroke="#63b8ff" points="1160.22,-240.73 1149.92,-243.21 1159.52,-247.7 1160.22,-240.73"/>
</a>
</g>
</g>
<!-- Node17 -->
<g id="Node000017" class="node">
<title>Node17</title>
<g id="a_Node000017"><a xlink:title=" ">
<polygon fill="#e0e0e0" stroke="#999999" points="1251.38,-244 1166.38,-244 1166.38,-224 1251.38,-224 1251.38,-244"/>
<text text-anchor="middle" x="1208.88" y="-230.5" font-family="Helvetica,sans-Serif" font-size="10.00">assimp/scene.h</text>
</a>
</g>
</g>
<!-- Node1&#45;&gt;Node17 -->
<g id="edge16_Node000001_Node000017" class="edge">
<title>Node1&#45;&gt;Node17</title>
<g id="a_edge16_Node000001_Node000017"><a xlink:title=" ">
<path fill="none" stroke="#63b8ff" d="M1919.28,-287.71C1806.1,-284.32 1515.97,-273.41 1262.93,-244.1"/>
<polygon fill="#63b8ff" stroke="#63b8ff" points="1263.51,-240.65 1253.17,-242.96 1262.7,-247.6 1263.51,-240.65"/>
</a>
</g>
</g>
<!-- Node18 -->
<g id="Node000018" class="node">
<title>Node18</title>
<g id="a_Node000018"><a xlink:title=" ">
<polygon fill="#e0e0e0" stroke="#999999" points="1381.88,-244 1269.88,-244 1269.88,-224 1381.88,-224 1381.88,-244"/>
<text text-anchor="middle" x="1325.88" y="-230.5" font-family="Helvetica,sans-Serif" font-size="10.00">assimp/postprocess.h</text>
</a>
</g>
</g>
<!-- Node1&#45;&gt;Node18 -->
<g id="edge17_Node000001_Node000018" class="edge">
<title>Node1&#45;&gt;Node18</title>
<g id="a_edge17_Node000001_Node000018"><a xlink:title=" ">
<path fill="none" stroke="#63b8ff" d="M1919.15,-286.19C1821.53,-280.34 1594.79,-265.67 1393.6,-244.23"/>
<polygon fill="#63b8ff" stroke="#63b8ff" points="1394.04,-240.76 1383.72,-243.17 1393.29,-247.72 1394.04,-240.76"/>
</a>
</g>
</g>
<!-- Node19 -->
<g id="Node000019" class="node">
<title>Node19</title>
<g id="a_Node000019"><a xlink:title=" ">
<polygon fill="#e0e0e0" stroke="#999999" points="1545.38,-244 1400.38,-244 1400.38,-224 1545.38,-224 1545.38,-244"/>
<text text-anchor="middle" x="1472.88" y="-230.5" font-family="Helvetica,sans-Serif" font-size="10.00">directxtk\WICTextureLoader.h</text>
</a>
</g>
</g>
<!-- Node1&#45;&gt;Node19 -->
<g id="edge18_Node000001_Node000019" class="edge">
<title>Node1&#45;&gt;Node19</title>
<g id="a_edge18_Node000001_Node000019"><a xlink:title=" ">
<path fill="none" stroke="#63b8ff" d="M1918.92,-283.68C1843.63,-275.49 1694.57,-259.27 1556.91,-244.22"/>
<polygon fill="#63b8ff" stroke="#63b8ff" points="1557.58,-240.77 1547.26,-243.17 1556.82,-247.73 1557.58,-240.77"/>
</a>
</g>
</g>
<!-- Node20 -->
<g id="Node000020" class="node">
<title>Node20</title>
<g id="a_Node000020"><a xlink:title=" ">
<polygon fill="#e0e0e0" stroke="#999999" points="1628.25,-244 1563.5,-244 1563.5,-224 1628.25,-224 1628.25,-244"/>
<text text-anchor="middle" x="1595.88" y="-230.5" font-family="Helvetica,sans-Serif" font-size="10.00">wincodec.h</text>
</a>
</g>
</g>
<!-- Node1&#45;&gt;Node20 -->
<g id="edge19_Node000001_Node000020" class="edge">
<title>Node1&#45;&gt;Node20</title>
<g id="a_edge19_Node000001_Node000020"><a xlink:title=" ">
<path fill="none" stroke="#63b8ff" d="M1918.89,-283.6C1856.33,-276.42 1744.5,-262.66 1639.61,-244.37"/>
<polygon fill="#63b8ff" stroke="#63b8ff" points="1640.45,-240.96 1629.99,-242.67 1639.23,-247.86 1640.45,-240.96"/>
</a>
</g>
</g>
<!-- Node21 -->
<g id="Node000021" class="node">
<title>Node21</title>
<g id="a_Node000021"><a xlink:title=" ">
<polygon fill="#e0e0e0" stroke="#999999" points="1703.88,-244 1645.88,-244 1645.88,-224 1703.88,-224 1703.88,-244"/>
<text text-anchor="middle" x="1674.88" y="-230.5" font-family="Helvetica,sans-Serif" font-size="10.00">lodepng.h</text>
</a>
</g>
</g>
<!-- Node1&#45;&gt;Node21 -->
<g id="edge20_Node000001_Node000021" class="edge">
<title>Node1&#45;&gt;Node21</title>
<g id="a_edge20_Node000001_Node000021"><a xlink:title=" ">
<path fill="none" stroke="#63b8ff" d="M1919.31,-281.29C1870.19,-273.3 1791.85,-260.03 1715.11,-244.37"/>
<polygon fill="#63b8ff" stroke="#63b8ff" points="1716.28,-241.04 1705.78,-242.45 1714.87,-247.89 1716.28,-241.04"/>
</a>
</g>
</g>
<!-- Node22 -->
<g id="Node000022" class="node">
<title>Node22</title>
<g id="a_Node000022"><a xlink:title=" ">
<polygon fill="#e0e0e0" stroke="#999999" points="1772.12,-244 1721.62,-244 1721.62,-224 1772.12,-224 1772.12,-244"/>
<text text-anchor="middle" x="1746.88" y="-230.5" font-family="Helvetica,sans-Serif" font-size="10.00">d3d11.h</text>
</a>
</g>
</g>
<!-- Node1&#45;&gt;Node22 -->
<g id="edge21_Node000001_Node000022" class="edge">
<title>Node1&#45;&gt;Node22</title>
<g id="a_edge21_Node000001_Node000022"><a xlink:title=" ">
<path fill="none" stroke="#63b8ff" d="M1927.92,-279.51C1892.59,-271.08 1839.34,-258.27 1783.65,-244.41"/>
<polygon fill="#63b8ff" stroke="#63b8ff" points="1784.5,-241.02 1773.95,-242 1782.8,-247.81 1784.5,-241.02"/>
</a>
</g>
</g>
<!-- Node23 -->
<g id="Node000023" class="node">
<title>Node23</title>
<g id="a_Node000023"><a xlink:title=" ">
<polygon fill="#e0e0e0" stroke="#999999" points="1867.25,-244 1790.5,-244 1790.5,-224 1867.25,-224 1867.25,-244"/>
<text text-anchor="middle" x="1828.88" y="-230.5" font-family="Helvetica,sans-Serif" font-size="10.00">DirectXMath.h</text>
</a>
</g>
</g>
<!-- Node1&#45;&gt;Node23 -->
<g id="edge22_Node000001_Node000023" class="edge">
<title>Node1&#45;&gt;Node23</title>
<g id="a_edge22_Node000001_Node000023"><a xlink:title=" ">
<path fill="none" stroke="#63b8ff" d="M1943.66,-279.59C1921.57,-271.01 1888.68,-258.23 1863.75,-248.55"/>
<polygon fill="#63b8ff" stroke="#63b8ff" points="1865.28,-245.39 1854.69,-245.03 1862.74,-251.91 1865.28,-245.39"/>
</a>
</g>
</g>
<!-- Node24 -->
<g id="Node000024" class="node">
<title>Node24</title>
<g id="a_Node000024"><a xlink:title=" ">
<polygon fill="#e0e0e0" stroke="#999999" points="1964.75,-244 1885,-244 1885,-224 1964.75,-224 1964.75,-244"/>
<text text-anchor="middle" x="1924.88" y="-230.5" font-family="Helvetica,sans-Serif" font-size="10.00">D3Dcompiler.h</text>
</a>
</g>
</g>
<!-- Node1&#45;&gt;Node24 -->
<g id="edge23_Node000001_Node000024" class="edge">
<title>Node1&#45;&gt;Node24</title>
<g id="a_edge23_Node000001_Node000024"><a xlink:title=" ">
<path fill="none" stroke="#63b8ff" d="M1960.38,-279.59C1954.59,-272.32 1946.39,-262.02 1939.33,-253.15"/>
<polygon fill="#63b8ff" stroke="#63b8ff" points="1942.19,-251.12 1933.22,-245.48 1936.71,-255.49 1942.19,-251.12"/>
</a>
</g>
</g>
<!-- Node25 -->
<g id="Node000025" class="node">
<title>Node25</title>
<g id="a_Node000025"><a xlink:title=" ">
<polygon fill="#e0e0e0" stroke="#999999" points="2038.75,-244 1983,-244 1983,-224 2038.75,-224 2038.75,-244"/>
<text text-anchor="middle" x="2010.88" y="-230.5" font-family="Helvetica,sans-Serif" font-size="10.00">d2d1_2.h</text>
</a>
</g>
</g>
<!-- Node1&#45;&gt;Node25 -->
<g id="edge24_Node000001_Node000025" class="edge">
<title>Node1&#45;&gt;Node25</title>
<g id="a_edge24_Node000001_Node000025"><a xlink:title=" ">
<path fill="none" stroke="#63b8ff" d="M1975.37,-279.59C1981.16,-272.32 1989.36,-262.02 1996.42,-253.15"/>
<polygon fill="#63b8ff" stroke="#63b8ff" points="1999.04,-255.49 2002.53,-245.48 1993.56,-251.12 1999.04,-255.49"/>
</a>
</g>
</g>
<!-- Node26 -->
<g id="Node000026" class="node">
<title>Node26</title>
<g id="a_Node000026"><a xlink:title=" ">
<polygon fill="#e0e0e0" stroke="#999999" points="2112.75,-244 2057,-244 2057,-224 2112.75,-224 2112.75,-244"/>
<text text-anchor="middle" x="2084.88" y="-230.5" font-family="Helvetica,sans-Serif" font-size="10.00">d2d1_1.h</text>
</a>
</g>
</g>
<!-- Node1&#45;&gt;Node26 -->
<g id="edge25_Node000001_Node000026" class="edge">
<title>Node1&#45;&gt;Node26</title>
<g id="a_edge25_Node000001_Node000026"><a xlink:title=" ">
<path fill="none" stroke="#63b8ff" d="M1988.25,-279.59C2006.43,-271.21 2033.3,-258.8 2054.09,-249.21"/>
<polygon fill="#63b8ff" stroke="#63b8ff" points="2055.35,-252.48 2062.96,-245.11 2052.42,-246.13 2055.35,-252.48"/>
</a>
</g>
</g>
<!-- Node27 -->
<g id="Node000027" class="node">
<title>Node27</title>
<g id="a_Node000027"><a xlink:title=" ">
<polygon fill="#e0e0e0" stroke="#999999" points="2176.5,-244 2131.25,-244 2131.25,-224 2176.5,-224 2176.5,-244"/>
<text text-anchor="middle" x="2153.88" y="-230.5" font-family="Helvetica,sans-Serif" font-size="10.00">d2d1.h</text>
</a>
</g>
</g>
<!-- Node1&#45;&gt;Node27 -->
<g id="edge26_Node000001_Node000027" class="edge">
<title>Node1&#45;&gt;Node27</title>
<g id="a_edge26_Node000001_Node000027"><a xlink:title=" ">
<path fill="none" stroke="#63b8ff" d="M2000.27,-279.59C2033.84,-269.85 2086.08,-254.68 2120.13,-244.8"/>
<polygon fill="#63b8ff" stroke="#63b8ff" points="2120.85,-248.23 2129.48,-242.08 2118.9,-241.51 2120.85,-248.23"/>
</a>
</g>
</g>
<!-- Node28 -->
<g id="Node000028" class="node">
<title>Node28</title>
<g id="a_Node000028"><a xlink:title=" ">
<polygon fill="#e0e0e0" stroke="#999999" points="2244.75,-244 2195,-244 2195,-224 2244.75,-224 2244.75,-244"/>
<text text-anchor="middle" x="2219.88" y="-230.5" font-family="Helvetica,sans-Serif" font-size="10.00">dwrite.h</text>
</a>
</g>
</g>
<!-- Node1&#45;&gt;Node28 -->
<g id="edge27_Node000001_Node000028" class="edge">
<title>Node1&#45;&gt;Node28</title>
<g id="a_edge27_Node000001_Node000028"><a xlink:title=" ">
<path fill="none" stroke="#63b8ff" d="M2016.53,-279.76C2058.4,-271.62 2120.67,-259.1 2183.72,-244.41"/>
<polygon fill="#63b8ff" stroke="#63b8ff" points="2184.25,-247.88 2193.19,-242.19 2182.65,-241.06 2184.25,-247.88"/>
</a>
</g>
</g>
<!-- Node29 -->
<g id="Node000029" class="node">
<title>Node29</title>
<g id="a_Node000029"><a xlink:href="_win32_application_8h.html" target="_top" xlink:title=" ">
<polygon fill="white" stroke="#666666" points="2586.88,-244 2486.88,-244 2486.88,-224 2586.88,-224 2586.88,-244"/>
<text text-anchor="middle" x="2536.88" y="-230.5" font-family="Helvetica,sans-Serif" font-size="10.00">Win32Application.h</text>
</a>
</g>
</g>
<!-- Node1&#45;&gt;Node29 -->
<g id="edge28_Node000001_Node000029" class="edge">
<title>Node1&#45;&gt;Node29</title>
<g id="a_edge28_Node000001_Node000029"><a xlink:title=" ">
<path fill="none" stroke="#63b8ff" d="M2016.67,-285.07C2105.75,-278.17 2300.13,-262.8 2463.88,-244 2467.5,-243.58 2471.23,-243.13 2475.01,-242.65"/>
<polygon fill="#63b8ff" stroke="#63b8ff" points="2475.44,-246.12 2484.9,-241.36 2474.54,-239.18 2475.44,-246.12"/>
</a>
</g>
</g>
<!-- Node30 -->
<g id="Node000030" class="node">
<title>Node30</title>
<g id="a_Node000030"><a xlink:href="_direct_x_manager_8h.html" target="_top" xlink:title=" ">
<polygon fill="white" stroke="#666666" points="2644.12,-188 2551.62,-188 2551.62,-168 2644.12,-168 2644.12,-188"/>
<text text-anchor="middle" x="2597.88" y="-174.5" font-family="Helvetica,sans-Serif" font-size="10.00">DirectXManager.h</text>
</a>
</g>
</g>
<!-- Node1&#45;&gt;Node30 -->
<g id="edge52_Node000001_Node000030" class="edge">
<title>Node1&#45;&gt;Node30</title>
<g id="a_edge52_Node000001_Node000030"><a xlink:title=" ">
<path fill="none" stroke="#63b8ff" d="M2016.75,-289.17C2156.13,-289.1 2547.44,-285.08 2586.88,-244 2597.88,-232.54 2597.39,-214.03 2596.21,-199.69"/>
<polygon fill="#63b8ff" stroke="#63b8ff" points="2599.72,-199.62 2595.4,-189.95 2592.74,-200.2 2599.72,-199.62"/>
</a>
</g>
</g>
<!-- Node31 -->
<g id="Node000031" class="node">
<title>Node31</title>
<g id="a_Node000031"><a xlink:href="_camera_8h.html" target="_top" xlink:title=" ">
<polygon fill="white" stroke="#666666" points="2427.88,-132 2369.88,-132 2369.88,-112 2427.88,-112 2427.88,-132"/>
<text text-anchor="middle" x="2398.88" y="-118.5" font-family="Helvetica,sans-Serif" font-size="10.00">Camera.h</text>
</a>
</g>
</g>
<!-- Node1&#45;&gt;Node31 -->
<g id="edge53_Node000001_Node000031" class="edge">
<title>Node1&#45;&gt;Node31</title>
<g id="a_edge53_Node000001_Node000031"><a xlink:title=" ">
<path fill="none" stroke="#63b8ff" d="M2016.69,-289.85C2108.44,-290.23 2301.44,-285.65 2351.88,-244 2381.91,-219.2 2388.58,-170.89 2392.81,-143.41"/>
<polygon fill="#63b8ff" stroke="#63b8ff" points="2396.2,-144.34 2394.4,-133.9 2389.29,-143.19 2396.2,-144.34"/>
</a>
</g>
</g>
<!-- Node32 -->
<g id="Node000032" class="node">
<title>Node32</title>
<g id="a_Node000032"><a xlink:href="_graphics_device_8h.html" target="_top" xlink:title=" ">
<polygon fill="white" stroke="#666666" points="2460.75,-76 2369,-76 2369,-56 2460.75,-56 2460.75,-76"/>
<text text-anchor="middle" x="2414.88" y="-62.5" font-family="Helvetica,sans-Serif" font-size="10.00">GraphicsDevice.h</text>
</a>
</g>
</g>
<!-- Node1&#45;&gt;Node32 -->
<g id="edge54_Node000001_Node000032" class="edge">
<title>Node1&#45;&gt;Node32</title>
<g id="a_edge54_Node000001_Node000032"><a xlink:title=" ">
<path fill="none" stroke="#63b8ff" d="M2016.62,-288.14C2097.06,-285.79 2252.62,-276.96 2295.88,-244 2346.56,-205.37 2313.89,-163.17 2351.88,-112 2360.26,-100.71 2372.04,-90.46 2383.28,-82.61"/>
<polygon fill="#63b8ff" stroke="#63b8ff" points="2385.16,-85.56 2391.65,-77.18 2381.35,-79.69 2385.16,-85.56"/>
</a>
</g>
</g>
<!-- Node33 -->
<g id="Node000033" class="node">
<title>Node33</title>
<g id="a_Node000033"><a xlink:href="_mesh_8h.html" target="_top" xlink:title=" ">
<polygon fill="white" stroke="#666666" points="2494,-132 2445.75,-132 2445.75,-112 2494,-112 2494,-132"/>
<text text-anchor="middle" x="2469.88" y="-118.5" font-family="Helvetica,sans-Serif" font-size="10.00">Mesh.h</text>
</a>
</g>
</g>
<!-- Node1&#45;&gt;Node33 -->
<g id="edge56_Node000001_Node000033" class="edge">
<title>Node1&#45;&gt;Node33</title>
<g id="a_edge56_Node000001_Node000033"><a xlink:title=" ">
<path fill="none" stroke="#63b8ff" d="M2016.82,-288.96C2113.03,-287.98 2322.21,-281.36 2382.88,-244 2421.22,-220.39 2444.23,-170.07 2457.63,-142.34"/>
<polygon fill="#63b8ff" stroke="#63b8ff" points="2460.63,-144.16 2461.96,-133.65 2454.37,-141.04 2460.63,-144.16"/>
</a>
</g>
</g>
<!-- Node34 -->
<g id="Node000034" class="node">
<title>Node34</title>
<g id="a_Node000034"><a xlink:href="_render_state_8h.html" target="_top" xlink:title=" ">
<polygon fill="white" stroke="#666666" points="2458,-20 2379.75,-20 2379.75,0 2458,0 2458,-20"/>
<text text-anchor="middle" x="2418.88" y="-6.5" font-family="Helvetica,sans-Serif" font-size="10.00">RenderState.h</text>
</a>
</g>
</g>
<!-- Node1&#45;&gt;Node34 -->
<g id="edge58_Node000001_Node000034" class="edge">
<title>Node1&#45;&gt;Node34</title>
<g id="a_edge58_Node000001_Node000034"><a xlink:title=" ">
<path fill="none" stroke="#63b8ff" d="M2016.6,-286.01C2085.95,-281.13 2208.38,-269.33 2244.88,-244 2323.68,-189.31 2287.89,-128.35 2350.88,-56 2360.82,-44.58 2374.07,-34.15 2386.37,-26.22"/>
<polygon fill="#63b8ff" stroke="#63b8ff" points="2387.91,-29.38 2394.65,-21.21 2384.29,-23.39 2387.91,-29.38"/>
</a>
</g>
</g>
<!-- Node35 -->
<g id="Node000035" class="node">
<title>Node35</title>
<g id="a_Node000035"><a xlink:href="_shader_program_8h.html" target="_top" xlink:title=" ">
<polygon fill="white" stroke="#666666" points="2905.75,-20 2814,-20 2814,0 2905.75,0 2905.75,-20"/>
<text text-anchor="middle" x="2859.88" y="-6.5" font-family="Helvetica,sans-Serif" font-size="10.00">ShaderProgram.h</text>
</a>
</g>
</g>
<!-- Node1&#45;&gt;Node35 -->
<g id="edge59_Node000001_Node000035" class="edge">
<title>Node1&#45;&gt;Node35</title>
<g id="a_edge59_Node000001_Node000035"><a xlink:title=" ">
<path fill="none" stroke="#63b8ff" d="M2016.65,-288.49C2209.67,-285.87 2908.88,-270.16 2908.88,-179 2908.88,-179 2908.88,-179 2908.88,-121 2908.88,-85.54 2885,-50.3 2870.26,-29.6"/>
<polygon fill="#63b8ff" stroke="#63b8ff" points="2873.26,-27.77 2864.61,-21.65 2867.55,-31.83 2873.26,-27.77"/>
</a>
</g>
</g>
<!-- Node37 -->
<g id="Node000037" class="node">
<title>Node37</title>
<g id="a_Node000037"><a xlink:href="_material_8h.html" target="_top" xlink:title=" ">
<polygon fill="white" stroke="#666666" points="2775.25,-76 2716.5,-76 2716.5,-56 2775.25,-56 2775.25,-76"/>
<text text-anchor="middle" x="2745.88" y="-62.5" font-family="Helvetica,sans-Serif" font-size="10.00">Material.h</text>
</a>
</g>
</g>
<!-- Node1&#45;&gt;Node37 -->
<g id="edge55_Node000001_Node000037" class="edge">
<title>Node1&#45;&gt;Node37</title>
<g id="a_edge55_Node000001_Node000037"><a xlink:title=" ">
<path fill="none" stroke="#63b8ff" d="M2016.78,-289.66C2156.86,-290.84 2556.75,-289.74 2678.88,-244 2755.46,-215.31 2788.7,-205.35 2824.88,-132 2836.54,-108.34 2809.66,-91.23 2784.05,-80.51"/>
<polygon fill="#63b8ff" stroke="#63b8ff" points="2785.64,-77.38 2775.05,-77 2783.09,-83.9 2785.64,-77.38"/>
</a>
</g>
</g>
<!-- Node38 -->
<g id="Node000038" class="node">
<title>Node38</title>
<g id="a_Node000038"><a xlink:href="_model_8h.html" target="_top" xlink:title=" ">
<polygon fill="white" stroke="#666666" points="2714.12,-132 2663.62,-132 2663.62,-112 2714.12,-112 2714.12,-132"/>
<text text-anchor="middle" x="2688.88" y="-118.5" font-family="Helvetica,sans-Serif" font-size="10.00">Model.h</text>
</a>
</g>
</g>
<!-- Node1&#45;&gt;Node38 -->
<g id="edge57_Node000001_Node000038" class="edge">
<title>Node1&#45;&gt;Node38</title>
<g id="a_edge57_Node000001_Node000038"><a xlink:title=" ">
<path fill="none" stroke="#63b8ff" d="M2016.67,-288.28C2158.75,-285.88 2564.73,-276.37 2614.88,-244 2650.81,-220.8 2668.3,-170.71 2678.65,-142.8"/>
<polygon fill="#63b8ff" stroke="#63b8ff" points="2681.8,-144.34 2682.13,-133.75 2675.27,-141.82 2681.8,-144.34"/>
</a>
</g>
</g>
<!-- Node29&#45;&gt;Node1 -->
<g id="edge29_Node000029_Node000001" class="edge">
<title>Node29&#45;&gt;Node1</title>
<g id="a_edge29_Node000029_Node000001"><a xlink:title=" ">
<path fill="none" stroke="#63b8ff" d="M2486.61,-243.44C2485.02,-243.63 2483.44,-243.82 2481.88,-244 2318.22,-262.79 2123.97,-278.15 2027.79,-285.06"/>
<polygon fill="#63b8ff" stroke="#63b8ff" points="2027.79,-281.55 2018.07,-285.75 2028.29,-288.53 2027.79,-281.55"/>
</a>
</g>
</g>
<!-- Node29&#45;&gt;Node30 -->
<g id="edge30_Node000029_Node000030" class="edge">
<title>Node29&#45;&gt;Node30</title>
<g id="a_edge30_Node000029_Node000030"><a xlink:title=" ">
<path fill="none" stroke="#63b8ff" d="M2547.5,-223.59C2556.16,-215.93 2568.61,-204.91 2578.96,-195.75"/>
<polygon fill="#63b8ff" stroke="#63b8ff" points="2581.07,-198.55 2586.24,-189.3 2576.43,-193.31 2581.07,-198.55"/>
</a>
</g>
</g>
<!-- Node30&#45;&gt;Node1 -->
<g id="edge31_Node000030_Node000001" class="edge">
<title>Node30&#45;&gt;Node1</title>
<g id="a_edge31_Node000030_Node000001"><a xlink:title=" ">
<path fill="none" stroke="#63b8ff" d="M2606.8,-188.44C2614.11,-202.58 2619.11,-229.18 2604.88,-244 2565.7,-284.8 2179.34,-289.04 2028.06,-289.17"/>
<polygon fill="#63b8ff" stroke="#63b8ff" points="2028.24,-285.67 2018.24,-289.17 2028.24,-292.67 2028.24,-285.67"/>
</a>
</g>
</g>
<!-- Node30&#45;&gt;Node31 -->
<g id="edge32_Node000030_Node000031" class="edge">
<title>Node30&#45;&gt;Node31</title>
<g id="a_edge32_Node000030_Node000031"><a xlink:title=" ">
<path fill="none" stroke="#63b8ff" d="M2563.21,-167.59C2528.6,-158.2 2475.44,-143.78 2439.01,-133.89"/>
<polygon fill="#63b8ff" stroke="#63b8ff" points="2440.31,-130.62 2429.75,-131.38 2438.48,-137.37 2440.31,-130.62"/>
</a>
</g>
</g>
<!-- Node30&#45;&gt;Node32 -->
<g id="edge34_Node000030_Node000032" class="edge">
<title>Node30&#45;&gt;Node32</title>
<g id="a_edge34_Node000030_Node000032"><a xlink:title=" ">
<path fill="none" stroke="#63b8ff" d="M2585.31,-167.64C2567.44,-154.5 2533.45,-130.18 2502.88,-112 2484.19,-100.89 2462.44,-89.75 2445.24,-81.34"/>
<polygon fill="#63b8ff" stroke="#63b8ff" points="2447.08,-78.34 2436.55,-77.14 2444.03,-84.64 2447.08,-78.34"/>
</a>
</g>
</g>
<!-- Node30&#45;&gt;Node33 -->
<g id="edge36_Node000030_Node000033" class="edge">
<title>Node30&#45;&gt;Node33</title>
<g id="a_edge36_Node000030_Node000033"><a xlink:title=" ">
<path fill="none" stroke="#63b8ff" d="M2575.58,-167.59C2555.51,-159.13 2525.76,-146.58 2502.92,-136.94"/>
<polygon fill="#63b8ff" stroke="#63b8ff" points="2504.31,-133.73 2493.74,-133.07 2501.59,-140.18 2504.31,-133.73"/>
</a>
</g>
</g>
<!-- Node30&#45;&gt;Node34 -->
<g id="edge39_Node000030_Node000034" class="edge">
<title>Node30&#45;&gt;Node34</title>
<g id="a_edge39_Node000030_Node000034"><a xlink:title=" ">
<path fill="none" stroke="#63b8ff" d="M2588.6,-167.61C2575.94,-154.86 2552.47,-131.42 2531.88,-112 2504.86,-86.52 2497.57,-80.73 2469.88,-56 2459.33,-46.58 2447.49,-36.13 2437.88,-27.67"/>
<polygon fill="#63b8ff" stroke="#63b8ff" points="2440.41,-25.24 2430.59,-21.27 2435.79,-30.5 2440.41,-25.24"/>
</a>
</g>
</g>
<!-- Node30&#45;&gt;Node35 -->
<g id="edge41_Node000030_Node000035" class="edge">
<title>Node30&#45;&gt;Node35</title>
<g id="a_edge41_Node000030_Node000035"><a xlink:title=" ">
<path fill="none" stroke="#63b8ff" d="M2600.97,-167.8C2605.79,-154.43 2616.1,-129.34 2630.88,-112 2674.86,-60.4 2750.31,-34.18 2802.53,-21.57"/>
<polygon fill="#63b8ff" stroke="#63b8ff" points="2803.19,-25.01 2812.15,-19.35 2801.62,-18.19 2803.19,-25.01"/>
</a>
</g>
</g>
<!-- Node36 -->
<g id="Node000036" class="node">
<title>Node36</title>
<g id="a_Node000036"><a xlink:href="_shader_manager_8h.html" target="_top" xlink:title=" ">
<polygon fill="white" stroke="#666666" points="2825.12,-132 2732.62,-132 2732.62,-112 2825.12,-112 2825.12,-132"/>
<text text-anchor="middle" x="2778.88" y="-118.5" font-family="Helvetica,sans-Serif" font-size="10.00">ShaderManager.h</text>
</a>
</g>
</g>
<!-- Node30&#45;&gt;Node36 -->
<g id="edge43_Node000030_Node000036" class="edge">
<title>Node30&#45;&gt;Node36</title>
<g id="a_edge43_Node000030_Node000036"><a xlink:title=" ">
<path fill="none" stroke="#63b8ff" d="M2629.4,-167.59C2659.07,-158.74 2703.71,-145.43 2736.48,-135.65"/>
<polygon fill="#63b8ff" stroke="#63b8ff" points="2737.07,-139.13 2745.65,-132.91 2735.07,-132.42 2737.07,-139.13"/>
</a>
</g>
</g>
<!-- Node30&#45;&gt;Node37 -->
<g id="edge45_Node000030_Node000037" class="edge">
<title>Node30&#45;&gt;Node37</title>
<g id="a_edge45_Node000030_Node000037"><a xlink:title=" ">
<path fill="none" stroke="#63b8ff" d="M2604.3,-167.57C2613.97,-153.91 2633.45,-128.46 2654.88,-112 2671.54,-99.2 2692.43,-88.56 2709.98,-80.84"/>
<polygon fill="#63b8ff" stroke="#63b8ff" points="2711.18,-84.14 2719.02,-77.02 2708.45,-77.69 2711.18,-84.14"/>
</a>
</g>
</g>
<!-- Node30&#45;&gt;Node38 -->
<g id="edge49_Node000030_Node000038" class="edge">
<title>Node30&#45;&gt;Node38</title>
<g id="a_edge49_Node000030_Node000038"><a xlink:title=" ">
<path fill="none" stroke="#63b8ff" d="M2613.73,-167.59C2627.34,-159.51 2647.24,-147.71 2663.14,-138.27"/>
<polygon fill="#63b8ff" stroke="#63b8ff" points="2664.78,-141.37 2671.6,-133.25 2661.21,-135.35 2664.78,-141.37"/>
</a>
</g>
</g>
<!-- Node31&#45;&gt;Node1 -->
<g id="edge33_Node000031_Node000001" class="edge">
<title>Node31&#45;&gt;Node1</title>
<g id="a_edge33_Node000031_Node000001"><a xlink:title=" ">
<path fill="none" stroke="#63b8ff" d="M2403.54,-132.41C2408.08,-155.54 2404.51,-215.4 2369.88,-244 2319.57,-285.54 2127.5,-290.21 2028.09,-289.85"/>
<polygon fill="#63b8ff" stroke="#63b8ff" points="2028.27,-286.35 2018.25,-289.8 2028.23,-293.35 2028.27,-286.35"/>
</a>
</g>
</g>
<!-- Node32&#45;&gt;Node1 -->
<g id="edge35_Node000032_Node000001" class="edge">
<title>Node32&#45;&gt;Node1</title>
<g id="a_edge35_Node000032_Node000001"><a xlink:title=" ">
<path fill="none" stroke="#63b8ff" d="M2407.57,-76.2C2397.45,-84.38 2380.79,-97.3 2369.88,-112 2331.89,-163.17 2364.56,-205.37 2313.88,-244 2270.63,-276.95 2115.1,-285.78 2027.94,-288.14"/>
<polygon fill="#63b8ff" stroke="#63b8ff" points="2028.05,-284.64 2018.14,-288.39 2028.22,-291.64 2028.05,-284.64"/>
</a>
</g>
</g>
<!-- Node33&#45;&gt;Node1 -->
<g id="edge37_Node000033_Node000001" class="edge">
<title>Node33&#45;&gt;Node1</title>
<g id="a_edge37_Node000033_Node000001"><a xlink:title=" ">
<path fill="none" stroke="#63b8ff" d="M2471.39,-132.29C2468.28,-155.7 2444.5,-217.13 2400.88,-244 2340.35,-281.27 2132.01,-287.95 2027.9,-288.96"/>
<polygon fill="#63b8ff" stroke="#63b8ff" points="2028.13,-285.45 2018.16,-289.04 2028.19,-292.45 2028.13,-285.45"/>
</a>
</g>
</g>
<!-- Node33&#45;&gt;Node32 -->
<g id="edge38_Node000033_Node000032" class="edge">
<title>Node33&#45;&gt;Node32</title>
<g id="a_edge38_Node000033_Node000032"><a xlink:title=" ">
<path fill="none" stroke="#63b8ff" d="M2460.29,-111.59C2452.64,-104.08 2441.72,-93.35 2432.5,-84.3"/>
<polygon fill="#63b8ff" stroke="#63b8ff" points="2435.01,-81.87 2425.43,-77.36 2430.11,-86.86 2435.01,-81.87"/>
</a>
</g>
</g>
<!-- Node34&#45;&gt;Node1 -->
<g id="edge40_Node000034_Node000001" class="edge">
<title>Node34&#45;&gt;Node1</title>
<g id="a_edge40_Node000034_Node000001"><a xlink:title=" ">
<path fill="none" stroke="#63b8ff" d="M2410.62,-20.26C2399.64,-28.48 2381.56,-41.43 2368.88,-56 2305.89,-128.35 2341.68,-189.31 2262.88,-244 2226.25,-269.42 2103.05,-281.22 2027.86,-286.07"/>
<polygon fill="#63b8ff" stroke="#63b8ff" points="2027.95,-282.55 2018.18,-286.67 2028.38,-289.54 2027.95,-282.55"/>
</a>
</g>
</g>
<!-- Node35&#45;&gt;Node1 -->
<g id="edge42_Node000035_Node000001" class="edge">
<title>Node35&#45;&gt;Node1</title>
<g id="a_edge42_Node000035_Node000001"><a xlink:title=" ">
<path fill="none" stroke="#63b8ff" d="M2874.14,-20.42C2894.25,-38.4 2926.88,-79.55 2926.88,-121 2926.88,-179 2926.88,-179 2926.88,-179 2926.88,-269.44 2238.73,-285.61 2028.24,-288.43"/>
<polygon fill="#63b8ff" stroke="#63b8ff" points="2028.29,-284.92 2018.34,-288.55 2028.38,-291.92 2028.29,-284.92"/>
</a>
</g>
</g>
<!-- Node36&#45;&gt;Node1 -->
<g id="edge44_Node000036_Node000001" class="edge">
<title>Node36&#45;&gt;Node1</title>
<g id="a_edge44_Node000036_Node000001"><a xlink:title=" ">
<path fill="none" stroke="#63b8ff" d="M2773.21,-132.15C2758,-155.79 2713.62,-218.75 2657.88,-244 2601.3,-269.62 2185.29,-283.23 2027.94,-287.5"/>
<polygon fill="#63b8ff" stroke="#63b8ff" points="2028.04,-283.99 2018.13,-287.76 2028.22,-290.99 2028.04,-283.99"/>
</a>
</g>
</g>
<!-- Node37&#45;&gt;Node1 -->
<g id="edge46_Node000037_Node000001" class="edge">
<title>Node37&#45;&gt;Node1</title>
<g id="a_edge46_Node000037_Node000001"><a xlink:title=" ">
<path fill="none" stroke="#63b8ff" d="M2775.54,-72.98C2809.44,-82.1 2857.83,-101.68 2842.88,-132 2806.7,-205.35 2773.46,-215.31 2696.88,-244 2575.57,-289.44 2180.18,-290.83 2028.12,-289.69"/>
<polygon fill="#63b8ff" stroke="#63b8ff" points="2028.28,-286.19 2018.25,-289.6 2028.22,-293.19 2028.28,-286.19"/>
</a>
</g>
</g>
<!-- Node37&#45;&gt;Node34 -->
<g id="edge48_Node000037_Node000034" class="edge">
<title>Node37&#45;&gt;Node34</title>
<g id="a_edge48_Node000037_Node000034"><a xlink:title=" ">
<path fill="none" stroke="#63b8ff" d="M2716.28,-60.11C2660.36,-50.88 2538.6,-30.77 2469.47,-19.35"/>
<polygon fill="#63b8ff" stroke="#63b8ff" points="2470.36,-15.96 2459.92,-17.78 2469.22,-22.86 2470.36,-15.96"/>
</a>
</g>
</g>
<!-- Node37&#45;&gt;Node35 -->
<g id="edge47_Node000037_Node000035" class="edge">
<title>Node37&#45;&gt;Node35</title>
<g id="a_edge47_Node000037_Node000035"><a xlink:title=" ">
<path fill="none" stroke="#63b8ff" d="M2765.73,-55.59C2783.36,-47.24 2809.38,-34.92 2829.6,-25.34"/>
<polygon fill="#63b8ff" stroke="#63b8ff" points="2830.96,-28.57 2838.49,-21.13 2827.96,-22.25 2830.96,-28.57"/>
</a>
</g>
</g>
<!-- Node38&#45;&gt;Node1 -->
<g id="edge50_Node000038_Node000001" class="edge">
<title>Node38&#45;&gt;Node1</title>
<g id="a_edge50_Node000038_Node000001"><a xlink:title=" ">
<path fill="none" stroke="#63b8ff" d="M2691.43,-132.34C2690.92,-155.85 2673.95,-217.49 2632.88,-244 2583.05,-276.16 2181.88,-285.76 2027.77,-288.24"/>
<polygon fill="#63b8ff" stroke="#63b8ff" points="2028.13,-284.73 2018.19,-288.38 2028.24,-291.73 2028.13,-284.73"/>
</a>
</g>
</g>
<!-- Node38&#45;&gt;Node37 -->
<g id="edge51_Node000038_Node000037" class="edge">
<title>Node38&#45;&gt;Node37</title>
<g id="a_edge51_Node000038_Node000037"><a xlink:title=" ">
<path fill="none" stroke="#63b8ff" d="M2698.8,-111.59C2706.81,-104.01 2718.29,-93.13 2727.91,-84.02"/>
<polygon fill="#63b8ff" stroke="#63b8ff" points="2730.11,-86.76 2734.96,-77.34 2725.29,-81.68 2730.11,-86.76"/>
</a>
</g>
</g>
</g>
</svg>

<g id="navigator" transform="translate(0 0)" fill="#404254">
  <rect fill="#f2f5e9" fill-opacity="0.5" stroke="#606060" stroke-width=".5" x="0" y="0" width="60" height="60"/>
  <use id="zoomplus" xlink:href="#zoomPlus" x="17" y="9" onmousedown="handleZoom(evt,'in')"/>
  <use id="zoomminus" xlink:href="#zoomMin" x="42" y="9" onmousedown="handleZoom(evt,'out')"/>
  <use id="reset" xlink:href="#resetDef" x="30" y="36" onmousedown="handleReset()"/>
   <use id="arrowup" xlink:href="#arrowUp" x="0" y="0" onmousedown="handlePan(0,-1)"/>
  <use id="arrowright" xlink:href="#arrowRight" x="0" y="0" onmousedown="handlePan(1,0)"/>
  <use id="arrowdown" xlink:href="#arrowDown" x="0" y="0" onmousedown="handlePan(0,1)"/>
  <use id="arrowleft" xlink:href="#arrowLeft" x="0" y="0" onmousedown="handlePan(-1,0)"/>
</g>
<svg viewBox="0 0 15 15" width="100%" height="30px" preserveAspectRatio="xMaxYMin meet">
 <g id="arrow_out" transform="scale(0.3 0.3)">
  <a xlink:href="_game_engine_8h__incl_org.svg" target="_base">
   <rect id="button" ry="5" rx="5" y="6" x="6" height="38" width="38"
        fill="#f2f5e9" fill-opacity="0.5" stroke="#606060" stroke-width="1.0"/>
   <path id="arrow"
     d="M 11.500037,31.436501 C 11.940474,20.09759 22.043105,11.32322 32.158766,21.979434 L 37.068811,17.246167 C 37.068811,17.246167 37.088388,32 37.088388,32 L 22.160133,31.978069 C 22.160133,31.978069 26.997745,27.140456 26.997745,27.140456 C 18.528582,18.264221 13.291696,25.230495 11.500037,31.436501 z"
     style="fill:#404040;"/>
  </a>
 </g>
</svg>

<style type='text/css'>
<![CDATA[
[data-mouse-over-selected='false'] { opacity: 0.7; }
[data-mouse-over-selected='true']  { opacity: 1.0; }
]]>
</style>
<script type="application/ecmascript"><![CDATA[
document.addEventListener('DOMContentLoaded', (event) => {
  highlightEdges();
  highlightAdjacentNodes();
});
]]></script>
</svg>
