<?xml version="1.0" encoding="UTF-8" standalone="no"?>
<!DOCTYPE svg PUBLIC "-//W3C//DTD SVG 1.1//EN"
 "http://www.w3.org/Graphics/SVG/1.1/DTD/svg11.dtd">
<!-- Generated by graphviz version 9.0.0 (20230911.1827)
 -->
<!-- Title: src/GameEngine.h Pages: 1 -->
<svg width="1597pt" height="364pt"
 viewBox="0.00 0.00 1596.83 364.00" xmlns="http://www.w3.org/2000/svg" xmlns:xlink="http://www.w3.org/1999/xlink">
<g id="graph0" class="graph" transform="scale(1 1) rotate(0) translate(4 360)">
<title>src/GameEngine.h</title>
<!-- Node1 -->
<g id="Node000001" class="node">
<title>Node1</title>
<g id="a_Node000001"><a xlink:title=" ">
<polygon fill="#999999" stroke="#666666" points="563.5,-356 466.5,-356 466.5,-336 563.5,-336 563.5,-356"/>
<text text-anchor="middle" x="515" y="-342.5" font-family="Helvetica,sans-Serif" font-size="10.00">src/GameEngine.h</text>
</a>
</g>
</g>
<!-- Node2 -->
<g id="Node000002" class="node">
<title>Node2</title>
<g id="a_Node000002"><a xlink:href="_camera_8h.html" target="_top" xlink:title=" ">
<polygon fill="white" stroke="#666666" points="243.25,-300 168.75,-300 168.75,-280 243.25,-280 243.25,-300"/>
<text text-anchor="middle" x="206" y="-286.5" font-family="Helvetica,sans-Serif" font-size="10.00">src/Camera.h</text>
</a>
</g>
</g>
<!-- Node1&#45;&gt;Node2 -->
<g id="edge1_Node000001_Node000002" class="edge">
<title>Node1&#45;&gt;Node2</title>
<g id="a_edge1_Node000001_Node000002"><a xlink:title=" ">
<path fill="none" stroke="#63b8ff" d="M454.88,-335.42C392.21,-324.83 296.12,-308.01 243.49,-298.39"/>
<polygon fill="#63b8ff" stroke="#63b8ff" points="454.23,-338.86 464.68,-337.07 455.4,-331.96 454.23,-338.86"/>
</a>
</g>
</g>
<!-- Node4 -->
<g id="Node000004" class="node">
<title>Node4</title>
<g id="a_Node000004"><a xlink:href="_direct_x_manager_8h.html" target="_top" xlink:title=" ">
<polygon fill="white" stroke="#666666" points="369.5,-132 260.5,-132 260.5,-112 369.5,-112 369.5,-132"/>
<text text-anchor="middle" x="315" y="-118.5" font-family="Helvetica,sans-Serif" font-size="10.00">src/DirectXManager.h</text>
</a>
</g>
</g>
<!-- Node1&#45;&gt;Node4 -->
<g id="edge10_Node000001_Node000004" class="edge">
<title>Node1&#45;&gt;Node4</title>
<g id="a_edge10_Node000001_Node000004"><a xlink:title=" ">
<path fill="none" stroke="#63b8ff" d="M454.74,-343.64C364.44,-340.57 199.76,-330.76 151,-300 125.98,-284.21 123.34,-272.39 115,-244 104.52,-208.32 120.32,-190.4 150,-168 181.61,-144.14 225.51,-132.92 260.18,-127.65"/>
<polygon fill="#63b8ff" stroke="#63b8ff" points="454.55,-347.14 464.65,-343.96 454.77,-340.14 454.55,-347.14"/>
</a>
</g>
</g>
<!-- Node6 -->
<g id="Node000006" class="node">
<title>Node6</title>
<g id="a_Node000006"><a xlink:href="_win32_application_8h.html" target="_top" xlink:title=" ">
<polygon fill="white" stroke="#666666" points="256.25,-76 139.75,-76 139.75,-56 256.25,-56 256.25,-76"/>
<text text-anchor="middle" x="198" y="-62.5" font-family="Helvetica,sans-Serif" font-size="10.00">src/Win32Application.h</text>
</a>
</g>
</g>
<!-- Node1&#45;&gt;Node6 -->
<g id="edge47_Node000001_Node000006" class="edge">
<title>Node1&#45;&gt;Node6</title>
<g id="a_edge47_Node000001_Node000006"><a xlink:title=" ">
<path fill="none" stroke="#63b8ff" d="M455.05,-344.55C319.19,-342 0,-326.39 0,-235 0,-235 0,-235 0,-177 0,-113.41 80.91,-85.94 139.38,-74.55"/>
<polygon fill="#63b8ff" stroke="#63b8ff" points="454.88,-348.05 464.94,-344.72 455,-341.05 454.88,-348.05"/>
</a>
</g>
</g>
<!-- Node8 -->
<g id="Node000008" class="node">
<title>Node8</title>
<g id="a_Node000008"><a xlink:href="_game_engine_8cpp.html" target="_top" xlink:title=" ">
<polygon fill="white" stroke="#666666" points="1445.75,-244 1338.25,-244 1338.25,-224 1445.75,-224 1445.75,-244"/>
<text text-anchor="middle" x="1392" y="-230.5" font-family="Helvetica,sans-Serif" font-size="10.00">src/GameEngine.cpp</text>
</a>
</g>
</g>
<!-- Node1&#45;&gt;Node8 -->
<g id="edge11_Node000001_Node000008" class="edge">
<title>Node1&#45;&gt;Node8</title>
<g id="a_edge11_Node000001_Node000008"><a xlink:title=" ">
<path fill="none" stroke="#63b8ff" d="M575.35,-344.27C687.36,-342.11 934.69,-333.59 1140,-300 1221.82,-286.61 1315.82,-259.02 1362.5,-244.47"/>
<polygon fill="#63b8ff" stroke="#63b8ff" points="575.42,-340.76 565.49,-344.44 575.55,-347.76 575.42,-340.76"/>
</a>
</g>
</g>
<!-- Node9 -->
<g id="Node000009" class="node">
<title>Node9</title>
<g id="a_Node000009"><a xlink:href="_graphics_device_8h.html" target="_top" xlink:title=" ">
<polygon fill="white" stroke="#666666" points="823.12,-300 714.88,-300 714.88,-280 823.12,-280 823.12,-300"/>
<text text-anchor="middle" x="769" y="-286.5" font-family="Helvetica,sans-Serif" font-size="10.00">src/GraphicsDevice.h</text>
</a>
</g>
</g>
<!-- Node1&#45;&gt;Node9 -->
<g id="edge12_Node000001_Node000009" class="edge">
<title>Node1&#45;&gt;Node9</title>
<g id="a_edge12_Node000001_Node000009"><a xlink:title=" ">
<path fill="none" stroke="#63b8ff" d="M565.43,-333.06C610.09,-323.25 674.78,-309.52 719.24,-300.46"/>
<polygon fill="#63b8ff" stroke="#63b8ff" points="564.74,-329.63 555.73,-335.21 566.25,-336.47 564.74,-329.63"/>
</a>
</g>
</g>
<!-- Node11 -->
<g id="Node000011" class="node">
<title>Node11</title>
<g id="a_Node000011"><a xlink:href="_mesh_8h.html" target="_top" xlink:title=" ">
<polygon fill="white" stroke="#666666" points="1206.38,-188 1141.62,-188 1141.62,-168 1206.38,-168 1206.38,-188"/>
<text text-anchor="middle" x="1174" y="-174.5" font-family="Helvetica,sans-Serif" font-size="10.00">src/Mesh.h</text>
</a>
</g>
</g>
<!-- Node1&#45;&gt;Node11 -->
<g id="edge30_Node000001_Node000011" class="edge">
<title>Node1&#45;&gt;Node11</title>
<g id="a_edge30_Node000001_Node000011"><a xlink:title=" ">
<path fill="none" stroke="#63b8ff" d="M575.16,-344.75C777.23,-343.57 1423.15,-336.94 1509,-300 1541.91,-285.84 1553,-276.98 1567,-244 1570.47,-235.82 1572.93,-230.63 1567,-224 1542.86,-197.01 1296.68,-184.3 1206.62,-180.38"/>
<polygon fill="#63b8ff" stroke="#63b8ff" points="575.4,-341.25 565.42,-344.8 575.44,-348.25 575.4,-341.25"/>
</a>
</g>
</g>
<!-- Node14 -->
<g id="Node000014" class="node">
<title>Node14</title>
<g id="a_Node000014"><a xlink:href="_material_8h.html" target="_top" xlink:title=" ">
<polygon fill="white" stroke="#666666" points="357.62,-244 282.38,-244 282.38,-224 357.62,-224 357.62,-244"/>
<text text-anchor="middle" x="320" y="-230.5" font-family="Helvetica,sans-Serif" font-size="10.00">src/Material.h</text>
</a>
</g>
</g>
<!-- Node1&#45;&gt;Node14 -->
<g id="edge21_Node000001_Node000014" class="edge">
<title>Node1&#45;&gt;Node14</title>
<g id="a_edge21_Node000001_Node000014"><a xlink:title=" ">
<path fill="none" stroke="#63b8ff" d="M454.86,-344.83C414.34,-341.87 362.68,-331.59 330,-300 314.61,-285.13 311.5,-258.55 314.22,-244.43"/>
<polygon fill="#63b8ff" stroke="#63b8ff" points="454.54,-348.31 464.73,-345.4 454.95,-341.33 454.54,-348.31"/>
</a>
</g>
</g>
<!-- Node16 -->
<g id="Node000016" class="node">
<title>Node16</title>
<g id="a_Node000016"><a xlink:href="_model_8h.html" target="_top" xlink:title=" ">
<polygon fill="white" stroke="#666666" points="1123.5,-188 1056.5,-188 1056.5,-168 1123.5,-168 1123.5,-188"/>
<text text-anchor="middle" x="1090" y="-174.5" font-family="Helvetica,sans-Serif" font-size="10.00">src/Model.h</text>
</a>
</g>
</g>
<!-- Node1&#45;&gt;Node16 -->
<g id="edge31_Node000001_Node000016" class="edge">
<title>Node1&#45;&gt;Node16</title>
<g id="a_edge31_Node000001_Node000016"><a xlink:title=" ">
<path fill="none" stroke="#63b8ff" d="M575.21,-344.03C770.5,-340.7 1378.08,-328.37 1462,-300 1503.46,-285.98 1522.68,-282.76 1543,-244 1586.58,-160.89 1217.66,-201.59 1124.27,-188.04"/>
<polygon fill="#63b8ff" stroke="#63b8ff" points="575.21,-340.53 565.27,-344.2 575.33,-347.53 575.21,-340.53"/>
</a>
</g>
</g>
<!-- Node17 -->
<g id="Node000017" class="node">
<title>Node17</title>
<g id="a_Node000017"><a xlink:href="_render_state_8h.html" target="_top" xlink:title=" ">
<polygon fill="white" stroke="#666666" points="442.38,-300 347.62,-300 347.62,-280 442.38,-280 442.38,-300"/>
<text text-anchor="middle" x="395" y="-286.5" font-family="Helvetica,sans-Serif" font-size="10.00">src/RenderState.h</text>
</a>
</g>
</g>
<!-- Node1&#45;&gt;Node17 -->
<g id="edge32_Node000001_Node000017" class="edge">
<title>Node1&#45;&gt;Node17</title>
<g id="a_edge32_Node000001_Node000017"><a xlink:title=" ">
<path fill="none" stroke="#63b8ff" d="M478.22,-331.14C455.63,-321.52 427.96,-308.97 410.78,-300.48"/>
<polygon fill="#63b8ff" stroke="#63b8ff" points="476.86,-334.37 487.44,-335.01 479.57,-327.91 476.86,-334.37"/>
</a>
</g>
</g>
<!-- Node19 -->
<g id="Node000019" class="node">
<title>Node19</title>
<g id="a_Node000019"><a xlink:href="_scene_8h.html" target="_top" xlink:title=" ">
<polygon fill="white" stroke="#666666" points="1462.25,-300 1393.75,-300 1393.75,-280 1462.25,-280 1462.25,-300"/>
<text text-anchor="middle" x="1428" y="-286.5" font-family="Helvetica,sans-Serif" font-size="10.00">src/Scene.h</text>
</a>
</g>
</g>
<!-- Node1&#45;&gt;Node19 -->
<g id="edge37_Node000001_Node000019" class="edge">
<title>Node1&#45;&gt;Node19</title>
<g id="a_edge37_Node000001_Node000019"><a xlink:title=" ">
<path fill="none" stroke="#63b8ff" d="M574.98,-341.91C706.97,-335.05 1032.54,-317.73 1305,-300 1334.81,-298.06 1368.65,-295.56 1393.28,-293.69"/>
<polygon fill="#63b8ff" stroke="#63b8ff" points="574.88,-338.42 565.07,-342.43 575.24,-345.41 574.88,-338.42"/>
</a>
</g>
</g>
<!-- Node21 -->
<g id="Node000021" class="node">
<title>Node21</title>
<g id="a_Node000021"><a xlink:href="_shader_manager_8h.html" target="_top" xlink:title=" ">
<polygon fill="white" stroke="#666666" points="696.5,-300 587.5,-300 587.5,-280 696.5,-280 696.5,-300"/>
<text text-anchor="middle" x="642" y="-286.5" font-family="Helvetica,sans-Serif" font-size="10.00">src/ShaderManager.h</text>
</a>
</g>
</g>
<!-- Node1&#45;&gt;Node21 -->
<g id="edge39_Node000001_Node000021" class="edge">
<title>Node1&#45;&gt;Node21</title>
<g id="a_edge39_Node000001_Node000021"><a xlink:title=" ">
<path fill="none" stroke="#63b8ff" d="M547.6,-331.14C570.21,-321.52 599.74,-308.97 619.71,-300.48"/>
<polygon fill="#63b8ff" stroke="#63b8ff" points="546.35,-327.87 538.51,-335 549.09,-334.31 546.35,-327.87"/>
</a>
</g>
</g>
<!-- Node23 -->
<g id="Node000023" class="node">
<title>Node23</title>
<g id="a_Node000023"><a xlink:href="_shader_program_8h.html" target="_top" xlink:title=" ">
<polygon fill="white" stroke="#666666" points="569.12,-300 460.88,-300 460.88,-280 569.12,-280 569.12,-300"/>
<text text-anchor="middle" x="515" y="-286.5" font-family="Helvetica,sans-Serif" font-size="10.00">src/ShaderProgram.h</text>
</a>
</g>
</g>
<!-- Node1&#45;&gt;Node23 -->
<g id="edge42_Node000001_Node000023" class="edge">
<title>Node1&#45;&gt;Node23</title>
<g id="a_edge42_Node000001_Node000023"><a xlink:title=" ">
<path fill="none" stroke="#63b8ff" d="M508.42,-324.43C507.97,-316.11 508.41,-306.93 509.75,-300.3"/>
<polygon fill="#63b8ff" stroke="#63b8ff" points="504.92,-324.57 509.56,-334.09 511.87,-323.75 504.92,-324.57"/>
</a>
</g>
</g>
<!-- Node25 -->
<g id="Node000025" class="node">
<title>Node25</title>
<g id="a_Node000025"><a xlink:href="pch_8h.html" target="_top" xlink:title=" ">
<polygon fill="white" stroke="#666666" points="1131.25,-300 1074.75,-300 1074.75,-280 1131.25,-280 1131.25,-300"/>
<text text-anchor="middle" x="1103" y="-286.5" font-family="Helvetica,sans-Serif" font-size="10.00">src/pch.h</text>
</a>
</g>
</g>
<!-- Node1&#45;&gt;Node25 -->
<g id="edge48_Node000001_Node000025" class="edge">
<title>Node1&#45;&gt;Node25</title>
<g id="a_edge48_Node000001_Node000025"><a xlink:title=" ">
<path fill="none" stroke="#63b8ff" d="M575.09,-339.48C699.99,-328.01 983.54,-301.97 1074.41,-293.63"/>
<polygon fill="#63b8ff" stroke="#63b8ff" points="575.01,-335.97 565.38,-340.37 575.66,-342.94 575.01,-335.97"/>
</a>
</g>
</g>
<!-- Node2&#45;&gt;Node1 -->
<g id="edge9_Node000002_Node000001" class="edge">
<title>Node2&#45;&gt;Node1</title>
<g id="a_edge9_Node000002_Node000001"><a xlink:title=" ">
<path fill="none" stroke="#63b8ff" d="M254.56,-298.63C312.37,-308.32 408.15,-325.04 466.1,-335.53"/>
<polygon fill="#63b8ff" stroke="#63b8ff" points="255.46,-295.24 245.02,-297.04 254.31,-302.14 255.46,-295.24"/>
</a>
</g>
</g>
<!-- Node3 -->
<g id="Node000003" class="node">
<title>Node3</title>
<g id="a_Node000003"><a xlink:href="_camera_8cpp.html" target="_top" xlink:title=" ">
<polygon fill="white" stroke="#666666" points="225.5,-244 140.5,-244 140.5,-224 225.5,-224 225.5,-244"/>
<text text-anchor="middle" x="183" y="-230.5" font-family="Helvetica,sans-Serif" font-size="10.00">src/Camera.cpp</text>
</a>
</g>
</g>
<!-- Node2&#45;&gt;Node3 -->
<g id="edge2_Node000002_Node000003" class="edge">
<title>Node2&#45;&gt;Node3</title>
<g id="a_edge2_Node000002_Node000003"><a xlink:title=" ">
<path fill="none" stroke="#63b8ff" d="M197.48,-269C193.88,-260.54 189.85,-251.08 186.96,-244.3"/>
<polygon fill="#63b8ff" stroke="#63b8ff" points="194.26,-270.37 201.4,-278.2 200.7,-267.63 194.26,-270.37"/>
</a>
</g>
</g>
<!-- Node2&#45;&gt;Node4 -->
<g id="edge3_Node000002_Node000004" class="edge">
<title>Node2&#45;&gt;Node4</title>
<g id="a_edge3_Node000002_Node000004"><a xlink:title=" ">
<path fill="none" stroke="#63b8ff" d="M168.88,-275.12C144.12,-263.56 118.25,-245.54 131,-224 161.72,-172.1 229.62,-145.09 273.79,-132.48"/>
<polygon fill="#63b8ff" stroke="#63b8ff" points="167.35,-278.28 177.92,-279.07 170.15,-271.86 167.35,-278.28"/>
</a>
</g>
</g>
<!-- Node4&#45;&gt;Node1 -->
<g id="edge5_Node000004_Node000001" class="edge">
<title>Node4&#45;&gt;Node1</title>
<g id="a_edge5_Node000004_Node000001"><a xlink:title=" ">
<path fill="none" stroke="#63b8ff" d="M249.26,-132.88C222.13,-139.39 191.63,-150.17 168,-168 138.32,-190.4 122.52,-208.32 133,-244 141.34,-272.39 143.98,-284.21 169,-300 217.8,-330.78 382.68,-340.59 466.06,-343.65"/>
<polygon fill="#63b8ff" stroke="#63b8ff" points="249.78,-136.35 258.78,-130.76 248.26,-129.52 249.78,-136.35"/>
</a>
</g>
</g>
<!-- Node5 -->
<g id="Node000005" class="node">
<title>Node5</title>
<g id="a_Node000005"><a xlink:href="_direct_x_manager_8cpp.html" target="_top" xlink:title=" ">
<polygon fill="white" stroke="#666666" points="802.75,-76 683.25,-76 683.25,-56 802.75,-56 802.75,-76"/>
<text text-anchor="middle" x="743" y="-62.5" font-family="Helvetica,sans-Serif" font-size="10.00">src/DirectXManager.cpp</text>
</a>
</g>
</g>
<!-- Node4&#45;&gt;Node5 -->
<g id="edge4_Node000004_Node000005" class="edge">
<title>Node4&#45;&gt;Node5</title>
<g id="a_edge4_Node000004_Node000005"><a xlink:title=" ">
<path fill="none" stroke="#63b8ff" d="M380.87,-112.69C463.28,-102.29 603.2,-84.64 682.83,-74.59"/>
<polygon fill="#63b8ff" stroke="#63b8ff" points="380.63,-109.19 371.14,-113.92 381.5,-116.14 380.63,-109.19"/>
</a>
</g>
</g>
<!-- Node4&#45;&gt;Node6 -->
<g id="edge6_Node000004_Node000006" class="edge">
<title>Node4&#45;&gt;Node6</title>
<g id="a_edge6_Node000004_Node000006"><a xlink:title=" ">
<path fill="none" stroke="#63b8ff" d="M284.4,-106.88C263.64,-97.3 236.76,-84.89 218.54,-76.48"/>
<polygon fill="#63b8ff" stroke="#63b8ff" points="282.7,-109.95 293.25,-110.96 285.63,-103.59 282.7,-109.95"/>
</a>
</g>
</g>
<!-- Node6&#45;&gt;Node1 -->
<g id="edge7_Node000006_Node000001" class="edge">
<title>Node6&#45;&gt;Node1</title>
<g id="a_edge7_Node000006_Node000001"><a xlink:title=" ">
<path fill="none" stroke="#63b8ff" d="M132.62,-79.24C81.08,-92.86 18,-120.85 18,-177 18,-235 18,-235 18,-235 18,-326.92 340.89,-342.18 466.22,-344.6"/>
<polygon fill="#63b8ff" stroke="#63b8ff" points="133.43,-82.65 142.28,-76.83 131.73,-75.86 133.43,-82.65"/>
</a>
</g>
</g>
<!-- Node7 -->
<g id="Node000007" class="node">
<title>Node7</title>
<g id="a_Node000007"><a xlink:href="_win32_application_8cpp.html" target="_top" xlink:title=" ">
<polygon fill="white" stroke="#666666" points="852.5,-20 725.5,-20 725.5,0 852.5,0 852.5,-20"/>
<text text-anchor="middle" x="789" y="-6.5" font-family="Helvetica,sans-Serif" font-size="10.00">src/Win32Application.cpp</text>
</a>
</g>
</g>
<!-- Node6&#45;&gt;Node7 -->
<g id="edge8_Node000006_Node000007" class="edge">
<title>Node6&#45;&gt;Node7</title>
<g id="a_edge8_Node000006_Node000007"><a xlink:title=" ">
<path fill="none" stroke="#63b8ff" d="M267.74,-58.63C383.56,-48.05 613.86,-27 725.45,-16.81"/>
<polygon fill="#63b8ff" stroke="#63b8ff" points="267.7,-55.12 258.06,-59.51 268.34,-62.09 267.7,-55.12"/>
</a>
</g>
</g>
<!-- Node9&#45;&gt;Node1 -->
<g id="edge14_Node000009_Node000001" class="edge">
<title>Node9&#45;&gt;Node1</title>
<g id="a_edge14_Node000009_Node000001"><a xlink:title=" ">
<path fill="none" stroke="#63b8ff" d="M718.94,-302.85C673.98,-312.74 608.51,-326.63 563.91,-335.72"/>
<polygon fill="#63b8ff" stroke="#63b8ff" points="719.41,-306.33 728.42,-300.76 717.9,-299.5 719.41,-306.33"/>
</a>
</g>
</g>
<!-- Node9&#45;&gt;Node4 -->
<g id="edge13_Node000009_Node000004" class="edge">
<title>Node9&#45;&gt;Node4</title>
<g id="a_edge13_Node000009_Node000004"><a xlink:title=" ">
<path fill="none" stroke="#63b8ff" d="M713.3,-276.9C681.1,-269.12 640.13,-257.87 605,-244 587.25,-236.99 584.33,-232.01 567,-224 486.13,-186.64 387.32,-149.39 341.13,-132.46"/>
<polygon fill="#63b8ff" stroke="#63b8ff" points="712.29,-280.25 722.83,-279.15 713.9,-273.44 712.29,-280.25"/>
</a>
</g>
</g>
<!-- Node10 -->
<g id="Node000010" class="node">
<title>Node10</title>
<g id="a_Node000010"><a xlink:href="_graphics_device_8cpp.html" target="_top" xlink:title=" ">
<polygon fill="white" stroke="#666666" points="1044.38,-244 925.62,-244 925.62,-224 1044.38,-224 1044.38,-244"/>
<text text-anchor="middle" x="985" y="-230.5" font-family="Helvetica,sans-Serif" font-size="10.00">src/GraphicsDevice.cpp</text>
</a>
</g>
</g>
<!-- Node9&#45;&gt;Node10 -->
<g id="edge15_Node000009_Node000010" class="edge">
<title>Node9&#45;&gt;Node10</title>
<g id="a_edge15_Node000009_Node000010"><a xlink:title=" ">
<path fill="none" stroke="#63b8ff" d="M817.75,-276.81C856.91,-267.02 911.12,-253.47 947.08,-244.48"/>
<polygon fill="#63b8ff" stroke="#63b8ff" points="816.95,-273.41 808.09,-279.23 818.64,-280.2 816.95,-273.41"/>
</a>
</g>
</g>
<!-- Node9&#45;&gt;Node11 -->
<g id="edge16_Node000009_Node000011" class="edge">
<title>Node9&#45;&gt;Node11</title>
<g id="a_edge16_Node000009_Node000011"><a xlink:title=" ">
<path fill="none" stroke="#63b8ff" d="M766.2,-268.55C765.45,-254.03 767.22,-235.19 779,-224 836.16,-169.68 1054.11,-200.28 1132,-188 1135.09,-187.51 1138.3,-186.94 1141.51,-186.33"/>
<polygon fill="#63b8ff" stroke="#63b8ff" points="762.7,-268.79 767.17,-278.4 769.67,-268.1 762.7,-268.79"/>
</a>
</g>
</g>
<!-- Node11&#45;&gt;Node1 -->
<g id="edge18_Node000011_Node000001" class="edge">
<title>Node11&#45;&gt;Node1</title>
<g id="a_edge18_Node000011_Node000001"><a xlink:title=" ">
<path fill="none" stroke="#63b8ff" d="M1217.91,-180.49C1319.06,-184.53 1561.08,-197.25 1585,-224 1590.93,-230.63 1588.47,-235.82 1585,-244 1571,-276.98 1559.91,-285.84 1527,-300 1438.44,-338.11 753.77,-343.96 563.72,-344.84"/>
<polygon fill="#63b8ff" stroke="#63b8ff" points="1218.22,-177 1208.09,-180.11 1217.94,-183.99 1218.22,-177"/>
</a>
</g>
</g>
<!-- Node11&#45;&gt;Node4 -->
<g id="edge17_Node000011_Node000004" class="edge">
<title>Node11&#45;&gt;Node4</title>
<g id="a_edge17_Node000011_Node000004"><a xlink:title=" ">
<path fill="none" stroke="#63b8ff" d="M1130.28,-168.02C838.15,-129.69 499.95,-123.88 369.77,-123.07"/>
<polygon fill="#63b8ff" stroke="#63b8ff" points="1129.65,-171.47 1140.03,-169.32 1130.58,-164.53 1129.65,-171.47"/>
</a>
</g>
</g>
<!-- Node12 -->
<g id="Node000012" class="node">
<title>Node12</title>
<g id="a_Node000012"><a xlink:href="_mesh_8cpp.html" target="_top" xlink:title=" ">
<polygon fill="white" stroke="#666666" points="1122.62,-132 1047.38,-132 1047.38,-112 1122.62,-112 1122.62,-132"/>
<text text-anchor="middle" x="1085" y="-118.5" font-family="Helvetica,sans-Serif" font-size="10.00">src/Mesh.cpp</text>
</a>
</g>
</g>
<!-- Node11&#45;&gt;Node12 -->
<g id="edge19_Node000011_Node000012" class="edge">
<title>Node11&#45;&gt;Node12</title>
<g id="a_edge19_Node000011_Node000012"><a xlink:title=" ">
<path fill="none" stroke="#63b8ff" d="M1148.97,-161.81C1133.44,-152.39 1113.98,-140.58 1100.62,-132.48"/>
<polygon fill="#63b8ff" stroke="#63b8ff" points="1146.84,-164.61 1157.2,-166.81 1150.47,-158.63 1146.84,-164.61"/>
</a>
</g>
</g>
<!-- Node13 -->
<g id="Node000013" class="node">
<title>Node13</title>
<g id="a_Node000013"><a xlink:href="_model_8cpp.html" target="_top" xlink:title=" ">
<polygon fill="white" stroke="#666666" points="1217.75,-132 1140.25,-132 1140.25,-112 1217.75,-112 1217.75,-132"/>
<text text-anchor="middle" x="1179" y="-118.5" font-family="Helvetica,sans-Serif" font-size="10.00">src/Model.cpp</text>
</a>
</g>
</g>
<!-- Node11&#45;&gt;Node13 -->
<g id="edge20_Node000011_Node000013" class="edge">
<title>Node11&#45;&gt;Node13</title>
<g id="a_edge20_Node000011_Node000013"><a xlink:title=" ">
<path fill="none" stroke="#63b8ff" d="M1175.93,-156.13C1176.69,-147.9 1177.53,-138.85 1178.14,-132.3"/>
<polygon fill="#63b8ff" stroke="#63b8ff" points="1172.45,-155.81 1175.01,-166.09 1179.42,-156.45 1172.45,-155.81"/>
</a>
</g>
</g>
<!-- Node14&#45;&gt;Node1 -->
<g id="edge23_Node000014_Node000001" class="edge">
<title>Node14&#45;&gt;Node1</title>
<g id="a_edge23_Node000014_Node000001"><a xlink:title=" ">
<path fill="none" stroke="#63b8ff" d="M328.26,-255.23C331.45,-269.62 335.98,-288.38 348,-300 379.64,-330.58 429.05,-341.19 466.03,-344.52"/>
<polygon fill="#63b8ff" stroke="#63b8ff" points="331.76,-254.85 326.1,-245.9 324.94,-256.43 331.76,-254.85"/>
</a>
</g>
</g>
<!-- Node14&#45;&gt;Node4 -->
<g id="edge22_Node000014_Node000004" class="edge">
<title>Node14&#45;&gt;Node4</title>
<g id="a_edge22_Node000014_Node000004"><a xlink:title=" ">
<path fill="none" stroke="#63b8ff" d="M290.81,-217.55C280,-210.17 268.94,-200.25 263,-188 252.22,-165.76 279.05,-144.23 298.04,-132.38"/>
<polygon fill="#63b8ff" stroke="#63b8ff" points="288.9,-220.48 299.24,-222.8 292.6,-214.54 288.9,-220.48"/>
</a>
</g>
</g>
<!-- Node15 -->
<g id="Node000015" class="node">
<title>Node15</title>
<g id="a_Node000015"><a xlink:href="_material_8cpp.html" target="_top" xlink:title=" ">
<polygon fill="white" stroke="#666666" points="357.88,-188 272.12,-188 272.12,-168 357.88,-168 357.88,-188"/>
<text text-anchor="middle" x="315" y="-174.5" font-family="Helvetica,sans-Serif" font-size="10.00">src/Material.cpp</text>
</a>
</g>
</g>
<!-- Node14&#45;&gt;Node15 -->
<g id="edge24_Node000014_Node000015" class="edge">
<title>Node14&#45;&gt;Node15</title>
<g id="a_edge24_Node000014_Node000015"><a xlink:title=" ">
<path fill="none" stroke="#63b8ff" d="M318.07,-212.13C317.31,-203.9 316.47,-194.85 315.86,-188.3"/>
<polygon fill="#63b8ff" stroke="#63b8ff" points="314.58,-212.45 318.99,-222.09 321.55,-211.81 314.58,-212.45"/>
</a>
</g>
</g>
<!-- Node14&#45;&gt;Node16 -->
<g id="edge25_Node000014_Node000016" class="edge">
<title>Node14&#45;&gt;Node16</title>
<g id="a_edge25_Node000014_Node000016"><a xlink:title=" ">
<path fill="none" stroke="#63b8ff" d="M369.26,-229.35C391.75,-227.7 418.72,-225.73 443,-224 677.73,-207.25 960.43,-187.86 1056.32,-181.3"/>
<polygon fill="#63b8ff" stroke="#63b8ff" points="369.18,-225.85 359.46,-230.08 369.69,-232.83 369.18,-225.85"/>
</a>
</g>
</g>
<!-- Node16&#45;&gt;Node1 -->
<g id="edge27_Node000016_Node000001" class="edge">
<title>Node16&#45;&gt;Node1</title>
<g id="a_edge27_Node000016_Node000001"><a xlink:title=" ">
<path fill="none" stroke="#63b8ff" d="M1134.95,-186.86C1137.34,-187.28 1139.7,-187.66 1142,-188 1234.94,-201.67 1604.62,-160.8 1561,-244 1540.68,-282.76 1521.46,-285.98 1480,-300 1393.33,-329.3 748.16,-341.49 563.92,-344.33"/>
<polygon fill="#63b8ff" stroke="#63b8ff" points="1135.63,-183.43 1125.15,-185.03 1134.34,-190.31 1135.63,-183.43"/>
</a>
</g>
</g>
<!-- Node16&#45;&gt;Node4 -->
<g id="edge26_Node000016_Node000004" class="edge">
<title>Node16&#45;&gt;Node4</title>
<g id="a_edge26_Node000016_Node000004"><a xlink:title=" ">
<path fill="none" stroke="#63b8ff" d="M1044.79,-173.85C910.71,-164.51 515.55,-136.97 369.81,-126.82"/>
<polygon fill="#63b8ff" stroke="#63b8ff" points="1044.47,-177.34 1054.69,-174.54 1044.96,-170.35 1044.47,-177.34"/>
</a>
</g>
</g>
<!-- Node16&#45;&gt;Node12 -->
<g id="edge28_Node000016_Node000012" class="edge">
<title>Node16&#45;&gt;Node12</title>
<g id="a_edge28_Node000016_Node000012"><a xlink:title=" ">
<path fill="none" stroke="#63b8ff" d="M1088.07,-156.13C1087.31,-147.9 1086.47,-138.85 1085.86,-132.3"/>
<polygon fill="#63b8ff" stroke="#63b8ff" points="1084.58,-156.45 1088.99,-166.09 1091.55,-155.81 1084.58,-156.45"/>
</a>
</g>
</g>
<!-- Node16&#45;&gt;Node13 -->
<g id="edge29_Node000016_Node000013" class="edge">
<title>Node16&#45;&gt;Node13</title>
<g id="a_edge29_Node000016_Node000013"><a xlink:title=" ">
<path fill="none" stroke="#63b8ff" d="M1115.03,-161.81C1130.56,-152.39 1150.02,-140.58 1163.38,-132.48"/>
<polygon fill="#63b8ff" stroke="#63b8ff" points="1113.53,-158.63 1106.8,-166.81 1117.16,-164.61 1113.53,-158.63"/>
</a>
</g>
</g>
<!-- Node17&#45;&gt;Node1 -->
<g id="edge34_Node000017_Node000001" class="edge">
<title>Node17&#45;&gt;Node1</title>
<g id="a_edge34_Node000017_Node000001"><a xlink:title=" ">
<path fill="none" stroke="#63b8ff" d="M431.67,-304.81C454.34,-314.46 482.17,-327.09 499.36,-335.59"/>
<polygon fill="#63b8ff" stroke="#63b8ff" points="433.32,-301.71 422.74,-301.07 430.61,-308.16 433.32,-301.71"/>
</a>
</g>
</g>
<!-- Node17&#45;&gt;Node4 -->
<g id="edge33_Node000017_Node000004" class="edge">
<title>Node17&#45;&gt;Node4</title>
<g id="a_edge33_Node000017_Node000004"><a xlink:title=" ">
<path fill="none" stroke="#63b8ff" d="M336.35,-279.17C313.82,-272.65 289.56,-261.85 273,-244 249.53,-218.69 241.82,-199 257,-168 264.85,-151.98 281.46,-140.02 294.9,-132.48"/>
<polygon fill="#63b8ff" stroke="#63b8ff" points="335.21,-282.48 345.77,-281.65 336.99,-275.72 335.21,-282.48"/>
</a>
</g>
</g>
<!-- Node17&#45;&gt;Node14 -->
<g id="edge35_Node000017_Node000014" class="edge">
<title>Node17&#45;&gt;Node14</title>
<g id="a_edge35_Node000017_Node000014"><a xlink:title=" ">
<path fill="none" stroke="#63b8ff" d="M372.78,-273C359.89,-263.72 344.1,-252.35 333.17,-244.48"/>
<polygon fill="#63b8ff" stroke="#63b8ff" points="370.55,-275.71 380.71,-278.71 374.64,-270.03 370.55,-275.71"/>
</a>
</g>
</g>
<!-- Node18 -->
<g id="Node000018" class="node">
<title>Node18</title>
<g id="a_Node000018"><a xlink:href="_render_state_8cpp.html" target="_top" xlink:title=" ">
<polygon fill="white" stroke="#666666" points="557.62,-244 452.38,-244 452.38,-224 557.62,-224 557.62,-244"/>
<text text-anchor="middle" x="505" y="-230.5" font-family="Helvetica,sans-Serif" font-size="10.00">src/RenderState.cpp</text>
</a>
</g>
</g>
<!-- Node17&#45;&gt;Node18 -->
<g id="edge36_Node000017_Node000018" class="edge">
<title>Node17&#45;&gt;Node18</title>
<g id="a_edge36_Node000017_Node000018"><a xlink:title=" ">
<path fill="none" stroke="#63b8ff" d="M424.31,-274.61C443.75,-265.07 468.71,-252.81 485.69,-244.48"/>
<polygon fill="#63b8ff" stroke="#63b8ff" points="422.95,-271.38 415.52,-278.93 426.04,-277.66 422.95,-271.38"/>
</a>
</g>
</g>
<!-- Node20 -->
<g id="Node000020" class="node">
<title>Node20</title>
<g id="a_Node000020"><a xlink:href="_scene_8cpp.html" target="_top" xlink:title=" ">
<polygon fill="white" stroke="#666666" points="1542.5,-244 1463.5,-244 1463.5,-224 1542.5,-224 1542.5,-244"/>
<text text-anchor="middle" x="1503" y="-230.5" font-family="Helvetica,sans-Serif" font-size="10.00">src/Scene.cpp</text>
</a>
</g>
</g>
<!-- Node19&#45;&gt;Node20 -->
<g id="edge38_Node000019_Node000020" class="edge">
<title>Node19&#45;&gt;Node20</title>
<g id="a_edge38_Node000019_Node000020"><a xlink:title=" ">
<path fill="none" stroke="#63b8ff" d="M1450.22,-273C1463.11,-263.72 1478.9,-252.35 1489.83,-244.48"/>
<polygon fill="#63b8ff" stroke="#63b8ff" points="1448.36,-270.03 1442.29,-278.71 1452.45,-275.71 1448.36,-270.03"/>
</a>
</g>
</g>
<!-- Node21&#45;&gt;Node4 -->
<g id="edge40_Node000021_Node000004" class="edge">
<title>Node21&#45;&gt;Node4</title>
<g id="a_edge40_Node000021_Node000004"><a xlink:title=" ">
<path fill="none" stroke="#63b8ff" d="M575.89,-279.2C526.76,-270.98 464.67,-258.3 443,-244 408.2,-221.03 418.55,-196.37 388,-168 371.96,-153.11 350.27,-140.48 334.71,-132.43"/>
<polygon fill="#63b8ff" stroke="#63b8ff" points="575.18,-282.63 585.61,-280.8 576.31,-275.72 575.18,-282.63"/>
</a>
</g>
</g>
<!-- Node22 -->
<g id="Node000022" class="node">
<title>Node22</title>
<g id="a_Node000022"><a xlink:href="_shader_manager_8cpp.html" target="_top" xlink:title=" ">
<polygon fill="white" stroke="#666666" points="907.75,-244 788.25,-244 788.25,-224 907.75,-224 907.75,-244"/>
<text text-anchor="middle" x="848" y="-230.5" font-family="Helvetica,sans-Serif" font-size="10.00">src/ShaderManager.cpp</text>
</a>
</g>
</g>
<!-- Node21&#45;&gt;Node22 -->
<g id="edge41_Node000021_Node000022" class="edge">
<title>Node21&#45;&gt;Node22</title>
<g id="a_edge41_Node000021_Node000022"><a xlink:title=" ">
<path fill="none" stroke="#63b8ff" d="M688.97,-276.69C726.28,-266.91 777.69,-253.43 811.84,-244.48"/>
<polygon fill="#63b8ff" stroke="#63b8ff" points="688.13,-273.29 679.35,-279.21 689.91,-280.06 688.13,-273.29"/>
</a>
</g>
</g>
<!-- Node23&#45;&gt;Node1 -->
<g id="edge44_Node000023_Node000001" class="edge">
<title>Node23&#45;&gt;Node1</title>
<g id="a_edge44_Node000023_Node000001"><a xlink:title=" ">
<path fill="none" stroke="#63b8ff" d="M521.59,-311.73C522.02,-319.96 521.58,-329.01 520.27,-335.59"/>
<polygon fill="#63b8ff" stroke="#63b8ff" points="525.06,-311.33 520.42,-301.8 518.11,-312.14 525.06,-311.33"/>
</a>
</g>
</g>
<!-- Node23&#45;&gt;Node4 -->
<g id="edge43_Node000023_Node000004" class="edge">
<title>Node23&#45;&gt;Node4</title>
<g id="a_edge43_Node000023_Node000004"><a xlink:title=" ">
<path fill="none" stroke="#63b8ff" d="M466.92,-275.83C447.6,-268.76 426.13,-258.45 410,-244 381.09,-218.11 391.59,-198.03 367,-168 355.5,-153.96 339.33,-140.73 328.08,-132.29"/>
<polygon fill="#63b8ff" stroke="#63b8ff" points="465.66,-279.1 476.26,-279.04 467.94,-272.48 465.66,-279.1"/>
</a>
</g>
</g>
<!-- Node23&#45;&gt;Node14 -->
<g id="edge45_Node000023_Node000014" class="edge">
<title>Node23&#45;&gt;Node14</title>
<g id="a_edge45_Node000023_Node000014"><a xlink:title=" ">
<path fill="none" stroke="#63b8ff" d="M470.08,-276.56C434.8,-266.79 386.42,-253.39 354.23,-244.48"/>
<polygon fill="#63b8ff" stroke="#63b8ff" points="469,-279.89 479.57,-279.19 470.87,-273.15 469,-279.89"/>
</a>
</g>
</g>
<!-- Node24 -->
<g id="Node000024" class="node">
<title>Node24</title>
<g id="a_Node000024"><a xlink:href="_shader_program_8cpp.html" target="_top" xlink:title=" ">
<polygon fill="white" stroke="#666666" points="732.38,-244 613.62,-244 613.62,-224 732.38,-224 732.38,-244"/>
<text text-anchor="middle" x="673" y="-230.5" font-family="Helvetica,sans-Serif" font-size="10.00">src/ShaderProgram.cpp</text>
</a>
</g>
</g>
<!-- Node23&#45;&gt;Node24 -->
<g id="edge46_Node000023_Node000024" class="edge">
<title>Node23&#45;&gt;Node24</title>
<g id="a_edge46_Node000023_Node000024"><a xlink:title=" ">
<path fill="none" stroke="#63b8ff" d="M553.27,-275.92C581.67,-266.21 619.75,-253.2 645.26,-244.48"/>
<polygon fill="#63b8ff" stroke="#63b8ff" points="552.28,-272.56 543.95,-279.1 554.55,-279.18 552.28,-272.56"/>
</a>
</g>
</g>
<!-- Node25&#45;&gt;Node3 -->
<g id="edge49_Node000025_Node000003" class="edge">
<title>Node25&#45;&gt;Node3</title>
<g id="a_edge49_Node000025_Node000003"><a xlink:title=" ">
<path fill="none" stroke="#63b8ff" d="M1062.81,-287.47C942.75,-282.76 576.25,-267.37 273,-244 257.66,-242.82 240.87,-241.22 226,-239.7"/>
<polygon fill="#63b8ff" stroke="#63b8ff" points="1062.66,-290.97 1072.79,-287.86 1062.93,-283.97 1062.66,-290.97"/>
</a>
</g>
</g>
<!-- Node25&#45;&gt;Node5 -->
<g id="edge50_Node000025_Node000005" class="edge">
<title>Node25&#45;&gt;Node5</title>
<g id="a_edge50_Node000025_Node000005"><a xlink:title=" ">
<path fill="none" stroke="#63b8ff" d="M1142.39,-277.4C1170.74,-268.32 1205.72,-255.37 1216,-244 1255.48,-200.33 1268.55,-153.7 1227,-112 1197.63,-82.52 926.18,-71.75 803.13,-68.36"/>
<polygon fill="#63b8ff" stroke="#63b8ff" points="1141.47,-274.02 1132.97,-280.35 1143.56,-280.7 1141.47,-274.02"/>
</a>
</g>
</g>
<!-- Node25&#45;&gt;Node7 -->
<g id="edge60_Node000025_Node000007" class="edge">
<title>Node25&#45;&gt;Node7</title>
<g id="a_edge60_Node000025_Node000007"><a xlink:title=" ">
<path fill="none" stroke="#63b8ff" d="M1142.63,-277.76C1176.27,-267.85 1221.61,-253.56 1238,-244 1275.24,-222.28 1310,-222.11 1310,-179 1310,-179 1310,-179 1310,-121 1310,-28.55 992.01,-13.42 852.88,-11.22"/>
<polygon fill="#63b8ff" stroke="#63b8ff" points="1141.81,-274.35 1133.18,-280.51 1143.76,-281.07 1141.81,-274.35"/>
</a>
</g>
</g>
<!-- Node25&#45;&gt;Node8 -->
<g id="edge51_Node000025_Node000008" class="edge">
<title>Node25&#45;&gt;Node8</title>
<g id="a_edge51_Node000025_Node000008"><a xlink:title=" ">
<path fill="none" stroke="#63b8ff" d="M1142.52,-281.62C1194.16,-271.97 1284.65,-255.06 1341.29,-244.48"/>
<polygon fill="#63b8ff" stroke="#63b8ff" points="1142.18,-278.12 1132.99,-283.4 1143.46,-285 1142.18,-278.12"/>
</a>
</g>
</g>
<!-- Node25&#45;&gt;Node10 -->
<g id="edge52_Node000025_Node000010" class="edge">
<title>Node25&#45;&gt;Node10</title>
<g id="a_edge52_Node000025_Node000010"><a xlink:title=" ">
<path fill="none" stroke="#63b8ff" d="M1072.14,-274.88C1051.2,-265.3 1024.1,-252.89 1005.71,-244.48"/>
<polygon fill="#63b8ff" stroke="#63b8ff" points="1070.52,-277.99 1081.07,-278.96 1073.43,-271.62 1070.52,-277.99"/>
</a>
</g>
</g>
<!-- Node25&#45;&gt;Node12 -->
<g id="edge54_Node000025_Node000012" class="edge">
<title>Node25&#45;&gt;Node12</title>
<g id="a_edge54_Node000025_Node000012"><a xlink:title=" ">
<path fill="none" stroke="#63b8ff" d="M1138.4,-275.08C1163.9,-262.96 1191.33,-244.19 1176,-224 1140.01,-176.59 1082.99,-235.41 1047,-188 1033.01,-169.57 1056.53,-145.55 1072.38,-132.48"/>
<polygon fill="#63b8ff" stroke="#63b8ff" points="1137.16,-271.8 1129.47,-279.08 1140.02,-278.19 1137.16,-271.8"/>
</a>
</g>
</g>
<!-- Node25&#45;&gt;Node13 -->
<g id="edge55_Node000025_Node000013" class="edge">
<title>Node25&#45;&gt;Node13</title>
<g id="a_edge55_Node000025_Node000013"><a xlink:title=" ">
<path fill="none" stroke="#63b8ff" d="M1142.07,-276.75C1159.59,-269.58 1179.33,-258.95 1193,-244 1216.73,-218.05 1226.64,-201.18 1215,-168 1210.03,-153.84 1198.53,-140.82 1189.85,-132.47"/>
<polygon fill="#63b8ff" stroke="#63b8ff" points="1141.03,-273.4 1132.94,-280.23 1143.53,-279.94 1141.03,-273.4"/>
</a>
</g>
</g>
<!-- Node25&#45;&gt;Node15 -->
<g id="edge53_Node000025_Node000015" class="edge">
<title>Node25&#45;&gt;Node15</title>
<g id="a_edge53_Node000025_Node000015"><a xlink:title=" ">
<path fill="none" stroke="#63b8ff" d="M1094.03,-269.85C1085.73,-254.52 1071.82,-233.99 1053,-224 991.67,-191.44 506.8,-181.77 358.16,-179.56"/>
<polygon fill="#63b8ff" stroke="#63b8ff" points="1090.77,-271.16 1098.39,-278.51 1097.02,-268.01 1090.77,-271.16"/>
</a>
</g>
</g>
<!-- Node25&#45;&gt;Node18 -->
<g id="edge56_Node000025_Node000018" class="edge">
<title>Node25&#45;&gt;Node18</title>
<g id="a_edge56_Node000025_Node000018"><a xlink:title=" ">
<path fill="none" stroke="#63b8ff" d="M1063.29,-285.41C958.74,-275.97 675.83,-250.43 557.82,-239.77"/>
<polygon fill="#63b8ff" stroke="#63b8ff" points="1062.78,-288.88 1073.05,-286.3 1063.41,-281.91 1062.78,-288.88"/>
</a>
</g>
</g>
<!-- Node25&#45;&gt;Node20 -->
<g id="edge57_Node000025_Node000020" class="edge">
<title>Node25&#45;&gt;Node20</title>
<g id="a_edge57_Node000025_Node000020"><a xlink:title=" ">
<path fill="none" stroke="#63b8ff" d="M1142.74,-284.68C1208.06,-277.42 1342.13,-261.78 1455,-244 1457.68,-243.58 1460.44,-243.12 1463.22,-242.64"/>
<polygon fill="#63b8ff" stroke="#63b8ff" points="1142.43,-281.2 1132.87,-285.77 1143.2,-288.15 1142.43,-281.2"/>
</a>
</g>
</g>
<!-- Node25&#45;&gt;Node22 -->
<g id="edge58_Node000025_Node000022" class="edge">
<title>Node25&#45;&gt;Node22</title>
<g id="a_edge58_Node000025_Node000022"><a xlink:title=" ">
<path fill="none" stroke="#63b8ff" d="M1063.68,-280.67C1017.49,-270.89 941.03,-254.7 892.65,-244.45"/>
<polygon fill="#63b8ff" stroke="#63b8ff" points="1062.75,-284.05 1073.26,-282.7 1064.2,-277.21 1062.75,-284.05"/>
</a>
</g>
</g>
<!-- Node25&#45;&gt;Node24 -->
<g id="edge59_Node000025_Node000024" class="edge">
<title>Node25&#45;&gt;Node24</title>
<g id="a_edge59_Node000025_Node000024"><a xlink:title=" ">
<path fill="none" stroke="#63b8ff" d="M1063.06,-283.98C987.12,-274.45 821.54,-253.65 732.5,-242.47"/>
<polygon fill="#63b8ff" stroke="#63b8ff" points="1062.59,-287.45 1072.95,-285.23 1063.47,-280.51 1062.59,-287.45"/>
</a>
</g>
</g>
<!-- Node26 -->
<g id="Node000026" class="node">
<title>Node26</title>
<g id="a_Node000026"><a xlink:href="pch_8cpp.html" target="_top" xlink:title=" ">
<polygon fill="white" stroke="#666666" points="1167.5,-244 1100.5,-244 1100.5,-224 1167.5,-224 1167.5,-244"/>
<text text-anchor="middle" x="1134" y="-230.5" font-family="Helvetica,sans-Serif" font-size="10.00">src/pch.cpp</text>
</a>
</g>
</g>
<!-- Node25&#45;&gt;Node26 -->
<g id="edge61_Node000025_Node000026" class="edge">
<title>Node25&#45;&gt;Node26</title>
<g id="a_edge61_Node000025_Node000026"><a xlink:title=" ">
<path fill="none" stroke="#63b8ff" d="M1113.98,-269.87C1118.97,-261.19 1124.63,-251.32 1128.66,-244.3"/>
<polygon fill="#63b8ff" stroke="#63b8ff" points="1111.1,-267.87 1109.15,-278.28 1117.17,-271.35 1111.1,-267.87"/>
</a>
</g>
</g>
</g>
</svg>
