<?xml version="1.0" encoding="UTF-8" standalone="no"?>
<!DOCTYPE svg PUBLIC "-//W3C//DTD SVG 1.1//EN"
 "http://www.w3.org/Graphics/SVG/1.1/DTD/svg11.dtd">
<!-- Generated by graphviz version 9.0.0 (20230911.1827)
 -->
<!-- Title: src/GraphicsDevice.h Pages: 1 -->
<!--zoomable 364 -->

<svg id="main" version="1.1" xmlns="http://www.w3.org/2000/svg" xmlns:xlink="http://www.w3.org/1999/xlink" xml:space="preserve" onload="init(evt)">
<style type="text/css"><![CDATA[
.node, .edge {opacity: 0.7;}
.node.selected, .edge.selected {opacity: 1;}
.edge:hover path { stroke: red; }
.edge:hover polygon { stroke: red; fill: red; }
]]></style>

<defs>
  <circle id="rim" cx="0" cy="0" r="7"/>
  <circle id="rim2" cx="0" cy="0" r="3.5"/>
  <g id="zoomPlus">
    <use xlink:href="#rim" fill="#404040"><set attributeName="fill" to="#808080" begin="zoomplus.mouseover" end="zoomplus.mouseout"/></use>
    <path d="M-4,0h8M0,-4v8" fill="none" stroke="white" stroke-width="1.5" pointer-events="none"/>
  </g>
  <g id="zoomMin">
    <use xlink:href="#rim" fill="#404040"><set attributeName="fill" to="#808080" begin="zoomminus.mouseover" end="zoomminus.mouseout"/></use>
    <path d="M-4,0h8" fill="none" stroke="white" stroke-width="1.5" pointer-events="none"/>
  </g>
  <g id="arrowUp" transform="translate(30 24)">
    <use xlink:href="#rim"/>
    <path pointer-events="none" fill="none" stroke="white" stroke-width="1.5" d="M0,-3.0v7 M-2.5,-0.5L0,-3.0L2.5,-0.5"/>
  </g>
  <g id="arrowRight" transform="rotate(90) translate(36 -43)">
    <use xlink:href="#rim"/>
    <path pointer-events="none" fill="none" stroke="white" stroke-width="1.5" d="M0,-3.0v7 M-2.5,-0.5L0,-3.0L2.5,-0.5"/>
  </g>
  <g id="arrowDown" transform="rotate(180) translate(-30 -48)">
    <use xlink:href="#rim"/>
    <path pointer-events="none" fill="none" stroke="white" stroke-width="1.5" d="M0,-3.0v7 M-2.5,-0.5L0,-3.0L2.5,-0.5"/>
  </g>
  <g id="arrowLeft" transform="rotate(270) translate(-36 17)">
    <use xlink:href="#rim"/>
    <path pointer-events="none" fill="none" stroke="white" stroke-width="1.5" d="M0,-3.0v7 M-2.5,-0.5L0,-3.0L2.5,-0.5"/>
  </g>
  <g id="resetDef">
    <use xlink:href="#rim2" fill="#404040"><set attributeName="fill" to="#808080" begin="reset.mouseover" end="reset.mouseout"/></use>
  </g>
</defs>
<script type="application/ecmascript">
var viewWidth = 1529;
var viewHeight = 364;
var sectionId = 'dynsection-1';
</script>
<script type="application/ecmascript" xlink:href="svg.min.js"/>
<svg id="graph" class="graph">
<g id="viewport">
<title>src/GraphicsDevice.h</title>
<!-- Node1 -->
<g id="Node000001" class="node">
<title>Node1</title>
<g id="a_Node000001"><a xlink:title=" ">
<polygon fill="#999999" stroke="#666666" points="1158.88,-356 1050.62,-356 1050.62,-336 1158.88,-336 1158.88,-356"/>
<text text-anchor="middle" x="1104.75" y="-342.5" font-family="Helvetica,sans-Serif" font-size="10.00">src/GraphicsDevice.h</text>
</a>
</g>
</g>
<!-- Node2 -->
<g id="Node000002" class="node">
<title>Node2</title>
<g id="a_Node000002"><a xlink:href="_direct_x_manager_8h.html" target="_top" xlink:title=" ">
<polygon fill="white" stroke="#666666" points="1159.25,-300 1050.25,-300 1050.25,-280 1159.25,-280 1159.25,-300"/>
<text text-anchor="middle" x="1104.75" y="-286.5" font-family="Helvetica,sans-Serif" font-size="10.00">src/DirectXManager.h</text>
</a>
</g>
</g>
<!-- Node1&#45;&gt;Node2 -->
<g id="edge1_Node000001_Node000002" class="edge">
<title>Node1&#45;&gt;Node2</title>
<g id="a_edge1_Node000001_Node000002"><a xlink:title=" ">
<path fill="none" stroke="#63b8ff" d="M1104.75,-324.13C1104.75,-315.9 1104.75,-306.85 1104.75,-300.3"/>
<polygon fill="#63b8ff" stroke="#63b8ff" points="1101.25,-324.08 1104.75,-334.08 1108.25,-324.08 1101.25,-324.08"/>
</a>
</g>
</g>
<!-- Node4 -->
<g id="Node000004" class="node">
<title>Node4</title>
<g id="a_Node000004"><a xlink:href="_game_engine_8h.html" target="_top" xlink:title=" ">
<polygon fill="white" stroke="#666666" points="1061.25,-244 964.25,-244 964.25,-224 1061.25,-224 1061.25,-244"/>
<text text-anchor="middle" x="1012.75" y="-230.5" font-family="Helvetica,sans-Serif" font-size="10.00">src/GameEngine.h</text>
</a>
</g>
</g>
<!-- Node1&#45;&gt;Node4 -->
<g id="edge59_Node000001_Node000004" class="edge">
<title>Node1&#45;&gt;Node4</title>
<g id="a_edge59_Node000001_Node000004"><a xlink:title=" ">
<path fill="none" stroke="#63b8ff" d="M1068.86,-330.23C1055.65,-322.53 1041.65,-312.18 1031.75,-300 1017.8,-282.84 1009.63,-257.67 1009.13,-244.25"/>
<polygon fill="#63b8ff" stroke="#63b8ff" points="1066.94,-333.17 1077.4,-334.86 1070.28,-327.01 1066.94,-333.17"/>
</a>
</g>
</g>
<!-- Node13 -->
<g id="Node000013" class="node">
<title>Node13</title>
<g id="a_Node000013"><a xlink:href="_mesh_8h.html" target="_top" xlink:title=" ">
<polygon fill="white" stroke="#666666" points="1441.12,-188 1376.38,-188 1376.38,-168 1441.12,-168 1441.12,-188"/>
<text text-anchor="middle" x="1408.75" y="-174.5" font-family="Helvetica,sans-Serif" font-size="10.00">src/Mesh.h</text>
</a>
</g>
</g>
<!-- Node1&#45;&gt;Node13 -->
<g id="edge61_Node000001_Node000013" class="edge">
<title>Node1&#45;&gt;Node13</title>
<g id="a_edge61_Node000001_Node000013"><a xlink:title=" ">
<path fill="none" stroke="#63b8ff" d="M1170.29,-336.11C1231.68,-324.63 1322.46,-299.11 1380.75,-244 1397,-228.64 1404.3,-202.26 1407.16,-188.3"/>
<polygon fill="#63b8ff" stroke="#63b8ff" points="1169.9,-332.62 1160.67,-337.83 1171.13,-339.51 1169.9,-332.62"/>
</a>
</g>
</g>
<!-- Node25 -->
<g id="Node000025" class="node">
<title>Node25</title>
<g id="a_Node000025"><a xlink:href="_graphics_device_8cpp.html" target="_top" xlink:title=" ">
<polygon fill="white" stroke="#666666" points="1415.12,-132 1296.38,-132 1296.38,-112 1415.12,-112 1415.12,-132"/>
<text text-anchor="middle" x="1355.75" y="-118.5" font-family="Helvetica,sans-Serif" font-size="10.00">src/GraphicsDevice.cpp</text>
</a>
</g>
</g>
<!-- Node1&#45;&gt;Node25 -->
<g id="edge60_Node000001_Node000025" class="edge">
<title>Node1&#45;&gt;Node25</title>
<g id="a_edge60_Node000001_Node000025"><a xlink:title=" ">
<path fill="none" stroke="#63b8ff" d="M1170.3,-339.45C1216.01,-333.77 1277.55,-322.43 1327.75,-300 1365.73,-283.03 1372.51,-272.57 1402.75,-244 1431.62,-216.73 1470.92,-201.6 1449.75,-168 1438.37,-149.94 1417.51,-138.96 1398.33,-132.38"/>
<polygon fill="#63b8ff" stroke="#63b8ff" points="1170.07,-335.96 1160.54,-340.6 1170.88,-342.91 1170.07,-335.96"/>
</a>
</g>
</g>
<!-- Node3 -->
<g id="Node000003" class="node">
<title>Node3</title>
<g id="a_Node000003"><a xlink:href="_direct_x_manager_8cpp.html" target="_top" xlink:title=" ">
<polygon fill="white" stroke="#666666" points="1185.5,-132 1066,-132 1066,-112 1185.5,-112 1185.5,-132"/>
<text text-anchor="middle" x="1125.75" y="-118.5" font-family="Helvetica,sans-Serif" font-size="10.00">src/DirectXManager.cpp</text>
</a>
</g>
</g>
<!-- Node2&#45;&gt;Node3 -->
<g id="edge2_Node000002_Node000003" class="edge">
<title>Node2&#45;&gt;Node3</title>
<g id="a_edge2_Node000002_Node000003"><a xlink:title=" ">
<path fill="none" stroke="#63b8ff" d="M1121.33,-271.24C1137.79,-252.29 1161.93,-220.57 1171.75,-188 1174.32,-179.49 1175.2,-176.19 1171.75,-168 1165.43,-152.97 1151.35,-140.44 1140.43,-132.46"/>
<polygon fill="#63b8ff" stroke="#63b8ff" points="1118.83,-268.78 1114.77,-278.56 1124.05,-273.45 1118.83,-268.78"/>
</a>
</g>
</g>
<!-- Node2&#45;&gt;Node4 -->
<g id="edge3_Node000002_Node000004" class="edge">
<title>Node2&#45;&gt;Node4</title>
<g id="a_edge3_Node000002_Node000004"><a xlink:title=" ">
<path fill="none" stroke="#63b8ff" d="M1073.71,-274.35C1056.41,-264.84 1036.05,-252.74 1023.62,-244.48"/>
<polygon fill="#63b8ff" stroke="#63b8ff" points="1071.66,-277.22 1082.13,-278.88 1074.98,-271.06 1071.66,-277.22"/>
</a>
</g>
</g>
<!-- Node22 -->
<g id="Node000022" class="node">
<title>Node22</title>
<g id="a_Node000022"><a xlink:href="_win32_application_8h.html" target="_top" xlink:title=" ">
<polygon fill="white" stroke="#666666" points="592,-188 475.5,-188 475.5,-168 592,-168 592,-188"/>
<text text-anchor="middle" x="533.75" y="-174.5" font-family="Helvetica,sans-Serif" font-size="10.00">src/Win32Application.h</text>
</a>
</g>
</g>
<!-- Node2&#45;&gt;Node22 -->
<g id="edge58_Node000002_Node000022" class="edge">
<title>Node2&#45;&gt;Node22</title>
<g id="a_edge58_Node000002_Node000022"><a xlink:title=" ">
<path fill="none" stroke="#63b8ff" d="M1044.34,-277.36C930.76,-255.48 687.44,-208.61 583.01,-188.49"/>
<polygon fill="#63b8ff" stroke="#63b8ff" points="1043.6,-280.79 1054.09,-279.24 1044.93,-273.91 1043.6,-280.79"/>
</a>
</g>
</g>
<!-- Node4&#45;&gt;Node1 -->
<g id="edge10_Node000004_Node000001" class="edge">
<title>Node4&#45;&gt;Node1</title>
<g id="a_edge10_Node000004_Node000001"><a xlink:title=" ">
<path fill="none" stroke="#63b8ff" d="M1025.55,-254.54C1031.48,-268.3 1038.85,-286.59 1049.75,-300 1062.17,-315.29 1081.05,-327.69 1093.46,-335.58"/>
<polygon fill="#63b8ff" stroke="#63b8ff" points="1028.83,-253.28 1021.5,-245.62 1022.45,-256.18 1028.83,-253.28"/>
</a>
</g>
</g>
<!-- Node4&#45;&gt;Node2 -->
<g id="edge8_Node000004_Node000002" class="edge">
<title>Node4&#45;&gt;Node2</title>
<g id="a_edge8_Node000004_Node000002"><a xlink:title=" ">
<path fill="none" stroke="#63b8ff" d="M1043.95,-249.74C1061.27,-259.26 1081.61,-271.36 1093.99,-279.59"/>
<polygon fill="#63b8ff" stroke="#63b8ff" points="1045.98,-246.86 1035.51,-245.2 1042.66,-253.02 1045.98,-246.86"/>
</a>
</g>
</g>
<!-- Node5 -->
<g id="Node000005" class="node">
<title>Node5</title>
<g id="a_Node000005"><a xlink:href="_camera_8h.html" target="_top" xlink:title=" ">
<polygon fill="white" stroke="#666666" points="1050,-188 975.5,-188 975.5,-168 1050,-168 1050,-188"/>
<text text-anchor="middle" x="1012.75" y="-174.5" font-family="Helvetica,sans-Serif" font-size="10.00">src/Camera.h</text>
</a>
</g>
</g>
<!-- Node4&#45;&gt;Node5 -->
<g id="edge4_Node000004_Node000005" class="edge">
<title>Node4&#45;&gt;Node5</title>
<g id="a_edge4_Node000004_Node000005"><a xlink:title=" ">
<path fill="none" stroke="#63b8ff" d="M1006.17,-212.43C1005.72,-204.11 1006.16,-194.93 1007.5,-188.3"/>
<polygon fill="#63b8ff" stroke="#63b8ff" points="1002.67,-212.57 1007.31,-222.09 1009.62,-211.75 1002.67,-212.57"/>
</a>
</g>
</g>
<!-- Node7 -->
<g id="Node000007" class="node">
<title>Node7</title>
<g id="a_Node000007"><a xlink:href="_game_engine_8cpp.html" target="_top" xlink:title=" ">
<polygon fill="white" stroke="#666666" points="486.5,-132 379,-132 379,-112 486.5,-112 486.5,-132"/>
<text text-anchor="middle" x="432.75" y="-118.5" font-family="Helvetica,sans-Serif" font-size="10.00">src/GameEngine.cpp</text>
</a>
</g>
</g>
<!-- Node4&#45;&gt;Node7 -->
<g id="edge9_Node000004_Node000007" class="edge">
<title>Node4&#45;&gt;Node7</title>
<g id="a_edge9_Node000004_Node000007"><a xlink:title=" ">
<path fill="none" stroke="#63b8ff" d="M952.52,-229.33C893.5,-224.4 801.6,-213.14 725.75,-188 707.63,-182 705.81,-174.18 687.75,-168 669.06,-161.61 555.85,-142.78 486.7,-131.61"/>
<polygon fill="#63b8ff" stroke="#63b8ff" points="952.12,-232.81 962.36,-230.11 952.67,-225.83 952.12,-232.81"/>
</a>
</g>
</g>
<!-- Node8 -->
<g id="Node000008" class="node">
<title>Node8</title>
<g id="a_Node000008"><a xlink:href="_material_8h.html" target="_top" xlink:title=" ">
<polygon fill="white" stroke="#666666" points="1278.38,-132 1203.12,-132 1203.12,-112 1278.38,-112 1278.38,-132"/>
<text text-anchor="middle" x="1240.75" y="-118.5" font-family="Helvetica,sans-Serif" font-size="10.00">src/Material.h</text>
</a>
</g>
</g>
<!-- Node4&#45;&gt;Node8 -->
<g id="edge11_Node000004_Node000008" class="edge">
<title>Node4&#45;&gt;Node8</title>
<g id="a_edge11_Node000004_Node000008"><a xlink:title=" ">
<path fill="none" stroke="#63b8ff" d="M1072.55,-221.28C1101.07,-214.38 1134.88,-203.8 1162.75,-188 1188.81,-173.23 1212.69,-146.61 1227.55,-132.45"/>
<polygon fill="#63b8ff" stroke="#63b8ff" points="1071.92,-217.84 1062.97,-223.5 1073.5,-224.65 1071.92,-217.84"/>
</a>
</g>
</g>
<!-- Node10 -->
<g id="Node000010" class="node">
<title>Node10</title>
<g id="a_Node000010"><a xlink:href="_model_8h.html" target="_top" xlink:title=" ">
<polygon fill="white" stroke="#666666" points="1470.25,-76 1403.25,-76 1403.25,-56 1470.25,-56 1470.25,-76"/>
<text text-anchor="middle" x="1436.75" y="-62.5" font-family="Helvetica,sans-Serif" font-size="10.00">src/Model.h</text>
</a>
</g>
</g>
<!-- Node4&#45;&gt;Node10 -->
<g id="edge25_Node000004_Node000010" class="edge">
<title>Node4&#45;&gt;Node10</title>
<g id="a_edge25_Node000004_Node000010"><a xlink:title=" ">
<path fill="none" stroke="#63b8ff" d="M1072.71,-225.53C1172.98,-212.36 1367.94,-181.58 1414.75,-132 1429.13,-116.77 1429.63,-90.34 1431.96,-76.34"/>
<polygon fill="#63b8ff" stroke="#63b8ff" points="1072.53,-222.03 1063.06,-226.79 1073.43,-228.97 1072.53,-222.03"/>
</a>
</g>
</g>
<!-- Node4&#45;&gt;Node13 -->
<g id="edge20_Node000004_Node000013" class="edge">
<title>Node4&#45;&gt;Node13</title>
<g id="a_edge20_Node000004_Node000013"><a xlink:title=" ">
<path fill="none" stroke="#63b8ff" d="M1072.63,-224.13C1157.46,-212.22 1309.52,-191.55 1376.13,-182.94"/>
<polygon fill="#63b8ff" stroke="#63b8ff" points="1072.28,-220.65 1062.87,-225.51 1073.26,-227.58 1072.28,-220.65"/>
</a>
</g>
</g>
<!-- Node14 -->
<g id="Node000014" class="node">
<title>Node14</title>
<g id="a_Node000014"><a xlink:href="_render_state_8h.html" target="_top" xlink:title=" ">
<polygon fill="white" stroke="#666666" points="1163.12,-188 1068.38,-188 1068.38,-168 1163.12,-168 1163.12,-188"/>
<text text-anchor="middle" x="1115.75" y="-174.5" font-family="Helvetica,sans-Serif" font-size="10.00">src/RenderState.h</text>
</a>
</g>
</g>
<!-- Node4&#45;&gt;Node14 -->
<g id="edge26_Node000004_Node000014" class="edge">
<title>Node4&#45;&gt;Node14</title>
<g id="a_edge26_Node000004_Node000014"><a xlink:title=" ">
<path fill="none" stroke="#63b8ff" d="M1035.1,-218.08C1052.08,-208.62 1075.16,-196.66 1092.39,-188.48"/>
<polygon fill="#63b8ff" stroke="#63b8ff" points="1033.69,-214.85 1026.74,-222.84 1037.16,-220.93 1033.69,-214.85"/>
</a>
</g>
</g>
<!-- Node16 -->
<g id="Node000016" class="node">
<title>Node16</title>
<g id="a_Node000016"><a xlink:href="_scene_8h.html" target="_top" xlink:title=" ">
<polygon fill="white" stroke="#666666" points="679,-188 610.5,-188 610.5,-168 679,-168 679,-188"/>
<text text-anchor="middle" x="644.75" y="-174.5" font-family="Helvetica,sans-Serif" font-size="10.00">src/Scene.h</text>
</a>
</g>
</g>
<!-- Node4&#45;&gt;Node16 -->
<g id="edge31_Node000004_Node000016" class="edge">
<title>Node4&#45;&gt;Node16</title>
<g id="a_edge31_Node000004_Node000016"><a xlink:title=" ">
<path fill="none" stroke="#63b8ff" d="M952.71,-225.39C888.31,-217.03 783.1,-202.82 692.75,-188 688.4,-187.29 683.84,-186.49 679.32,-185.68"/>
<polygon fill="#63b8ff" stroke="#63b8ff" points="951.99,-228.82 962.35,-226.63 952.88,-221.88 951.99,-228.82"/>
</a>
</g>
</g>
<!-- Node18 -->
<g id="Node000018" class="node">
<title>Node18</title>
<g id="a_Node000018"><a xlink:href="_shader_manager_8h.html" target="_top" xlink:title=" ">
<polygon fill="white" stroke="#666666" points="457.25,-188 348.25,-188 348.25,-168 457.25,-168 457.25,-188"/>
<text text-anchor="middle" x="402.75" y="-174.5" font-family="Helvetica,sans-Serif" font-size="10.00">src/ShaderManager.h</text>
</a>
</g>
</g>
<!-- Node4&#45;&gt;Node18 -->
<g id="edge33_Node000004_Node000018" class="edge">
<title>Node4&#45;&gt;Node18</title>
<g id="a_edge33_Node000004_Node000018"><a xlink:title=" ">
<path fill="none" stroke="#63b8ff" d="M952.65,-229.18C851.96,-222.53 642.92,-207.63 466.75,-188 463.74,-187.66 460.65,-187.3 457.54,-186.92"/>
<polygon fill="#63b8ff" stroke="#63b8ff" points="952.37,-232.67 962.58,-229.83 952.83,-225.68 952.37,-232.67"/>
</a>
</g>
</g>
<!-- Node20 -->
<g id="Node000020" class="node">
<title>Node20</title>
<g id="a_Node000020"><a xlink:href="_shader_program_8h.html" target="_top" xlink:title=" ">
<polygon fill="white" stroke="#666666" points="957.88,-188 849.62,-188 849.62,-168 957.88,-168 957.88,-188"/>
<text text-anchor="middle" x="903.75" y="-174.5" font-family="Helvetica,sans-Serif" font-size="10.00">src/ShaderProgram.h</text>
</a>
</g>
</g>
<!-- Node4&#45;&gt;Node20 -->
<g id="edge36_Node000004_Node000020" class="edge">
<title>Node4&#45;&gt;Node20</title>
<g id="a_edge36_Node000004_Node000020"><a xlink:title=" ">
<path fill="none" stroke="#63b8ff" d="M978.23,-218.88C957.71,-209.3 932.91,-196.89 917.6,-188.48"/>
<polygon fill="#63b8ff" stroke="#63b8ff" points="976.57,-221.97 987.12,-222.96 979.49,-215.61 976.57,-221.97"/>
</a>
</g>
</g>
<!-- Node4&#45;&gt;Node22 -->
<g id="edge41_Node000004_Node000022" class="edge">
<title>Node4&#45;&gt;Node22</title>
<g id="a_edge41_Node000004_Node000022"><a xlink:title=" ">
<path fill="none" stroke="#63b8ff" d="M952.45,-227.44C870.65,-219.3 720.4,-203.43 592.75,-188 592.63,-187.99 592.51,-187.97 592.39,-187.96"/>
<polygon fill="#63b8ff" stroke="#63b8ff" points="951.97,-230.91 962.26,-228.41 952.65,-223.94 951.97,-230.91"/>
</a>
</g>
</g>
<!-- Node24 -->
<g id="Node000024" class="node">
<title>Node24</title>
<g id="a_Node000024"><a xlink:href="pch_8h.html" target="_top" xlink:title=" ">
<polygon fill="white" stroke="#666666" points="791,-188 734.5,-188 734.5,-168 791,-168 791,-188"/>
<text text-anchor="middle" x="762.75" y="-174.5" font-family="Helvetica,sans-Serif" font-size="10.00">src/pch.h</text>
</a>
</g>
</g>
<!-- Node4&#45;&gt;Node24 -->
<g id="edge44_Node000004_Node000024" class="edge">
<title>Node4&#45;&gt;Node24</title>
<g id="a_edge44_Node000004_Node000024"><a xlink:title=" ">
<path fill="none" stroke="#63b8ff" d="M957.69,-221.11C906.33,-210.01 831.73,-193.9 791.34,-185.17"/>
<polygon fill="#63b8ff" stroke="#63b8ff" points="956.92,-224.52 967.44,-223.21 958.4,-217.68 956.92,-224.52"/>
</a>
</g>
</g>
<!-- Node5&#45;&gt;Node2 -->
<g id="edge6_Node000005_Node000002" class="edge">
<title>Node5&#45;&gt;Node2</title>
<g id="a_edge6_Node000005_Node000002"><a xlink:title=" ">
<path fill="none" stroke="#63b8ff" d="M1037.14,-194.84C1048.01,-202.71 1060.44,-212.91 1069.75,-224 1084.58,-241.67 1095.86,-266.63 1101.25,-279.89"/>
<polygon fill="#63b8ff" stroke="#63b8ff" points="1039.18,-191.99 1028.96,-189.17 1035.18,-197.75 1039.18,-191.99"/>
</a>
</g>
</g>
<!-- Node5&#45;&gt;Node4 -->
<g id="edge7_Node000005_Node000004" class="edge">
<title>Node5&#45;&gt;Node4</title>
<g id="a_edge7_Node000005_Node000004"><a xlink:title=" ">
<path fill="none" stroke="#63b8ff" d="M1019.34,-199.73C1019.77,-207.96 1019.33,-217.01 1018.02,-223.59"/>
<polygon fill="#63b8ff" stroke="#63b8ff" points="1022.81,-199.33 1018.17,-189.8 1015.86,-200.14 1022.81,-199.33"/>
</a>
</g>
</g>
<!-- Node6 -->
<g id="Node000006" class="node">
<title>Node6</title>
<g id="a_Node000006"><a xlink:href="_camera_8cpp.html" target="_top" xlink:title=" ">
<polygon fill="white" stroke="#666666" points="925.25,-132 840.25,-132 840.25,-112 925.25,-112 925.25,-132"/>
<text text-anchor="middle" x="882.75" y="-118.5" font-family="Helvetica,sans-Serif" font-size="10.00">src/Camera.cpp</text>
</a>
</g>
</g>
<!-- Node5&#45;&gt;Node6 -->
<g id="edge5_Node000005_Node000006" class="edge">
<title>Node5&#45;&gt;Node6</title>
<g id="a_edge5_Node000005_Node000006"><a xlink:title=" ">
<path fill="none" stroke="#63b8ff" d="M979.7,-163.27C956.51,-153.64 926.1,-141.01 905.57,-132.48"/>
<polygon fill="#63b8ff" stroke="#63b8ff" points="978.13,-166.41 988.71,-167.01 980.82,-159.94 978.13,-166.41"/>
</a>
</g>
</g>
<!-- Node8&#45;&gt;Node2 -->
<g id="edge12_Node000008_Node000002" class="edge">
<title>Node8&#45;&gt;Node2</title>
<g id="a_edge12_Node000008_Node000002"><a xlink:title=" ">
<path fill="none" stroke="#63b8ff" d="M1231.2,-142.34C1218.19,-167.5 1193.11,-212.04 1163.75,-244 1150.68,-258.23 1132.67,-271.23 1120,-279.56"/>
<polygon fill="#63b8ff" stroke="#63b8ff" points="1234.23,-144.11 1235.62,-133.6 1227.98,-140.94 1234.23,-144.11"/>
</a>
</g>
</g>
<!-- Node8&#45;&gt;Node4 -->
<g id="edge13_Node000008_Node000004" class="edge">
<title>Node8&#45;&gt;Node4</title>
<g id="a_edge13_Node000008_Node000004"><a xlink:title=" ">
<path fill="none" stroke="#63b8ff" d="M1232.82,-141.57C1221.66,-156.17 1201.92,-176 1180.75,-188 1143.94,-208.87 1096.76,-220.63 1061.66,-226.85"/>
<polygon fill="#63b8ff" stroke="#63b8ff" points="1235.45,-143.92 1238.23,-133.7 1229.68,-139.96 1235.45,-143.92"/>
</a>
</g>
</g>
<!-- Node9 -->
<g id="Node000009" class="node">
<title>Node9</title>
<g id="a_Node000009"><a xlink:href="_material_8cpp.html" target="_top" xlink:title=" ">
<polygon fill="white" stroke="#666666" points="1017.62,-76 931.88,-76 931.88,-56 1017.62,-56 1017.62,-76"/>
<text text-anchor="middle" x="974.75" y="-62.5" font-family="Helvetica,sans-Serif" font-size="10.00">src/Material.cpp</text>
</a>
</g>
</g>
<!-- Node8&#45;&gt;Node9 -->
<g id="edge14_Node000008_Node000009" class="edge">
<title>Node8&#45;&gt;Node9</title>
<g id="a_edge14_Node000008_Node000009"><a xlink:title=" ">
<path fill="none" stroke="#63b8ff" d="M1191.52,-111.01C1141.76,-100.9 1065.63,-85.45 1018.09,-75.8"/>
<polygon fill="#63b8ff" stroke="#63b8ff" points="1190.66,-114.4 1201.16,-112.96 1192.05,-107.54 1190.66,-114.4"/>
</a>
</g>
</g>
<!-- Node8&#45;&gt;Node10 -->
<g id="edge15_Node000008_Node000010" class="edge">
<title>Node8&#45;&gt;Node10</title>
<g id="a_edge15_Node000008_Node000010"><a xlink:title=" ">
<path fill="none" stroke="#63b8ff" d="M1285.97,-108.54C1321.67,-98.71 1370.67,-85.2 1403,-76.3"/>
<polygon fill="#63b8ff" stroke="#63b8ff" points="1285.06,-105.16 1276.35,-111.19 1286.92,-111.91 1285.06,-105.16"/>
</a>
</g>
</g>
<!-- Node10&#45;&gt;Node2 -->
<g id="edge16_Node000010_Node000002" class="edge">
<title>Node10&#45;&gt;Node2</title>
<g id="a_edge16_Node000010_Node000002"><a xlink:title=" ">
<path fill="none" stroke="#63b8ff" d="M1445.25,-86.79C1454.62,-111.8 1466.31,-155.5 1449.75,-188 1431.82,-223.19 1416.79,-227.83 1380.75,-244 1308.77,-276.29 1216.96,-285.72 1159.5,-288.3"/>
<polygon fill="#63b8ff" stroke="#63b8ff" points="1448.63,-85.82 1441.66,-77.84 1442.14,-88.42 1448.63,-85.82"/>
</a>
</g>
</g>
<!-- Node10&#45;&gt;Node4 -->
<g id="edge17_Node000010_Node000004" class="edge">
<title>Node10&#45;&gt;Node4</title>
<g id="a_edge17_Node000010_Node000004"><a xlink:title=" ">
<path fill="none" stroke="#63b8ff" d="M1445.48,-87.49C1446.69,-101.74 1443.87,-120.22 1432.75,-132 1382.5,-185.23 1161.49,-216.78 1061.74,-228.16"/>
<polygon fill="#63b8ff" stroke="#63b8ff" points="1448.96,-87.05 1443.76,-77.83 1442.07,-88.29 1448.96,-87.05"/>
</a>
</g>
</g>
<!-- Node11 -->
<g id="Node000011" class="node">
<title>Node11</title>
<g id="a_Node000011"><a xlink:href="_mesh_8cpp.html" target="_top" xlink:title=" ">
<polygon fill="white" stroke="#666666" points="1521.38,-20 1446.12,-20 1446.12,0 1521.38,0 1521.38,-20"/>
<text text-anchor="middle" x="1483.75" y="-6.5" font-family="Helvetica,sans-Serif" font-size="10.00">src/Mesh.cpp</text>
</a>
</g>
</g>
<!-- Node10&#45;&gt;Node11 -->
<g id="edge18_Node000010_Node000011" class="edge">
<title>Node10&#45;&gt;Node11</title>
<g id="a_edge18_Node000010_Node000011"><a xlink:title=" ">
<path fill="none" stroke="#63b8ff" d="M1452.41,-47C1460.2,-38.06 1469.28,-27.62 1475.66,-20.3"/>
<polygon fill="#63b8ff" stroke="#63b8ff" points="1449.86,-44.61 1445.93,-54.45 1455.14,-49.21 1449.86,-44.61"/>
</a>
</g>
</g>
<!-- Node12 -->
<g id="Node000012" class="node">
<title>Node12</title>
<g id="a_Node000012"><a xlink:href="_model_8cpp.html" target="_top" xlink:title=" ">
<polygon fill="white" stroke="#666666" points="1428.5,-20 1351,-20 1351,0 1428.5,0 1428.5,-20"/>
<text text-anchor="middle" x="1389.75" y="-6.5" font-family="Helvetica,sans-Serif" font-size="10.00">src/Model.cpp</text>
</a>
</g>
</g>
<!-- Node10&#45;&gt;Node12 -->
<g id="edge19_Node000010_Node000012" class="edge">
<title>Node10&#45;&gt;Node12</title>
<g id="a_edge19_Node000010_Node000012"><a xlink:title=" ">
<path fill="none" stroke="#63b8ff" d="M1421.09,-47C1413.3,-38.06 1404.22,-27.62 1397.84,-20.3"/>
<polygon fill="#63b8ff" stroke="#63b8ff" points="1418.36,-49.21 1427.57,-54.45 1423.64,-44.61 1418.36,-49.21"/>
</a>
</g>
</g>
<!-- Node13&#45;&gt;Node2 -->
<g id="edge21_Node000013_Node000002" class="edge">
<title>Node13&#45;&gt;Node2</title>
<g id="a_edge21_Node000013_Node000002"><a xlink:title=" ">
<path fill="none" stroke="#63b8ff" d="M1398.05,-198.09C1388.64,-213.03 1373.52,-233.06 1354.75,-244 1322.37,-262.88 1222.75,-276.53 1159.47,-283.57"/>
<polygon fill="#63b8ff" stroke="#63b8ff" points="1400.99,-199.99 1403.1,-189.61 1394.98,-196.41 1400.99,-199.99"/>
</a>
</g>
</g>
<!-- Node13&#45;&gt;Node4 -->
<g id="edge22_Node000013_Node000004" class="edge">
<title>Node13&#45;&gt;Node4</title>
<g id="a_edge22_Node000013_Node000004"><a xlink:title=" ">
<path fill="none" stroke="#63b8ff" d="M1364.57,-185.65C1289.8,-196.24 1139.2,-216.77 1061.47,-226.96"/>
<polygon fill="#63b8ff" stroke="#63b8ff" points="1364.99,-189.13 1374.4,-184.26 1364.01,-182.2 1364.99,-189.13"/>
</a>
</g>
</g>
<!-- Node13&#45;&gt;Node11 -->
<g id="edge23_Node000013_Node000011" class="edge">
<title>Node13&#45;&gt;Node11</title>
<g id="a_edge23_Node000013_Node000011"><a xlink:title=" ">
<path fill="none" stroke="#63b8ff" d="M1451.76,-164.68C1467.98,-157.77 1484.89,-147.35 1494.75,-132 1517.67,-96.33 1497.82,-42.08 1488.23,-20.42"/>
<polygon fill="#63b8ff" stroke="#63b8ff" points="1450.75,-161.31 1442.68,-168.18 1453.27,-167.84 1450.75,-161.31"/>
</a>
</g>
</g>
<!-- Node13&#45;&gt;Node12 -->
<g id="edge24_Node000013_Node000012" class="edge">
<title>Node13&#45;&gt;Node12</title>
<g id="a_edge24_Node000013_Node000012"><a xlink:title=" ">
<path fill="none" stroke="#63b8ff" d="M1442.27,-162.09C1454.6,-154.84 1467.35,-144.87 1474.75,-132 1491.61,-102.68 1496.47,-84.81 1478.75,-56 1467.78,-38.15 1447.29,-27.12 1428.74,-20.46"/>
<polygon fill="#63b8ff" stroke="#63b8ff" points="1440.62,-159.01 1433.47,-166.83 1443.93,-165.17 1440.62,-159.01"/>
</a>
</g>
</g>
<!-- Node14&#45;&gt;Node2 -->
<g id="edge27_Node000014_Node000002" class="edge">
<title>Node14&#45;&gt;Node2</title>
<g id="a_edge27_Node000014_Node000002"><a xlink:title=" ">
<path fill="none" stroke="#63b8ff" d="M1113.68,-199.65C1111.29,-223.59 1107.45,-262.01 1105.69,-279.62"/>
<polygon fill="#63b8ff" stroke="#63b8ff" points="1117.15,-200.16 1114.66,-189.86 1110.19,-199.46 1117.15,-200.16"/>
</a>
</g>
</g>
<!-- Node14&#45;&gt;Node4 -->
<g id="edge28_Node000014_Node000004" class="edge">
<title>Node14&#45;&gt;Node4</title>
<g id="a_edge28_Node000014_Node000004"><a xlink:title=" ">
<path fill="none" stroke="#63b8ff" d="M1093.25,-194C1076.24,-203.48 1053.15,-215.44 1035.96,-223.59"/>
<polygon fill="#63b8ff" stroke="#63b8ff" points="1094.68,-197.22 1101.64,-189.23 1091.21,-191.14 1094.68,-197.22"/>
</a>
</g>
</g>
<!-- Node14&#45;&gt;Node8 -->
<g id="edge29_Node000014_Node000008" class="edge">
<title>Node14&#45;&gt;Node8</title>
<g id="a_edge29_Node000014_Node000008"><a xlink:title=" ">
<path fill="none" stroke="#63b8ff" d="M1147.83,-163.14C1170.09,-153.52 1199.16,-140.97 1218.81,-132.48"/>
<polygon fill="#63b8ff" stroke="#63b8ff" points="1146.7,-159.81 1138.91,-166.99 1149.48,-166.24 1146.7,-159.81"/>
</a>
</g>
</g>
<!-- Node15 -->
<g id="Node000015" class="node">
<title>Node15</title>
<g id="a_Node000015"><a xlink:href="_render_state_8cpp.html" target="_top" xlink:title=" ">
<polygon fill="white" stroke="#666666" points="1048.38,-132 943.12,-132 943.12,-112 1048.38,-112 1048.38,-132"/>
<text text-anchor="middle" x="995.75" y="-118.5" font-family="Helvetica,sans-Serif" font-size="10.00">src/RenderState.cpp</text>
</a>
</g>
</g>
<!-- Node14&#45;&gt;Node15 -->
<g id="edge30_Node000014_Node000015" class="edge">
<title>Node14&#45;&gt;Node15</title>
<g id="a_edge30_Node000014_Node000015"><a xlink:title=" ">
<path fill="none" stroke="#63b8ff" d="M1084.37,-162.88C1063.08,-153.3 1035.51,-140.89 1016.82,-132.48"/>
<polygon fill="#63b8ff" stroke="#63b8ff" points="1082.91,-166.06 1093.47,-166.97 1085.78,-159.68 1082.91,-166.06"/>
</a>
</g>
</g>
<!-- Node17 -->
<g id="Node000017" class="node">
<title>Node17</title>
<g id="a_Node000017"><a xlink:href="_scene_8cpp.html" target="_top" xlink:title=" ">
<polygon fill="white" stroke="#666666" points="361.25,-132 282.25,-132 282.25,-112 361.25,-112 361.25,-132"/>
<text text-anchor="middle" x="321.75" y="-118.5" font-family="Helvetica,sans-Serif" font-size="10.00">src/Scene.cpp</text>
</a>
</g>
</g>
<!-- Node16&#45;&gt;Node17 -->
<g id="edge32_Node000016_Node000017" class="edge">
<title>Node16&#45;&gt;Node17</title>
<g id="a_edge32_Node000016_Node000017"><a xlink:title=" ">
<path fill="none" stroke="#63b8ff" d="M599.03,-167.77C496.6,-149.56 468.66,-148.98 369.75,-132 367.08,-131.54 364.32,-131.06 361.55,-130.56"/>
<polygon fill="#63b8ff" stroke="#63b8ff" points="598.24,-171.18 608.7,-169.5 599.48,-164.29 598.24,-171.18"/>
</a>
</g>
</g>
<!-- Node18&#45;&gt;Node2 -->
<g id="edge34_Node000018_Node000002" class="edge">
<title>Node18&#45;&gt;Node2</title>
<g id="a_edge34_Node000018_Node000002"><a xlink:title=" ">
<path fill="none" stroke="#63b8ff" d="M462.56,-190.61C534.23,-204.32 658,-227.36 764.75,-244 865.06,-259.64 982.57,-274.4 1049.87,-282.53"/>
<polygon fill="#63b8ff" stroke="#63b8ff" points="463.49,-187.23 453.01,-188.78 462.17,-194.1 463.49,-187.23"/>
</a>
</g>
</g>
<!-- Node19 -->
<g id="Node000019" class="node">
<title>Node19</title>
<g id="a_Node000019"><a xlink:href="_shader_manager_8cpp.html" target="_top" xlink:title=" ">
<polygon fill="white" stroke="#666666" points="119.5,-132 0,-132 0,-112 119.5,-112 119.5,-132"/>
<text text-anchor="middle" x="59.75" y="-118.5" font-family="Helvetica,sans-Serif" font-size="10.00">src/ShaderManager.cpp</text>
</a>
</g>
</g>
<!-- Node18&#45;&gt;Node19 -->
<g id="edge35_Node000018_Node000019" class="edge">
<title>Node18&#45;&gt;Node19</title>
<g id="a_edge35_Node000018_Node000019"><a xlink:title=" ">
<path fill="none" stroke="#63b8ff" d="M336.68,-166.6C273.93,-156.72 180.43,-142 119.76,-132.45"/>
<polygon fill="#63b8ff" stroke="#63b8ff" points="336.1,-170.05 346.53,-168.15 337.19,-163.14 336.1,-170.05"/>
</a>
</g>
</g>
<!-- Node20&#45;&gt;Node2 -->
<g id="edge37_Node000020_Node000002" class="edge">
<title>Node20&#45;&gt;Node2</title>
<g id="a_edge37_Node000020_Node000002"><a xlink:title=" ">
<path fill="none" stroke="#63b8ff" d="M914.24,-198.02C923.21,-212.6 937.39,-232.17 954.75,-244 983.05,-263.3 1019.83,-274.5 1049.89,-280.9"/>
<polygon fill="#63b8ff" stroke="#63b8ff" points="917.49,-196.65 909.43,-189.77 911.45,-200.17 917.49,-196.65"/>
</a>
</g>
</g>
<!-- Node20&#45;&gt;Node4 -->
<g id="edge38_Node000020_Node000004" class="edge">
<title>Node20&#45;&gt;Node4</title>
<g id="a_edge38_Node000020_Node000004"><a xlink:title=" ">
<path fill="none" stroke="#63b8ff" d="M938.45,-193.21C959,-202.8 983.78,-215.21 999.03,-223.59"/>
<polygon fill="#63b8ff" stroke="#63b8ff" points="940.09,-190.11 929.54,-189.11 937.17,-196.47 940.09,-190.11"/>
</a>
</g>
</g>
<!-- Node20&#45;&gt;Node8 -->
<g id="edge39_Node000020_Node000008" class="edge">
<title>Node20&#45;&gt;Node8</title>
<g id="a_edge39_Node000020_Node000008"><a xlink:title=" ">
<path fill="none" stroke="#63b8ff" d="M969.33,-167.62C1028.39,-158.99 1117.52,-145.52 1194.75,-132 1197.48,-131.52 1200.29,-131.01 1203.12,-130.49"/>
<polygon fill="#63b8ff" stroke="#63b8ff" points="969.18,-164.1 959.79,-169.01 970.19,-171.03 969.18,-164.1"/>
</a>
</g>
</g>
<!-- Node21 -->
<g id="Node000021" class="node">
<title>Node21</title>
<g id="a_Node000021"><a xlink:href="_shader_program_8cpp.html" target="_top" xlink:title=" ">
<polygon fill="white" stroke="#666666" points="822.12,-132 703.38,-132 703.38,-112 822.12,-112 822.12,-132"/>
<text text-anchor="middle" x="762.75" y="-118.5" font-family="Helvetica,sans-Serif" font-size="10.00">src/ShaderProgram.cpp</text>
</a>
</g>
</g>
<!-- Node20&#45;&gt;Node21 -->
<g id="edge40_Node000020_Node000021" class="edge">
<title>Node20&#45;&gt;Node21</title>
<g id="a_edge40_Node000020_Node000021"><a xlink:title=" ">
<path fill="none" stroke="#63b8ff" d="M868.58,-163.53C843.35,-153.87 809.97,-141.08 787.5,-132.48"/>
<polygon fill="#63b8ff" stroke="#63b8ff" points="867.19,-166.74 877.78,-167.05 869.69,-160.21 867.19,-166.74"/>
</a>
</g>
</g>
<!-- Node22&#45;&gt;Node4 -->
<g id="edge42_Node000022_Node000004" class="edge">
<title>Node22&#45;&gt;Node4</title>
<g id="a_edge42_Node000022_Node000004"><a xlink:title=" ">
<path fill="none" stroke="#63b8ff" d="M603.71,-187.14C606.09,-187.43 608.44,-187.72 610.75,-188 738.13,-203.4 888.01,-219.23 963.8,-227.39"/>
<polygon fill="#63b8ff" stroke="#63b8ff" points="604.29,-183.68 593.93,-185.9 603.42,-190.63 604.29,-183.68"/>
</a>
</g>
</g>
<!-- Node23 -->
<g id="Node000023" class="node">
<title>Node23</title>
<g id="a_Node000023"><a xlink:href="_win32_application_8cpp.html" target="_top" xlink:title=" ">
<polygon fill="white" stroke="#666666" points="264.25,-132 137.25,-132 137.25,-112 264.25,-112 264.25,-132"/>
<text text-anchor="middle" x="200.75" y="-118.5" font-family="Helvetica,sans-Serif" font-size="10.00">src/Win32Application.cpp</text>
</a>
</g>
</g>
<!-- Node22&#45;&gt;Node23 -->
<g id="edge43_Node000022_Node000023" class="edge">
<title>Node22&#45;&gt;Node23</title>
<g id="a_edge43_Node000022_Node000023"><a xlink:title=" ">
<path fill="none" stroke="#63b8ff" d="M464.34,-165.74C403.57,-155.89 316.29,-141.74 259.07,-132.46"/>
<polygon fill="#63b8ff" stroke="#63b8ff" points="463.44,-169.14 473.87,-167.29 464.56,-162.23 463.44,-169.14"/>
</a>
</g>
</g>
<!-- Node24&#45;&gt;Node3 -->
<g id="edge46_Node000024_Node000003" class="edge">
<title>Node24&#45;&gt;Node3</title>
<g id="a_edge46_Node000024_Node000003"><a xlink:title=" ">
<path fill="none" stroke="#63b8ff" d="M802.36,-171.11C865.93,-161.65 991.14,-143.02 1065.74,-131.93"/>
<polygon fill="#63b8ff" stroke="#63b8ff" points="802.11,-167.61 792.73,-172.54 803.14,-174.53 802.11,-167.61"/>
</a>
</g>
</g>
<!-- Node24&#45;&gt;Node6 -->
<g id="edge45_Node000024_Node000006" class="edge">
<title>Node24&#45;&gt;Node6</title>
<g id="a_edge45_Node000024_Node000006"><a xlink:title=" ">
<path fill="none" stroke="#63b8ff" d="M794.13,-162.88C815.42,-153.3 842.99,-140.89 861.68,-132.48"/>
<polygon fill="#63b8ff" stroke="#63b8ff" points="792.72,-159.68 785.03,-166.97 795.59,-166.06 792.72,-159.68"/>
</a>
</g>
</g>
<!-- Node24&#45;&gt;Node7 -->
<g id="edge47_Node000024_Node000007" class="edge">
<title>Node24&#45;&gt;Node7</title>
<g id="a_edge47_Node000024_Node000007"><a xlink:title=" ">
<path fill="none" stroke="#63b8ff" d="M723.25,-168.47C722.41,-168.31 721.57,-168.15 720.75,-168 676.96,-159.89 557.26,-141.66 486.72,-131.06"/>
<polygon fill="#63b8ff" stroke="#63b8ff" points="722.35,-171.86 732.84,-170.39 723.72,-164.99 722.35,-171.86"/>
</a>
</g>
</g>
<!-- Node24&#45;&gt;Node9 -->
<g id="edge49_Node000024_Node000009" class="edge">
<title>Node24&#45;&gt;Node9</title>
<g id="a_edge49_Node000024_Node000009"><a xlink:title=" ">
<path fill="none" stroke="#63b8ff" d="M729.5,-162.51C705.11,-149.88 678.81,-130.71 694.75,-112 724.65,-76.91 860.61,-69.08 931.48,-67.4"/>
<polygon fill="#63b8ff" stroke="#63b8ff" points="727.83,-165.59 738.35,-166.84 730.9,-159.3 727.83,-165.59"/>
</a>
</g>
</g>
<!-- Node24&#45;&gt;Node11 -->
<g id="edge50_Node000024_Node000011" class="edge">
<title>Node24&#45;&gt;Node11</title>
<g id="a_edge50_Node000024_Node000011"><a xlink:title=" ">
<path fill="none" stroke="#63b8ff" d="M725.71,-163.11C699.16,-151.03 670.69,-132.32 686.75,-112 757.16,-22.92 1236.91,-46.56 1437.75,-20 1440.33,-19.66 1442.99,-19.26 1445.66,-18.83"/>
<polygon fill="#63b8ff" stroke="#63b8ff" points="724.12,-166.23 734.69,-166.96 726.88,-159.8 724.12,-166.23"/>
</a>
</g>
</g>
<!-- Node24&#45;&gt;Node12 -->
<g id="edge51_Node000024_Node000012" class="edge">
<title>Node24&#45;&gt;Node12</title>
<g id="a_edge51_Node000024_Node000012"><a xlink:title=" ">
<path fill="none" stroke="#63b8ff" d="M723.07,-166.7C684.16,-156.21 629.81,-140.33 623.75,-132 603.88,-104.68 600.58,-80.57 623.75,-56 648.91,-29.32 1197.77,-15.24 1350.58,-11.83"/>
<polygon fill="#63b8ff" stroke="#63b8ff" points="722.05,-170.06 732.61,-169.25 723.85,-163.29 722.05,-170.06"/>
</a>
</g>
</g>
<!-- Node24&#45;&gt;Node15 -->
<g id="edge52_Node000024_Node000015" class="edge">
<title>Node24&#45;&gt;Node15</title>
<g id="a_edge52_Node000024_Node000015"><a xlink:title=" ">
<path fill="none" stroke="#63b8ff" d="M802.33,-167.83C844.77,-157.99 911.82,-142.45 954.78,-132.49"/>
<polygon fill="#63b8ff" stroke="#63b8ff" points="801.75,-164.37 792.79,-170.04 803.33,-171.19 801.75,-164.37"/>
</a>
</g>
</g>
<!-- Node24&#45;&gt;Node17 -->
<g id="edge53_Node000024_Node000017" class="edge">
<title>Node24&#45;&gt;Node17</title>
<g id="a_edge53_Node000024_Node000017"><a xlink:title=" ">
<path fill="none" stroke="#63b8ff" d="M722.89,-172.17C711.54,-170.8 699.16,-169.33 687.75,-168 546.47,-151.53 510.41,-153.12 369.75,-132 367.07,-131.6 364.3,-131.15 361.52,-130.69"/>
<polygon fill="#63b8ff" stroke="#63b8ff" points="722.41,-175.63 732.76,-173.36 723.25,-168.68 722.41,-175.63"/>
</a>
</g>
</g>
<!-- Node24&#45;&gt;Node19 -->
<g id="edge54_Node000024_Node000019" class="edge">
<title>Node24&#45;&gt;Node19</title>
<g id="a_edge54_Node000024_Node000019"><a xlink:title=" ">
<path fill="none" stroke="#63b8ff" d="M722.93,-171.81C711.58,-170.44 699.19,-169.05 687.75,-168 439.4,-145.13 375.96,-156.38 127.75,-132 125.14,-131.74 122.48,-131.47 119.79,-131.17"/>
<polygon fill="#63b8ff" stroke="#63b8ff" points="722.44,-175.27 732.8,-173.03 723.3,-168.33 722.44,-175.27"/>
</a>
</g>
</g>
<!-- Node24&#45;&gt;Node21 -->
<g id="edge55_Node000024_Node000021" class="edge">
<title>Node24&#45;&gt;Node21</title>
<g id="a_edge55_Node000024_Node000021"><a xlink:title=" ">
<path fill="none" stroke="#63b8ff" d="M762.75,-156.13C762.75,-147.9 762.75,-138.85 762.75,-132.3"/>
<polygon fill="#63b8ff" stroke="#63b8ff" points="759.25,-156.08 762.75,-166.08 766.25,-156.08 759.25,-156.08"/>
</a>
</g>
</g>
<!-- Node24&#45;&gt;Node23 -->
<g id="edge56_Node000024_Node000023" class="edge">
<title>Node24&#45;&gt;Node23</title>
<g id="a_edge56_Node000024_Node000023"><a xlink:title=" ">
<path fill="none" stroke="#63b8ff" d="M722.91,-171.97C711.56,-170.61 699.17,-169.18 687.75,-168 503.59,-148.97 456.86,-151.49 272.75,-132 270.12,-131.72 267.44,-131.43 264.73,-131.12"/>
<polygon fill="#63b8ff" stroke="#63b8ff" points="722.43,-175.44 732.78,-173.18 723.28,-168.49 722.43,-175.44"/>
</a>
</g>
</g>
<!-- Node24&#45;&gt;Node25 -->
<g id="edge48_Node000024_Node000025" class="edge">
<title>Node24&#45;&gt;Node25</title>
<g id="a_edge48_Node000024_Node000025"><a xlink:title=" ">
<path fill="none" stroke="#63b8ff" d="M802.52,-172.14C814.77,-170.72 828.31,-169.22 840.75,-168 1039.11,-148.57 1089.56,-153.08 1287.75,-132 1290.47,-131.71 1293.26,-131.4 1296.07,-131.08"/>
<polygon fill="#63b8ff" stroke="#63b8ff" points="802.28,-168.65 792.75,-173.3 803.1,-175.6 802.28,-168.65"/>
</a>
</g>
</g>
<!-- Node26 -->
<g id="Node000026" class="node">
<title>Node26</title>
<g id="a_Node000026"><a xlink:href="pch_8cpp.html" target="_top" xlink:title=" ">
<polygon fill="white" stroke="#666666" points="571.25,-132 504.25,-132 504.25,-112 571.25,-112 571.25,-132"/>
<text text-anchor="middle" x="537.75" y="-118.5" font-family="Helvetica,sans-Serif" font-size="10.00">src/pch.cpp</text>
</a>
</g>
</g>
<!-- Node24&#45;&gt;Node26 -->
<g id="edge57_Node000024_Node000026" class="edge">
<title>Node24&#45;&gt;Node26</title>
<g id="a_edge57_Node000024_Node000026"><a xlink:title=" ">
<path fill="none" stroke="#63b8ff" d="M723.09,-167.48C680.05,-157.15 612.08,-140.84 571.51,-131.1"/>
<polygon fill="#63b8ff" stroke="#63b8ff" points="722.24,-170.88 732.78,-169.81 723.87,-164.07 722.24,-170.88"/>
</a>
</g>
</g>
</g>
</svg>

<g id="navigator" transform="translate(0 0)" fill="#404254">
  <rect fill="#f2f5e9" fill-opacity="0.5" stroke="#606060" stroke-width=".5" x="0" y="0" width="60" height="60"/>
  <use id="zoomplus" xlink:href="#zoomPlus" x="17" y="9" onmousedown="handleZoom(evt,'in')"/>
  <use id="zoomminus" xlink:href="#zoomMin" x="42" y="9" onmousedown="handleZoom(evt,'out')"/>
  <use id="reset" xlink:href="#resetDef" x="30" y="36" onmousedown="handleReset()"/>
   <use id="arrowup" xlink:href="#arrowUp" x="0" y="0" onmousedown="handlePan(0,-1)"/>
  <use id="arrowright" xlink:href="#arrowRight" x="0" y="0" onmousedown="handlePan(1,0)"/>
  <use id="arrowdown" xlink:href="#arrowDown" x="0" y="0" onmousedown="handlePan(0,1)"/>
  <use id="arrowleft" xlink:href="#arrowLeft" x="0" y="0" onmousedown="handlePan(-1,0)"/>
</g>
<svg viewBox="0 0 15 15" width="100%" height="30px" preserveAspectRatio="xMaxYMin meet">
 <g id="arrow_out" transform="scale(0.3 0.3)">
  <a xlink:href="_graphics_device_8h__dep__incl_org.svg" target="_base">
   <rect id="button" ry="5" rx="5" y="6" x="6" height="38" width="38"
        fill="#f2f5e9" fill-opacity="0.5" stroke="#606060" stroke-width="1.0"/>
   <path id="arrow"
     d="M 11.500037,31.436501 C 11.940474,20.09759 22.043105,11.32322 32.158766,21.979434 L 37.068811,17.246167 C 37.068811,17.246167 37.088388,32 37.088388,32 L 22.160133,31.978069 C 22.160133,31.978069 26.997745,27.140456 26.997745,27.140456 C 18.528582,18.264221 13.291696,25.230495 11.500037,31.436501 z"
     style="fill:#404040;"/>
  </a>
 </g>
</svg>

<style type='text/css'>
<![CDATA[
[data-mouse-over-selected='false'] { opacity: 0.7; }
[data-mouse-over-selected='true']  { opacity: 1.0; }
]]>
</style>
<script type="application/ecmascript"><![CDATA[
document.addEventListener('DOMContentLoaded', (event) => {
  highlightEdges();
  highlightAdjacentNodes();
});
]]></script>
</svg>
