<?xml version="1.0" encoding="UTF-8" standalone="no"?>
<!DOCTYPE svg PUBLIC "-//W3C//DTD SVG 1.1//EN"
 "http://www.w3.org/Graphics/SVG/1.1/DTD/svg11.dtd">
<!-- Generated by graphviz version 9.0.0 (20230911.1827)
 -->
<!-- Title: src/GraphicsDevice.h Pages: 1 -->
<svg width="2847pt" height="364pt"
 viewBox="0.00 0.00 2847.25 364.00" xmlns="http://www.w3.org/2000/svg" xmlns:xlink="http://www.w3.org/1999/xlink">
<g id="graph0" class="graph" transform="scale(1 1) rotate(0) translate(4 360)">
<title>src/GraphicsDevice.h</title>
<!-- Node1 -->
<g id="Node000001" class="node">
<title>Node1</title>
<g id="a_Node000001"><a xlink:title=" ">
<polygon fill="#999999" stroke="#666666" points="2319.25,-356 2211,-356 2211,-336 2319.25,-336 2319.25,-356"/>
<text text-anchor="middle" x="2265.12" y="-342.5" font-family="Helvetica,sans-Serif" font-size="10.00">src/GraphicsDevice.h</text>
</a>
</g>
</g>
<!-- Node2 -->
<g id="Node000002" class="node">
<title>Node2</title>
<g id="a_Node000002"><a xlink:href="_game_engine_8h.html" target="_top" xlink:title=" ">
<polygon fill="white" stroke="#666666" points="1803.38,-300 1722.88,-300 1722.88,-280 1803.38,-280 1803.38,-300"/>
<text text-anchor="middle" x="1763.12" y="-286.5" font-family="Helvetica,sans-Serif" font-size="10.00">GameEngine.h</text>
</a>
</g>
</g>
<!-- Node1&#45;&gt;Node2 -->
<g id="edge1_Node000001_Node000002" class="edge">
<title>Node1&#45;&gt;Node2</title>
<g id="a_edge1_Node000001_Node000002"><a xlink:title=" ">
<path fill="none" stroke="#63b8ff" d="M2210.91,-339.62C2113.61,-329.51 1910.85,-307.71 1815.15,-297.08"/>
<polygon fill="#63b8ff" stroke="#63b8ff" points="1815.58,-293.6 1805.26,-295.97 1814.81,-300.56 1815.58,-293.6"/>
</a>
</g>
</g>
<!-- Node2&#45;&gt;Node1 -->
<g id="edge54_Node000002_Node000001" class="edge">
<title>Node2&#45;&gt;Node1</title>
<g id="a_edge54_Node000002_Node000001"><a xlink:title=" ">
<path fill="none" stroke="#63b8ff" d="M1803.69,-294.96C1890.33,-303.89 2093.68,-325.73 2199.16,-337.38"/>
<polygon fill="#63b8ff" stroke="#63b8ff" points="2198.77,-340.86 2209.1,-338.48 2199.54,-333.9 2198.77,-340.86"/>
</a>
</g>
</g>
<!-- Node3 -->
<g id="Node000003" class="node">
<title>Node3</title>
<g id="a_Node000003"><a xlink:title=" ">
<polygon fill="#e0e0e0" stroke="#999999" points="1726,-244 1646.25,-244 1646.25,-224 1726,-224 1726,-244"/>
<text text-anchor="middle" x="1686.12" y="-230.5" font-family="Helvetica,sans-Serif" font-size="10.00">SDKDDKVer.h</text>
</a>
</g>
</g>
<!-- Node2&#45;&gt;Node3 -->
<g id="edge2_Node000002_Node000003" class="edge">
<title>Node2&#45;&gt;Node3</title>
<g id="a_edge2_Node000002_Node000003"><a xlink:title=" ">
<path fill="none" stroke="#63b8ff" d="M1749.71,-279.59C1738.52,-271.74 1722.31,-260.38 1709.07,-251.09"/>
<polygon fill="#63b8ff" stroke="#63b8ff" points="1711.08,-248.22 1700.88,-245.35 1707.06,-253.96 1711.08,-248.22"/>
</a>
</g>
</g>
<!-- Node4 -->
<g id="Node000004" class="node">
<title>Node4</title>
<g id="a_Node000004"><a xlink:title=" ">
<polygon fill="#e0e0e0" stroke="#999999" points="1861.62,-244 1800.62,-244 1800.62,-224 1861.62,-224 1861.62,-244"/>
<text text-anchor="middle" x="1831.12" y="-230.5" font-family="Helvetica,sans-Serif" font-size="10.00">windows.h</text>
</a>
</g>
</g>
<!-- Node2&#45;&gt;Node4 -->
<g id="edge3_Node000002_Node000004" class="edge">
<title>Node2&#45;&gt;Node4</title>
<g id="a_edge3_Node000002_Node000004"><a xlink:title=" ">
<path fill="none" stroke="#63b8ff" d="M1774.97,-279.59C1784.82,-271.77 1799.06,-260.46 1810.73,-251.19"/>
<polygon fill="#63b8ff" stroke="#63b8ff" points="1812.58,-254.2 1818.23,-245.24 1808.22,-248.72 1812.58,-254.2"/>
</a>
</g>
</g>
<!-- Node5 -->
<g id="Node000005" class="node">
<title>Node5</title>
<g id="a_Node000005"><a xlink:title=" ">
<polygon fill="#e0e0e0" stroke="#999999" points="1983.88,-244 1936.38,-244 1936.38,-224 1983.88,-224 1983.88,-244"/>
<text text-anchor="middle" x="1960.12" y="-230.5" font-family="Helvetica,sans-Serif" font-size="10.00">stdlib.h</text>
</a>
</g>
</g>
<!-- Node2&#45;&gt;Node5 -->
<g id="edge4_Node000002_Node000005" class="edge">
<title>Node2&#45;&gt;Node5</title>
<g id="a_edge4_Node000002_Node000005"><a xlink:title=" ">
<path fill="none" stroke="#63b8ff" d="M1797.44,-279.59C1833.25,-269.78 1889.11,-254.47 1925.16,-244.58"/>
<polygon fill="#63b8ff" stroke="#63b8ff" points="1925.94,-248 1934.66,-241.98 1924.09,-241.25 1925.94,-248"/>
</a>
</g>
</g>
<!-- Node6 -->
<g id="Node000006" class="node">
<title>Node6</title>
<g id="a_Node000006"><a xlink:title=" ">
<polygon fill="#e0e0e0" stroke="#999999" points="2054.5,-244 2001.75,-244 2001.75,-224 2054.5,-224 2054.5,-244"/>
<text text-anchor="middle" x="2028.12" y="-230.5" font-family="Helvetica,sans-Serif" font-size="10.00">malloc.h</text>
</a>
</g>
</g>
<!-- Node2&#45;&gt;Node6 -->
<g id="edge5_Node000002_Node000006" class="edge">
<title>Node2&#45;&gt;Node6</title>
<g id="a_edge5_Node000002_Node000006"><a xlink:title=" ">
<path fill="none" stroke="#63b8ff" d="M1803.58,-281.83C1847.38,-273.89 1919.56,-260.35 1990.5,-244.5"/>
<polygon fill="#63b8ff" stroke="#63b8ff" points="1990.95,-247.99 1999.93,-242.37 1989.41,-241.16 1990.95,-247.99"/>
</a>
</g>
</g>
<!-- Node7 -->
<g id="Node000007" class="node">
<title>Node7</title>
<g id="a_Node000007"><a xlink:title=" ">
<polygon fill="#e0e0e0" stroke="#999999" points="2131.88,-244 2072.38,-244 2072.38,-224 2131.88,-224 2131.88,-244"/>
<text text-anchor="middle" x="2102.12" y="-230.5" font-family="Helvetica,sans-Serif" font-size="10.00">memory.h</text>
</a>
</g>
</g>
<!-- Node2&#45;&gt;Node7 -->
<g id="edge6_Node000002_Node000007" class="edge">
<title>Node2&#45;&gt;Node7</title>
<g id="a_edge6_Node000002_Node000007"><a xlink:title=" ">
<path fill="none" stroke="#63b8ff" d="M1803.57,-283.95C1859.21,-276.78 1962.72,-262.65 2060.65,-244.35"/>
<polygon fill="#63b8ff" stroke="#63b8ff" points="2061.28,-247.79 2070.45,-242.49 2059.98,-240.91 2061.28,-247.79"/>
</a>
</g>
</g>
<!-- Node8 -->
<g id="Node000008" class="node">
<title>Node8</title>
<g id="a_Node000008"><a xlink:title=" ">
<polygon fill="#e0e0e0" stroke="#999999" points="2196.12,-244 2150.12,-244 2150.12,-224 2196.12,-224 2196.12,-244"/>
<text text-anchor="middle" x="2173.12" y="-230.5" font-family="Helvetica,sans-Serif" font-size="10.00">tchar.h</text>
</a>
</g>
</g>
<!-- Node2&#45;&gt;Node8 -->
<g id="edge7_Node000002_Node000008" class="edge">
<title>Node2&#45;&gt;Node8</title>
<g id="a_edge7_Node000002_Node000008"><a xlink:title=" ">
<path fill="none" stroke="#63b8ff" d="M1803.73,-286.25C1871.34,-281.22 2011.37,-268.9 2138.71,-244.2"/>
<polygon fill="#63b8ff" stroke="#63b8ff" points="2139.19,-247.67 2148.32,-242.3 2137.83,-240.81 2139.19,-247.67"/>
</a>
</g>
</g>
<!-- Node9 -->
<g id="Node000009" class="node">
<title>Node9</title>
<g id="a_Node000009"><a xlink:title=" ">
<polygon fill="#e0e0e0" stroke="#999999" points="2394,-244 2332.25,-244 2332.25,-224 2394,-224 2394,-244"/>
<text text-anchor="middle" x="2363.12" y="-230.5" font-family="Helvetica,sans-Serif" font-size="10.00">resource.h</text>
</a>
</g>
</g>
<!-- Node2&#45;&gt;Node9 -->
<g id="edge8_Node000002_Node000009" class="edge">
<title>Node2&#45;&gt;Node9</title>
<g id="a_edge8_Node000002_Node000009"><a xlink:title=" ">
<path fill="none" stroke="#63b8ff" d="M1803.76,-287.7C1894.65,-284.37 2121.4,-273.74 2320.5,-244.19"/>
<polygon fill="#63b8ff" stroke="#63b8ff" points="2320.9,-247.67 2330.26,-242.72 2319.86,-240.75 2320.9,-247.67"/>
</a>
</g>
</g>
<!-- Node10 -->
<g id="Node000010" class="node">
<title>Node10</title>
<g id="a_Node000010"><a xlink:title=" ">
<polygon fill="#e0e0e0" stroke="#999999" points="2457.75,-244 2412.5,-244 2412.5,-224 2457.75,-224 2457.75,-244"/>
<text text-anchor="middle" x="2435.12" y="-230.5" font-family="Helvetica,sans-Serif" font-size="10.00">chrono</text>
</a>
</g>
</g>
<!-- Node2&#45;&gt;Node10 -->
<g id="edge9_Node000002_Node000010" class="edge">
<title>Node2&#45;&gt;Node10</title>
<g id="a_edge9_Node000002_Node000010"><a xlink:title=" ">
<path fill="none" stroke="#63b8ff" d="M1803.53,-289.01C1903.47,-288.41 2170.2,-283.15 2400.88,-244.01"/>
<polygon fill="#63b8ff" stroke="#63b8ff" points="2401.43,-247.46 2410.69,-242.31 2400.24,-240.57 2401.43,-247.46"/>
</a>
</g>
</g>
<!-- Node11 -->
<g id="Node000011" class="node">
<title>Node11</title>
<g id="a_Node000011"><a xlink:title=" ">
<polygon fill="#e0e0e0" stroke="#999999" points="2611.88,-244 2570.38,-244 2570.38,-224 2611.88,-224 2611.88,-244"/>
<text text-anchor="middle" x="2591.12" y="-230.5" font-family="Helvetica,sans-Serif" font-size="10.00">vector</text>
</a>
</g>
</g>
<!-- Node2&#45;&gt;Node11 -->
<g id="edge10_Node000002_Node000011" class="edge">
<title>Node2&#45;&gt;Node11</title>
<g id="a_edge10_Node000002_Node000011"><a xlink:title=" ">
<path fill="none" stroke="#63b8ff" d="M1803.86,-289.48C1921.34,-290.25 2270.66,-288.37 2556.12,-244 2557.13,-243.84 2558.15,-243.67 2559.17,-243.49"/>
<polygon fill="#63b8ff" stroke="#63b8ff" points="2559.66,-246.96 2568.69,-241.42 2558.17,-240.12 2559.66,-246.96"/>
</a>
</g>
</g>
<!-- Node12 -->
<g id="Node000012" class="node">
<title>Node12</title>
<g id="a_Node000012"><a xlink:title=" ">
<polygon fill="#e0e0e0" stroke="#999999" points="2683.88,-244 2630.38,-244 2630.38,-224 2683.88,-224 2683.88,-244"/>
<text text-anchor="middle" x="2657.12" y="-230.5" font-family="Helvetica,sans-Serif" font-size="10.00">iostream</text>
</a>
</g>
</g>
<!-- Node2&#45;&gt;Node12 -->
<g id="edge11_Node000002_Node000012" class="edge">
<title>Node2&#45;&gt;Node12</title>
<g id="a_edge11_Node000002_Node000012"><a xlink:title=" ">
<path fill="none" stroke="#63b8ff" d="M1803.61,-289.63C1925.57,-290.95 2300.21,-290.74 2618.8,-244.03"/>
<polygon fill="#63b8ff" stroke="#63b8ff" points="2619.24,-247.5 2628.61,-242.57 2618.21,-240.58 2619.24,-247.5"/>
</a>
</g>
</g>
<!-- Node13 -->
<g id="Node000013" class="node">
<title>Node13</title>
<g id="a_Node000013"><a xlink:title=" ">
<polygon fill="#e0e0e0" stroke="#999999" points="48.25,-244 0,-244 0,-224 48.25,-224 48.25,-244"/>
<text text-anchor="middle" x="24.12" y="-230.5" font-family="Helvetica,sans-Serif" font-size="10.00">fstream</text>
</a>
</g>
</g>
<!-- Node2&#45;&gt;Node13 -->
<g id="edge12_Node000002_Node000013" class="edge">
<title>Node2&#45;&gt;Node13</title>
<g id="a_edge12_Node000002_Node000013"><a xlink:title=" ">
<path fill="none" stroke="#63b8ff" d="M1722.51,-289.25C1499.07,-290.42 416.9,-293.47 59.87,-243.98"/>
<polygon fill="#63b8ff" stroke="#63b8ff" points="60.39,-240.52 49.99,-242.56 59.39,-247.45 60.39,-240.52"/>
</a>
</g>
</g>
<!-- Node14 -->
<g id="Node000014" class="node">
<title>Node14</title>
<g id="a_Node000014"><a xlink:title=" ">
<polygon fill="#e0e0e0" stroke="#999999" points="126.25,-244 66,-244 66,-224 126.25,-224 126.25,-244"/>
<text text-anchor="middle" x="96.12" y="-230.5" font-family="Helvetica,sans-Serif" font-size="10.00">filesystem</text>
</a>
</g>
</g>
<!-- Node2&#45;&gt;Node14 -->
<g id="edge13_Node000002_Node000014" class="edge">
<title>Node2&#45;&gt;Node14</title>
<g id="a_edge13_Node000002_Node000014"><a xlink:title=" ">
<path fill="none" stroke="#63b8ff" d="M1722.62,-288.97C1505.74,-288.67 479.32,-285.11 138.04,-244.07"/>
<polygon fill="#63b8ff" stroke="#63b8ff" points="138.54,-240.6 128.18,-242.84 137.67,-247.55 138.54,-240.6"/>
</a>
</g>
</g>
<!-- Node15 -->
<g id="Node000015" class="node">
<title>Node15</title>
<g id="a_Node000015"><a xlink:title=" ">
<polygon fill="#e0e0e0" stroke="#999999" points="195.75,-244 144.5,-244 144.5,-224 195.75,-224 195.75,-244"/>
<text text-anchor="middle" x="170.12" y="-230.5" font-family="Helvetica,sans-Serif" font-size="10.00">sstream</text>
</a>
</g>
</g>
<!-- Node2&#45;&gt;Node15 -->
<g id="edge14_Node000002_Node000015" class="edge">
<title>Node2&#45;&gt;Node15</title>
<g id="a_edge14_Node000002_Node000015"><a xlink:title=" ">
<path fill="none" stroke="#63b8ff" d="M1722.6,-289.05C1511.37,-289.13 534.03,-287.2 207.33,-243.89"/>
<polygon fill="#63b8ff" stroke="#63b8ff" points="207.87,-240.43 197.49,-242.54 206.92,-247.37 207.87,-240.43"/>
</a>
</g>
</g>
<!-- Node16 -->
<g id="Node000016" class="node">
<title>Node16</title>
<g id="a_Node000016"><a xlink:title=" ">
<polygon fill="#e0e0e0" stroke="#999999" points="296.5,-244 213.75,-244 213.75,-224 296.5,-224 296.5,-244"/>
<text text-anchor="middle" x="255.12" y="-230.5" font-family="Helvetica,sans-Serif" font-size="10.00">unordered_map</text>
</a>
</g>
</g>
<!-- Node2&#45;&gt;Node16 -->
<g id="edge15_Node000002_Node000016" class="edge">
<title>Node2&#45;&gt;Node16</title>
<g id="a_edge15_Node000002_Node000016"><a xlink:title=" ">
<path fill="none" stroke="#63b8ff" d="M1722.61,-288.54C1519.98,-286.1 614.49,-273.79 307.89,-243.97"/>
<polygon fill="#63b8ff" stroke="#63b8ff" points="308.61,-240.53 298.31,-243.01 307.91,-247.49 308.61,-240.53"/>
</a>
</g>
</g>
<!-- Node17 -->
<g id="Node000017" class="node">
<title>Node17</title>
<g id="a_Node000017"><a xlink:title=" ">
<polygon fill="#e0e0e0" stroke="#999999" points="419.38,-244 314.88,-244 314.88,-224 419.38,-224 419.38,-244"/>
<text text-anchor="middle" x="367.12" y="-230.5" font-family="Helvetica,sans-Serif" font-size="10.00">assimp/Importer.hpp</text>
</a>
</g>
</g>
<!-- Node2&#45;&gt;Node17 -->
<g id="edge16_Node000002_Node000017" class="edge">
<title>Node2&#45;&gt;Node17</title>
<g id="a_edge16_Node000002_Node000017"><a xlink:title=" ">
<path fill="none" stroke="#63b8ff" d="M1722.61,-289.3C1560.98,-290.14 946.49,-290.01 431.05,-244.16"/>
<polygon fill="#63b8ff" stroke="#63b8ff" points="431.43,-240.68 421.16,-243.27 430.81,-247.65 431.43,-240.68"/>
</a>
</g>
</g>
<!-- Node18 -->
<g id="Node000018" class="node">
<title>Node18</title>
<g id="a_Node000018"><a xlink:title=" ">
<polygon fill="#e0e0e0" stroke="#999999" points="522.62,-244 437.62,-244 437.62,-224 522.62,-224 522.62,-244"/>
<text text-anchor="middle" x="480.12" y="-230.5" font-family="Helvetica,sans-Serif" font-size="10.00">assimp/scene.h</text>
</a>
</g>
</g>
<!-- Node2&#45;&gt;Node18 -->
<g id="edge17_Node000002_Node000018" class="edge">
<title>Node2&#45;&gt;Node18</title>
<g id="a_edge17_Node000002_Node000018"><a xlink:title=" ">
<path fill="none" stroke="#63b8ff" d="M1722.64,-288.26C1540.29,-284.79 793.22,-269.37 534.14,-244.01"/>
<polygon fill="#63b8ff" stroke="#63b8ff" points="534.72,-240.55 524.42,-243.03 534.01,-247.52 534.72,-240.55"/>
</a>
</g>
</g>
<!-- Node19 -->
<g id="Node000019" class="node">
<title>Node19</title>
<g id="a_Node000019"><a xlink:title=" ">
<polygon fill="#e0e0e0" stroke="#999999" points="653.12,-244 541.12,-244 541.12,-224 653.12,-224 653.12,-244"/>
<text text-anchor="middle" x="597.12" y="-230.5" font-family="Helvetica,sans-Serif" font-size="10.00">assimp/postprocess.h</text>
</a>
</g>
</g>
<!-- Node2&#45;&gt;Node19 -->
<g id="edge18_Node000002_Node000019" class="edge">
<title>Node2&#45;&gt;Node19</title>
<g id="a_edge18_Node000002_Node000019"><a xlink:title=" ">
<path fill="none" stroke="#63b8ff" d="M1722.54,-288.76C1579.34,-287.6 1084.19,-281.07 664.9,-244.16"/>
<polygon fill="#63b8ff" stroke="#63b8ff" points="665.24,-240.67 654.96,-243.27 664.62,-247.64 665.24,-240.67"/>
</a>
</g>
</g>
<!-- Node20 -->
<g id="Node000020" class="node">
<title>Node20</title>
<g id="a_Node000020"><a xlink:title=" ">
<polygon fill="#e0e0e0" stroke="#999999" points="816.62,-244 671.62,-244 671.62,-224 816.62,-224 816.62,-244"/>
<text text-anchor="middle" x="744.12" y="-230.5" font-family="Helvetica,sans-Serif" font-size="10.00">directxtk\WICTextureLoader.h</text>
</a>
</g>
</g>
<!-- Node2&#45;&gt;Node20 -->
<g id="edge19_Node000002_Node000020" class="edge">
<title>Node2&#45;&gt;Node20</title>
<g id="a_edge19_Node000002_Node000020"><a xlink:title=" ">
<path fill="none" stroke="#63b8ff" d="M1722.43,-287.94C1593.35,-284.38 1181.33,-271.57 828.45,-244.13"/>
<polygon fill="#63b8ff" stroke="#63b8ff" points="828.73,-240.64 818.49,-243.35 828.19,-247.62 828.73,-240.64"/>
</a>
</g>
</g>
<!-- Node21 -->
<g id="Node000021" class="node">
<title>Node21</title>
<g id="a_Node000021"><a xlink:title=" ">
<polygon fill="#e0e0e0" stroke="#999999" points="899.5,-244 834.75,-244 834.75,-224 899.5,-224 899.5,-244"/>
<text text-anchor="middle" x="867.12" y="-230.5" font-family="Helvetica,sans-Serif" font-size="10.00">wincodec.h</text>
</a>
</g>
</g>
<!-- Node2&#45;&gt;Node21 -->
<g id="edge20_Node000002_Node000021" class="edge">
<title>Node2&#45;&gt;Node21</title>
<g id="a_edge20_Node000002_Node000021"><a xlink:title=" ">
<path fill="none" stroke="#63b8ff" d="M1722.41,-289.21C1600.57,-289.34 1228.17,-286.13 910.97,-244.17"/>
<polygon fill="#63b8ff" stroke="#63b8ff" points="911.59,-240.72 901.21,-242.86 910.66,-247.66 911.59,-240.72"/>
</a>
</g>
</g>
<!-- Node22 -->
<g id="Node000022" class="node">
<title>Node22</title>
<g id="a_Node000022"><a xlink:title=" ">
<polygon fill="#e0e0e0" stroke="#999999" points="975.12,-244 917.12,-244 917.12,-224 975.12,-224 975.12,-244"/>
<text text-anchor="middle" x="946.12" y="-230.5" font-family="Helvetica,sans-Serif" font-size="10.00">lodepng.h</text>
</a>
</g>
</g>
<!-- Node2&#45;&gt;Node22 -->
<g id="edge21_Node000002_Node000022" class="edge">
<title>Node2&#45;&gt;Node22</title>
<g id="a_edge21_Node000002_Node000022"><a xlink:title=" ">
<path fill="none" stroke="#63b8ff" d="M1722.74,-289.15C1608.5,-289.04 1273.27,-285.1 986.52,-244.09"/>
<polygon fill="#63b8ff" stroke="#63b8ff" points="987.38,-240.68 976.98,-242.71 986.38,-247.61 987.38,-240.68"/>
</a>
</g>
</g>
<!-- Node23 -->
<g id="Node000023" class="node">
<title>Node23</title>
<g id="a_Node000023"><a xlink:title=" ">
<polygon fill="#e0e0e0" stroke="#999999" points="1043.38,-244 992.88,-244 992.88,-224 1043.38,-224 1043.38,-244"/>
<text text-anchor="middle" x="1018.12" y="-230.5" font-family="Helvetica,sans-Serif" font-size="10.00">d3d11.h</text>
</a>
</g>
</g>
<!-- Node2&#45;&gt;Node23 -->
<g id="edge22_Node000002_Node000023" class="edge">
<title>Node2&#45;&gt;Node23</title>
<g id="a_edge22_Node000002_Node000023"><a xlink:title=" ">
<path fill="none" stroke="#63b8ff" d="M1722.4,-289.09C1614.8,-288.77 1314,-284.18 1054.77,-243.91"/>
<polygon fill="#63b8ff" stroke="#63b8ff" points="1055.54,-240.49 1045.12,-242.38 1054.45,-247.4 1055.54,-240.49"/>
</a>
</g>
</g>
<!-- Node24 -->
<g id="Node000024" class="node">
<title>Node24</title>
<g id="a_Node000024"><a xlink:title=" ">
<polygon fill="#e0e0e0" stroke="#999999" points="1138.5,-244 1061.75,-244 1061.75,-224 1138.5,-224 1138.5,-244"/>
<text text-anchor="middle" x="1100.12" y="-230.5" font-family="Helvetica,sans-Serif" font-size="10.00">DirectXMath.h</text>
</a>
</g>
</g>
<!-- Node2&#45;&gt;Node24 -->
<g id="edge23_Node000002_Node000024" class="edge">
<title>Node2&#45;&gt;Node24</title>
<g id="a_edge23_Node000002_Node000024"><a xlink:title=" ">
<path fill="none" stroke="#63b8ff" d="M1722.6,-287.67C1625.46,-284.13 1371.55,-272.83 1149.99,-244.24"/>
<polygon fill="#63b8ff" stroke="#63b8ff" points="1150.67,-240.8 1140.3,-242.97 1149.76,-247.74 1150.67,-240.8"/>
</a>
</g>
</g>
<!-- Node25 -->
<g id="Node000025" class="node">
<title>Node25</title>
<g id="a_Node000025"><a xlink:title=" ">
<polygon fill="#e0e0e0" stroke="#999999" points="1236,-244 1156.25,-244 1156.25,-224 1236,-224 1236,-244"/>
<text text-anchor="middle" x="1196.12" y="-230.5" font-family="Helvetica,sans-Serif" font-size="10.00">D3Dcompiler.h</text>
</a>
</g>
</g>
<!-- Node2&#45;&gt;Node25 -->
<g id="edge24_Node000002_Node000025" class="edge">
<title>Node2&#45;&gt;Node25</title>
<g id="a_edge24_Node000002_Node000025"><a xlink:title=" ">
<path fill="none" stroke="#63b8ff" d="M1722.68,-286.8C1637.01,-281.85 1430.73,-268.46 1247.64,-244.22"/>
<polygon fill="#63b8ff" stroke="#63b8ff" points="1248.33,-240.78 1237.95,-242.92 1247.4,-247.72 1248.33,-240.78"/>
</a>
</g>
</g>
<!-- Node26 -->
<g id="Node000026" class="node">
<title>Node26</title>
<g id="a_Node000026"><a xlink:title=" ">
<polygon fill="#e0e0e0" stroke="#999999" points="1310,-244 1254.25,-244 1254.25,-224 1310,-224 1310,-244"/>
<text text-anchor="middle" x="1282.12" y="-230.5" font-family="Helvetica,sans-Serif" font-size="10.00">d2d1_2.h</text>
</a>
</g>
</g>
<!-- Node2&#45;&gt;Node26 -->
<g id="edge25_Node000002_Node000026" class="edge">
<title>Node2&#45;&gt;Node26</title>
<g id="a_edge25_Node000002_Node000026"><a xlink:title=" ">
<path fill="none" stroke="#63b8ff" d="M1722.47,-286.76C1645.86,-282.13 1474.77,-269.86 1321.34,-244.16"/>
<polygon fill="#63b8ff" stroke="#63b8ff" points="1322.26,-240.76 1311.82,-242.54 1321.09,-247.66 1322.26,-240.76"/>
</a>
</g>
</g>
<!-- Node27 -->
<g id="Node000027" class="node">
<title>Node27</title>
<g id="a_Node000027"><a xlink:title=" ">
<polygon fill="#e0e0e0" stroke="#999999" points="1384,-244 1328.25,-244 1328.25,-224 1384,-224 1384,-244"/>
<text text-anchor="middle" x="1356.12" y="-230.5" font-family="Helvetica,sans-Serif" font-size="10.00">d2d1_1.h</text>
</a>
</g>
</g>
<!-- Node2&#45;&gt;Node27 -->
<g id="edge26_Node000002_Node000027" class="edge">
<title>Node2&#45;&gt;Node27</title>
<g id="a_edge26_Node000002_Node000027"><a xlink:title=" ">
<path fill="none" stroke="#63b8ff" d="M1722.65,-285.65C1656.35,-279.82 1520.3,-266.43 1395.59,-244.26"/>
<polygon fill="#63b8ff" stroke="#63b8ff" points="1396.29,-240.82 1385.82,-242.49 1395.04,-247.71 1396.29,-240.82"/>
</a>
</g>
</g>
<!-- Node28 -->
<g id="Node000028" class="node">
<title>Node28</title>
<g id="a_Node000028"><a xlink:title=" ">
<polygon fill="#e0e0e0" stroke="#999999" points="1447.75,-244 1402.5,-244 1402.5,-224 1447.75,-224 1447.75,-244"/>
<text text-anchor="middle" x="1425.12" y="-230.5" font-family="Helvetica,sans-Serif" font-size="10.00">d2d1.h</text>
</a>
</g>
</g>
<!-- Node2&#45;&gt;Node28 -->
<g id="edge27_Node000002_Node000028" class="edge">
<title>Node2&#45;&gt;Node28</title>
<g id="a_edge27_Node000002_Node000028"><a xlink:title=" ">
<path fill="none" stroke="#63b8ff" d="M1722.73,-284.73C1666.03,-278.38 1559.45,-265.11 1459.34,-244.22"/>
<polygon fill="#63b8ff" stroke="#63b8ff" points="1460.1,-240.81 1449.59,-242.16 1458.65,-247.66 1460.1,-240.81"/>
</a>
</g>
</g>
<!-- Node29 -->
<g id="Node000029" class="node">
<title>Node29</title>
<g id="a_Node000029"><a xlink:title=" ">
<polygon fill="#e0e0e0" stroke="#999999" points="1516,-244 1466.25,-244 1466.25,-224 1516,-224 1516,-244"/>
<text text-anchor="middle" x="1491.12" y="-230.5" font-family="Helvetica,sans-Serif" font-size="10.00">dwrite.h</text>
</a>
</g>
</g>
<!-- Node2&#45;&gt;Node29 -->
<g id="edge28_Node000002_Node000029" class="edge">
<title>Node2&#45;&gt;Node29</title>
<g id="a_edge28_Node000002_Node000029"><a xlink:title=" ">
<path fill="none" stroke="#63b8ff" d="M1722.63,-281.64C1676.08,-273.07 1597.43,-258.26 1530.12,-244 1529.14,-243.79 1528.15,-243.58 1527.15,-243.36"/>
<polygon fill="#63b8ff" stroke="#63b8ff" points="1528.27,-240.03 1517.75,-241.27 1526.75,-246.86 1528.27,-240.03"/>
</a>
</g>
</g>
<!-- Node30 -->
<g id="Node000030" class="node">
<title>Node30</title>
<g id="a_Node000030"><a xlink:href="_win32_application_8h.html" target="_top" xlink:title=" ">
<polygon fill="white" stroke="#666666" points="2314.12,-244 2214.12,-244 2214.12,-224 2314.12,-224 2314.12,-244"/>
<text text-anchor="middle" x="2264.12" y="-230.5" font-family="Helvetica,sans-Serif" font-size="10.00">Win32Application.h</text>
</a>
</g>
</g>
<!-- Node2&#45;&gt;Node30 -->
<g id="edge29_Node000002_Node000030" class="edge">
<title>Node2&#45;&gt;Node30</title>
<g id="a_edge29_Node000002_Node000030"><a xlink:title=" ">
<path fill="none" stroke="#63b8ff" d="M1803.62,-285.09C1880.42,-278.07 2051.89,-262.33 2196.12,-244 2198.16,-243.74 2200.23,-243.47 2202.32,-243.19"/>
<polygon fill="#63b8ff" stroke="#63b8ff" points="2202.75,-246.66 2212.17,-241.81 2201.78,-239.73 2202.75,-246.66"/>
</a>
</g>
</g>
<!-- Node31 -->
<g id="Node000031" class="node">
<title>Node31</title>
<g id="a_Node000031"><a xlink:href="_direct_x_manager_8h.html" target="_top" xlink:title=" ">
<polygon fill="white" stroke="#666666" points="2310.38,-188 2217.88,-188 2217.88,-168 2310.38,-168 2310.38,-188"/>
<text text-anchor="middle" x="2264.12" y="-174.5" font-family="Helvetica,sans-Serif" font-size="10.00">DirectXManager.h</text>
</a>
</g>
</g>
<!-- Node2&#45;&gt;Node31 -->
<g id="edge52_Node000002_Node000031" class="edge">
<title>Node2&#45;&gt;Node31</title>
<g id="a_edge52_Node000002_Node000031"><a xlink:title=" ">
<path fill="none" stroke="#63b8ff" d="M1779.54,-279.6C1813.67,-263.42 1890.04,-231.32 1918.12,-224 2017.27,-198.15 2136.91,-186.67 2206.47,-181.95"/>
<polygon fill="#63b8ff" stroke="#63b8ff" points="2206.34,-185.47 2216.1,-181.32 2205.89,-178.48 2206.34,-185.47"/>
</a>
</g>
</g>
<!-- Node32 -->
<g id="Node000032" class="node">
<title>Node32</title>
<g id="a_Node000032"><a xlink:href="_camera_8h.html" target="_top" xlink:title=" ">
<polygon fill="white" stroke="#666666" points="1648.12,-132 1590.12,-132 1590.12,-112 1648.12,-112 1648.12,-132"/>
<text text-anchor="middle" x="1619.12" y="-118.5" font-family="Helvetica,sans-Serif" font-size="10.00">Camera.h</text>
</a>
</g>
</g>
<!-- Node2&#45;&gt;Node32 -->
<g id="edge53_Node000002_Node000032" class="edge">
<title>Node2&#45;&gt;Node32</title>
<g id="a_edge53_Node000002_Node000032"><a xlink:title=" ">
<path fill="none" stroke="#63b8ff" d="M1722.53,-286.38C1691.55,-282.24 1650.76,-271.55 1628.12,-244 1604.62,-215.38 1604.78,-169.61 1610.12,-143.33"/>
<polygon fill="#63b8ff" stroke="#63b8ff" points="1613.44,-144.48 1612.59,-133.92 1606.67,-142.7 1613.44,-144.48"/>
</a>
</g>
</g>
<!-- Node33 -->
<g id="Node000033" class="node">
<title>Node33</title>
<g id="a_Node000033"><a xlink:href="_mesh_8h.html" target="_top" xlink:title=" ">
<polygon fill="white" stroke="#666666" points="2839.25,-132 2791,-132 2791,-112 2839.25,-112 2839.25,-132"/>
<text text-anchor="middle" x="2815.12" y="-118.5" font-family="Helvetica,sans-Serif" font-size="10.00">Mesh.h</text>
</a>
</g>
</g>
<!-- Node2&#45;&gt;Node33 -->
<g id="edge56_Node000002_Node000033" class="edge">
<title>Node2&#45;&gt;Node33</title>
<g id="a_edge56_Node000002_Node000033"><a xlink:title=" ">
<path fill="none" stroke="#63b8ff" d="M1803.61,-289.42C1977.41,-290.83 2654.2,-292.84 2735.12,-244 2772.53,-221.43 2792.37,-171.08 2804,-142.96"/>
<polygon fill="#63b8ff" stroke="#63b8ff" points="2807.2,-144.38 2807.91,-133.81 2800.76,-141.63 2807.2,-144.38"/>
</a>
</g>
</g>
<!-- Node34 -->
<g id="Node000034" class="node">
<title>Node34</title>
<g id="a_Node000034"><a xlink:href="_render_state_8h.html" target="_top" xlink:title=" ">
<polygon fill="white" stroke="#666666" points="1870.25,-20 1792,-20 1792,0 1870.25,0 1870.25,-20"/>
<text text-anchor="middle" x="1831.12" y="-6.5" font-family="Helvetica,sans-Serif" font-size="10.00">RenderState.h</text>
</a>
</g>
</g>
<!-- Node2&#45;&gt;Node34 -->
<g id="edge58_Node000002_Node000034" class="edge">
<title>Node2&#45;&gt;Node34</title>
<g id="a_edge58_Node000002_Node000034"><a xlink:title=" ">
<path fill="none" stroke="#63b8ff" d="M1722.63,-286.38C1659.19,-279.79 1544.12,-256.99 1544.12,-179 1544.12,-179 1544.12,-179 1544.12,-121 1544.12,-71.55 1698.13,-34.77 1780.6,-19.2"/>
<polygon fill="#63b8ff" stroke="#63b8ff" points="1781.05,-22.68 1790.25,-17.42 1779.78,-15.79 1781.05,-22.68"/>
</a>
</g>
</g>
<!-- Node35 -->
<g id="Node000035" class="node">
<title>Node35</title>
<g id="a_Node000035"><a xlink:href="_shader_program_8h.html" target="_top" xlink:title=" ">
<polygon fill="white" stroke="#666666" points="2584,-20 2492.25,-20 2492.25,0 2584,0 2584,-20"/>
<text text-anchor="middle" x="2538.12" y="-6.5" font-family="Helvetica,sans-Serif" font-size="10.00">ShaderProgram.h</text>
</a>
</g>
</g>
<!-- Node2&#45;&gt;Node35 -->
<g id="edge59_Node000002_Node000035" class="edge">
<title>Node2&#45;&gt;Node35</title>
<g id="a_edge59_Node000002_Node000035"><a xlink:title=" ">
<path fill="none" stroke="#63b8ff" d="M1803.78,-288.16C1977.23,-284.58 2647.32,-269.51 2684.12,-244 2709.98,-226.08 2712.12,-210.46 2712.12,-179 2712.12,-179 2712.12,-179 2712.12,-121 2712.12,-64.02 2646.14,-35.81 2595.37,-22.36"/>
<polygon fill="#63b8ff" stroke="#63b8ff" points="2596.48,-19.03 2585.93,-20 2594.79,-25.82 2596.48,-19.03"/>
</a>
</g>
</g>
<!-- Node37 -->
<g id="Node000037" class="node">
<title>Node37</title>
<g id="a_Node000037"><a xlink:href="_material_8h.html" target="_top" xlink:title=" ">
<polygon fill="white" stroke="#666666" points="2303.5,-76 2244.75,-76 2244.75,-56 2303.5,-56 2303.5,-76"/>
<text text-anchor="middle" x="2274.12" y="-62.5" font-family="Helvetica,sans-Serif" font-size="10.00">Material.h</text>
</a>
</g>
</g>
<!-- Node2&#45;&gt;Node37 -->
<g id="edge55_Node000002_Node000037" class="edge">
<title>Node2&#45;&gt;Node37</title>
<g id="a_edge55_Node000002_Node000037"><a xlink:title=" ">
<path fill="none" stroke="#63b8ff" d="M1803.72,-287.9C1951.68,-283.87 2453.79,-268.83 2477.12,-244 2499.96,-219.7 2586,-247.29 2469.12,-112 2449.05,-88.77 2366.3,-76.58 2315.16,-70.99"/>
<polygon fill="#63b8ff" stroke="#63b8ff" points="2315.64,-67.52 2305.33,-69.96 2314.91,-74.49 2315.64,-67.52"/>
</a>
</g>
</g>
<!-- Node38 -->
<g id="Node000038" class="node">
<title>Node38</title>
<g id="a_Node000038"><a xlink:href="_model_8h.html" target="_top" xlink:title=" ">
<polygon fill="white" stroke="#666666" points="1886.38,-132 1835.88,-132 1835.88,-112 1886.38,-112 1886.38,-132"/>
<text text-anchor="middle" x="1861.12" y="-118.5" font-family="Helvetica,sans-Serif" font-size="10.00">Model.h</text>
</a>
</g>
</g>
<!-- Node2&#45;&gt;Node38 -->
<g id="edge57_Node000002_Node000038" class="edge">
<title>Node2&#45;&gt;Node38</title>
<g id="a_edge57_Node000002_Node000038"><a xlink:title=" ">
<path fill="none" stroke="#63b8ff" d="M1760.41,-279.9C1762.12,-267.08 1771.52,-243.13 1782.12,-224 1799.19,-193.24 1823.31,-160.2 1840.72,-140.58"/>
<polygon fill="#63b8ff" stroke="#63b8ff" points="1843.13,-143.14 1847.4,-133.44 1838.02,-138.35 1843.13,-143.14"/>
</a>
</g>
</g>
<!-- Node30&#45;&gt;Node2 -->
<g id="edge30_Node000030_Node000002" class="edge">
<title>Node30&#45;&gt;Node2</title>
<g id="a_edge30_Node000030_Node000002"><a xlink:title=" ">
<path fill="none" stroke="#63b8ff" d="M2213.68,-244.06C2069.8,-262.33 1898.95,-278.02 1814.89,-285.05"/>
<polygon fill="#63b8ff" stroke="#63b8ff" points="1814.8,-281.54 1805.12,-285.86 1815.38,-288.52 1814.8,-281.54"/>
</a>
</g>
</g>
<!-- Node30&#45;&gt;Node31 -->
<g id="edge31_Node000030_Node000031" class="edge">
<title>Node30&#45;&gt;Node31</title>
<g id="a_edge31_Node000030_Node000031"><a xlink:title=" ">
<path fill="none" stroke="#63b8ff" d="M2264.12,-223.59C2264.12,-217.01 2264.12,-207.96 2264.12,-199.73"/>
<polygon fill="#63b8ff" stroke="#63b8ff" points="2267.63,-199.81 2264.13,-189.81 2260.63,-199.81 2267.63,-199.81"/>
</a>
</g>
</g>
<!-- Node31&#45;&gt;Node1 -->
<g id="edge35_Node000031_Node000001" class="edge">
<title>Node31&#45;&gt;Node1</title>
<g id="a_edge35_Node000031_Node000001"><a xlink:title=" ">
<path fill="none" stroke="#63b8ff" d="M2310.74,-180.44C2416.59,-184.19 2667.88,-195.97 2693.12,-224 2744.09,-280.59 2462.42,-321.81 2330.45,-337.75"/>
<polygon fill="#63b8ff" stroke="#63b8ff" points="2330.33,-334.24 2320.81,-338.9 2331.16,-341.19 2330.33,-334.24"/>
</a>
</g>
</g>
<!-- Node31&#45;&gt;Node2 -->
<g id="edge32_Node000031_Node000002" class="edge">
<title>Node31&#45;&gt;Node2</title>
<g id="a_edge32_Node000031_Node000002"><a xlink:title=" ">
<path fill="none" stroke="#63b8ff" d="M2217.65,-182.04C2153.41,-186.81 2034.65,-198.31 1936.12,-224 1910.29,-230.73 1843.59,-258.44 1800.82,-275.43"/>
<polygon fill="#63b8ff" stroke="#63b8ff" points="1799.67,-272.12 1791.65,-279.05 1802.23,-278.64 1799.67,-272.12"/>
</a>
</g>
</g>
<!-- Node31&#45;&gt;Node32 -->
<g id="edge33_Node000031_Node000032" class="edge">
<title>Node31&#45;&gt;Node32</title>
<g id="a_edge33_Node000031_Node000032"><a xlink:title=" ">
<path fill="none" stroke="#63b8ff" d="M2217.48,-173.09C2096.46,-162.96 1773.94,-135.96 1659.83,-126.41"/>
<polygon fill="#63b8ff" stroke="#63b8ff" points="1660.28,-122.93 1650.02,-125.59 1659.7,-129.91 1660.28,-122.93"/>
</a>
</g>
</g>
<!-- Node31&#45;&gt;Node33 -->
<g id="edge36_Node000031_Node000033" class="edge">
<title>Node31&#45;&gt;Node33</title>
<g id="a_edge36_Node000031_Node000033"><a xlink:title=" ">
<path fill="none" stroke="#63b8ff" d="M2310.63,-172.44C2418.24,-161.9 2682.57,-135.99 2779.09,-126.53"/>
<polygon fill="#63b8ff" stroke="#63b8ff" points="2779.41,-130.02 2789.02,-125.56 2778.73,-123.05 2779.41,-130.02"/>
</a>
</g>
</g>
<!-- Node31&#45;&gt;Node34 -->
<g id="edge39_Node000031_Node000034" class="edge">
<title>Node31&#45;&gt;Node34</title>
<g id="a_edge39_Node000031_Node000034"><a xlink:title=" ">
<path fill="none" stroke="#63b8ff" d="M2239.6,-167.6C2166.75,-139.67 1951.39,-57.11 1866.29,-24.48"/>
<polygon fill="#63b8ff" stroke="#63b8ff" points="1867.65,-21.25 1857.06,-20.94 1865.14,-27.79 1867.65,-21.25"/>
</a>
</g>
</g>
<!-- Node31&#45;&gt;Node35 -->
<g id="edge41_Node000031_Node000035" class="edge">
<title>Node31&#45;&gt;Node35</title>
<g id="a_edge41_Node000031_Node000035"><a xlink:title=" ">
<path fill="none" stroke="#63b8ff" d="M2278.87,-167.64C2298.97,-154.91 2336.13,-131.5 2368.12,-112 2418.91,-81.05 2478.82,-45.73 2512.24,-26.13"/>
<polygon fill="#63b8ff" stroke="#63b8ff" points="2513.95,-29.19 2520.81,-21.11 2510.41,-23.15 2513.95,-29.19"/>
</a>
</g>
</g>
<!-- Node36 -->
<g id="Node000036" class="node">
<title>Node36</title>
<g id="a_Node000036"><a xlink:href="_shader_manager_8h.html" target="_top" xlink:title=" ">
<polygon fill="white" stroke="#666666" points="2469.38,-132 2376.88,-132 2376.88,-112 2469.38,-112 2469.38,-132"/>
<text text-anchor="middle" x="2423.12" y="-118.5" font-family="Helvetica,sans-Serif" font-size="10.00">ShaderManager.h</text>
</a>
</g>
</g>
<!-- Node31&#45;&gt;Node36 -->
<g id="edge43_Node000031_Node000036" class="edge">
<title>Node31&#45;&gt;Node36</title>
<g id="a_edge43_Node000031_Node000036"><a xlink:title=" ">
<path fill="none" stroke="#63b8ff" d="M2291.82,-167.59C2317.43,-158.9 2355.73,-145.89 2384.37,-136.16"/>
<polygon fill="#63b8ff" stroke="#63b8ff" points="2385.44,-139.5 2393.78,-132.97 2383.19,-132.87 2385.44,-139.5"/>
</a>
</g>
</g>
<!-- Node31&#45;&gt;Node37 -->
<g id="edge45_Node000031_Node000037" class="edge">
<title>Node31&#45;&gt;Node37</title>
<g id="a_edge45_Node000031_Node000037"><a xlink:title=" ">
<path fill="none" stroke="#63b8ff" d="M2264.98,-167.62C2266.58,-150.01 2270.07,-111.59 2272.25,-87.65"/>
<polygon fill="#63b8ff" stroke="#63b8ff" points="2275.72,-88.14 2273.14,-77.86 2268.75,-87.5 2275.72,-88.14"/>
</a>
</g>
</g>
<!-- Node31&#45;&gt;Node38 -->
<g id="edge49_Node000031_Node000038" class="edge">
<title>Node31&#45;&gt;Node38</title>
<g id="a_edge49_Node000031_Node000038"><a xlink:title=" ">
<path fill="none" stroke="#63b8ff" d="M2217.5,-170.75C2136.47,-159.9 1971.31,-137.76 1897.81,-127.92"/>
<polygon fill="#63b8ff" stroke="#63b8ff" points="1898.71,-124.5 1888.33,-126.65 1897.78,-131.44 1898.71,-124.5"/>
</a>
</g>
</g>
<!-- Node32&#45;&gt;Node2 -->
<g id="edge34_Node000032_Node000002" class="edge">
<title>Node32&#45;&gt;Node2</title>
<g id="a_edge34_Node000032_Node000002"><a xlink:title=" ">
<path fill="none" stroke="#63b8ff" d="M1622.13,-132.46C1623.43,-154.68 1618.89,-210.85 1646.12,-244 1662.41,-263.82 1688.09,-274.91 1711.31,-281.12"/>
<polygon fill="#63b8ff" stroke="#63b8ff" points="1710.44,-284.51 1720.98,-283.44 1712.07,-277.71 1710.44,-284.51"/>
</a>
</g>
</g>
<!-- Node33&#45;&gt;Node1 -->
<g id="edge38_Node000033_Node000001" class="edge">
<title>Node33&#45;&gt;Node1</title>
<g id="a_edge38_Node000033_Node000001"><a xlink:title=" ">
<path fill="none" stroke="#63b8ff" d="M2817.98,-132.09C2821.52,-144.91 2826.39,-168.85 2820.12,-188 2810.54,-217.32 2803.93,-225.66 2779.12,-244 2718.21,-289.05 2691.88,-282.67 2618.12,-300 2519.36,-323.2 2402.05,-335.16 2330.63,-340.74"/>
<polygon fill="#63b8ff" stroke="#63b8ff" points="2330.79,-337.22 2321.08,-341.47 2331.32,-344.2 2330.79,-337.22"/>
</a>
</g>
</g>
<!-- Node33&#45;&gt;Node2 -->
<g id="edge37_Node000033_Node000002" class="edge">
<title>Node33&#45;&gt;Node2</title>
<g id="a_edge37_Node000033_Node000002"><a xlink:title=" ">
<path fill="none" stroke="#63b8ff" d="M2817.26,-132.42C2815.69,-156.13 2795.87,-218.2 2753.12,-244 2672.97,-292.37 2008.17,-290.87 1815.31,-289.46"/>
<polygon fill="#63b8ff" stroke="#63b8ff" points="1815.36,-285.96 1805.34,-289.39 1815.31,-292.96 1815.36,-285.96"/>
</a>
</g>
</g>
<!-- Node34&#45;&gt;Node2 -->
<g id="edge40_Node000034_Node000002" class="edge">
<title>Node34&#45;&gt;Node2</title>
<g id="a_edge40_Node000034_Node000002"><a xlink:title=" ">
<path fill="none" stroke="#63b8ff" d="M1791.72,-19.09C1716.88,-34.6 1562.12,-71.43 1562.12,-121 1562.12,-179 1562.12,-179 1562.12,-179 1562.12,-247.82 1651.73,-273.67 1711.37,-283.32"/>
<polygon fill="#63b8ff" stroke="#63b8ff" points="1710.59,-286.74 1721,-284.77 1711.63,-279.82 1710.59,-286.74"/>
</a>
</g>
</g>
<!-- Node35&#45;&gt;Node2 -->
<g id="edge42_Node000035_Node000002" class="edge">
<title>Node35&#45;&gt;Node2</title>
<g id="a_edge42_Node000035_Node000002"><a xlink:title=" ">
<path fill="none" stroke="#63b8ff" d="M2584.23,-16.95C2641.15,-27.46 2730.12,-54.83 2730.12,-121 2730.12,-179 2730.12,-179 2730.12,-179 2730.12,-210.46 2727.98,-226.08 2702.12,-244 2665.65,-269.29 2007.12,-284.31 1815.16,-288.07"/>
<polygon fill="#63b8ff" stroke="#63b8ff" points="1815.17,-284.56 1805.24,-288.26 1815.3,-291.56 1815.17,-284.56"/>
</a>
</g>
</g>
<!-- Node36&#45;&gt;Node2 -->
<g id="edge44_Node000036_Node000002" class="edge">
<title>Node36&#45;&gt;Node2</title>
<g id="a_edge44_Node000036_Node000002"><a xlink:title=" ">
<path fill="none" stroke="#63b8ff" d="M2432.3,-132.48C2452.76,-154.77 2498.02,-211.07 2467.12,-244 2444.86,-267.73 1974.24,-283.08 1815.14,-287.6"/>
<polygon fill="#63b8ff" stroke="#63b8ff" points="1815.21,-284.1 1805.31,-287.88 1815.41,-291.1 1815.21,-284.1"/>
</a>
</g>
</g>
<!-- Node37&#45;&gt;Node2 -->
<g id="edge46_Node000037_Node000002" class="edge">
<title>Node37&#45;&gt;Node2</title>
<g id="a_edge46_Node000037_Node000002"><a xlink:title=" ">
<path fill="none" stroke="#63b8ff" d="M2303.62,-68.82C2356.65,-73.01 2463.89,-85.1 2487.12,-112 2604,-247.29 2517.96,-219.7 2495.12,-244 2471.98,-268.63 1977.91,-283.62 1814.79,-287.8"/>
<polygon fill="#63b8ff" stroke="#63b8ff" points="1815.04,-284.29 1805.14,-288.04 1815.22,-291.29 1815.04,-284.29"/>
</a>
</g>
</g>
<!-- Node37&#45;&gt;Node34 -->
<g id="edge48_Node000037_Node000034" class="edge">
<title>Node37&#45;&gt;Node34</title>
<g id="a_edge48_Node000037_Node000034"><a xlink:title=" ">
<path fill="none" stroke="#63b8ff" d="M2244.37,-61.37C2169.95,-52.3 1975.09,-28.55 1882.02,-17.2"/>
<polygon fill="#63b8ff" stroke="#63b8ff" points="1882.51,-13.74 1872.16,-16 1881.66,-20.69 1882.51,-13.74"/>
</a>
</g>
</g>
<!-- Node37&#45;&gt;Node35 -->
<g id="edge47_Node000037_Node000035" class="edge">
<title>Node37&#45;&gt;Node35</title>
<g id="a_edge47_Node000037_Node000035"><a xlink:title=" ">
<path fill="none" stroke="#63b8ff" d="M2303.9,-58.91C2346.7,-50.16 2426.46,-33.84 2480.9,-22.71"/>
<polygon fill="#63b8ff" stroke="#63b8ff" points="2481.53,-26.15 2490.62,-20.72 2480.13,-19.29 2481.53,-26.15"/>
</a>
</g>
</g>
<!-- Node38&#45;&gt;Node2 -->
<g id="edge50_Node000038_Node000002" class="edge">
<title>Node38&#45;&gt;Node2</title>
<g id="a_edge50_Node000038_Node000002"><a xlink:title=" ">
<path fill="none" stroke="#63b8ff" d="M1858.96,-132.34C1849.13,-149.68 1819.89,-188.37 1800.12,-224 1791.84,-238.94 1784.29,-256.83 1777.68,-270.06"/>
<polygon fill="#63b8ff" stroke="#63b8ff" points="1774.76,-268.11 1773.08,-278.57 1780.92,-271.44 1774.76,-268.11"/>
</a>
</g>
</g>
<!-- Node38&#45;&gt;Node37 -->
<g id="edge51_Node000038_Node000037" class="edge">
<title>Node38&#45;&gt;Node37</title>
<g id="a_edge51_Node000038_Node000037"><a xlink:title=" ">
<path fill="none" stroke="#63b8ff" d="M1886.65,-117.66C1956.02,-108.59 2148.48,-83.43 2233.2,-72.35"/>
<polygon fill="#63b8ff" stroke="#63b8ff" points="2233.45,-75.85 2242.91,-71.08 2232.54,-68.91 2233.45,-75.85"/>
</a>
</g>
</g>
</g>
</svg>
