<?xml version="1.0" encoding="UTF-8" standalone="no"?>
<!DOCTYPE svg PUBLIC "-//W3C//DTD SVG 1.1//EN"
 "http://www.w3.org/Graphics/SVG/1.1/DTD/svg11.dtd">
<!-- Generated by graphviz version 9.0.0 (20230911.1827)
 -->
<!-- Title: src/GraphicsDevice.cpp Pages: 1 -->
<svg width="2887pt" height="420pt"
 viewBox="0.00 0.00 2886.75 420.00" xmlns="http://www.w3.org/2000/svg" xmlns:xlink="http://www.w3.org/1999/xlink">
<g id="graph0" class="graph" transform="scale(1 1) rotate(0) translate(4 416)">
<title>src/GraphicsDevice.cpp</title>
<!-- Node1 -->
<g id="Node000001" class="node">
<title>Node1</title>
<g id="a_Node000001"><a xlink:title=" ">
<polygon fill="#999999" stroke="#666666" points="2460.12,-412 2341.38,-412 2341.38,-392 2460.12,-392 2460.12,-412"/>
<text text-anchor="middle" x="2400.75" y="-398.5" font-family="Helvetica,sans-Serif" font-size="10.00">src/GraphicsDevice.cpp</text>
</a>
</g>
</g>
<!-- Node2 -->
<g id="Node000002" class="node">
<title>Node2</title>
<g id="a_Node000002"><a xlink:href="pch_8h.html" target="_top" xlink:title=" ">
<polygon fill="white" stroke="#666666" points="2396.75,-356 2356.75,-356 2356.75,-336 2396.75,-336 2396.75,-356"/>
<text text-anchor="middle" x="2376.75" y="-342.5" font-family="Helvetica,sans-Serif" font-size="10.00">pch.h</text>
</a>
</g>
</g>
<!-- Node1&#45;&gt;Node2 -->
<g id="edge1_Node000001_Node000002" class="edge">
<title>Node1&#45;&gt;Node2</title>
<g id="a_edge1_Node000001_Node000002"><a xlink:title=" ">
<path fill="none" stroke="#63b8ff" d="M2396.57,-391.59C2393.51,-384.7 2389.24,-375.1 2385.45,-366.57"/>
<polygon fill="#63b8ff" stroke="#63b8ff" points="2388.76,-365.4 2381.5,-357.68 2382.36,-368.24 2388.76,-365.4"/>
</a>
</g>
</g>
<!-- Node34 -->
<g id="Node000034" class="node">
<title>Node34</title>
<g id="a_Node000034"><a xlink:href="_graphics_device_8h.html" target="_top" xlink:title=" ">
<polygon fill="white" stroke="#666666" points="2422.62,-76 2330.88,-76 2330.88,-56 2422.62,-56 2422.62,-76"/>
<text text-anchor="middle" x="2376.75" y="-62.5" font-family="Helvetica,sans-Serif" font-size="10.00">GraphicsDevice.h</text>
</a>
</g>
</g>
<!-- Node1&#45;&gt;Node34 -->
<g id="edge62_Node000001_Node000034" class="edge">
<title>Node1&#45;&gt;Node34</title>
<g id="a_edge62_Node000001_Node000034"><a xlink:title=" ">
<path fill="none" stroke="#63b8ff" d="M2460.33,-393.64C2541.51,-380.07 2684.03,-342.76 2747.75,-244 2766.97,-214.21 2838.72,-216.09 2740.75,-112 2720.12,-90.08 2531.43,-75.99 2434.16,-70.13"/>
<polygon fill="#63b8ff" stroke="#63b8ff" points="2434.47,-66.64 2424.28,-69.54 2434.06,-73.63 2434.47,-66.64"/>
</a>
</g>
</g>
<!-- Node3 -->
<g id="Node000003" class="node">
<title>Node3</title>
<g id="a_Node000003"><a xlink:href="_game_engine_8h.html" target="_top" xlink:title=" ">
<polygon fill="white" stroke="#666666" points="2018,-300 1937.5,-300 1937.5,-280 2018,-280 2018,-300"/>
<text text-anchor="middle" x="1977.75" y="-286.5" font-family="Helvetica,sans-Serif" font-size="10.00">GameEngine.h</text>
</a>
</g>
</g>
<!-- Node2&#45;&gt;Node3 -->
<g id="edge2_Node000002_Node000003" class="edge">
<title>Node2&#45;&gt;Node3</title>
<g id="a_edge2_Node000002_Node000003"><a xlink:title=" ">
<path fill="none" stroke="#63b8ff" d="M2356.41,-342.25C2296.32,-334.11 2118.21,-310.01 2029.36,-297.98"/>
<polygon fill="#63b8ff" stroke="#63b8ff" points="2030.09,-294.55 2019.71,-296.68 2029.15,-301.49 2030.09,-294.55"/>
</a>
</g>
</g>
<!-- Node4 -->
<g id="Node000004" class="node">
<title>Node4</title>
<g id="a_Node000004"><a xlink:title=" ">
<polygon fill="#e0e0e0" stroke="#999999" points="2278.62,-244 2198.88,-244 2198.88,-224 2278.62,-224 2278.62,-244"/>
<text text-anchor="middle" x="2238.75" y="-230.5" font-family="Helvetica,sans-Serif" font-size="10.00">SDKDDKVer.h</text>
</a>
</g>
</g>
<!-- Node3&#45;&gt;Node4 -->
<g id="edge3_Node000003_Node000004" class="edge">
<title>Node3&#45;&gt;Node4</title>
<g id="a_edge3_Node000003_Node000004"><a xlink:title=" ">
<path fill="none" stroke="#63b8ff" d="M2018.24,-280.62C2063.81,-271.19 2137.91,-255.86 2187.48,-245.61"/>
<polygon fill="#63b8ff" stroke="#63b8ff" points="2188.02,-249.07 2197.11,-243.62 2186.61,-242.21 2188.02,-249.07"/>
</a>
</g>
</g>
<!-- Node5 -->
<g id="Node000005" class="node">
<title>Node5</title>
<g id="a_Node000005"><a xlink:title=" ">
<polygon fill="#e0e0e0" stroke="#999999" points="2738.25,-244 2677.25,-244 2677.25,-224 2738.25,-224 2738.25,-244"/>
<text text-anchor="middle" x="2707.75" y="-230.5" font-family="Helvetica,sans-Serif" font-size="10.00">windows.h</text>
</a>
</g>
</g>
<!-- Node3&#45;&gt;Node5 -->
<g id="edge4_Node000003_Node000005" class="edge">
<title>Node3&#45;&gt;Node5</title>
<g id="a_edge4_Node000003_Node000005"><a xlink:title=" ">
<path fill="none" stroke="#63b8ff" d="M2018.47,-288.2C2124.84,-285.69 2419.65,-276.15 2662.75,-244 2663.75,-243.87 2664.77,-243.73 2665.79,-243.58"/>
<polygon fill="#63b8ff" stroke="#63b8ff" points="2666.07,-247.08 2675.36,-241.98 2664.92,-240.17 2666.07,-247.08"/>
</a>
</g>
</g>
<!-- Node6 -->
<g id="Node000006" class="node">
<title>Node6</title>
<g id="a_Node000006"><a xlink:title=" ">
<polygon fill="#e0e0e0" stroke="#999999" points="47.5,-244 0,-244 0,-224 47.5,-224 47.5,-244"/>
<text text-anchor="middle" x="23.75" y="-230.5" font-family="Helvetica,sans-Serif" font-size="10.00">stdlib.h</text>
</a>
</g>
</g>
<!-- Node3&#45;&gt;Node6 -->
<g id="edge5_Node000003_Node000006" class="edge">
<title>Node3&#45;&gt;Node6</title>
<g id="a_edge5_Node000003_Node000006"><a xlink:title=" ">
<path fill="none" stroke="#63b8ff" d="M1937.01,-288.64C1680.93,-286.3 297.09,-272.47 59.12,-243.78"/>
<polygon fill="#63b8ff" stroke="#63b8ff" points="59.63,-240.32 49.26,-242.47 58.71,-247.26 59.63,-240.32"/>
</a>
</g>
</g>
<!-- Node7 -->
<g id="Node000007" class="node">
<title>Node7</title>
<g id="a_Node000007"><a xlink:title=" ">
<polygon fill="#e0e0e0" stroke="#999999" points="118.12,-244 65.38,-244 65.38,-224 118.12,-224 118.12,-244"/>
<text text-anchor="middle" x="91.75" y="-230.5" font-family="Helvetica,sans-Serif" font-size="10.00">malloc.h</text>
</a>
</g>
</g>
<!-- Node3&#45;&gt;Node7 -->
<g id="edge6_Node000003_Node000007" class="edge">
<title>Node3&#45;&gt;Node7</title>
<g id="a_edge6_Node000003_Node000007"><a xlink:title=" ">
<path fill="none" stroke="#63b8ff" d="M1937.23,-289.27C1702.78,-290.62 517.18,-294.88 129.61,-244.03"/>
<polygon fill="#63b8ff" stroke="#63b8ff" points="130.26,-240.59 119.88,-242.72 129.32,-247.53 130.26,-240.59"/>
</a>
</g>
</g>
<!-- Node8 -->
<g id="Node000008" class="node">
<title>Node8</title>
<g id="a_Node000008"><a xlink:title=" ">
<polygon fill="#e0e0e0" stroke="#999999" points="195.5,-244 136,-244 136,-224 195.5,-224 195.5,-244"/>
<text text-anchor="middle" x="165.75" y="-230.5" font-family="Helvetica,sans-Serif" font-size="10.00">memory.h</text>
</a>
</g>
</g>
<!-- Node3&#45;&gt;Node8 -->
<g id="edge7_Node000003_Node000008" class="edge">
<title>Node3&#45;&gt;Node8</title>
<g id="a_edge7_Node000003_Node000008"><a xlink:title=" ">
<path fill="none" stroke="#63b8ff" d="M1937.09,-289.08C1708.37,-289.36 579.34,-288.52 207.2,-243.98"/>
<polygon fill="#63b8ff" stroke="#63b8ff" points="207.73,-240.52 197.38,-242.77 206.87,-247.47 207.73,-240.52"/>
</a>
</g>
</g>
<!-- Node9 -->
<g id="Node000009" class="node">
<title>Node9</title>
<g id="a_Node000009"><a xlink:title=" ">
<polygon fill="#e0e0e0" stroke="#999999" points="259.75,-244 213.75,-244 213.75,-224 259.75,-224 259.75,-244"/>
<text text-anchor="middle" x="236.75" y="-230.5" font-family="Helvetica,sans-Serif" font-size="10.00">tchar.h</text>
</a>
</g>
</g>
<!-- Node3&#45;&gt;Node9 -->
<g id="edge8_Node000003_Node000009" class="edge">
<title>Node3&#45;&gt;Node9</title>
<g id="a_edge8_Node000003_Node000009"><a xlink:title=" ">
<path fill="none" stroke="#63b8ff" d="M1937.28,-288.54C1699.34,-285.72 485.8,-270.27 271.37,-243.82"/>
<polygon fill="#63b8ff" stroke="#63b8ff" points="271.9,-240.36 261.52,-242.47 270.95,-247.29 271.9,-240.36"/>
</a>
</g>
</g>
<!-- Node10 -->
<g id="Node000010" class="node">
<title>Node10</title>
<g id="a_Node000010"><a xlink:title=" ">
<polygon fill="#e0e0e0" stroke="#999999" points="339.62,-244 277.88,-244 277.88,-224 339.62,-224 339.62,-244"/>
<text text-anchor="middle" x="308.75" y="-230.5" font-family="Helvetica,sans-Serif" font-size="10.00">resource.h</text>
</a>
</g>
</g>
<!-- Node3&#45;&gt;Node10 -->
<g id="edge9_Node000003_Node000010" class="edge">
<title>Node3&#45;&gt;Node10</title>
<g id="a_edge9_Node000003_Node000010"><a xlink:title=" ">
<path fill="none" stroke="#63b8ff" d="M1937.22,-288.94C1720.23,-288.49 693.27,-284.27 351.47,-244.04"/>
<polygon fill="#63b8ff" stroke="#63b8ff" points="351.94,-240.57 341.59,-242.84 351.1,-247.52 351.94,-240.57"/>
</a>
</g>
</g>
<!-- Node11 -->
<g id="Node000011" class="node">
<title>Node11</title>
<g id="a_Node000011"><a xlink:title=" ">
<polygon fill="#e0e0e0" stroke="#999999" points="403.38,-244 358.12,-244 358.12,-224 403.38,-224 403.38,-244"/>
<text text-anchor="middle" x="380.75" y="-230.5" font-family="Helvetica,sans-Serif" font-size="10.00">chrono</text>
</a>
</g>
</g>
<!-- Node3&#45;&gt;Node11 -->
<g id="edge10_Node000003_Node000011" class="edge">
<title>Node3&#45;&gt;Node11</title>
<g id="a_edge10_Node000003_Node000011"><a xlink:title=" ">
<path fill="none" stroke="#63b8ff" d="M1937.35,-289.22C1725.64,-290.19 741.84,-292.07 414.97,-244.07"/>
<polygon fill="#63b8ff" stroke="#63b8ff" points="415.54,-240.62 405.12,-242.57 414.48,-247.54 415.54,-240.62"/>
</a>
</g>
</g>
<!-- Node12 -->
<g id="Node000012" class="node">
<title>Node12</title>
<g id="a_Node000012"><a xlink:title=" ">
<polygon fill="#e0e0e0" stroke="#999999" points="462.5,-244 421,-244 421,-224 462.5,-224 462.5,-244"/>
<text text-anchor="middle" x="441.75" y="-230.5" font-family="Helvetica,sans-Serif" font-size="10.00">vector</text>
</a>
</g>
</g>
<!-- Node3&#45;&gt;Node12 -->
<g id="edge11_Node000003_Node000012" class="edge">
<title>Node3&#45;&gt;Node12</title>
<g id="a_edge11_Node000003_Node000012"><a xlink:title=" ">
<path fill="none" stroke="#63b8ff" d="M1937.18,-289.22C1730,-290.12 788.06,-291.59 473.81,-243.81"/>
<polygon fill="#63b8ff" stroke="#63b8ff" points="474.81,-240.43 464.39,-242.33 473.72,-247.34 474.81,-240.43"/>
</a>
</g>
</g>
<!-- Node13 -->
<g id="Node000013" class="node">
<title>Node13</title>
<g id="a_Node000013"><a xlink:title=" ">
<polygon fill="#e0e0e0" stroke="#999999" points="534.5,-244 481,-244 481,-224 534.5,-224 534.5,-244"/>
<text text-anchor="middle" x="507.75" y="-230.5" font-family="Helvetica,sans-Serif" font-size="10.00">iostream</text>
</a>
</g>
</g>
<!-- Node3&#45;&gt;Node13 -->
<g id="edge12_Node000003_Node000013" class="edge">
<title>Node3&#45;&gt;Node13</title>
<g id="a_edge12_Node000003_Node000013"><a xlink:title=" ">
<path fill="none" stroke="#63b8ff" d="M1937.16,-288.9C1736.28,-288.21 846.6,-283.05 546.05,-243.93"/>
<polygon fill="#63b8ff" stroke="#63b8ff" points="546.63,-240.48 536.26,-242.61 545.7,-247.42 546.63,-240.48"/>
</a>
</g>
</g>
<!-- Node14 -->
<g id="Node000014" class="node">
<title>Node14</title>
<g id="a_Node000014"><a xlink:title=" ">
<polygon fill="#e0e0e0" stroke="#999999" points="600.88,-244 552.62,-244 552.62,-224 600.88,-224 600.88,-244"/>
<text text-anchor="middle" x="576.75" y="-230.5" font-family="Helvetica,sans-Serif" font-size="10.00">fstream</text>
</a>
</g>
</g>
<!-- Node3&#45;&gt;Node14 -->
<g id="edge13_Node000003_Node000014" class="edge">
<title>Node3&#45;&gt;Node14</title>
<g id="a_edge13_Node000003_Node000014"><a xlink:title=" ">
<path fill="none" stroke="#63b8ff" d="M1937.06,-288.94C1741.71,-288.46 898.08,-284.15 612.28,-243.96"/>
<polygon fill="#63b8ff" stroke="#63b8ff" points="613.02,-240.53 602.62,-242.55 612.01,-247.46 613.02,-240.53"/>
</a>
</g>
</g>
<!-- Node15 -->
<g id="Node000015" class="node">
<title>Node15</title>
<g id="a_Node000015"><a xlink:title=" ">
<polygon fill="#e0e0e0" stroke="#999999" points="678.88,-244 618.62,-244 618.62,-224 678.88,-224 678.88,-244"/>
<text text-anchor="middle" x="648.75" y="-230.5" font-family="Helvetica,sans-Serif" font-size="10.00">filesystem</text>
</a>
</g>
</g>
<!-- Node3&#45;&gt;Node15 -->
<g id="edge14_Node000003_Node000015" class="edge">
<title>Node3&#45;&gt;Node15</title>
<g id="a_edge14_Node000003_Node000015"><a xlink:title=" ">
<path fill="none" stroke="#63b8ff" d="M1937.22,-288.63C1749.27,-286.78 960.76,-277.2 690.62,-244.08"/>
<polygon fill="#63b8ff" stroke="#63b8ff" points="691.17,-240.62 680.81,-242.83 690.28,-247.56 691.17,-240.62"/>
</a>
</g>
</g>
<!-- Node16 -->
<g id="Node000016" class="node">
<title>Node16</title>
<g id="a_Node000016"><a xlink:title=" ">
<polygon fill="#e0e0e0" stroke="#999999" points="748.38,-244 697.12,-244 697.12,-224 748.38,-224 748.38,-244"/>
<text text-anchor="middle" x="722.75" y="-230.5" font-family="Helvetica,sans-Serif" font-size="10.00">sstream</text>
</a>
</g>
</g>
<!-- Node3&#45;&gt;Node16 -->
<g id="edge15_Node000003_Node000016" class="edge">
<title>Node3&#45;&gt;Node16</title>
<g id="a_edge15_Node000003_Node000016"><a xlink:title=" ">
<path fill="none" stroke="#63b8ff" d="M1937.27,-288.67C1755.78,-287.04 1015.2,-278.45 759.69,-243.87"/>
<polygon fill="#63b8ff" stroke="#63b8ff" points="760.51,-240.45 750.12,-242.52 759.53,-247.38 760.51,-240.45"/>
</a>
</g>
</g>
<!-- Node17 -->
<g id="Node000017" class="node">
<title>Node17</title>
<g id="a_Node000017"><a xlink:title=" ">
<polygon fill="#e0e0e0" stroke="#999999" points="849.12,-244 766.38,-244 766.38,-224 849.12,-224 849.12,-244"/>
<text text-anchor="middle" x="807.75" y="-230.5" font-family="Helvetica,sans-Serif" font-size="10.00">unordered_map</text>
</a>
</g>
</g>
<!-- Node3&#45;&gt;Node17 -->
<g id="edge16_Node000003_Node000017" class="edge">
<title>Node3&#45;&gt;Node17</title>
<g id="a_edge16_Node000003_Node000017"><a xlink:title=" ">
<path fill="none" stroke="#63b8ff" d="M1937.21,-289.33C1792.46,-290.11 1287.45,-289.28 860.76,-244.04"/>
<polygon fill="#63b8ff" stroke="#63b8ff" points="861.25,-240.57 850.94,-242.99 860.51,-247.53 861.25,-240.57"/>
</a>
</g>
</g>
<!-- Node18 -->
<g id="Node000018" class="node">
<title>Node18</title>
<g id="a_Node000018"><a xlink:title=" ">
<polygon fill="#e0e0e0" stroke="#999999" points="972,-244 867.5,-244 867.5,-224 972,-224 972,-244"/>
<text text-anchor="middle" x="919.75" y="-230.5" font-family="Helvetica,sans-Serif" font-size="10.00">assimp/Importer.hpp</text>
</a>
</g>
</g>
<!-- Node3&#45;&gt;Node18 -->
<g id="edge17_Node000003_Node000018" class="edge">
<title>Node3&#45;&gt;Node18</title>
<g id="a_edge17_Node000003_Node000018"><a xlink:title=" ">
<path fill="none" stroke="#63b8ff" d="M1937.28,-288.64C1803.06,-287.15 1360.12,-279.74 983.68,-244.18"/>
<polygon fill="#63b8ff" stroke="#63b8ff" points="984.08,-240.7 973.79,-243.24 983.41,-247.67 984.08,-240.7"/>
</a>
</g>
</g>
<!-- Node19 -->
<g id="Node000019" class="node">
<title>Node19</title>
<g id="a_Node000019"><a xlink:title=" ">
<polygon fill="#e0e0e0" stroke="#999999" points="1075.25,-244 990.25,-244 990.25,-224 1075.25,-224 1075.25,-244"/>
<text text-anchor="middle" x="1032.75" y="-230.5" font-family="Helvetica,sans-Serif" font-size="10.00">assimp/scene.h</text>
</a>
</g>
</g>
<!-- Node3&#45;&gt;Node19 -->
<g id="edge18_Node000003_Node000019" class="edge">
<title>Node3&#45;&gt;Node19</title>
<g id="a_edge18_Node000003_Node000019"><a xlink:title=" ">
<path fill="none" stroke="#63b8ff" d="M1937.11,-288.7C1811.95,-287.41 1421.12,-280.61 1086.91,-244.08"/>
<polygon fill="#63b8ff" stroke="#63b8ff" points="1087.37,-240.61 1077.04,-242.99 1086.6,-247.57 1087.37,-240.61"/>
</a>
</g>
</g>
<!-- Node20 -->
<g id="Node000020" class="node">
<title>Node20</title>
<g id="a_Node000020"><a xlink:title=" ">
<polygon fill="#e0e0e0" stroke="#999999" points="1205.75,-244 1093.75,-244 1093.75,-224 1205.75,-224 1205.75,-244"/>
<text text-anchor="middle" x="1149.75" y="-230.5" font-family="Helvetica,sans-Serif" font-size="10.00">assimp/postprocess.h</text>
</a>
</g>
</g>
<!-- Node3&#45;&gt;Node20 -->
<g id="edge19_Node000003_Node000020" class="edge">
<title>Node3&#45;&gt;Node20</title>
<g id="a_edge19_Node000003_Node000020"><a xlink:title=" ">
<path fill="none" stroke="#63b8ff" d="M1937.13,-287.73C1824.55,-283.97 1498.83,-271.47 1217.35,-244.18"/>
<polygon fill="#63b8ff" stroke="#63b8ff" points="1217.89,-240.72 1207.59,-243.22 1217.21,-247.68 1217.89,-240.72"/>
</a>
</g>
</g>
<!-- Node21 -->
<g id="Node000021" class="node">
<title>Node21</title>
<g id="a_Node000021"><a xlink:title=" ">
<polygon fill="#e0e0e0" stroke="#999999" points="1369.25,-244 1224.25,-244 1224.25,-224 1369.25,-224 1369.25,-244"/>
<text text-anchor="middle" x="1296.75" y="-230.5" font-family="Helvetica,sans-Serif" font-size="10.00">directxtk\WICTextureLoader.h</text>
</a>
</g>
</g>
<!-- Node3&#45;&gt;Node21 -->
<g id="edge20_Node000003_Node000021" class="edge">
<title>Node3&#45;&gt;Node21</title>
<g id="a_edge20_Node000003_Node000021"><a xlink:title=" ">
<path fill="none" stroke="#63b8ff" d="M1937.04,-286.43C1841.85,-280.3 1597.07,-263.96 1380.87,-244.16"/>
<polygon fill="#63b8ff" stroke="#63b8ff" points="1381.4,-240.7 1371.12,-243.27 1380.76,-247.67 1381.4,-240.7"/>
</a>
</g>
</g>
<!-- Node22 -->
<g id="Node000022" class="node">
<title>Node22</title>
<g id="a_Node000022"><a xlink:title=" ">
<polygon fill="#e0e0e0" stroke="#999999" points="1452.12,-244 1387.38,-244 1387.38,-224 1452.12,-224 1452.12,-244"/>
<text text-anchor="middle" x="1419.75" y="-230.5" font-family="Helvetica,sans-Serif" font-size="10.00">wincodec.h</text>
</a>
</g>
</g>
<!-- Node3&#45;&gt;Node22 -->
<g id="edge21_Node000003_Node000022" class="edge">
<title>Node3&#45;&gt;Node22</title>
<g id="a_edge21_Node000003_Node000022"><a xlink:title=" ">
<path fill="none" stroke="#63b8ff" d="M1937.32,-287.26C1851.68,-283.2 1645.57,-271.4 1463.48,-244.24"/>
<polygon fill="#63b8ff" stroke="#63b8ff" points="1464.26,-240.82 1453.85,-242.78 1463.21,-247.74 1464.26,-240.82"/>
</a>
</g>
</g>
<!-- Node23 -->
<g id="Node000023" class="node">
<title>Node23</title>
<g id="a_Node000023"><a xlink:title=" ">
<polygon fill="#e0e0e0" stroke="#999999" points="1527.75,-244 1469.75,-244 1469.75,-224 1527.75,-224 1527.75,-244"/>
<text text-anchor="middle" x="1498.75" y="-230.5" font-family="Helvetica,sans-Serif" font-size="10.00">lodepng.h</text>
</a>
</g>
</g>
<!-- Node3&#45;&gt;Node23 -->
<g id="edge22_Node000003_Node000023" class="edge">
<title>Node3&#45;&gt;Node23</title>
<g id="a_edge22_Node000003_Node000023"><a xlink:title=" ">
<path fill="none" stroke="#63b8ff" d="M1937.08,-286.64C1860.86,-281.82 1691.22,-269.28 1539.06,-244.19"/>
<polygon fill="#63b8ff" stroke="#63b8ff" points="1540.06,-240.81 1529.62,-242.61 1538.91,-247.71 1540.06,-240.81"/>
</a>
</g>
</g>
<!-- Node24 -->
<g id="Node000024" class="node">
<title>Node24</title>
<g id="a_Node000024"><a xlink:title=" ">
<polygon fill="#e0e0e0" stroke="#999999" points="1596,-244 1545.5,-244 1545.5,-224 1596,-224 1596,-244"/>
<text text-anchor="middle" x="1570.75" y="-230.5" font-family="Helvetica,sans-Serif" font-size="10.00">d3d11.h</text>
</a>
</g>
</g>
<!-- Node3&#45;&gt;Node24 -->
<g id="edge23_Node000003_Node000024" class="edge">
<title>Node3&#45;&gt;Node24</title>
<g id="a_edge23_Node000003_Node000024"><a xlink:title=" ">
<path fill="none" stroke="#63b8ff" d="M1937.02,-285.84C1870.25,-280.27 1733.19,-267.24 1607.26,-244.03"/>
<polygon fill="#63b8ff" stroke="#63b8ff" points="1608.24,-240.65 1597.77,-242.26 1606.95,-247.54 1608.24,-240.65"/>
</a>
</g>
</g>
<!-- Node25 -->
<g id="Node000025" class="node">
<title>Node25</title>
<g id="a_Node000025"><a xlink:title=" ">
<polygon fill="#e0e0e0" stroke="#999999" points="1691.12,-244 1614.38,-244 1614.38,-224 1691.12,-224 1691.12,-244"/>
<text text-anchor="middle" x="1652.75" y="-230.5" font-family="Helvetica,sans-Serif" font-size="10.00">DirectXMath.h</text>
</a>
</g>
</g>
<!-- Node3&#45;&gt;Node25 -->
<g id="edge24_Node000003_Node000025" class="edge">
<title>Node3&#45;&gt;Node25</title>
<g id="a_edge24_Node000003_Node000025"><a xlink:title=" ">
<path fill="none" stroke="#63b8ff" d="M1937.17,-282.81C1885.15,-274.78 1791.86,-260.12 1702.61,-244.47"/>
<polygon fill="#63b8ff" stroke="#63b8ff" points="1703.41,-241.05 1692.95,-242.77 1702.19,-247.95 1703.41,-241.05"/>
</a>
</g>
</g>
<!-- Node26 -->
<g id="Node000026" class="node">
<title>Node26</title>
<g id="a_Node000026"><a xlink:title=" ">
<polygon fill="#e0e0e0" stroke="#999999" points="1788.62,-244 1708.88,-244 1708.88,-224 1788.62,-224 1788.62,-244"/>
<text text-anchor="middle" x="1748.75" y="-230.5" font-family="Helvetica,sans-Serif" font-size="10.00">D3Dcompiler.h</text>
</a>
</g>
</g>
<!-- Node3&#45;&gt;Node26 -->
<g id="edge25_Node000003_Node000026" class="edge">
<title>Node3&#45;&gt;Node26</title>
<g id="a_edge25_Node000003_Node000026"><a xlink:title=" ">
<path fill="none" stroke="#63b8ff" d="M1937.6,-279.53C1899.29,-270.5 1841.43,-256.85 1799.85,-247.05"/>
<polygon fill="#63b8ff" stroke="#63b8ff" points="1800.86,-243.69 1790.33,-244.8 1799.26,-250.51 1800.86,-243.69"/>
</a>
</g>
</g>
<!-- Node27 -->
<g id="Node000027" class="node">
<title>Node27</title>
<g id="a_Node000027"><a xlink:title=" ">
<polygon fill="#e0e0e0" stroke="#999999" points="1862.62,-244 1806.88,-244 1806.88,-224 1862.62,-224 1862.62,-244"/>
<text text-anchor="middle" x="1834.75" y="-230.5" font-family="Helvetica,sans-Serif" font-size="10.00">d2d1_2.h</text>
</a>
</g>
</g>
<!-- Node3&#45;&gt;Node27 -->
<g id="edge26_Node000003_Node000027" class="edge">
<title>Node3&#45;&gt;Node27</title>
<g id="a_edge26_Node000003_Node000027"><a xlink:title=" ">
<path fill="none" stroke="#63b8ff" d="M1952.84,-279.59C1930.02,-270.97 1895.97,-258.12 1870.29,-248.42"/>
<polygon fill="#63b8ff" stroke="#63b8ff" points="1871.86,-245.27 1861.27,-245.01 1869.39,-251.82 1871.86,-245.27"/>
</a>
</g>
</g>
<!-- Node28 -->
<g id="Node000028" class="node">
<title>Node28</title>
<g id="a_Node000028"><a xlink:title=" ">
<polygon fill="#e0e0e0" stroke="#999999" points="1936.62,-244 1880.88,-244 1880.88,-224 1936.62,-224 1936.62,-244"/>
<text text-anchor="middle" x="1908.75" y="-230.5" font-family="Helvetica,sans-Serif" font-size="10.00">d2d1_1.h</text>
</a>
</g>
</g>
<!-- Node3&#45;&gt;Node28 -->
<g id="edge27_Node000003_Node000028" class="edge">
<title>Node3&#45;&gt;Node28</title>
<g id="a_edge27_Node000003_Node000028"><a xlink:title=" ">
<path fill="none" stroke="#63b8ff" d="M1965.73,-279.59C1955.74,-271.77 1941.29,-260.46 1929.44,-251.19"/>
<polygon fill="#63b8ff" stroke="#63b8ff" points="1931.86,-248.64 1921.82,-245.23 1927.54,-254.15 1931.86,-248.64"/>
</a>
</g>
</g>
<!-- Node29 -->
<g id="Node000029" class="node">
<title>Node29</title>
<g id="a_Node000029"><a xlink:title=" ">
<polygon fill="#e0e0e0" stroke="#999999" points="2000.38,-244 1955.12,-244 1955.12,-224 2000.38,-224 2000.38,-244"/>
<text text-anchor="middle" x="1977.75" y="-230.5" font-family="Helvetica,sans-Serif" font-size="10.00">d2d1.h</text>
</a>
</g>
</g>
<!-- Node3&#45;&gt;Node29 -->
<g id="edge28_Node000003_Node000029" class="edge">
<title>Node3&#45;&gt;Node29</title>
<g id="a_edge28_Node000003_Node000029"><a xlink:title=" ">
<path fill="none" stroke="#63b8ff" d="M1977.75,-279.59C1977.75,-273.01 1977.75,-263.96 1977.75,-255.73"/>
<polygon fill="#63b8ff" stroke="#63b8ff" points="1981.25,-255.81 1977.75,-245.81 1974.25,-255.81 1981.25,-255.81"/>
</a>
</g>
</g>
<!-- Node30 -->
<g id="Node000030" class="node">
<title>Node30</title>
<g id="a_Node000030"><a xlink:title=" ">
<polygon fill="#e0e0e0" stroke="#999999" points="2068.62,-244 2018.88,-244 2018.88,-224 2068.62,-224 2068.62,-244"/>
<text text-anchor="middle" x="2043.75" y="-230.5" font-family="Helvetica,sans-Serif" font-size="10.00">dwrite.h</text>
</a>
</g>
</g>
<!-- Node3&#45;&gt;Node30 -->
<g id="edge29_Node000003_Node000030" class="edge">
<title>Node3&#45;&gt;Node30</title>
<g id="a_edge29_Node000003_Node000030"><a xlink:title=" ">
<path fill="none" stroke="#63b8ff" d="M1989.25,-279.59C1998.71,-271.85 2012.35,-260.69 2023.62,-251.47"/>
<polygon fill="#63b8ff" stroke="#63b8ff" points="2025.69,-254.3 2031.21,-245.26 2021.26,-248.88 2025.69,-254.3"/>
</a>
</g>
</g>
<!-- Node31 -->
<g id="Node000031" class="node">
<title>Node31</title>
<g id="a_Node000031"><a xlink:href="_win32_application_8h.html" target="_top" xlink:title=" ">
<polygon fill="white" stroke="#666666" points="2564.75,-244 2464.75,-244 2464.75,-224 2564.75,-224 2564.75,-244"/>
<text text-anchor="middle" x="2514.75" y="-230.5" font-family="Helvetica,sans-Serif" font-size="10.00">Win32Application.h</text>
</a>
</g>
</g>
<!-- Node3&#45;&gt;Node31 -->
<g id="edge30_Node000003_Node000031" class="edge">
<title>Node3&#45;&gt;Node31</title>
<g id="a_edge30_Node000003_Node000031"><a xlink:title=" ">
<path fill="none" stroke="#63b8ff" d="M2018.22,-285.34C2098.99,-278.41 2285.28,-262.44 2441.75,-244 2445.37,-243.57 2449.11,-243.11 2452.88,-242.63"/>
<polygon fill="#63b8ff" stroke="#63b8ff" points="2453.32,-246.1 2462.78,-241.33 2452.4,-239.16 2453.32,-246.1"/>
</a>
</g>
</g>
<!-- Node32 -->
<g id="Node000032" class="node">
<title>Node32</title>
<g id="a_Node000032"><a xlink:href="_direct_x_manager_8h.html" target="_top" xlink:title=" ">
<polygon fill="white" stroke="#666666" points="2513,-188 2420.5,-188 2420.5,-168 2513,-168 2513,-188"/>
<text text-anchor="middle" x="2466.75" y="-174.5" font-family="Helvetica,sans-Serif" font-size="10.00">DirectXManager.h</text>
</a>
</g>
</g>
<!-- Node3&#45;&gt;Node32 -->
<g id="edge54_Node000003_Node000032" class="edge">
<title>Node3&#45;&gt;Node32</title>
<g id="a_edge54_Node000003_Node000032"><a xlink:title=" ">
<path fill="none" stroke="#63b8ff" d="M2018.32,-287.61C2108.1,-284.18 2320.2,-273.34 2385.75,-244 2409.87,-233.2 2431.48,-211.21 2446.66,-195.82"/>
<polygon fill="#63b8ff" stroke="#63b8ff" points="2448.75,-198.67 2453.34,-189.12 2443.8,-193.73 2448.75,-198.67"/>
</a>
</g>
</g>
<!-- Node33 -->
<g id="Node000033" class="node">
<title>Node33</title>
<g id="a_Node000033"><a xlink:href="_camera_8h.html" target="_top" xlink:title=" ">
<polygon fill="white" stroke="#666666" points="2200.75,-132 2142.75,-132 2142.75,-112 2200.75,-112 2200.75,-132"/>
<text text-anchor="middle" x="2171.75" y="-118.5" font-family="Helvetica,sans-Serif" font-size="10.00">Camera.h</text>
</a>
</g>
</g>
<!-- Node3&#45;&gt;Node33 -->
<g id="edge55_Node000003_Node000033" class="edge">
<title>Node3&#45;&gt;Node33</title>
<g id="a_edge55_Node000003_Node000033"><a xlink:title=" ">
<path fill="none" stroke="#63b8ff" d="M2018.37,-285.85C2049.73,-281.28 2092.08,-270.27 2119.75,-244 2148.08,-217.1 2157.78,-170.33 2163.96,-143.49"/>
<polygon fill="#63b8ff" stroke="#63b8ff" points="2167.33,-144.42 2166.33,-133.87 2160.54,-142.75 2167.33,-144.42"/>
</a>
</g>
</g>
<!-- Node3&#45;&gt;Node34 -->
<g id="edge56_Node000003_Node000034" class="edge">
<title>Node3&#45;&gt;Node34</title>
<g id="a_edge56_Node000003_Node000034"><a xlink:title=" ">
<path fill="none" stroke="#63b8ff" d="M2018.32,-287.75C2090.85,-284.8 2238.37,-275.13 2278.75,-244 2329.22,-205.09 2303.25,-167.4 2334.75,-112 2340.18,-102.45 2347.27,-92.54 2354.27,-84.45"/>
<polygon fill="#63b8ff" stroke="#63b8ff" points="2356.68,-87 2361,-77.32 2351.59,-82.19 2356.68,-87"/>
</a>
</g>
</g>
<!-- Node35 -->
<g id="Node000035" class="node">
<title>Node35</title>
<g id="a_Node000035"><a xlink:href="_mesh_8h.html" target="_top" xlink:title=" ">
<polygon fill="white" stroke="#666666" points="2400.88,-132 2352.62,-132 2352.62,-112 2400.88,-112 2400.88,-132"/>
<text text-anchor="middle" x="2376.75" y="-118.5" font-family="Helvetica,sans-Serif" font-size="10.00">Mesh.h</text>
</a>
</g>
</g>
<!-- Node3&#45;&gt;Node35 -->
<g id="edge58_Node000003_Node000035" class="edge">
<title>Node3&#45;&gt;Node35</title>
<g id="a_edge58_Node000003_Node000035"><a xlink:title=" ">
<path fill="none" stroke="#63b8ff" d="M2018.29,-289.26C2100.59,-288.82 2282.83,-283.14 2329.75,-244 2359.66,-219.05 2366.38,-170.8 2370.64,-143.37"/>
<polygon fill="#63b8ff" stroke="#63b8ff" points="2374.03,-144.32 2372.25,-133.88 2367.13,-143.15 2374.03,-144.32"/>
</a>
</g>
</g>
<!-- Node36 -->
<g id="Node000036" class="node">
<title>Node36</title>
<g id="a_Node000036"><a xlink:href="_render_state_8h.html" target="_top" xlink:title=" ">
<polygon fill="white" stroke="#666666" points="2325.88,-20 2247.62,-20 2247.62,0 2325.88,0 2325.88,-20"/>
<text text-anchor="middle" x="2286.75" y="-6.5" font-family="Helvetica,sans-Serif" font-size="10.00">RenderState.h</text>
</a>
</g>
</g>
<!-- Node3&#45;&gt;Node36 -->
<g id="edge60_Node000003_Node000036" class="edge">
<title>Node3&#45;&gt;Node36</title>
<g id="a_edge60_Node000003_Node000036"><a xlink:title=" ">
<path fill="none" stroke="#63b8ff" d="M2007.06,-279.53C2026.66,-272.62 2051.66,-261.37 2068.75,-244 2090.81,-221.58 2096.75,-210.46 2096.75,-179 2096.75,-179 2096.75,-179 2096.75,-121 2096.75,-57.19 2179.93,-29.34 2236.32,-18.02"/>
<polygon fill="#63b8ff" stroke="#63b8ff" points="2236.88,-21.48 2246.07,-16.19 2235.59,-14.6 2236.88,-21.48"/>
</a>
</g>
</g>
<!-- Node37 -->
<g id="Node000037" class="node">
<title>Node37</title>
<g id="a_Node000037"><a xlink:href="_shader_program_8h.html" target="_top" xlink:title=" ">
<polygon fill="white" stroke="#666666" points="2846.62,-20 2754.88,-20 2754.88,0 2846.62,0 2846.62,-20"/>
<text text-anchor="middle" x="2800.75" y="-6.5" font-family="Helvetica,sans-Serif" font-size="10.00">ShaderProgram.h</text>
</a>
</g>
</g>
<!-- Node3&#45;&gt;Node37 -->
<g id="edge61_Node000003_Node000037" class="edge">
<title>Node3&#45;&gt;Node37</title>
<g id="a_edge61_Node000003_Node000037"><a xlink:title=" ">
<path fill="none" stroke="#63b8ff" d="M2018.31,-288.18C2171.78,-285 2711.01,-272.24 2782.75,-244 2824.74,-227.47 2860.75,-224.13 2860.75,-179 2860.75,-179 2860.75,-179 2860.75,-121 2860.75,-83.83 2832.13,-48.91 2814.15,-28.76"/>
<polygon fill="#63b8ff" stroke="#63b8ff" points="2816.88,-26.56 2807.59,-21.47 2811.68,-31.24 2816.88,-26.56"/>
</a>
</g>
</g>
<!-- Node39 -->
<g id="Node000039" class="node">
<title>Node39</title>
<g id="a_Node000039"><a xlink:href="_material_8h.html" target="_top" xlink:title=" ">
<polygon fill="white" stroke="#666666" points="2693.12,-76 2634.38,-76 2634.38,-56 2693.12,-56 2693.12,-76"/>
<text text-anchor="middle" x="2663.75" y="-62.5" font-family="Helvetica,sans-Serif" font-size="10.00">Material.h</text>
</a>
</g>
</g>
<!-- Node3&#45;&gt;Node39 -->
<g id="edge57_Node000003_Node000039" class="edge">
<title>Node3&#45;&gt;Node39</title>
<g id="a_edge57_Node000003_Node000039"><a xlink:title=" ">
<path fill="none" stroke="#63b8ff" d="M2018.25,-288.08C2172.32,-284.53 2713.7,-270.56 2738.75,-244 2757.83,-223.77 2828.94,-269.75 2731.75,-112 2723.27,-98.24 2708.9,-88.22 2695.47,-81.18"/>
<polygon fill="#63b8ff" stroke="#63b8ff" points="2697.38,-78.21 2686.86,-77.02 2694.34,-84.52 2697.38,-78.21"/>
</a>
</g>
</g>
<!-- Node40 -->
<g id="Node000040" class="node">
<title>Node40</title>
<g id="a_Node000040"><a xlink:href="_model_8h.html" target="_top" xlink:title=" ">
<polygon fill="white" stroke="#666666" points="2621,-132 2570.5,-132 2570.5,-112 2621,-112 2621,-132"/>
<text text-anchor="middle" x="2595.75" y="-118.5" font-family="Helvetica,sans-Serif" font-size="10.00">Model.h</text>
</a>
</g>
</g>
<!-- Node3&#45;&gt;Node40 -->
<g id="edge59_Node000003_Node000040" class="edge">
<title>Node3&#45;&gt;Node40</title>
<g id="a_edge59_Node000003_Node000040"><a xlink:title=" ">
<path fill="none" stroke="#63b8ff" d="M2018.34,-288.72C2144.67,-287.46 2524.03,-280.67 2564.75,-244 2592.69,-218.84 2592.6,-171.03 2592.75,-143.65"/>
<polygon fill="#63b8ff" stroke="#63b8ff" points="2596.25,-143.92 2592.93,-133.85 2589.25,-143.79 2596.25,-143.92"/>
</a>
</g>
</g>
<!-- Node31&#45;&gt;Node3 -->
<g id="edge31_Node000031_Node000003" class="edge">
<title>Node31&#45;&gt;Node3</title>
<g id="a_edge31_Node000031_Node000003"><a xlink:title=" ">
<path fill="none" stroke="#63b8ff" d="M2464.48,-243.43C2462.89,-243.63 2461.31,-243.82 2459.75,-244 2303.93,-262.36 2118.53,-278.28 2029.85,-285.25"/>
<polygon fill="#63b8ff" stroke="#63b8ff" points="2029.7,-281.75 2020,-286.02 2030.25,-288.73 2029.7,-281.75"/>
</a>
</g>
</g>
<!-- Node31&#45;&gt;Node32 -->
<g id="edge32_Node000031_Node000032" class="edge">
<title>Node31&#45;&gt;Node32</title>
<g id="a_edge32_Node000031_Node000032"><a xlink:title=" ">
<path fill="none" stroke="#63b8ff" d="M2506.39,-223.59C2499.85,-216.24 2490.57,-205.8 2482.63,-196.87"/>
<polygon fill="#63b8ff" stroke="#63b8ff" points="2485.28,-194.58 2476.02,-189.43 2480.05,-199.23 2485.28,-194.58"/>
</a>
</g>
</g>
<!-- Node32&#45;&gt;Node3 -->
<g id="edge33_Node000032_Node000003" class="edge">
<title>Node32&#45;&gt;Node3</title>
<g id="a_edge33_Node000032_Node000003"><a xlink:title=" ">
<path fill="none" stroke="#63b8ff" d="M2465.5,-188.05C2457.39,-202.69 2432.34,-231.2 2403.75,-244 2338.61,-273.16 2128.72,-284.05 2029.91,-287.55"/>
<polygon fill="#63b8ff" stroke="#63b8ff" points="2029.82,-284.05 2019.94,-287.89 2030.06,-291.05 2029.82,-284.05"/>
</a>
</g>
</g>
<!-- Node32&#45;&gt;Node33 -->
<g id="edge34_Node000032_Node000033" class="edge">
<title>Node32&#45;&gt;Node33</title>
<g id="a_edge34_Node000032_Node000033"><a xlink:title=" ">
<path fill="none" stroke="#63b8ff" d="M2420.01,-168.44C2362.79,-157.97 2266.84,-140.41 2212.5,-130.46"/>
<polygon fill="#63b8ff" stroke="#63b8ff" points="2213.2,-127.03 2202.73,-128.67 2211.94,-133.91 2213.2,-127.03"/>
</a>
</g>
</g>
<!-- Node32&#45;&gt;Node34 -->
<g id="edge36_Node000032_Node000034" class="edge">
<title>Node32&#45;&gt;Node34</title>
<g id="a_edge36_Node000032_Node000034"><a xlink:title=" ">
<path fill="none" stroke="#63b8ff" d="M2459.08,-167.62C2444.13,-149.36 2410.9,-108.73 2391.53,-85.07"/>
<polygon fill="#63b8ff" stroke="#63b8ff" points="2394.4,-83.05 2385.36,-77.53 2388.99,-87.48 2394.4,-83.05"/>
</a>
</g>
</g>
<!-- Node32&#45;&gt;Node35 -->
<g id="edge38_Node000032_Node000035" class="edge">
<title>Node32&#45;&gt;Node35</title>
<g id="a_edge38_Node000032_Node000035"><a xlink:title=" ">
<path fill="none" stroke="#63b8ff" d="M2451.07,-167.59C2437.61,-159.51 2417.93,-147.71 2402.21,-138.27"/>
<polygon fill="#63b8ff" stroke="#63b8ff" points="2404.22,-135.4 2393.85,-133.26 2400.62,-141.4 2404.22,-135.4"/>
</a>
</g>
</g>
<!-- Node32&#45;&gt;Node36 -->
<g id="edge41_Node000032_Node000036" class="edge">
<title>Node32&#45;&gt;Node36</title>
<g id="a_edge41_Node000032_Node000036"><a xlink:title=" ">
<path fill="none" stroke="#63b8ff" d="M2466.87,-167.66C2466.63,-145.21 2462.83,-87.69 2431.75,-56 2407.01,-30.78 2368.43,-19.63 2337.28,-14.73"/>
<polygon fill="#63b8ff" stroke="#63b8ff" points="2338.06,-11.31 2327.68,-13.41 2337.1,-18.24 2338.06,-11.31"/>
</a>
</g>
</g>
<!-- Node32&#45;&gt;Node37 -->
<g id="edge43_Node000032_Node000037" class="edge">
<title>Node32&#45;&gt;Node37</title>
<g id="a_edge43_Node000032_Node000037"><a xlink:title=" ">
<path fill="none" stroke="#63b8ff" d="M2473.59,-167.73C2483.84,-154.28 2504.28,-129.08 2525.75,-112 2565.61,-80.28 2578.47,-74.95 2625.75,-56 2663.85,-40.73 2708.72,-29.32 2743.48,-21.8"/>
<polygon fill="#63b8ff" stroke="#63b8ff" points="2743.85,-25.3 2752.91,-19.81 2742.41,-18.45 2743.85,-25.3"/>
</a>
</g>
</g>
<!-- Node38 -->
<g id="Node000038" class="node">
<title>Node38</title>
<g id="a_Node000038"><a xlink:href="_shader_manager_8h.html" target="_top" xlink:title=" ">
<polygon fill="white" stroke="#666666" points="2732,-132 2639.5,-132 2639.5,-112 2732,-112 2732,-132"/>
<text text-anchor="middle" x="2685.75" y="-118.5" font-family="Helvetica,sans-Serif" font-size="10.00">ShaderManager.h</text>
</a>
</g>
</g>
<!-- Node32&#45;&gt;Node38 -->
<g id="edge45_Node000032_Node000038" class="edge">
<title>Node32&#45;&gt;Node38</title>
<g id="a_edge45_Node000032_Node000038"><a xlink:title=" ">
<path fill="none" stroke="#63b8ff" d="M2505.15,-167.53C2541.62,-158.54 2596.65,-144.97 2636.37,-135.18"/>
<polygon fill="#63b8ff" stroke="#63b8ff" points="2637.06,-138.61 2645.93,-132.82 2635.38,-131.82 2637.06,-138.61"/>
</a>
</g>
</g>
<!-- Node32&#45;&gt;Node39 -->
<g id="edge47_Node000032_Node000039" class="edge">
<title>Node32&#45;&gt;Node39</title>
<g id="a_edge47_Node000032_Node000039"><a xlink:title=" ">
<path fill="none" stroke="#63b8ff" d="M2478.88,-167.62C2496.5,-154.24 2530.49,-129.39 2561.75,-112 2583.16,-100.09 2608.33,-88.96 2628.31,-80.74"/>
<polygon fill="#63b8ff" stroke="#63b8ff" points="2629.46,-84.06 2637.41,-77.06 2626.83,-77.57 2629.46,-84.06"/>
</a>
</g>
</g>
<!-- Node32&#45;&gt;Node40 -->
<g id="edge51_Node000032_Node000040" class="edge">
<title>Node32&#45;&gt;Node40</title>
<g id="a_edge51_Node000032_Node000040"><a xlink:title=" ">
<path fill="none" stroke="#63b8ff" d="M2489.22,-167.59C2509.54,-159.09 2539.7,-146.46 2562.76,-136.81"/>
<polygon fill="#63b8ff" stroke="#63b8ff" points="2563.84,-140.15 2571.71,-133.06 2561.13,-133.7 2563.84,-140.15"/>
</a>
</g>
</g>
<!-- Node33&#45;&gt;Node3 -->
<g id="edge35_Node000033_Node000003" class="edge">
<title>Node33&#45;&gt;Node3</title>
<g id="a_edge35_Node000033_Node000003"><a xlink:title=" ">
<path fill="none" stroke="#63b8ff" d="M2175.72,-132.4C2178.38,-155.01 2170.57,-212.84 2137.75,-244 2109.06,-271.24 2064.58,-282.07 2029.69,-286.33"/>
<polygon fill="#63b8ff" stroke="#63b8ff" points="2029.35,-282.85 2019.77,-287.38 2030.08,-289.81 2029.35,-282.85"/>
</a>
</g>
</g>
<!-- Node34&#45;&gt;Node3 -->
<g id="edge37_Node000034_Node000003" class="edge">
<title>Node34&#45;&gt;Node3</title>
<g id="a_edge37_Node000034_Node000003"><a xlink:title=" ">
<path fill="none" stroke="#63b8ff" d="M2375.96,-76.22C2370.84,-85.03 2360.22,-98.86 2352.75,-112 2321.25,-167.4 2347.22,-205.09 2296.75,-244 2256.42,-275.1 2109.18,-284.78 2029.52,-287.74"/>
<polygon fill="#63b8ff" stroke="#63b8ff" points="2029.66,-284.23 2019.79,-288.07 2029.9,-291.22 2029.66,-284.23"/>
</a>
</g>
</g>
<!-- Node35&#45;&gt;Node3 -->
<g id="edge39_Node000035_Node000003" class="edge">
<title>Node35&#45;&gt;Node3</title>
<g id="a_edge39_Node000035_Node000003"><a xlink:title=" ">
<path fill="none" stroke="#63b8ff" d="M2381.4,-132.39C2385.89,-155.47 2382.24,-215.23 2347.75,-244 2301.06,-282.95 2120.36,-288.77 2029.84,-289.26"/>
<polygon fill="#63b8ff" stroke="#63b8ff" points="2029.98,-285.76 2019.99,-289.29 2030,-292.76 2029.98,-285.76"/>
</a>
</g>
</g>
<!-- Node35&#45;&gt;Node34 -->
<g id="edge40_Node000035_Node000034" class="edge">
<title>Node35&#45;&gt;Node34</title>
<g id="a_edge40_Node000035_Node000034"><a xlink:title=" ">
<path fill="none" stroke="#63b8ff" d="M2376.75,-111.59C2376.75,-105.01 2376.75,-95.96 2376.75,-87.73"/>
<polygon fill="#63b8ff" stroke="#63b8ff" points="2380.25,-87.81 2376.75,-77.81 2373.25,-87.81 2380.25,-87.81"/>
</a>
</g>
</g>
<!-- Node36&#45;&gt;Node3 -->
<g id="edge42_Node000036_Node000003" class="edge">
<title>Node36&#45;&gt;Node3</title>
<g id="a_edge42_Node000036_Node000003"><a xlink:title=" ">
<path fill="none" stroke="#63b8ff" d="M2247.35,-18.33C2196.46,-29.84 2114.75,-57.75 2114.75,-121 2114.75,-179 2114.75,-179 2114.75,-179 2114.75,-210.46 2108.81,-221.58 2086.75,-244 2071.24,-259.76 2049.23,-270.48 2028.96,-277.49"/>
<polygon fill="#63b8ff" stroke="#63b8ff" points="2028.15,-274.08 2019.69,-280.46 2030.28,-280.74 2028.15,-274.08"/>
</a>
</g>
</g>
<!-- Node37&#45;&gt;Node3 -->
<g id="edge44_Node000037_Node000003" class="edge">
<title>Node37&#45;&gt;Node3</title>
<g id="a_edge44_Node000037_Node000003"><a xlink:title=" ">
<path fill="none" stroke="#63b8ff" d="M2817.1,-20.35C2840.34,-37.9 2878.75,-77.94 2878.75,-121 2878.75,-179 2878.75,-179 2878.75,-179 2878.75,-224.13 2842.74,-227.47 2800.75,-244 2729.66,-271.98 2199.38,-284.78 2029.71,-288.09"/>
<polygon fill="#63b8ff" stroke="#63b8ff" points="2029.81,-284.59 2019.88,-288.28 2029.94,-291.59 2029.81,-284.59"/>
</a>
</g>
</g>
<!-- Node38&#45;&gt;Node3 -->
<g id="edge46_Node000038_Node000003" class="edge">
<title>Node38&#45;&gt;Node3</title>
<g id="a_edge46_Node000038_Node000003"><a xlink:title=" ">
<path fill="none" stroke="#63b8ff" d="M2682.65,-132.4C2674.28,-156.05 2648.8,-217.99 2603.75,-244 2554.59,-272.38 2170.65,-284.37 2029.55,-287.85"/>
<polygon fill="#63b8ff" stroke="#63b8ff" points="2029.66,-284.35 2019.75,-288.09 2029.83,-291.35 2029.66,-284.35"/>
</a>
</g>
</g>
<!-- Node39&#45;&gt;Node3 -->
<g id="edge48_Node000039_Node000003" class="edge">
<title>Node39&#45;&gt;Node3</title>
<g id="a_edge48_Node000039_Node000003"><a xlink:title=" ">
<path fill="none" stroke="#63b8ff" d="M2693.35,-73.59C2713.23,-80.18 2737.57,-92.23 2749.75,-112 2846.94,-269.75 2775.83,-223.77 2756.75,-244 2731.92,-270.32 2199.97,-284.28 2029.64,-287.98"/>
<polygon fill="#63b8ff" stroke="#63b8ff" points="2029.68,-284.48 2019.76,-288.19 2029.83,-291.48 2029.68,-284.48"/>
</a>
</g>
</g>
<!-- Node39&#45;&gt;Node36 -->
<g id="edge50_Node000039_Node000036" class="edge">
<title>Node39&#45;&gt;Node36</title>
<g id="a_edge50_Node000039_Node000036"><a xlink:title=" ">
<path fill="none" stroke="#63b8ff" d="M2634.17,-60.76C2569.97,-51.57 2417.26,-29.69 2337.4,-18.25"/>
<polygon fill="#63b8ff" stroke="#63b8ff" points="2338.05,-14.81 2327.66,-16.86 2337.06,-21.74 2338.05,-14.81"/>
</a>
</g>
</g>
<!-- Node39&#45;&gt;Node37 -->
<g id="edge49_Node000039_Node000037" class="edge">
<title>Node39&#45;&gt;Node37</title>
<g id="a_edge49_Node000039_Node000037"><a xlink:title=" ">
<path fill="none" stroke="#63b8ff" d="M2687.61,-55.59C2709.29,-47.05 2741.52,-34.35 2766.04,-24.68"/>
<polygon fill="#63b8ff" stroke="#63b8ff" points="2767.27,-27.96 2775.29,-21.03 2764.71,-21.45 2767.27,-27.96"/>
</a>
</g>
</g>
<!-- Node40&#45;&gt;Node3 -->
<g id="edge52_Node000040_Node000003" class="edge">
<title>Node40&#45;&gt;Node3</title>
<g id="a_edge52_Node000040_Node000003"><a xlink:title=" ">
<path fill="none" stroke="#63b8ff" d="M2601.85,-132.34C2609.87,-155.32 2615.12,-214.85 2582.75,-244 2542.35,-280.39 2168.55,-287.36 2029.45,-288.69"/>
<polygon fill="#63b8ff" stroke="#63b8ff" points="2029.77,-285.18 2019.81,-288.77 2029.84,-292.18 2029.77,-285.18"/>
</a>
</g>
</g>
<!-- Node40&#45;&gt;Node39 -->
<g id="edge53_Node000040_Node000039" class="edge">
<title>Node40&#45;&gt;Node39</title>
<g id="a_edge53_Node000040_Node000039"><a xlink:title=" ">
<path fill="none" stroke="#63b8ff" d="M2607.59,-111.59C2617.44,-103.77 2631.68,-92.46 2643.36,-83.19"/>
<polygon fill="#63b8ff" stroke="#63b8ff" points="2645.2,-86.2 2650.86,-77.24 2640.85,-80.72 2645.2,-86.2"/>
</a>
</g>
</g>
</g>
</svg>
