<?xml version="1.0" encoding="UTF-8" standalone="no"?>
<!DOCTYPE svg PUBLIC "-//W3C//DTD SVG 1.1//EN"
 "http://www.w3.org/Graphics/SVG/1.1/DTD/svg11.dtd">
<!-- Generated by graphviz version 9.0.0 (20230911.1827)
 -->
<!-- Title: src/Material.cpp Pages: 1 -->
<svg width="2887pt" height="420pt"
 viewBox="0.00 0.00 2886.75 420.00" xmlns="http://www.w3.org/2000/svg" xmlns:xlink="http://www.w3.org/1999/xlink">
<g id="graph0" class="graph" transform="scale(1 1) rotate(0) translate(4 416)">
<title>src/Material.cpp</title>
<!-- Node1 -->
<g id="Node000001" class="node">
<title>Node1</title>
<g id="a_Node000001"><a xlink:title=" ">
<polygon fill="#999999" stroke="#666666" points="2443.62,-412 2357.88,-412 2357.88,-392 2443.62,-392 2443.62,-412"/>
<text text-anchor="middle" x="2400.75" y="-398.5" font-family="Helvetica,sans-Serif" font-size="10.00">src/Material.cpp</text>
</a>
</g>
</g>
<!-- Node2 -->
<g id="Node000002" class="node">
<title>Node2</title>
<g id="a_Node000002"><a xlink:href="pch_8h.html" target="_top" xlink:title=" ">
<polygon fill="white" stroke="#666666" points="2396.75,-356 2356.75,-356 2356.75,-336 2396.75,-336 2396.75,-356"/>
<text text-anchor="middle" x="2376.75" y="-342.5" font-family="Helvetica,sans-Serif" font-size="10.00">pch.h</text>
</a>
</g>
</g>
<!-- Node1&#45;&gt;Node2 -->
<g id="edge1_Node000001_Node000002" class="edge">
<title>Node1&#45;&gt;Node2</title>
<g id="a_edge1_Node000001_Node000002"><a xlink:title=" ">
<path fill="none" stroke="#63b8ff" d="M2396.57,-391.59C2393.51,-384.7 2389.24,-375.1 2385.45,-366.57"/>
<polygon fill="#63b8ff" stroke="#63b8ff" points="2388.76,-365.4 2381.5,-357.68 2382.36,-368.24 2388.76,-365.4"/>
</a>
</g>
</g>
<!-- Node39 -->
<g id="Node000039" class="node">
<title>Node39</title>
<g id="a_Node000039"><a xlink:href="_material_8h.html" target="_top" xlink:title=" ">
<polygon fill="white" stroke="#666666" points="2720.12,-76 2661.38,-76 2661.38,-56 2720.12,-56 2720.12,-76"/>
<text text-anchor="middle" x="2690.75" y="-62.5" font-family="Helvetica,sans-Serif" font-size="10.00">Material.h</text>
</a>
</g>
</g>
<!-- Node1&#45;&gt;Node39 -->
<g id="edge62_Node000001_Node000039" class="edge">
<title>Node1&#45;&gt;Node39</title>
<g id="a_edge62_Node000001_Node000039"><a xlink:title=" ">
<path fill="none" stroke="#63b8ff" d="M2443.93,-398.91C2551.48,-392.52 2822.75,-368.7 2822.75,-291 2822.75,-291 2822.75,-291 2822.75,-177 2822.75,-128.33 2769.13,-97.01 2730.24,-80.7"/>
<polygon fill="#63b8ff" stroke="#63b8ff" points="2731.71,-77.52 2721.12,-77.06 2729.11,-84.02 2731.71,-77.52"/>
</a>
</g>
</g>
<!-- Node3 -->
<g id="Node000003" class="node">
<title>Node3</title>
<g id="a_Node000003"><a xlink:href="_game_engine_8h.html" target="_top" xlink:title=" ">
<polygon fill="white" stroke="#666666" points="2018,-300 1937.5,-300 1937.5,-280 2018,-280 2018,-300"/>
<text text-anchor="middle" x="1977.75" y="-286.5" font-family="Helvetica,sans-Serif" font-size="10.00">GameEngine.h</text>
</a>
</g>
</g>
<!-- Node2&#45;&gt;Node3 -->
<g id="edge2_Node000002_Node000003" class="edge">
<title>Node2&#45;&gt;Node3</title>
<g id="a_edge2_Node000002_Node000003"><a xlink:title=" ">
<path fill="none" stroke="#63b8ff" d="M2356.41,-342.25C2296.32,-334.11 2118.21,-310.01 2029.36,-297.98"/>
<polygon fill="#63b8ff" stroke="#63b8ff" points="2030.09,-294.55 2019.71,-296.68 2029.15,-301.49 2030.09,-294.55"/>
</a>
</g>
</g>
<!-- Node4 -->
<g id="Node000004" class="node">
<title>Node4</title>
<g id="a_Node000004"><a xlink:title=" ">
<polygon fill="#e0e0e0" stroke="#999999" points="2564.62,-244 2484.88,-244 2484.88,-224 2564.62,-224 2564.62,-244"/>
<text text-anchor="middle" x="2524.75" y="-230.5" font-family="Helvetica,sans-Serif" font-size="10.00">SDKDDKVer.h</text>
</a>
</g>
</g>
<!-- Node3&#45;&gt;Node4 -->
<g id="edge3_Node000003_Node000004" class="edge">
<title>Node3&#45;&gt;Node4</title>
<g id="a_edge3_Node000003_Node000004"><a xlink:title=" ">
<path fill="none" stroke="#63b8ff" d="M2018.24,-286.6C2101.48,-281.4 2298.04,-267.73 2473.18,-244.23"/>
<polygon fill="#63b8ff" stroke="#63b8ff" points="2473.48,-247.73 2482.92,-242.91 2472.54,-240.79 2473.48,-247.73"/>
</a>
</g>
</g>
<!-- Node5 -->
<g id="Node000005" class="node">
<title>Node5</title>
<g id="a_Node000005"><a xlink:title=" ">
<polygon fill="#e0e0e0" stroke="#999999" points="2756.25,-244 2695.25,-244 2695.25,-224 2756.25,-224 2756.25,-244"/>
<text text-anchor="middle" x="2725.75" y="-230.5" font-family="Helvetica,sans-Serif" font-size="10.00">windows.h</text>
</a>
</g>
</g>
<!-- Node3&#45;&gt;Node5 -->
<g id="edge4_Node000003_Node000005" class="edge">
<title>Node3&#45;&gt;Node5</title>
<g id="a_edge4_Node000003_Node000005"><a xlink:title=" ">
<path fill="none" stroke="#63b8ff" d="M2018.35,-288.29C2126.5,-286 2430.36,-276.9 2680.75,-244 2681.75,-243.87 2682.77,-243.73 2683.79,-243.58"/>
<polygon fill="#63b8ff" stroke="#63b8ff" points="2684.07,-247.08 2693.36,-241.99 2682.92,-240.17 2684.07,-247.08"/>
</a>
</g>
</g>
<!-- Node6 -->
<g id="Node000006" class="node">
<title>Node6</title>
<g id="a_Node000006"><a xlink:title=" ">
<polygon fill="#e0e0e0" stroke="#999999" points="47.5,-244 0,-244 0,-224 47.5,-224 47.5,-244"/>
<text text-anchor="middle" x="23.75" y="-230.5" font-family="Helvetica,sans-Serif" font-size="10.00">stdlib.h</text>
</a>
</g>
</g>
<!-- Node3&#45;&gt;Node6 -->
<g id="edge5_Node000003_Node000006" class="edge">
<title>Node3&#45;&gt;Node6</title>
<g id="a_edge5_Node000003_Node000006"><a xlink:title=" ">
<path fill="none" stroke="#63b8ff" d="M1937.01,-288.64C1680.93,-286.3 297.09,-272.47 59.12,-243.78"/>
<polygon fill="#63b8ff" stroke="#63b8ff" points="59.63,-240.32 49.26,-242.47 58.71,-247.26 59.63,-240.32"/>
</a>
</g>
</g>
<!-- Node7 -->
<g id="Node000007" class="node">
<title>Node7</title>
<g id="a_Node000007"><a xlink:title=" ">
<polygon fill="#e0e0e0" stroke="#999999" points="118.12,-244 65.38,-244 65.38,-224 118.12,-224 118.12,-244"/>
<text text-anchor="middle" x="91.75" y="-230.5" font-family="Helvetica,sans-Serif" font-size="10.00">malloc.h</text>
</a>
</g>
</g>
<!-- Node3&#45;&gt;Node7 -->
<g id="edge6_Node000003_Node000007" class="edge">
<title>Node3&#45;&gt;Node7</title>
<g id="a_edge6_Node000003_Node000007"><a xlink:title=" ">
<path fill="none" stroke="#63b8ff" d="M1937.23,-289.27C1702.78,-290.62 517.18,-294.88 129.61,-244.03"/>
<polygon fill="#63b8ff" stroke="#63b8ff" points="130.26,-240.59 119.88,-242.72 129.32,-247.53 130.26,-240.59"/>
</a>
</g>
</g>
<!-- Node8 -->
<g id="Node000008" class="node">
<title>Node8</title>
<g id="a_Node000008"><a xlink:title=" ">
<polygon fill="#e0e0e0" stroke="#999999" points="195.5,-244 136,-244 136,-224 195.5,-224 195.5,-244"/>
<text text-anchor="middle" x="165.75" y="-230.5" font-family="Helvetica,sans-Serif" font-size="10.00">memory.h</text>
</a>
</g>
</g>
<!-- Node3&#45;&gt;Node8 -->
<g id="edge7_Node000003_Node000008" class="edge">
<title>Node3&#45;&gt;Node8</title>
<g id="a_edge7_Node000003_Node000008"><a xlink:title=" ">
<path fill="none" stroke="#63b8ff" d="M1937.09,-289.08C1708.37,-289.36 579.34,-288.52 207.2,-243.98"/>
<polygon fill="#63b8ff" stroke="#63b8ff" points="207.73,-240.52 197.38,-242.77 206.87,-247.47 207.73,-240.52"/>
</a>
</g>
</g>
<!-- Node9 -->
<g id="Node000009" class="node">
<title>Node9</title>
<g id="a_Node000009"><a xlink:title=" ">
<polygon fill="#e0e0e0" stroke="#999999" points="259.75,-244 213.75,-244 213.75,-224 259.75,-224 259.75,-244"/>
<text text-anchor="middle" x="236.75" y="-230.5" font-family="Helvetica,sans-Serif" font-size="10.00">tchar.h</text>
</a>
</g>
</g>
<!-- Node3&#45;&gt;Node9 -->
<g id="edge8_Node000003_Node000009" class="edge">
<title>Node3&#45;&gt;Node9</title>
<g id="a_edge8_Node000003_Node000009"><a xlink:title=" ">
<path fill="none" stroke="#63b8ff" d="M1937.28,-288.54C1699.34,-285.72 485.8,-270.27 271.37,-243.82"/>
<polygon fill="#63b8ff" stroke="#63b8ff" points="271.9,-240.36 261.52,-242.47 270.95,-247.29 271.9,-240.36"/>
</a>
</g>
</g>
<!-- Node10 -->
<g id="Node000010" class="node">
<title>Node10</title>
<g id="a_Node000010"><a xlink:title=" ">
<polygon fill="#e0e0e0" stroke="#999999" points="339.62,-244 277.88,-244 277.88,-224 339.62,-224 339.62,-244"/>
<text text-anchor="middle" x="308.75" y="-230.5" font-family="Helvetica,sans-Serif" font-size="10.00">resource.h</text>
</a>
</g>
</g>
<!-- Node3&#45;&gt;Node10 -->
<g id="edge9_Node000003_Node000010" class="edge">
<title>Node3&#45;&gt;Node10</title>
<g id="a_edge9_Node000003_Node000010"><a xlink:title=" ">
<path fill="none" stroke="#63b8ff" d="M1937.22,-288.94C1720.23,-288.49 693.27,-284.27 351.47,-244.04"/>
<polygon fill="#63b8ff" stroke="#63b8ff" points="351.94,-240.57 341.59,-242.84 351.1,-247.52 351.94,-240.57"/>
</a>
</g>
</g>
<!-- Node11 -->
<g id="Node000011" class="node">
<title>Node11</title>
<g id="a_Node000011"><a xlink:title=" ">
<polygon fill="#e0e0e0" stroke="#999999" points="403.38,-244 358.12,-244 358.12,-224 403.38,-224 403.38,-244"/>
<text text-anchor="middle" x="380.75" y="-230.5" font-family="Helvetica,sans-Serif" font-size="10.00">chrono</text>
</a>
</g>
</g>
<!-- Node3&#45;&gt;Node11 -->
<g id="edge10_Node000003_Node000011" class="edge">
<title>Node3&#45;&gt;Node11</title>
<g id="a_edge10_Node000003_Node000011"><a xlink:title=" ">
<path fill="none" stroke="#63b8ff" d="M1937.35,-289.22C1725.64,-290.19 741.84,-292.07 414.97,-244.07"/>
<polygon fill="#63b8ff" stroke="#63b8ff" points="415.54,-240.62 405.12,-242.57 414.48,-247.54 415.54,-240.62"/>
</a>
</g>
</g>
<!-- Node12 -->
<g id="Node000012" class="node">
<title>Node12</title>
<g id="a_Node000012"><a xlink:title=" ">
<polygon fill="#e0e0e0" stroke="#999999" points="462.5,-244 421,-244 421,-224 462.5,-224 462.5,-244"/>
<text text-anchor="middle" x="441.75" y="-230.5" font-family="Helvetica,sans-Serif" font-size="10.00">vector</text>
</a>
</g>
</g>
<!-- Node3&#45;&gt;Node12 -->
<g id="edge11_Node000003_Node000012" class="edge">
<title>Node3&#45;&gt;Node12</title>
<g id="a_edge11_Node000003_Node000012"><a xlink:title=" ">
<path fill="none" stroke="#63b8ff" d="M1937.18,-289.22C1730,-290.12 788.06,-291.59 473.81,-243.81"/>
<polygon fill="#63b8ff" stroke="#63b8ff" points="474.81,-240.43 464.39,-242.33 473.72,-247.34 474.81,-240.43"/>
</a>
</g>
</g>
<!-- Node13 -->
<g id="Node000013" class="node">
<title>Node13</title>
<g id="a_Node000013"><a xlink:title=" ">
<polygon fill="#e0e0e0" stroke="#999999" points="534.5,-244 481,-244 481,-224 534.5,-224 534.5,-244"/>
<text text-anchor="middle" x="507.75" y="-230.5" font-family="Helvetica,sans-Serif" font-size="10.00">iostream</text>
</a>
</g>
</g>
<!-- Node3&#45;&gt;Node13 -->
<g id="edge12_Node000003_Node000013" class="edge">
<title>Node3&#45;&gt;Node13</title>
<g id="a_edge12_Node000003_Node000013"><a xlink:title=" ">
<path fill="none" stroke="#63b8ff" d="M1937.16,-288.9C1736.28,-288.21 846.6,-283.05 546.05,-243.93"/>
<polygon fill="#63b8ff" stroke="#63b8ff" points="546.63,-240.48 536.26,-242.61 545.7,-247.42 546.63,-240.48"/>
</a>
</g>
</g>
<!-- Node14 -->
<g id="Node000014" class="node">
<title>Node14</title>
<g id="a_Node000014"><a xlink:title=" ">
<polygon fill="#e0e0e0" stroke="#999999" points="600.88,-244 552.62,-244 552.62,-224 600.88,-224 600.88,-244"/>
<text text-anchor="middle" x="576.75" y="-230.5" font-family="Helvetica,sans-Serif" font-size="10.00">fstream</text>
</a>
</g>
</g>
<!-- Node3&#45;&gt;Node14 -->
<g id="edge13_Node000003_Node000014" class="edge">
<title>Node3&#45;&gt;Node14</title>
<g id="a_edge13_Node000003_Node000014"><a xlink:title=" ">
<path fill="none" stroke="#63b8ff" d="M1937.06,-288.94C1741.71,-288.46 898.08,-284.15 612.28,-243.96"/>
<polygon fill="#63b8ff" stroke="#63b8ff" points="613.02,-240.53 602.62,-242.55 612.01,-247.46 613.02,-240.53"/>
</a>
</g>
</g>
<!-- Node15 -->
<g id="Node000015" class="node">
<title>Node15</title>
<g id="a_Node000015"><a xlink:title=" ">
<polygon fill="#e0e0e0" stroke="#999999" points="678.88,-244 618.62,-244 618.62,-224 678.88,-224 678.88,-244"/>
<text text-anchor="middle" x="648.75" y="-230.5" font-family="Helvetica,sans-Serif" font-size="10.00">filesystem</text>
</a>
</g>
</g>
<!-- Node3&#45;&gt;Node15 -->
<g id="edge14_Node000003_Node000015" class="edge">
<title>Node3&#45;&gt;Node15</title>
<g id="a_edge14_Node000003_Node000015"><a xlink:title=" ">
<path fill="none" stroke="#63b8ff" d="M1937.22,-288.63C1749.27,-286.78 960.76,-277.2 690.62,-244.08"/>
<polygon fill="#63b8ff" stroke="#63b8ff" points="691.17,-240.62 680.81,-242.83 690.28,-247.56 691.17,-240.62"/>
</a>
</g>
</g>
<!-- Node16 -->
<g id="Node000016" class="node">
<title>Node16</title>
<g id="a_Node000016"><a xlink:title=" ">
<polygon fill="#e0e0e0" stroke="#999999" points="748.38,-244 697.12,-244 697.12,-224 748.38,-224 748.38,-244"/>
<text text-anchor="middle" x="722.75" y="-230.5" font-family="Helvetica,sans-Serif" font-size="10.00">sstream</text>
</a>
</g>
</g>
<!-- Node3&#45;&gt;Node16 -->
<g id="edge15_Node000003_Node000016" class="edge">
<title>Node3&#45;&gt;Node16</title>
<g id="a_edge15_Node000003_Node000016"><a xlink:title=" ">
<path fill="none" stroke="#63b8ff" d="M1937.27,-288.67C1755.78,-287.04 1015.2,-278.45 759.69,-243.87"/>
<polygon fill="#63b8ff" stroke="#63b8ff" points="760.51,-240.45 750.12,-242.52 759.53,-247.38 760.51,-240.45"/>
</a>
</g>
</g>
<!-- Node17 -->
<g id="Node000017" class="node">
<title>Node17</title>
<g id="a_Node000017"><a xlink:title=" ">
<polygon fill="#e0e0e0" stroke="#999999" points="849.12,-244 766.38,-244 766.38,-224 849.12,-224 849.12,-244"/>
<text text-anchor="middle" x="807.75" y="-230.5" font-family="Helvetica,sans-Serif" font-size="10.00">unordered_map</text>
</a>
</g>
</g>
<!-- Node3&#45;&gt;Node17 -->
<g id="edge16_Node000003_Node000017" class="edge">
<title>Node3&#45;&gt;Node17</title>
<g id="a_edge16_Node000003_Node000017"><a xlink:title=" ">
<path fill="none" stroke="#63b8ff" d="M1937.21,-289.33C1792.46,-290.11 1287.45,-289.28 860.76,-244.04"/>
<polygon fill="#63b8ff" stroke="#63b8ff" points="861.25,-240.57 850.94,-242.99 860.51,-247.53 861.25,-240.57"/>
</a>
</g>
</g>
<!-- Node18 -->
<g id="Node000018" class="node">
<title>Node18</title>
<g id="a_Node000018"><a xlink:title=" ">
<polygon fill="#e0e0e0" stroke="#999999" points="972,-244 867.5,-244 867.5,-224 972,-224 972,-244"/>
<text text-anchor="middle" x="919.75" y="-230.5" font-family="Helvetica,sans-Serif" font-size="10.00">assimp/Importer.hpp</text>
</a>
</g>
</g>
<!-- Node3&#45;&gt;Node18 -->
<g id="edge17_Node000003_Node000018" class="edge">
<title>Node3&#45;&gt;Node18</title>
<g id="a_edge17_Node000003_Node000018"><a xlink:title=" ">
<path fill="none" stroke="#63b8ff" d="M1937.28,-288.64C1803.06,-287.15 1360.12,-279.74 983.68,-244.18"/>
<polygon fill="#63b8ff" stroke="#63b8ff" points="984.08,-240.7 973.79,-243.24 983.41,-247.67 984.08,-240.7"/>
</a>
</g>
</g>
<!-- Node19 -->
<g id="Node000019" class="node">
<title>Node19</title>
<g id="a_Node000019"><a xlink:title=" ">
<polygon fill="#e0e0e0" stroke="#999999" points="1075.25,-244 990.25,-244 990.25,-224 1075.25,-224 1075.25,-244"/>
<text text-anchor="middle" x="1032.75" y="-230.5" font-family="Helvetica,sans-Serif" font-size="10.00">assimp/scene.h</text>
</a>
</g>
</g>
<!-- Node3&#45;&gt;Node19 -->
<g id="edge18_Node000003_Node000019" class="edge">
<title>Node3&#45;&gt;Node19</title>
<g id="a_edge18_Node000003_Node000019"><a xlink:title=" ">
<path fill="none" stroke="#63b8ff" d="M1937.11,-288.7C1811.95,-287.41 1421.12,-280.61 1086.91,-244.08"/>
<polygon fill="#63b8ff" stroke="#63b8ff" points="1087.37,-240.61 1077.04,-242.99 1086.6,-247.57 1087.37,-240.61"/>
</a>
</g>
</g>
<!-- Node20 -->
<g id="Node000020" class="node">
<title>Node20</title>
<g id="a_Node000020"><a xlink:title=" ">
<polygon fill="#e0e0e0" stroke="#999999" points="1205.75,-244 1093.75,-244 1093.75,-224 1205.75,-224 1205.75,-244"/>
<text text-anchor="middle" x="1149.75" y="-230.5" font-family="Helvetica,sans-Serif" font-size="10.00">assimp/postprocess.h</text>
</a>
</g>
</g>
<!-- Node3&#45;&gt;Node20 -->
<g id="edge19_Node000003_Node000020" class="edge">
<title>Node3&#45;&gt;Node20</title>
<g id="a_edge19_Node000003_Node000020"><a xlink:title=" ">
<path fill="none" stroke="#63b8ff" d="M1937.13,-287.73C1824.55,-283.97 1498.83,-271.47 1217.35,-244.18"/>
<polygon fill="#63b8ff" stroke="#63b8ff" points="1217.89,-240.72 1207.59,-243.22 1217.21,-247.68 1217.89,-240.72"/>
</a>
</g>
</g>
<!-- Node21 -->
<g id="Node000021" class="node">
<title>Node21</title>
<g id="a_Node000021"><a xlink:title=" ">
<polygon fill="#e0e0e0" stroke="#999999" points="1369.25,-244 1224.25,-244 1224.25,-224 1369.25,-224 1369.25,-244"/>
<text text-anchor="middle" x="1296.75" y="-230.5" font-family="Helvetica,sans-Serif" font-size="10.00">directxtk\WICTextureLoader.h</text>
</a>
</g>
</g>
<!-- Node3&#45;&gt;Node21 -->
<g id="edge20_Node000003_Node000021" class="edge">
<title>Node3&#45;&gt;Node21</title>
<g id="a_edge20_Node000003_Node000021"><a xlink:title=" ">
<path fill="none" stroke="#63b8ff" d="M1937.04,-286.43C1841.85,-280.3 1597.07,-263.96 1380.87,-244.16"/>
<polygon fill="#63b8ff" stroke="#63b8ff" points="1381.4,-240.7 1371.12,-243.27 1380.76,-247.67 1381.4,-240.7"/>
</a>
</g>
</g>
<!-- Node22 -->
<g id="Node000022" class="node">
<title>Node22</title>
<g id="a_Node000022"><a xlink:title=" ">
<polygon fill="#e0e0e0" stroke="#999999" points="1452.12,-244 1387.38,-244 1387.38,-224 1452.12,-224 1452.12,-244"/>
<text text-anchor="middle" x="1419.75" y="-230.5" font-family="Helvetica,sans-Serif" font-size="10.00">wincodec.h</text>
</a>
</g>
</g>
<!-- Node3&#45;&gt;Node22 -->
<g id="edge21_Node000003_Node000022" class="edge">
<title>Node3&#45;&gt;Node22</title>
<g id="a_edge21_Node000003_Node000022"><a xlink:title=" ">
<path fill="none" stroke="#63b8ff" d="M1937.32,-287.26C1851.68,-283.2 1645.57,-271.4 1463.48,-244.24"/>
<polygon fill="#63b8ff" stroke="#63b8ff" points="1464.26,-240.82 1453.85,-242.78 1463.21,-247.74 1464.26,-240.82"/>
</a>
</g>
</g>
<!-- Node23 -->
<g id="Node000023" class="node">
<title>Node23</title>
<g id="a_Node000023"><a xlink:title=" ">
<polygon fill="#e0e0e0" stroke="#999999" points="1527.75,-244 1469.75,-244 1469.75,-224 1527.75,-224 1527.75,-244"/>
<text text-anchor="middle" x="1498.75" y="-230.5" font-family="Helvetica,sans-Serif" font-size="10.00">lodepng.h</text>
</a>
</g>
</g>
<!-- Node3&#45;&gt;Node23 -->
<g id="edge22_Node000003_Node000023" class="edge">
<title>Node3&#45;&gt;Node23</title>
<g id="a_edge22_Node000003_Node000023"><a xlink:title=" ">
<path fill="none" stroke="#63b8ff" d="M1937.08,-286.64C1860.86,-281.82 1691.22,-269.28 1539.06,-244.19"/>
<polygon fill="#63b8ff" stroke="#63b8ff" points="1540.06,-240.81 1529.62,-242.61 1538.91,-247.71 1540.06,-240.81"/>
</a>
</g>
</g>
<!-- Node24 -->
<g id="Node000024" class="node">
<title>Node24</title>
<g id="a_Node000024"><a xlink:title=" ">
<polygon fill="#e0e0e0" stroke="#999999" points="1596,-244 1545.5,-244 1545.5,-224 1596,-224 1596,-244"/>
<text text-anchor="middle" x="1570.75" y="-230.5" font-family="Helvetica,sans-Serif" font-size="10.00">d3d11.h</text>
</a>
</g>
</g>
<!-- Node3&#45;&gt;Node24 -->
<g id="edge23_Node000003_Node000024" class="edge">
<title>Node3&#45;&gt;Node24</title>
<g id="a_edge23_Node000003_Node000024"><a xlink:title=" ">
<path fill="none" stroke="#63b8ff" d="M1937.02,-285.84C1870.25,-280.27 1733.19,-267.24 1607.26,-244.03"/>
<polygon fill="#63b8ff" stroke="#63b8ff" points="1608.24,-240.65 1597.77,-242.26 1606.95,-247.54 1608.24,-240.65"/>
</a>
</g>
</g>
<!-- Node25 -->
<g id="Node000025" class="node">
<title>Node25</title>
<g id="a_Node000025"><a xlink:title=" ">
<polygon fill="#e0e0e0" stroke="#999999" points="1691.12,-244 1614.38,-244 1614.38,-224 1691.12,-224 1691.12,-244"/>
<text text-anchor="middle" x="1652.75" y="-230.5" font-family="Helvetica,sans-Serif" font-size="10.00">DirectXMath.h</text>
</a>
</g>
</g>
<!-- Node3&#45;&gt;Node25 -->
<g id="edge24_Node000003_Node000025" class="edge">
<title>Node3&#45;&gt;Node25</title>
<g id="a_edge24_Node000003_Node000025"><a xlink:title=" ">
<path fill="none" stroke="#63b8ff" d="M1937.17,-282.81C1885.15,-274.78 1791.86,-260.12 1702.61,-244.47"/>
<polygon fill="#63b8ff" stroke="#63b8ff" points="1703.41,-241.05 1692.95,-242.77 1702.19,-247.95 1703.41,-241.05"/>
</a>
</g>
</g>
<!-- Node26 -->
<g id="Node000026" class="node">
<title>Node26</title>
<g id="a_Node000026"><a xlink:title=" ">
<polygon fill="#e0e0e0" stroke="#999999" points="1788.62,-244 1708.88,-244 1708.88,-224 1788.62,-224 1788.62,-244"/>
<text text-anchor="middle" x="1748.75" y="-230.5" font-family="Helvetica,sans-Serif" font-size="10.00">D3Dcompiler.h</text>
</a>
</g>
</g>
<!-- Node3&#45;&gt;Node26 -->
<g id="edge25_Node000003_Node000026" class="edge">
<title>Node3&#45;&gt;Node26</title>
<g id="a_edge25_Node000003_Node000026"><a xlink:title=" ">
<path fill="none" stroke="#63b8ff" d="M1937.6,-279.53C1899.29,-270.5 1841.43,-256.85 1799.85,-247.05"/>
<polygon fill="#63b8ff" stroke="#63b8ff" points="1800.86,-243.69 1790.33,-244.8 1799.26,-250.51 1800.86,-243.69"/>
</a>
</g>
</g>
<!-- Node27 -->
<g id="Node000027" class="node">
<title>Node27</title>
<g id="a_Node000027"><a xlink:title=" ">
<polygon fill="#e0e0e0" stroke="#999999" points="1862.62,-244 1806.88,-244 1806.88,-224 1862.62,-224 1862.62,-244"/>
<text text-anchor="middle" x="1834.75" y="-230.5" font-family="Helvetica,sans-Serif" font-size="10.00">d2d1_2.h</text>
</a>
</g>
</g>
<!-- Node3&#45;&gt;Node27 -->
<g id="edge26_Node000003_Node000027" class="edge">
<title>Node3&#45;&gt;Node27</title>
<g id="a_edge26_Node000003_Node000027"><a xlink:title=" ">
<path fill="none" stroke="#63b8ff" d="M1952.84,-279.59C1930.02,-270.97 1895.97,-258.12 1870.29,-248.42"/>
<polygon fill="#63b8ff" stroke="#63b8ff" points="1871.86,-245.27 1861.27,-245.01 1869.39,-251.82 1871.86,-245.27"/>
</a>
</g>
</g>
<!-- Node28 -->
<g id="Node000028" class="node">
<title>Node28</title>
<g id="a_Node000028"><a xlink:title=" ">
<polygon fill="#e0e0e0" stroke="#999999" points="1936.62,-244 1880.88,-244 1880.88,-224 1936.62,-224 1936.62,-244"/>
<text text-anchor="middle" x="1908.75" y="-230.5" font-family="Helvetica,sans-Serif" font-size="10.00">d2d1_1.h</text>
</a>
</g>
</g>
<!-- Node3&#45;&gt;Node28 -->
<g id="edge27_Node000003_Node000028" class="edge">
<title>Node3&#45;&gt;Node28</title>
<g id="a_edge27_Node000003_Node000028"><a xlink:title=" ">
<path fill="none" stroke="#63b8ff" d="M1965.73,-279.59C1955.74,-271.77 1941.29,-260.46 1929.44,-251.19"/>
<polygon fill="#63b8ff" stroke="#63b8ff" points="1931.86,-248.64 1921.82,-245.23 1927.54,-254.15 1931.86,-248.64"/>
</a>
</g>
</g>
<!-- Node29 -->
<g id="Node000029" class="node">
<title>Node29</title>
<g id="a_Node000029"><a xlink:title=" ">
<polygon fill="#e0e0e0" stroke="#999999" points="2000.38,-244 1955.12,-244 1955.12,-224 2000.38,-224 2000.38,-244"/>
<text text-anchor="middle" x="1977.75" y="-230.5" font-family="Helvetica,sans-Serif" font-size="10.00">d2d1.h</text>
</a>
</g>
</g>
<!-- Node3&#45;&gt;Node29 -->
<g id="edge28_Node000003_Node000029" class="edge">
<title>Node3&#45;&gt;Node29</title>
<g id="a_edge28_Node000003_Node000029"><a xlink:title=" ">
<path fill="none" stroke="#63b8ff" d="M1977.75,-279.59C1977.75,-273.01 1977.75,-263.96 1977.75,-255.73"/>
<polygon fill="#63b8ff" stroke="#63b8ff" points="1981.25,-255.81 1977.75,-245.81 1974.25,-255.81 1981.25,-255.81"/>
</a>
</g>
</g>
<!-- Node30 -->
<g id="Node000030" class="node">
<title>Node30</title>
<g id="a_Node000030"><a xlink:title=" ">
<polygon fill="#e0e0e0" stroke="#999999" points="2068.62,-244 2018.88,-244 2018.88,-224 2068.62,-224 2068.62,-244"/>
<text text-anchor="middle" x="2043.75" y="-230.5" font-family="Helvetica,sans-Serif" font-size="10.00">dwrite.h</text>
</a>
</g>
</g>
<!-- Node3&#45;&gt;Node30 -->
<g id="edge29_Node000003_Node000030" class="edge">
<title>Node3&#45;&gt;Node30</title>
<g id="a_edge29_Node000003_Node000030"><a xlink:title=" ">
<path fill="none" stroke="#63b8ff" d="M1989.25,-279.59C1998.71,-271.85 2012.35,-260.69 2023.62,-251.47"/>
<polygon fill="#63b8ff" stroke="#63b8ff" points="2025.69,-254.3 2031.21,-245.26 2021.26,-248.88 2025.69,-254.3"/>
</a>
</g>
</g>
<!-- Node31 -->
<g id="Node000031" class="node">
<title>Node31</title>
<g id="a_Node000031"><a xlink:href="_win32_application_8h.html" target="_top" xlink:title=" ">
<polygon fill="white" stroke="#666666" points="2466.75,-244 2366.75,-244 2366.75,-224 2466.75,-224 2466.75,-244"/>
<text text-anchor="middle" x="2416.75" y="-230.5" font-family="Helvetica,sans-Serif" font-size="10.00">Win32Application.h</text>
</a>
</g>
</g>
<!-- Node3&#45;&gt;Node31 -->
<g id="edge30_Node000003_Node000031" class="edge">
<title>Node3&#45;&gt;Node31</title>
<g id="a_edge30_Node000003_Node000031"><a xlink:title=" ">
<path fill="none" stroke="#63b8ff" d="M2018.49,-283.73C2086.18,-275.61 2225.57,-259.4 2343.75,-244 2347.37,-243.53 2351.1,-243.03 2354.87,-242.52"/>
<polygon fill="#63b8ff" stroke="#63b8ff" points="2355.32,-246 2364.76,-241.18 2354.38,-239.06 2355.32,-246"/>
</a>
</g>
</g>
<!-- Node32 -->
<g id="Node000032" class="node">
<title>Node32</title>
<g id="a_Node000032"><a xlink:href="_direct_x_manager_8h.html" target="_top" xlink:title=" ">
<polygon fill="white" stroke="#666666" points="2435,-188 2342.5,-188 2342.5,-168 2435,-168 2435,-188"/>
<text text-anchor="middle" x="2388.75" y="-174.5" font-family="Helvetica,sans-Serif" font-size="10.00">DirectXManager.h</text>
</a>
</g>
</g>
<!-- Node3&#45;&gt;Node32 -->
<g id="edge54_Node000003_Node000032" class="edge">
<title>Node3&#45;&gt;Node32</title>
<g id="a_edge54_Node000003_Node000032"><a xlink:title=" ">
<path fill="none" stroke="#63b8ff" d="M2018.34,-289.21C2079.12,-288 2195.99,-280.4 2287.75,-244 2316.5,-232.6 2344.83,-210.48 2364.42,-195.24"/>
<polygon fill="#63b8ff" stroke="#63b8ff" points="2366.32,-198.19 2372.09,-189.31 2362.04,-192.65 2366.32,-198.19"/>
</a>
</g>
</g>
<!-- Node33 -->
<g id="Node000033" class="node">
<title>Node33</title>
<g id="a_Node000033"><a xlink:href="_camera_8h.html" target="_top" xlink:title=" ">
<polygon fill="white" stroke="#666666" points="2256.75,-132 2198.75,-132 2198.75,-112 2256.75,-112 2256.75,-132"/>
<text text-anchor="middle" x="2227.75" y="-118.5" font-family="Helvetica,sans-Serif" font-size="10.00">Camera.h</text>
</a>
</g>
</g>
<!-- Node3&#45;&gt;Node33 -->
<g id="edge55_Node000003_Node000033" class="edge">
<title>Node3&#45;&gt;Node33</title>
<g id="a_edge55_Node000003_Node000033"><a xlink:title=" ">
<path fill="none" stroke="#63b8ff" d="M2018.28,-284.11C2069.19,-277.64 2152.35,-264.59 2175.75,-244 2205.22,-218.06 2214.5,-170.55 2220.34,-143.42"/>
<polygon fill="#63b8ff" stroke="#63b8ff" points="2223.74,-144.24 2222.59,-133.7 2216.92,-142.66 2223.74,-144.24"/>
</a>
</g>
</g>
<!-- Node34 -->
<g id="Node000034" class="node">
<title>Node34</title>
<g id="a_Node000034"><a xlink:href="_graphics_device_8h.html" target="_top" xlink:title=" ">
<polygon fill="white" stroke="#666666" points="2289.62,-76 2197.88,-76 2197.88,-56 2289.62,-56 2289.62,-76"/>
<text text-anchor="middle" x="2243.75" y="-62.5" font-family="Helvetica,sans-Serif" font-size="10.00">GraphicsDevice.h</text>
</a>
</g>
</g>
<!-- Node3&#45;&gt;Node34 -->
<g id="edge56_Node000003_Node000034" class="edge">
<title>Node3&#45;&gt;Node34</title>
<g id="a_edge56_Node000003_Node000034"><a xlink:title=" ">
<path fill="none" stroke="#63b8ff" d="M2018.31,-284.94C2049.26,-279.94 2091.11,-268.8 2119.75,-244 2168.6,-201.69 2141.41,-163.27 2180.75,-112 2189.31,-100.84 2201.11,-90.61 2212.31,-82.73"/>
<polygon fill="#63b8ff" stroke="#63b8ff" points="2214.19,-85.69 2220.64,-77.28 2210.36,-79.83 2214.19,-85.69"/>
</a>
</g>
</g>
<!-- Node35 -->
<g id="Node000035" class="node">
<title>Node35</title>
<g id="a_Node000035"><a xlink:href="_mesh_8h.html" target="_top" xlink:title=" ">
<polygon fill="white" stroke="#666666" points="2322.88,-132 2274.62,-132 2274.62,-112 2322.88,-112 2322.88,-132"/>
<text text-anchor="middle" x="2298.75" y="-118.5" font-family="Helvetica,sans-Serif" font-size="10.00">Mesh.h</text>
</a>
</g>
</g>
<!-- Node3&#45;&gt;Node35 -->
<g id="edge58_Node000003_Node000035" class="edge">
<title>Node3&#45;&gt;Node35</title>
<g id="a_edge58_Node000003_Node000035"><a xlink:title=" ">
<path fill="none" stroke="#63b8ff" d="M2018.28,-284.43C2075.46,-277.83 2175.85,-264.17 2206.75,-244 2245,-219.04 2270.38,-169.69 2285.25,-142.36"/>
<polygon fill="#63b8ff" stroke="#63b8ff" points="2288.24,-144.19 2290.07,-133.75 2282.13,-140.77 2288.24,-144.19"/>
</a>
</g>
</g>
<!-- Node36 -->
<g id="Node000036" class="node">
<title>Node36</title>
<g id="a_Node000036"><a xlink:href="_render_state_8h.html" target="_top" xlink:title=" ">
<polygon fill="white" stroke="#666666" points="2286.88,-20 2208.62,-20 2208.62,0 2286.88,0 2286.88,-20"/>
<text text-anchor="middle" x="2247.75" y="-6.5" font-family="Helvetica,sans-Serif" font-size="10.00">RenderState.h</text>
</a>
</g>
</g>
<!-- Node3&#45;&gt;Node36 -->
<g id="edge60_Node000003_Node000036" class="edge">
<title>Node3&#45;&gt;Node36</title>
<g id="a_edge60_Node000003_Node000036"><a xlink:title=" ">
<path fill="none" stroke="#63b8ff" d="M2007.06,-279.53C2026.66,-272.62 2051.66,-261.37 2068.75,-244 2090.81,-221.58 2096.75,-210.46 2096.75,-179 2096.75,-179 2096.75,-179 2096.75,-121 2096.75,-70.4 2153.79,-39.76 2197.86,-24.1"/>
<polygon fill="#63b8ff" stroke="#63b8ff" points="2198.94,-27.42 2207.31,-20.92 2196.71,-20.79 2198.94,-27.42"/>
</a>
</g>
</g>
<!-- Node37 -->
<g id="Node000037" class="node">
<title>Node37</title>
<g id="a_Node000037"><a xlink:href="_shader_program_8h.html" target="_top" xlink:title=" ">
<polygon fill="white" stroke="#666666" points="2825.62,-20 2733.88,-20 2733.88,0 2825.62,0 2825.62,-20"/>
<text text-anchor="middle" x="2779.75" y="-6.5" font-family="Helvetica,sans-Serif" font-size="10.00">ShaderProgram.h</text>
</a>
</g>
</g>
<!-- Node3&#45;&gt;Node37 -->
<g id="edge61_Node000003_Node000037" class="edge">
<title>Node3&#45;&gt;Node37</title>
<g id="a_edge61_Node000003_Node000037"><a xlink:title=" ">
<path fill="none" stroke="#63b8ff" d="M2018.42,-288.05C2171.09,-284.46 2704.15,-270.48 2775.75,-244 2820.35,-227.5 2860.75,-226.56 2860.75,-179 2860.75,-179 2860.75,-179 2860.75,-121 2860.75,-80.23 2823.26,-46.26 2799.09,-27.3"/>
<polygon fill="#63b8ff" stroke="#63b8ff" points="2801.26,-24.56 2791.19,-21.26 2797.01,-30.12 2801.26,-24.56"/>
</a>
</g>
</g>
<!-- Node3&#45;&gt;Node39 -->
<g id="edge57_Node000003_Node000039" class="edge">
<title>Node3&#45;&gt;Node39</title>
<g id="a_edge57_Node000003_Node000039"><a xlink:title=" ">
<path fill="none" stroke="#63b8ff" d="M2018.46,-288.21C2147.85,-285.5 2543.32,-274.95 2591.75,-244 2648.1,-207.98 2670.73,-124.9 2682.3,-86.78"/>
<polygon fill="#63b8ff" stroke="#63b8ff" points="2685.55,-88.13 2685.24,-77.54 2678.88,-86.01 2685.55,-88.13"/>
</a>
</g>
</g>
<!-- Node40 -->
<g id="Node000040" class="node">
<title>Node40</title>
<g id="a_Node000040"><a xlink:href="_model_8h.html" target="_top" xlink:title=" ">
<polygon fill="white" stroke="#666666" points="2543,-132 2492.5,-132 2492.5,-112 2543,-112 2543,-132"/>
<text text-anchor="middle" x="2517.75" y="-118.5" font-family="Helvetica,sans-Serif" font-size="10.00">Model.h</text>
</a>
</g>
</g>
<!-- Node3&#45;&gt;Node40 -->
<g id="edge59_Node000003_Node000040" class="edge">
<title>Node3&#45;&gt;Node40</title>
<g id="a_edge59_Node000003_Node000040"><a xlink:title=" ">
<path fill="none" stroke="#63b8ff" d="M2018.21,-289.04C2144.97,-288.7 2527.44,-284.23 2564.75,-244 2593.07,-213.46 2553.93,-166.09 2531.28,-140.62"/>
<polygon fill="#63b8ff" stroke="#63b8ff" points="2534.12,-138.55 2524.85,-133.43 2528.91,-143.22 2534.12,-138.55"/>
</a>
</g>
</g>
<!-- Node31&#45;&gt;Node3 -->
<g id="edge31_Node000031_Node000003" class="edge">
<title>Node31&#45;&gt;Node3</title>
<g id="a_edge31_Node000031_Node000003"><a xlink:title=" ">
<path fill="none" stroke="#63b8ff" d="M2366.48,-243.38C2364.89,-243.59 2363.31,-243.8 2361.75,-244 2243.4,-259.42 2103.78,-275.66 2029.72,-283.76"/>
<polygon fill="#63b8ff" stroke="#63b8ff" points="2029.48,-280.27 2019.92,-284.83 2030.24,-287.23 2029.48,-280.27"/>
</a>
</g>
</g>
<!-- Node31&#45;&gt;Node32 -->
<g id="edge32_Node000031_Node000032" class="edge">
<title>Node31&#45;&gt;Node32</title>
<g id="a_edge32_Node000031_Node000032"><a xlink:title=" ">
<path fill="none" stroke="#63b8ff" d="M2411.87,-223.59C2408.26,-216.63 2403.21,-206.89 2398.75,-198.29"/>
<polygon fill="#63b8ff" stroke="#63b8ff" points="2401.98,-196.91 2394.27,-189.64 2395.76,-200.13 2401.98,-196.91"/>
</a>
</g>
</g>
<!-- Node32&#45;&gt;Node3 -->
<g id="edge33_Node000032_Node000003" class="edge">
<title>Node32&#45;&gt;Node3</title>
<g id="a_edge33_Node000032_Node000003"><a xlink:title=" ">
<path fill="none" stroke="#63b8ff" d="M2384.61,-188.38C2372.09,-202.96 2339.2,-230.73 2305.75,-244 2213.67,-280.52 2096.31,-288.05 2029.74,-289.22"/>
<polygon fill="#63b8ff" stroke="#63b8ff" points="2029.78,-285.72 2019.83,-289.35 2029.87,-292.72 2029.78,-285.72"/>
</a>
</g>
</g>
<!-- Node32&#45;&gt;Node33 -->
<g id="edge34_Node000032_Node000033" class="edge">
<title>Node32&#45;&gt;Node33</title>
<g id="a_edge34_Node000032_Node000033"><a xlink:title=" ">
<path fill="none" stroke="#63b8ff" d="M2360.71,-167.59C2334.66,-158.86 2295.65,-145.77 2266.61,-136.03"/>
<polygon fill="#63b8ff" stroke="#63b8ff" points="2268.04,-132.82 2257.45,-132.96 2265.82,-139.46 2268.04,-132.82"/>
</a>
</g>
</g>
<!-- Node32&#45;&gt;Node34 -->
<g id="edge36_Node000032_Node000034" class="edge">
<title>Node32&#45;&gt;Node34</title>
<g id="a_edge36_Node000032_Node000034"><a xlink:title=" ">
<path fill="none" stroke="#63b8ff" d="M2382.3,-167.6C2372.58,-153.99 2353.06,-128.6 2331.75,-112 2315.5,-99.34 2295.13,-88.65 2278.08,-80.88"/>
<polygon fill="#63b8ff" stroke="#63b8ff" points="2279.91,-77.86 2269.35,-77.03 2277.09,-84.27 2279.91,-77.86"/>
</a>
</g>
</g>
<!-- Node32&#45;&gt;Node35 -->
<g id="edge38_Node000032_Node000035" class="edge">
<title>Node32&#45;&gt;Node35</title>
<g id="a_edge38_Node000032_Node000035"><a xlink:title=" ">
<path fill="none" stroke="#63b8ff" d="M2373.07,-167.59C2359.61,-159.51 2339.93,-147.71 2324.21,-138.27"/>
<polygon fill="#63b8ff" stroke="#63b8ff" points="2326.22,-135.4 2315.85,-133.26 2322.62,-141.4 2326.22,-135.4"/>
</a>
</g>
</g>
<!-- Node32&#45;&gt;Node36 -->
<g id="edge41_Node000032_Node000036" class="edge">
<title>Node32&#45;&gt;Node36</title>
<g id="a_edge41_Node000032_Node000036"><a xlink:title=" ">
<path fill="none" stroke="#63b8ff" d="M2385.32,-167.61C2380.26,-154.45 2369.94,-130.09 2356.75,-112 2331.63,-77.56 2293.53,-45.5 2269.67,-27.1"/>
<polygon fill="#63b8ff" stroke="#63b8ff" points="2271.98,-24.46 2261.89,-21.21 2267.75,-30.04 2271.98,-24.46"/>
</a>
</g>
</g>
<!-- Node32&#45;&gt;Node37 -->
<g id="edge43_Node000032_Node000037" class="edge">
<title>Node32&#45;&gt;Node37</title>
<g id="a_edge43_Node000032_Node000037"><a xlink:title=" ">
<path fill="none" stroke="#63b8ff" d="M2394.38,-167.55C2403.3,-153.39 2422.02,-126.77 2444.75,-112 2531.84,-55.41 2652.04,-29.36 2722.26,-18.29"/>
<polygon fill="#63b8ff" stroke="#63b8ff" points="2722.66,-21.78 2732.02,-16.81 2721.6,-14.85 2722.66,-21.78"/>
</a>
</g>
</g>
<!-- Node38 -->
<g id="Node000038" class="node">
<title>Node38</title>
<g id="a_Node000038"><a xlink:href="_shader_manager_8h.html" target="_top" xlink:title=" ">
<polygon fill="white" stroke="#666666" points="2654,-132 2561.5,-132 2561.5,-112 2654,-112 2654,-132"/>
<text text-anchor="middle" x="2607.75" y="-118.5" font-family="Helvetica,sans-Serif" font-size="10.00">ShaderManager.h</text>
</a>
</g>
</g>
<!-- Node32&#45;&gt;Node38 -->
<g id="edge45_Node000032_Node000038" class="edge">
<title>Node32&#45;&gt;Node38</title>
<g id="a_edge45_Node000032_Node000038"><a xlink:title=" ">
<path fill="none" stroke="#63b8ff" d="M2427.15,-167.53C2463.62,-158.54 2518.65,-144.97 2558.37,-135.18"/>
<polygon fill="#63b8ff" stroke="#63b8ff" points="2559.06,-138.61 2567.93,-132.82 2557.38,-131.82 2559.06,-138.61"/>
</a>
</g>
</g>
<!-- Node32&#45;&gt;Node39 -->
<g id="edge47_Node000032_Node000039" class="edge">
<title>Node32&#45;&gt;Node39</title>
<g id="a_edge47_Node000032_Node000039"><a xlink:title=" ">
<path fill="none" stroke="#63b8ff" d="M2399.33,-167.69C2416.05,-153.47 2450.17,-126.48 2483.75,-112 2538.54,-88.38 2607.03,-76.62 2649.84,-71.18"/>
<polygon fill="#63b8ff" stroke="#63b8ff" points="2650.19,-74.66 2659.7,-69.99 2649.35,-67.71 2650.19,-74.66"/>
</a>
</g>
</g>
<!-- Node32&#45;&gt;Node40 -->
<g id="edge51_Node000032_Node000040" class="edge">
<title>Node32&#45;&gt;Node40</title>
<g id="a_edge51_Node000032_Node000040"><a xlink:title=" ">
<path fill="none" stroke="#63b8ff" d="M2411.22,-167.59C2431.54,-159.09 2461.7,-146.46 2484.76,-136.81"/>
<polygon fill="#63b8ff" stroke="#63b8ff" points="2485.84,-140.15 2493.71,-133.06 2483.13,-133.7 2485.84,-140.15"/>
</a>
</g>
</g>
<!-- Node33&#45;&gt;Node3 -->
<g id="edge35_Node000033_Node000003" class="edge">
<title>Node33&#45;&gt;Node3</title>
<g id="a_edge35_Node000033_Node000003"><a xlink:title=" ">
<path fill="none" stroke="#63b8ff" d="M2231.82,-132.23C2234.93,-154.96 2227.89,-213.95 2193.75,-244 2170.12,-264.8 2085.51,-277.9 2029.37,-284.31"/>
<polygon fill="#63b8ff" stroke="#63b8ff" points="2029.26,-280.8 2019.7,-285.37 2030.02,-287.75 2029.26,-280.8"/>
</a>
</g>
</g>
<!-- Node34&#45;&gt;Node3 -->
<g id="edge37_Node000034_Node000003" class="edge">
<title>Node34&#45;&gt;Node3</title>
<g id="a_edge37_Node000034_Node000003"><a xlink:title=" ">
<path fill="none" stroke="#63b8ff" d="M2236.56,-76.29C2226.52,-84.52 2209.89,-97.48 2198.75,-112 2159.41,-163.27 2186.6,-201.69 2137.75,-244 2108.03,-269.74 2064.07,-280.77 2029.65,-285.48"/>
<polygon fill="#63b8ff" stroke="#63b8ff" points="2029.38,-281.99 2019.88,-286.67 2030.22,-288.94 2029.38,-281.99"/>
</a>
</g>
</g>
<!-- Node35&#45;&gt;Node3 -->
<g id="edge39_Node000035_Node000003" class="edge">
<title>Node35&#45;&gt;Node3</title>
<g id="a_edge39_Node000035_Node000003"><a xlink:title=" ">
<path fill="none" stroke="#63b8ff" d="M2299.7,-132.43C2295.14,-155.63 2268.27,-215.6 2224.75,-244 2193.67,-264.28 2092.3,-277.99 2029.4,-284.55"/>
<polygon fill="#63b8ff" stroke="#63b8ff" points="2029.23,-281.04 2019.63,-285.53 2029.93,-288.01 2029.23,-281.04"/>
</a>
</g>
</g>
<!-- Node35&#45;&gt;Node34 -->
<g id="edge40_Node000035_Node000034" class="edge">
<title>Node35&#45;&gt;Node34</title>
<g id="a_edge40_Node000035_Node000034"><a xlink:title=" ">
<path fill="none" stroke="#63b8ff" d="M2289.17,-111.59C2281.52,-104.08 2270.59,-93.35 2261.37,-84.3"/>
<polygon fill="#63b8ff" stroke="#63b8ff" points="2263.89,-81.87 2254.3,-77.36 2258.98,-86.86 2263.89,-81.87"/>
</a>
</g>
</g>
<!-- Node36&#45;&gt;Node3 -->
<g id="edge42_Node000036_Node000003" class="edge">
<title>Node36&#45;&gt;Node3</title>
<g id="a_edge42_Node000036_Node000003"><a xlink:title=" ">
<path fill="none" stroke="#63b8ff" d="M2220.89,-20.43C2181.87,-34.71 2114.75,-66.12 2114.75,-121 2114.75,-179 2114.75,-179 2114.75,-179 2114.75,-210.46 2108.81,-221.58 2086.75,-244 2071.24,-259.76 2049.23,-270.48 2028.96,-277.49"/>
<polygon fill="#63b8ff" stroke="#63b8ff" points="2028.15,-274.08 2019.69,-280.46 2030.28,-280.74 2028.15,-274.08"/>
</a>
</g>
</g>
<!-- Node37&#45;&gt;Node3 -->
<g id="edge44_Node000037_Node000003" class="edge">
<title>Node37&#45;&gt;Node3</title>
<g id="a_edge44_Node000037_Node000003"><a xlink:title=" ">
<path fill="none" stroke="#63b8ff" d="M2800.86,-20.34C2830.21,-37.03 2878.75,-74.61 2878.75,-121 2878.75,-179 2878.75,-179 2878.75,-179 2878.75,-226.56 2838.35,-227.5 2793.75,-244 2722.75,-270.26 2197.97,-284.23 2029.54,-287.96"/>
<polygon fill="#63b8ff" stroke="#63b8ff" points="2029.71,-284.46 2019.79,-288.18 2029.86,-291.46 2029.71,-284.46"/>
</a>
</g>
</g>
<!-- Node38&#45;&gt;Node3 -->
<g id="edge46_Node000038_Node000003" class="edge">
<title>Node38&#45;&gt;Node3</title>
<g id="a_edge46_Node000038_Node000003"><a xlink:title=" ">
<path fill="none" stroke="#63b8ff" d="M2639.61,-132.42C2697.9,-151.14 2811.66,-195.4 2765.75,-244 2740.45,-270.78 2201.48,-284.32 2029.79,-287.97"/>
<polygon fill="#63b8ff" stroke="#63b8ff" points="2029.75,-284.47 2019.83,-288.18 2029.9,-291.47 2029.75,-284.47"/>
</a>
</g>
</g>
<!-- Node39&#45;&gt;Node3 -->
<g id="edge48_Node000039_Node000003" class="edge">
<title>Node39&#45;&gt;Node3</title>
<g id="a_edge48_Node000039_Node000003"><a xlink:title=" ">
<path fill="none" stroke="#63b8ff" d="M2693.04,-76.09C2693.24,-106.37 2672.2,-204.09 2609.75,-244 2561.7,-274.71 2172.04,-285.33 2029.57,-288.15"/>
<polygon fill="#63b8ff" stroke="#63b8ff" points="2029.59,-284.65 2019.66,-288.34 2029.73,-291.64 2029.59,-284.65"/>
</a>
</g>
</g>
<!-- Node39&#45;&gt;Node36 -->
<g id="edge50_Node000039_Node000036" class="edge">
<title>Node39&#45;&gt;Node36</title>
<g id="a_edge50_Node000039_Node000036"><a xlink:title=" ">
<path fill="none" stroke="#63b8ff" d="M2661,-61.37C2586.58,-52.3 2391.71,-28.55 2298.65,-17.2"/>
<polygon fill="#63b8ff" stroke="#63b8ff" points="2299.13,-13.74 2288.78,-16 2298.29,-20.69 2299.13,-13.74"/>
</a>
</g>
</g>
<!-- Node39&#45;&gt;Node37 -->
<g id="edge49_Node000039_Node000037" class="edge">
<title>Node39&#45;&gt;Node37</title>
<g id="a_edge49_Node000039_Node000037"><a xlink:title=" ">
<path fill="none" stroke="#63b8ff" d="M2706.25,-55.59C2719.57,-47.51 2739.03,-35.71 2754.58,-26.27"/>
<polygon fill="#63b8ff" stroke="#63b8ff" points="2756.1,-29.44 2762.83,-21.26 2752.47,-23.46 2756.1,-29.44"/>
</a>
</g>
</g>
<!-- Node40&#45;&gt;Node3 -->
<g id="edge52_Node000040_Node000003" class="edge">
<title>Node40&#45;&gt;Node3</title>
<g id="a_edge52_Node000040_Node000003"><a xlink:title=" ">
<path fill="none" stroke="#63b8ff" d="M2533,-132.3C2561.3,-154.2 2614.54,-209.71 2582.75,-244 2545.73,-283.92 2168.92,-288.63 2029.31,-289.03"/>
<polygon fill="#63b8ff" stroke="#63b8ff" points="2029.61,-285.53 2019.62,-289.05 2029.63,-292.53 2029.61,-285.53"/>
</a>
</g>
</g>
<!-- Node40&#45;&gt;Node39 -->
<g id="edge53_Node000040_Node000039" class="edge">
<title>Node40&#45;&gt;Node39</title>
<g id="a_edge53_Node000040_Node000039"><a xlink:title=" ">
<path fill="none" stroke="#63b8ff" d="M2543.28,-113.03C2571.48,-104.23 2617.28,-89.93 2650.37,-79.61"/>
<polygon fill="#63b8ff" stroke="#63b8ff" points="2651.11,-83.04 2659.61,-76.72 2649.02,-76.36 2651.11,-83.04"/>
</a>
</g>
</g>
</g>
</svg>
