<?xml version="1.0" encoding="UTF-8" standalone="no"?>
<!DOCTYPE svg PUBLIC "-//W3C//DTD SVG 1.1//EN"
 "http://www.w3.org/Graphics/SVG/1.1/DTD/svg11.dtd">
<!-- Generated by graphviz version 9.0.0 (20230911.1827)
 -->
<!-- Title: src/Material.h Pages: 1 -->
<!--zoomable 308 -->

<svg id="main" version="1.1" xmlns="http://www.w3.org/2000/svg" xmlns:xlink="http://www.w3.org/1999/xlink" xml:space="preserve" onload="init(evt)">
<style type="text/css"><![CDATA[
.node, .edge {opacity: 0.7;}
.node.selected, .edge.selected {opacity: 1;}
.edge:hover path { stroke: red; }
.edge:hover polygon { stroke: red; fill: red; }
]]></style>

<defs>
  <circle id="rim" cx="0" cy="0" r="7"/>
  <circle id="rim2" cx="0" cy="0" r="3.5"/>
  <g id="zoomPlus">
    <use xlink:href="#rim" fill="#404040"><set attributeName="fill" to="#808080" begin="zoomplus.mouseover" end="zoomplus.mouseout"/></use>
    <path d="M-4,0h8M0,-4v8" fill="none" stroke="white" stroke-width="1.5" pointer-events="none"/>
  </g>
  <g id="zoomMin">
    <use xlink:href="#rim" fill="#404040"><set attributeName="fill" to="#808080" begin="zoomminus.mouseover" end="zoomminus.mouseout"/></use>
    <path d="M-4,0h8" fill="none" stroke="white" stroke-width="1.5" pointer-events="none"/>
  </g>
  <g id="arrowUp" transform="translate(30 24)">
    <use xlink:href="#rim"/>
    <path pointer-events="none" fill="none" stroke="white" stroke-width="1.5" d="M0,-3.0v7 M-2.5,-0.5L0,-3.0L2.5,-0.5"/>
  </g>
  <g id="arrowRight" transform="rotate(90) translate(36 -43)">
    <use xlink:href="#rim"/>
    <path pointer-events="none" fill="none" stroke="white" stroke-width="1.5" d="M0,-3.0v7 M-2.5,-0.5L0,-3.0L2.5,-0.5"/>
  </g>
  <g id="arrowDown" transform="rotate(180) translate(-30 -48)">
    <use xlink:href="#rim"/>
    <path pointer-events="none" fill="none" stroke="white" stroke-width="1.5" d="M0,-3.0v7 M-2.5,-0.5L0,-3.0L2.5,-0.5"/>
  </g>
  <g id="arrowLeft" transform="rotate(270) translate(-36 17)">
    <use xlink:href="#rim"/>
    <path pointer-events="none" fill="none" stroke="white" stroke-width="1.5" d="M0,-3.0v7 M-2.5,-0.5L0,-3.0L2.5,-0.5"/>
  </g>
  <g id="resetDef">
    <use xlink:href="#rim2" fill="#404040"><set attributeName="fill" to="#808080" begin="reset.mouseover" end="reset.mouseout"/></use>
  </g>
</defs>
<script type="application/ecmascript">
var viewWidth = 2946;
var viewHeight = 308;
var sectionId = 'dynsection-0';
</script>
<script type="application/ecmascript" xlink:href="svg.min.js"/>
<svg id="graph" class="graph">
<g id="viewport">
<title>src/Material.h</title>
<!-- Node1 -->
<g id="Node000001" class="node">
<title>Node1</title>
<g id="a_Node000001"><a xlink:title=" ">
<polygon fill="#999999" stroke="#666666" points="2879.38,-300 2804.12,-300 2804.12,-280 2879.38,-280 2879.38,-300"/>
<text text-anchor="middle" x="2841.75" y="-286.5" font-family="Helvetica,sans-Serif" font-size="10.00">src/Material.h</text>
</a>
</g>
</g>
<!-- Node2 -->
<g id="Node000002" class="node">
<title>Node2</title>
<g id="a_Node000002"><a xlink:href="_game_engine_8h.html" target="_top" xlink:title=" ">
<polygon fill="white" stroke="#666666" points="1809,-244 1728.5,-244 1728.5,-224 1809,-224 1809,-244"/>
<text text-anchor="middle" x="1768.75" y="-230.5" font-family="Helvetica,sans-Serif" font-size="10.00">GameEngine.h</text>
</a>
</g>
</g>
<!-- Node1&#45;&gt;Node2 -->
<g id="edge1_Node000001_Node000002" class="edge">
<title>Node1&#45;&gt;Node2</title>
<g id="a_edge1_Node000001_Node000002"><a xlink:title=" ">
<path fill="none" stroke="#63b8ff" d="M2803.74,-287.22C2641.52,-279.32 2007.8,-247.44 1820.87,-237.78"/>
<polygon fill="#63b8ff" stroke="#63b8ff" points="1821.15,-234.29 1810.98,-237.27 1820.79,-241.28 1821.15,-234.29"/>
</a>
</g>
</g>
<!-- Node35 -->
<g id="Node000035" class="node">
<title>Node35</title>
<g id="a_Node000035"><a xlink:href="_render_state_8h.html" target="_top" xlink:title=" ">
<polygon fill="white" stroke="#666666" points="2447.88,-76 2369.62,-76 2369.62,-56 2447.88,-56 2447.88,-76"/>
<text text-anchor="middle" x="2408.75" y="-62.5" font-family="Helvetica,sans-Serif" font-size="10.00">RenderState.h</text>
</a>
</g>
</g>
<!-- Node1&#45;&gt;Node35 -->
<g id="edge59_Node000001_Node000035" class="edge">
<title>Node1&#45;&gt;Node35</title>
<g id="a_edge59_Node000001_Node000035"><a xlink:title=" ">
<path fill="none" stroke="#63b8ff" d="M2844.12,-279.62C2849.32,-256.57 2858.86,-196.87 2826.75,-168 2812.93,-155.57 2567.53,-101.33 2459.31,-77.87"/>
<polygon fill="#63b8ff" stroke="#63b8ff" points="2460.35,-74.52 2449.83,-75.82 2458.86,-81.36 2460.35,-74.52"/>
</a>
</g>
</g>
<!-- Node36 -->
<g id="Node000036" class="node">
<title>Node36</title>
<g id="a_Node000036"><a xlink:href="_shader_program_8h.html" target="_top" xlink:title=" ">
<polygon fill="white" stroke="#666666" points="2557.62,-76 2465.88,-76 2465.88,-56 2557.62,-56 2557.62,-76"/>
<text text-anchor="middle" x="2511.75" y="-62.5" font-family="Helvetica,sans-Serif" font-size="10.00">ShaderProgram.h</text>
</a>
</g>
</g>
<!-- Node1&#45;&gt;Node36 -->
<g id="edge58_Node000001_Node000036" class="edge">
<title>Node1&#45;&gt;Node36</title>
<g id="a_edge58_Node000001_Node000036"><a xlink:title=" ">
<path fill="none" stroke="#63b8ff" d="M2851.4,-279.68C2859.39,-271.24 2870.17,-258 2874.75,-244 2893,-188.24 2913.75,-155.83 2874.75,-112 2831.04,-62.88 2652.48,-83.43 2569.26,-75.99"/>
<polygon fill="#63b8ff" stroke="#63b8ff" points="2569.77,-72.53 2559.44,-74.89 2568.99,-79.49 2569.77,-72.53"/>
</a>
</g>
</g>
<!-- Node2&#45;&gt;Node1 -->
<g id="edge53_Node000002_Node000001" class="edge">
<title>Node2&#45;&gt;Node1</title>
<g id="a_edge53_Node000002_Node000001"><a xlink:title=" ">
<path fill="none" stroke="#63b8ff" d="M1809.42,-236.91C1976.63,-245.06 2610.13,-276.94 2792.44,-286.36"/>
<polygon fill="#63b8ff" stroke="#63b8ff" points="2792.11,-289.85 2802.28,-286.87 2792.47,-282.86 2792.11,-289.85"/>
</a>
</g>
</g>
<!-- Node3 -->
<g id="Node000003" class="node">
<title>Node3</title>
<g id="a_Node000003"><a xlink:title=" ">
<polygon fill="#e0e0e0" stroke="#999999" points="1951.62,-188 1871.88,-188 1871.88,-168 1951.62,-168 1951.62,-188"/>
<text text-anchor="middle" x="1911.75" y="-174.5" font-family="Helvetica,sans-Serif" font-size="10.00">SDKDDKVer.h</text>
</a>
</g>
</g>
<!-- Node2&#45;&gt;Node3 -->
<g id="edge2_Node000002_Node000003" class="edge">
<title>Node2&#45;&gt;Node3</title>
<g id="a_edge2_Node000002_Node000003"><a xlink:title=" ">
<path fill="none" stroke="#63b8ff" d="M1793.66,-223.59C1816.48,-214.97 1850.53,-202.12 1876.21,-192.42"/>
<polygon fill="#63b8ff" stroke="#63b8ff" points="1877.11,-195.82 1885.23,-189.01 1874.64,-189.27 1877.11,-195.82"/>
</a>
</g>
</g>
<!-- Node4 -->
<g id="Node000004" class="node">
<title>Node4</title>
<g id="a_Node000004"><a xlink:title=" ">
<polygon fill="#e0e0e0" stroke="#999999" points="2087.25,-188 2026.25,-188 2026.25,-168 2087.25,-168 2087.25,-188"/>
<text text-anchor="middle" x="2056.75" y="-174.5" font-family="Helvetica,sans-Serif" font-size="10.00">windows.h</text>
</a>
</g>
</g>
<!-- Node2&#45;&gt;Node4 -->
<g id="edge3_Node000002_Node000004" class="edge">
<title>Node2&#45;&gt;Node4</title>
<g id="a_edge3_Node000002_Node000004"><a xlink:title=" ">
<path fill="none" stroke="#63b8ff" d="M1809.2,-225.69C1857.45,-216.93 1940.55,-201.71 2011.75,-188 2012.74,-187.81 2013.75,-187.61 2014.76,-187.42"/>
<polygon fill="#63b8ff" stroke="#63b8ff" points="2015.15,-190.91 2024.29,-185.55 2013.8,-184.04 2015.15,-190.91"/>
</a>
</g>
</g>
<!-- Node5 -->
<g id="Node000005" class="node">
<title>Node5</title>
<g id="a_Node000005"><a xlink:title=" ">
<polygon fill="#e0e0e0" stroke="#999999" points="2152.5,-188 2105,-188 2105,-168 2152.5,-168 2152.5,-188"/>
<text text-anchor="middle" x="2128.75" y="-174.5" font-family="Helvetica,sans-Serif" font-size="10.00">stdlib.h</text>
</a>
</g>
</g>
<!-- Node2&#45;&gt;Node5 -->
<g id="edge4_Node000002_Node000005" class="edge">
<title>Node2&#45;&gt;Node5</title>
<g id="a_edge4_Node000002_Node000005"><a xlink:title=" ">
<path fill="none" stroke="#63b8ff" d="M1809.31,-229.13C1869.34,-223.02 1985.52,-209.79 2093.58,-188.2"/>
<polygon fill="#63b8ff" stroke="#63b8ff" points="2094.1,-191.67 2103.2,-186.25 2092.71,-184.81 2094.1,-191.67"/>
</a>
</g>
</g>
<!-- Node6 -->
<g id="Node000006" class="node">
<title>Node6</title>
<g id="a_Node000006"><a xlink:title=" ">
<polygon fill="#e0e0e0" stroke="#999999" points="2341.12,-188 2288.38,-188 2288.38,-168 2341.12,-168 2341.12,-188"/>
<text text-anchor="middle" x="2314.75" y="-174.5" font-family="Helvetica,sans-Serif" font-size="10.00">malloc.h</text>
</a>
</g>
</g>
<!-- Node2&#45;&gt;Node6 -->
<g id="edge5_Node000002_Node000006" class="edge">
<title>Node2&#45;&gt;Node6</title>
<g id="a_edge5_Node000002_Node000006"><a xlink:title=" ">
<path fill="none" stroke="#63b8ff" d="M1809.45,-231.68C1894.59,-228.43 2097.83,-218.15 2276.88,-188.24"/>
<polygon fill="#63b8ff" stroke="#63b8ff" points="2277.33,-191.71 2286.6,-186.59 2276.16,-184.81 2277.33,-191.71"/>
</a>
</g>
</g>
<!-- Node7 -->
<g id="Node000007" class="node">
<title>Node7</title>
<g id="a_Node000007"><a xlink:title=" ">
<polygon fill="#e0e0e0" stroke="#999999" points="2418.5,-188 2359,-188 2359,-168 2418.5,-168 2418.5,-188"/>
<text text-anchor="middle" x="2388.75" y="-174.5" font-family="Helvetica,sans-Serif" font-size="10.00">memory.h</text>
</a>
</g>
</g>
<!-- Node2&#45;&gt;Node7 -->
<g id="edge6_Node000002_Node000007" class="edge">
<title>Node2&#45;&gt;Node7</title>
<g id="a_edge6_Node000002_Node000007"><a xlink:title=" ">
<path fill="none" stroke="#63b8ff" d="M1809.49,-231.94C1902.93,-229.05 2139.97,-219.19 2347.49,-188.11"/>
<polygon fill="#63b8ff" stroke="#63b8ff" points="2347.75,-191.62 2357.11,-186.65 2346.69,-184.7 2347.75,-191.62"/>
</a>
</g>
</g>
<!-- Node8 -->
<g id="Node000008" class="node">
<title>Node8</title>
<g id="a_Node000008"><a xlink:title=" ">
<polygon fill="#e0e0e0" stroke="#999999" points="2650.75,-188 2604.75,-188 2604.75,-168 2650.75,-168 2650.75,-188"/>
<text text-anchor="middle" x="2627.75" y="-174.5" font-family="Helvetica,sans-Serif" font-size="10.00">tchar.h</text>
</a>
</g>
</g>
<!-- Node2&#45;&gt;Node8 -->
<g id="edge7_Node000002_Node000008" class="edge">
<title>Node2&#45;&gt;Node8</title>
<g id="a_edge7_Node000002_Node000008"><a xlink:title=" ">
<path fill="none" stroke="#63b8ff" d="M1809.21,-233.41C1929.18,-234.05 2293.13,-231.96 2590.75,-188 2591.58,-187.88 2592.43,-187.74 2593.27,-187.6"/>
<polygon fill="#63b8ff" stroke="#63b8ff" points="2593.79,-191.07 2602.91,-185.67 2592.41,-184.2 2593.79,-191.07"/>
</a>
</g>
</g>
<!-- Node9 -->
<g id="Node000009" class="node">
<title>Node9</title>
<g id="a_Node000009"><a xlink:title=" ">
<polygon fill="#e0e0e0" stroke="#999999" points="2730.62,-188 2668.88,-188 2668.88,-168 2730.62,-168 2730.62,-188"/>
<text text-anchor="middle" x="2699.75" y="-174.5" font-family="Helvetica,sans-Serif" font-size="10.00">resource.h</text>
</a>
</g>
</g>
<!-- Node2&#45;&gt;Node9 -->
<g id="edge8_Node000002_Node000009" class="edge">
<title>Node2&#45;&gt;Node9</title>
<g id="a_edge8_Node000002_Node000009"><a xlink:title=" ">
<path fill="none" stroke="#63b8ff" d="M1809.39,-233.41C1934.52,-234.15 2325.13,-232.57 2657.11,-188.12"/>
<polygon fill="#63b8ff" stroke="#63b8ff" points="2657.46,-191.6 2666.9,-186.79 2656.52,-184.67 2657.46,-191.6"/>
</a>
</g>
</g>
<!-- Node10 -->
<g id="Node000010" class="node">
<title>Node10</title>
<g id="a_Node000010"><a xlink:title=" ">
<polygon fill="#e0e0e0" stroke="#999999" points="2794.38,-188 2749.12,-188 2749.12,-168 2794.38,-168 2794.38,-188"/>
<text text-anchor="middle" x="2771.75" y="-174.5" font-family="Helvetica,sans-Serif" font-size="10.00">chrono</text>
</a>
</g>
</g>
<!-- Node2&#45;&gt;Node10 -->
<g id="edge9_Node000002_Node000010" class="edge">
<title>Node2&#45;&gt;Node10</title>
<g id="a_edge9_Node000002_Node000010"><a xlink:title=" ">
<path fill="none" stroke="#63b8ff" d="M1809.26,-232.35C1966.14,-229.66 2534.54,-218.11 2737.69,-187.86"/>
<polygon fill="#63b8ff" stroke="#63b8ff" points="2737.98,-191.36 2747.32,-186.36 2736.9,-184.44 2737.98,-191.36"/>
</a>
</g>
</g>
<!-- Node11 -->
<g id="Node000011" class="node">
<title>Node11</title>
<g id="a_Node000011"><a xlink:title=" ">
<polygon fill="#e0e0e0" stroke="#999999" points="41.5,-188 0,-188 0,-168 41.5,-168 41.5,-188"/>
<text text-anchor="middle" x="20.75" y="-174.5" font-family="Helvetica,sans-Serif" font-size="10.00">vector</text>
</a>
</g>
</g>
<!-- Node2&#45;&gt;Node11 -->
<g id="edge10_Node000002_Node000011" class="edge">
<title>Node2&#45;&gt;Node11</title>
<g id="a_edge10_Node000002_Node000011"><a xlink:title=" ">
<path fill="none" stroke="#63b8ff" d="M1728.06,-232.58C1488.71,-230.03 267.51,-215.81 52.97,-187.71"/>
<polygon fill="#63b8ff" stroke="#63b8ff" points="53.79,-184.29 43.39,-186.32 52.78,-191.22 53.79,-184.29"/>
</a>
</g>
</g>
<!-- Node12 -->
<g id="Node000012" class="node">
<title>Node12</title>
<g id="a_Node000012"><a xlink:title=" ">
<polygon fill="#e0e0e0" stroke="#999999" points="113.5,-188 60,-188 60,-168 113.5,-168 113.5,-188"/>
<text text-anchor="middle" x="86.75" y="-174.5" font-family="Helvetica,sans-Serif" font-size="10.00">iostream</text>
</a>
</g>
</g>
<!-- Node2&#45;&gt;Node12 -->
<g id="edge11_Node000002_Node000012" class="edge">
<title>Node2&#45;&gt;Node12</title>
<g id="a_edge11_Node000002_Node000012"><a xlink:title=" ">
<path fill="none" stroke="#63b8ff" d="M1728.14,-233.09C1509.53,-233.38 470.06,-232.43 124.99,-187.92"/>
<polygon fill="#63b8ff" stroke="#63b8ff" points="125.63,-184.47 115.25,-186.62 124.7,-191.41 125.63,-184.47"/>
</a>
</g>
</g>
<!-- Node13 -->
<g id="Node000013" class="node">
<title>Node13</title>
<g id="a_Node000013"><a xlink:title=" ">
<polygon fill="#e0e0e0" stroke="#999999" points="179.88,-188 131.62,-188 131.62,-168 179.88,-168 179.88,-188"/>
<text text-anchor="middle" x="155.75" y="-174.5" font-family="Helvetica,sans-Serif" font-size="10.00">fstream</text>
</a>
</g>
</g>
<!-- Node2&#45;&gt;Node13 -->
<g id="edge12_Node000002_Node000013" class="edge">
<title>Node2&#45;&gt;Node13</title>
<g id="a_edge12_Node000002_Node000013"><a xlink:title=" ">
<path fill="none" stroke="#63b8ff" d="M1728.35,-233.15C1515.46,-233.74 521.39,-234 191.12,-187.93"/>
<polygon fill="#63b8ff" stroke="#63b8ff" points="192.02,-184.52 181.62,-186.56 191.02,-191.45 192.02,-184.52"/>
</a>
</g>
</g>
<!-- Node14 -->
<g id="Node000014" class="node">
<title>Node14</title>
<g id="a_Node000014"><a xlink:title=" ">
<polygon fill="#e0e0e0" stroke="#999999" points="257.88,-188 197.62,-188 197.62,-168 257.88,-168 257.88,-188"/>
<text text-anchor="middle" x="227.75" y="-174.5" font-family="Helvetica,sans-Serif" font-size="10.00">filesystem</text>
</a>
</g>
</g>
<!-- Node2&#45;&gt;Node14 -->
<g id="edge13_Node000002_Node000014" class="edge">
<title>Node2&#45;&gt;Node14</title>
<g id="a_edge13_Node000002_Node000014"><a xlink:title=" ">
<path fill="none" stroke="#63b8ff" d="M1728.34,-232.86C1522.07,-232.01 584.51,-226.16 269.69,-188.08"/>
<polygon fill="#63b8ff" stroke="#63b8ff" points="270.16,-184.61 259.81,-186.84 269.29,-191.55 270.16,-184.61"/>
</a>
</g>
</g>
<!-- Node15 -->
<g id="Node000015" class="node">
<title>Node15</title>
<g id="a_Node000015"><a xlink:title=" ">
<polygon fill="#e0e0e0" stroke="#999999" points="327.38,-188 276.12,-188 276.12,-168 327.38,-168 327.38,-188"/>
<text text-anchor="middle" x="301.75" y="-174.5" font-family="Helvetica,sans-Serif" font-size="10.00">sstream</text>
</a>
</g>
</g>
<!-- Node2&#45;&gt;Node15 -->
<g id="edge14_Node000002_Node000015" class="edge">
<title>Node2&#45;&gt;Node15</title>
<g id="a_edge14_Node000002_Node000015"><a xlink:title=" ">
<path fill="none" stroke="#63b8ff" d="M1728.21,-232.93C1527.59,-232.41 639.05,-227.92 338.9,-187.89"/>
<polygon fill="#63b8ff" stroke="#63b8ff" points="339.5,-184.44 329.11,-186.54 338.54,-191.37 339.5,-184.44"/>
</a>
</g>
</g>
<!-- Node16 -->
<g id="Node000016" class="node">
<title>Node16</title>
<g id="a_Node000016"><a xlink:title=" ">
<polygon fill="#e0e0e0" stroke="#999999" points="428.12,-188 345.38,-188 345.38,-168 428.12,-168 428.12,-188"/>
<text text-anchor="middle" x="386.75" y="-174.5" font-family="Helvetica,sans-Serif" font-size="10.00">unordered_map</text>
</a>
</g>
</g>
<!-- Node2&#45;&gt;Node16 -->
<g id="edge15_Node000002_Node000016" class="edge">
<title>Node2&#45;&gt;Node16</title>
<g id="a_edge15_Node000002_Node000016"><a xlink:title=" ">
<path fill="none" stroke="#63b8ff" d="M1728.26,-232.4C1536.78,-229.45 720.07,-215.54 439.77,-188"/>
<polygon fill="#63b8ff" stroke="#63b8ff" points="440.24,-184.53 429.94,-187 439.53,-191.49 440.24,-184.53"/>
</a>
</g>
</g>
<!-- Node17 -->
<g id="Node000017" class="node">
<title>Node17</title>
<g id="a_Node000017"><a xlink:title=" ">
<polygon fill="#e0e0e0" stroke="#999999" points="551,-188 446.5,-188 446.5,-168 551,-168 551,-188"/>
<text text-anchor="middle" x="498.75" y="-174.5" font-family="Helvetica,sans-Serif" font-size="10.00">assimp/Importer.hpp</text>
</a>
</g>
</g>
<!-- Node2&#45;&gt;Node17 -->
<g id="edge16_Node000002_Node000017" class="edge">
<title>Node2&#45;&gt;Node17</title>
<g id="a_edge16_Node000002_Node000017"><a xlink:title=" ">
<path fill="none" stroke="#63b8ff" d="M1728.21,-233.1C1576.25,-233.12 1025.98,-230.16 562.55,-188.15"/>
<polygon fill="#63b8ff" stroke="#63b8ff" points="563.06,-184.69 552.79,-187.26 562.43,-191.66 563.06,-184.69"/>
</a>
</g>
</g>
<!-- Node18 -->
<g id="Node000018" class="node">
<title>Node18</title>
<g id="a_Node000018"><a xlink:title=" ">
<polygon fill="#e0e0e0" stroke="#999999" points="654.25,-188 569.25,-188 569.25,-168 654.25,-168 654.25,-188"/>
<text text-anchor="middle" x="611.75" y="-174.5" font-family="Helvetica,sans-Serif" font-size="10.00">assimp/scene.h</text>
</a>
</g>
</g>
<!-- Node2&#45;&gt;Node18 -->
<g id="edge17_Node000002_Node000018" class="edge">
<title>Node2&#45;&gt;Node18</title>
<g id="a_edge17_Node000002_Node000018"><a xlink:title=" ">
<path fill="none" stroke="#63b8ff" d="M1728.22,-233.26C1584.64,-233.76 1086.67,-232.1 665.72,-188.04"/>
<polygon fill="#63b8ff" stroke="#63b8ff" points="666.35,-184.59 656.04,-187.02 665.62,-191.55 666.35,-184.59"/>
</a>
</g>
</g>
<!-- Node19 -->
<g id="Node000019" class="node">
<title>Node19</title>
<g id="a_Node000019"><a xlink:title=" ">
<polygon fill="#e0e0e0" stroke="#999999" points="784.75,-188 672.75,-188 672.75,-168 784.75,-168 784.75,-188"/>
<text text-anchor="middle" x="728.75" y="-174.5" font-family="Helvetica,sans-Serif" font-size="10.00">assimp/postprocess.h</text>
</a>
</g>
</g>
<!-- Node2&#45;&gt;Node19 -->
<g id="edge18_Node000002_Node000019" class="edge">
<title>Node2&#45;&gt;Node19</title>
<g id="a_edge18_Node000002_Node000019"><a xlink:title=" ">
<path fill="none" stroke="#63b8ff" d="M1728.26,-232.46C1595.95,-230.4 1164.25,-221.49 796.49,-188.16"/>
<polygon fill="#63b8ff" stroke="#63b8ff" points="796.87,-184.68 786.59,-187.26 796.23,-191.66 796.87,-184.68"/>
</a>
</g>
</g>
<!-- Node20 -->
<g id="Node000020" class="node">
<title>Node20</title>
<g id="a_Node000020"><a xlink:title=" ">
<polygon fill="#e0e0e0" stroke="#999999" points="948.25,-188 803.25,-188 803.25,-168 948.25,-168 948.25,-188"/>
<text text-anchor="middle" x="875.75" y="-174.5" font-family="Helvetica,sans-Serif" font-size="10.00">directxtk\WICTextureLoader.h</text>
</a>
</g>
</g>
<!-- Node2&#45;&gt;Node20 -->
<g id="edge19_Node000002_Node000020" class="edge">
<title>Node2&#45;&gt;Node20</title>
<g id="a_edge19_Node000002_Node000020"><a xlink:title=" ">
<path fill="none" stroke="#63b8ff" d="M1728.19,-231.52C1610.99,-227.09 1261.55,-212.72 959.77,-188.12"/>
<polygon fill="#63b8ff" stroke="#63b8ff" points="960.37,-184.66 950.12,-187.33 959.8,-191.63 960.37,-184.66"/>
</a>
</g>
</g>
<!-- Node21 -->
<g id="Node000021" class="node">
<title>Node21</title>
<g id="a_Node000021"><a xlink:title=" ">
<polygon fill="#e0e0e0" stroke="#999999" points="1031.12,-188 966.38,-188 966.38,-168 1031.12,-168 1031.12,-188"/>
<text text-anchor="middle" x="998.75" y="-174.5" font-family="Helvetica,sans-Serif" font-size="10.00">wincodec.h</text>
</a>
</g>
</g>
<!-- Node2&#45;&gt;Node21 -->
<g id="edge20_Node000002_Node000021" class="edge">
<title>Node2&#45;&gt;Node21</title>
<g id="a_edge20_Node000002_Node000021"><a xlink:title=" ">
<path fill="none" stroke="#63b8ff" d="M1728.23,-232.69C1618.94,-231.38 1308.97,-224.61 1042.4,-188.16"/>
<polygon fill="#63b8ff" stroke="#63b8ff" points="1043.23,-184.74 1032.84,-186.84 1042.27,-191.68 1043.23,-184.74"/>
</a>
</g>
</g>
<!-- Node22 -->
<g id="Node000022" class="node">
<title>Node22</title>
<g id="a_Node000022"><a xlink:title=" ">
<polygon fill="#e0e0e0" stroke="#999999" points="1106.75,-188 1048.75,-188 1048.75,-168 1106.75,-168 1106.75,-188"/>
<text text-anchor="middle" x="1077.75" y="-174.5" font-family="Helvetica,sans-Serif" font-size="10.00">lodepng.h</text>
</a>
</g>
</g>
<!-- Node2&#45;&gt;Node22 -->
<g id="edge21_Node000002_Node000022" class="edge">
<title>Node2&#45;&gt;Node22</title>
<g id="a_edge21_Node000002_Node000022"><a xlink:title=" ">
<path fill="none" stroke="#63b8ff" d="M1728.37,-232.51C1627.18,-230.8 1354.49,-223.17 1118.33,-188.15"/>
<polygon fill="#63b8ff" stroke="#63b8ff" points="1119.02,-184.71 1108.61,-186.68 1117.98,-191.63 1119.02,-184.71"/>
</a>
</g>
</g>
<!-- Node23 -->
<g id="Node000023" class="node">
<title>Node23</title>
<g id="a_Node000023"><a xlink:title=" ">
<polygon fill="#e0e0e0" stroke="#999999" points="1175,-188 1124.5,-188 1124.5,-168 1175,-168 1175,-188"/>
<text text-anchor="middle" x="1149.75" y="-174.5" font-family="Helvetica,sans-Serif" font-size="10.00">d3d11.h</text>
</a>
</g>
</g>
<!-- Node2&#45;&gt;Node23 -->
<g id="edge22_Node000002_Node000023" class="edge">
<title>Node2&#45;&gt;Node23</title>
<g id="a_edge22_Node000002_Node000023"><a xlink:title=" ">
<path fill="none" stroke="#63b8ff" d="M1728.1,-232.31C1634.31,-230.19 1395.49,-221.82 1186.45,-187.95"/>
<polygon fill="#63b8ff" stroke="#63b8ff" points="1187.18,-184.52 1176.75,-186.35 1186.05,-191.43 1187.18,-184.52"/>
</a>
</g>
</g>
<!-- Node24 -->
<g id="Node000024" class="node">
<title>Node24</title>
<g id="a_Node000024"><a xlink:title=" ">
<polygon fill="#e0e0e0" stroke="#999999" points="1270.12,-188 1193.38,-188 1193.38,-168 1270.12,-168 1270.12,-188"/>
<text text-anchor="middle" x="1231.75" y="-174.5" font-family="Helvetica,sans-Serif" font-size="10.00">DirectXMath.h</text>
</a>
</g>
</g>
<!-- Node2&#45;&gt;Node24 -->
<g id="edge23_Node000002_Node000024" class="edge">
<title>Node2&#45;&gt;Node24</title>
<g id="a_edge23_Node000002_Node000024"><a xlink:title=" ">
<path fill="none" stroke="#63b8ff" d="M1728.26,-230.62C1646.01,-225.51 1453.27,-212.05 1281.7,-188.3"/>
<polygon fill="#63b8ff" stroke="#63b8ff" points="1282.32,-184.85 1271.93,-186.93 1281.34,-191.78 1282.32,-184.85"/>
</a>
</g>
</g>
<!-- Node25 -->
<g id="Node000025" class="node">
<title>Node25</title>
<g id="a_Node000025"><a xlink:title=" ">
<polygon fill="#e0e0e0" stroke="#999999" points="1367.62,-188 1287.88,-188 1287.88,-168 1367.62,-168 1367.62,-188"/>
<text text-anchor="middle" x="1327.75" y="-174.5" font-family="Helvetica,sans-Serif" font-size="10.00">D3Dcompiler.h</text>
</a>
</g>
</g>
<!-- Node2&#45;&gt;Node25 -->
<g id="edge24_Node000002_Node000025" class="edge">
<title>Node2&#45;&gt;Node25</title>
<g id="a_edge24_Node000002_Node000025"><a xlink:title=" ">
<path fill="none" stroke="#63b8ff" d="M1728,-229.23C1658.59,-222.62 1512.73,-207.87 1379.31,-188.29"/>
<polygon fill="#63b8ff" stroke="#63b8ff" points="1379.99,-184.86 1369.59,-186.85 1378.97,-191.78 1379.99,-184.86"/>
</a>
</g>
</g>
<!-- Node26 -->
<g id="Node000026" class="node">
<title>Node26</title>
<g id="a_Node000026"><a xlink:title=" ">
<polygon fill="#e0e0e0" stroke="#999999" points="1441.62,-188 1385.88,-188 1385.88,-168 1441.62,-168 1441.62,-188"/>
<text text-anchor="middle" x="1413.75" y="-174.5" font-family="Helvetica,sans-Serif" font-size="10.00">d2d1_2.h</text>
</a>
</g>
</g>
<!-- Node2&#45;&gt;Node26 -->
<g id="edge25_Node000002_Node000026" class="edge">
<title>Node2&#45;&gt;Node26</title>
<g id="a_edge25_Node000002_Node000026"><a xlink:title=" ">
<path fill="none" stroke="#63b8ff" d="M1728.13,-228.54C1669.54,-221.84 1557.71,-207.98 1453.05,-188.28"/>
<polygon fill="#63b8ff" stroke="#63b8ff" points="1453.93,-184.89 1443.46,-186.45 1452.62,-191.76 1453.93,-184.89"/>
</a>
</g>
</g>
<!-- Node27 -->
<g id="Node000027" class="node">
<title>Node27</title>
<g id="a_Node000027"><a xlink:title=" ">
<polygon fill="#e0e0e0" stroke="#999999" points="1515.62,-188 1459.88,-188 1459.88,-168 1515.62,-168 1515.62,-188"/>
<text text-anchor="middle" x="1487.75" y="-174.5" font-family="Helvetica,sans-Serif" font-size="10.00">d2d1_1.h</text>
</a>
</g>
</g>
<!-- Node2&#45;&gt;Node27 -->
<g id="edge26_Node000002_Node000027" class="edge">
<title>Node2&#45;&gt;Node27</title>
<g id="a_edge26_Node000002_Node000027"><a xlink:title=" ">
<path fill="none" stroke="#63b8ff" d="M1728.03,-226.21C1681.66,-218.32 1603.38,-204.52 1526.79,-188.34"/>
<polygon fill="#63b8ff" stroke="#63b8ff" points="1527.98,-185.02 1517.47,-186.36 1526.53,-191.86 1527.98,-185.02"/>
</a>
</g>
</g>
<!-- Node28 -->
<g id="Node000028" class="node">
<title>Node28</title>
<g id="a_Node000028"><a xlink:title=" ">
<polygon fill="#e0e0e0" stroke="#999999" points="1579.38,-188 1534.12,-188 1534.12,-168 1579.38,-168 1579.38,-188"/>
<text text-anchor="middle" x="1556.75" y="-174.5" font-family="Helvetica,sans-Serif" font-size="10.00">d2d1.h</text>
</a>
</g>
</g>
<!-- Node2&#45;&gt;Node28 -->
<g id="edge27_Node000002_Node000028" class="edge">
<title>Node2&#45;&gt;Node28</title>
<g id="a_edge27_Node000002_Node000028"><a xlink:title=" ">
<path fill="none" stroke="#63b8ff" d="M1729.69,-223.58C1695.53,-215.27 1644.3,-202.62 1590.87,-188.51"/>
<polygon fill="#63b8ff" stroke="#63b8ff" points="1591.83,-185.14 1581.26,-185.96 1590.03,-191.91 1591.83,-185.14"/>
</a>
</g>
</g>
<!-- Node29 -->
<g id="Node000029" class="node">
<title>Node29</title>
<g id="a_Node000029"><a xlink:title=" ">
<polygon fill="#e0e0e0" stroke="#999999" points="1647.62,-188 1597.88,-188 1597.88,-168 1647.62,-168 1647.62,-188"/>
<text text-anchor="middle" x="1622.75" y="-174.5" font-family="Helvetica,sans-Serif" font-size="10.00">dwrite.h</text>
</a>
</g>
</g>
<!-- Node2&#45;&gt;Node29 -->
<g id="edge28_Node000002_Node000029" class="edge">
<title>Node2&#45;&gt;Node29</title>
<g id="a_edge28_Node000002_Node000029"><a xlink:title=" ">
<path fill="none" stroke="#63b8ff" d="M1743.32,-223.59C1719.87,-214.92 1684.83,-201.96 1658.55,-192.24"/>
<polygon fill="#63b8ff" stroke="#63b8ff" points="1659.9,-189.01 1649.31,-188.82 1657.47,-195.58 1659.9,-189.01"/>
</a>
</g>
</g>
<!-- Node30 -->
<g id="Node000030" class="node">
<title>Node30</title>
<g id="a_Node000030"><a xlink:href="_win32_application_8h.html" target="_top" xlink:title=" ">
<polygon fill="white" stroke="#666666" points="2270.75,-188 2170.75,-188 2170.75,-168 2270.75,-168 2270.75,-188"/>
<text text-anchor="middle" x="2220.75" y="-174.5" font-family="Helvetica,sans-Serif" font-size="10.00">Win32Application.h</text>
</a>
</g>
</g>
<!-- Node2&#45;&gt;Node30 -->
<g id="edge29_Node000002_Node000030" class="edge">
<title>Node2&#45;&gt;Node30</title>
<g id="a_edge29_Node000002_Node000030"><a xlink:title=" ">
<path fill="none" stroke="#63b8ff" d="M1809.43,-228.26C1879.67,-220.61 2027.67,-204.7 2152.75,-188 2154.78,-187.73 2156.85,-187.45 2158.94,-187.16"/>
<polygon fill="#63b8ff" stroke="#63b8ff" points="2159.38,-190.63 2168.79,-185.75 2158.39,-183.7 2159.38,-190.63"/>
</a>
</g>
</g>
<!-- Node31 -->
<g id="Node000031" class="node">
<title>Node31</title>
<g id="a_Node000031"><a xlink:href="_direct_x_manager_8h.html" target="_top" xlink:title=" ">
<polygon fill="white" stroke="#666666" points="2035,-132 1942.5,-132 1942.5,-112 2035,-112 2035,-132"/>
<text text-anchor="middle" x="1988.75" y="-118.5" font-family="Helvetica,sans-Serif" font-size="10.00">DirectXManager.h</text>
</a>
</g>
</g>
<!-- Node2&#45;&gt;Node31 -->
<g id="edge50_Node000002_Node000031" class="edge">
<title>Node2&#45;&gt;Node31</title>
<g id="a_edge50_Node000002_Node000031"><a xlink:title=" ">
<path fill="none" stroke="#63b8ff" d="M1809.22,-233.4C1849.66,-231.32 1911.2,-221.96 1951.75,-188 1965.43,-176.55 1972.6,-157.18 1977.88,-142.56"/>
<polygon fill="#63b8ff" stroke="#63b8ff" points="1981.04,-144.1 1981.28,-133.51 1974.49,-141.64 1981.04,-144.1"/>
</a>
</g>
</g>
<!-- Node32 -->
<g id="Node000032" class="node">
<title>Node32</title>
<g id="a_Node000032"><a xlink:href="_camera_8h.html" target="_top" xlink:title=" ">
<polygon fill="white" stroke="#666666" points="1703.75,-76 1645.75,-76 1645.75,-56 1703.75,-56 1703.75,-76"/>
<text text-anchor="middle" x="1674.75" y="-62.5" font-family="Helvetica,sans-Serif" font-size="10.00">Camera.h</text>
</a>
</g>
</g>
<!-- Node2&#45;&gt;Node32 -->
<g id="edge51_Node000002_Node000032" class="edge">
<title>Node2&#45;&gt;Node32</title>
<g id="a_edge51_Node000002_Node000032"><a xlink:title=" ">
<path fill="none" stroke="#63b8ff" d="M1747.41,-223.63C1734.27,-215.43 1718.61,-202.57 1708.75,-188 1687.37,-156.39 1675.36,-112.96 1672.43,-87.64"/>
<polygon fill="#63b8ff" stroke="#63b8ff" points="1675.93,-87.49 1671.82,-77.73 1668.94,-87.92 1675.93,-87.49"/>
</a>
</g>
</g>
<!-- Node33 -->
<g id="Node000033" class="node">
<title>Node33</title>
<g id="a_Node000033"><a xlink:href="_graphics_device_8h.html" target="_top" xlink:title=" ">
<polygon fill="white" stroke="#666666" points="1816.62,-20 1724.88,-20 1724.88,0 1816.62,0 1816.62,-20"/>
<text text-anchor="middle" x="1770.75" y="-6.5" font-family="Helvetica,sans-Serif" font-size="10.00">GraphicsDevice.h</text>
</a>
</g>
</g>
<!-- Node2&#45;&gt;Node33 -->
<g id="edge52_Node000002_Node000033" class="edge">
<title>Node2&#45;&gt;Node33</title>
<g id="a_edge52_Node000002_Node000033"><a xlink:title=" ">
<path fill="none" stroke="#63b8ff" d="M1764.5,-223.79C1759.23,-197.55 1758.32,-120.21 1759.75,-56 1759.93,-47.99 1760.28,-39.18 1761.22,-31.5"/>
<polygon fill="#63b8ff" stroke="#63b8ff" points="1764.64,-32.27 1763.05,-21.79 1757.76,-30.97 1764.64,-32.27"/>
</a>
</g>
</g>
<!-- Node34 -->
<g id="Node000034" class="node">
<title>Node34</title>
<g id="a_Node000034"><a xlink:href="_mesh_8h.html" target="_top" xlink:title=" ">
<polygon fill="white" stroke="#666666" points="1825.88,-76 1777.62,-76 1777.62,-56 1825.88,-56 1825.88,-76"/>
<text text-anchor="middle" x="1801.75" y="-62.5" font-family="Helvetica,sans-Serif" font-size="10.00">Mesh.h</text>
</a>
</g>
</g>
<!-- Node2&#45;&gt;Node34 -->
<g id="edge54_Node000002_Node000034" class="edge">
<title>Node2&#45;&gt;Node34</title>
<g id="a_edge54_Node000002_Node000034"><a xlink:title=" ">
<path fill="none" stroke="#63b8ff" d="M1767.28,-223.6C1768.41,-197.35 1782.81,-122.84 1793.22,-86.89"/>
<polygon fill="#63b8ff" stroke="#63b8ff" points="1796.44,-88.33 1796.12,-77.74 1789.77,-86.22 1796.44,-88.33"/>
</a>
</g>
</g>
<!-- Node2&#45;&gt;Node35 -->
<g id="edge56_Node000002_Node000035" class="edge">
<title>Node2&#45;&gt;Node35</title>
<g id="a_edge56_Node000002_Node000035"><a xlink:title=" ">
<path fill="none" stroke="#63b8ff" d="M1809.5,-233.39C1945.51,-234.15 2376.92,-232.78 2418.75,-188 2444.42,-160.52 2425.56,-113.27 2414.41,-86.67"/>
<polygon fill="#63b8ff" stroke="#63b8ff" points="2417.77,-85.65 2410.71,-77.75 2411.31,-88.33 2417.77,-85.65"/>
</a>
</g>
</g>
<!-- Node2&#45;&gt;Node36 -->
<g id="edge57_Node000002_Node000036" class="edge">
<title>Node2&#45;&gt;Node36</title>
<g id="a_edge57_Node000002_Node000036"><a xlink:title=" ">
<path fill="none" stroke="#63b8ff" d="M1809.26,-232.71C1947.61,-231.42 2394.95,-224.49 2447.75,-188 2481.65,-164.57 2495.02,-114.95 2503.06,-87.08"/>
<polygon fill="#63b8ff" stroke="#63b8ff" points="2506.34,-88.32 2505.89,-77.74 2499.64,-86.3 2506.34,-88.32"/>
</a>
</g>
</g>
<!-- Node38 -->
<g id="Node000038" class="node">
<title>Node38</title>
<g id="a_Node000038"><a xlink:href="_model_8h.html" target="_top" xlink:title=" ">
<polygon fill="white" stroke="#666666" points="2626,-76 2575.5,-76 2575.5,-56 2626,-56 2626,-76"/>
<text text-anchor="middle" x="2600.75" y="-62.5" font-family="Helvetica,sans-Serif" font-size="10.00">Model.h</text>
</a>
</g>
</g>
<!-- Node2&#45;&gt;Node38 -->
<g id="edge55_Node000002_Node000038" class="edge">
<title>Node2&#45;&gt;Node38</title>
<g id="a_edge55_Node000002_Node000038"><a xlink:title=" ">
<path fill="none" stroke="#63b8ff" d="M1809.46,-232.15C1951.63,-229.07 2419.84,-217.08 2480.75,-188 2527.72,-165.58 2564.15,-113.59 2584.45,-85.62"/>
<polygon fill="#63b8ff" stroke="#63b8ff" points="2587.16,-87.84 2590.29,-77.71 2581.53,-83.68 2587.16,-87.84"/>
</a>
</g>
</g>
<!-- Node30&#45;&gt;Node2 -->
<g id="edge30_Node000030_Node000002" class="edge">
<title>Node30&#45;&gt;Node2</title>
<g id="a_edge30_Node000030_Node000002"><a xlink:title=" ">
<path fill="none" stroke="#63b8ff" d="M2170.36,-188.05C2045.32,-204.73 1897.48,-220.63 1820.68,-228.27"/>
<polygon fill="#63b8ff" stroke="#63b8ff" points="1820.54,-224.77 1810.94,-229.23 1821.23,-231.73 1820.54,-224.77"/>
</a>
</g>
</g>
<!-- Node30&#45;&gt;Node31 -->
<g id="edge31_Node000030_Node000031" class="edge">
<title>Node30&#45;&gt;Node31</title>
<g id="a_edge31_Node000030_Node000031"><a xlink:title=" ">
<path fill="none" stroke="#63b8ff" d="M2180.07,-167.53C2141.27,-158.5 2082.64,-144.85 2040.52,-135.05"/>
<polygon fill="#63b8ff" stroke="#63b8ff" points="2041.39,-131.66 2030.85,-132.8 2039.8,-138.48 2041.39,-131.66"/>
</a>
</g>
</g>
<!-- Node31&#45;&gt;Node1 -->
<g id="edge46_Node000031_Node000001" class="edge">
<title>Node31&#45;&gt;Node1</title>
<g id="a_edge46_Node000031_Node000001"><a xlink:title=" ">
<path fill="none" stroke="#63b8ff" d="M2035.22,-122.53C2199.04,-121.29 2743.02,-120.79 2803.75,-168 2834.51,-191.92 2840.9,-240.59 2841.92,-268.36"/>
<polygon fill="#63b8ff" stroke="#63b8ff" points="2838.42,-268.34 2842.05,-278.29 2845.42,-268.25 2838.42,-268.34"/>
</a>
</g>
</g>
<!-- Node31&#45;&gt;Node2 -->
<g id="edge32_Node000031_Node000002" class="edge">
<title>Node31&#45;&gt;Node2</title>
<g id="a_edge32_Node000031_Node000002"><a xlink:title=" ">
<path fill="none" stroke="#63b8ff" d="M1993.12,-132.09C1993.96,-146.26 1987.08,-173.48 1969.75,-188 1928.43,-222.6 1865.32,-231.67 1820.75,-233.51"/>
<polygon fill="#63b8ff" stroke="#63b8ff" points="1820.68,-230.01 1810.79,-233.81 1820.89,-237.01 1820.68,-230.01"/>
</a>
</g>
</g>
<!-- Node31&#45;&gt;Node32 -->
<g id="edge33_Node000031_Node000032" class="edge">
<title>Node31&#45;&gt;Node32</title>
<g id="a_edge33_Node000031_Node000032"><a xlink:title=" ">
<path fill="none" stroke="#63b8ff" d="M1942.08,-112.97C1880.71,-102.42 1773.85,-84.04 1715.55,-74.02"/>
<polygon fill="#63b8ff" stroke="#63b8ff" points="1716.16,-70.57 1705.71,-72.32 1714.97,-77.47 1716.16,-70.57"/>
</a>
</g>
</g>
<!-- Node31&#45;&gt;Node33 -->
<g id="edge35_Node000031_Node000033" class="edge">
<title>Node31&#45;&gt;Node33</title>
<g id="a_edge35_Node000031_Node000033"><a xlink:title=" ">
<path fill="none" stroke="#63b8ff" d="M1986.13,-111.89C1981.58,-97.7 1970.79,-70.43 1951.75,-56 1916.17,-29.03 1866.4,-18.06 1828.06,-13.68"/>
<polygon fill="#63b8ff" stroke="#63b8ff" points="1828.87,-10.24 1818.57,-12.71 1828.16,-17.21 1828.87,-10.24"/>
</a>
</g>
</g>
<!-- Node31&#45;&gt;Node34 -->
<g id="edge37_Node000031_Node000034" class="edge">
<title>Node31&#45;&gt;Node34</title>
<g id="a_edge37_Node000031_Node000034"><a xlink:title=" ">
<path fill="none" stroke="#63b8ff" d="M1956.18,-111.59C1922.9,-101.98 1871.37,-87.11 1837.11,-77.21"/>
<polygon fill="#63b8ff" stroke="#63b8ff" points="1838.24,-73.89 1827.66,-74.48 1836.3,-80.62 1838.24,-73.89"/>
</a>
</g>
</g>
<!-- Node31&#45;&gt;Node35 -->
<g id="edge40_Node000031_Node000035" class="edge">
<title>Node31&#45;&gt;Node35</title>
<g id="a_edge40_Node000031_Node000035"><a xlink:title=" ">
<path fill="none" stroke="#63b8ff" d="M2035.3,-115.01C2114.67,-104.81 2275.57,-84.12 2357.82,-73.55"/>
<polygon fill="#63b8ff" stroke="#63b8ff" points="2358.16,-77.03 2367.63,-72.29 2357.27,-70.09 2358.16,-77.03"/>
</a>
</g>
</g>
<!-- Node31&#45;&gt;Node36 -->
<g id="edge42_Node000031_Node000036" class="edge">
<title>Node31&#45;&gt;Node36</title>
<g id="a_edge42_Node000031_Node000036"><a xlink:title=" ">
<path fill="none" stroke="#63b8ff" d="M2035.36,-117.55C2117.76,-111.22 2294.77,-96.63 2454.58,-76.2"/>
<polygon fill="#63b8ff" stroke="#63b8ff" points="2454.6,-79.73 2464.07,-74.98 2453.7,-72.79 2454.6,-79.73"/>
</a>
</g>
</g>
<!-- Node37 -->
<g id="Node000037" class="node">
<title>Node37</title>
<g id="a_Node000037"><a xlink:href="_shader_manager_8h.html" target="_top" xlink:title=" ">
<polygon fill="white" stroke="#666666" points="1943,-76 1850.5,-76 1850.5,-56 1943,-56 1943,-76"/>
<text text-anchor="middle" x="1896.75" y="-62.5" font-family="Helvetica,sans-Serif" font-size="10.00">ShaderManager.h</text>
</a>
</g>
</g>
<!-- Node31&#45;&gt;Node37 -->
<g id="edge44_Node000031_Node000037" class="edge">
<title>Node31&#45;&gt;Node37</title>
<g id="a_edge44_Node000031_Node000037"><a xlink:title=" ">
<path fill="none" stroke="#63b8ff" d="M1972.72,-111.59C1958.96,-103.51 1938.85,-91.71 1922.77,-82.27"/>
<polygon fill="#63b8ff" stroke="#63b8ff" points="1924.6,-79.29 1914.21,-77.25 1921.06,-85.33 1924.6,-79.29"/>
</a>
</g>
</g>
<!-- Node31&#45;&gt;Node38 -->
<g id="edge47_Node000031_Node000038" class="edge">
<title>Node31&#45;&gt;Node38</title>
<g id="a_edge47_Node000031_Node000038"><a xlink:title=" ">
<path fill="none" stroke="#63b8ff" d="M2035.18,-120.23C2131.98,-118.01 2362.49,-109.56 2564.14,-76.15"/>
<polygon fill="#63b8ff" stroke="#63b8ff" points="2564.47,-79.65 2573.75,-74.53 2563.3,-72.74 2564.47,-79.65"/>
</a>
</g>
</g>
<!-- Node32&#45;&gt;Node2 -->
<g id="edge34_Node000032_Node000002" class="edge">
<title>Node32&#45;&gt;Node2</title>
<g id="a_edge34_Node000032_Node000002"><a xlink:title=" ">
<path fill="none" stroke="#63b8ff" d="M1681.02,-76.22C1689.46,-97.46 1701.65,-150.88 1726.75,-188 1734.04,-198.77 1744.5,-208.61 1753.33,-216.32"/>
<polygon fill="#63b8ff" stroke="#63b8ff" points="1751.03,-218.96 1760.9,-222.81 1755.59,-213.64 1751.03,-218.96"/>
</a>
</g>
</g>
<!-- Node33&#45;&gt;Node2 -->
<g id="edge36_Node000033_Node000002" class="edge">
<title>Node33&#45;&gt;Node2</title>
<g id="a_edge36_Node000033_Node000002"><a xlink:title=" ">
<path fill="none" stroke="#63b8ff" d="M1777.1,-20.3C1778.72,-29.4 1778.02,-43.65 1777.75,-56 1776.49,-112.68 1777.05,-179.6 1774.09,-212.56"/>
<polygon fill="#63b8ff" stroke="#63b8ff" points="1770.64,-211.93 1772.89,-222.28 1777.58,-212.78 1770.64,-211.93"/>
</a>
</g>
</g>
<!-- Node34&#45;&gt;Node2 -->
<g id="edge38_Node000034_Node000002" class="edge">
<title>Node34&#45;&gt;Node2</title>
<g id="a_edge38_Node000034_Node000002"><a xlink:title=" ">
<path fill="none" stroke="#63b8ff" d="M1803.22,-76.3C1802.13,-102.42 1787.74,-176.92 1777.32,-212.97"/>
<polygon fill="#63b8ff" stroke="#63b8ff" points="1774.09,-211.57 1774.41,-222.16 1780.76,-213.68 1774.09,-211.57"/>
</a>
</g>
</g>
<!-- Node34&#45;&gt;Node33 -->
<g id="edge39_Node000034_Node000033" class="edge">
<title>Node34&#45;&gt;Node33</title>
<g id="a_edge39_Node000034_Node000033"><a xlink:title=" ">
<path fill="none" stroke="#63b8ff" d="M1796.35,-55.59C1792.31,-48.55 1786.63,-38.67 1781.66,-30"/>
<polygon fill="#63b8ff" stroke="#63b8ff" points="1784.86,-28.54 1776.84,-21.61 1778.78,-32.03 1784.86,-28.54"/>
</a>
</g>
</g>
<!-- Node35&#45;&gt;Node2 -->
<g id="edge41_Node000035_Node000002" class="edge">
<title>Node35&#45;&gt;Node2</title>
<g id="a_edge41_Node000035_Node000002"><a xlink:title=" ">
<path fill="none" stroke="#63b8ff" d="M2419.16,-76.36C2437,-98.85 2466.22,-156.45 2436.75,-188 2395.22,-232.46 1969.67,-234.13 1820.2,-233.4"/>
<polygon fill="#63b8ff" stroke="#63b8ff" points="1820.63,-229.91 1810.61,-233.35 1820.59,-236.91 1820.63,-229.91"/>
</a>
</g>
</g>
<!-- Node36&#45;&gt;Node2 -->
<g id="edge43_Node000036_Node000002" class="edge">
<title>Node36&#45;&gt;Node2</title>
<g id="a_edge43_Node000036_Node000002"><a xlink:title=" ">
<path fill="none" stroke="#63b8ff" d="M2515.08,-76.29C2516.52,-99.69 2504.66,-161.11 2465.75,-188 2413.39,-224.19 1973.06,-231.31 1820.47,-232.68"/>
<polygon fill="#63b8ff" stroke="#63b8ff" points="1820.62,-229.18 1810.65,-232.76 1820.68,-236.18 1820.62,-229.18"/>
</a>
</g>
</g>
<!-- Node37&#45;&gt;Node2 -->
<g id="edge45_Node000037_Node000002" class="edge">
<title>Node37&#45;&gt;Node2</title>
<g id="a_edge45_Node000037_Node000002"><a xlink:title=" ">
<path fill="none" stroke="#63b8ff" d="M1889.58,-76.3C1869.09,-102.88 1809.98,-179.53 1782.77,-214.82"/>
<polygon fill="#63b8ff" stroke="#63b8ff" points="1780.26,-212.34 1776.92,-222.4 1785.8,-216.62 1780.26,-212.34"/>
</a>
</g>
</g>
<!-- Node38&#45;&gt;Node1 -->
<g id="edge49_Node000038_Node000001" class="edge">
<title>Node38&#45;&gt;Node1</title>
<g id="a_edge49_Node000038_Node000001"><a xlink:title=" ">
<path fill="none" stroke="#63b8ff" d="M2626.1,-66.61C2693.69,-66.17 2875.58,-69.08 2912.75,-112 2951.16,-156.35 2941.03,-192.6 2912.75,-244 2905.29,-257.55 2891.84,-267.6 2878.64,-274.71"/>
<polygon fill="#63b8ff" stroke="#63b8ff" points="2877.49,-271.38 2870.05,-278.93 2880.57,-277.66 2877.49,-271.38"/>
</a>
</g>
</g>
<!-- Node38&#45;&gt;Node2 -->
<g id="edge48_Node000038_Node000002" class="edge">
<title>Node38&#45;&gt;Node2</title>
<g id="a_edge48_Node000038_Node000002"><a xlink:title=" ">
<path fill="none" stroke="#63b8ff" d="M2599.95,-76.5C2590.94,-100.38 2551.49,-162.82 2498.75,-188 2438.3,-216.86 1976.55,-228.89 1820.21,-232.08"/>
<polygon fill="#63b8ff" stroke="#63b8ff" points="1820.5,-228.58 1810.58,-232.28 1820.64,-235.57 1820.5,-228.58"/>
</a>
</g>
</g>
</g>
</svg>

<g id="navigator" transform="translate(0 0)" fill="#404254">
  <rect fill="#f2f5e9" fill-opacity="0.5" stroke="#606060" stroke-width=".5" x="0" y="0" width="60" height="60"/>
  <use id="zoomplus" xlink:href="#zoomPlus" x="17" y="9" onmousedown="handleZoom(evt,'in')"/>
  <use id="zoomminus" xlink:href="#zoomMin" x="42" y="9" onmousedown="handleZoom(evt,'out')"/>
  <use id="reset" xlink:href="#resetDef" x="30" y="36" onmousedown="handleReset()"/>
   <use id="arrowup" xlink:href="#arrowUp" x="0" y="0" onmousedown="handlePan(0,-1)"/>
  <use id="arrowright" xlink:href="#arrowRight" x="0" y="0" onmousedown="handlePan(1,0)"/>
  <use id="arrowdown" xlink:href="#arrowDown" x="0" y="0" onmousedown="handlePan(0,1)"/>
  <use id="arrowleft" xlink:href="#arrowLeft" x="0" y="0" onmousedown="handlePan(-1,0)"/>
</g>
<svg viewBox="0 0 15 15" width="100%" height="30px" preserveAspectRatio="xMaxYMin meet">
 <g id="arrow_out" transform="scale(0.3 0.3)">
  <a xlink:href="_material_8h__incl_org.svg" target="_base">
   <rect id="button" ry="5" rx="5" y="6" x="6" height="38" width="38"
        fill="#f2f5e9" fill-opacity="0.5" stroke="#606060" stroke-width="1.0"/>
   <path id="arrow"
     d="M 11.500037,31.436501 C 11.940474,20.09759 22.043105,11.32322 32.158766,21.979434 L 37.068811,17.246167 C 37.068811,17.246167 37.088388,32 37.088388,32 L 22.160133,31.978069 C 22.160133,31.978069 26.997745,27.140456 26.997745,27.140456 C 18.528582,18.264221 13.291696,25.230495 11.500037,31.436501 z"
     style="fill:#404040;"/>
  </a>
 </g>
</svg>

<style type='text/css'>
<![CDATA[
[data-mouse-over-selected='false'] { opacity: 0.7; }
[data-mouse-over-selected='true']  { opacity: 1.0; }
]]>
</style>
<script type="application/ecmascript"><![CDATA[
document.addEventListener('DOMContentLoaded', (event) => {
  highlightEdges();
  highlightAdjacentNodes();
});
]]></script>
</svg>
