<?xml version="1.0" encoding="UTF-8" standalone="no"?>
<!DOCTYPE svg PUBLIC "-//W3C//DTD SVG 1.1//EN"
 "http://www.w3.org/Graphics/SVG/1.1/DTD/svg11.dtd">
<!-- Generated by graphviz version 9.0.0 (20230911.1827)
 -->
<!-- Title: src/Material.h Pages: 1 -->
<!--zoomable 308 -->

<svg id="main" version="1.1" xmlns="http://www.w3.org/2000/svg" xmlns:xlink="http://www.w3.org/1999/xlink" xml:space="preserve" onload="init(evt)">
<style type="text/css"><![CDATA[
.node, .edge {opacity: 0.7;}
.node.selected, .edge.selected {opacity: 1;}
.edge:hover path { stroke: red; }
.edge:hover polygon { stroke: red; fill: red; }
]]></style>

<defs>
  <circle id="rim" cx="0" cy="0" r="7"/>
  <circle id="rim2" cx="0" cy="0" r="3.5"/>
  <g id="zoomPlus">
    <use xlink:href="#rim" fill="#404040"><set attributeName="fill" to="#808080" begin="zoomplus.mouseover" end="zoomplus.mouseout"/></use>
    <path d="M-4,0h8M0,-4v8" fill="none" stroke="white" stroke-width="1.5" pointer-events="none"/>
  </g>
  <g id="zoomMin">
    <use xlink:href="#rim" fill="#404040"><set attributeName="fill" to="#808080" begin="zoomminus.mouseover" end="zoomminus.mouseout"/></use>
    <path d="M-4,0h8" fill="none" stroke="white" stroke-width="1.5" pointer-events="none"/>
  </g>
  <g id="arrowUp" transform="translate(30 24)">
    <use xlink:href="#rim"/>
    <path pointer-events="none" fill="none" stroke="white" stroke-width="1.5" d="M0,-3.0v7 M-2.5,-0.5L0,-3.0L2.5,-0.5"/>
  </g>
  <g id="arrowRight" transform="rotate(90) translate(36 -43)">
    <use xlink:href="#rim"/>
    <path pointer-events="none" fill="none" stroke="white" stroke-width="1.5" d="M0,-3.0v7 M-2.5,-0.5L0,-3.0L2.5,-0.5"/>
  </g>
  <g id="arrowDown" transform="rotate(180) translate(-30 -48)">
    <use xlink:href="#rim"/>
    <path pointer-events="none" fill="none" stroke="white" stroke-width="1.5" d="M0,-3.0v7 M-2.5,-0.5L0,-3.0L2.5,-0.5"/>
  </g>
  <g id="arrowLeft" transform="rotate(270) translate(-36 17)">
    <use xlink:href="#rim"/>
    <path pointer-events="none" fill="none" stroke="white" stroke-width="1.5" d="M0,-3.0v7 M-2.5,-0.5L0,-3.0L2.5,-0.5"/>
  </g>
  <g id="resetDef">
    <use xlink:href="#rim2" fill="#404040"><set attributeName="fill" to="#808080" begin="reset.mouseover" end="reset.mouseout"/></use>
  </g>
</defs>
<script type="application/ecmascript">
var viewWidth = 1557;
var viewHeight = 308;
var sectionId = 'dynsection-1';
</script>
<script type="application/ecmascript" xlink:href="svg.min.js"/>
<svg id="graph" class="graph">
<g id="viewport">
<title>src/Material.h</title>
<!-- Node1 -->
<g id="Node000001" class="node">
<title>Node1</title>
<g id="a_Node000001"><a xlink:title=" ">
<polygon fill="#999999" stroke="#666666" points="896.25,-300 821,-300 821,-280 896.25,-280 896.25,-300"/>
<text text-anchor="middle" x="858.62" y="-286.5" font-family="Helvetica,sans-Serif" font-size="10.00">src/Material.h</text>
</a>
</g>
</g>
<!-- Node2 -->
<g id="Node000002" class="node">
<title>Node2</title>
<g id="a_Node000002"><a xlink:href="_direct_x_manager_8h.html" target="_top" xlink:title=" ">
<polygon fill="white" stroke="#666666" points="1005.12,-244 896.12,-244 896.12,-224 1005.12,-224 1005.12,-244"/>
<text text-anchor="middle" x="950.62" y="-230.5" font-family="Helvetica,sans-Serif" font-size="10.00">src/DirectXManager.h</text>
</a>
</g>
</g>
<!-- Node1&#45;&gt;Node2 -->
<g id="edge1_Node000001_Node000002" class="edge">
<title>Node1&#45;&gt;Node2</title>
<g id="a_edge1_Node000001_Node000002"><a xlink:title=" ">
<path fill="none" stroke="#63b8ff" d="M884.5,-273.81C900.55,-264.39 920.67,-252.58 934.47,-244.48"/>
<polygon fill="#63b8ff" stroke="#63b8ff" points="882.81,-270.75 875.96,-278.83 886.35,-276.78 882.81,-270.75"/>
</a>
</g>
</g>
<!-- Node4 -->
<g id="Node000004" class="node">
<title>Node4</title>
<g id="a_Node000004"><a xlink:href="_game_engine_8h.html" target="_top" xlink:title=" ">
<polygon fill="white" stroke="#666666" points="907.12,-188 810.12,-188 810.12,-168 907.12,-168 907.12,-188"/>
<text text-anchor="middle" x="858.62" y="-174.5" font-family="Helvetica,sans-Serif" font-size="10.00">src/GameEngine.h</text>
</a>
</g>
</g>
<!-- Node1&#45;&gt;Node4 -->
<g id="edge59_Node000001_Node000004" class="edge">
<title>Node1&#45;&gt;Node4</title>
<g id="a_edge59_Node000001_Node000004"><a xlink:title=" ">
<path fill="none" stroke="#63b8ff" d="M853.21,-268.31C851.04,-244.36 851.51,-205.95 854.65,-188.35"/>
<polygon fill="#63b8ff" stroke="#63b8ff" points="849.73,-268.64 854.46,-278.12 856.67,-267.76 849.73,-268.64"/>
</a>
</g>
</g>
<!-- Node13 -->
<g id="Node000013" class="node">
<title>Node13</title>
<g id="a_Node000013"><a xlink:href="_model_8h.html" target="_top" xlink:title=" ">
<polygon fill="white" stroke="#666666" points="1360.12,-132 1293.12,-132 1293.12,-112 1360.12,-112 1360.12,-132"/>
<text text-anchor="middle" x="1326.62" y="-118.5" font-family="Helvetica,sans-Serif" font-size="10.00">src/Model.h</text>
</a>
</g>
</g>
<!-- Node1&#45;&gt;Node13 -->
<g id="edge61_Node000001_Node000013" class="edge">
<title>Node1&#45;&gt;Node13</title>
<g id="a_edge61_Node000001_Node000013"><a xlink:title=" ">
<path fill="none" stroke="#63b8ff" d="M907.75,-283.26C1009.33,-270.51 1238.03,-237.05 1297.62,-188 1315.18,-173.55 1322.48,-146.29 1325.2,-132.1"/>
<polygon fill="#63b8ff" stroke="#63b8ff" points="907.58,-279.75 898.08,-284.45 908.44,-286.7 907.58,-279.75"/>
</a>
</g>
</g>
<!-- Node25 -->
<g id="Node000025" class="node">
<title>Node25</title>
<g id="a_Node000025"><a xlink:href="_material_8cpp.html" target="_top" xlink:title=" ">
<polygon fill="white" stroke="#666666" points="1548.5,-76 1462.75,-76 1462.75,-56 1548.5,-56 1548.5,-76"/>
<text text-anchor="middle" x="1505.62" y="-62.5" font-family="Helvetica,sans-Serif" font-size="10.00">src/Material.cpp</text>
</a>
</g>
</g>
<!-- Node1&#45;&gt;Node25 -->
<g id="edge60_Node000001_Node000025" class="edge">
<title>Node1&#45;&gt;Node25</title>
<g id="a_edge60_Node000001_Node000025"><a xlink:title=" ">
<path fill="none" stroke="#63b8ff" d="M907.81,-286.77C973.91,-282.79 1094.55,-272.05 1193.62,-244 1252.59,-227.31 1265.77,-217.24 1319.62,-188 1387.67,-151.05 1463.53,-97.53 1492.98,-76.24"/>
<polygon fill="#63b8ff" stroke="#63b8ff" points="907.81,-283.26 898.02,-287.33 908.21,-290.25 907.81,-283.26"/>
</a>
</g>
</g>
<!-- Node3 -->
<g id="Node000003" class="node">
<title>Node3</title>
<g id="a_Node000003"><a xlink:href="_direct_x_manager_8cpp.html" target="_top" xlink:title=" ">
<polygon fill="white" stroke="#666666" points="1286.38,-76 1166.88,-76 1166.88,-56 1286.38,-56 1286.38,-76"/>
<text text-anchor="middle" x="1226.62" y="-62.5" font-family="Helvetica,sans-Serif" font-size="10.00">src/DirectXManager.cpp</text>
</a>
</g>
</g>
<!-- Node2&#45;&gt;Node3 -->
<g id="edge2_Node000002_Node000003" class="edge">
<title>Node2&#45;&gt;Node3</title>
<g id="a_edge2_Node000002_Node000003"><a xlink:title=" ">
<path fill="none" stroke="#63b8ff" d="M981.98,-218.94C1021.21,-200.85 1089.87,-167.49 1144.62,-132 1171.91,-114.31 1201.13,-89.58 1216.24,-76.3"/>
<polygon fill="#63b8ff" stroke="#63b8ff" points="980.75,-215.65 973.11,-223 983.66,-222.02 980.75,-215.65"/>
</a>
</g>
</g>
<!-- Node2&#45;&gt;Node4 -->
<g id="edge3_Node000002_Node000004" class="edge">
<title>Node2&#45;&gt;Node4</title>
<g id="a_edge3_Node000002_Node000004"><a xlink:title=" ">
<path fill="none" stroke="#63b8ff" d="M919.58,-218.35C902.28,-208.84 881.92,-196.74 869.49,-188.48"/>
<polygon fill="#63b8ff" stroke="#63b8ff" points="917.54,-221.22 928,-222.88 920.85,-215.06 917.54,-221.22"/>
</a>
</g>
</g>
<!-- Node22 -->
<g id="Node000022" class="node">
<title>Node22</title>
<g id="a_Node000022"><a xlink:href="_win32_application_8h.html" target="_top" xlink:title=" ">
<polygon fill="white" stroke="#666666" points="916.88,-132 800.38,-132 800.38,-112 916.88,-112 916.88,-132"/>
<text text-anchor="middle" x="858.62" y="-118.5" font-family="Helvetica,sans-Serif" font-size="10.00">src/Win32Application.h</text>
</a>
</g>
</g>
<!-- Node2&#45;&gt;Node22 -->
<g id="edge58_Node000002_Node000022" class="edge">
<title>Node2&#45;&gt;Node22</title>
<g id="a_edge58_Node000002_Node000022"><a xlink:title=" ">
<path fill="none" stroke="#63b8ff" d="M942.77,-213.71C936.63,-200.06 927.21,-181.81 915.62,-168 903.47,-153.51 885.99,-140.55 873.6,-132.31"/>
<polygon fill="#63b8ff" stroke="#63b8ff" points="939.38,-214.68 946.53,-222.5 945.81,-211.93 939.38,-214.68"/>
</a>
</g>
</g>
<!-- Node4&#45;&gt;Node1 -->
<g id="edge19_Node000004_Node000001" class="edge">
<title>Node4&#45;&gt;Node1</title>
<g id="a_edge19_Node000004_Node000001"><a xlink:title=" ">
<path fill="none" stroke="#63b8ff" d="M864.03,-199.65C866.21,-223.59 865.74,-262.01 862.6,-279.62"/>
<polygon fill="#63b8ff" stroke="#63b8ff" points="867.52,-199.34 862.79,-189.86 860.58,-200.22 867.52,-199.34"/>
</a>
</g>
</g>
<!-- Node4&#45;&gt;Node2 -->
<g id="edge8_Node000004_Node000002" class="edge">
<title>Node4&#45;&gt;Node2</title>
<g id="a_edge8_Node000004_Node000002"><a xlink:title=" ">
<path fill="none" stroke="#63b8ff" d="M889.82,-193.74C907.14,-203.26 927.49,-215.36 939.87,-223.59"/>
<polygon fill="#63b8ff" stroke="#63b8ff" points="891.85,-190.86 881.39,-189.2 888.53,-197.02 891.85,-190.86"/>
</a>
</g>
</g>
<!-- Node5 -->
<g id="Node000005" class="node">
<title>Node5</title>
<g id="a_Node000005"><a xlink:href="_camera_8h.html" target="_top" xlink:title=" ">
<polygon fill="white" stroke="#666666" points="1009.88,-132 935.38,-132 935.38,-112 1009.88,-112 1009.88,-132"/>
<text text-anchor="middle" x="972.62" y="-118.5" font-family="Helvetica,sans-Serif" font-size="10.00">src/Camera.h</text>
</a>
</g>
</g>
<!-- Node4&#45;&gt;Node5 -->
<g id="edge4_Node000004_Node000005" class="edge">
<title>Node4&#45;&gt;Node5</title>
<g id="a_edge4_Node000004_Node000005"><a xlink:title=" ">
<path fill="none" stroke="#63b8ff" d="M883.21,-162.48C902.19,-152.96 928.17,-140.78 947.33,-132.48"/>
<polygon fill="#63b8ff" stroke="#63b8ff" points="881.87,-159.24 874.56,-166.9 885.06,-165.47 881.87,-159.24"/>
</a>
</g>
</g>
<!-- Node7 -->
<g id="Node000007" class="node">
<title>Node7</title>
<g id="a_Node000007"><a xlink:href="_game_engine_8cpp.html" target="_top" xlink:title=" ">
<polygon fill="white" stroke="#666666" points="505.38,-76 397.88,-76 397.88,-56 505.38,-56 505.38,-76"/>
<text text-anchor="middle" x="451.62" y="-62.5" font-family="Helvetica,sans-Serif" font-size="10.00">src/GameEngine.cpp</text>
</a>
</g>
</g>
<!-- Node4&#45;&gt;Node7 -->
<g id="edge9_Node000004_Node000007" class="edge">
<title>Node4&#45;&gt;Node7</title>
<g id="a_edge9_Node000004_Node000007"><a xlink:title=" ">
<path fill="none" stroke="#63b8ff" d="M798.59,-169.89C751.68,-163.22 685.32,-151.32 629.62,-132 611.22,-125.62 608.62,-119.47 590.62,-112 555.72,-97.51 514.36,-84.64 485.88,-76.42"/>
<polygon fill="#63b8ff" stroke="#63b8ff" points="797.9,-173.32 808.28,-171.22 798.86,-166.39 797.9,-173.32"/>
</a>
</g>
</g>
<!-- Node8 -->
<g id="Node000008" class="node">
<title>Node8</title>
<g id="a_Node000008"><a xlink:href="_graphics_device_8h.html" target="_top" xlink:title=" ">
<polygon fill="white" stroke="#666666" points="1135.75,-132 1027.5,-132 1027.5,-112 1135.75,-112 1135.75,-132"/>
<text text-anchor="middle" x="1081.62" y="-118.5" font-family="Helvetica,sans-Serif" font-size="10.00">src/GraphicsDevice.h</text>
</a>
</g>
</g>
<!-- Node4&#45;&gt;Node8 -->
<g id="edge10_Node000004_Node000008" class="edge">
<title>Node4&#45;&gt;Node8</title>
<g id="a_edge10_Node000004_Node000008"><a xlink:title=" ">
<path fill="none" stroke="#63b8ff" d="M903.2,-164.81C942.16,-155.02 998.28,-141.47 1037.2,-132.48"/>
<polygon fill="#63b8ff" stroke="#63b8ff" points="902.51,-161.38 893.67,-167.22 904.22,-168.17 902.51,-161.38"/>
</a>
</g>
</g>
<!-- Node10 -->
<g id="Node000010" class="node">
<title>Node10</title>
<g id="a_Node000010"><a xlink:href="_mesh_8h.html" target="_top" xlink:title=" ">
<polygon fill="white" stroke="#666666" points="1369,-76 1304.25,-76 1304.25,-56 1369,-56 1369,-76"/>
<text text-anchor="middle" x="1336.62" y="-62.5" font-family="Helvetica,sans-Serif" font-size="10.00">src/Mesh.h</text>
</a>
</g>
</g>
<!-- Node4&#45;&gt;Node10 -->
<g id="edge20_Node000004_Node000010" class="edge">
<title>Node4&#45;&gt;Node10</title>
<g id="a_edge20_Node000004_Node000010"><a xlink:title=" ">
<path fill="none" stroke="#63b8ff" d="M918.78,-169.7C975.29,-162.58 1061.77,-150.17 1135.62,-132 1197.65,-116.74 1268.23,-90.45 1307.27,-76.43"/>
<polygon fill="#63b8ff" stroke="#63b8ff" points="918.54,-166.2 909.05,-170.9 919.4,-173.15 918.54,-166.2"/>
</a>
</g>
</g>
<!-- Node4&#45;&gt;Node13 -->
<g id="edge21_Node000004_Node000013" class="edge">
<title>Node4&#45;&gt;Node13</title>
<g id="a_edge21_Node000004_Node000013"><a xlink:title=" ">
<path fill="none" stroke="#63b8ff" d="M918.74,-169.5C1018.33,-157.68 1214.11,-135.14 1292.81,-126.49"/>
<polygon fill="#63b8ff" stroke="#63b8ff" points="918.4,-166.02 908.88,-170.68 919.22,-172.97 918.4,-166.02"/>
</a>
</g>
</g>
<!-- Node14 -->
<g id="Node000014" class="node">
<title>Node14</title>
<g id="a_Node000014"><a xlink:href="_render_state_8h.html" target="_top" xlink:title=" ">
<polygon fill="white" stroke="#666666" points="328,-132 233.25,-132 233.25,-112 328,-112 328,-132"/>
<text text-anchor="middle" x="280.62" y="-118.5" font-family="Helvetica,sans-Serif" font-size="10.00">src/RenderState.h</text>
</a>
</g>
</g>
<!-- Node4&#45;&gt;Node14 -->
<g id="edge26_Node000004_Node000014" class="edge">
<title>Node4&#45;&gt;Node14</title>
<g id="a_edge26_Node000004_Node000014"><a xlink:title=" ">
<path fill="none" stroke="#63b8ff" d="M798.76,-173.57C700.24,-167.29 498.32,-152.7 328.62,-132 328.53,-131.99 328.43,-131.98 328.33,-131.96"/>
<polygon fill="#63b8ff" stroke="#63b8ff" points="798.26,-177.04 808.46,-174.18 798.7,-170.05 798.26,-177.04"/>
</a>
</g>
</g>
<!-- Node16 -->
<g id="Node000016" class="node">
<title>Node16</title>
<g id="a_Node000016"><a xlink:href="_scene_8h.html" target="_top" xlink:title=" ">
<polygon fill="white" stroke="#666666" points="706.88,-132 638.38,-132 638.38,-112 706.88,-112 706.88,-132"/>
<text text-anchor="middle" x="672.62" y="-118.5" font-family="Helvetica,sans-Serif" font-size="10.00">src/Scene.h</text>
</a>
</g>
</g>
<!-- Node4&#45;&gt;Node16 -->
<g id="edge31_Node000004_Node000016" class="edge">
<title>Node4&#45;&gt;Node16</title>
<g id="a_edge31_Node000004_Node000016"><a xlink:title=" ">
<path fill="none" stroke="#63b8ff" d="M815.34,-164.43C781.73,-154.67 735.85,-141.35 705.28,-132.48"/>
<polygon fill="#63b8ff" stroke="#63b8ff" points="814.19,-167.74 824.77,-167.17 816.15,-161.02 814.19,-167.74"/>
</a>
</g>
</g>
<!-- Node18 -->
<g id="Node000018" class="node">
<title>Node18</title>
<g id="a_Node000018"><a xlink:href="_shader_manager_8h.html" target="_top" xlink:title=" ">
<polygon fill="white" stroke="#666666" points="582.12,-132 473.12,-132 473.12,-112 582.12,-112 582.12,-132"/>
<text text-anchor="middle" x="527.62" y="-118.5" font-family="Helvetica,sans-Serif" font-size="10.00">src/ShaderManager.h</text>
</a>
</g>
</g>
<!-- Node4&#45;&gt;Node18 -->
<g id="edge33_Node000004_Node000018" class="edge">
<title>Node4&#45;&gt;Node18</title>
<g id="a_edge33_Node000004_Node000018"><a xlink:title=" ">
<path fill="none" stroke="#63b8ff" d="M798.69,-167.22C737.13,-157.18 642.1,-141.68 582.46,-131.95"/>
<polygon fill="#63b8ff" stroke="#63b8ff" points="797.86,-170.63 808.29,-168.79 798.99,-163.72 797.86,-170.63"/>
</a>
</g>
</g>
<!-- Node20 -->
<g id="Node000020" class="node">
<title>Node20</title>
<g id="a_Node000020"><a xlink:href="_shader_program_8h.html" target="_top" xlink:title=" ">
<polygon fill="white" stroke="#666666" points="454.75,-132 346.5,-132 346.5,-112 454.75,-112 454.75,-132"/>
<text text-anchor="middle" x="400.62" y="-118.5" font-family="Helvetica,sans-Serif" font-size="10.00">src/ShaderProgram.h</text>
</a>
</g>
</g>
<!-- Node4&#45;&gt;Node20 -->
<g id="edge36_Node000004_Node000020" class="edge">
<title>Node4&#45;&gt;Node20</title>
<g id="a_edge36_Node000004_Node000020"><a xlink:title=" ">
<path fill="none" stroke="#63b8ff" d="M798.61,-171.34C719.55,-163.25 576.61,-147.65 455,-132.05"/>
<polygon fill="#63b8ff" stroke="#63b8ff" points="798,-174.79 808.3,-172.32 798.7,-167.83 798,-174.79"/>
</a>
</g>
</g>
<!-- Node4&#45;&gt;Node22 -->
<g id="edge41_Node000004_Node000022" class="edge">
<title>Node4&#45;&gt;Node22</title>
<g id="a_edge41_Node000004_Node000022"><a xlink:title=" ">
<path fill="none" stroke="#63b8ff" d="M852.05,-156.43C851.59,-148.11 852.04,-138.93 853.38,-132.3"/>
<polygon fill="#63b8ff" stroke="#63b8ff" points="848.54,-156.57 853.18,-166.09 855.49,-155.75 848.54,-156.57"/>
</a>
</g>
</g>
<!-- Node24 -->
<g id="Node000024" class="node">
<title>Node24</title>
<g id="a_Node000024"><a xlink:href="pch_8h.html" target="_top" xlink:title=" ">
<polygon fill="white" stroke="#666666" points="781.88,-132 725.38,-132 725.38,-112 781.88,-112 781.88,-132"/>
<text text-anchor="middle" x="753.62" y="-118.5" font-family="Helvetica,sans-Serif" font-size="10.00">src/pch.h</text>
</a>
</g>
</g>
<!-- Node4&#45;&gt;Node24 -->
<g id="edge44_Node000004_Node000024" class="edge">
<title>Node4&#45;&gt;Node24</title>
<g id="a_edge44_Node000004_Node000024"><a xlink:title=" ">
<path fill="none" stroke="#63b8ff" d="M830.13,-162.35C811.65,-152.84 788.11,-140.74 772.06,-132.48"/>
<polygon fill="#63b8ff" stroke="#63b8ff" points="828.5,-165.44 838.99,-166.9 831.7,-159.22 828.5,-165.44"/>
</a>
</g>
</g>
<!-- Node5&#45;&gt;Node2 -->
<g id="edge6_Node000005_Node000002" class="edge">
<title>Node5&#45;&gt;Node2</title>
<g id="a_edge6_Node000005_Node000002"><a xlink:title=" ">
<path fill="none" stroke="#63b8ff" d="M968.56,-143.32C963.78,-167.24 956.04,-205.92 952.5,-223.62"/>
<polygon fill="#63b8ff" stroke="#63b8ff" points="971.93,-144.33 970.46,-133.84 965.06,-142.96 971.93,-144.33"/>
</a>
</g>
</g>
<!-- Node5&#45;&gt;Node4 -->
<g id="edge7_Node000005_Node000004" class="edge">
<title>Node5&#45;&gt;Node4</title>
<g id="a_edge7_Node000005_Node000004"><a xlink:title=" ">
<path fill="none" stroke="#63b8ff" d="M947.87,-137.6C928.85,-147.14 902.87,-159.32 883.75,-167.59"/>
<polygon fill="#63b8ff" stroke="#63b8ff" points="949.23,-140.84 956.55,-133.17 946.05,-134.6 949.23,-140.84"/>
</a>
</g>
</g>
<!-- Node6 -->
<g id="Node000006" class="node">
<title>Node6</title>
<g id="a_Node000006"><a xlink:href="_camera_8cpp.html" target="_top" xlink:title=" ">
<polygon fill="white" stroke="#666666" points="1012.12,-76 927.12,-76 927.12,-56 1012.12,-56 1012.12,-76"/>
<text text-anchor="middle" x="969.62" y="-62.5" font-family="Helvetica,sans-Serif" font-size="10.00">src/Camera.cpp</text>
</a>
</g>
</g>
<!-- Node5&#45;&gt;Node6 -->
<g id="edge5_Node000005_Node000006" class="edge">
<title>Node5&#45;&gt;Node6</title>
<g id="a_edge5_Node000005_Node000006"><a xlink:title=" ">
<path fill="none" stroke="#63b8ff" d="M971.47,-100.13C971.01,-91.9 970.51,-82.85 970.14,-76.3"/>
<polygon fill="#63b8ff" stroke="#63b8ff" points="967.97,-100.29 972.02,-110.08 974.96,-99.9 967.97,-100.29"/>
</a>
</g>
</g>
<!-- Node8&#45;&gt;Node2 -->
<g id="edge11_Node000008_Node000002" class="edge">
<title>Node8&#45;&gt;Node2</title>
<g id="a_edge11_Node000008_Node000002"><a xlink:title=" ">
<path fill="none" stroke="#63b8ff" d="M1061.96,-139.52C1034.09,-162.92 984.03,-204.95 961.79,-223.62"/>
<polygon fill="#63b8ff" stroke="#63b8ff" points="1063.92,-142.44 1069.33,-133.33 1059.42,-137.08 1063.92,-142.44"/>
</a>
</g>
</g>
<!-- Node8&#45;&gt;Node4 -->
<g id="edge12_Node000008_Node000004" class="edge">
<title>Node8&#45;&gt;Node4</title>
<g id="a_edge12_Node000008_Node000004"><a xlink:title=" ">
<path fill="none" stroke="#63b8ff" d="M1036.84,-135.24C997.88,-145.03 941.85,-158.56 903,-167.53"/>
<polygon fill="#63b8ff" stroke="#63b8ff" points="1037.54,-138.67 1046.38,-132.83 1035.83,-131.89 1037.54,-138.67"/>
</a>
</g>
</g>
<!-- Node9 -->
<g id="Node000009" class="node">
<title>Node9</title>
<g id="a_Node000009"><a xlink:href="_graphics_device_8cpp.html" target="_top" xlink:title=" ">
<polygon fill="white" stroke="#666666" points="1149,-76 1030.25,-76 1030.25,-56 1149,-56 1149,-76"/>
<text text-anchor="middle" x="1089.62" y="-62.5" font-family="Helvetica,sans-Serif" font-size="10.00">src/GraphicsDevice.cpp</text>
</a>
</g>
</g>
<!-- Node8&#45;&gt;Node9 -->
<g id="edge13_Node000008_Node000009" class="edge">
<title>Node8&#45;&gt;Node9</title>
<g id="a_edge13_Node000008_Node000009"><a xlink:title=" ">
<path fill="none" stroke="#63b8ff" d="M1084.67,-100.43C1085.91,-92.11 1087.26,-82.93 1088.25,-76.3"/>
<polygon fill="#63b8ff" stroke="#63b8ff" points="1081.24,-99.69 1083.24,-110.1 1088.17,-100.72 1081.24,-99.69"/>
</a>
</g>
</g>
<!-- Node8&#45;&gt;Node10 -->
<g id="edge14_Node000008_Node000010" class="edge">
<title>Node8&#45;&gt;Node10</title>
<g id="a_edge14_Node000008_Node000010"><a xlink:title=" ">
<path fill="none" stroke="#63b8ff" d="M1138.28,-109.23C1181.43,-100.23 1242.3,-87.46 1295.62,-76 1298.33,-75.42 1301.14,-74.81 1303.96,-74.2"/>
<polygon fill="#63b8ff" stroke="#63b8ff" points="1137.71,-105.77 1128.63,-111.24 1139.14,-112.62 1137.71,-105.77"/>
</a>
</g>
</g>
<!-- Node10&#45;&gt;Node2 -->
<g id="edge15_Node000010_Node000002" class="edge">
<title>Node10&#45;&gt;Node2</title>
<g id="a_edge15_Node000010_Node000002"><a xlink:title=" ">
<path fill="none" stroke="#63b8ff" d="M1308.19,-81.59C1261.26,-105.39 1164.33,-153.39 1079.62,-188 1046.25,-201.63 1007.03,-214.94 980.67,-223.5"/>
<polygon fill="#63b8ff" stroke="#63b8ff" points="1309.55,-84.82 1316.87,-77.17 1306.37,-78.59 1309.55,-84.82"/>
</a>
</g>
</g>
<!-- Node10&#45;&gt;Node4 -->
<g id="edge16_Node000010_Node000004" class="edge">
<title>Node10&#45;&gt;Node4</title>
<g id="a_edge16_Node000010_Node000004"><a xlink:title=" ">
<path fill="none" stroke="#63b8ff" d="M1308.26,-80.87C1272.53,-95.48 1209.59,-118.23 1153.62,-132 1068.45,-152.96 966.51,-166.25 907.38,-172.59"/>
<polygon fill="#63b8ff" stroke="#63b8ff" points="1309.59,-84.11 1317.46,-77.02 1306.89,-77.65 1309.59,-84.11"/>
</a>
</g>
</g>
<!-- Node11 -->
<g id="Node000011" class="node">
<title>Node11</title>
<g id="a_Node000011"><a xlink:href="_mesh_8cpp.html" target="_top" xlink:title=" ">
<polygon fill="white" stroke="#666666" points="1421.25,-20 1346,-20 1346,0 1421.25,0 1421.25,-20"/>
<text text-anchor="middle" x="1383.62" y="-6.5" font-family="Helvetica,sans-Serif" font-size="10.00">src/Mesh.cpp</text>
</a>
</g>
</g>
<!-- Node10&#45;&gt;Node11 -->
<g id="edge17_Node000010_Node000011" class="edge">
<title>Node10&#45;&gt;Node11</title>
<g id="a_edge17_Node000010_Node000011"><a xlink:title=" ">
<path fill="none" stroke="#63b8ff" d="M1352.29,-47C1360.07,-38.06 1369.16,-27.62 1375.53,-20.3"/>
<polygon fill="#63b8ff" stroke="#63b8ff" points="1349.73,-44.61 1345.81,-54.45 1355.01,-49.21 1349.73,-44.61"/>
</a>
</g>
</g>
<!-- Node12 -->
<g id="Node000012" class="node">
<title>Node12</title>
<g id="a_Node000012"><a xlink:href="_model_8cpp.html" target="_top" xlink:title=" ">
<polygon fill="white" stroke="#666666" points="1328.38,-20 1250.88,-20 1250.88,0 1328.38,0 1328.38,-20"/>
<text text-anchor="middle" x="1289.62" y="-6.5" font-family="Helvetica,sans-Serif" font-size="10.00">src/Model.cpp</text>
</a>
</g>
</g>
<!-- Node10&#45;&gt;Node12 -->
<g id="edge18_Node000010_Node000012" class="edge">
<title>Node10&#45;&gt;Node12</title>
<g id="a_edge18_Node000010_Node000012"><a xlink:title=" ">
<path fill="none" stroke="#63b8ff" d="M1320.96,-47C1313.18,-38.06 1304.09,-27.62 1297.72,-20.3"/>
<polygon fill="#63b8ff" stroke="#63b8ff" points="1318.24,-49.21 1327.44,-54.45 1323.52,-44.61 1318.24,-49.21"/>
</a>
</g>
</g>
<!-- Node13&#45;&gt;Node2 -->
<g id="edge22_Node000013_Node000002" class="edge">
<title>Node13&#45;&gt;Node2</title>
<g id="a_edge22_Node000013_Node000002"><a xlink:title=" ">
<path fill="none" stroke="#63b8ff" d="M1315.76,-142.29C1306.19,-157.34 1290.79,-177.43 1271.62,-188 1226.97,-212.62 1084.64,-224.94 1005.32,-230.03"/>
<polygon fill="#63b8ff" stroke="#63b8ff" points="1318.76,-144.09 1320.89,-133.71 1312.75,-140.49 1318.76,-144.09"/>
</a>
</g>
</g>
<!-- Node13&#45;&gt;Node4 -->
<g id="edge23_Node000013_Node000004" class="edge">
<title>Node13&#45;&gt;Node4</title>
<g id="a_edge23_Node000013_Node000004"><a xlink:title=" ">
<path fill="none" stroke="#63b8ff" d="M1281.4,-128.72C1192.99,-139.3 998.3,-161.76 907.24,-171.87"/>
<polygon fill="#63b8ff" stroke="#63b8ff" points="1281.64,-132.22 1291.15,-127.55 1280.8,-125.27 1281.64,-132.22"/>
</a>
</g>
</g>
<!-- Node13&#45;&gt;Node11 -->
<g id="edge24_Node000013_Node000011" class="edge">
<title>Node13&#45;&gt;Node11</title>
<g id="a_edge24_Node000013_Node000011"><a xlink:title=" ">
<path fill="none" stroke="#63b8ff" d="M1361.3,-106.36C1373.83,-99.17 1386.6,-89.17 1393.62,-76 1403.18,-58.07 1394.62,-33.65 1388.51,-20.43"/>
<polygon fill="#63b8ff" stroke="#63b8ff" points="1360,-103.09 1352.76,-110.83 1363.24,-109.3 1360,-103.09"/>
</a>
</g>
</g>
<!-- Node13&#45;&gt;Node12 -->
<g id="edge25_Node000013_Node000012" class="edge">
<title>Node13&#45;&gt;Node12</title>
<g id="a_edge25_Node000013_Node000012"><a xlink:title=" ">
<path fill="none" stroke="#63b8ff" d="M1352.85,-105.2C1370.44,-92.49 1388.55,-73.86 1377.62,-56 1366.7,-38.14 1346.2,-27.09 1327.74,-20.4"/>
<polygon fill="#63b8ff" stroke="#63b8ff" points="1350.92,-102.28 1344.57,-110.76 1354.82,-108.09 1350.92,-102.28"/>
</a>
</g>
</g>
<!-- Node14&#45;&gt;Node1 -->
<g id="edge29_Node000014_Node000001" class="edge">
<title>Node14&#45;&gt;Node1</title>
<g id="a_edge29_Node000014_Node000001"><a xlink:title=" ">
<path fill="none" stroke="#63b8ff" d="M321.62,-135.84C394.43,-158.52 551.24,-206.79 684.62,-244 731.36,-257.04 785.52,-270.84 820.84,-279.67"/>
<polygon fill="#63b8ff" stroke="#63b8ff" points="322.7,-132.51 312.11,-132.87 320.62,-139.19 322.7,-132.51"/>
</a>
</g>
</g>
<!-- Node14&#45;&gt;Node2 -->
<g id="edge27_Node000014_Node000002" class="edge">
<title>Node14&#45;&gt;Node2</title>
<g id="a_edge27_Node000014_Node000002"><a xlink:title=" ">
<path fill="none" stroke="#63b8ff" d="M339.28,-134.14C410.79,-147.58 535.39,-170.54 642.62,-188 731.03,-202.39 834.07,-217.01 895.74,-225.53"/>
<polygon fill="#63b8ff" stroke="#63b8ff" points="340.23,-130.76 329.75,-132.35 338.93,-137.64 340.23,-130.76"/>
</a>
</g>
</g>
<!-- Node14&#45;&gt;Node4 -->
<g id="edge28_Node000014_Node000004" class="edge">
<title>Node14&#45;&gt;Node4</title>
<g id="a_edge28_Node000014_Node000004"><a xlink:title=" ">
<path fill="none" stroke="#63b8ff" d="M339.62,-131.1C341.99,-131.42 344.33,-131.72 346.62,-132 516.5,-152.72 718.68,-167.33 809.9,-173.59"/>
<polygon fill="#63b8ff" stroke="#63b8ff" points="340.29,-127.66 329.9,-129.73 339.31,-134.59 340.29,-127.66"/>
</a>
</g>
</g>
<!-- Node15 -->
<g id="Node000015" class="node">
<title>Node15</title>
<g id="a_Node000015"><a xlink:href="_render_state_8cpp.html" target="_top" xlink:title=" ">
<polygon fill="white" stroke="#666666" points="105.25,-76 0,-76 0,-56 105.25,-56 105.25,-76"/>
<text text-anchor="middle" x="52.62" y="-62.5" font-family="Helvetica,sans-Serif" font-size="10.00">src/RenderState.cpp</text>
</a>
</g>
</g>
<!-- Node14&#45;&gt;Node15 -->
<g id="edge30_Node000014_Node000015" class="edge">
<title>Node14&#45;&gt;Node15</title>
<g id="a_edge30_Node000014_Node000015"><a xlink:title=" ">
<path fill="none" stroke="#63b8ff" d="M229.7,-108.94C188.29,-99.13 130.68,-85.49 92.55,-76.46"/>
<polygon fill="#63b8ff" stroke="#63b8ff" points="228.64,-112.28 239.18,-111.18 230.25,-105.47 228.64,-112.28"/>
</a>
</g>
</g>
<!-- Node17 -->
<g id="Node000017" class="node">
<title>Node17</title>
<g id="a_Node000017"><a xlink:href="_scene_8cpp.html" target="_top" xlink:title=" ">
<polygon fill="white" stroke="#666666" points="602.12,-76 523.12,-76 523.12,-56 602.12,-56 602.12,-76"/>
<text text-anchor="middle" x="562.62" y="-62.5" font-family="Helvetica,sans-Serif" font-size="10.00">src/Scene.cpp</text>
</a>
</g>
</g>
<!-- Node16&#45;&gt;Node17 -->
<g id="edge32_Node000016_Node000017" class="edge">
<title>Node16&#45;&gt;Node17</title>
<g id="a_edge32_Node000016_Node000017"><a xlink:title=" ">
<path fill="none" stroke="#63b8ff" d="M643.32,-106.61C623.88,-97.07 598.91,-84.81 581.94,-76.48"/>
<polygon fill="#63b8ff" stroke="#63b8ff" points="641.59,-109.66 652.11,-110.93 644.67,-103.38 641.59,-109.66"/>
</a>
</g>
</g>
<!-- Node18&#45;&gt;Node2 -->
<g id="edge34_Node000018_Node000002" class="edge">
<title>Node18&#45;&gt;Node2</title>
<g id="a_edge34_Node000018_Node000002"><a xlink:title=" ">
<path fill="none" stroke="#63b8ff" d="M583.4,-134.88C622.95,-143.51 677.22,-155.78 724.62,-168 794.8,-186.09 876.31,-210.34 919.7,-223.52"/>
<polygon fill="#63b8ff" stroke="#63b8ff" points="584.39,-131.51 573.87,-132.81 582.9,-138.35 584.39,-131.51"/>
</a>
</g>
</g>
<!-- Node19 -->
<g id="Node000019" class="node">
<title>Node19</title>
<g id="a_Node000019"><a xlink:href="_shader_manager_8cpp.html" target="_top" xlink:title=" ">
<polygon fill="white" stroke="#666666" points="379.38,-76 259.88,-76 259.88,-56 379.38,-56 379.38,-76"/>
<text text-anchor="middle" x="319.62" y="-62.5" font-family="Helvetica,sans-Serif" font-size="10.00">src/ShaderManager.cpp</text>
</a>
</g>
</g>
<!-- Node18&#45;&gt;Node19 -->
<g id="edge35_Node000018_Node000019" class="edge">
<title>Node18&#45;&gt;Node19</title>
<g id="a_edge35_Node000018_Node000019"><a xlink:title=" ">
<path fill="none" stroke="#63b8ff" d="M480.68,-108.81C442.97,-99.02 390.77,-85.47 356.14,-76.48"/>
<polygon fill="#63b8ff" stroke="#63b8ff" points="479.37,-112.09 489.93,-111.21 481.13,-105.31 479.37,-112.09"/>
</a>
</g>
</g>
<!-- Node20&#45;&gt;Node1 -->
<g id="edge39_Node000020_Node000001" class="edge">
<title>Node20&#45;&gt;Node1</title>
<g id="a_edge39_Node000020_Node000001"><a xlink:title=" ">
<path fill="none" stroke="#63b8ff" d="M437.28,-136.28C526.91,-168.77 755.47,-251.61 832.69,-279.6"/>
<polygon fill="#63b8ff" stroke="#63b8ff" points="438.58,-133.03 427.98,-132.92 436.19,-139.61 438.58,-133.03"/>
</a>
</g>
</g>
<!-- Node20&#45;&gt;Node2 -->
<g id="edge37_Node000020_Node000002" class="edge">
<title>Node20&#45;&gt;Node2</title>
<g id="a_edge37_Node000020_Node000002"><a xlink:title=" ">
<path fill="none" stroke="#63b8ff" d="M466.14,-134.17C514.94,-142.74 583.13,-155.22 642.62,-168 679.3,-175.88 688,-179.89 724.62,-188 784.58,-201.27 853.89,-214.81 899.78,-223.52"/>
<polygon fill="#63b8ff" stroke="#63b8ff" points="467.04,-130.78 456.59,-132.5 465.84,-137.67 467.04,-130.78"/>
</a>
</g>
</g>
<!-- Node20&#45;&gt;Node4 -->
<g id="edge38_Node000020_Node000004" class="edge">
<title>Node20&#45;&gt;Node4</title>
<g id="a_edge38_Node000020_Node000004"><a xlink:title=" ">
<path fill="none" stroke="#63b8ff" d="M466.11,-131.15C468.31,-131.44 470.49,-131.73 472.62,-132 593.8,-147.55 736.24,-163.11 809.64,-171.23"/>
<polygon fill="#63b8ff" stroke="#63b8ff" points="466.83,-127.71 456.45,-129.85 465.89,-134.65 466.83,-127.71"/>
</a>
</g>
</g>
<!-- Node21 -->
<g id="Node000021" class="node">
<title>Node21</title>
<g id="a_Node000021"><a xlink:href="_shader_program_8cpp.html" target="_top" xlink:title=" ">
<polygon fill="white" stroke="#666666" points="242,-76 123.25,-76 123.25,-56 242,-56 242,-76"/>
<text text-anchor="middle" x="182.62" y="-62.5" font-family="Helvetica,sans-Serif" font-size="10.00">src/ShaderProgram.cpp</text>
</a>
</g>
</g>
<!-- Node20&#45;&gt;Node21 -->
<g id="edge40_Node000020_Node000021" class="edge">
<title>Node20&#45;&gt;Node21</title>
<g id="a_edge40_Node000020_Node000021"><a xlink:title=" ">
<path fill="none" stroke="#63b8ff" d="M351.42,-108.81C311.87,-99.01 257.1,-85.45 220.8,-76.46"/>
<polygon fill="#63b8ff" stroke="#63b8ff" points="350.39,-112.16 360.93,-111.17 352.07,-105.37 350.39,-112.16"/>
</a>
</g>
</g>
<!-- Node22&#45;&gt;Node4 -->
<g id="edge42_Node000022_Node000004" class="edge">
<title>Node22&#45;&gt;Node4</title>
<g id="a_edge42_Node000022_Node000004"><a xlink:title=" ">
<path fill="none" stroke="#63b8ff" d="M865.21,-143.73C865.65,-151.96 865.21,-161.01 863.89,-167.59"/>
<polygon fill="#63b8ff" stroke="#63b8ff" points="868.69,-143.33 864.05,-133.8 861.73,-144.14 868.69,-143.33"/>
</a>
</g>
</g>
<!-- Node23 -->
<g id="Node000023" class="node">
<title>Node23</title>
<g id="a_Node000023"><a xlink:href="_win32_application_8cpp.html" target="_top" xlink:title=" ">
<polygon fill="white" stroke="#666666" points="909.12,-76 782.12,-76 782.12,-56 909.12,-56 909.12,-76"/>
<text text-anchor="middle" x="845.62" y="-62.5" font-family="Helvetica,sans-Serif" font-size="10.00">src/Win32Application.cpp</text>
</a>
</g>
</g>
<!-- Node22&#45;&gt;Node23 -->
<g id="edge43_Node000022_Node000023" class="edge">
<title>Node22&#45;&gt;Node23</title>
<g id="a_edge43_Node000022_Node000023"><a xlink:title=" ">
<path fill="none" stroke="#63b8ff" d="M853.67,-100.43C851.67,-92.11 849.46,-82.93 847.86,-76.3"/>
<polygon fill="#63b8ff" stroke="#63b8ff" points="850.26,-101.22 856.01,-110.12 857.07,-99.58 850.26,-101.22"/>
</a>
</g>
</g>
<!-- Node24&#45;&gt;Node3 -->
<g id="edge46_Node000024_Node000003" class="edge">
<title>Node24&#45;&gt;Node3</title>
<g id="a_edge46_Node000024_Node000003"><a xlink:title=" ">
<path fill="none" stroke="#63b8ff" d="M793.48,-111.93C954.81,-85.52 998.88,-94.16 1157.62,-76 1160.51,-75.67 1163.45,-75.32 1166.43,-74.97"/>
<polygon fill="#63b8ff" stroke="#63b8ff" points="792.96,-108.47 783.67,-113.56 794.11,-115.37 792.96,-108.47"/>
</a>
</g>
</g>
<!-- Node24&#45;&gt;Node6 -->
<g id="edge45_Node000024_Node000006" class="edge">
<title>Node24&#45;&gt;Node6</title>
<g id="a_edge45_Node000024_Node000006"><a xlink:title=" ">
<path fill="none" stroke="#63b8ff" d="M793.35,-111.07C832.82,-101.2 892.91,-86.18 931.73,-76.47"/>
<polygon fill="#63b8ff" stroke="#63b8ff" points="792.63,-107.64 783.78,-113.46 794.33,-114.43 792.63,-107.64"/>
</a>
</g>
</g>
<!-- Node24&#45;&gt;Node7 -->
<g id="edge47_Node000024_Node000007" class="edge">
<title>Node24&#45;&gt;Node7</title>
<g id="a_edge47_Node000024_Node000007"><a xlink:title=" ">
<path fill="none" stroke="#63b8ff" d="M714.01,-111.79C635.8,-96.06 556.75,-83.14 505.66,-75.18"/>
<polygon fill="#63b8ff" stroke="#63b8ff" points="713.05,-115.16 723.55,-113.72 714.45,-108.3 713.05,-115.16"/>
</a>
</g>
</g>
<!-- Node24&#45;&gt;Node9 -->
<g id="edge48_Node000024_Node000009" class="edge">
<title>Node24&#45;&gt;Node9</title>
<g id="a_edge48_Node000024_Node000009"><a xlink:title=" ">
<path fill="none" stroke="#63b8ff" d="M793.42,-111.84C851.39,-101.17 961.26,-85.2 1029.97,-75.41"/>
<polygon fill="#63b8ff" stroke="#63b8ff" points="792.86,-108.38 783.69,-113.68 794.17,-115.26 792.86,-108.38"/>
</a>
</g>
</g>
<!-- Node24&#45;&gt;Node11 -->
<g id="edge50_Node000024_Node000011" class="edge">
<title>Node24&#45;&gt;Node11</title>
<g id="a_edge50_Node000024_Node000011"><a xlink:title=" ">
<path fill="none" stroke="#63b8ff" d="M753.77,-100.56C755.06,-85.76 759.43,-66.56 772.62,-56 821.73,-16.69 1275.24,-28.06 1337.62,-20 1340.21,-19.67 1342.86,-19.28 1345.53,-18.85"/>
<polygon fill="#63b8ff" stroke="#63b8ff" points="750.29,-100.02 753.35,-110.16 757.28,-100.33 750.29,-100.02"/>
</a>
</g>
</g>
<!-- Node24&#45;&gt;Node12 -->
<g id="edge51_Node000024_Node000012" class="edge">
<title>Node24&#45;&gt;Node12</title>
<g id="a_edge51_Node000024_Node000012"><a xlink:title=" ">
<path fill="none" stroke="#63b8ff" d="M741.62,-101.89C734.28,-87.54 728.28,-68.31 739.62,-56 774.16,-18.53 1131.15,-12.26 1250.79,-11.21"/>
<polygon fill="#63b8ff" stroke="#63b8ff" points="738.48,-103.45 746.47,-110.4 744.56,-99.98 738.48,-103.45"/>
</a>
</g>
</g>
<!-- Node24&#45;&gt;Node15 -->
<g id="edge52_Node000024_Node000015" class="edge">
<title>Node24&#45;&gt;Node15</title>
<g id="a_edge52_Node000024_Node000015"><a xlink:title=" ">
<path fill="none" stroke="#63b8ff" d="M713.96,-112.06C448.94,-73.84 377.18,-102.87 114.62,-76 111.7,-75.7 108.71,-75.36 105.69,-75"/>
<polygon fill="#63b8ff" stroke="#63b8ff" points="713.19,-115.48 723.6,-113.47 714.21,-108.55 713.19,-115.48"/>
</a>
</g>
</g>
<!-- Node24&#45;&gt;Node17 -->
<g id="edge53_Node000024_Node000017" class="edge">
<title>Node24&#45;&gt;Node17</title>
<g id="a_edge53_Node000024_Node000017"><a xlink:title=" ">
<path fill="none" stroke="#63b8ff" d="M714.28,-109.88C679.35,-100 628.88,-85.73 595.92,-76.41"/>
<polygon fill="#63b8ff" stroke="#63b8ff" points="713,-113.15 723.57,-112.5 714.9,-106.42 713,-113.15"/>
</a>
</g>
</g>
<!-- Node24&#45;&gt;Node19 -->
<g id="edge54_Node000024_Node000019" class="edge">
<title>Node24&#45;&gt;Node19</title>
<g id="a_edge54_Node000024_Node000019"><a xlink:title=" ">
<path fill="none" stroke="#63b8ff" d="M714.03,-111.94C569.64,-87.4 530.25,-93.03 388.62,-76 385.75,-75.65 382.8,-75.29 379.83,-74.92"/>
<polygon fill="#63b8ff" stroke="#63b8ff" points="713.13,-115.34 723.58,-113.58 714.32,-108.44 713.13,-115.34"/>
</a>
</g>
</g>
<!-- Node24&#45;&gt;Node21 -->
<g id="edge55_Node000024_Node000021" class="edge">
<title>Node24&#45;&gt;Node21</title>
<g id="a_edge55_Node000024_Node000021"><a xlink:title=" ">
<path fill="none" stroke="#63b8ff" d="M713.93,-112.01C508.88,-80.62 453.16,-97.23 250.62,-76 247.9,-75.71 245.12,-75.41 242.31,-75.09"/>
<polygon fill="#63b8ff" stroke="#63b8ff" points="713.17,-115.43 723.59,-113.51 714.24,-108.51 713.17,-115.43"/>
</a>
</g>
</g>
<!-- Node24&#45;&gt;Node23 -->
<g id="edge56_Node000024_Node000023" class="edge">
<title>Node24&#45;&gt;Node23</title>
<g id="a_edge56_Node000024_Node000023"><a xlink:title=" ">
<path fill="none" stroke="#63b8ff" d="M779.5,-105.81C795.55,-96.39 815.67,-84.58 829.47,-76.48"/>
<polygon fill="#63b8ff" stroke="#63b8ff" points="777.81,-102.75 770.96,-110.83 781.35,-108.78 777.81,-102.75"/>
</a>
</g>
</g>
<!-- Node24&#45;&gt;Node25 -->
<g id="edge49_Node000024_Node000025" class="edge">
<title>Node24&#45;&gt;Node25</title>
<g id="a_edge49_Node000024_Node000025"><a xlink:title=" ">
<path fill="none" stroke="#63b8ff" d="M793.41,-112.03C1051.7,-74.33 1120.94,-92.91 1377.62,-76 1405.86,-74.14 1437.58,-71.91 1462.38,-70.14"/>
<polygon fill="#63b8ff" stroke="#63b8ff" points="793.04,-108.55 783.65,-113.47 794.06,-115.47 793.04,-108.55"/>
</a>
</g>
</g>
<!-- Node26 -->
<g id="Node000026" class="node">
<title>Node26</title>
<g id="a_Node000026"><a xlink:href="pch_8cpp.html" target="_top" xlink:title=" ">
<polygon fill="white" stroke="#666666" points="687.12,-76 620.12,-76 620.12,-56 687.12,-56 687.12,-76"/>
<text text-anchor="middle" x="653.62" y="-62.5" font-family="Helvetica,sans-Serif" font-size="10.00">src/pch.cpp</text>
</a>
</g>
</g>
<!-- Node24&#45;&gt;Node26 -->
<g id="edge57_Node000024_Node000026" class="edge">
<title>Node24&#45;&gt;Node26</title>
<g id="a_edge57_Node000024_Node000026"><a xlink:title=" ">
<path fill="none" stroke="#63b8ff" d="M726.49,-106.35C708.89,-96.84 686.47,-84.74 671.18,-76.48"/>
<polygon fill="#63b8ff" stroke="#63b8ff" points="724.41,-109.2 734.87,-110.87 727.74,-103.04 724.41,-109.2"/>
</a>
</g>
</g>
</g>
</svg>

<g id="navigator" transform="translate(0 0)" fill="#404254">
  <rect fill="#f2f5e9" fill-opacity="0.5" stroke="#606060" stroke-width=".5" x="0" y="0" width="60" height="60"/>
  <use id="zoomplus" xlink:href="#zoomPlus" x="17" y="9" onmousedown="handleZoom(evt,'in')"/>
  <use id="zoomminus" xlink:href="#zoomMin" x="42" y="9" onmousedown="handleZoom(evt,'out')"/>
  <use id="reset" xlink:href="#resetDef" x="30" y="36" onmousedown="handleReset()"/>
   <use id="arrowup" xlink:href="#arrowUp" x="0" y="0" onmousedown="handlePan(0,-1)"/>
  <use id="arrowright" xlink:href="#arrowRight" x="0" y="0" onmousedown="handlePan(1,0)"/>
  <use id="arrowdown" xlink:href="#arrowDown" x="0" y="0" onmousedown="handlePan(0,1)"/>
  <use id="arrowleft" xlink:href="#arrowLeft" x="0" y="0" onmousedown="handlePan(-1,0)"/>
</g>
<svg viewBox="0 0 15 15" width="100%" height="30px" preserveAspectRatio="xMaxYMin meet">
 <g id="arrow_out" transform="scale(0.3 0.3)">
  <a xlink:href="_material_8h__dep__incl_org.svg" target="_base">
   <rect id="button" ry="5" rx="5" y="6" x="6" height="38" width="38"
        fill="#f2f5e9" fill-opacity="0.5" stroke="#606060" stroke-width="1.0"/>
   <path id="arrow"
     d="M 11.500037,31.436501 C 11.940474,20.09759 22.043105,11.32322 32.158766,21.979434 L 37.068811,17.246167 C 37.068811,17.246167 37.088388,32 37.088388,32 L 22.160133,31.978069 C 22.160133,31.978069 26.997745,27.140456 26.997745,27.140456 C 18.528582,18.264221 13.291696,25.230495 11.500037,31.436501 z"
     style="fill:#404040;"/>
  </a>
 </g>
</svg>

<style type='text/css'>
<![CDATA[
[data-mouse-over-selected='false'] { opacity: 0.7; }
[data-mouse-over-selected='true']  { opacity: 1.0; }
]]>
</style>
<script type="application/ecmascript"><![CDATA[
document.addEventListener('DOMContentLoaded', (event) => {
  highlightEdges();
  highlightAdjacentNodes();
});
]]></script>
</svg>
