<?xml version="1.0" encoding="UTF-8" standalone="no"?>
<!DOCTYPE svg PUBLIC "-//W3C//DTD SVG 1.1//EN"
 "http://www.w3.org/Graphics/SVG/1.1/DTD/svg11.dtd">
<!-- Generated by graphviz version 9.0.0 (20230911.1827)
 -->
<!-- Title: src/Mesh.h Pages: 1 -->
<!--zoomable 364 -->

<svg id="main" version="1.1" xmlns="http://www.w3.org/2000/svg" xmlns:xlink="http://www.w3.org/1999/xlink" xml:space="preserve" onload="init(evt)">
<style type="text/css"><![CDATA[
.node, .edge {opacity: 0.7;}
.node.selected, .edge.selected {opacity: 1;}
.edge:hover path { stroke: red; }
.edge:hover polygon { stroke: red; fill: red; }
]]></style>

<defs>
  <circle id="rim" cx="0" cy="0" r="7"/>
  <circle id="rim2" cx="0" cy="0" r="3.5"/>
  <g id="zoomPlus">
    <use xlink:href="#rim" fill="#404040"><set attributeName="fill" to="#808080" begin="zoomplus.mouseover" end="zoomplus.mouseout"/></use>
    <path d="M-4,0h8M0,-4v8" fill="none" stroke="white" stroke-width="1.5" pointer-events="none"/>
  </g>
  <g id="zoomMin">
    <use xlink:href="#rim" fill="#404040"><set attributeName="fill" to="#808080" begin="zoomminus.mouseover" end="zoomminus.mouseout"/></use>
    <path d="M-4,0h8" fill="none" stroke="white" stroke-width="1.5" pointer-events="none"/>
  </g>
  <g id="arrowUp" transform="translate(30 24)">
    <use xlink:href="#rim"/>
    <path pointer-events="none" fill="none" stroke="white" stroke-width="1.5" d="M0,-3.0v7 M-2.5,-0.5L0,-3.0L2.5,-0.5"/>
  </g>
  <g id="arrowRight" transform="rotate(90) translate(36 -43)">
    <use xlink:href="#rim"/>
    <path pointer-events="none" fill="none" stroke="white" stroke-width="1.5" d="M0,-3.0v7 M-2.5,-0.5L0,-3.0L2.5,-0.5"/>
  </g>
  <g id="arrowDown" transform="rotate(180) translate(-30 -48)">
    <use xlink:href="#rim"/>
    <path pointer-events="none" fill="none" stroke="white" stroke-width="1.5" d="M0,-3.0v7 M-2.5,-0.5L0,-3.0L2.5,-0.5"/>
  </g>
  <g id="arrowLeft" transform="rotate(270) translate(-36 17)">
    <use xlink:href="#rim"/>
    <path pointer-events="none" fill="none" stroke="white" stroke-width="1.5" d="M0,-3.0v7 M-2.5,-0.5L0,-3.0L2.5,-0.5"/>
  </g>
  <g id="resetDef">
    <use xlink:href="#rim2" fill="#404040"><set attributeName="fill" to="#808080" begin="reset.mouseover" end="reset.mouseout"/></use>
  </g>
</defs>
<script type="application/ecmascript">
var viewWidth = 1575;
var viewHeight = 364;
var sectionId = 'dynsection-1';
</script>
<script type="application/ecmascript" xlink:href="svg.min.js"/>
<svg id="graph" class="graph">
<g id="viewport">
<title>src/Mesh.h</title>
<!-- Node1 -->
<g id="Node000001" class="node">
<title>Node1</title>
<g id="a_Node000001"><a xlink:title=" ">
<polygon fill="#999999" stroke="#666666" points="765.38,-356 700.62,-356 700.62,-336 765.38,-336 765.38,-356"/>
<text text-anchor="middle" x="733" y="-342.5" font-family="Helvetica,sans-Serif" font-size="10.00">src/Mesh.h</text>
</a>
</g>
</g>
<!-- Node2 -->
<g id="Node000002" class="node">
<title>Node2</title>
<g id="a_Node000002"><a xlink:href="_direct_x_manager_8h.html" target="_top" xlink:title=" ">
<polygon fill="white" stroke="#666666" points="879.5,-300 770.5,-300 770.5,-280 879.5,-280 879.5,-300"/>
<text text-anchor="middle" x="825" y="-286.5" font-family="Helvetica,sans-Serif" font-size="10.00">src/DirectXManager.h</text>
</a>
</g>
</g>
<!-- Node1&#45;&gt;Node2 -->
<g id="edge1_Node000001_Node000002" class="edge">
<title>Node1&#45;&gt;Node2</title>
<g id="a_edge1_Node000001_Node000002"><a xlink:title=" ">
<path fill="none" stroke="#63b8ff" d="M758.88,-329.81C774.93,-320.39 795.04,-308.58 808.85,-300.48"/>
<polygon fill="#63b8ff" stroke="#63b8ff" points="757.18,-326.75 750.33,-334.83 760.73,-332.78 757.18,-326.75"/>
</a>
</g>
</g>
<!-- Node4 -->
<g id="Node000004" class="node">
<title>Node4</title>
<g id="a_Node000004"><a xlink:href="_game_engine_8h.html" target="_top" xlink:title=" ">
<polygon fill="white" stroke="#666666" points="788.5,-244 691.5,-244 691.5,-224 788.5,-224 788.5,-244"/>
<text text-anchor="middle" x="740" y="-230.5" font-family="Helvetica,sans-Serif" font-size="10.00">src/GameEngine.h</text>
</a>
</g>
</g>
<!-- Node1&#45;&gt;Node4 -->
<g id="edge59_Node000001_Node000004" class="edge">
<title>Node1&#45;&gt;Node4</title>
<g id="a_edge59_Node000001_Node000004"><a xlink:title=" ">
<path fill="none" stroke="#63b8ff" d="M728.91,-324.31C728.25,-300.36 731.17,-261.95 735.43,-244.35"/>
<polygon fill="#63b8ff" stroke="#63b8ff" points="725.4,-324.35 729.52,-334.11 732.39,-323.91 725.4,-324.35"/>
</a>
</g>
</g>
<!-- Node13 -->
<g id="Node000013" class="node">
<title>Node13</title>
<g id="a_Node000013"><a xlink:href="_mesh_8cpp.html" target="_top" xlink:title=" ">
<polygon fill="white" stroke="#666666" points="122.62,-20 47.38,-20 47.38,0 122.62,0 122.62,-20"/>
<text text-anchor="middle" x="85" y="-6.5" font-family="Helvetica,sans-Serif" font-size="10.00">src/Mesh.cpp</text>
</a>
</g>
</g>
<!-- Node1&#45;&gt;Node13 -->
<g id="edge60_Node000001_Node000013" class="edge">
<title>Node1&#45;&gt;Node13</title>
<g id="a_edge60_Node000001_Node000013"><a xlink:title=" ">
<path fill="none" stroke="#63b8ff" d="M689.44,-343.09C531.75,-335.6 0,-305.15 0,-235 0,-235 0,-235 0,-121 0,-75.39 46.33,-37.17 70.58,-20.29"/>
<polygon fill="#63b8ff" stroke="#63b8ff" points="688.89,-346.57 699.05,-343.54 689.22,-339.57 688.89,-346.57"/>
</a>
</g>
</g>
<!-- Node14 -->
<g id="Node000014" class="node">
<title>Node14</title>
<g id="a_Node000014"><a xlink:href="_model_8cpp.html" target="_top" xlink:title=" ">
<polygon fill="white" stroke="#666666" points="756.75,-20 679.25,-20 679.25,0 756.75,0 756.75,-20"/>
<text text-anchor="middle" x="718" y="-6.5" font-family="Helvetica,sans-Serif" font-size="10.00">src/Model.cpp</text>
</a>
</g>
</g>
<!-- Node1&#45;&gt;Node14 -->
<g id="edge61_Node000001_Node000014" class="edge">
<title>Node1&#45;&gt;Node14</title>
<g id="a_edge61_Node000001_Node000014"><a xlink:title=" ">
<path fill="none" stroke="#63b8ff" d="M777.07,-343.87C949.25,-338.9 1567,-315.44 1567,-235 1567,-235 1567,-235 1567,-121 1567,-38.23 924.22,-16.22 757.25,-11.9"/>
<polygon fill="#63b8ff" stroke="#63b8ff" points="777.1,-340.37 767.21,-344.15 777.3,-347.37 777.1,-340.37"/>
</a>
</g>
</g>
<!-- Node3 -->
<g id="Node000003" class="node">
<title>Node3</title>
<g id="a_Node000003"><a xlink:href="_direct_x_manager_8cpp.html" target="_top" xlink:title=" ">
<polygon fill="white" stroke="#666666" points="1445.75,-132 1326.25,-132 1326.25,-112 1445.75,-112 1445.75,-132"/>
<text text-anchor="middle" x="1386" y="-118.5" font-family="Helvetica,sans-Serif" font-size="10.00">src/DirectXManager.cpp</text>
</a>
</g>
</g>
<!-- Node2&#45;&gt;Node3 -->
<g id="edge2_Node000002_Node000003" class="edge">
<title>Node2&#45;&gt;Node3</title>
<g id="a_edge2_Node000002_Node000003"><a xlink:title=" ">
<path fill="none" stroke="#63b8ff" d="M891.18,-284.46C986.11,-275.89 1164.64,-252.02 1302,-188 1332.75,-173.67 1362.69,-146.36 1377.1,-132.13"/>
<polygon fill="#63b8ff" stroke="#63b8ff" points="890.91,-280.97 881.25,-285.33 891.52,-287.95 890.91,-280.97"/>
</a>
</g>
</g>
<!-- Node2&#45;&gt;Node4 -->
<g id="edge3_Node000002_Node000004" class="edge">
<title>Node2&#45;&gt;Node4</title>
<g id="a_edge3_Node000002_Node000004"><a xlink:title=" ">
<path fill="none" stroke="#63b8ff" d="M795.41,-274.08C779.44,-264.62 760.89,-252.66 749.64,-244.48"/>
<polygon fill="#63b8ff" stroke="#63b8ff" points="793.21,-276.85 803.62,-278.84 796.72,-270.8 793.21,-276.85"/>
</a>
</g>
</g>
<!-- Node23 -->
<g id="Node000023" class="node">
<title>Node23</title>
<g id="a_Node000023"><a xlink:href="_win32_application_8h.html" target="_top" xlink:title=" ">
<polygon fill="white" stroke="#666666" points="1293.25,-188 1176.75,-188 1176.75,-168 1293.25,-168 1293.25,-188"/>
<text text-anchor="middle" x="1235" y="-174.5" font-family="Helvetica,sans-Serif" font-size="10.00">src/Win32Application.h</text>
</a>
</g>
</g>
<!-- Node2&#45;&gt;Node23 -->
<g id="edge58_Node000002_Node000023" class="edge">
<title>Node2&#45;&gt;Node23</title>
<g id="a_edge58_Node000002_Node000023"><a xlink:title=" ">
<path fill="none" stroke="#63b8ff" d="M871.38,-276.56C954.15,-254.35 1125.55,-208.36 1199.63,-188.49"/>
<polygon fill="#63b8ff" stroke="#63b8ff" points="870.52,-273.16 861.77,-279.13 872.34,-279.92 870.52,-273.16"/>
</a>
</g>
</g>
<!-- Node4&#45;&gt;Node1 -->
<g id="edge24_Node000004_Node000001" class="edge">
<title>Node4&#45;&gt;Node1</title>
<g id="a_edge24_Node000004_Node000001"><a xlink:title=" ">
<path fill="none" stroke="#63b8ff" d="M744.09,-255.65C744.75,-279.59 741.83,-318.01 737.58,-335.62"/>
<polygon fill="#63b8ff" stroke="#63b8ff" points="747.6,-255.62 743.48,-245.87 740.61,-256.07 747.6,-255.62"/>
</a>
</g>
</g>
<!-- Node4&#45;&gt;Node2 -->
<g id="edge8_Node000004_Node000002" class="edge">
<title>Node4&#45;&gt;Node2</title>
<g id="a_edge8_Node000004_Node000002"><a xlink:title=" ">
<path fill="none" stroke="#63b8ff" d="M769.74,-250C785.72,-259.48 804.25,-271.44 815.46,-279.59"/>
<polygon fill="#63b8ff" stroke="#63b8ff" points="771.92,-247.22 761.51,-245.24 768.41,-253.28 771.92,-247.22"/>
</a>
</g>
</g>
<!-- Node5 -->
<g id="Node000005" class="node">
<title>Node5</title>
<g id="a_Node000005"><a xlink:href="_camera_8h.html" target="_top" xlink:title=" ">
<polygon fill="white" stroke="#666666" points="536.25,-188 461.75,-188 461.75,-168 536.25,-168 536.25,-188"/>
<text text-anchor="middle" x="499" y="-174.5" font-family="Helvetica,sans-Serif" font-size="10.00">src/Camera.h</text>
</a>
</g>
</g>
<!-- Node4&#45;&gt;Node5 -->
<g id="edge4_Node000004_Node000005" class="edge">
<title>Node4&#45;&gt;Node5</title>
<g id="a_edge4_Node000004_Node000005"><a xlink:title=" ">
<path fill="none" stroke="#63b8ff" d="M681.3,-221.13C635.95,-211.31 574.67,-197.54 535.93,-188.46"/>
<polygon fill="#63b8ff" stroke="#63b8ff" points="680.47,-224.53 690.99,-223.21 681.95,-217.68 680.47,-224.53"/>
</a>
</g>
</g>
<!-- Node7 -->
<g id="Node000007" class="node">
<title>Node7</title>
<g id="a_Node000007"><a xlink:href="_game_engine_8cpp.html" target="_top" xlink:title=" ">
<polygon fill="white" stroke="#666666" points="468.75,-132 361.25,-132 361.25,-112 468.75,-112 468.75,-132"/>
<text text-anchor="middle" x="415" y="-118.5" font-family="Helvetica,sans-Serif" font-size="10.00">src/GameEngine.cpp</text>
</a>
</g>
</g>
<!-- Node4&#45;&gt;Node7 -->
<g id="edge9_Node000004_Node000007" class="edge">
<title>Node4&#45;&gt;Node7</title>
<g id="a_edge9_Node000004_Node000007"><a xlink:title=" ">
<path fill="none" stroke="#63b8ff" d="M687.26,-220.77C656.36,-212.9 616.86,-201.6 583,-188 565.29,-180.89 562.51,-175.59 545,-168 512.13,-153.76 473.15,-140.76 446.5,-132.43"/>
<polygon fill="#63b8ff" stroke="#63b8ff" points="686.21,-224.12 696.76,-223.15 687.91,-217.33 686.21,-224.12"/>
</a>
</g>
</g>
<!-- Node8 -->
<g id="Node000008" class="node">
<title>Node8</title>
<g id="a_Node000008"><a xlink:href="_graphics_device_8h.html" target="_top" xlink:title=" ">
<polygon fill="white" stroke="#666666" points="264.12,-188 155.88,-188 155.88,-168 264.12,-168 264.12,-188"/>
<text text-anchor="middle" x="210" y="-174.5" font-family="Helvetica,sans-Serif" font-size="10.00">src/GraphicsDevice.h</text>
</a>
</g>
</g>
<!-- Node4&#45;&gt;Node8 -->
<g id="edge10_Node000004_Node000008" class="edge">
<title>Node4&#45;&gt;Node8</title>
<g id="a_edge10_Node000004_Node000008"><a xlink:title=" ">
<path fill="none" stroke="#63b8ff" d="M679.78,-228.3C589.96,-220.71 416.07,-204.89 269,-188 267.46,-187.82 265.9,-187.64 264.34,-187.46"/>
<polygon fill="#63b8ff" stroke="#63b8ff" points="679.33,-231.78 689.59,-229.12 679.92,-224.8 679.33,-231.78"/>
</a>
</g>
</g>
<!-- Node10 -->
<g id="Node000010" class="node">
<title>Node10</title>
<g id="a_Node000010"><a xlink:href="_material_8h.html" target="_top" xlink:title=" ">
<polygon fill="white" stroke="#666666" points="1538.62,-132 1463.38,-132 1463.38,-112 1538.62,-112 1538.62,-132"/>
<text text-anchor="middle" x="1501" y="-118.5" font-family="Helvetica,sans-Serif" font-size="10.00">src/Material.h</text>
</a>
</g>
</g>
<!-- Node4&#45;&gt;Node10 -->
<g id="edge15_Node000004_Node000010" class="edge">
<title>Node4&#45;&gt;Node10</title>
<g id="a_edge15_Node000004_Node000010"><a xlink:title=" ">
<path fill="none" stroke="#63b8ff" d="M799.79,-223.47C847.62,-215.79 916.04,-203.68 975,-188 1000.95,-181.1 1005.75,-173.65 1032,-168 1212.56,-129.12 1263.11,-157.77 1446,-132 1451.48,-131.23 1457.29,-130.23 1463.05,-129.18"/>
<polygon fill="#63b8ff" stroke="#63b8ff" points="799.52,-219.97 790.2,-225 800.62,-226.88 799.52,-219.97"/>
</a>
</g>
</g>
<!-- Node12 -->
<g id="Node000012" class="node">
<title>Node12</title>
<g id="a_Node000012"><a xlink:href="_model_8h.html" target="_top" xlink:title=" ">
<polygon fill="white" stroke="#666666" points="118.5,-76 51.5,-76 51.5,-56 118.5,-56 118.5,-76"/>
<text text-anchor="middle" x="85" y="-62.5" font-family="Helvetica,sans-Serif" font-size="10.00">src/Model.h</text>
</a>
</g>
</g>
<!-- Node4&#45;&gt;Node12 -->
<g id="edge25_Node000004_Node000012" class="edge">
<title>Node4&#45;&gt;Node12</title>
<g id="a_edge25_Node000004_Node000012"><a xlink:title=" ">
<path fill="none" stroke="#63b8ff" d="M679.9,-225.48C525.62,-205.19 126.56,-149.64 104,-132 86.19,-118.07 79.52,-90.59 80.51,-76.23"/>
<polygon fill="#63b8ff" stroke="#63b8ff" points="679.14,-228.91 689.51,-226.74 680.05,-221.97 679.14,-228.91"/>
</a>
</g>
</g>
<!-- Node15 -->
<g id="Node000015" class="node">
<title>Node15</title>
<g id="a_Node000015"><a xlink:href="_render_state_8h.html" target="_top" xlink:title=" ">
<polygon fill="white" stroke="#666666" points="848.38,-188 753.62,-188 753.62,-168 848.38,-168 848.38,-188"/>
<text text-anchor="middle" x="801" y="-174.5" font-family="Helvetica,sans-Serif" font-size="10.00">src/RenderState.h</text>
</a>
</g>
</g>
<!-- Node4&#45;&gt;Node15 -->
<g id="edge26_Node000004_Node000015" class="edge">
<title>Node4&#45;&gt;Node15</title>
<g id="a_edge26_Node000004_Node000015"><a xlink:title=" ">
<path fill="none" stroke="#63b8ff" d="M753.33,-215.57C762.8,-206.5 775.29,-195.78 785.25,-188.3"/>
<polygon fill="#63b8ff" stroke="#63b8ff" points="750.99,-212.96 746.43,-222.52 755.96,-217.89 750.99,-212.96"/>
</a>
</g>
</g>
<!-- Node17 -->
<g id="Node000017" class="node">
<title>Node17</title>
<g id="a_Node000017"><a xlink:href="_scene_8h.html" target="_top" xlink:title=" ">
<polygon fill="white" stroke="#666666" points="660.25,-188 591.75,-188 591.75,-168 660.25,-168 660.25,-188"/>
<text text-anchor="middle" x="626" y="-174.5" font-family="Helvetica,sans-Serif" font-size="10.00">src/Scene.h</text>
</a>
</g>
</g>
<!-- Node4&#45;&gt;Node17 -->
<g id="edge31_Node000004_Node000017" class="edge">
<title>Node4&#45;&gt;Node17</title>
<g id="a_edge31_Node000004_Node000017"><a xlink:title=" ">
<path fill="none" stroke="#63b8ff" d="M709.91,-218.75C689.72,-209.18 663.69,-196.85 646.01,-188.48"/>
<polygon fill="#63b8ff" stroke="#63b8ff" points="708.24,-221.83 718.77,-222.95 711.24,-215.5 708.24,-221.83"/>
</a>
</g>
</g>
<!-- Node19 -->
<g id="Node000019" class="node">
<title>Node19</title>
<g id="a_Node000019"><a xlink:href="_shader_manager_8h.html" target="_top" xlink:title=" ">
<polygon fill="white" stroke="#666666" points="1158.5,-188 1049.5,-188 1049.5,-168 1158.5,-168 1158.5,-188"/>
<text text-anchor="middle" x="1104" y="-174.5" font-family="Helvetica,sans-Serif" font-size="10.00">src/ShaderManager.h</text>
</a>
</g>
</g>
<!-- Node4&#45;&gt;Node19 -->
<g id="edge33_Node000004_Node000019" class="edge">
<title>Node4&#45;&gt;Node19</title>
<g id="a_edge33_Node000004_Node000019"><a xlink:title=" ">
<path fill="none" stroke="#63b8ff" d="M799.85,-224.12C869.04,-213.86 981.99,-197.1 1049.04,-187.15"/>
<polygon fill="#63b8ff" stroke="#63b8ff" points="799.59,-220.62 790.21,-225.55 800.62,-227.55 799.59,-220.62"/>
</a>
</g>
</g>
<!-- Node21 -->
<g id="Node000021" class="node">
<title>Node21</title>
<g id="a_Node000021"><a xlink:href="_shader_program_8h.html" target="_top" xlink:title=" ">
<polygon fill="white" stroke="#666666" points="975.12,-188 866.88,-188 866.88,-168 975.12,-168 975.12,-188"/>
<text text-anchor="middle" x="921" y="-174.5" font-family="Helvetica,sans-Serif" font-size="10.00">src/ShaderProgram.h</text>
</a>
</g>
</g>
<!-- Node4&#45;&gt;Node21 -->
<g id="edge36_Node000004_Node000021" class="edge">
<title>Node4&#45;&gt;Node21</title>
<g id="a_edge36_Node000004_Node000021"><a xlink:title=" ">
<path fill="none" stroke="#63b8ff" d="M777.14,-220.18C808.39,-210.44 852.71,-197.28 883.94,-188.48"/>
<polygon fill="#63b8ff" stroke="#63b8ff" points="776.2,-216.8 767.7,-223.14 778.29,-223.48 776.2,-216.8"/>
</a>
</g>
</g>
<!-- Node4&#45;&gt;Node23 -->
<g id="edge41_Node000004_Node000023" class="edge">
<title>Node4&#45;&gt;Node23</title>
<g id="a_edge41_Node000004_Node000023"><a xlink:title=" ">
<path fill="none" stroke="#63b8ff" d="M799.96,-226.63C881.38,-218.41 1031.11,-203.31 1159,-188 1164.59,-187.33 1170.44,-186.6 1176.32,-185.84"/>
<polygon fill="#63b8ff" stroke="#63b8ff" points="800.04,-223.11 790.44,-227.6 800.74,-230.07 800.04,-223.11"/>
</a>
</g>
</g>
<!-- Node25 -->
<g id="Node000025" class="node">
<title>Node25</title>
<g id="a_Node000025"><a xlink:href="pch_8h.html" target="_top" xlink:title=" ">
<polygon fill="white" stroke="#666666" points="735.25,-188 678.75,-188 678.75,-168 735.25,-168 735.25,-188"/>
<text text-anchor="middle" x="707" y="-174.5" font-family="Helvetica,sans-Serif" font-size="10.00">src/pch.h</text>
</a>
</g>
</g>
<!-- Node4&#45;&gt;Node25 -->
<g id="edge44_Node000004_Node000025" class="edge">
<title>Node4&#45;&gt;Node25</title>
<g id="a_edge44_Node000004_Node000025"><a xlink:title=" ">
<path fill="none" stroke="#63b8ff" d="M728.31,-213.87C723,-205.19 716.97,-195.32 712.68,-188.3"/>
<polygon fill="#63b8ff" stroke="#63b8ff" points="725.26,-215.59 733.46,-222.3 731.23,-211.94 725.26,-215.59"/>
</a>
</g>
</g>
<!-- Node5&#45;&gt;Node2 -->
<g id="edge6_Node000005_Node000002" class="edge">
<title>Node5&#45;&gt;Node2</title>
<g id="a_edge6_Node000005_Node000002"><a xlink:title=" ">
<path fill="none" stroke="#63b8ff" d="M535.57,-192.31C572.61,-205.71 631.62,-226.79 683,-244 721.13,-256.77 765.33,-270.63 794.16,-279.55"/>
<polygon fill="#63b8ff" stroke="#63b8ff" points="536.83,-189.05 526.23,-188.93 534.44,-195.63 536.83,-189.05"/>
</a>
</g>
</g>
<!-- Node5&#45;&gt;Node4 -->
<g id="edge7_Node000005_Node000004" class="edge">
<title>Node5&#45;&gt;Node4</title>
<g id="a_edge7_Node000005_Node000004"><a xlink:title=" ">
<path fill="none" stroke="#63b8ff" d="M547.9,-188.76C593.84,-198.63 661.41,-213.77 703.02,-223.53"/>
<polygon fill="#63b8ff" stroke="#63b8ff" points="548.71,-185.36 538.2,-186.69 547.25,-192.2 548.71,-185.36"/>
</a>
</g>
</g>
<!-- Node6 -->
<g id="Node000006" class="node">
<title>Node6</title>
<g id="a_Node000006"><a xlink:href="_camera_8cpp.html" target="_top" xlink:title=" ">
<polygon fill="white" stroke="#666666" points="343.5,-132 258.5,-132 258.5,-112 343.5,-112 343.5,-132"/>
<text text-anchor="middle" x="301" y="-118.5" font-family="Helvetica,sans-Serif" font-size="10.00">src/Camera.cpp</text>
</a>
</g>
</g>
<!-- Node5&#45;&gt;Node6 -->
<g id="edge5_Node000005_Node000006" class="edge">
<title>Node5&#45;&gt;Node6</title>
<g id="a_edge5_Node000005_Node000006"><a xlink:title=" ">
<path fill="none" stroke="#63b8ff" d="M453.85,-164.69C417.99,-154.91 368.58,-141.43 335.76,-132.48"/>
<polygon fill="#63b8ff" stroke="#63b8ff" points="452.48,-167.94 463.05,-167.2 454.32,-161.19 452.48,-167.94"/>
</a>
</g>
</g>
<!-- Node8&#45;&gt;Node1 -->
<g id="edge14_Node000008_Node000001" class="edge">
<title>Node8&#45;&gt;Node1</title>
<g id="a_edge14_Node000008_Node000001"><a xlink:title=" ">
<path fill="none" stroke="#63b8ff" d="M250.3,-191.79C351.54,-223.92 614.76,-307.47 703.38,-335.6"/>
<polygon fill="#63b8ff" stroke="#63b8ff" points="251.65,-188.55 241.06,-188.86 249.53,-195.22 251.65,-188.55"/>
</a>
</g>
</g>
<!-- Node8&#45;&gt;Node2 -->
<g id="edge11_Node000008_Node000002" class="edge">
<title>Node8&#45;&gt;Node2</title>
<g id="a_edge11_Node000008_Node000002"><a xlink:title=" ">
<path fill="none" stroke="#63b8ff" d="M274.05,-190.46C395.98,-212.26 659.3,-259.36 772.03,-279.53"/>
<polygon fill="#63b8ff" stroke="#63b8ff" points="275.01,-187.07 264.55,-188.76 273.77,-193.96 275.01,-187.07"/>
</a>
</g>
</g>
<!-- Node8&#45;&gt;Node4 -->
<g id="edge12_Node000008_Node000004" class="edge">
<title>Node8&#45;&gt;Node4</title>
<g id="a_edge12_Node000008_Node000004"><a xlink:title=" ">
<path fill="none" stroke="#63b8ff" d="M275.92,-186.68C279.68,-187.14 283.39,-187.59 287,-188 434.11,-204.89 608.06,-220.72 691.2,-228.31"/>
<polygon fill="#63b8ff" stroke="#63b8ff" points="276.43,-183.22 266.08,-185.46 275.57,-190.17 276.43,-183.22"/>
</a>
</g>
</g>
<!-- Node9 -->
<g id="Node000009" class="node">
<title>Node9</title>
<g id="a_Node000009"><a xlink:href="_graphics_device_8cpp.html" target="_top" xlink:title=" ">
<polygon fill="white" stroke="#666666" points="240.38,-132 121.62,-132 121.62,-112 240.38,-112 240.38,-132"/>
<text text-anchor="middle" x="181" y="-118.5" font-family="Helvetica,sans-Serif" font-size="10.00">src/GraphicsDevice.cpp</text>
</a>
</g>
</g>
<!-- Node8&#45;&gt;Node9 -->
<g id="edge13_Node000008_Node000009" class="edge">
<title>Node8&#45;&gt;Node9</title>
<g id="a_edge13_Node000008_Node000009"><a xlink:title=" ">
<path fill="none" stroke="#63b8ff" d="M199.57,-157.58C194.95,-148.97 189.72,-139.24 185.99,-132.3"/>
<polygon fill="#63b8ff" stroke="#63b8ff" points="196.42,-159.11 204.23,-166.26 202.58,-155.79 196.42,-159.11"/>
</a>
</g>
</g>
<!-- Node10&#45;&gt;Node2 -->
<g id="edge16_Node000010_Node000002" class="edge">
<title>Node10&#45;&gt;Node2</title>
<g id="a_edge16_Node000010_Node000002"><a xlink:title=" ">
<path fill="none" stroke="#63b8ff" d="M1465.99,-136.48C1431.81,-149.63 1378.34,-170.2 1332,-188 1267.12,-212.92 1253.42,-227.13 1186,-244 1079.54,-270.63 951.3,-281.84 879.88,-286.3"/>
<polygon fill="#63b8ff" stroke="#63b8ff" points="1466.89,-139.88 1474.96,-133.02 1464.37,-133.35 1466.89,-139.88"/>
</a>
</g>
</g>
<!-- Node10&#45;&gt;Node4 -->
<g id="edge17_Node000010_Node000004" class="edge">
<title>Node10&#45;&gt;Node4</title>
<g id="a_edge17_Node000010_Node000004"><a xlink:title=" ">
<path fill="none" stroke="#63b8ff" d="M1451.64,-133.69C1278.73,-156.49 1226.42,-130.01 1050,-168 1023.75,-173.65 1018.95,-181.1 993,-188 923.27,-206.54 840.33,-220.09 788.8,-227.23"/>
<polygon fill="#63b8ff" stroke="#63b8ff" points="1451.99,-137.17 1461.43,-132.35 1451.05,-130.23 1451.99,-137.17"/>
</a>
</g>
</g>
<!-- Node11 -->
<g id="Node000011" class="node">
<title>Node11</title>
<g id="a_Node000011"><a xlink:href="_material_8cpp.html" target="_top" xlink:title=" ">
<polygon fill="white" stroke="#666666" points="1185.88,-76 1100.12,-76 1100.12,-56 1185.88,-56 1185.88,-76"/>
<text text-anchor="middle" x="1143" y="-62.5" font-family="Helvetica,sans-Serif" font-size="10.00">src/Material.cpp</text>
</a>
</g>
</g>
<!-- Node10&#45;&gt;Node11 -->
<g id="edge18_Node000010_Node000011" class="edge">
<title>Node10&#45;&gt;Node11</title>
<g id="a_edge18_Node000010_Node000011"><a xlink:title=" ">
<path fill="none" stroke="#63b8ff" d="M1452.07,-111.57C1351.28,-94.66 1244.41,-80.15 1186.26,-72.54"/>
<polygon fill="#63b8ff" stroke="#63b8ff" points="1451.44,-115.01 1461.88,-113.23 1452.6,-108.11 1451.44,-115.01"/>
</a>
</g>
</g>
<!-- Node10&#45;&gt;Node12 -->
<g id="edge19_Node000010_Node000012" class="edge">
<title>Node10&#45;&gt;Node12</title>
<g id="a_edge19_Node000010_Node000012"><a xlink:title=" ">
<path fill="none" stroke="#63b8ff" d="M1451.59,-111.81C1161.27,-80.98 300.17,-69.49 118.77,-67.37"/>
<polygon fill="#63b8ff" stroke="#63b8ff" points="1451.09,-115.28 1461.42,-112.9 1451.86,-108.32 1451.09,-115.28"/>
</a>
</g>
</g>
<!-- Node12&#45;&gt;Node2 -->
<g id="edge20_Node000012_Node000002" class="edge">
<title>Node12&#45;&gt;Node2</title>
<g id="a_edge20_Node000012_Node000002"><a xlink:title=" ">
<path fill="none" stroke="#63b8ff" d="M84.67,-87.58C85.21,-100.85 87.35,-118.15 94,-132 108.84,-162.89 116.85,-171.71 147,-188 254.9,-246.32 628.6,-276.2 770.11,-285.63"/>
<polygon fill="#63b8ff" stroke="#63b8ff" points="88.17,-87.81 84.57,-77.85 81.17,-87.88 88.17,-87.81"/>
</a>
</g>
</g>
<!-- Node12&#45;&gt;Node4 -->
<g id="edge21_Node000012_Node000004" class="edge">
<title>Node12&#45;&gt;Node4</title>
<g id="a_edge21_Node000012_Node000004"><a xlink:title=" ">
<path fill="none" stroke="#63b8ff" d="M95.66,-86.82C100.83,-101.58 107.95,-121.01 122,-132 144.7,-149.75 548.72,-205.9 691.01,-225.87"/>
<polygon fill="#63b8ff" stroke="#63b8ff" points="99.03,-85.87 92.34,-77.65 92.45,-88.25 99.03,-85.87"/>
</a>
</g>
</g>
<!-- Node12&#45;&gt;Node13 -->
<g id="edge22_Node000012_Node000013" class="edge">
<title>Node12&#45;&gt;Node13</title>
<g id="a_edge22_Node000012_Node000013"><a xlink:title=" ">
<path fill="none" stroke="#63b8ff" d="M85,-44.13C85,-35.9 85,-26.85 85,-20.3"/>
<polygon fill="#63b8ff" stroke="#63b8ff" points="81.5,-44.08 85,-54.08 88.5,-44.08 81.5,-44.08"/>
</a>
</g>
</g>
<!-- Node12&#45;&gt;Node14 -->
<g id="edge23_Node000012_Node000014" class="edge">
<title>Node12&#45;&gt;Node14</title>
<g id="a_edge23_Node000012_Node000014"><a xlink:title=" ">
<path fill="none" stroke="#63b8ff" d="M129.71,-61.19C247.95,-51.1 567.42,-23.85 678.95,-14.33"/>
<polygon fill="#63b8ff" stroke="#63b8ff" points="129.76,-57.67 120.09,-62.01 130.36,-64.64 129.76,-57.67"/>
</a>
</g>
</g>
<!-- Node15&#45;&gt;Node2 -->
<g id="edge27_Node000015_Node000002" class="edge">
<title>Node15&#45;&gt;Node2</title>
<g id="a_edge27_Node000015_Node000002"><a xlink:title=" ">
<path fill="none" stroke="#63b8ff" d="M805.43,-199.32C810.65,-223.24 819.09,-261.92 822.95,-279.62"/>
<polygon fill="#63b8ff" stroke="#63b8ff" points="808.91,-198.86 803.36,-189.83 802.08,-200.35 808.91,-198.86"/>
</a>
</g>
</g>
<!-- Node15&#45;&gt;Node4 -->
<g id="edge28_Node000015_Node000004" class="edge">
<title>Node15&#45;&gt;Node4</title>
<g id="a_edge28_Node000015_Node000004"><a xlink:title=" ">
<path fill="none" stroke="#63b8ff" d="M787.8,-196.3C778.36,-205.35 765.88,-216.08 755.89,-223.59"/>
<polygon fill="#63b8ff" stroke="#63b8ff" points="790.12,-198.94 794.68,-189.37 785.15,-194.01 790.12,-198.94"/>
</a>
</g>
</g>
<!-- Node15&#45;&gt;Node10 -->
<g id="edge29_Node000015_Node000010" class="edge">
<title>Node15&#45;&gt;Node10</title>
<g id="a_edge29_Node000015_Node000010"><a xlink:title=" ">
<path fill="none" stroke="#63b8ff" d="M859.95,-167.91C1124.18,-139.95 1194.92,-165.13 1455,-132 1457.58,-131.67 1460.24,-131.28 1462.91,-130.86"/>
<polygon fill="#63b8ff" stroke="#63b8ff" points="859.92,-164.39 850.35,-168.94 860.67,-171.35 859.92,-164.39"/>
</a>
</g>
</g>
<!-- Node16 -->
<g id="Node000016" class="node">
<title>Node16</title>
<g id="a_Node000016"><a xlink:href="_render_state_8cpp.html" target="_top" xlink:title=" ">
<polygon fill="white" stroke="#666666" points="889.62,-132 784.38,-132 784.38,-112 889.62,-112 889.62,-132"/>
<text text-anchor="middle" x="837" y="-118.5" font-family="Helvetica,sans-Serif" font-size="10.00">src/RenderState.cpp</text>
</a>
</g>
</g>
<!-- Node15&#45;&gt;Node16 -->
<g id="edge30_Node000015_Node000016" class="edge">
<title>Node15&#45;&gt;Node16</title>
<g id="a_edge30_Node000015_Node000016"><a xlink:title=" ">
<path fill="none" stroke="#63b8ff" d="M813.57,-158.15C819.4,-149.4 826.07,-139.39 830.8,-132.3"/>
<polygon fill="#63b8ff" stroke="#63b8ff" points="810.75,-156.07 808.11,-166.33 816.57,-159.96 810.75,-156.07"/>
</a>
</g>
</g>
<!-- Node18 -->
<g id="Node000018" class="node">
<title>Node18</title>
<g id="a_Node000018"><a xlink:href="_scene_8cpp.html" target="_top" xlink:title=" ">
<polygon fill="white" stroke="#666666" points="565.5,-132 486.5,-132 486.5,-112 565.5,-112 565.5,-132"/>
<text text-anchor="middle" x="526" y="-118.5" font-family="Helvetica,sans-Serif" font-size="10.00">src/Scene.cpp</text>
</a>
</g>
</g>
<!-- Node17&#45;&gt;Node18 -->
<g id="edge32_Node000017_Node000018" class="edge">
<title>Node17&#45;&gt;Node18</title>
<g id="a_edge32_Node000017_Node000018"><a xlink:title=" ">
<path fill="none" stroke="#63b8ff" d="M598.87,-162.35C581.26,-152.84 558.85,-140.74 543.55,-132.48"/>
<polygon fill="#63b8ff" stroke="#63b8ff" points="596.79,-165.2 607.25,-166.87 600.11,-159.04 596.79,-165.2"/>
</a>
</g>
</g>
<!-- Node19&#45;&gt;Node2 -->
<g id="edge34_Node000019_Node000002" class="edge">
<title>Node19&#45;&gt;Node2</title>
<g id="a_edge34_Node000019_Node000002"><a xlink:title=" ">
<path fill="none" stroke="#63b8ff" d="M1069.57,-192.57C1012.14,-215.22 898.2,-260.14 848.79,-279.62"/>
<polygon fill="#63b8ff" stroke="#63b8ff" points="1070.85,-195.83 1078.86,-188.91 1068.28,-189.32 1070.85,-195.83"/>
</a>
</g>
</g>
<!-- Node20 -->
<g id="Node000020" class="node">
<title>Node20</title>
<g id="a_Node000020"><a xlink:href="_shader_manager_8cpp.html" target="_top" xlink:title=" ">
<polygon fill="white" stroke="#666666" points="1163.75,-132 1044.25,-132 1044.25,-112 1163.75,-112 1163.75,-132"/>
<text text-anchor="middle" x="1104" y="-118.5" font-family="Helvetica,sans-Serif" font-size="10.00">src/ShaderManager.cpp</text>
</a>
</g>
</g>
<!-- Node19&#45;&gt;Node20 -->
<g id="edge35_Node000019_Node000020" class="edge">
<title>Node19&#45;&gt;Node20</title>
<g id="a_edge35_Node000019_Node000020"><a xlink:title=" ">
<path fill="none" stroke="#63b8ff" d="M1104,-156.13C1104,-147.9 1104,-138.85 1104,-132.3"/>
<polygon fill="#63b8ff" stroke="#63b8ff" points="1100.5,-156.08 1104,-166.08 1107.5,-156.08 1100.5,-156.08"/>
</a>
</g>
</g>
<!-- Node21&#45;&gt;Node2 -->
<g id="edge37_Node000021_Node000002" class="edge">
<title>Node21&#45;&gt;Node2</title>
<g id="a_edge37_Node000021_Node000002"><a xlink:title=" ">
<path fill="none" stroke="#63b8ff" d="M905.51,-196.75C884.89,-220.37 849.2,-261.27 833.18,-279.62"/>
<polygon fill="#63b8ff" stroke="#63b8ff" points="907.9,-199.33 911.84,-189.5 902.63,-194.73 907.9,-199.33"/>
</a>
</g>
</g>
<!-- Node21&#45;&gt;Node4 -->
<g id="edge38_Node000021_Node000004" class="edge">
<title>Node21&#45;&gt;Node4</title>
<g id="a_edge38_Node000021_Node000004"><a xlink:title=" ">
<path fill="none" stroke="#63b8ff" d="M883.6,-191.9C852.28,-201.66 807.96,-214.82 776.79,-223.59"/>
<polygon fill="#63b8ff" stroke="#63b8ff" points="884.57,-195.27 893.06,-188.93 882.47,-188.59 884.57,-195.27"/>
</a>
</g>
</g>
<!-- Node21&#45;&gt;Node10 -->
<g id="edge39_Node000021_Node000010" class="edge">
<title>Node21&#45;&gt;Node10</title>
<g id="a_edge39_Node000021_Node000010"><a xlink:title=" ">
<path fill="none" stroke="#63b8ff" d="M986.94,-168.22C987.63,-168.14 988.32,-168.07 989,-168 1195.6,-146.36 1249.17,-159.99 1455,-132 1457.58,-131.65 1460.23,-131.25 1462.9,-130.81"/>
<polygon fill="#63b8ff" stroke="#63b8ff" points="986.57,-164.74 977.03,-169.35 987.36,-171.69 986.57,-164.74"/>
</a>
</g>
</g>
<!-- Node22 -->
<g id="Node000022" class="node">
<title>Node22</title>
<g id="a_Node000022"><a xlink:href="_shader_program_8cpp.html" target="_top" xlink:title=" ">
<polygon fill="white" stroke="#666666" points="1026.38,-132 907.62,-132 907.62,-112 1026.38,-112 1026.38,-132"/>
<text text-anchor="middle" x="967" y="-118.5" font-family="Helvetica,sans-Serif" font-size="10.00">src/ShaderProgram.cpp</text>
</a>
</g>
</g>
<!-- Node21&#45;&gt;Node22 -->
<g id="edge40_Node000021_Node000022" class="edge">
<title>Node21&#45;&gt;Node22</title>
<g id="a_edge40_Node000021_Node000022"><a xlink:title=" ">
<path fill="none" stroke="#63b8ff" d="M936.33,-159C943.95,-150.06 952.84,-139.62 959.08,-132.3"/>
<polygon fill="#63b8ff" stroke="#63b8ff" points="933.81,-156.56 929.99,-166.44 939.14,-161.1 933.81,-156.56"/>
</a>
</g>
</g>
<!-- Node23&#45;&gt;Node4 -->
<g id="edge42_Node000023_Node000004" class="edge">
<title>Node23&#45;&gt;Node4</title>
<g id="a_edge42_Node000023_Node000004"><a xlink:title=" ">
<path fill="none" stroke="#63b8ff" d="M1165.44,-189.38C1027.56,-205.7 867.67,-221.56 788.85,-228.85"/>
<polygon fill="#63b8ff" stroke="#63b8ff" points="1165.57,-192.89 1175.09,-188.23 1164.74,-185.93 1165.57,-192.89"/>
</a>
</g>
</g>
<!-- Node24 -->
<g id="Node000024" class="node">
<title>Node24</title>
<g id="a_Node000024"><a xlink:href="_win32_application_8cpp.html" target="_top" xlink:title=" ">
<polygon fill="white" stroke="#666666" points="1308.5,-132 1181.5,-132 1181.5,-112 1308.5,-112 1308.5,-132"/>
<text text-anchor="middle" x="1245" y="-118.5" font-family="Helvetica,sans-Serif" font-size="10.00">src/Win32Application.cpp</text>
</a>
</g>
</g>
<!-- Node23&#45;&gt;Node24 -->
<g id="edge43_Node000023_Node000024" class="edge">
<title>Node23&#45;&gt;Node24</title>
<g id="a_edge43_Node000023_Node000024"><a xlink:title=" ">
<path fill="none" stroke="#63b8ff" d="M1238.81,-156.43C1240.35,-148.11 1242.05,-138.93 1243.28,-132.3"/>
<polygon fill="#63b8ff" stroke="#63b8ff" points="1235.4,-155.64 1237.02,-166.11 1242.28,-156.91 1235.4,-155.64"/>
</a>
</g>
</g>
<!-- Node25&#45;&gt;Node3 -->
<g id="edge46_Node000025_Node000003" class="edge">
<title>Node25&#45;&gt;Node3</title>
<g id="a_edge46_Node000025_Node000003"><a xlink:title=" ">
<path fill="none" stroke="#63b8ff" d="M746.92,-168.01C999.39,-131.22 1067.76,-156.39 1318,-132 1320.61,-131.75 1323.27,-131.47 1325.96,-131.17"/>
<polygon fill="#63b8ff" stroke="#63b8ff" points="746.41,-164.55 737.03,-169.47 747.43,-171.47 746.41,-164.55"/>
</a>
</g>
</g>
<!-- Node25&#45;&gt;Node6 -->
<g id="edge45_Node000025_Node000006" class="edge">
<title>Node25&#45;&gt;Node6</title>
<g id="a_edge45_Node000025_Node000006"><a xlink:title=" ">
<path fill="none" stroke="#63b8ff" d="M667.3,-167.92C527.37,-144.04 488.77,-151.81 352,-132 349.33,-131.61 346.59,-131.19 343.82,-130.75"/>
<polygon fill="#63b8ff" stroke="#63b8ff" points="666.5,-171.33 676.95,-169.59 667.7,-164.44 666.5,-171.33"/>
</a>
</g>
</g>
<!-- Node25&#45;&gt;Node7 -->
<g id="edge47_Node000025_Node000007" class="edge">
<title>Node25&#45;&gt;Node7</title>
<g id="a_edge47_Node000025_Node000007"><a xlink:title=" ">
<path fill="none" stroke="#63b8ff" d="M667.42,-167.78C592.96,-152.54 518.31,-139.75 469.18,-131.68"/>
<polygon fill="#63b8ff" stroke="#63b8ff" points="666.42,-171.14 676.92,-169.74 667.84,-164.29 666.42,-171.14"/>
</a>
</g>
</g>
<!-- Node25&#45;&gt;Node9 -->
<g id="edge48_Node000025_Node000009" class="edge">
<title>Node25&#45;&gt;Node9</title>
<g id="a_edge48_Node000025_Node000009"><a xlink:title=" ">
<path fill="none" stroke="#63b8ff" d="M667.23,-167.97C482.06,-138.86 431.61,-151.9 249,-132 246.28,-131.7 243.49,-131.39 240.69,-131.06"/>
<polygon fill="#63b8ff" stroke="#63b8ff" points="666.54,-171.41 676.96,-169.53 667.64,-164.49 666.54,-171.41"/>
</a>
</g>
</g>
<!-- Node25&#45;&gt;Node11 -->
<g id="edge49_Node000025_Node000011" class="edge">
<title>Node25&#45;&gt;Node11</title>
<g id="a_edge49_Node000025_Node000011"><a xlink:title=" ">
<path fill="none" stroke="#63b8ff" d="M720.7,-158.47C733.08,-143.26 752.72,-122.55 775,-112 831.72,-85.14 1015.55,-73.09 1099.94,-68.87"/>
<polygon fill="#63b8ff" stroke="#63b8ff" points="717.97,-156.28 714.6,-166.32 723.5,-160.58 717.97,-156.28"/>
</a>
</g>
</g>
<!-- Node25&#45;&gt;Node13 -->
<g id="edge50_Node000025_Node000013" class="edge">
<title>Node25&#45;&gt;Node13</title>
<g id="a_edge50_Node000025_Node000013"><a xlink:title=" ">
<path fill="none" stroke="#63b8ff" d="M677.02,-162.71C658.76,-153.95 634.97,-142.45 614,-132 596.56,-123.31 593.37,-118.47 575,-112 411.97,-54.59 206.31,-25.4 122.81,-15.25"/>
<polygon fill="#63b8ff" stroke="#63b8ff" points="675.44,-165.84 685.98,-167 678.47,-159.52 675.44,-165.84"/>
</a>
</g>
</g>
<!-- Node25&#45;&gt;Node14 -->
<g id="edge51_Node000025_Node000014" class="edge">
<title>Node25&#45;&gt;Node14</title>
<g id="a_edge51_Node000025_Node000014"><a xlink:title=" ">
<path fill="none" stroke="#63b8ff" d="M708.36,-156.5C710.76,-120.27 715.66,-46.31 717.38,-20.3"/>
<polygon fill="#63b8ff" stroke="#63b8ff" points="704.89,-155.88 707.72,-166.09 711.88,-156.34 704.89,-155.88"/>
</a>
</g>
</g>
<!-- Node25&#45;&gt;Node16 -->
<g id="edge52_Node000025_Node000016" class="edge">
<title>Node25&#45;&gt;Node16</title>
<g id="a_edge52_Node000025_Node000016"><a xlink:title=" ">
<path fill="none" stroke="#63b8ff" d="M740.05,-163.27C763.24,-153.64 793.65,-141.01 814.18,-132.48"/>
<polygon fill="#63b8ff" stroke="#63b8ff" points="738.93,-159.94 731.04,-167.01 741.62,-166.41 738.93,-159.94"/>
</a>
</g>
</g>
<!-- Node25&#45;&gt;Node18 -->
<g id="edge53_Node000025_Node000018" class="edge">
<title>Node25&#45;&gt;Node18</title>
<g id="a_edge53_Node000025_Node000018"><a xlink:title=" ">
<path fill="none" stroke="#63b8ff" d="M667.69,-165.27C634.71,-155.43 588.2,-141.56 557.59,-132.42"/>
<polygon fill="#63b8ff" stroke="#63b8ff" points="666.29,-168.51 676.87,-168.01 668.29,-161.8 666.29,-168.51"/>
</a>
</g>
</g>
<!-- Node25&#45;&gt;Node20 -->
<g id="edge54_Node000025_Node000020" class="edge">
<title>Node25&#45;&gt;Node20</title>
<g id="a_edge54_Node000025_Node000020"><a xlink:title=" ">
<path fill="none" stroke="#63b8ff" d="M746.59,-167.9C874.72,-145.17 909.68,-147.95 1035,-132 1037.88,-131.63 1040.82,-131.26 1043.79,-130.88"/>
<polygon fill="#63b8ff" stroke="#63b8ff" points="746.28,-164.4 737.05,-169.62 747.51,-171.29 746.28,-164.4"/>
</a>
</g>
</g>
<!-- Node25&#45;&gt;Node22 -->
<g id="edge55_Node000025_Node000022" class="edge">
<title>Node25&#45;&gt;Node22</title>
<g id="a_edge55_Node000025_Node000022"><a xlink:title=" ">
<path fill="none" stroke="#63b8ff" d="M746.48,-167.73C811.51,-153.53 875.29,-140.81 917.96,-132.46"/>
<polygon fill="#63b8ff" stroke="#63b8ff" points="746.11,-164.23 737.09,-169.79 747.61,-171.07 746.11,-164.23"/>
</a>
</g>
</g>
<!-- Node25&#45;&gt;Node24 -->
<g id="edge56_Node000025_Node000024" class="edge">
<title>Node25&#45;&gt;Node24</title>
<g id="a_edge56_Node000025_Node000024"><a xlink:title=" ">
<path fill="none" stroke="#63b8ff" d="M746.69,-167.99C935.45,-138.44 986.76,-151.46 1173,-132 1175.63,-131.73 1178.32,-131.43 1181.03,-131.13"/>
<polygon fill="#63b8ff" stroke="#63b8ff" points="746.37,-164.5 737.04,-169.52 747.46,-171.41 746.37,-164.5"/>
</a>
</g>
</g>
<!-- Node26 -->
<g id="Node000026" class="node">
<title>Node26</title>
<g id="a_Node000026"><a xlink:href="pch_8cpp.html" target="_top" xlink:title=" ">
<polygon fill="white" stroke="#666666" points="689.5,-132 622.5,-132 622.5,-112 689.5,-112 689.5,-132"/>
<text text-anchor="middle" x="656" y="-118.5" font-family="Helvetica,sans-Serif" font-size="10.00">src/pch.cpp</text>
</a>
</g>
</g>
<!-- Node25&#45;&gt;Node26 -->
<g id="edge57_Node000025_Node000026" class="edge">
<title>Node25&#45;&gt;Node26</title>
<g id="a_edge57_Node000025_Node000026"><a xlink:title=" ">
<path fill="none" stroke="#63b8ff" d="M690.27,-159.29C681.76,-150.28 671.77,-139.7 664.78,-132.3"/>
<polygon fill="#63b8ff" stroke="#63b8ff" points="687.67,-161.63 697.08,-166.49 692.76,-156.82 687.67,-161.63"/>
</a>
</g>
</g>
</g>
</svg>

<g id="navigator" transform="translate(0 0)" fill="#404254">
  <rect fill="#f2f5e9" fill-opacity="0.5" stroke="#606060" stroke-width=".5" x="0" y="0" width="60" height="60"/>
  <use id="zoomplus" xlink:href="#zoomPlus" x="17" y="9" onmousedown="handleZoom(evt,'in')"/>
  <use id="zoomminus" xlink:href="#zoomMin" x="42" y="9" onmousedown="handleZoom(evt,'out')"/>
  <use id="reset" xlink:href="#resetDef" x="30" y="36" onmousedown="handleReset()"/>
   <use id="arrowup" xlink:href="#arrowUp" x="0" y="0" onmousedown="handlePan(0,-1)"/>
  <use id="arrowright" xlink:href="#arrowRight" x="0" y="0" onmousedown="handlePan(1,0)"/>
  <use id="arrowdown" xlink:href="#arrowDown" x="0" y="0" onmousedown="handlePan(0,1)"/>
  <use id="arrowleft" xlink:href="#arrowLeft" x="0" y="0" onmousedown="handlePan(-1,0)"/>
</g>
<svg viewBox="0 0 15 15" width="100%" height="30px" preserveAspectRatio="xMaxYMin meet">
 <g id="arrow_out" transform="scale(0.3 0.3)">
  <a xlink:href="_mesh_8h__dep__incl_org.svg" target="_base">
   <rect id="button" ry="5" rx="5" y="6" x="6" height="38" width="38"
        fill="#f2f5e9" fill-opacity="0.5" stroke="#606060" stroke-width="1.0"/>
   <path id="arrow"
     d="M 11.500037,31.436501 C 11.940474,20.09759 22.043105,11.32322 32.158766,21.979434 L 37.068811,17.246167 C 37.068811,17.246167 37.088388,32 37.088388,32 L 22.160133,31.978069 C 22.160133,31.978069 26.997745,27.140456 26.997745,27.140456 C 18.528582,18.264221 13.291696,25.230495 11.500037,31.436501 z"
     style="fill:#404040;"/>
  </a>
 </g>
</svg>

<style type='text/css'>
<![CDATA[
[data-mouse-over-selected='false'] { opacity: 0.7; }
[data-mouse-over-selected='true']  { opacity: 1.0; }
]]>
</style>
<script type="application/ecmascript"><![CDATA[
document.addEventListener('DOMContentLoaded', (event) => {
  highlightEdges();
  highlightAdjacentNodes();
});
]]></script>
</svg>
