<?xml version="1.0" encoding="UTF-8" standalone="no"?>
<!DOCTYPE svg PUBLIC "-//W3C//DTD SVG 1.1//EN"
 "http://www.w3.org/Graphics/SVG/1.1/DTD/svg11.dtd">
<!-- Generated by graphviz version 9.0.0 (20230911.1827)
 -->
<!-- Title: src/Mesh.h Pages: 1 -->
<svg width="2868pt" height="364pt"
 viewBox="0.00 0.00 2868.00 364.00" xmlns="http://www.w3.org/2000/svg" xmlns:xlink="http://www.w3.org/1999/xlink">
<g id="graph0" class="graph" transform="scale(1 1) rotate(0) translate(4 360)">
<title>src/Mesh.h</title>
<!-- Node1 -->
<g id="Node000001" class="node">
<title>Node1</title>
<g id="a_Node000001"><a xlink:title=" ">
<polygon fill="#999999" stroke="#666666" points="2302.5,-356 2237.75,-356 2237.75,-336 2302.5,-336 2302.5,-356"/>
<text text-anchor="middle" x="2270.12" y="-342.5" font-family="Helvetica,sans-Serif" font-size="10.00">src/Mesh.h</text>
</a>
</g>
</g>
<!-- Node2 -->
<g id="Node000002" class="node">
<title>Node2</title>
<g id="a_Node000002"><a xlink:href="_game_engine_8h.html" target="_top" xlink:title=" ">
<polygon fill="white" stroke="#666666" points="1848.38,-300 1767.88,-300 1767.88,-280 1848.38,-280 1848.38,-300"/>
<text text-anchor="middle" x="1808.12" y="-286.5" font-family="Helvetica,sans-Serif" font-size="10.00">GameEngine.h</text>
</a>
</g>
</g>
<!-- Node1&#45;&gt;Node2 -->
<g id="edge1_Node000001_Node000002" class="edge">
<title>Node1&#45;&gt;Node2</title>
<g id="a_edge1_Node000001_Node000002"><a xlink:title=" ">
<path fill="none" stroke="#63b8ff" d="M2237.37,-341.58C2158.06,-332.77 1955.79,-309.17 1859.91,-297.59"/>
<polygon fill="#63b8ff" stroke="#63b8ff" points="1860.61,-294.15 1850.26,-296.42 1859.77,-301.1 1860.61,-294.15"/>
</a>
</g>
</g>
<!-- Node33 -->
<g id="Node000033" class="node">
<title>Node33</title>
<g id="a_Node000033"><a xlink:href="_graphics_device_8h.html" target="_top" xlink:title=" ">
<polygon fill="white" stroke="#666666" points="2860,-132 2768.25,-132 2768.25,-112 2860,-112 2860,-132"/>
<text text-anchor="middle" x="2814.12" y="-118.5" font-family="Helvetica,sans-Serif" font-size="10.00">GraphicsDevice.h</text>
</a>
</g>
</g>
<!-- Node1&#45;&gt;Node33 -->
<g id="edge59_Node000001_Node000033" class="edge">
<title>Node1&#45;&gt;Node33</title>
<g id="a_edge59_Node000001_Node000033"><a xlink:title=" ">
<path fill="none" stroke="#63b8ff" d="M2302.86,-342.93C2364.61,-338.55 2502.21,-326.47 2615.12,-300 2689.7,-282.51 2716.45,-289.43 2778.12,-244 2802.96,-225.71 2809.54,-217.32 2819.12,-188 2823.87,-173.49 2822.23,-156.22 2819.61,-143.14"/>
<polygon fill="#63b8ff" stroke="#63b8ff" points="2823.05,-142.48 2817.33,-133.56 2816.24,-144.1 2823.05,-142.48"/>
</a>
</g>
</g>
<!-- Node2&#45;&gt;Node1 -->
<g id="edge55_Node000002_Node000001" class="edge">
<title>Node2&#45;&gt;Node1</title>
<g id="a_edge55_Node000002_Node000001"><a xlink:title=" ">
<path fill="none" stroke="#63b8ff" d="M1848.63,-295.28C1935.04,-304.95 2136.45,-328.47 2225.98,-339.33"/>
<polygon fill="#63b8ff" stroke="#63b8ff" points="2225.49,-342.8 2235.84,-340.53 2226.34,-335.85 2225.49,-342.8"/>
</a>
</g>
</g>
<!-- Node3 -->
<g id="Node000003" class="node">
<title>Node3</title>
<g id="a_Node000003"><a xlink:title=" ">
<polygon fill="#e0e0e0" stroke="#999999" points="1726,-244 1646.25,-244 1646.25,-224 1726,-224 1726,-244"/>
<text text-anchor="middle" x="1686.12" y="-230.5" font-family="Helvetica,sans-Serif" font-size="10.00">SDKDDKVer.h</text>
</a>
</g>
</g>
<!-- Node2&#45;&gt;Node3 -->
<g id="edge2_Node000002_Node000003" class="edge">
<title>Node2&#45;&gt;Node3</title>
<g id="a_edge2_Node000002_Node000003"><a xlink:title=" ">
<path fill="none" stroke="#63b8ff" d="M1786.87,-279.59C1767.84,-271.17 1739.65,-258.69 1717.92,-249.07"/>
<polygon fill="#63b8ff" stroke="#63b8ff" points="1719.49,-245.94 1708.93,-245.09 1716.65,-252.34 1719.49,-245.94"/>
</a>
</g>
</g>
<!-- Node4 -->
<g id="Node000004" class="node">
<title>Node4</title>
<g id="a_Node000004"><a xlink:title=" ">
<polygon fill="#e0e0e0" stroke="#999999" points="1804.62,-244 1743.62,-244 1743.62,-224 1804.62,-224 1804.62,-244"/>
<text text-anchor="middle" x="1774.12" y="-230.5" font-family="Helvetica,sans-Serif" font-size="10.00">windows.h</text>
</a>
</g>
</g>
<!-- Node2&#45;&gt;Node4 -->
<g id="edge3_Node000002_Node000004" class="edge">
<title>Node2&#45;&gt;Node4</title>
<g id="a_edge3_Node000002_Node000004"><a xlink:title=" ">
<path fill="none" stroke="#63b8ff" d="M1802.2,-279.59C1797.77,-272.55 1791.55,-262.67 1786.09,-254"/>
<polygon fill="#63b8ff" stroke="#63b8ff" points="1789.08,-252.18 1780.79,-245.58 1783.15,-255.91 1789.08,-252.18"/>
</a>
</g>
</g>
<!-- Node5 -->
<g id="Node000005" class="node">
<title>Node5</title>
<g id="a_Node000005"><a xlink:title=" ">
<polygon fill="#e0e0e0" stroke="#999999" points="1982.88,-244 1935.38,-244 1935.38,-224 1982.88,-224 1982.88,-244"/>
<text text-anchor="middle" x="1959.12" y="-230.5" font-family="Helvetica,sans-Serif" font-size="10.00">stdlib.h</text>
</a>
</g>
</g>
<!-- Node2&#45;&gt;Node5 -->
<g id="edge4_Node000002_Node000005" class="edge">
<title>Node2&#45;&gt;Node5</title>
<g id="a_edge4_Node000002_Node000005"><a xlink:title=" ">
<path fill="none" stroke="#63b8ff" d="M1834.43,-279.59C1859.38,-270.67 1897.03,-257.21 1924.43,-247.41"/>
<polygon fill="#63b8ff" stroke="#63b8ff" points="1925.45,-250.76 1933.69,-244.1 1923.1,-244.17 1925.45,-250.76"/>
</a>
</g>
</g>
<!-- Node6 -->
<g id="Node000006" class="node">
<title>Node6</title>
<g id="a_Node000006"><a xlink:title=" ">
<polygon fill="#e0e0e0" stroke="#999999" points="2053.5,-244 2000.75,-244 2000.75,-224 2053.5,-224 2053.5,-244"/>
<text text-anchor="middle" x="2027.12" y="-230.5" font-family="Helvetica,sans-Serif" font-size="10.00">malloc.h</text>
</a>
</g>
</g>
<!-- Node2&#45;&gt;Node6 -->
<g id="edge5_Node000002_Node000006" class="edge">
<title>Node2&#45;&gt;Node6</title>
<g id="a_edge5_Node000002_Node000006"><a xlink:title=" ">
<path fill="none" stroke="#63b8ff" d="M1847.28,-279.57C1882.23,-271.11 1935.08,-258.26 1989.48,-244.64"/>
<polygon fill="#63b8ff" stroke="#63b8ff" points="1990.06,-248.11 1998.91,-242.28 1988.36,-241.32 1990.06,-248.11"/>
</a>
</g>
</g>
<!-- Node7 -->
<g id="Node000007" class="node">
<title>Node7</title>
<g id="a_Node000007"><a xlink:title=" ">
<polygon fill="#e0e0e0" stroke="#999999" points="2130.88,-244 2071.38,-244 2071.38,-224 2130.88,-224 2130.88,-244"/>
<text text-anchor="middle" x="2101.12" y="-230.5" font-family="Helvetica,sans-Serif" font-size="10.00">memory.h</text>
</a>
</g>
</g>
<!-- Node2&#45;&gt;Node7 -->
<g id="edge6_Node000002_Node000007" class="edge">
<title>Node2&#45;&gt;Node7</title>
<g id="a_edge6_Node000002_Node000007"><a xlink:title=" ">
<path fill="none" stroke="#63b8ff" d="M1848.72,-282.47C1896.81,-274.59 1979.58,-260.57 2060.1,-244.33"/>
<polygon fill="#63b8ff" stroke="#63b8ff" points="2060.34,-247.85 2069.44,-242.43 2058.94,-240.99 2060.34,-247.85"/>
</a>
</g>
</g>
<!-- Node8 -->
<g id="Node000008" class="node">
<title>Node8</title>
<g id="a_Node000008"><a xlink:title=" ">
<polygon fill="#e0e0e0" stroke="#999999" points="2195.12,-244 2149.12,-244 2149.12,-224 2195.12,-224 2195.12,-244"/>
<text text-anchor="middle" x="2172.12" y="-230.5" font-family="Helvetica,sans-Serif" font-size="10.00">tchar.h</text>
</a>
</g>
</g>
<!-- Node2&#45;&gt;Node8 -->
<g id="edge7_Node000002_Node000008" class="edge">
<title>Node2&#45;&gt;Node8</title>
<g id="a_edge7_Node000002_Node000008"><a xlink:title=" ">
<path fill="none" stroke="#63b8ff" d="M1848.81,-285.33C1909.62,-279.45 2027.99,-266.45 2137.54,-244.28"/>
<polygon fill="#63b8ff" stroke="#63b8ff" points="2138.23,-247.72 2147.32,-242.27 2136.82,-240.86 2138.23,-247.72"/>
</a>
</g>
</g>
<!-- Node9 -->
<g id="Node000009" class="node">
<title>Node9</title>
<g id="a_Node000009"><a xlink:title=" ">
<polygon fill="#e0e0e0" stroke="#999999" points="2393,-244 2331.25,-244 2331.25,-224 2393,-224 2393,-244"/>
<text text-anchor="middle" x="2362.12" y="-230.5" font-family="Helvetica,sans-Serif" font-size="10.00">resource.h</text>
</a>
</g>
</g>
<!-- Node2&#45;&gt;Node9 -->
<g id="edge8_Node000002_Node000009" class="edge">
<title>Node2&#45;&gt;Node9</title>
<g id="a_edge8_Node000002_Node000009"><a xlink:title=" ">
<path fill="none" stroke="#63b8ff" d="M1848.66,-287.3C1933.98,-283.33 2138.48,-271.72 2319.42,-244.22"/>
<polygon fill="#63b8ff" stroke="#63b8ff" points="2319.91,-247.69 2329.26,-242.71 2318.85,-240.77 2319.91,-247.69"/>
</a>
</g>
</g>
<!-- Node10 -->
<g id="Node000010" class="node">
<title>Node10</title>
<g id="a_Node000010"><a xlink:title=" ">
<polygon fill="#e0e0e0" stroke="#999999" points="2456.75,-244 2411.5,-244 2411.5,-224 2456.75,-224 2456.75,-244"/>
<text text-anchor="middle" x="2434.12" y="-230.5" font-family="Helvetica,sans-Serif" font-size="10.00">chrono</text>
</a>
</g>
</g>
<!-- Node2&#45;&gt;Node10 -->
<g id="edge9_Node000002_Node000010" class="edge">
<title>Node2&#45;&gt;Node10</title>
<g id="a_edge9_Node000002_Node000010"><a xlink:title=" ">
<path fill="none" stroke="#63b8ff" d="M1848.8,-288.69C1943.85,-287.38 2187.87,-280.59 2400.14,-243.98"/>
<polygon fill="#63b8ff" stroke="#63b8ff" points="2400.44,-247.48 2409.69,-242.3 2399.23,-240.58 2400.44,-247.48"/>
</a>
</g>
</g>
<!-- Node11 -->
<g id="Node000011" class="node">
<title>Node11</title>
<g id="a_Node000011"><a xlink:title=" ">
<polygon fill="#e0e0e0" stroke="#999999" points="2610.88,-244 2569.38,-244 2569.38,-224 2610.88,-224 2610.88,-244"/>
<text text-anchor="middle" x="2590.12" y="-230.5" font-family="Helvetica,sans-Serif" font-size="10.00">vector</text>
</a>
</g>
</g>
<!-- Node2&#45;&gt;Node11 -->
<g id="edge10_Node000002_Node000011" class="edge">
<title>Node2&#45;&gt;Node11</title>
<g id="a_edge10_Node000002_Node000011"><a xlink:title=" ">
<path fill="none" stroke="#63b8ff" d="M1848.5,-289.27C1961.09,-289.45 2287.84,-286.02 2555.12,-244 2556.13,-243.84 2557.14,-243.67 2558.17,-243.48"/>
<polygon fill="#63b8ff" stroke="#63b8ff" points="2558.66,-246.96 2567.68,-241.41 2557.17,-240.12 2558.66,-246.96"/>
</a>
</g>
</g>
<!-- Node12 -->
<g id="Node000012" class="node">
<title>Node12</title>
<g id="a_Node000012"><a xlink:title=" ">
<polygon fill="#e0e0e0" stroke="#999999" points="2682.88,-244 2629.38,-244 2629.38,-224 2682.88,-224 2682.88,-244"/>
<text text-anchor="middle" x="2656.12" y="-230.5" font-family="Helvetica,sans-Serif" font-size="10.00">iostream</text>
</a>
</g>
</g>
<!-- Node2&#45;&gt;Node12 -->
<g id="edge11_Node000002_Node000012" class="edge">
<title>Node2&#45;&gt;Node12</title>
<g id="a_edge11_Node000002_Node000012"><a xlink:title=" ">
<path fill="none" stroke="#63b8ff" d="M1848.53,-289.46C1966.06,-290.22 2317.89,-288.45 2618.01,-244.01"/>
<polygon fill="#63b8ff" stroke="#63b8ff" points="2618.24,-247.51 2627.61,-242.56 2617.2,-240.59 2618.24,-247.51"/>
</a>
</g>
</g>
<!-- Node13 -->
<g id="Node000013" class="node">
<title>Node13</title>
<g id="a_Node000013"><a xlink:title=" ">
<polygon fill="#e0e0e0" stroke="#999999" points="48.25,-244 0,-244 0,-224 48.25,-224 48.25,-244"/>
<text text-anchor="middle" x="24.12" y="-230.5" font-family="Helvetica,sans-Serif" font-size="10.00">fstream</text>
</a>
</g>
</g>
<!-- Node2&#45;&gt;Node13 -->
<g id="edge12_Node000002_Node000013" class="edge">
<title>Node2&#45;&gt;Node13</title>
<g id="a_edge12_Node000002_Node000013"><a xlink:title=" ">
<path fill="none" stroke="#63b8ff" d="M1767.57,-289.28C1540.67,-290.65 425.93,-294.73 59.64,-243.94"/>
<polygon fill="#63b8ff" stroke="#63b8ff" points="60.39,-240.52 49.99,-242.56 59.4,-247.45 60.39,-240.52"/>
</a>
</g>
</g>
<!-- Node14 -->
<g id="Node000014" class="node">
<title>Node14</title>
<g id="a_Node000014"><a xlink:title=" ">
<polygon fill="#e0e0e0" stroke="#999999" points="126.25,-244 66,-244 66,-224 126.25,-224 126.25,-244"/>
<text text-anchor="middle" x="96.12" y="-230.5" font-family="Helvetica,sans-Serif" font-size="10.00">filesystem</text>
</a>
</g>
</g>
<!-- Node2&#45;&gt;Node14 -->
<g id="edge13_Node000002_Node000014" class="edge">
<title>Node2&#45;&gt;Node14</title>
<g id="a_edge13_Node000002_Node000014"><a xlink:title=" ">
<path fill="none" stroke="#63b8ff" d="M1767.6,-289.01C1547.02,-288.89 488.41,-286.17 137.85,-244.04"/>
<polygon fill="#63b8ff" stroke="#63b8ff" points="138.53,-240.6 128.18,-242.84 137.67,-247.55 138.53,-240.6"/>
</a>
</g>
</g>
<!-- Node15 -->
<g id="Node000015" class="node">
<title>Node15</title>
<g id="a_Node000015"><a xlink:title=" ">
<polygon fill="#e0e0e0" stroke="#999999" points="195.75,-244 144.5,-244 144.5,-224 195.75,-224 195.75,-244"/>
<text text-anchor="middle" x="170.12" y="-230.5" font-family="Helvetica,sans-Serif" font-size="10.00">sstream</text>
</a>
</g>
</g>
<!-- Node2&#45;&gt;Node15 -->
<g id="edge14_Node000002_Node000015" class="edge">
<title>Node2&#45;&gt;Node15</title>
<g id="a_edge14_Node000002_Node000015"><a xlink:title=" ">
<path fill="none" stroke="#63b8ff" d="M1767.51,-289.09C1552.34,-289.38 543.13,-288.37 207.17,-243.87"/>
<polygon fill="#63b8ff" stroke="#63b8ff" points="207.87,-240.43 197.49,-242.54 206.92,-247.37 207.87,-240.43"/>
</a>
</g>
</g>
<!-- Node16 -->
<g id="Node000016" class="node">
<title>Node16</title>
<g id="a_Node000016"><a xlink:title=" ">
<polygon fill="#e0e0e0" stroke="#999999" points="296.5,-244 213.75,-244 213.75,-224 296.5,-224 296.5,-244"/>
<text text-anchor="middle" x="255.12" y="-230.5" font-family="Helvetica,sans-Serif" font-size="10.00">unordered_map</text>
</a>
</g>
</g>
<!-- Node2&#45;&gt;Node16 -->
<g id="edge15_Node000002_Node000016" class="edge">
<title>Node2&#45;&gt;Node16</title>
<g id="a_edge15_Node000002_Node000016"><a xlink:title=" ">
<path fill="none" stroke="#63b8ff" d="M1767.4,-288.58C1560.59,-286.31 624.57,-274.6 308.25,-244"/>
<polygon fill="#63b8ff" stroke="#63b8ff" points="308.61,-240.52 298.31,-243.01 307.91,-247.49 308.61,-240.52"/>
</a>
</g>
</g>
<!-- Node17 -->
<g id="Node000017" class="node">
<title>Node17</title>
<g id="a_Node000017"><a xlink:title=" ">
<polygon fill="#e0e0e0" stroke="#999999" points="419.38,-244 314.88,-244 314.88,-224 419.38,-224 419.38,-244"/>
<text text-anchor="middle" x="367.12" y="-230.5" font-family="Helvetica,sans-Serif" font-size="10.00">assimp/Importer.hpp</text>
</a>
</g>
</g>
<!-- Node2&#45;&gt;Node17 -->
<g id="edge16_Node000002_Node000017" class="edge">
<title>Node2&#45;&gt;Node17</title>
<g id="a_edge16_Node000002_Node000017"><a xlink:title=" ">
<path fill="none" stroke="#63b8ff" d="M1767.38,-289.36C1602.03,-290.48 964.87,-291.36 431.06,-244.15"/>
<polygon fill="#63b8ff" stroke="#63b8ff" points="431.43,-240.67 421.16,-243.27 430.81,-247.65 431.43,-240.67"/>
</a>
</g>
</g>
<!-- Node18 -->
<g id="Node000018" class="node">
<title>Node18</title>
<g id="a_Node000018"><a xlink:title=" ">
<polygon fill="#e0e0e0" stroke="#999999" points="522.62,-244 437.62,-244 437.62,-224 522.62,-224 522.62,-244"/>
<text text-anchor="middle" x="480.12" y="-230.5" font-family="Helvetica,sans-Serif" font-size="10.00">assimp/scene.h</text>
</a>
</g>
</g>
<!-- Node2&#45;&gt;Node18 -->
<g id="edge17_Node000002_Node000018" class="edge">
<title>Node2&#45;&gt;Node18</title>
<g id="a_edge17_Node000002_Node000018"><a xlink:title=" ">
<path fill="none" stroke="#63b8ff" d="M1767.44,-288.31C1580.56,-285.04 802.64,-270.15 534.16,-244.01"/>
<polygon fill="#63b8ff" stroke="#63b8ff" points="534.72,-240.55 524.42,-243.03 534.01,-247.52 534.72,-240.55"/>
</a>
</g>
</g>
<!-- Node19 -->
<g id="Node000019" class="node">
<title>Node19</title>
<g id="a_Node000019"><a xlink:title=" ">
<polygon fill="#e0e0e0" stroke="#999999" points="653.12,-244 541.12,-244 541.12,-224 653.12,-224 653.12,-244"/>
<text text-anchor="middle" x="597.12" y="-230.5" font-family="Helvetica,sans-Serif" font-size="10.00">assimp/postprocess.h</text>
</a>
</g>
</g>
<!-- Node2&#45;&gt;Node19 -->
<g id="edge18_Node000002_Node000019" class="edge">
<title>Node2&#45;&gt;Node19</title>
<g id="a_edge18_Node000002_Node000019"><a xlink:title=" ">
<path fill="none" stroke="#63b8ff" d="M1767.43,-288.85C1620.37,-287.99 1102.46,-282.34 664.76,-244.14"/>
<polygon fill="#63b8ff" stroke="#63b8ff" points="665.23,-240.67 654.96,-243.28 664.62,-247.64 665.23,-240.67"/>
</a>
</g>
</g>
<!-- Node20 -->
<g id="Node000020" class="node">
<title>Node20</title>
<g id="a_Node000020"><a xlink:title=" ">
<polygon fill="#e0e0e0" stroke="#999999" points="816.62,-244 671.62,-244 671.62,-224 816.62,-224 816.62,-244"/>
<text text-anchor="middle" x="744.12" y="-230.5" font-family="Helvetica,sans-Serif" font-size="10.00">directxtk\WICTextureLoader.h</text>
</a>
</g>
</g>
<!-- Node2&#45;&gt;Node20 -->
<g id="edge19_Node000002_Node000020" class="edge">
<title>Node2&#45;&gt;Node20</title>
<g id="a_edge19_Node000002_Node000020"><a xlink:title=" ">
<path fill="none" stroke="#63b8ff" d="M1767.38,-288.06C1634.2,-284.79 1199.5,-272.58 828.22,-244.11"/>
<polygon fill="#63b8ff" stroke="#63b8ff" points="828.73,-240.64 818.49,-243.36 828.19,-247.62 828.73,-240.64"/>
</a>
</g>
</g>
<!-- Node21 -->
<g id="Node000021" class="node">
<title>Node21</title>
<g id="a_Node000021"><a xlink:title=" ">
<polygon fill="#e0e0e0" stroke="#999999" points="899.5,-244 834.75,-244 834.75,-224 899.5,-224 899.5,-244"/>
<text text-anchor="middle" x="867.12" y="-230.5" font-family="Helvetica,sans-Serif" font-size="10.00">wincodec.h</text>
</a>
</g>
</g>
<!-- Node2&#45;&gt;Node21 -->
<g id="edge20_Node000002_Node000021" class="edge">
<title>Node2&#45;&gt;Node21</title>
<g id="a_edge20_Node000002_Node000021"><a xlink:title=" ">
<path fill="none" stroke="#63b8ff" d="M1767.54,-289.36C1641.66,-289.98 1246.64,-288.13 911.12,-244.18"/>
<polygon fill="#63b8ff" stroke="#63b8ff" points="911.59,-240.71 901.21,-242.86 910.66,-247.65 911.59,-240.71"/>
</a>
</g>
</g>
<!-- Node22 -->
<g id="Node000022" class="node">
<title>Node22</title>
<g id="a_Node000022"><a xlink:title=" ">
<polygon fill="#e0e0e0" stroke="#999999" points="975.12,-244 917.12,-244 917.12,-224 975.12,-224 975.12,-244"/>
<text text-anchor="middle" x="946.12" y="-230.5" font-family="Helvetica,sans-Serif" font-size="10.00">lodepng.h</text>
</a>
</g>
</g>
<!-- Node2&#45;&gt;Node22 -->
<g id="edge21_Node000002_Node000022" class="edge">
<title>Node2&#45;&gt;Node22</title>
<g id="a_edge21_Node000002_Node000022"><a xlink:title=" ">
<path fill="none" stroke="#63b8ff" d="M1767.57,-289.33C1648.82,-289.76 1291.47,-287.21 986.76,-244.12"/>
<polygon fill="#63b8ff" stroke="#63b8ff" points="987.38,-240.67 976.98,-242.71 986.38,-247.6 987.38,-240.67"/>
</a>
</g>
</g>
<!-- Node23 -->
<g id="Node000023" class="node">
<title>Node23</title>
<g id="a_Node000023"><a xlink:title=" ">
<polygon fill="#e0e0e0" stroke="#999999" points="1043.38,-244 992.88,-244 992.88,-224 1043.38,-224 1043.38,-244"/>
<text text-anchor="middle" x="1018.12" y="-230.5" font-family="Helvetica,sans-Serif" font-size="10.00">d3d11.h</text>
</a>
</g>
</g>
<!-- Node2&#45;&gt;Node23 -->
<g id="edge22_Node000002_Node000023" class="edge">
<title>Node2&#45;&gt;Node23</title>
<g id="a_edge22_Node000002_Node000023"><a xlink:title=" ">
<path fill="none" stroke="#63b8ff" d="M1767.73,-289.31C1655.81,-289.59 1332.28,-286.51 1054.72,-243.89"/>
<polygon fill="#63b8ff" stroke="#63b8ff" points="1055.54,-240.47 1045.12,-242.39 1054.46,-247.39 1055.54,-240.47"/>
</a>
</g>
</g>
<!-- Node24 -->
<g id="Node000024" class="node">
<title>Node24</title>
<g id="a_Node000024"><a xlink:title=" ">
<polygon fill="#e0e0e0" stroke="#999999" points="1138.5,-244 1061.75,-244 1061.75,-224 1138.5,-224 1138.5,-244"/>
<text text-anchor="middle" x="1100.12" y="-230.5" font-family="Helvetica,sans-Serif" font-size="10.00">DirectXMath.h</text>
</a>
</g>
</g>
<!-- Node2&#45;&gt;Node24 -->
<g id="edge23_Node000002_Node000024" class="edge">
<title>Node2&#45;&gt;Node24</title>
<g id="a_edge23_Node000002_Node000024"><a xlink:title=" ">
<path fill="none" stroke="#63b8ff" d="M1767.72,-287.95C1665.78,-284.95 1389.78,-274.57 1150.18,-244.25"/>
<polygon fill="#63b8ff" stroke="#63b8ff" points="1150.66,-240.78 1140.3,-242.98 1149.77,-247.73 1150.66,-240.78"/>
</a>
</g>
</g>
<!-- Node25 -->
<g id="Node000025" class="node">
<title>Node25</title>
<g id="a_Node000025"><a xlink:title=" ">
<polygon fill="#e0e0e0" stroke="#999999" points="1236,-244 1156.25,-244 1156.25,-224 1236,-224 1236,-244"/>
<text text-anchor="middle" x="1196.12" y="-230.5" font-family="Helvetica,sans-Serif" font-size="10.00">D3Dcompiler.h</text>
</a>
</g>
</g>
<!-- Node2&#45;&gt;Node25 -->
<g id="edge24_Node000002_Node000025" class="edge">
<title>Node2&#45;&gt;Node25</title>
<g id="a_edge24_Node000002_Node000025"><a xlink:title=" ">
<path fill="none" stroke="#63b8ff" d="M1767.7,-287.18C1676.71,-282.8 1448.72,-270.11 1247.81,-244.23"/>
<polygon fill="#63b8ff" stroke="#63b8ff" points="1248.32,-240.76 1237.95,-242.94 1247.41,-247.7 1248.32,-240.76"/>
</a>
</g>
</g>
<!-- Node26 -->
<g id="Node000026" class="node">
<title>Node26</title>
<g id="a_Node000026"><a xlink:title=" ">
<polygon fill="#e0e0e0" stroke="#999999" points="1310,-244 1254.25,-244 1254.25,-224 1310,-224 1310,-244"/>
<text text-anchor="middle" x="1282.12" y="-230.5" font-family="Helvetica,sans-Serif" font-size="10.00">d2d1_2.h</text>
</a>
</g>
</g>
<!-- Node2&#45;&gt;Node26 -->
<g id="edge25_Node000002_Node000026" class="edge">
<title>Node2&#45;&gt;Node26</title>
<g id="a_edge25_Node000002_Node000026"><a xlink:title=" ">
<path fill="none" stroke="#63b8ff" d="M1767.62,-287.29C1685.34,-283.37 1492.67,-272.01 1321.56,-244.17"/>
<polygon fill="#63b8ff" stroke="#63b8ff" points="1322.25,-240.73 1311.81,-242.56 1321.11,-247.64 1322.25,-240.73"/>
</a>
</g>
</g>
<!-- Node27 -->
<g id="Node000027" class="node">
<title>Node27</title>
<g id="a_Node000027"><a xlink:title=" ">
<polygon fill="#e0e0e0" stroke="#999999" points="1384,-244 1328.25,-244 1328.25,-224 1384,-224 1384,-244"/>
<text text-anchor="middle" x="1356.12" y="-230.5" font-family="Helvetica,sans-Serif" font-size="10.00">d2d1_1.h</text>
</a>
</g>
</g>
<!-- Node2&#45;&gt;Node27 -->
<g id="edge26_Node000002_Node000027" class="edge">
<title>Node2&#45;&gt;Node27</title>
<g id="a_edge26_Node000002_Node000027"><a xlink:title=" ">
<path fill="none" stroke="#63b8ff" d="M1767.53,-286.37C1694.84,-281.27 1537.55,-268.51 1395.4,-244.19"/>
<polygon fill="#63b8ff" stroke="#63b8ff" points="1396.27,-240.78 1385.82,-242.52 1395.07,-247.68 1396.27,-240.78"/>
</a>
</g>
</g>
<!-- Node28 -->
<g id="Node000028" class="node">
<title>Node28</title>
<g id="a_Node000028"><a xlink:title=" ">
<polygon fill="#e0e0e0" stroke="#999999" points="1447.75,-244 1402.5,-244 1402.5,-224 1447.75,-224 1447.75,-244"/>
<text text-anchor="middle" x="1425.12" y="-230.5" font-family="Helvetica,sans-Serif" font-size="10.00">d2d1.h</text>
</a>
</g>
</g>
<!-- Node2&#45;&gt;Node28 -->
<g id="edge27_Node000002_Node000028" class="edge">
<title>Node2&#45;&gt;Node28</title>
<g id="a_edge27_Node000002_Node000028"><a xlink:title=" ">
<path fill="none" stroke="#63b8ff" d="M1767.54,-285.74C1703.83,-280.21 1576.37,-267.45 1459.05,-244.11"/>
<polygon fill="#63b8ff" stroke="#63b8ff" points="1460.08,-240.75 1449.58,-242.2 1458.69,-247.61 1460.08,-240.75"/>
</a>
</g>
</g>
<!-- Node29 -->
<g id="Node000029" class="node">
<title>Node29</title>
<g id="a_Node000029"><a xlink:title=" ">
<polygon fill="#e0e0e0" stroke="#999999" points="1516,-244 1466.25,-244 1466.25,-224 1516,-224 1516,-244"/>
<text text-anchor="middle" x="1491.12" y="-230.5" font-family="Helvetica,sans-Serif" font-size="10.00">dwrite.h</text>
</a>
</g>
</g>
<!-- Node2&#45;&gt;Node29 -->
<g id="edge28_Node000002_Node000029" class="edge">
<title>Node2&#45;&gt;Node29</title>
<g id="a_edge28_Node000002_Node000029"><a xlink:title=" ">
<path fill="none" stroke="#63b8ff" d="M1767.46,-283.28C1713.17,-275.45 1614.09,-260.46 1530.12,-244 1529.14,-243.81 1528.14,-243.61 1527.14,-243.4"/>
<polygon fill="#63b8ff" stroke="#63b8ff" points="1528.24,-240.06 1517.73,-241.37 1526.77,-246.9 1528.24,-240.06"/>
</a>
</g>
</g>
<!-- Node30 -->
<g id="Node000030" class="node">
<title>Node30</title>
<g id="a_Node000030"><a xlink:href="_win32_application_8h.html" target="_top" xlink:title=" ">
<polygon fill="white" stroke="#666666" points="2313.12,-244 2213.12,-244 2213.12,-224 2313.12,-224 2313.12,-244"/>
<text text-anchor="middle" x="2263.12" y="-230.5" font-family="Helvetica,sans-Serif" font-size="10.00">Win32Application.h</text>
</a>
</g>
</g>
<!-- Node2&#45;&gt;Node30 -->
<g id="edge29_Node000002_Node000030" class="edge">
<title>Node2&#45;&gt;Node30</title>
<g id="a_edge29_Node000002_Node000030"><a xlink:title=" ">
<path fill="none" stroke="#63b8ff" d="M1848.87,-284.31C1919.56,-276.69 2068.92,-260.79 2195.12,-244 2197.16,-243.73 2199.22,-243.45 2201.32,-243.16"/>
<polygon fill="#63b8ff" stroke="#63b8ff" points="2201.76,-246.63 2211.16,-241.76 2200.77,-239.7 2201.76,-246.63"/>
</a>
</g>
</g>
<!-- Node31 -->
<g id="Node000031" class="node">
<title>Node31</title>
<g id="a_Node000031"><a xlink:href="_direct_x_manager_8h.html" target="_top" xlink:title=" ">
<polygon fill="white" stroke="#666666" points="2309.38,-188 2216.88,-188 2216.88,-168 2309.38,-168 2309.38,-188"/>
<text text-anchor="middle" x="2263.12" y="-174.5" font-family="Helvetica,sans-Serif" font-size="10.00">DirectXManager.h</text>
</a>
</g>
</g>
<!-- Node2&#45;&gt;Node31 -->
<g id="edge51_Node000002_Node000031" class="edge">
<title>Node2&#45;&gt;Node31</title>
<g id="a_edge51_Node000002_Node000031"><a xlink:title=" ">
<path fill="none" stroke="#63b8ff" d="M1815.52,-279.66C1833.17,-265.15 1876.25,-237.46 1917.12,-224 2014.58,-191.91 2135.06,-182.65 2205.19,-180.01"/>
<polygon fill="#63b8ff" stroke="#63b8ff" points="2205.03,-183.52 2214.9,-179.68 2204.79,-176.52 2205.03,-183.52"/>
</a>
</g>
</g>
<!-- Node32 -->
<g id="Node000032" class="node">
<title>Node32</title>
<g id="a_Node000032"><a xlink:href="_camera_8h.html" target="_top" xlink:title=" ">
<polygon fill="white" stroke="#666666" points="1648.12,-132 1590.12,-132 1590.12,-112 1648.12,-112 1648.12,-132"/>
<text text-anchor="middle" x="1619.12" y="-118.5" font-family="Helvetica,sans-Serif" font-size="10.00">Camera.h</text>
</a>
</g>
</g>
<!-- Node2&#45;&gt;Node32 -->
<g id="edge52_Node000002_Node000032" class="edge">
<title>Node2&#45;&gt;Node32</title>
<g id="a_edge52_Node000002_Node000032"><a xlink:title=" ">
<path fill="none" stroke="#63b8ff" d="M1767.67,-284.46C1720.22,-277.84 1646.15,-264.12 1628.12,-244 1603.29,-216.28 1604.02,-169.81 1609.84,-143.25"/>
<polygon fill="#63b8ff" stroke="#63b8ff" points="1613.18,-144.31 1612.5,-133.74 1606.44,-142.43 1613.18,-144.31"/>
</a>
</g>
</g>
<!-- Node2&#45;&gt;Node33 -->
<g id="edge53_Node000002_Node000033" class="edge">
<title>Node2&#45;&gt;Node33</title>
<g id="a_edge53_Node000002_Node000033"><a xlink:title=" ">
<path fill="none" stroke="#63b8ff" d="M1848.83,-289.32C2017.76,-290.25 2657.39,-290.43 2734.12,-244 2771.5,-221.38 2791.36,-171.06 2802.99,-142.95"/>
<polygon fill="#63b8ff" stroke="#63b8ff" points="2806.19,-144.38 2806.91,-133.81 2799.75,-141.62 2806.19,-144.38"/>
</a>
</g>
</g>
<!-- Node34 -->
<g id="Node000034" class="node">
<title>Node34</title>
<g id="a_Node000034"><a xlink:href="_render_state_8h.html" target="_top" xlink:title=" ">
<polygon fill="white" stroke="#666666" points="1919.25,-20 1841,-20 1841,0 1919.25,0 1919.25,-20"/>
<text text-anchor="middle" x="1880.12" y="-6.5" font-family="Helvetica,sans-Serif" font-size="10.00">RenderState.h</text>
</a>
</g>
</g>
<!-- Node2&#45;&gt;Node34 -->
<g id="edge57_Node000002_Node000034" class="edge">
<title>Node2&#45;&gt;Node34</title>
<g id="a_edge57_Node000002_Node000034"><a xlink:title=" ">
<path fill="none" stroke="#63b8ff" d="M1767.42,-289.27C1693.22,-287.74 1544.12,-273.38 1544.12,-179 1544.12,-179 1544.12,-179 1544.12,-121 1544.12,-62.35 1735.48,-29.06 1829.45,-16.65"/>
<polygon fill="#63b8ff" stroke="#63b8ff" points="1829.71,-20.15 1839.18,-15.4 1828.82,-13.21 1829.71,-20.15"/>
</a>
</g>
</g>
<!-- Node35 -->
<g id="Node000035" class="node">
<title>Node35</title>
<g id="a_Node000035"><a xlink:href="_shader_program_8h.html" target="_top" xlink:title=" ">
<polygon fill="white" stroke="#666666" points="2583,-20 2491.25,-20 2491.25,0 2583,0 2583,-20"/>
<text text-anchor="middle" x="2537.12" y="-6.5" font-family="Helvetica,sans-Serif" font-size="10.00">ShaderProgram.h</text>
</a>
</g>
</g>
<!-- Node2&#45;&gt;Node35 -->
<g id="edge58_Node000002_Node000035" class="edge">
<title>Node2&#45;&gt;Node35</title>
<g id="a_edge58_Node000002_Node000035"><a xlink:title=" ">
<path fill="none" stroke="#63b8ff" d="M1848.8,-289.45C2012.12,-290.8 2613.81,-292.19 2683.12,-244 2708.95,-226.05 2711.12,-210.46 2711.12,-179 2711.12,-179 2711.12,-179 2711.12,-121 2711.12,-64.02 2645.14,-35.81 2594.37,-22.36"/>
<polygon fill="#63b8ff" stroke="#63b8ff" points="2595.48,-19.03 2584.93,-20 2593.79,-25.82 2595.48,-19.03"/>
</a>
</g>
</g>
<!-- Node37 -->
<g id="Node000037" class="node">
<title>Node37</title>
<g id="a_Node000037"><a xlink:href="_material_8h.html" target="_top" xlink:title=" ">
<polygon fill="white" stroke="#666666" points="2302.5,-76 2243.75,-76 2243.75,-56 2302.5,-56 2302.5,-76"/>
<text text-anchor="middle" x="2273.12" y="-62.5" font-family="Helvetica,sans-Serif" font-size="10.00">Material.h</text>
</a>
</g>
</g>
<!-- Node2&#45;&gt;Node37 -->
<g id="edge54_Node000002_Node000037" class="edge">
<title>Node2&#45;&gt;Node37</title>
<g id="a_edge54_Node000002_Node000037"><a xlink:title=" ">
<path fill="none" stroke="#63b8ff" d="M1848.62,-289.47C1986.84,-290.55 2432.97,-290.12 2476.12,-244 2498.91,-219.65 2584.74,-246.99 2468.12,-112 2448.05,-88.77 2365.3,-76.58 2314.16,-70.99"/>
<polygon fill="#63b8ff" stroke="#63b8ff" points="2314.64,-67.52 2304.33,-69.96 2313.91,-74.49 2314.64,-67.52"/>
</a>
</g>
</g>
<!-- Node38 -->
<g id="Node000038" class="node">
<title>Node38</title>
<g id="a_Node000038"><a xlink:href="_model_8h.html" target="_top" xlink:title=" ">
<polygon fill="white" stroke="#666666" points="1945.38,-132 1894.88,-132 1894.88,-112 1945.38,-112 1945.38,-132"/>
<text text-anchor="middle" x="1920.12" y="-118.5" font-family="Helvetica,sans-Serif" font-size="10.00">Model.h</text>
</a>
</g>
</g>
<!-- Node2&#45;&gt;Node38 -->
<g id="edge56_Node000002_Node000038" class="edge">
<title>Node2&#45;&gt;Node38</title>
<g id="a_edge56_Node000002_Node000038"><a xlink:title=" ">
<path fill="none" stroke="#63b8ff" d="M1811.13,-279.6C1824.99,-252.89 1876.36,-176.23 1903.55,-141.05"/>
<polygon fill="#63b8ff" stroke="#63b8ff" points="1906.09,-143.48 1909.59,-133.48 1900.61,-139.12 1906.09,-143.48"/>
</a>
</g>
</g>
<!-- Node30&#45;&gt;Node2 -->
<g id="edge30_Node000030_Node000002" class="edge">
<title>Node30&#45;&gt;Node2</title>
<g id="a_edge30_Node000030_Node000002"><a xlink:title=" ">
<path fill="none" stroke="#63b8ff" d="M2212.74,-244.05C2086.57,-260.83 1937.38,-276.71 1860.11,-284.32"/>
<polygon fill="#63b8ff" stroke="#63b8ff" points="1859.91,-280.82 1850.3,-285.27 1860.59,-287.79 1859.91,-280.82"/>
</a>
</g>
</g>
<!-- Node30&#45;&gt;Node31 -->
<g id="edge31_Node000030_Node000031" class="edge">
<title>Node30&#45;&gt;Node31</title>
<g id="a_edge31_Node000030_Node000031"><a xlink:title=" ">
<path fill="none" stroke="#63b8ff" d="M2263.12,-223.59C2263.12,-217.01 2263.12,-207.96 2263.12,-199.73"/>
<polygon fill="#63b8ff" stroke="#63b8ff" points="2266.63,-199.81 2263.13,-189.81 2259.63,-199.81 2266.63,-199.81"/>
</a>
</g>
</g>
<!-- Node31&#45;&gt;Node1 -->
<g id="edge37_Node000031_Node000001" class="edge">
<title>Node31&#45;&gt;Node1</title>
<g id="a_edge37_Node000031_Node000001"><a xlink:title=" ">
<path fill="none" stroke="#63b8ff" d="M2309.74,-180.44C2415.59,-184.19 2666.88,-195.97 2692.12,-224 2745.25,-282.99 2432.49,-326.1 2314.13,-340.11"/>
<polygon fill="#63b8ff" stroke="#63b8ff" points="2314,-336.6 2304.48,-341.24 2314.81,-343.55 2314,-336.6"/>
</a>
</g>
</g>
<!-- Node31&#45;&gt;Node2 -->
<g id="edge32_Node000031_Node000002" class="edge">
<title>Node31&#45;&gt;Node2</title>
<g id="a_edge32_Node000031_Node000002"><a xlink:title=" ">
<path fill="none" stroke="#63b8ff" d="M2216.63,-180.05C2151.92,-182.74 2032.12,-192.06 1935.12,-224 1899.2,-235.83 1861.57,-258.65 1836.46,-273.86"/>
<polygon fill="#63b8ff" stroke="#63b8ff" points="1834.89,-270.72 1828.13,-278.88 1838.5,-276.72 1834.89,-270.72"/>
</a>
</g>
</g>
<!-- Node31&#45;&gt;Node32 -->
<g id="edge33_Node000031_Node000032" class="edge">
<title>Node31&#45;&gt;Node32</title>
<g id="a_edge33_Node000031_Node000032"><a xlink:title=" ">
<path fill="none" stroke="#63b8ff" d="M2216.55,-173.09C2095.72,-162.96 1773.7,-135.96 1659.77,-126.41"/>
<polygon fill="#63b8ff" stroke="#63b8ff" points="1660.24,-122.94 1649.98,-125.59 1659.65,-129.91 1660.24,-122.94"/>
</a>
</g>
</g>
<!-- Node31&#45;&gt;Node33 -->
<g id="edge35_Node000031_Node000033" class="edge">
<title>Node31&#45;&gt;Node33</title>
<g id="a_edge35_Node000031_Node000033"><a xlink:title=" ">
<path fill="none" stroke="#63b8ff" d="M2309.63,-172.44C2410.11,-162.59 2647.25,-139.35 2756.8,-128.62"/>
<polygon fill="#63b8ff" stroke="#63b8ff" points="2756.82,-132.13 2766.43,-127.67 2756.14,-125.17 2756.82,-132.13"/>
</a>
</g>
</g>
<!-- Node31&#45;&gt;Node34 -->
<g id="edge38_Node000031_Node000034" class="edge">
<title>Node31&#45;&gt;Node34</title>
<g id="a_edge38_Node000031_Node000034"><a xlink:title=" ">
<path fill="none" stroke="#63b8ff" d="M2241.44,-167.6C2177.18,-139.75 1987.61,-57.59 1911.89,-24.77"/>
<polygon fill="#63b8ff" stroke="#63b8ff" points="1913.53,-21.66 1902.96,-20.9 1910.75,-28.09 1913.53,-21.66"/>
</a>
</g>
</g>
<!-- Node31&#45;&gt;Node35 -->
<g id="edge40_Node000031_Node000035" class="edge">
<title>Node31&#45;&gt;Node35</title>
<g id="a_edge40_Node000031_Node000035"><a xlink:title=" ">
<path fill="none" stroke="#63b8ff" d="M2277.87,-167.64C2297.97,-154.91 2335.13,-131.5 2367.12,-112 2417.91,-81.05 2477.82,-45.73 2511.24,-26.13"/>
<polygon fill="#63b8ff" stroke="#63b8ff" points="2512.95,-29.19 2519.81,-21.11 2509.41,-23.15 2512.95,-29.19"/>
</a>
</g>
</g>
<!-- Node36 -->
<g id="Node000036" class="node">
<title>Node36</title>
<g id="a_Node000036"><a xlink:href="_shader_manager_8h.html" target="_top" xlink:title=" ">
<polygon fill="white" stroke="#666666" points="2468.38,-132 2375.88,-132 2375.88,-112 2468.38,-112 2468.38,-132"/>
<text text-anchor="middle" x="2422.12" y="-118.5" font-family="Helvetica,sans-Serif" font-size="10.00">ShaderManager.h</text>
</a>
</g>
</g>
<!-- Node31&#45;&gt;Node36 -->
<g id="edge42_Node000031_Node000036" class="edge">
<title>Node31&#45;&gt;Node36</title>
<g id="a_edge42_Node000031_Node000036"><a xlink:title=" ">
<path fill="none" stroke="#63b8ff" d="M2290.82,-167.59C2316.43,-158.9 2354.73,-145.89 2383.37,-136.16"/>
<polygon fill="#63b8ff" stroke="#63b8ff" points="2384.44,-139.5 2392.78,-132.97 2382.19,-132.87 2384.44,-139.5"/>
</a>
</g>
</g>
<!-- Node31&#45;&gt;Node37 -->
<g id="edge44_Node000031_Node000037" class="edge">
<title>Node31&#45;&gt;Node37</title>
<g id="a_edge44_Node000031_Node000037"><a xlink:title=" ">
<path fill="none" stroke="#63b8ff" d="M2263.98,-167.62C2265.58,-150.01 2269.07,-111.59 2271.25,-87.65"/>
<polygon fill="#63b8ff" stroke="#63b8ff" points="2274.72,-88.14 2272.14,-77.86 2267.75,-87.5 2274.72,-88.14"/>
</a>
</g>
</g>
<!-- Node31&#45;&gt;Node38 -->
<g id="edge48_Node000031_Node000038" class="edge">
<title>Node31&#45;&gt;Node38</title>
<g id="a_edge48_Node000031_Node000038"><a xlink:title=" ">
<path fill="none" stroke="#63b8ff" d="M2216.51,-169.66C2147.51,-158.8 2019.59,-138.66 1956.81,-128.78"/>
<polygon fill="#63b8ff" stroke="#63b8ff" points="1957.44,-125.33 1947.01,-127.23 1956.35,-132.25 1957.44,-125.33"/>
</a>
</g>
</g>
<!-- Node32&#45;&gt;Node2 -->
<g id="edge34_Node000032_Node000002" class="edge">
<title>Node32&#45;&gt;Node2</title>
<g id="a_edge34_Node000032_Node000002"><a xlink:title=" ">
<path fill="none" stroke="#63b8ff" d="M1621.93,-132.28C1622.89,-154.62 1617.36,-211.89 1646.12,-244 1661.14,-260.75 1715.01,-273.07 1756.63,-280.55"/>
<polygon fill="#63b8ff" stroke="#63b8ff" points="1755.79,-283.95 1766.24,-282.22 1756.99,-277.06 1755.79,-283.95"/>
</a>
</g>
</g>
<!-- Node33&#45;&gt;Node2 -->
<g id="edge36_Node000033_Node000002" class="edge">
<title>Node33&#45;&gt;Node2</title>
<g id="a_edge36_Node000033_Node000002"><a xlink:title=" ">
<path fill="none" stroke="#63b8ff" d="M2816.26,-132.42C2814.67,-156.11 2794.84,-218.15 2752.12,-244 2676.07,-290.02 2046.97,-290.25 1860.16,-289.34"/>
<polygon fill="#63b8ff" stroke="#63b8ff" points="1860.29,-285.84 1850.28,-289.29 1860.26,-292.84 1860.29,-285.84"/>
</a>
</g>
</g>
<!-- Node34&#45;&gt;Node2 -->
<g id="edge39_Node000034_Node000002" class="edge">
<title>Node34&#45;&gt;Node2</title>
<g id="a_edge39_Node000034_Node000002"><a xlink:title=" ">
<path fill="none" stroke="#63b8ff" d="M1840.6,-16.48C1755.28,-28.75 1562.12,-62.08 1562.12,-121 1562.12,-179 1562.12,-179 1562.12,-179 1562.12,-264.35 1684.07,-284.26 1756.32,-288.42"/>
<polygon fill="#63b8ff" stroke="#63b8ff" points="1755.8,-291.9 1765.95,-288.89 1756.14,-284.91 1755.8,-291.9"/>
</a>
</g>
</g>
<!-- Node35&#45;&gt;Node2 -->
<g id="edge41_Node000035_Node000002" class="edge">
<title>Node35&#45;&gt;Node2</title>
<g id="a_edge41_Node000035_Node000002"><a xlink:title=" ">
<path fill="none" stroke="#63b8ff" d="M2583.23,-16.95C2640.15,-27.46 2729.12,-54.83 2729.12,-121 2729.12,-179 2729.12,-179 2729.12,-179 2729.12,-210.46 2726.95,-226.05 2701.12,-244 2632.41,-291.77 2040.53,-290.83 1860.06,-289.48"/>
<polygon fill="#63b8ff" stroke="#63b8ff" points="1860.32,-285.98 1850.3,-289.41 1860.27,-292.98 1860.32,-285.98"/>
</a>
</g>
</g>
<!-- Node36&#45;&gt;Node2 -->
<g id="edge43_Node000036_Node000002" class="edge">
<title>Node36&#45;&gt;Node2</title>
<g id="a_edge43_Node000036_Node000002"><a xlink:title=" ">
<path fill="none" stroke="#63b8ff" d="M2431.29,-132.48C2451.73,-154.74 2496.94,-211 2466.12,-244 2425.08,-287.95 2008.36,-290.07 1860.12,-289.42"/>
<polygon fill="#63b8ff" stroke="#63b8ff" points="1860.21,-285.92 1850.2,-289.37 1860.18,-292.92 1860.21,-285.92"/>
</a>
</g>
</g>
<!-- Node37&#45;&gt;Node2 -->
<g id="edge45_Node000037_Node000002" class="edge">
<title>Node37&#45;&gt;Node2</title>
<g id="a_edge45_Node000037_Node000002"><a xlink:title=" ">
<path fill="none" stroke="#63b8ff" d="M2302.62,-68.82C2355.65,-73.01 2462.89,-85.1 2486.12,-112 2602.74,-246.99 2516.91,-219.65 2494.12,-244 2451.33,-289.74 2012.26,-290.54 1859.82,-289.5"/>
<polygon fill="#63b8ff" stroke="#63b8ff" points="1860.04,-286 1850.02,-289.43 1859.99,-293 1860.04,-286"/>
</a>
</g>
</g>
<!-- Node37&#45;&gt;Node34 -->
<g id="edge47_Node000037_Node000034" class="edge">
<title>Node37&#45;&gt;Node34</title>
<g id="a_edge47_Node000037_Node000034"><a xlink:title=" ">
<path fill="none" stroke="#63b8ff" d="M2243.26,-60.9C2176.37,-51.71 2013.88,-29.38 1930.82,-17.97"/>
<polygon fill="#63b8ff" stroke="#63b8ff" points="1931.53,-14.53 1921.15,-16.64 1930.58,-21.47 1931.53,-14.53"/>
</a>
</g>
</g>
<!-- Node37&#45;&gt;Node35 -->
<g id="edge46_Node000037_Node000035" class="edge">
<title>Node37&#45;&gt;Node35</title>
<g id="a_edge46_Node000037_Node000035"><a xlink:title=" ">
<path fill="none" stroke="#63b8ff" d="M2302.9,-58.91C2345.7,-50.16 2425.46,-33.84 2479.9,-22.71"/>
<polygon fill="#63b8ff" stroke="#63b8ff" points="2480.53,-26.15 2489.62,-20.72 2479.13,-19.29 2480.53,-26.15"/>
</a>
</g>
</g>
<!-- Node38&#45;&gt;Node2 -->
<g id="edge49_Node000038_Node000002" class="edge">
<title>Node38&#45;&gt;Node2</title>
<g id="a_edge49_Node000038_Node000002"><a xlink:title=" ">
<path fill="none" stroke="#63b8ff" d="M1917.17,-132.3C1903.41,-158.88 1852.06,-235.53 1824.8,-270.82"/>
<polygon fill="#63b8ff" stroke="#63b8ff" points="1822.24,-268.41 1818.75,-278.42 1827.72,-272.78 1822.24,-268.41"/>
</a>
</g>
</g>
<!-- Node38&#45;&gt;Node37 -->
<g id="edge50_Node000038_Node000037" class="edge">
<title>Node38&#45;&gt;Node37</title>
<g id="a_edge50_Node000038_Node000037"><a xlink:title=" ">
<path fill="none" stroke="#63b8ff" d="M1945.8,-117.07C2006.41,-107.8 2158.83,-84.48 2232.29,-73.25"/>
<polygon fill="#63b8ff" stroke="#63b8ff" points="2232.52,-76.75 2241.88,-71.78 2231.47,-69.83 2232.52,-76.75"/>
</a>
</g>
</g>
</g>
</svg>
