<?xml version="1.0" encoding="UTF-8" standalone="no"?>
<!DOCTYPE svg PUBLIC "-//W3C//DTD SVG 1.1//EN"
 "http://www.w3.org/Graphics/SVG/1.1/DTD/svg11.dtd">
<!-- Generated by graphviz version 9.0.0 (20230911.1827)
 -->
<!-- Title: src/Model.h Pages: 1 -->
<!--zoomable 308 -->

<svg id="main" version="1.1" xmlns="http://www.w3.org/2000/svg" xmlns:xlink="http://www.w3.org/1999/xlink" xml:space="preserve" onload="init(evt)">
<style type="text/css"><![CDATA[
.node, .edge {opacity: 0.7;}
.node.selected, .edge.selected {opacity: 1;}
.edge:hover path { stroke: red; }
.edge:hover polygon { stroke: red; fill: red; }
]]></style>

<defs>
  <circle id="rim" cx="0" cy="0" r="7"/>
  <circle id="rim2" cx="0" cy="0" r="3.5"/>
  <g id="zoomPlus">
    <use xlink:href="#rim" fill="#404040"><set attributeName="fill" to="#808080" begin="zoomplus.mouseover" end="zoomplus.mouseout"/></use>
    <path d="M-4,0h8M0,-4v8" fill="none" stroke="white" stroke-width="1.5" pointer-events="none"/>
  </g>
  <g id="zoomMin">
    <use xlink:href="#rim" fill="#404040"><set attributeName="fill" to="#808080" begin="zoomminus.mouseover" end="zoomminus.mouseout"/></use>
    <path d="M-4,0h8" fill="none" stroke="white" stroke-width="1.5" pointer-events="none"/>
  </g>
  <g id="arrowUp" transform="translate(30 24)">
    <use xlink:href="#rim"/>
    <path pointer-events="none" fill="none" stroke="white" stroke-width="1.5" d="M0,-3.0v7 M-2.5,-0.5L0,-3.0L2.5,-0.5"/>
  </g>
  <g id="arrowRight" transform="rotate(90) translate(36 -43)">
    <use xlink:href="#rim"/>
    <path pointer-events="none" fill="none" stroke="white" stroke-width="1.5" d="M0,-3.0v7 M-2.5,-0.5L0,-3.0L2.5,-0.5"/>
  </g>
  <g id="arrowDown" transform="rotate(180) translate(-30 -48)">
    <use xlink:href="#rim"/>
    <path pointer-events="none" fill="none" stroke="white" stroke-width="1.5" d="M0,-3.0v7 M-2.5,-0.5L0,-3.0L2.5,-0.5"/>
  </g>
  <g id="arrowLeft" transform="rotate(270) translate(-36 17)">
    <use xlink:href="#rim"/>
    <path pointer-events="none" fill="none" stroke="white" stroke-width="1.5" d="M0,-3.0v7 M-2.5,-0.5L0,-3.0L2.5,-0.5"/>
  </g>
  <g id="resetDef">
    <use xlink:href="#rim2" fill="#404040"><set attributeName="fill" to="#808080" begin="reset.mouseover" end="reset.mouseout"/></use>
  </g>
</defs>
<script type="application/ecmascript">
var viewWidth = 2837;
var viewHeight = 308;
var sectionId = 'dynsection-0';
</script>
<script type="application/ecmascript" xlink:href="svg.min.js"/>
<svg id="graph" class="graph">
<g id="viewport">
<title>src/Model.h</title>
<!-- Node1 -->
<g id="Node000001" class="node">
<title>Node1</title>
<g id="a_Node000001"><a xlink:title=" ">
<polygon fill="#999999" stroke="#666666" points="2398.25,-300 2331.25,-300 2331.25,-280 2398.25,-280 2398.25,-300"/>
<text text-anchor="middle" x="2364.75" y="-286.5" font-family="Helvetica,sans-Serif" font-size="10.00">src/Model.h</text>
</a>
</g>
</g>
<!-- Node2 -->
<g id="Node000002" class="node">
<title>Node2</title>
<g id="a_Node000002"><a xlink:href="_game_engine_8h.html" target="_top" xlink:title=" ">
<polygon fill="white" stroke="#666666" points="1979,-244 1898.5,-244 1898.5,-224 1979,-224 1979,-244"/>
<text text-anchor="middle" x="1938.75" y="-230.5" font-family="Helvetica,sans-Serif" font-size="10.00">GameEngine.h</text>
</a>
</g>
</g>
<!-- Node1&#45;&gt;Node2 -->
<g id="edge1_Node000001_Node000002" class="edge">
<title>Node1&#45;&gt;Node2</title>
<g id="a_edge1_Node000001_Node000002"><a xlink:title=" ">
<path fill="none" stroke="#63b8ff" d="M2330.77,-285.16C2256.41,-276.2 2079.35,-253.8 1990.84,-242.21"/>
<polygon fill="#63b8ff" stroke="#63b8ff" points="1991.34,-238.74 1980.97,-240.91 1990.43,-245.68 1991.34,-238.74"/>
</a>
</g>
</g>
<!-- Node38 -->
<g id="Node000038" class="node">
<title>Node38</title>
<g id="a_Node000038"><a xlink:href="_material_8h.html" target="_top" xlink:title=" ">
<polygon fill="white" stroke="#666666" points="2603.12,-76 2544.38,-76 2544.38,-56 2603.12,-56 2603.12,-76"/>
<text text-anchor="middle" x="2573.75" y="-62.5" font-family="Helvetica,sans-Serif" font-size="10.00">Material.h</text>
</a>
</g>
</g>
<!-- Node1&#45;&gt;Node38 -->
<g id="edge59_Node000001_Node000038" class="edge">
<title>Node1&#45;&gt;Node38</title>
<g id="a_edge59_Node000001_Node000038"><a xlink:title=" ">
<path fill="none" stroke="#63b8ff" d="M2398.55,-289.57C2464.29,-289.67 2613.16,-284.87 2729.75,-244 2774.57,-228.29 2797.58,-229.46 2820.75,-188 2866.54,-106.06 2696.36,-78.61 2614.89,-70.29"/>
<polygon fill="#63b8ff" stroke="#63b8ff" points="2615.35,-66.81 2605.06,-69.34 2614.68,-73.78 2615.35,-66.81"/>
</a>
</g>
</g>
<!-- Node2&#45;&gt;Node1 -->
<g id="edge56_Node000002_Node000001" class="edge">
<title>Node2&#45;&gt;Node1</title>
<g id="a_edge56_Node000002_Node000001"><a xlink:title=" ">
<path fill="none" stroke="#63b8ff" d="M1979.25,-239.63C2059.14,-249.31 2236.12,-271.72 2319.61,-282.7"/>
<polygon fill="#63b8ff" stroke="#63b8ff" points="2319.12,-286.17 2329.49,-284.01 2320.04,-279.23 2319.12,-286.17"/>
</a>
</g>
</g>
<!-- Node3 -->
<g id="Node000003" class="node">
<title>Node3</title>
<g id="a_Node000003"><a xlink:title=" ">
<polygon fill="#e0e0e0" stroke="#999999" points="2254.62,-188 2174.88,-188 2174.88,-168 2254.62,-168 2254.62,-188"/>
<text text-anchor="middle" x="2214.75" y="-174.5" font-family="Helvetica,sans-Serif" font-size="10.00">SDKDDKVer.h</text>
</a>
</g>
</g>
<!-- Node2&#45;&gt;Node3 -->
<g id="edge2_Node000002_Node000003" class="edge">
<title>Node2&#45;&gt;Node3</title>
<g id="a_edge2_Node000002_Node000003"><a xlink:title=" ">
<path fill="none" stroke="#63b8ff" d="M1979.47,-225.03C2028.37,-215.47 2110.41,-199.41 2163.55,-189.02"/>
<polygon fill="#63b8ff" stroke="#63b8ff" points="2164.13,-192.47 2173.27,-187.12 2162.78,-185.6 2164.13,-192.47"/>
</a>
</g>
</g>
<!-- Node4 -->
<g id="Node000004" class="node">
<title>Node4</title>
<g id="a_Node000004"><a xlink:title=" ">
<polygon fill="#e0e0e0" stroke="#999999" points="2452.25,-188 2391.25,-188 2391.25,-168 2452.25,-168 2452.25,-188"/>
<text text-anchor="middle" x="2421.75" y="-174.5" font-family="Helvetica,sans-Serif" font-size="10.00">windows.h</text>
</a>
</g>
</g>
<!-- Node2&#45;&gt;Node4 -->
<g id="edge3_Node000002_Node000004" class="edge">
<title>Node2&#45;&gt;Node4</title>
<g id="a_edge3_Node000002_Node000004"><a xlink:title=" ">
<path fill="none" stroke="#63b8ff" d="M1979.28,-230.52C2055.65,-225.49 2226.24,-212.58 2379.79,-188.13"/>
<polygon fill="#63b8ff" stroke="#63b8ff" points="2380,-191.64 2389.32,-186.59 2378.89,-184.73 2380,-191.64"/>
</a>
</g>
</g>
<!-- Node5 -->
<g id="Node000005" class="node">
<title>Node5</title>
<g id="a_Node000005"><a xlink:title=" ">
<polygon fill="#e0e0e0" stroke="#999999" points="2724.5,-188 2677,-188 2677,-168 2724.5,-168 2724.5,-188"/>
<text text-anchor="middle" x="2700.75" y="-174.5" font-family="Helvetica,sans-Serif" font-size="10.00">stdlib.h</text>
</a>
</g>
</g>
<!-- Node2&#45;&gt;Node5 -->
<g id="edge4_Node000002_Node000005" class="edge">
<title>Node2&#45;&gt;Node5</title>
<g id="a_edge4_Node000002_Node000005"><a xlink:title=" ">
<path fill="none" stroke="#63b8ff" d="M1979.43,-232.89C2089.91,-232.08 2404.57,-226.31 2662.75,-188 2663.75,-187.85 2664.76,-187.69 2665.77,-187.52"/>
<polygon fill="#63b8ff" stroke="#63b8ff" points="2666.14,-191.01 2675.26,-185.63 2664.77,-184.15 2666.14,-191.01"/>
</a>
</g>
</g>
<!-- Node6 -->
<g id="Node000006" class="node">
<title>Node6</title>
<g id="a_Node000006"><a xlink:title=" ">
<polygon fill="#e0e0e0" stroke="#999999" points="2795.12,-188 2742.38,-188 2742.38,-168 2795.12,-168 2795.12,-188"/>
<text text-anchor="middle" x="2768.75" y="-174.5" font-family="Helvetica,sans-Serif" font-size="10.00">malloc.h</text>
</a>
</g>
</g>
<!-- Node2&#45;&gt;Node6 -->
<g id="edge5_Node000002_Node000006" class="edge">
<title>Node2&#45;&gt;Node6</title>
<g id="a_edge5_Node000002_Node000006"><a xlink:title=" ">
<path fill="none" stroke="#63b8ff" d="M1979.16,-233.48C2095.04,-234.28 2438.36,-232.56 2730.85,-188.16"/>
<polygon fill="#63b8ff" stroke="#63b8ff" points="2731.26,-191.63 2740.61,-186.65 2730.2,-184.72 2731.26,-191.63"/>
</a>
</g>
</g>
<!-- Node7 -->
<g id="Node000007" class="node">
<title>Node7</title>
<g id="a_Node000007"><a xlink:title=" ">
<polygon fill="#e0e0e0" stroke="#999999" points="59.5,-188 0,-188 0,-168 59.5,-168 59.5,-188"/>
<text text-anchor="middle" x="29.75" y="-174.5" font-family="Helvetica,sans-Serif" font-size="10.00">memory.h</text>
</a>
</g>
</g>
<!-- Node2&#45;&gt;Node7 -->
<g id="edge6_Node000002_Node000007" class="edge">
<title>Node2&#45;&gt;Node7</title>
<g id="a_edge6_Node000002_Node000007"><a xlink:title=" ">
<path fill="none" stroke="#63b8ff" d="M1898.22,-233.14C1662.39,-233.8 464.01,-234.83 71.26,-187.99"/>
<polygon fill="#63b8ff" stroke="#63b8ff" points="71.73,-184.52 61.38,-186.77 70.88,-191.47 71.73,-184.52"/>
</a>
</g>
</g>
<!-- Node8 -->
<g id="Node000008" class="node">
<title>Node8</title>
<g id="a_Node000008"><a xlink:title=" ">
<polygon fill="#e0e0e0" stroke="#999999" points="123.75,-188 77.75,-188 77.75,-168 123.75,-168 123.75,-188"/>
<text text-anchor="middle" x="100.75" y="-174.5" font-family="Helvetica,sans-Serif" font-size="10.00">tchar.h</text>
</a>
</g>
</g>
<!-- Node2&#45;&gt;Node8 -->
<g id="edge7_Node000002_Node000008" class="edge">
<title>Node2&#45;&gt;Node8</title>
<g id="a_edge7_Node000002_Node000008"><a xlink:title=" ">
<path fill="none" stroke="#63b8ff" d="M1898.04,-232.59C1651.38,-230.05 360.3,-215.61 135.34,-187.82"/>
<polygon fill="#63b8ff" stroke="#63b8ff" points="135.9,-184.36 125.52,-186.47 134.96,-191.3 135.9,-184.36"/>
</a>
</g>
</g>
<!-- Node9 -->
<g id="Node000009" class="node">
<title>Node9</title>
<g id="a_Node000009"><a xlink:title=" ">
<polygon fill="#e0e0e0" stroke="#999999" points="203.62,-188 141.88,-188 141.88,-168 203.62,-168 203.62,-188"/>
<text text-anchor="middle" x="172.75" y="-174.5" font-family="Helvetica,sans-Serif" font-size="10.00">resource.h</text>
</a>
</g>
</g>
<!-- Node2&#45;&gt;Node9 -->
<g id="edge8_Node000002_Node000009" class="edge">
<title>Node2&#45;&gt;Node9</title>
<g id="a_edge8_Node000002_Node000009"><a xlink:title=" ">
<path fill="none" stroke="#63b8ff" d="M1898.07,-233.02C1672.97,-232.95 577.43,-230.49 215.37,-188.02"/>
<polygon fill="#63b8ff" stroke="#63b8ff" points="215.94,-184.57 205.59,-186.84 215.1,-191.52 215.94,-184.57"/>
</a>
</g>
</g>
<!-- Node10 -->
<g id="Node000010" class="node">
<title>Node10</title>
<g id="a_Node000010"><a xlink:title=" ">
<polygon fill="#e0e0e0" stroke="#999999" points="267.38,-188 222.12,-188 222.12,-168 267.38,-168 267.38,-188"/>
<text text-anchor="middle" x="244.75" y="-174.5" font-family="Helvetica,sans-Serif" font-size="10.00">chrono</text>
</a>
</g>
</g>
<!-- Node2&#45;&gt;Node10 -->
<g id="edge9_Node000002_Node000010" class="edge">
<title>Node2&#45;&gt;Node10</title>
<g id="a_edge9_Node000002_Node000010"><a xlink:title=" ">
<path fill="none" stroke="#63b8ff" d="M1898.21,-232.52C1664.02,-229.69 487.61,-214.31 278.93,-187.94"/>
<polygon fill="#63b8ff" stroke="#63b8ff" points="279.51,-184.48 269.12,-186.56 278.54,-191.42 279.51,-184.48"/>
</a>
</g>
</g>
<!-- Node11 -->
<g id="Node000011" class="node">
<title>Node11</title>
<g id="a_Node000011"><a xlink:title=" ">
<polygon fill="#e0e0e0" stroke="#999999" points="326.5,-188 285,-188 285,-168 326.5,-168 326.5,-188"/>
<text text-anchor="middle" x="305.75" y="-174.5" font-family="Helvetica,sans-Serif" font-size="10.00">vector</text>
</a>
</g>
</g>
<!-- Node2&#45;&gt;Node11 -->
<g id="edge10_Node000002_Node000011" class="edge">
<title>Node2&#45;&gt;Node11</title>
<g id="a_edge10_Node000002_Node000011"><a xlink:title=" ">
<path fill="none" stroke="#63b8ff" d="M1898.1,-233.31C1682.77,-234.71 672.83,-238.51 338.04,-187.84"/>
<polygon fill="#63b8ff" stroke="#63b8ff" points="338.81,-184.42 328.39,-186.33 337.73,-191.34 338.81,-184.42"/>
</a>
</g>
</g>
<!-- Node12 -->
<g id="Node000012" class="node">
<title>Node12</title>
<g id="a_Node000012"><a xlink:title=" ">
<polygon fill="#e0e0e0" stroke="#999999" points="398.5,-188 345,-188 345,-168 398.5,-168 398.5,-188"/>
<text text-anchor="middle" x="371.75" y="-174.5" font-family="Helvetica,sans-Serif" font-size="10.00">iostream</text>
</a>
</g>
</g>
<!-- Node2&#45;&gt;Node12 -->
<g id="edge11_Node000002_Node000012" class="edge">
<title>Node2&#45;&gt;Node12</title>
<g id="a_edge11_Node000002_Node000012"><a xlink:title=" ">
<path fill="none" stroke="#63b8ff" d="M1898.24,-232.99C1689.25,-232.76 730.72,-229.51 409.9,-187.91"/>
<polygon fill="#63b8ff" stroke="#63b8ff" points="410.63,-184.48 400.25,-186.62 409.7,-191.42 410.63,-184.48"/>
</a>
</g>
</g>
<!-- Node13 -->
<g id="Node000013" class="node">
<title>Node13</title>
<g id="a_Node000013"><a xlink:title=" ">
<polygon fill="#e0e0e0" stroke="#999999" points="464.88,-188 416.62,-188 416.62,-168 464.88,-168 464.88,-188"/>
<text text-anchor="middle" x="440.75" y="-174.5" font-family="Helvetica,sans-Serif" font-size="10.00">fstream</text>
</a>
</g>
</g>
<!-- Node2&#45;&gt;Node13 -->
<g id="edge12_Node000002_Node000013" class="edge">
<title>Node2&#45;&gt;Node13</title>
<g id="a_edge12_Node000002_Node000013"><a xlink:title=" ">
<path fill="none" stroke="#63b8ff" d="M1898.29,-233.04C1694.91,-233.07 782.36,-230.83 476.19,-187.94"/>
<polygon fill="#63b8ff" stroke="#63b8ff" points="477.02,-184.53 466.62,-186.55 476.01,-191.45 477.02,-184.53"/>
</a>
</g>
</g>
<!-- Node14 -->
<g id="Node000014" class="node">
<title>Node14</title>
<g id="a_Node000014"><a xlink:title=" ">
<polygon fill="#e0e0e0" stroke="#999999" points="542.88,-188 482.62,-188 482.62,-168 542.88,-168 542.88,-188"/>
<text text-anchor="middle" x="512.75" y="-174.5" font-family="Helvetica,sans-Serif" font-size="10.00">filesystem</text>
</a>
</g>
</g>
<!-- Node2&#45;&gt;Node14 -->
<g id="edge13_Node000002_Node000014" class="edge">
<title>Node2&#45;&gt;Node14</title>
<g id="a_edge13_Node000002_Node000014"><a xlink:title=" ">
<path fill="none" stroke="#63b8ff" d="M1898.19,-232.75C1701.52,-231.36 845.16,-223.46 554.64,-188.08"/>
<polygon fill="#63b8ff" stroke="#63b8ff" points="555.17,-184.61 544.81,-186.83 554.29,-191.56 555.17,-184.61"/>
</a>
</g>
</g>
<!-- Node15 -->
<g id="Node000015" class="node">
<title>Node15</title>
<g id="a_Node000015"><a xlink:title=" ">
<polygon fill="#e0e0e0" stroke="#999999" points="612.38,-188 561.12,-188 561.12,-168 612.38,-168 612.38,-188"/>
<text text-anchor="middle" x="586.75" y="-174.5" font-family="Helvetica,sans-Serif" font-size="10.00">sstream</text>
</a>
</g>
</g>
<!-- Node2&#45;&gt;Node15 -->
<g id="edge14_Node000002_Node000015" class="edge">
<title>Node2&#45;&gt;Node15</title>
<g id="a_edge14_Node000002_Node000015"><a xlink:title=" ">
<path fill="none" stroke="#63b8ff" d="M1898.32,-232.8C1708.02,-231.69 899.74,-224.95 623.78,-187.88"/>
<polygon fill="#63b8ff" stroke="#63b8ff" points="624.5,-184.45 614.12,-186.53 623.54,-191.38 624.5,-184.45"/>
</a>
</g>
</g>
<!-- Node16 -->
<g id="Node000016" class="node">
<title>Node16</title>
<g id="a_Node000016"><a xlink:title=" ">
<polygon fill="#e0e0e0" stroke="#999999" points="713.12,-188 630.38,-188 630.38,-168 713.12,-168 713.12,-188"/>
<text text-anchor="middle" x="671.75" y="-174.5" font-family="Helvetica,sans-Serif" font-size="10.00">unordered_map</text>
</a>
</g>
</g>
<!-- Node2&#45;&gt;Node16 -->
<g id="edge15_Node000002_Node000016" class="edge">
<title>Node2&#45;&gt;Node16</title>
<g id="a_edge15_Node000002_Node000016"><a xlink:title=" ">
<path fill="none" stroke="#63b8ff" d="M1898.15,-232.25C1716.95,-228.79 980.32,-213.48 724.52,-187.98"/>
<polygon fill="#63b8ff" stroke="#63b8ff" points="725.24,-184.54 714.94,-186.99 724.53,-191.5 725.24,-184.54"/>
</a>
</g>
</g>
<!-- Node17 -->
<g id="Node000017" class="node">
<title>Node17</title>
<g id="a_Node000017"><a xlink:title=" ">
<polygon fill="#e0e0e0" stroke="#999999" points="836,-188 731.5,-188 731.5,-168 836,-168 836,-188"/>
<text text-anchor="middle" x="783.75" y="-174.5" font-family="Helvetica,sans-Serif" font-size="10.00">assimp/Importer.hpp</text>
</a>
</g>
</g>
<!-- Node2&#45;&gt;Node17 -->
<g id="edge16_Node000002_Node000017" class="edge">
<title>Node2&#45;&gt;Node17</title>
<g id="a_edge16_Node000002_Node000017"><a xlink:title=" ">
<path fill="none" stroke="#63b8ff" d="M1898.41,-232.87C1756.09,-232.1 1263.96,-226.69 847.65,-188.17"/>
<polygon fill="#63b8ff" stroke="#63b8ff" points="848.07,-184.7 837.79,-187.25 847.42,-191.66 848.07,-184.7"/>
</a>
</g>
</g>
<!-- Node18 -->
<g id="Node000018" class="node">
<title>Node18</title>
<g id="a_Node000018"><a xlink:title=" ">
<polygon fill="#e0e0e0" stroke="#999999" points="939.25,-188 854.25,-188 854.25,-168 939.25,-168 939.25,-188"/>
<text text-anchor="middle" x="896.75" y="-174.5" font-family="Helvetica,sans-Serif" font-size="10.00">assimp/scene.h</text>
</a>
</g>
</g>
<!-- Node2&#45;&gt;Node18 -->
<g id="edge17_Node000002_Node000018" class="edge">
<title>Node2&#45;&gt;Node18</title>
<g id="a_edge17_Node000002_Node000018"><a xlink:title=" ">
<path fill="none" stroke="#63b8ff" d="M1898.06,-232.98C1764.1,-232.54 1324.56,-228.02 950.85,-188.07"/>
<polygon fill="#63b8ff" stroke="#63b8ff" points="951.36,-184.6 941.04,-187.01 950.61,-191.56 951.36,-184.6"/>
</a>
</g>
</g>
<!-- Node19 -->
<g id="Node000019" class="node">
<title>Node19</title>
<g id="a_Node000019"><a xlink:title=" ">
<polygon fill="#e0e0e0" stroke="#999999" points="1069.75,-188 957.75,-188 957.75,-168 1069.75,-168 1069.75,-188"/>
<text text-anchor="middle" x="1013.75" y="-174.5" font-family="Helvetica,sans-Serif" font-size="10.00">assimp/postprocess.h</text>
</a>
</g>
</g>
<!-- Node2&#45;&gt;Node19 -->
<g id="edge18_Node000002_Node000019" class="edge">
<title>Node2&#45;&gt;Node19</title>
<g id="a_edge18_Node000002_Node000019"><a xlink:title=" ">
<path fill="none" stroke="#63b8ff" d="M1898.36,-232.11C1776.63,-229.17 1402.45,-218.23 1081.48,-188.18"/>
<polygon fill="#63b8ff" stroke="#63b8ff" points="1081.88,-184.7 1071.59,-187.24 1081.22,-191.67 1081.88,-184.7"/>
</a>
</g>
</g>
<!-- Node20 -->
<g id="Node000020" class="node">
<title>Node20</title>
<g id="a_Node000020"><a xlink:title=" ">
<polygon fill="#e0e0e0" stroke="#999999" points="1233.25,-188 1088.25,-188 1088.25,-168 1233.25,-168 1233.25,-188"/>
<text text-anchor="middle" x="1160.75" y="-174.5" font-family="Helvetica,sans-Serif" font-size="10.00">directxtk\WICTextureLoader.h</text>
</a>
</g>
</g>
<!-- Node2&#45;&gt;Node20 -->
<g id="edge19_Node000002_Node000020" class="edge">
<title>Node2&#45;&gt;Node20</title>
<g id="a_edge19_Node000002_Node000020"><a xlink:title=" ">
<path fill="none" stroke="#63b8ff" d="M1898.3,-231.02C1792.79,-225.72 1500.28,-210.15 1244.97,-188.15"/>
<polygon fill="#63b8ff" stroke="#63b8ff" points="1245.38,-184.68 1235.12,-187.3 1244.78,-191.65 1245.38,-184.68"/>
</a>
</g>
</g>
<!-- Node21 -->
<g id="Node000021" class="node">
<title>Node21</title>
<g id="a_Node000021"><a xlink:title=" ">
<polygon fill="#e0e0e0" stroke="#999999" points="1316.12,-188 1251.38,-188 1251.38,-168 1316.12,-168 1316.12,-188"/>
<text text-anchor="middle" x="1283.75" y="-174.5" font-family="Helvetica,sans-Serif" font-size="10.00">wincodec.h</text>
</a>
</g>
</g>
<!-- Node2&#45;&gt;Node21 -->
<g id="edge20_Node000002_Node000021" class="edge">
<title>Node2&#45;&gt;Node21</title>
<g id="a_edge20_Node000002_Node000021"><a xlink:title=" ">
<path fill="none" stroke="#63b8ff" d="M1898.3,-232.03C1801.37,-229.29 1548.06,-219.6 1327.49,-188.2"/>
<polygon fill="#63b8ff" stroke="#63b8ff" points="1328.24,-184.78 1317.84,-186.81 1327.24,-191.71 1328.24,-184.78"/>
</a>
</g>
</g>
<!-- Node22 -->
<g id="Node000022" class="node">
<title>Node22</title>
<g id="a_Node000022"><a xlink:title=" ">
<polygon fill="#e0e0e0" stroke="#999999" points="1391.75,-188 1333.75,-188 1333.75,-168 1391.75,-168 1391.75,-188"/>
<text text-anchor="middle" x="1362.75" y="-174.5" font-family="Helvetica,sans-Serif" font-size="10.00">lodepng.h</text>
</a>
</g>
</g>
<!-- Node2&#45;&gt;Node22 -->
<g id="edge21_Node000002_Node000022" class="edge">
<title>Node2&#45;&gt;Node22</title>
<g id="a_edge21_Node000002_Node000022"><a xlink:title=" ">
<path fill="none" stroke="#63b8ff" d="M1898.01,-231.67C1809.63,-228.33 1593.6,-217.77 1403.45,-188.2"/>
<polygon fill="#63b8ff" stroke="#63b8ff" points="1404.04,-184.75 1393.62,-186.65 1402.95,-191.67 1404.04,-184.75"/>
</a>
</g>
</g>
<!-- Node23 -->
<g id="Node000023" class="node">
<title>Node23</title>
<g id="a_Node000023"><a xlink:title=" ">
<polygon fill="#e0e0e0" stroke="#999999" points="1460,-188 1409.5,-188 1409.5,-168 1460,-168 1460,-188"/>
<text text-anchor="middle" x="1434.75" y="-174.5" font-family="Helvetica,sans-Serif" font-size="10.00">d3d11.h</text>
</a>
</g>
</g>
<!-- Node2&#45;&gt;Node23 -->
<g id="edge22_Node000002_Node000023" class="edge">
<title>Node2&#45;&gt;Node23</title>
<g id="a_edge22_Node000002_Node000023"><a xlink:title=" ">
<path fill="none" stroke="#63b8ff" d="M1898.31,-231.25C1818.57,-227.33 1635.33,-216.08 1471.52,-188.01"/>
<polygon fill="#63b8ff" stroke="#63b8ff" points="1472.21,-184.58 1461.75,-186.31 1471.01,-191.48 1472.21,-184.58"/>
</a>
</g>
</g>
<!-- Node24 -->
<g id="Node000024" class="node">
<title>Node24</title>
<g id="a_Node000024"><a xlink:title=" ">
<polygon fill="#e0e0e0" stroke="#999999" points="1555.12,-188 1478.38,-188 1478.38,-168 1555.12,-168 1555.12,-188"/>
<text text-anchor="middle" x="1516.75" y="-174.5" font-family="Helvetica,sans-Serif" font-size="10.00">DirectXMath.h</text>
</a>
</g>
</g>
<!-- Node2&#45;&gt;Node24 -->
<g id="edge23_Node000002_Node000024" class="edge">
<title>Node2&#45;&gt;Node24</title>
<g id="a_edge23_Node000002_Node000024"><a xlink:title=" ">
<path fill="none" stroke="#63b8ff" d="M1898.11,-229.06C1831.11,-222.37 1693.02,-207.71 1566.47,-188.34"/>
<polygon fill="#63b8ff" stroke="#63b8ff" points="1567.35,-184.93 1556.94,-186.86 1566.29,-191.85 1567.35,-184.93"/>
</a>
</g>
</g>
<!-- Node25 -->
<g id="Node000025" class="node">
<title>Node25</title>
<g id="a_Node000025"><a xlink:title=" ">
<polygon fill="#e0e0e0" stroke="#999999" points="1652.62,-188 1572.88,-188 1572.88,-168 1652.62,-168 1652.62,-188"/>
<text text-anchor="middle" x="1612.75" y="-174.5" font-family="Helvetica,sans-Serif" font-size="10.00">D3Dcompiler.h</text>
</a>
</g>
</g>
<!-- Node2&#45;&gt;Node25 -->
<g id="edge24_Node000002_Node000025" class="edge">
<title>Node2&#45;&gt;Node25</title>
<g id="a_edge24_Node000002_Node000025"><a xlink:title=" ">
<path fill="none" stroke="#63b8ff" d="M1898.34,-226.7C1846.52,-218.57 1753.59,-203.78 1664.27,-188.41"/>
<polygon fill="#63b8ff" stroke="#63b8ff" points="1665.06,-184.99 1654.61,-186.74 1663.86,-191.89 1665.06,-184.99"/>
</a>
</g>
</g>
<!-- Node26 -->
<g id="Node000026" class="node">
<title>Node26</title>
<g id="a_Node000026"><a xlink:title=" ">
<polygon fill="#e0e0e0" stroke="#999999" points="1726.62,-188 1670.88,-188 1670.88,-168 1726.62,-168 1726.62,-188"/>
<text text-anchor="middle" x="1698.75" y="-174.5" font-family="Helvetica,sans-Serif" font-size="10.00">d2d1_2.h</text>
</a>
</g>
</g>
<!-- Node2&#45;&gt;Node26 -->
<g id="edge25_Node000002_Node000026" class="edge">
<title>Node2&#45;&gt;Node26</title>
<g id="a_edge25_Node000002_Node000026"><a xlink:title=" ">
<path fill="none" stroke="#63b8ff" d="M1898.25,-224.28C1859.56,-215.89 1799.32,-202.68 1738.06,-188.5"/>
<polygon fill="#63b8ff" stroke="#63b8ff" points="1739.02,-185.13 1728.49,-186.28 1737.44,-191.95 1739.02,-185.13"/>
</a>
</g>
</g>
<!-- Node27 -->
<g id="Node000027" class="node">
<title>Node27</title>
<g id="a_Node000027"><a xlink:title=" ">
<polygon fill="#e0e0e0" stroke="#999999" points="1800.62,-188 1744.88,-188 1744.88,-168 1800.62,-168 1800.62,-188"/>
<text text-anchor="middle" x="1772.75" y="-174.5" font-family="Helvetica,sans-Serif" font-size="10.00">d2d1_1.h</text>
</a>
</g>
</g>
<!-- Node2&#45;&gt;Node27 -->
<g id="edge26_Node000002_Node000027" class="edge">
<title>Node2&#45;&gt;Node27</title>
<g id="a_edge26_Node000002_Node000027"><a xlink:title=" ">
<path fill="none" stroke="#63b8ff" d="M1909.84,-223.59C1882.74,-214.78 1842.01,-201.53 1811.99,-191.76"/>
<polygon fill="#63b8ff" stroke="#63b8ff" points="1813.09,-188.44 1802.5,-188.68 1810.92,-195.1 1813.09,-188.44"/>
</a>
</g>
</g>
<!-- Node28 -->
<g id="Node000028" class="node">
<title>Node28</title>
<g id="a_Node000028"><a xlink:title=" ">
<polygon fill="#e0e0e0" stroke="#999999" points="1864.38,-188 1819.12,-188 1819.12,-168 1864.38,-168 1864.38,-188"/>
<text text-anchor="middle" x="1841.75" y="-174.5" font-family="Helvetica,sans-Serif" font-size="10.00">d2d1.h</text>
</a>
</g>
</g>
<!-- Node2&#45;&gt;Node28 -->
<g id="edge27_Node000002_Node000028" class="edge">
<title>Node2&#45;&gt;Node28</title>
<g id="a_edge27_Node000002_Node000028"><a xlink:title=" ">
<path fill="none" stroke="#63b8ff" d="M1921.85,-223.59C1907.2,-215.44 1885.73,-203.48 1868.7,-194"/>
<polygon fill="#63b8ff" stroke="#63b8ff" points="1870.54,-191.02 1860.1,-189.22 1867.14,-197.14 1870.54,-191.02"/>
</a>
</g>
</g>
<!-- Node29 -->
<g id="Node000029" class="node">
<title>Node29</title>
<g id="a_Node000029"><a xlink:title=" ">
<polygon fill="#e0e0e0" stroke="#999999" points="1932.62,-188 1882.88,-188 1882.88,-168 1932.62,-168 1932.62,-188"/>
<text text-anchor="middle" x="1907.75" y="-174.5" font-family="Helvetica,sans-Serif" font-size="10.00">dwrite.h</text>
</a>
</g>
</g>
<!-- Node2&#45;&gt;Node29 -->
<g id="edge28_Node000002_Node000029" class="edge">
<title>Node2&#45;&gt;Node29</title>
<g id="a_edge28_Node000002_Node000029"><a xlink:title=" ">
<path fill="none" stroke="#63b8ff" d="M1933.35,-223.59C1929.31,-216.55 1923.63,-206.67 1918.66,-198"/>
<polygon fill="#63b8ff" stroke="#63b8ff" points="1921.86,-196.54 1913.84,-189.61 1915.78,-200.03 1921.86,-196.54"/>
</a>
</g>
</g>
<!-- Node30 -->
<g id="Node000030" class="node">
<title>Node30</title>
<g id="a_Node000030"><a xlink:href="_win32_application_8h.html" target="_top" xlink:title=" ">
<polygon fill="white" stroke="#666666" points="2372.75,-188 2272.75,-188 2272.75,-168 2372.75,-168 2372.75,-188"/>
<text text-anchor="middle" x="2322.75" y="-174.5" font-family="Helvetica,sans-Serif" font-size="10.00">Win32Application.h</text>
</a>
</g>
</g>
<!-- Node2&#45;&gt;Node30 -->
<g id="edge29_Node000002_Node000030" class="edge">
<title>Node2&#45;&gt;Node30</title>
<g id="a_edge29_Node000002_Node000030"><a xlink:title=" ">
<path fill="none" stroke="#63b8ff" d="M1979.24,-226.76C2039.46,-218.25 2155.68,-202.41 2254.75,-188 2256.78,-187.71 2258.84,-187.4 2260.93,-187.09"/>
<polygon fill="#63b8ff" stroke="#63b8ff" points="2261.39,-190.56 2270.77,-185.64 2260.37,-183.64 2261.39,-190.56"/>
</a>
</g>
</g>
<!-- Node31 -->
<g id="Node000031" class="node">
<title>Node31</title>
<g id="a_Node000031"><a xlink:href="_direct_x_manager_8h.html" target="_top" xlink:title=" ">
<polygon fill="white" stroke="#666666" points="2452,-132 2359.5,-132 2359.5,-112 2452,-112 2452,-132"/>
<text text-anchor="middle" x="2405.75" y="-118.5" font-family="Helvetica,sans-Serif" font-size="10.00">DirectXManager.h</text>
</a>
</g>
</g>
<!-- Node2&#45;&gt;Node31 -->
<g id="edge51_Node000002_Node000031" class="edge">
<title>Node2&#45;&gt;Node31</title>
<g id="a_edge51_Node000002_Node000031"><a xlink:title=" ">
<path fill="none" stroke="#63b8ff" d="M1979.38,-232.52C2095.16,-230.78 2419.77,-222.85 2451.75,-188 2466.73,-171.67 2445.32,-152.19 2426.8,-138.83"/>
<polygon fill="#63b8ff" stroke="#63b8ff" points="2429.04,-136.13 2418.83,-133.32 2425.06,-141.89 2429.04,-136.13"/>
</a>
</g>
</g>
<!-- Node32 -->
<g id="Node000032" class="node">
<title>Node32</title>
<g id="a_Node000032"><a xlink:href="_camera_8h.html" target="_top" xlink:title=" ">
<polygon fill="white" stroke="#666666" points="1988.75,-76 1930.75,-76 1930.75,-56 1988.75,-56 1988.75,-76"/>
<text text-anchor="middle" x="1959.75" y="-62.5" font-family="Helvetica,sans-Serif" font-size="10.00">Camera.h</text>
</a>
</g>
</g>
<!-- Node2&#45;&gt;Node32 -->
<g id="edge52_Node000002_Node000032" class="edge">
<title>Node2&#45;&gt;Node32</title>
<g id="a_edge52_Node000002_Node000032"><a xlink:title=" ">
<path fill="none" stroke="#63b8ff" d="M1936.6,-223.6C1935.83,-197.46 1944.77,-123.48 1952.56,-87.36"/>
<polygon fill="#63b8ff" stroke="#63b8ff" points="1955.93,-88.31 1954.89,-77.77 1949.13,-86.66 1955.93,-88.31"/>
</a>
</g>
</g>
<!-- Node33 -->
<g id="Node000033" class="node">
<title>Node33</title>
<g id="a_Node000033"><a xlink:href="_graphics_device_8h.html" target="_top" xlink:title=" ">
<polygon fill="white" stroke="#666666" points="2106.62,-20 2014.88,-20 2014.88,0 2106.62,0 2106.62,-20"/>
<text text-anchor="middle" x="2060.75" y="-6.5" font-family="Helvetica,sans-Serif" font-size="10.00">GraphicsDevice.h</text>
</a>
</g>
</g>
<!-- Node2&#45;&gt;Node33 -->
<g id="edge53_Node000002_Node000033" class="edge">
<title>Node2&#45;&gt;Node33</title>
<g id="a_edge53_Node000002_Node000033"><a xlink:title=" ">
<path fill="none" stroke="#63b8ff" d="M1938.53,-223.54C1942.79,-214.56 1952.3,-200.61 1959.75,-188 1992.83,-132.01 2026.88,-62.93 2046.23,-30.08"/>
<polygon fill="#63b8ff" stroke="#63b8ff" points="2049.14,-32.04 2051.41,-21.69 2043.18,-28.36 2049.14,-32.04"/>
</a>
</g>
</g>
<!-- Node34 -->
<g id="Node000034" class="node">
<title>Node34</title>
<g id="a_Node000034"><a xlink:href="_mesh_8h.html" target="_top" xlink:title=" ">
<polygon fill="white" stroke="#666666" points="2110.88,-76 2062.62,-76 2062.62,-56 2110.88,-56 2110.88,-76"/>
<text text-anchor="middle" x="2086.75" y="-62.5" font-family="Helvetica,sans-Serif" font-size="10.00">Mesh.h</text>
</a>
</g>
</g>
<!-- Node2&#45;&gt;Node34 -->
<g id="edge55_Node000002_Node000034" class="edge">
<title>Node2&#45;&gt;Node34</title>
<g id="a_edge55_Node000002_Node000034"><a xlink:title=" ">
<path fill="none" stroke="#63b8ff" d="M1977.43,-223.58C1998.4,-216.98 2023.2,-206 2039.75,-188 2065.75,-159.72 2073.96,-113.79 2079.4,-87.4"/>
<polygon fill="#63b8ff" stroke="#63b8ff" points="2082.81,-88.18 2081.58,-77.66 2075.98,-86.65 2082.81,-88.18"/>
</a>
</g>
</g>
<!-- Node35 -->
<g id="Node000035" class="node">
<title>Node35</title>
<g id="a_Node000035"><a xlink:href="_render_state_8h.html" target="_top" xlink:title=" ">
<polygon fill="white" stroke="#666666" points="2211.88,-20 2133.62,-20 2133.62,0 2211.88,0 2211.88,-20"/>
<text text-anchor="middle" x="2172.75" y="-6.5" font-family="Helvetica,sans-Serif" font-size="10.00">RenderState.h</text>
</a>
</g>
</g>
<!-- Node2&#45;&gt;Node35 -->
<g id="edge57_Node000002_Node000035" class="edge">
<title>Node2&#45;&gt;Node35</title>
<g id="a_edge57_Node000002_Node000035"><a xlink:title=" ">
<path fill="none" stroke="#63b8ff" d="M1979.25,-227.03C2007.53,-221.25 2044.57,-209.96 2070.75,-188 2121.87,-145.12 2148.65,-66.86 2162.63,-30.51"/>
<polygon fill="#63b8ff" stroke="#63b8ff" points="2165.7,-32.27 2166.17,-21.69 2159.2,-29.66 2165.7,-32.27"/>
</a>
</g>
</g>
<!-- Node36 -->
<g id="Node000036" class="node">
<title>Node36</title>
<g id="a_Node000036"><a xlink:href="_shader_program_8h.html" target="_top" xlink:title=" ">
<polygon fill="white" stroke="#666666" points="2652.62,-20 2560.88,-20 2560.88,0 2652.62,0 2652.62,-20"/>
<text text-anchor="middle" x="2606.75" y="-6.5" font-family="Helvetica,sans-Serif" font-size="10.00">ShaderProgram.h</text>
</a>
</g>
</g>
<!-- Node2&#45;&gt;Node36 -->
<g id="edge58_Node000002_Node000036" class="edge">
<title>Node2&#45;&gt;Node36</title>
<g id="a_edge58_Node000002_Node000036"><a xlink:title=" ">
<path fill="none" stroke="#63b8ff" d="M1979.15,-231.87C2105.01,-228.23 2483.68,-215.43 2531.75,-188 2582.94,-158.79 2587.62,-132.96 2602.75,-76 2606.58,-61.56 2605.14,-44.73 2604.07,-31.81"/>
<polygon fill="#63b8ff" stroke="#63b8ff" points="2607.57,-31.7 2603.43,-21.95 2600.58,-32.15 2607.57,-31.7"/>
</a>
</g>
</g>
<!-- Node2&#45;&gt;Node38 -->
<g id="edge54_Node000002_Node000038" class="edge">
<title>Node2&#45;&gt;Node38</title>
<g id="a_edge54_Node000002_Node000038"><a xlink:title=" ">
<path fill="none" stroke="#63b8ff" d="M1979.35,-231.87C2100.69,-228.36 2454.14,-216.08 2497.75,-188 2533.96,-164.68 2552.32,-114.63 2563.17,-86.76"/>
<polygon fill="#63b8ff" stroke="#63b8ff" points="2566.32,-88.31 2566.81,-77.72 2559.83,-85.69 2566.32,-88.31"/>
</a>
</g>
</g>
<!-- Node30&#45;&gt;Node2 -->
<g id="edge30_Node000030_Node000002" class="edge">
<title>Node30&#45;&gt;Node2</title>
<g id="a_edge30_Node000030_Node000002"><a xlink:title=" ">
<path fill="none" stroke="#63b8ff" d="M2272.44,-188.04C2173.06,-202.5 2056.51,-218.38 1990.67,-226.85"/>
<polygon fill="#63b8ff" stroke="#63b8ff" points="1990.35,-223.36 1980.87,-228.11 1991.24,-230.31 1990.35,-223.36"/>
</a>
</g>
</g>
<!-- Node30&#45;&gt;Node31 -->
<g id="edge31_Node000030_Node000031" class="edge">
<title>Node30&#45;&gt;Node31</title>
<g id="a_edge31_Node000030_Node000031"><a xlink:title=" ">
<path fill="none" stroke="#63b8ff" d="M2337.21,-167.59C2349.51,-159.59 2367.43,-147.93 2381.86,-138.54"/>
<polygon fill="#63b8ff" stroke="#63b8ff" points="2383.44,-141.69 2389.91,-133.3 2379.62,-135.82 2383.44,-141.69"/>
</a>
</g>
</g>
<!-- Node31&#45;&gt;Node1 -->
<g id="edge50_Node000031_Node000001" class="edge">
<title>Node31&#45;&gt;Node1</title>
<g id="a_edge50_Node000031_Node000001"><a xlink:title=" ">
<path fill="none" stroke="#63b8ff" d="M2452.17,-123.03C2566.34,-123.95 2848.44,-131.85 2803.75,-188 2754.79,-249.5 2511.99,-276.7 2409.99,-285.54"/>
<polygon fill="#63b8ff" stroke="#63b8ff" points="2409.74,-282.05 2400.07,-286.38 2410.33,-289.02 2409.74,-282.05"/>
</a>
</g>
</g>
<!-- Node31&#45;&gt;Node2 -->
<g id="edge32_Node000031_Node000002" class="edge">
<title>Node31&#45;&gt;Node2</title>
<g id="a_edge32_Node000031_Node000002"><a xlink:title=" ">
<path fill="none" stroke="#63b8ff" d="M2429.73,-132.46C2454.75,-145.3 2487.34,-168.83 2469.75,-188 2438.03,-222.57 2118.41,-230.65 1990.82,-232.48"/>
<polygon fill="#63b8ff" stroke="#63b8ff" points="1990.91,-228.98 1980.96,-232.61 1991.01,-235.98 1990.91,-228.98"/>
</a>
</g>
</g>
<!-- Node31&#45;&gt;Node32 -->
<g id="edge33_Node000031_Node000032" class="edge">
<title>Node31&#45;&gt;Node32</title>
<g id="a_edge33_Node000031_Node000032"><a xlink:title=" ">
<path fill="none" stroke="#63b8ff" d="M2359.28,-115.37C2271.58,-104.76 2083.04,-81.93 2000.2,-71.9"/>
<polygon fill="#63b8ff" stroke="#63b8ff" points="2000.85,-68.45 1990.5,-70.72 2000.01,-75.4 2000.85,-68.45"/>
</a>
</g>
</g>
<!-- Node31&#45;&gt;Node33 -->
<g id="edge35_Node000031_Node000033" class="edge">
<title>Node31&#45;&gt;Node33</title>
<g id="a_edge35_Node000031_Node000033"><a xlink:title=" ">
<path fill="none" stroke="#63b8ff" d="M2376.04,-111.53C2314.13,-91.79 2171.29,-46.24 2101.13,-23.87"/>
<polygon fill="#63b8ff" stroke="#63b8ff" points="2102.55,-20.65 2091.96,-20.95 2100.42,-27.32 2102.55,-20.65"/>
</a>
</g>
</g>
<!-- Node31&#45;&gt;Node34 -->
<g id="edge37_Node000031_Node000034" class="edge">
<title>Node31&#45;&gt;Node34</title>
<g id="a_edge37_Node000031_Node000034"><a xlink:title=" ">
<path fill="none" stroke="#63b8ff" d="M2359.02,-113.09C2294.59,-102.18 2179.87,-82.76 2122.09,-72.98"/>
<polygon fill="#63b8ff" stroke="#63b8ff" points="2122.93,-69.57 2112.48,-71.36 2121.76,-76.48 2122.93,-69.57"/>
</a>
</g>
</g>
<!-- Node31&#45;&gt;Node35 -->
<g id="edge40_Node000031_Node000035" class="edge">
<title>Node31&#45;&gt;Node35</title>
<g id="a_edge40_Node000031_Node000035"><a xlink:title=" ">
<path fill="none" stroke="#63b8ff" d="M2385.88,-111.62C2344.96,-92.3 2251.05,-47.96 2202.71,-25.14"/>
<polygon fill="#63b8ff" stroke="#63b8ff" points="2204.47,-22.11 2193.93,-21 2201.48,-28.44 2204.47,-22.11"/>
</a>
</g>
</g>
<!-- Node31&#45;&gt;Node36 -->
<g id="edge42_Node000031_Node000036" class="edge">
<title>Node31&#45;&gt;Node36</title>
<g id="a_edge42_Node000031_Node000036"><a xlink:title=" ">
<path fill="none" stroke="#63b8ff" d="M2405.72,-111.56C2406.22,-97.41 2409.31,-70.81 2424.75,-56 2442.55,-38.93 2503.03,-26.31 2549.43,-18.84"/>
<polygon fill="#63b8ff" stroke="#63b8ff" points="2549.76,-22.33 2559.1,-17.33 2548.68,-15.42 2549.76,-22.33"/>
</a>
</g>
</g>
<!-- Node37 -->
<g id="Node000037" class="node">
<title>Node37</title>
<g id="a_Node000037"><a xlink:href="_shader_manager_8h.html" target="_top" xlink:title=" ">
<polygon fill="white" stroke="#666666" points="2526,-76 2433.5,-76 2433.5,-56 2526,-56 2526,-76"/>
<text text-anchor="middle" x="2479.75" y="-62.5" font-family="Helvetica,sans-Serif" font-size="10.00">ShaderManager.h</text>
</a>
</g>
</g>
<!-- Node31&#45;&gt;Node37 -->
<g id="edge44_Node000031_Node000037" class="edge">
<title>Node31&#45;&gt;Node37</title>
<g id="a_edge44_Node000031_Node000037"><a xlink:title=" ">
<path fill="none" stroke="#63b8ff" d="M2418.64,-111.59C2429.46,-103.7 2445.16,-92.24 2457.94,-82.92"/>
<polygon fill="#63b8ff" stroke="#63b8ff" points="2459.77,-85.91 2465.79,-77.19 2455.64,-80.26 2459.77,-85.91"/>
</a>
</g>
</g>
<!-- Node31&#45;&gt;Node38 -->
<g id="edge46_Node000031_Node000038" class="edge">
<title>Node31&#45;&gt;Node38</title>
<g id="a_edge46_Node000031_Node000038"><a xlink:title=" ">
<path fill="none" stroke="#63b8ff" d="M2435.01,-111.59C2462.31,-102.82 2503.26,-89.66 2533.6,-79.9"/>
<polygon fill="#63b8ff" stroke="#63b8ff" points="2534.37,-83.33 2542.82,-76.94 2532.23,-76.67 2534.37,-83.33"/>
</a>
</g>
</g>
<!-- Node32&#45;&gt;Node2 -->
<g id="edge34_Node000032_Node000002" class="edge">
<title>Node32&#45;&gt;Node2</title>
<g id="a_edge34_Node000032_Node000002"><a xlink:title=" ">
<path fill="none" stroke="#63b8ff" d="M1961.9,-76.3C1962.69,-102.31 1953.77,-176.27 1945.97,-212.5"/>
<polygon fill="#63b8ff" stroke="#63b8ff" points="1942.59,-211.59 1943.63,-222.13 1949.39,-213.24 1942.59,-211.59"/>
</a>
</g>
</g>
<!-- Node33&#45;&gt;Node2 -->
<g id="edge36_Node000033_Node000002" class="edge">
<title>Node33&#45;&gt;Node2</title>
<g id="a_edge36_Node000033_Node000002"><a xlink:title=" ">
<path fill="none" stroke="#63b8ff" d="M2060.41,-20.41C2052.59,-47.14 2014.57,-125.68 1977.75,-188 1972.39,-197.06 1965.98,-206.82 1959.7,-214.92"/>
<polygon fill="#63b8ff" stroke="#63b8ff" points="1957.19,-212.47 1953.43,-222.38 1962.55,-216.97 1957.19,-212.47"/>
</a>
</g>
</g>
<!-- Node34&#45;&gt;Node2 -->
<g id="edge38_Node000034_Node000002" class="edge">
<title>Node34&#45;&gt;Node2</title>
<g id="a_edge38_Node000034_Node000002"><a xlink:title=" ">
<path fill="none" stroke="#63b8ff" d="M2090.94,-76.18C2094.17,-98.29 2088,-155.09 2057.75,-188 2040.39,-206.88 2013.95,-218.04 1990.31,-224.52"/>
<polygon fill="#63b8ff" stroke="#63b8ff" points="1989.67,-221.07 1980.81,-226.89 1991.36,-227.86 1989.67,-221.07"/>
</a>
</g>
</g>
<!-- Node34&#45;&gt;Node33 -->
<g id="edge39_Node000034_Node000033" class="edge">
<title>Node34&#45;&gt;Node33</title>
<g id="a_edge39_Node000034_Node000033"><a xlink:title=" ">
<path fill="none" stroke="#63b8ff" d="M2082.22,-55.59C2078.9,-48.7 2074.28,-39.1 2070.17,-30.57"/>
<polygon fill="#63b8ff" stroke="#63b8ff" points="2073.38,-29.15 2065.88,-21.66 2067.07,-32.19 2073.38,-29.15"/>
</a>
</g>
</g>
<!-- Node35&#45;&gt;Node2 -->
<g id="edge41_Node000035_Node000002" class="edge">
<title>Node35&#45;&gt;Node2</title>
<g id="a_edge41_Node000035_Node000002"><a xlink:title=" ">
<path fill="none" stroke="#63b8ff" d="M2174.37,-20.28C2172.16,-49.5 2145.4,-140.48 2088.75,-188 2061.4,-210.94 2022.2,-222.24 1990.64,-227.77"/>
<polygon fill="#63b8ff" stroke="#63b8ff" points="1990.21,-224.29 1980.89,-229.32 1991.31,-231.21 1990.21,-224.29"/>
</a>
</g>
</g>
<!-- Node36&#45;&gt;Node2 -->
<g id="edge43_Node000036_Node000002" class="edge">
<title>Node36&#45;&gt;Node2</title>
<g id="a_edge43_Node000036_Node000002"><a xlink:title=" ">
<path fill="none" stroke="#63b8ff" d="M2615.48,-20.44C2621.58,-33.24 2625.86,-56.75 2620.75,-76 2605.62,-132.96 2600.94,-158.79 2549.75,-188 2502.05,-215.22 2128.88,-228.03 1990.26,-231.78"/>
<polygon fill="#63b8ff" stroke="#63b8ff" points="1990.55,-228.27 1980.65,-232.04 1990.74,-235.27 1990.55,-228.27"/>
</a>
</g>
</g>
<!-- Node37&#45;&gt;Node2 -->
<g id="edge45_Node000037_Node000002" class="edge">
<title>Node37&#45;&gt;Node2</title>
<g id="a_edge45_Node000037_Node000002"><a xlink:title=" ">
<path fill="none" stroke="#63b8ff" d="M2484.25,-76.37C2494.33,-98.91 2515.69,-156.58 2486.75,-188 2453.51,-224.08 2120.37,-231.23 1990.34,-232.65"/>
<polygon fill="#63b8ff" stroke="#63b8ff" points="1990.62,-229.15 1980.65,-232.75 1990.69,-236.15 1990.62,-229.15"/>
</a>
</g>
</g>
<!-- Node38&#45;&gt;Node2 -->
<g id="edge47_Node000038_Node000002" class="edge">
<title>Node38&#45;&gt;Node2</title>
<g id="a_edge47_Node000038_Node000002"><a xlink:title=" ">
<path fill="none" stroke="#63b8ff" d="M2576.14,-76.32C2575.2,-99.79 2557.14,-161.35 2515.75,-188 2472.46,-215.87 2123.95,-228.17 1990.43,-231.79"/>
<polygon fill="#63b8ff" stroke="#63b8ff" points="1990.73,-228.28 1980.83,-232.05 1990.92,-235.28 1990.73,-228.28"/>
</a>
</g>
</g>
<!-- Node38&#45;&gt;Node35 -->
<g id="edge49_Node000038_Node000035" class="edge">
<title>Node38&#45;&gt;Node35</title>
<g id="a_edge49_Node000038_Node000035"><a xlink:title=" ">
<path fill="none" stroke="#63b8ff" d="M2544,-57.8C2540.89,-57.15 2537.76,-56.53 2534.75,-56 2424.43,-36.47 2293.72,-22.44 2223.48,-15.64"/>
<polygon fill="#63b8ff" stroke="#63b8ff" points="2224.12,-12.18 2213.83,-14.71 2223.45,-19.15 2224.12,-12.18"/>
</a>
</g>
</g>
<!-- Node38&#45;&gt;Node36 -->
<g id="edge48_Node000038_Node000036" class="edge">
<title>Node38&#45;&gt;Node36</title>
<g id="a_edge48_Node000038_Node000036"><a xlink:title=" ">
<path fill="none" stroke="#63b8ff" d="M2579.5,-55.59C2583.8,-48.55 2589.84,-38.67 2595.14,-30"/>
<polygon fill="#63b8ff" stroke="#63b8ff" points="2598.05,-31.95 2600.28,-21.59 2592.08,-28.3 2598.05,-31.95"/>
</a>
</g>
</g>
</g>
</svg>

<g id="navigator" transform="translate(0 0)" fill="#404254">
  <rect fill="#f2f5e9" fill-opacity="0.5" stroke="#606060" stroke-width=".5" x="0" y="0" width="60" height="60"/>
  <use id="zoomplus" xlink:href="#zoomPlus" x="17" y="9" onmousedown="handleZoom(evt,'in')"/>
  <use id="zoomminus" xlink:href="#zoomMin" x="42" y="9" onmousedown="handleZoom(evt,'out')"/>
  <use id="reset" xlink:href="#resetDef" x="30" y="36" onmousedown="handleReset()"/>
   <use id="arrowup" xlink:href="#arrowUp" x="0" y="0" onmousedown="handlePan(0,-1)"/>
  <use id="arrowright" xlink:href="#arrowRight" x="0" y="0" onmousedown="handlePan(1,0)"/>
  <use id="arrowdown" xlink:href="#arrowDown" x="0" y="0" onmousedown="handlePan(0,1)"/>
  <use id="arrowleft" xlink:href="#arrowLeft" x="0" y="0" onmousedown="handlePan(-1,0)"/>
</g>
<svg viewBox="0 0 15 15" width="100%" height="30px" preserveAspectRatio="xMaxYMin meet">
 <g id="arrow_out" transform="scale(0.3 0.3)">
  <a xlink:href="_model_8h__incl_org.svg" target="_base">
   <rect id="button" ry="5" rx="5" y="6" x="6" height="38" width="38"
        fill="#f2f5e9" fill-opacity="0.5" stroke="#606060" stroke-width="1.0"/>
   <path id="arrow"
     d="M 11.500037,31.436501 C 11.940474,20.09759 22.043105,11.32322 32.158766,21.979434 L 37.068811,17.246167 C 37.068811,17.246167 37.088388,32 37.088388,32 L 22.160133,31.978069 C 22.160133,31.978069 26.997745,27.140456 26.997745,27.140456 C 18.528582,18.264221 13.291696,25.230495 11.500037,31.436501 z"
     style="fill:#404040;"/>
  </a>
 </g>
</svg>

<style type='text/css'>
<![CDATA[
[data-mouse-over-selected='false'] { opacity: 0.7; }
[data-mouse-over-selected='true']  { opacity: 1.0; }
]]>
</style>
<script type="application/ecmascript"><![CDATA[
document.addEventListener('DOMContentLoaded', (event) => {
  highlightEdges();
  highlightAdjacentNodes();
});
]]></script>
</svg>
