<?xml version="1.0" encoding="UTF-8" standalone="no"?>
<!DOCTYPE svg PUBLIC "-//W3C//DTD SVG 1.1//EN"
 "http://www.w3.org/Graphics/SVG/1.1/DTD/svg11.dtd">
<!-- Generated by graphviz version 9.0.0 (20230911.1827)
 -->
<!-- Title: src/Model.h Pages: 1 -->
<svg width="1574pt" height="308pt"
 viewBox="0.00 0.00 1573.62 308.00" xmlns="http://www.w3.org/2000/svg" xmlns:xlink="http://www.w3.org/1999/xlink">
<g id="graph0" class="graph" transform="scale(1 1) rotate(0) translate(4 304)">
<title>src/Model.h</title>
<!-- Node1 -->
<g id="Node000001" class="node">
<title>Node1</title>
<g id="a_Node000001"><a xlink:title=" ">
<polygon fill="#999999" stroke="#666666" points="900.12,-300 833.12,-300 833.12,-280 900.12,-280 900.12,-300"/>
<text text-anchor="middle" x="866.62" y="-286.5" font-family="Helvetica,sans-Serif" font-size="10.00">src/Model.h</text>
</a>
</g>
</g>
<!-- Node2 -->
<g id="Node000002" class="node">
<title>Node2</title>
<g id="a_Node000002"><a xlink:href="_direct_x_manager_8h.html" target="_top" xlink:title=" ">
<polygon fill="white" stroke="#666666" points="967.12,-244 858.12,-244 858.12,-224 967.12,-224 967.12,-244"/>
<text text-anchor="middle" x="912.62" y="-230.5" font-family="Helvetica,sans-Serif" font-size="10.00">src/DirectXManager.h</text>
</a>
</g>
</g>
<!-- Node1&#45;&gt;Node2 -->
<g id="edge1_Node000001_Node000002" class="edge">
<title>Node1&#45;&gt;Node2</title>
<g id="a_edge1_Node000001_Node000002"><a xlink:title=" ">
<path fill="none" stroke="#63b8ff" d="M881.96,-271C889.58,-262.06 898.46,-251.62 904.7,-244.3"/>
<polygon fill="#63b8ff" stroke="#63b8ff" points="879.44,-268.56 875.62,-278.44 884.77,-273.1 879.44,-268.56"/>
</a>
</g>
</g>
<!-- Node4 -->
<g id="Node000004" class="node">
<title>Node4</title>
<g id="a_Node000004"><a xlink:href="_game_engine_8h.html" target="_top" xlink:title=" ">
<polygon fill="white" stroke="#666666" points="869.12,-188 772.12,-188 772.12,-168 869.12,-168 869.12,-188"/>
<text text-anchor="middle" x="820.62" y="-174.5" font-family="Helvetica,sans-Serif" font-size="10.00">src/GameEngine.h</text>
</a>
</g>
</g>
<!-- Node1&#45;&gt;Node4 -->
<g id="edge59_Node000001_Node000004" class="edge">
<title>Node1&#45;&gt;Node4</title>
<g id="a_edge59_Node000001_Node000004"><a xlink:title=" ">
<path fill="none" stroke="#63b8ff" d="M853.23,-269.62C840.95,-245.78 824.86,-206.28 820.56,-188.35"/>
<polygon fill="#63b8ff" stroke="#63b8ff" points="850.11,-271.21 857.99,-278.29 856.25,-267.84 850.11,-271.21"/>
</a>
</g>
</g>
<!-- Node11 -->
<g id="Node000011" class="node">
<title>Node11</title>
<g id="a_Node000011"><a xlink:href="_mesh_8cpp.html" target="_top" xlink:title=" ">
<polygon fill="white" stroke="#666666" points="1458.25,-20 1383,-20 1383,0 1458.25,0 1458.25,-20"/>
<text text-anchor="middle" x="1420.62" y="-6.5" font-family="Helvetica,sans-Serif" font-size="10.00">src/Mesh.cpp</text>
</a>
</g>
</g>
<!-- Node1&#45;&gt;Node11 -->
<g id="edge60_Node000001_Node000011" class="edge">
<title>Node1&#45;&gt;Node11</title>
<g id="a_edge60_Node000001_Node000011"><a xlink:title=" ">
<path fill="none" stroke="#63b8ff" d="M911.7,-286.27C1060.65,-276.67 1527.62,-241.58 1527.62,-179 1527.62,-179 1527.62,-179 1527.62,-121 1527.62,-90.9 1527.81,-79.19 1508.62,-56 1494.4,-38.81 1471.93,-27.48 1453.26,-20.48"/>
<polygon fill="#63b8ff" stroke="#63b8ff" points="911.58,-282.77 901.82,-286.9 912.03,-289.76 911.58,-282.77"/>
</a>
</g>
</g>
<!-- Node12 -->
<g id="Node000012" class="node">
<title>Node12</title>
<g id="a_Node000012"><a xlink:href="_model_8cpp.html" target="_top" xlink:title=" ">
<polygon fill="white" stroke="#666666" points="1553.38,-20 1475.88,-20 1475.88,0 1553.38,0 1553.38,-20"/>
<text text-anchor="middle" x="1514.62" y="-6.5" font-family="Helvetica,sans-Serif" font-size="10.00">src/Model.cpp</text>
</a>
</g>
</g>
<!-- Node1&#45;&gt;Node12 -->
<g id="edge61_Node000001_Node000012" class="edge">
<title>Node1&#45;&gt;Node12</title>
<g id="a_edge61_Node000001_Node000012"><a xlink:title=" ">
<path fill="none" stroke="#63b8ff" d="M911.82,-289.75C1005.23,-290.31 1225.8,-286.55 1404.62,-244 1479.7,-226.14 1565.62,-256.17 1565.62,-179 1565.62,-179 1565.62,-179 1565.62,-121 1565.62,-80.37 1536.64,-38.48 1522.37,-20.33"/>
<polygon fill="#63b8ff" stroke="#63b8ff" points="912.09,-286.25 902.06,-289.67 912.03,-293.25 912.09,-286.25"/>
</a>
</g>
</g>
<!-- Node3 -->
<g id="Node000003" class="node">
<title>Node3</title>
<g id="a_Node000003"><a xlink:href="_direct_x_manager_8cpp.html" target="_top" xlink:title=" ">
<polygon fill="white" stroke="#666666" points="1417.38,-76 1297.88,-76 1297.88,-56 1417.38,-56 1417.38,-76"/>
<text text-anchor="middle" x="1357.62" y="-62.5" font-family="Helvetica,sans-Serif" font-size="10.00">src/DirectXManager.cpp</text>
</a>
</g>
</g>
<!-- Node2&#45;&gt;Node3 -->
<g id="edge2_Node000002_Node000003" class="edge">
<title>Node2&#45;&gt;Node3</title>
<g id="a_edge2_Node000002_Node000003"><a xlink:title=" ">
<path fill="none" stroke="#63b8ff" d="M961.73,-220.71C1025.93,-203.96 1141.29,-171.48 1235.62,-132 1275.47,-115.32 1319.6,-89.96 1342.29,-76.38"/>
<polygon fill="#63b8ff" stroke="#63b8ff" points="961.01,-217.29 952.2,-223.18 962.76,-224.06 961.01,-217.29"/>
</a>
</g>
</g>
<!-- Node2&#45;&gt;Node4 -->
<g id="edge3_Node000002_Node000004" class="edge">
<title>Node2&#45;&gt;Node4</title>
<g id="a_edge3_Node000002_Node000004"><a xlink:title=" ">
<path fill="none" stroke="#63b8ff" d="M881.58,-218.35C864.28,-208.84 843.92,-196.74 831.49,-188.48"/>
<polygon fill="#63b8ff" stroke="#63b8ff" points="879.54,-221.22 890,-222.88 882.85,-215.06 879.54,-221.22"/>
</a>
</g>
</g>
<!-- Node23 -->
<g id="Node000023" class="node">
<title>Node23</title>
<g id="a_Node000023"><a xlink:href="_win32_application_8h.html" target="_top" xlink:title=" ">
<polygon fill="white" stroke="#666666" points="879.88,-132 763.38,-132 763.38,-112 879.88,-112 879.88,-132"/>
<text text-anchor="middle" x="821.62" y="-118.5" font-family="Helvetica,sans-Serif" font-size="10.00">src/Win32Application.h</text>
</a>
</g>
</g>
<!-- Node2&#45;&gt;Node23 -->
<g id="edge58_Node000002_Node000023" class="edge">
<title>Node2&#45;&gt;Node23</title>
<g id="a_edge58_Node000002_Node000023"><a xlink:title=" ">
<path fill="none" stroke="#63b8ff" d="M904.92,-213.28C899,-199.68 889.94,-181.65 878.62,-168 866.55,-153.44 849.06,-140.49 836.64,-132.27"/>
<polygon fill="#63b8ff" stroke="#63b8ff" points="901.66,-214.57 908.71,-222.48 908.14,-211.9 901.66,-214.57"/>
</a>
</g>
</g>
<!-- Node4&#45;&gt;Node1 -->
<g id="edge25_Node000004_Node000001" class="edge">
<title>Node4&#45;&gt;Node1</title>
<g id="a_edge25_Node000004_Node000001"><a xlink:title=" ">
<path fill="none" stroke="#63b8ff" d="M834,-198.35C846.28,-222.17 862.37,-261.68 866.68,-279.62"/>
<polygon fill="#63b8ff" stroke="#63b8ff" points="837.12,-196.76 829.24,-189.68 830.99,-200.13 837.12,-196.76"/>
</a>
</g>
</g>
<!-- Node4&#45;&gt;Node2 -->
<g id="edge8_Node000004_Node000002" class="edge">
<title>Node4&#45;&gt;Node2</title>
<g id="a_edge8_Node000004_Node000002"><a xlink:title=" ">
<path fill="none" stroke="#63b8ff" d="M851.82,-193.74C869.14,-203.26 889.49,-215.36 901.87,-223.59"/>
<polygon fill="#63b8ff" stroke="#63b8ff" points="853.85,-190.86 843.39,-189.2 850.53,-197.02 853.85,-190.86"/>
</a>
</g>
</g>
<!-- Node5 -->
<g id="Node000005" class="node">
<title>Node5</title>
<g id="a_Node000005"><a xlink:href="_camera_8h.html" target="_top" xlink:title=" ">
<polygon fill="white" stroke="#666666" points="972.88,-132 898.38,-132 898.38,-112 972.88,-112 972.88,-132"/>
<text text-anchor="middle" x="935.62" y="-118.5" font-family="Helvetica,sans-Serif" font-size="10.00">src/Camera.h</text>
</a>
</g>
</g>
<!-- Node4&#45;&gt;Node5 -->
<g id="edge4_Node000004_Node000005" class="edge">
<title>Node4&#45;&gt;Node5</title>
<g id="a_edge4_Node000004_Node000005"><a xlink:title=" ">
<path fill="none" stroke="#63b8ff" d="M845.48,-162.48C864.64,-152.96 890.84,-140.78 910.16,-132.48"/>
<polygon fill="#63b8ff" stroke="#63b8ff" points="844.08,-159.27 836.74,-166.91 847.24,-165.51 844.08,-159.27"/>
</a>
</g>
</g>
<!-- Node7 -->
<g id="Node000007" class="node">
<title>Node7</title>
<g id="a_Node000007"><a xlink:href="_game_engine_8cpp.html" target="_top" xlink:title=" ">
<polygon fill="white" stroke="#666666" points="557.38,-76 449.88,-76 449.88,-56 557.38,-56 557.38,-76"/>
<text text-anchor="middle" x="503.62" y="-62.5" font-family="Helvetica,sans-Serif" font-size="10.00">src/GameEngine.cpp</text>
</a>
</g>
</g>
<!-- Node4&#45;&gt;Node7 -->
<g id="edge9_Node000004_Node000007" class="edge">
<title>Node4&#45;&gt;Node7</title>
<g id="a_edge9_Node000004_Node000007"><a xlink:title=" ">
<path fill="none" stroke="#63b8ff" d="M774.22,-164.42C746.36,-156.32 710.45,-144.91 679.62,-132 662.02,-124.63 659.2,-119.43 641.62,-112 607.15,-97.43 566.24,-84.62 537.96,-76.43"/>
<polygon fill="#63b8ff" stroke="#63b8ff" points="773.21,-167.77 783.79,-167.16 775.14,-161.04 773.21,-167.77"/>
</a>
</g>
</g>
<!-- Node8 -->
<g id="Node000008" class="node">
<title>Node8</title>
<g id="a_Node000008"><a xlink:href="_graphics_device_8h.html" target="_top" xlink:title=" ">
<polygon fill="white" stroke="#666666" points="1226.75,-132 1118.5,-132 1118.5,-112 1226.75,-112 1226.75,-132"/>
<text text-anchor="middle" x="1172.62" y="-118.5" font-family="Helvetica,sans-Serif" font-size="10.00">src/GraphicsDevice.h</text>
</a>
</g>
</g>
<!-- Node4&#45;&gt;Node8 -->
<g id="edge10_Node000004_Node000008" class="edge">
<title>Node4&#45;&gt;Node8</title>
<g id="a_edge10_Node000004_Node000008"><a xlink:title=" ">
<path fill="none" stroke="#63b8ff" d="M880.6,-166.97C947.26,-156.44 1053.83,-140.12 1118.19,-130.6"/>
<polygon fill="#63b8ff" stroke="#63b8ff" points="880.27,-163.48 870.94,-168.5 881.37,-170.4 880.27,-163.48"/>
</a>
</g>
</g>
<!-- Node10 -->
<g id="Node000010" class="node">
<title>Node10</title>
<g id="a_Node000010"><a xlink:href="_mesh_8h.html" target="_top" xlink:title=" ">
<polygon fill="white" stroke="#666666" points="1500,-76 1435.25,-76 1435.25,-56 1500,-56 1500,-76"/>
<text text-anchor="middle" x="1467.62" y="-62.5" font-family="Helvetica,sans-Serif" font-size="10.00">src/Mesh.h</text>
</a>
</g>
</g>
<!-- Node4&#45;&gt;Node10 -->
<g id="edge24_Node000004_Node000010" class="edge">
<title>Node4&#45;&gt;Node10</title>
<g id="a_edge24_Node000004_Node000010"><a xlink:title=" ">
<path fill="none" stroke="#63b8ff" d="M880.82,-173.18C960.51,-167.68 1104.88,-155.49 1226.62,-132 1301.99,-117.46 1388.51,-90.37 1434.79,-76.19"/>
<polygon fill="#63b8ff" stroke="#63b8ff" points="880.79,-169.68 871.05,-173.85 881.26,-176.66 880.79,-169.68"/>
</a>
</g>
</g>
<!-- Node13 -->
<g id="Node000013" class="node">
<title>Node13</title>
<g id="a_Node000013"><a xlink:href="_material_8h.html" target="_top" xlink:title=" ">
<polygon fill="white" stroke="#666666" points="75.25,-76 0,-76 0,-56 75.25,-56 75.25,-76"/>
<text text-anchor="middle" x="37.62" y="-62.5" font-family="Helvetica,sans-Serif" font-size="10.00">src/Material.h</text>
</a>
</g>
</g>
<!-- Node4&#45;&gt;Node13 -->
<g id="edge19_Node000004_Node000013" class="edge">
<title>Node4&#45;&gt;Node13</title>
<g id="a_edge19_Node000004_Node000013"><a xlink:title=" ">
<path fill="none" stroke="#63b8ff" d="M760.49,-174.66C663.99,-170.1 469.26,-158.13 306.62,-132 217.31,-117.65 114.06,-90.73 65.39,-76.45"/>
<polygon fill="#63b8ff" stroke="#63b8ff" points="760.1,-178.14 770.25,-175.1 760.42,-171.15 760.1,-178.14"/>
</a>
</g>
</g>
<!-- Node15 -->
<g id="Node000015" class="node">
<title>Node15</title>
<g id="a_Node000015"><a xlink:href="_render_state_8h.html" target="_top" xlink:title=" ">
<polygon fill="white" stroke="#666666" points="546,-132 451.25,-132 451.25,-112 546,-112 546,-132"/>
<text text-anchor="middle" x="498.62" y="-118.5" font-family="Helvetica,sans-Serif" font-size="10.00">src/RenderState.h</text>
</a>
</g>
</g>
<!-- Node4&#45;&gt;Node15 -->
<g id="edge26_Node000004_Node000015" class="edge">
<title>Node4&#45;&gt;Node15</title>
<g id="a_edge26_Node000004_Node000015"><a xlink:title=" ">
<path fill="none" stroke="#63b8ff" d="M760.55,-167.8C698.6,-157.76 603.39,-141.79 546.38,-131.87"/>
<polygon fill="#63b8ff" stroke="#63b8ff" points="759.79,-171.22 770.22,-169.36 760.9,-164.31 759.79,-171.22"/>
</a>
</g>
</g>
<!-- Node17 -->
<g id="Node000017" class="node">
<title>Node17</title>
<g id="a_Node000017"><a xlink:href="_scene_8h.html" target="_top" xlink:title=" ">
<polygon fill="white" stroke="#666666" points="632.88,-132 564.38,-132 564.38,-112 632.88,-112 632.88,-132"/>
<text text-anchor="middle" x="598.62" y="-118.5" font-family="Helvetica,sans-Serif" font-size="10.00">src/Scene.h</text>
</a>
</g>
</g>
<!-- Node4&#45;&gt;Node17 -->
<g id="edge31_Node000004_Node000017" class="edge">
<title>Node4&#45;&gt;Node17</title>
<g id="a_edge31_Node000004_Node000017"><a xlink:title=" ">
<path fill="none" stroke="#63b8ff" d="M770.63,-164.84C728.71,-154.64 669.97,-140.35 633.12,-131.39"/>
<polygon fill="#63b8ff" stroke="#63b8ff" points="769.69,-168.21 780.23,-167.17 771.34,-161.41 769.69,-168.21"/>
</a>
</g>
</g>
<!-- Node19 -->
<g id="Node000019" class="node">
<title>Node19</title>
<g id="a_Node000019"><a xlink:href="_shader_manager_8h.html" target="_top" xlink:title=" ">
<polygon fill="white" stroke="#666666" points="1100.12,-132 991.12,-132 991.12,-112 1100.12,-112 1100.12,-132"/>
<text text-anchor="middle" x="1045.62" y="-118.5" font-family="Helvetica,sans-Serif" font-size="10.00">src/ShaderManager.h</text>
</a>
</g>
</g>
<!-- Node4&#45;&gt;Node19 -->
<g id="edge33_Node000004_Node000019" class="edge">
<title>Node4&#45;&gt;Node19</title>
<g id="a_edge33_Node000004_Node000019"><a xlink:title=" ">
<path fill="none" stroke="#63b8ff" d="M871.15,-164.88C911.99,-155.07 968.68,-141.47 1006.22,-132.46"/>
<polygon fill="#63b8ff" stroke="#63b8ff" points="870.45,-161.44 861.55,-167.18 872.09,-168.25 870.45,-161.44"/>
</a>
</g>
</g>
<!-- Node21 -->
<g id="Node000021" class="node">
<title>Node21</title>
<g id="a_Node000021"><a xlink:href="_shader_program_8h.html" target="_top" xlink:title=" ">
<polygon fill="white" stroke="#666666" points="432.75,-132 324.5,-132 324.5,-112 432.75,-112 432.75,-132"/>
<text text-anchor="middle" x="378.62" y="-118.5" font-family="Helvetica,sans-Serif" font-size="10.00">src/ShaderProgram.h</text>
</a>
</g>
</g>
<!-- Node4&#45;&gt;Node21 -->
<g id="edge36_Node000004_Node000021" class="edge">
<title>Node4&#45;&gt;Node21</title>
<g id="a_edge36_Node000004_Node000021"><a xlink:title=" ">
<path fill="none" stroke="#63b8ff" d="M760.63,-170.95C684.33,-162.62 548.95,-146.97 433.62,-132 433.4,-131.97 433.18,-131.94 432.96,-131.91"/>
<polygon fill="#63b8ff" stroke="#63b8ff" points="760.08,-174.41 770.4,-172 760.83,-167.45 760.08,-174.41"/>
</a>
</g>
</g>
<!-- Node4&#45;&gt;Node23 -->
<g id="edge41_Node000004_Node000023" class="edge">
<title>Node4&#45;&gt;Node23</title>
<g id="a_edge41_Node000004_Node000023"><a xlink:title=" ">
<path fill="none" stroke="#63b8ff" d="M814.42,-156.13C814.14,-147.9 814.76,-138.85 816.21,-132.3"/>
<polygon fill="#63b8ff" stroke="#63b8ff" points="810.93,-156.47 815.39,-166.09 817.9,-155.8 810.93,-156.47"/>
</a>
</g>
</g>
<!-- Node25 -->
<g id="Node000025" class="node">
<title>Node25</title>
<g id="a_Node000025"><a xlink:href="pch_8h.html" target="_top" xlink:title=" ">
<polygon fill="white" stroke="#666666" points="744.88,-132 688.38,-132 688.38,-112 744.88,-112 744.88,-132"/>
<text text-anchor="middle" x="716.62" y="-118.5" font-family="Helvetica,sans-Serif" font-size="10.00">src/pch.h</text>
</a>
</g>
</g>
<!-- Node4&#45;&gt;Node25 -->
<g id="edge44_Node000004_Node000025" class="edge">
<title>Node4&#45;&gt;Node25</title>
<g id="a_edge44_Node000004_Node000025"><a xlink:title=" ">
<path fill="none" stroke="#63b8ff" d="M792.4,-162.35C774.1,-152.84 750.79,-140.74 734.88,-132.48"/>
<polygon fill="#63b8ff" stroke="#63b8ff" points="790.68,-165.39 801.17,-166.9 793.9,-159.18 790.68,-165.39"/>
</a>
</g>
</g>
<!-- Node5&#45;&gt;Node2 -->
<g id="edge6_Node000005_Node000002" class="edge">
<title>Node5&#45;&gt;Node2</title>
<g id="a_edge6_Node000005_Node000002"><a xlink:title=" ">
<path fill="none" stroke="#63b8ff" d="M931.38,-143.32C926.38,-167.24 918.29,-205.92 914.59,-223.62"/>
<polygon fill="#63b8ff" stroke="#63b8ff" points="934.74,-144.34 933.36,-133.84 927.89,-142.91 934.74,-144.34"/>
</a>
</g>
</g>
<!-- Node5&#45;&gt;Node4 -->
<g id="edge7_Node000005_Node000004" class="edge">
<title>Node5&#45;&gt;Node4</title>
<g id="a_edge7_Node000005_Node000004"><a xlink:title=" ">
<path fill="none" stroke="#63b8ff" d="M910.6,-137.6C891.4,-147.14 865.2,-159.32 845.92,-167.59"/>
<polygon fill="#63b8ff" stroke="#63b8ff" points="912.03,-140.8 919.37,-133.16 908.87,-134.56 912.03,-140.8"/>
</a>
</g>
</g>
<!-- Node6 -->
<g id="Node000006" class="node">
<title>Node6</title>
<g id="a_Node000006"><a xlink:href="_camera_8cpp.html" target="_top" xlink:title=" ">
<polygon fill="white" stroke="#666666" points="1006.12,-76 921.12,-76 921.12,-56 1006.12,-56 1006.12,-76"/>
<text text-anchor="middle" x="963.62" y="-62.5" font-family="Helvetica,sans-Serif" font-size="10.00">src/Camera.cpp</text>
</a>
</g>
</g>
<!-- Node5&#45;&gt;Node6 -->
<g id="edge5_Node000005_Node000006" class="edge">
<title>Node5&#45;&gt;Node6</title>
<g id="a_edge5_Node000005_Node000006"><a xlink:title=" ">
<path fill="none" stroke="#63b8ff" d="M945.69,-101.58C950.16,-92.97 955.21,-83.24 958.8,-76.3"/>
<polygon fill="#63b8ff" stroke="#63b8ff" points="942.7,-99.76 941.2,-110.25 948.91,-102.98 942.7,-99.76"/>
</a>
</g>
</g>
<!-- Node8&#45;&gt;Node2 -->
<g id="edge11_Node000008_Node000002" class="edge">
<title>Node8&#45;&gt;Node2</title>
<g id="a_edge11_Node000008_Node000002"><a xlink:title=" ">
<path fill="none" stroke="#63b8ff" d="M1140.21,-136.71C1086.58,-159.4 980.75,-204.18 934.79,-223.62"/>
<polygon fill="#63b8ff" stroke="#63b8ff" points="1141.27,-140.06 1149.12,-132.94 1138.55,-133.62 1141.27,-140.06"/>
</a>
</g>
</g>
<!-- Node8&#45;&gt;Node4 -->
<g id="edge12_Node000008_Node000004" class="edge">
<title>Node8&#45;&gt;Node4</title>
<g id="a_edge12_Node000008_Node000004"><a xlink:title=" ">
<path fill="none" stroke="#63b8ff" d="M1107.08,-133.91C1038.16,-144.76 931.43,-161.09 869.51,-170.22"/>
<polygon fill="#63b8ff" stroke="#63b8ff" points="1107.4,-137.4 1116.73,-132.38 1106.31,-130.48 1107.4,-137.4"/>
</a>
</g>
</g>
<!-- Node9 -->
<g id="Node000009" class="node">
<title>Node9</title>
<g id="a_Node000009"><a xlink:href="_graphics_device_8cpp.html" target="_top" xlink:title=" ">
<polygon fill="white" stroke="#666666" points="1280,-76 1161.25,-76 1161.25,-56 1280,-56 1280,-76"/>
<text text-anchor="middle" x="1220.62" y="-62.5" font-family="Helvetica,sans-Serif" font-size="10.00">src/GraphicsDevice.cpp</text>
</a>
</g>
</g>
<!-- Node8&#45;&gt;Node9 -->
<g id="edge13_Node000008_Node000009" class="edge">
<title>Node8&#45;&gt;Node9</title>
<g id="a_edge13_Node000008_Node000009"><a xlink:title=" ">
<path fill="none" stroke="#63b8ff" d="M1188.62,-103C1196.57,-94.06 1205.85,-83.62 1212.36,-76.3"/>
<polygon fill="#63b8ff" stroke="#63b8ff" points="1186.02,-100.66 1181.99,-110.46 1191.25,-105.31 1186.02,-100.66"/>
</a>
</g>
</g>
<!-- Node8&#45;&gt;Node10 -->
<g id="edge14_Node000008_Node000010" class="edge">
<title>Node8&#45;&gt;Node10</title>
<g id="a_edge14_Node000008_Node000010"><a xlink:title=" ">
<path fill="none" stroke="#63b8ff" d="M1238.51,-110.08C1289.87,-101.39 1362.91,-88.63 1426.62,-76 1429.34,-75.46 1432.15,-74.88 1434.98,-74.29"/>
<polygon fill="#63b8ff" stroke="#63b8ff" points="1238.02,-106.62 1228.74,-111.73 1239.18,-113.52 1238.02,-106.62"/>
</a>
</g>
</g>
<!-- Node10&#45;&gt;Node2 -->
<g id="edge15_Node000010_Node000002" class="edge">
<title>Node10&#45;&gt;Node2</title>
<g id="a_edge15_Node000010_Node000002"><a xlink:title=" ">
<path fill="none" stroke="#63b8ff" d="M1433.4,-80.57C1371.8,-104.63 1237.83,-155.31 1121.62,-188 1069.1,-202.78 1007.99,-215.42 965.46,-223.51"/>
<polygon fill="#63b8ff" stroke="#63b8ff" points="1434.6,-83.86 1442.63,-76.95 1432.04,-77.34 1434.6,-83.86"/>
</a>
</g>
</g>
<!-- Node10&#45;&gt;Node4 -->
<g id="edge16_Node000010_Node000004" class="edge">
<title>Node10&#45;&gt;Node4</title>
<g id="a_edge16_Node000010_Node000004"><a xlink:title=" ">
<path fill="none" stroke="#63b8ff" d="M1434.78,-80.17C1391.54,-94.99 1313.43,-118.73 1244.62,-132 1110.49,-157.88 948.89,-170.05 869.4,-174.66"/>
<polygon fill="#63b8ff" stroke="#63b8ff" points="1435.79,-83.52 1444.08,-76.92 1433.49,-76.91 1435.79,-83.52"/>
</a>
</g>
</g>
<!-- Node10&#45;&gt;Node11 -->
<g id="edge17_Node000010_Node000011" class="edge">
<title>Node10&#45;&gt;Node11</title>
<g id="a_edge17_Node000010_Node000011"><a xlink:title=" ">
<path fill="none" stroke="#63b8ff" d="M1451.96,-47C1444.18,-38.06 1435.09,-27.62 1428.72,-20.3"/>
<polygon fill="#63b8ff" stroke="#63b8ff" points="1449.24,-49.21 1458.44,-54.45 1454.52,-44.61 1449.24,-49.21"/>
</a>
</g>
</g>
<!-- Node10&#45;&gt;Node12 -->
<g id="edge18_Node000010_Node000012" class="edge">
<title>Node10&#45;&gt;Node12</title>
<g id="a_edge18_Node000010_Node000012"><a xlink:title=" ">
<path fill="none" stroke="#63b8ff" d="M1483.29,-47C1491.07,-38.06 1500.16,-27.62 1506.53,-20.3"/>
<polygon fill="#63b8ff" stroke="#63b8ff" points="1480.73,-44.61 1476.81,-54.45 1486.01,-49.21 1480.73,-44.61"/>
</a>
</g>
</g>
<!-- Node13&#45;&gt;Node1 -->
<g id="edge23_Node000013_Node000001" class="edge">
<title>Node13&#45;&gt;Node1</title>
<g id="a_edge23_Node000013_Node000001"><a xlink:title=" ">
<path fill="none" stroke="#63b8ff" d="M59.55,-83.01C80.64,-97.71 113.92,-119.11 145.62,-132 397.53,-234.36 727.35,-274.91 832.72,-285.78"/>
<polygon fill="#63b8ff" stroke="#63b8ff" points="61.65,-80.21 51.47,-77.27 57.59,-85.91 61.65,-80.21"/>
</a>
</g>
</g>
<!-- Node13&#45;&gt;Node2 -->
<g id="edge20_Node000013_Node000002" class="edge">
<title>Node13&#45;&gt;Node2</title>
<g id="a_edge20_Node000013_Node000002"><a xlink:title=" ">
<path fill="none" stroke="#63b8ff" d="M68.92,-80.92C103.28,-95.66 160.38,-118.63 211.62,-132 447.49,-193.56 738.44,-220.34 857.71,-229.3"/>
<polygon fill="#63b8ff" stroke="#63b8ff" points="70.56,-77.81 59.99,-77.04 67.77,-84.23 70.56,-77.81"/>
</a>
</g>
</g>
<!-- Node13&#45;&gt;Node4 -->
<g id="edge21_Node000013_Node000004" class="edge">
<title>Node13&#45;&gt;Node4</title>
<g id="a_edge21_Node000013_Node000004"><a xlink:title=" ">
<path fill="none" stroke="#63b8ff" d="M86.36,-78.91C143.33,-93.64 240.21,-118.44 324.62,-132 487.58,-158.18 682.73,-170.15 771.97,-174.68"/>
<polygon fill="#63b8ff" stroke="#63b8ff" points="87.54,-75.6 76.98,-76.48 85.79,-82.37 87.54,-75.6"/>
</a>
</g>
</g>
<!-- Node14 -->
<g id="Node000014" class="node">
<title>Node14</title>
<g id="a_Node000014"><a xlink:href="_material_8cpp.html" target="_top" xlink:title=" ">
<polygon fill="white" stroke="#666666" points="354.5,-20 268.75,-20 268.75,0 354.5,0 354.5,-20"/>
<text text-anchor="middle" x="311.62" y="-6.5" font-family="Helvetica,sans-Serif" font-size="10.00">src/Material.cpp</text>
</a>
</g>
</g>
<!-- Node13&#45;&gt;Node14 -->
<g id="edge22_Node000013_Node000014" class="edge">
<title>Node13&#45;&gt;Node14</title>
<g id="a_edge22_Node000013_Node000014"><a xlink:title=" ">
<path fill="none" stroke="#63b8ff" d="M86.94,-55.28C138.66,-45.09 219.14,-29.23 268.44,-19.51"/>
<polygon fill="#63b8ff" stroke="#63b8ff" points="86.34,-51.83 77.21,-57.2 87.7,-58.7 86.34,-51.83"/>
</a>
</g>
</g>
<!-- Node15&#45;&gt;Node2 -->
<g id="edge27_Node000015_Node000002" class="edge">
<title>Node15&#45;&gt;Node2</title>
<g id="a_edge27_Node000015_Node000002"><a xlink:title=" ">
<path fill="none" stroke="#63b8ff" d="M545.27,-135.39C628.8,-157.59 802.15,-203.65 876.97,-223.53"/>
<polygon fill="#63b8ff" stroke="#63b8ff" points="546.37,-132.06 535.8,-132.88 544.57,-138.83 546.37,-132.06"/>
</a>
</g>
</g>
<!-- Node15&#45;&gt;Node4 -->
<g id="edge28_Node000015_Node000004" class="edge">
<title>Node15&#45;&gt;Node4</title>
<g id="a_edge28_Node000015_Node000004"><a xlink:title=" ">
<path fill="none" stroke="#63b8ff" d="M557.46,-132C619.02,-141.97 714.42,-157.97 771.92,-167.96"/>
<polygon fill="#63b8ff" stroke="#63b8ff" points="558.3,-128.59 547.87,-130.45 557.18,-135.5 558.3,-128.59"/>
</a>
</g>
</g>
<!-- Node15&#45;&gt;Node13 -->
<g id="edge29_Node000015_Node000013" class="edge">
<title>Node15&#45;&gt;Node13</title>
<g id="a_edge29_Node000015_Node000013"><a xlink:title=" ">
<path fill="none" stroke="#63b8ff" d="M439.67,-111.82C281.57,-91.88 238.88,-98.5 84.62,-76 81.67,-75.57 78.61,-75.08 75.54,-74.56"/>
<polygon fill="#63b8ff" stroke="#63b8ff" points="438.89,-115.25 449.26,-113.05 439.78,-108.31 438.89,-115.25"/>
</a>
</g>
</g>
<!-- Node16 -->
<g id="Node000016" class="node">
<title>Node16</title>
<g id="a_Node000016"><a xlink:href="_render_state_8cpp.html" target="_top" xlink:title=" ">
<polygon fill="white" stroke="#666666" points="335.25,-76 230,-76 230,-56 335.25,-56 335.25,-76"/>
<text text-anchor="middle" x="282.62" y="-62.5" font-family="Helvetica,sans-Serif" font-size="10.00">src/RenderState.cpp</text>
</a>
</g>
</g>
<!-- Node15&#45;&gt;Node16 -->
<g id="edge30_Node000015_Node000016" class="edge">
<title>Node15&#45;&gt;Node16</title>
<g id="a_edge30_Node000015_Node000016"><a xlink:title=" ">
<path fill="none" stroke="#63b8ff" d="M449.88,-108.81C410.72,-99.02 356.51,-85.47 320.54,-76.48"/>
<polygon fill="#63b8ff" stroke="#63b8ff" points="448.98,-112.2 459.53,-111.23 450.68,-105.41 448.98,-112.2"/>
</a>
</g>
</g>
<!-- Node18 -->
<g id="Node000018" class="node">
<title>Node18</title>
<g id="a_Node000018"><a xlink:href="_scene_8cpp.html" target="_top" xlink:title=" ">
<polygon fill="white" stroke="#666666" points="432.12,-76 353.12,-76 353.12,-56 432.12,-56 432.12,-76"/>
<text text-anchor="middle" x="392.62" y="-62.5" font-family="Helvetica,sans-Serif" font-size="10.00">src/Scene.cpp</text>
</a>
</g>
</g>
<!-- Node17&#45;&gt;Node18 -->
<g id="edge32_Node000017_Node000018" class="edge">
<title>Node17&#45;&gt;Node18</title>
<g id="a_edge32_Node000017_Node000018"><a xlink:title=" ">
<path fill="none" stroke="#63b8ff" d="M553.03,-109.05C515.55,-99.22 463.17,-85.49 428.6,-76.43"/>
<polygon fill="#63b8ff" stroke="#63b8ff" points="552.12,-112.43 562.68,-111.58 553.9,-105.66 552.12,-112.43"/>
</a>
</g>
</g>
<!-- Node19&#45;&gt;Node2 -->
<g id="edge34_Node000019_Node000002" class="edge">
<title>Node19&#45;&gt;Node2</title>
<g id="a_edge34_Node000019_Node000002"><a xlink:title=" ">
<path fill="none" stroke="#63b8ff" d="M1025.66,-139.52C997.36,-162.92 946.54,-204.95 923.96,-223.62"/>
<polygon fill="#63b8ff" stroke="#63b8ff" points="1027.67,-142.39 1033.15,-133.32 1023.21,-137 1027.67,-142.39"/>
</a>
</g>
</g>
<!-- Node20 -->
<g id="Node000020" class="node">
<title>Node20</title>
<g id="a_Node000020"><a xlink:href="_shader_manager_8cpp.html" target="_top" xlink:title=" ">
<polygon fill="white" stroke="#666666" points="1143.38,-76 1023.88,-76 1023.88,-56 1143.38,-56 1143.38,-76"/>
<text text-anchor="middle" x="1083.62" y="-62.5" font-family="Helvetica,sans-Serif" font-size="10.00">src/ShaderManager.cpp</text>
</a>
</g>
</g>
<!-- Node19&#45;&gt;Node20 -->
<g id="edge35_Node000019_Node000020" class="edge">
<title>Node19&#45;&gt;Node20</title>
<g id="a_edge35_Node000019_Node000020"><a xlink:title=" ">
<path fill="none" stroke="#63b8ff" d="M1058.69,-102.44C1064.89,-93.62 1072.04,-83.47 1077.08,-76.3"/>
<polygon fill="#63b8ff" stroke="#63b8ff" points="1056.01,-100.16 1053.12,-110.36 1061.73,-104.19 1056.01,-100.16"/>
</a>
</g>
</g>
<!-- Node21&#45;&gt;Node2 -->
<g id="edge37_Node000021_Node000002" class="edge">
<title>Node21&#45;&gt;Node2</title>
<g id="a_edge37_Node000021_Node000002"><a xlink:title=" ">
<path fill="none" stroke="#63b8ff" d="M428.69,-135.08C485.67,-148.67 581.61,-171.04 664.62,-188 730.86,-201.53 807.48,-215.12 857.82,-223.77"/>
<polygon fill="#63b8ff" stroke="#63b8ff" points="429.84,-131.76 419.3,-132.84 428.21,-138.57 429.84,-131.76"/>
</a>
</g>
</g>
<!-- Node21&#45;&gt;Node4 -->
<g id="edge38_Node000021_Node000004" class="edge">
<title>Node21&#45;&gt;Node4</title>
<g id="a_edge38_Node000021_Node000004"><a xlink:title=" ">
<path fill="none" stroke="#63b8ff" d="M444.17,-131.02C446.69,-131.35 449.18,-131.68 451.62,-132 566.48,-146.91 701.23,-162.5 771.92,-170.84"/>
<polygon fill="#63b8ff" stroke="#63b8ff" points="444.85,-127.58 434.48,-129.71 443.92,-134.52 444.85,-127.58"/>
</a>
</g>
</g>
<!-- Node21&#45;&gt;Node13 -->
<g id="edge39_Node000021_Node000013" class="edge">
<title>Node21&#45;&gt;Node13</title>
<g id="a_edge39_Node000021_Node000013"><a xlink:title=" ">
<path fill="none" stroke="#63b8ff" d="M312.93,-111.66C253.27,-103.01 162.91,-89.48 84.62,-76 81.68,-75.49 78.63,-74.95 75.57,-74.39"/>
<polygon fill="#63b8ff" stroke="#63b8ff" points="312.17,-115.09 322.57,-113.05 313.18,-108.16 312.17,-115.09"/>
</a>
</g>
</g>
<!-- Node22 -->
<g id="Node000022" class="node">
<title>Node22</title>
<g id="a_Node000022"><a xlink:href="_shader_program_8cpp.html" target="_top" xlink:title=" ">
<polygon fill="white" stroke="#666666" points="212,-76 93.25,-76 93.25,-56 212,-56 212,-76"/>
<text text-anchor="middle" x="152.62" y="-62.5" font-family="Helvetica,sans-Serif" font-size="10.00">src/ShaderProgram.cpp</text>
</a>
</g>
</g>
<!-- Node21&#45;&gt;Node22 -->
<g id="edge40_Node000021_Node000022" class="edge">
<title>Node21&#45;&gt;Node22</title>
<g id="a_edge40_Node000021_Node000022"><a xlink:title=" ">
<path fill="none" stroke="#63b8ff" d="M327.88,-108.88C286.85,-99.07 229.91,-85.47 192.2,-76.46"/>
<polygon fill="#63b8ff" stroke="#63b8ff" points="326.99,-112.26 337.53,-111.18 328.62,-105.45 326.99,-112.26"/>
</a>
</g>
</g>
<!-- Node23&#45;&gt;Node4 -->
<g id="edge42_Node000023_Node000004" class="edge">
<title>Node23&#45;&gt;Node4</title>
<g id="a_edge42_Node000023_Node000004"><a xlink:title=" ">
<path fill="none" stroke="#63b8ff" d="M827.83,-143.73C828.11,-151.96 827.51,-161.01 826.07,-167.59"/>
<polygon fill="#63b8ff" stroke="#63b8ff" points="831.31,-143.41 826.85,-133.8 824.35,-144.1 831.31,-143.41"/>
</a>
</g>
</g>
<!-- Node24 -->
<g id="Node000024" class="node">
<title>Node24</title>
<g id="a_Node000024"><a xlink:href="_win32_application_8cpp.html" target="_top" xlink:title=" ">
<polygon fill="white" stroke="#666666" points="903.12,-76 776.12,-76 776.12,-56 903.12,-56 903.12,-76"/>
<text text-anchor="middle" x="839.62" y="-62.5" font-family="Helvetica,sans-Serif" font-size="10.00">src/Win32Application.cpp</text>
</a>
</g>
</g>
<!-- Node23&#45;&gt;Node24 -->
<g id="edge43_Node000023_Node000024" class="edge">
<title>Node23&#45;&gt;Node24</title>
<g id="a_edge43_Node000023_Node000024"><a xlink:title=" ">
<path fill="none" stroke="#63b8ff" d="M828.39,-100.71C831.18,-92.32 834.29,-83.01 836.53,-76.3"/>
<polygon fill="#63b8ff" stroke="#63b8ff" points="825.08,-99.56 825.24,-110.16 831.72,-101.78 825.08,-99.56"/>
</a>
</g>
</g>
<!-- Node25&#45;&gt;Node3 -->
<g id="edge46_Node000025_Node000003" class="edge">
<title>Node25&#45;&gt;Node3</title>
<g id="a_edge46_Node000025_Node000003"><a xlink:title=" ">
<path fill="none" stroke="#63b8ff" d="M756.5,-112.01C991.81,-77.17 1055.6,-99.03 1288.62,-76 1291.51,-75.71 1294.46,-75.4 1297.44,-75.07"/>
<polygon fill="#63b8ff" stroke="#63b8ff" points="756.03,-108.54 746.66,-113.48 757.07,-115.46 756.03,-108.54"/>
</a>
</g>
</g>
<!-- Node25&#45;&gt;Node6 -->
<g id="edge45_Node000025_Node000006" class="edge">
<title>Node25&#45;&gt;Node6</title>
<g id="a_edge45_Node000025_Node000006"><a xlink:title=" ">
<path fill="none" stroke="#63b8ff" d="M756.19,-111.68C819.2,-97.5 880.76,-84.38 920.74,-75.97"/>
<polygon fill="#63b8ff" stroke="#63b8ff" points="755.7,-108.2 746.72,-113.82 757.25,-115.03 755.7,-108.2"/>
</a>
</g>
</g>
<!-- Node25&#45;&gt;Node7 -->
<g id="edge47_Node000025_Node000007" class="edge">
<title>Node25&#45;&gt;Node7</title>
<g id="a_edge47_Node000025_Node000007"><a xlink:title=" ">
<path fill="none" stroke="#63b8ff" d="M676.98,-110.95C638,-101.07 578.95,-86.1 540.83,-76.43"/>
<polygon fill="#63b8ff" stroke="#63b8ff" points="675.88,-114.28 686.43,-113.35 677.6,-107.5 675.88,-114.28"/>
</a>
</g>
</g>
<!-- Node25&#45;&gt;Node9 -->
<g id="edge48_Node000025_Node000009" class="edge">
<title>Node25&#45;&gt;Node9</title>
<g id="a_edge48_Node000025_Node000009"><a xlink:title=" ">
<path fill="none" stroke="#63b8ff" d="M756.37,-111.97C931.88,-83.95 979.73,-95.25 1152.62,-76 1155.35,-75.7 1158.13,-75.38 1160.94,-75.04"/>
<polygon fill="#63b8ff" stroke="#63b8ff" points="755.98,-108.48 746.67,-113.54 757.1,-115.39 755.98,-108.48"/>
</a>
</g>
</g>
<!-- Node25&#45;&gt;Node11 -->
<g id="edge50_Node000025_Node000011" class="edge">
<title>Node25&#45;&gt;Node11</title>
<g id="a_edge50_Node000025_Node000011"><a xlink:title=" ">
<path fill="none" stroke="#63b8ff" d="M716.11,-100.63C716.93,-85.86 720.7,-66.68 733.62,-56 783.8,-14.57 1245.66,-11.06 1382.56,-10.94"/>
<polygon fill="#63b8ff" stroke="#63b8ff" points="712.61,-100.16 715.99,-110.2 719.61,-100.24 712.61,-100.16"/>
</a>
</g>
</g>
<!-- Node25&#45;&gt;Node12 -->
<g id="edge51_Node000025_Node000012" class="edge">
<title>Node25&#45;&gt;Node12</title>
<g id="a_edge51_Node000025_Node000012"><a xlink:title=" ">
<path fill="none" stroke="#63b8ff" d="M725.85,-101.79C734.36,-86.43 748.57,-65.88 767.62,-56 836.76,-20.14 1390.31,-29.35 1467.62,-20 1470.18,-19.69 1472.81,-19.32 1475.45,-18.92"/>
<polygon fill="#63b8ff" stroke="#63b8ff" points="722.83,-100 721.36,-110.49 729.06,-103.21 722.83,-100"/>
</a>
</g>
</g>
<!-- Node25&#45;&gt;Node14 -->
<g id="edge49_Node000025_Node000014" class="edge">
<title>Node25&#45;&gt;Node14</title>
<g id="a_edge49_Node000025_Node000014"><a xlink:title=" ">
<path fill="none" stroke="#63b8ff" d="M680.36,-107.51C658.23,-99.02 629.52,-87.52 604.62,-76 587.3,-67.99 584.68,-62.18 566.62,-56 494.53,-31.34 406.11,-19.61 354.6,-14.49"/>
<polygon fill="#63b8ff" stroke="#63b8ff" points="678.95,-110.72 689.54,-111.01 681.44,-104.18 678.95,-110.72"/>
</a>
</g>
</g>
<!-- Node25&#45;&gt;Node16 -->
<g id="edge52_Node000025_Node000016" class="edge">
<title>Node25&#45;&gt;Node16</title>
<g id="a_edge52_Node000025_Node000016"><a xlink:title=" ">
<path fill="none" stroke="#63b8ff" d="M676.82,-116.23C584.04,-105.1 360,-78.19 343.62,-76 340.97,-75.64 338.26,-75.27 335.51,-74.89"/>
<polygon fill="#63b8ff" stroke="#63b8ff" points="676.13,-119.67 686.48,-117.39 676.97,-112.72 676.13,-119.67"/>
</a>
</g>
</g>
<!-- Node25&#45;&gt;Node18 -->
<g id="edge53_Node000025_Node000018" class="edge">
<title>Node25&#45;&gt;Node18</title>
<g id="a_edge53_Node000025_Node000018"><a xlink:title=" ">
<path fill="none" stroke="#63b8ff" d="M676.92,-114.83C623.25,-106.42 524.6,-90.72 440.62,-76 437.95,-75.53 435.2,-75.04 432.42,-74.54"/>
<polygon fill="#63b8ff" stroke="#63b8ff" points="676.06,-118.24 686.48,-116.33 677.15,-111.32 676.06,-118.24"/>
</a>
</g>
</g>
<!-- Node25&#45;&gt;Node20 -->
<g id="edge54_Node000025_Node000020" class="edge">
<title>Node25&#45;&gt;Node20</title>
<g id="a_edge54_Node000025_Node000020"><a xlink:title=" ">
<path fill="none" stroke="#63b8ff" d="M756.51,-112.02C800.99,-105.07 941.82,-86.06 1023.66,-75.05"/>
<polygon fill="#63b8ff" stroke="#63b8ff" points="755.97,-108.57 746.69,-113.67 757.13,-115.47 755.97,-108.57"/>
</a>
</g>
</g>
<!-- Node25&#45;&gt;Node22 -->
<g id="edge55_Node000025_Node000022" class="edge">
<title>Node25&#45;&gt;Node22</title>
<g id="a_edge55_Node000025_Node000022"><a xlink:title=" ">
<path fill="none" stroke="#63b8ff" d="M676.79,-115.96C665.44,-114.6 653.05,-113.17 641.62,-112 454.81,-92.81 407.32,-96.33 220.62,-76 217.9,-75.7 215.12,-75.39 212.31,-75.06"/>
<polygon fill="#63b8ff" stroke="#63b8ff" points="676.31,-119.43 686.66,-117.17 677.15,-112.48 676.31,-119.43"/>
</a>
</g>
</g>
<!-- Node25&#45;&gt;Node24 -->
<g id="edge56_Node000025_Node000024" class="edge">
<title>Node25&#45;&gt;Node24</title>
<g id="a_edge56_Node000025_Node000024"><a xlink:title=" ">
<path fill="none" stroke="#63b8ff" d="M748.49,-107.01C770.36,-97.41 798.78,-84.93 818.03,-76.48"/>
<polygon fill="#63b8ff" stroke="#63b8ff" points="747.19,-103.76 739.44,-110.99 750,-110.17 747.19,-103.76"/>
</a>
</g>
</g>
<!-- Node26 -->
<g id="Node000026" class="node">
<title>Node26</title>
<g id="a_Node000026"><a xlink:href="pch_8cpp.html" target="_top" xlink:title=" ">
<polygon fill="white" stroke="#666666" points="681.12,-76 614.12,-76 614.12,-56 681.12,-56 681.12,-76"/>
<text text-anchor="middle" x="647.62" y="-62.5" font-family="Helvetica,sans-Serif" font-size="10.00">src/pch.cpp</text>
</a>
</g>
</g>
<!-- Node25&#45;&gt;Node26 -->
<g id="edge57_Node000025_Node000026" class="edge">
<title>Node25&#45;&gt;Node26</title>
<g id="a_edge57_Node000025_Node000026"><a xlink:title=" ">
<path fill="none" stroke="#63b8ff" d="M695.77,-104.68C683.9,-95.39 669.46,-84.09 659.51,-76.3"/>
<polygon fill="#63b8ff" stroke="#63b8ff" points="693.38,-107.25 703.41,-110.66 697.7,-101.74 693.38,-107.25"/>
</a>
</g>
</g>
</g>
</svg>
