<?xml version="1.0" encoding="UTF-8" standalone="no"?>
<!DOCTYPE svg PUBLIC "-//W3C//DTD SVG 1.1//EN"
 "http://www.w3.org/Graphics/SVG/1.1/DTD/svg11.dtd">
<!-- Generated by graphviz version 9.0.0 (20230911.1827)
 -->
<!-- Title: src/Model.cpp Pages: 1 -->
<!--zoomable 420 -->

<svg id="main" version="1.1" xmlns="http://www.w3.org/2000/svg" xmlns:xlink="http://www.w3.org/1999/xlink" xml:space="preserve" onload="init(evt)">
<style type="text/css"><![CDATA[
.node, .edge {opacity: 0.7;}
.node.selected, .edge.selected {opacity: 1;}
.edge:hover path { stroke: red; }
.edge:hover polygon { stroke: red; fill: red; }
]]></style>

<defs>
  <circle id="rim" cx="0" cy="0" r="7"/>
  <circle id="rim2" cx="0" cy="0" r="3.5"/>
  <g id="zoomPlus">
    <use xlink:href="#rim" fill="#404040"><set attributeName="fill" to="#808080" begin="zoomplus.mouseover" end="zoomplus.mouseout"/></use>
    <path d="M-4,0h8M0,-4v8" fill="none" stroke="white" stroke-width="1.5" pointer-events="none"/>
  </g>
  <g id="zoomMin">
    <use xlink:href="#rim" fill="#404040"><set attributeName="fill" to="#808080" begin="zoomminus.mouseover" end="zoomminus.mouseout"/></use>
    <path d="M-4,0h8" fill="none" stroke="white" stroke-width="1.5" pointer-events="none"/>
  </g>
  <g id="arrowUp" transform="translate(30 24)">
    <use xlink:href="#rim"/>
    <path pointer-events="none" fill="none" stroke="white" stroke-width="1.5" d="M0,-3.0v7 M-2.5,-0.5L0,-3.0L2.5,-0.5"/>
  </g>
  <g id="arrowRight" transform="rotate(90) translate(36 -43)">
    <use xlink:href="#rim"/>
    <path pointer-events="none" fill="none" stroke="white" stroke-width="1.5" d="M0,-3.0v7 M-2.5,-0.5L0,-3.0L2.5,-0.5"/>
  </g>
  <g id="arrowDown" transform="rotate(180) translate(-30 -48)">
    <use xlink:href="#rim"/>
    <path pointer-events="none" fill="none" stroke="white" stroke-width="1.5" d="M0,-3.0v7 M-2.5,-0.5L0,-3.0L2.5,-0.5"/>
  </g>
  <g id="arrowLeft" transform="rotate(270) translate(-36 17)">
    <use xlink:href="#rim"/>
    <path pointer-events="none" fill="none" stroke="white" stroke-width="1.5" d="M0,-3.0v7 M-2.5,-0.5L0,-3.0L2.5,-0.5"/>
  </g>
  <g id="resetDef">
    <use xlink:href="#rim2" fill="#404040"><set attributeName="fill" to="#808080" begin="reset.mouseover" end="reset.mouseout"/></use>
  </g>
</defs>
<script type="application/ecmascript">
var viewWidth = 2925;
var viewHeight = 420;
var sectionId = 'dynsection-0';
</script>
<script type="application/ecmascript" xlink:href="svg.min.js"/>
<svg id="graph" class="graph">
<g id="viewport">
<title>src/Model.cpp</title>
<!-- Node1 -->
<g id="Node000001" class="node">
<title>Node1</title>
<g id="a_Node000001"><a xlink:title=" ">
<polygon fill="#999999" stroke="#666666" points="2861.62,-412 2784.12,-412 2784.12,-392 2861.62,-392 2861.62,-412"/>
<text text-anchor="middle" x="2822.88" y="-398.5" font-family="Helvetica,sans-Serif" font-size="10.00">src/Model.cpp</text>
</a>
</g>
</g>
<!-- Node2 -->
<g id="Node000002" class="node">
<title>Node2</title>
<g id="a_Node000002"><a xlink:href="pch_8h.html" target="_top" xlink:title=" ">
<polygon fill="white" stroke="#666666" points="2349.88,-356 2309.88,-356 2309.88,-336 2349.88,-336 2349.88,-356"/>
<text text-anchor="middle" x="2329.88" y="-342.5" font-family="Helvetica,sans-Serif" font-size="10.00">pch.h</text>
</a>
</g>
</g>
<!-- Node1&#45;&gt;Node2 -->
<g id="edge1_Node000001_Node000002" class="edge">
<title>Node1&#45;&gt;Node2</title>
<g id="a_edge1_Node000001_Node000002"><a xlink:title=" ">
<path fill="none" stroke="#63b8ff" d="M2783.78,-396.72C2689.04,-386.34 2448.62,-360.01 2361.78,-350.49"/>
<polygon fill="#63b8ff" stroke="#63b8ff" points="2362.17,-347.02 2351.85,-349.41 2361.41,-353.98 2362.17,-347.02"/>
</a>
</g>
</g>
<!-- Node35 -->
<g id="Node000035" class="node">
<title>Node35</title>
<g id="a_Node000035"><a xlink:href="_mesh_8h.html" target="_top" xlink:title=" ">
<polygon fill="white" stroke="#666666" points="2741,-132 2692.75,-132 2692.75,-112 2741,-112 2741,-132"/>
<text text-anchor="middle" x="2716.88" y="-118.5" font-family="Helvetica,sans-Serif" font-size="10.00">Mesh.h</text>
</a>
</g>
</g>
<!-- Node1&#45;&gt;Node35 -->
<g id="edge63_Node000001_Node000035" class="edge">
<title>Node1&#45;&gt;Node35</title>
<g id="a_edge63_Node000001_Node000035"><a xlink:title=" ">
<path fill="none" stroke="#63b8ff" d="M2839.68,-391.57C2866.72,-375.02 2916.88,-337.97 2916.88,-291 2916.88,-291 2916.88,-291 2916.88,-233 2916.88,-158.85 2810.03,-134.33 2752.53,-126.5"/>
<polygon fill="#63b8ff" stroke="#63b8ff" points="2753.26,-123.07 2742.9,-125.3 2752.39,-130.01 2753.26,-123.07"/>
</a>
</g>
</g>
<!-- Node40 -->
<g id="Node000040" class="node">
<title>Node40</title>
<g id="a_Node000040"><a xlink:href="_model_8h.html" target="_top" xlink:title=" ">
<polygon fill="white" stroke="#666666" points="2119.12,-132 2068.62,-132 2068.62,-112 2119.12,-112 2119.12,-132"/>
<text text-anchor="middle" x="2093.88" y="-118.5" font-family="Helvetica,sans-Serif" font-size="10.00">Model.h</text>
</a>
</g>
</g>
<!-- Node1&#45;&gt;Node40 -->
<g id="edge62_Node000001_Node000040" class="edge">
<title>Node1&#45;&gt;Node40</title>
<g id="a_edge62_Node000001_Node000040"><a xlink:title=" ">
<path fill="none" stroke="#63b8ff" d="M2825.32,-391.7C2832.39,-362.44 2849.62,-271.34 2803.88,-224 2756.43,-174.9 2269,-135.79 2130.43,-125.6"/>
<polygon fill="#63b8ff" stroke="#63b8ff" points="2130.97,-122.13 2120.74,-124.89 2130.46,-129.11 2130.97,-122.13"/>
</a>
</g>
</g>
<!-- Node3 -->
<g id="Node000003" class="node">
<title>Node3</title>
<g id="a_Node000003"><a xlink:href="_game_engine_8h.html" target="_top" xlink:title=" ">
<polygon fill="white" stroke="#666666" points="1924.12,-300 1843.62,-300 1843.62,-280 1924.12,-280 1924.12,-300"/>
<text text-anchor="middle" x="1883.88" y="-286.5" font-family="Helvetica,sans-Serif" font-size="10.00">GameEngine.h</text>
</a>
</g>
</g>
<!-- Node2&#45;&gt;Node3 -->
<g id="edge2_Node000002_Node000003" class="edge">
<title>Node2&#45;&gt;Node3</title>
<g id="a_edge2_Node000002_Node000003"><a xlink:title=" ">
<path fill="none" stroke="#63b8ff" d="M2309.55,-342.54C2243.57,-334.55 2033.97,-309.17 1935.68,-297.27"/>
<polygon fill="#63b8ff" stroke="#63b8ff" points="1936.4,-293.83 1926.05,-296.11 1935.55,-300.78 1936.4,-293.83"/>
</a>
</g>
</g>
<!-- Node4 -->
<g id="Node000004" class="node">
<title>Node4</title>
<g id="a_Node000004"><a xlink:title=" ">
<polygon fill="#e0e0e0" stroke="#999999" points="2056.75,-244 1977,-244 1977,-224 2056.75,-224 2056.75,-244"/>
<text text-anchor="middle" x="2016.88" y="-230.5" font-family="Helvetica,sans-Serif" font-size="10.00">SDKDDKVer.h</text>
</a>
</g>
</g>
<!-- Node3&#45;&gt;Node4 -->
<g id="edge3_Node000003_Node000004" class="edge">
<title>Node3&#45;&gt;Node4</title>
<g id="a_edge3_Node000003_Node000004"><a xlink:title=" ">
<path fill="none" stroke="#63b8ff" d="M1907.04,-279.59C1928.08,-271.05 1959.37,-258.35 1983.18,-248.68"/>
<polygon fill="#63b8ff" stroke="#63b8ff" points="1984.18,-252.05 1992.13,-245.05 1981.54,-245.57 1984.18,-252.05"/>
</a>
</g>
</g>
<!-- Node5 -->
<g id="Node000005" class="node">
<title>Node5</title>
<g id="a_Node000005"><a xlink:title=" ">
<polygon fill="#e0e0e0" stroke="#999999" points="2192.38,-244 2131.38,-244 2131.38,-224 2192.38,-224 2192.38,-244"/>
<text text-anchor="middle" x="2161.88" y="-230.5" font-family="Helvetica,sans-Serif" font-size="10.00">windows.h</text>
</a>
</g>
</g>
<!-- Node3&#45;&gt;Node5 -->
<g id="edge4_Node000003_Node000005" class="edge">
<title>Node3&#45;&gt;Node5</title>
<g id="a_edge4_Node000003_Node000005"><a xlink:title=" ">
<path fill="none" stroke="#63b8ff" d="M1924.3,-281.28C1970.78,-272.38 2049.36,-257.27 2116.88,-244 2117.87,-243.81 2118.87,-243.61 2119.88,-243.41"/>
<polygon fill="#63b8ff" stroke="#63b8ff" points="2120.28,-246.9 2129.41,-241.52 2118.92,-240.03 2120.28,-246.9"/>
</a>
</g>
</g>
<!-- Node6 -->
<g id="Node000006" class="node">
<title>Node6</title>
<g id="a_Node000006"><a xlink:title=" ">
<polygon fill="#e0e0e0" stroke="#999999" points="2376.62,-244 2329.12,-244 2329.12,-224 2376.62,-224 2376.62,-244"/>
<text text-anchor="middle" x="2352.88" y="-230.5" font-family="Helvetica,sans-Serif" font-size="10.00">stdlib.h</text>
</a>
</g>
</g>
<!-- Node3&#45;&gt;Node6 -->
<g id="edge5_Node000003_Node000006" class="edge">
<title>Node3&#45;&gt;Node6</title>
<g id="a_edge5_Node000003_Node000006"><a xlink:title=" ">
<path fill="none" stroke="#63b8ff" d="M1924.47,-287.03C2000.02,-282.88 2167.44,-271.46 2317.59,-244.13"/>
<polygon fill="#63b8ff" stroke="#63b8ff" points="2318.15,-247.58 2327.34,-242.32 2316.87,-240.7 2318.15,-247.58"/>
</a>
</g>
</g>
<!-- Node7 -->
<g id="Node000007" class="node">
<title>Node7</title>
<g id="a_Node000007"><a xlink:title=" ">
<polygon fill="#e0e0e0" stroke="#999999" points="2541.25,-244 2488.5,-244 2488.5,-224 2541.25,-224 2541.25,-244"/>
<text text-anchor="middle" x="2514.88" y="-230.5" font-family="Helvetica,sans-Serif" font-size="10.00">malloc.h</text>
</a>
</g>
</g>
<!-- Node3&#45;&gt;Node7 -->
<g id="edge6_Node000003_Node000007" class="edge">
<title>Node3&#45;&gt;Node7</title>
<g id="a_edge6_Node000003_Node000007"><a xlink:title=" ">
<path fill="none" stroke="#63b8ff" d="M1924.59,-287.94C2020.8,-284.98 2269.56,-274.75 2474.88,-244 2475.69,-243.88 2476.52,-243.75 2477.35,-243.61"/>
<polygon fill="#63b8ff" stroke="#63b8ff" points="2477.63,-247.12 2486.81,-241.83 2476.33,-240.24 2477.63,-247.12"/>
</a>
</g>
</g>
<!-- Node8 -->
<g id="Node000008" class="node">
<title>Node8</title>
<g id="a_Node000008"><a xlink:title=" ">
<polygon fill="#e0e0e0" stroke="#999999" points="2618.62,-244 2559.12,-244 2559.12,-224 2618.62,-224 2618.62,-244"/>
<text text-anchor="middle" x="2588.88" y="-230.5" font-family="Helvetica,sans-Serif" font-size="10.00">memory.h</text>
</a>
</g>
</g>
<!-- Node3&#45;&gt;Node8 -->
<g id="edge7_Node000003_Node000008" class="edge">
<title>Node3&#45;&gt;Node8</title>
<g id="a_edge7_Node000003_Node000008"><a xlink:title=" ">
<path fill="none" stroke="#63b8ff" d="M1924.28,-288.51C2026.89,-286.78 2305.96,-279.11 2547.62,-244.09"/>
<polygon fill="#63b8ff" stroke="#63b8ff" points="2547.85,-247.59 2557.23,-242.68 2546.83,-240.67 2547.85,-247.59"/>
</a>
</g>
</g>
<!-- Node9 -->
<g id="Node000009" class="node">
<title>Node9</title>
<g id="a_Node000009"><a xlink:title=" ">
<polygon fill="#e0e0e0" stroke="#999999" points="2794.88,-244 2748.88,-244 2748.88,-224 2794.88,-224 2794.88,-244"/>
<text text-anchor="middle" x="2771.88" y="-230.5" font-family="Helvetica,sans-Serif" font-size="10.00">tchar.h</text>
</a>
</g>
</g>
<!-- Node3&#45;&gt;Node9 -->
<g id="edge8_Node000003_Node000009" class="edge">
<title>Node3&#45;&gt;Node9</title>
<g id="a_edge8_Node000003_Node000009"><a xlink:title=" ">
<path fill="none" stroke="#63b8ff" d="M1924.45,-289.52C2047.28,-290.51 2425.64,-289.38 2734.88,-244 2735.71,-243.88 2736.55,-243.75 2737.4,-243.6"/>
<polygon fill="#63b8ff" stroke="#63b8ff" points="2737.91,-247.07 2747.03,-241.67 2736.54,-240.21 2737.91,-247.07"/>
</a>
</g>
</g>
<!-- Node10 -->
<g id="Node000010" class="node">
<title>Node10</title>
<g id="a_Node000010"><a xlink:title=" ">
<polygon fill="#e0e0e0" stroke="#999999" points="61.75,-244 0,-244 0,-224 61.75,-224 61.75,-244"/>
<text text-anchor="middle" x="30.88" y="-230.5" font-family="Helvetica,sans-Serif" font-size="10.00">resource.h</text>
</a>
</g>
</g>
<!-- Node3&#45;&gt;Node10 -->
<g id="edge9_Node000003_Node000010" class="edge">
<title>Node3&#45;&gt;Node10</title>
<g id="a_edge9_Node000003_Node000010"><a xlink:title=" ">
<path fill="none" stroke="#63b8ff" d="M1843.45,-289.08C1612.2,-289.35 454.12,-288.51 73.52,-244.03"/>
<polygon fill="#63b8ff" stroke="#63b8ff" points="74.07,-240.57 63.72,-242.84 73.23,-247.52 74.07,-240.57"/>
</a>
</g>
</g>
<!-- Node11 -->
<g id="Node000011" class="node">
<title>Node11</title>
<g id="a_Node000011"><a xlink:title=" ">
<polygon fill="#e0e0e0" stroke="#999999" points="125.5,-244 80.25,-244 80.25,-224 125.5,-224 125.5,-244"/>
<text text-anchor="middle" x="102.88" y="-230.5" font-family="Helvetica,sans-Serif" font-size="10.00">chrono</text>
</a>
</g>
</g>
<!-- Node3&#45;&gt;Node11 -->
<g id="edge10_Node000003_Node000011" class="edge">
<title>Node3&#45;&gt;Node11</title>
<g id="a_edge10_Node000003_Node000011"><a xlink:title=" ">
<path fill="none" stroke="#63b8ff" d="M1843.24,-288.58C1601.39,-286 355.07,-271.54 137,-243.93"/>
<polygon fill="#63b8ff" stroke="#63b8ff" points="137.64,-240.49 127.25,-242.56 136.66,-247.42 137.64,-240.49"/>
</a>
</g>
</g>
<!-- Node12 -->
<g id="Node000012" class="node">
<title>Node12</title>
<g id="a_Node000012"><a xlink:title=" ">
<polygon fill="#e0e0e0" stroke="#999999" points="184.62,-244 143.12,-244 143.12,-224 184.62,-224 184.62,-244"/>
<text text-anchor="middle" x="163.88" y="-230.5" font-family="Helvetica,sans-Serif" font-size="10.00">vector</text>
</a>
</g>
</g>
<!-- Node3&#45;&gt;Node12 -->
<g id="edge11_Node000003_Node000012" class="edge">
<title>Node3&#45;&gt;Node12</title>
<g id="a_edge11_Node000003_Node000012"><a xlink:title=" ">
<path fill="none" stroke="#63b8ff" d="M1843.46,-288.56C1607.19,-285.93 408.15,-271.41 196.23,-243.73"/>
<polygon fill="#63b8ff" stroke="#63b8ff" points="196.92,-240.29 186.52,-242.32 195.91,-247.22 196.92,-240.29"/>
</a>
</g>
</g>
<!-- Node13 -->
<g id="Node000013" class="node">
<title>Node13</title>
<g id="a_Node000013"><a xlink:title=" ">
<polygon fill="#e0e0e0" stroke="#999999" points="256.62,-244 203.12,-244 203.12,-224 256.62,-224 256.62,-244"/>
<text text-anchor="middle" x="229.88" y="-230.5" font-family="Helvetica,sans-Serif" font-size="10.00">iostream</text>
</a>
</g>
</g>
<!-- Node3&#45;&gt;Node13 -->
<g id="edge12_Node000003_Node000013" class="edge">
<title>Node3&#45;&gt;Node13</title>
<g id="a_edge12_Node000003_Node000013"><a xlink:title=" ">
<path fill="none" stroke="#63b8ff" d="M1843.24,-289.06C1626.86,-289.23 607.38,-287.71 268.17,-243.93"/>
<polygon fill="#63b8ff" stroke="#63b8ff" points="268.75,-240.47 258.38,-242.62 267.83,-247.41 268.75,-240.47"/>
</a>
</g>
</g>
<!-- Node14 -->
<g id="Node000014" class="node">
<title>Node14</title>
<g id="a_Node000014"><a xlink:title=" ">
<polygon fill="#e0e0e0" stroke="#999999" points="323,-244 274.75,-244 274.75,-224 323,-224 323,-244"/>
<text text-anchor="middle" x="298.88" y="-230.5" font-family="Helvetica,sans-Serif" font-size="10.00">fstream</text>
</a>
</g>
</g>
<!-- Node3&#45;&gt;Node14 -->
<g id="edge13_Node000003_Node000014" class="edge">
<title>Node3&#45;&gt;Node14</title>
<g id="a_edge13_Node000003_Node000014"><a xlink:title=" ">
<path fill="none" stroke="#63b8ff" d="M1843.15,-289.12C1631.94,-289.58 659.01,-289.21 334.51,-243.97"/>
<polygon fill="#63b8ff" stroke="#63b8ff" points="335.14,-240.52 324.74,-242.56 334.14,-247.45 335.14,-240.52"/>
</a>
</g>
</g>
<!-- Node15 -->
<g id="Node000015" class="node">
<title>Node15</title>
<g id="a_Node000015"><a xlink:title=" ">
<polygon fill="#e0e0e0" stroke="#999999" points="401,-244 340.75,-244 340.75,-224 401,-224 401,-244"/>
<text text-anchor="middle" x="370.88" y="-230.5" font-family="Helvetica,sans-Serif" font-size="10.00">filesystem</text>
</a>
</g>
</g>
<!-- Node3&#45;&gt;Node15 -->
<g id="edge14_Node000003_Node000015" class="edge">
<title>Node3&#45;&gt;Node15</title>
<g id="a_edge14_Node000003_Node000015"><a xlink:title=" ">
<path fill="none" stroke="#63b8ff" d="M1843.19,-288.84C1638.72,-287.86 721.16,-281.48 412.59,-244.05"/>
<polygon fill="#63b8ff" stroke="#63b8ff" points="413.29,-240.61 402.93,-242.84 412.42,-247.56 413.29,-240.61"/>
</a>
</g>
</g>
<!-- Node16 -->
<g id="Node000016" class="node">
<title>Node16</title>
<g id="a_Node000016"><a xlink:title=" ">
<polygon fill="#e0e0e0" stroke="#999999" points="470.5,-244 419.25,-244 419.25,-224 470.5,-224 470.5,-244"/>
<text text-anchor="middle" x="444.88" y="-230.5" font-family="Helvetica,sans-Serif" font-size="10.00">sstream</text>
</a>
</g>
</g>
<!-- Node3&#45;&gt;Node16 -->
<g id="edge15_Node000003_Node000016" class="edge">
<title>Node3&#45;&gt;Node16</title>
<g id="a_edge15_Node000003_Node000016"><a xlink:title=" ">
<path fill="none" stroke="#63b8ff" d="M1843.13,-288.9C1644.51,-288.23 775.74,-283.18 481.79,-243.86"/>
<polygon fill="#63b8ff" stroke="#63b8ff" points="482.63,-240.44 472.24,-242.53 481.66,-247.38 482.63,-240.44"/>
</a>
</g>
</g>
<!-- Node17 -->
<g id="Node000017" class="node">
<title>Node17</title>
<g id="a_Node000017"><a xlink:title=" ">
<polygon fill="#e0e0e0" stroke="#999999" points="571.25,-244 488.5,-244 488.5,-224 571.25,-224 571.25,-244"/>
<text text-anchor="middle" x="529.88" y="-230.5" font-family="Helvetica,sans-Serif" font-size="10.00">unordered_map</text>
</a>
</g>
</g>
<!-- Node3&#45;&gt;Node17 -->
<g id="edge16_Node000003_Node000017" class="edge">
<title>Node3&#45;&gt;Node17</title>
<g id="a_edge16_Node000003_Node000017"><a xlink:title=" ">
<path fill="none" stroke="#63b8ff" d="M1843.29,-288.37C1654.09,-285.29 856.77,-271.03 582.65,-243.98"/>
<polygon fill="#63b8ff" stroke="#63b8ff" points="583.37,-240.53 573.06,-243 582.65,-247.5 583.37,-240.53"/>
</a>
</g>
</g>
<!-- Node18 -->
<g id="Node000018" class="node">
<title>Node18</title>
<g id="a_Node000018"><a xlink:title=" ">
<polygon fill="#e0e0e0" stroke="#999999" points="694.12,-244 589.62,-244 589.62,-224 694.12,-224 694.12,-244"/>
<text text-anchor="middle" x="641.88" y="-230.5" font-family="Helvetica,sans-Serif" font-size="10.00">assimp/Importer.hpp</text>
</a>
</g>
</g>
<!-- Node3&#45;&gt;Node18 -->
<g id="edge17_Node000003_Node000018" class="edge">
<title>Node3&#45;&gt;Node18</title>
<g id="a_edge17_Node000003_Node000018"><a xlink:title=" ">
<path fill="none" stroke="#63b8ff" d="M1843.24,-289.04C1693.39,-288.88 1157.52,-285.3 705.73,-244.16"/>
<polygon fill="#63b8ff" stroke="#63b8ff" points="706.19,-240.69 695.91,-243.26 705.55,-247.66 706.19,-240.69"/>
</a>
</g>
</g>
<!-- Node19 -->
<g id="Node000019" class="node">
<title>Node19</title>
<g id="a_Node000019"><a xlink:title=" ">
<polygon fill="#e0e0e0" stroke="#999999" points="797.38,-244 712.38,-244 712.38,-224 797.38,-224 797.38,-244"/>
<text text-anchor="middle" x="754.88" y="-230.5" font-family="Helvetica,sans-Serif" font-size="10.00">assimp/scene.h</text>
</a>
</g>
</g>
<!-- Node3&#45;&gt;Node19 -->
<g id="edge18_Node000003_Node000019" class="edge">
<title>Node3&#45;&gt;Node19</title>
<g id="a_edge18_Node000003_Node000019"><a xlink:title=" ">
<path fill="none" stroke="#63b8ff" d="M1843.15,-289.2C1701.64,-289.48 1218.12,-287.09 808.84,-244.05"/>
<polygon fill="#63b8ff" stroke="#63b8ff" points="809.48,-240.59 799.17,-243.02 808.74,-247.55 809.48,-240.59"/>
</a>
</g>
</g>
<!-- Node20 -->
<g id="Node000020" class="node">
<title>Node20</title>
<g id="a_Node000020"><a xlink:title=" ">
<polygon fill="#e0e0e0" stroke="#999999" points="927.88,-244 815.88,-244 815.88,-224 927.88,-224 927.88,-244"/>
<text text-anchor="middle" x="871.88" y="-230.5" font-family="Helvetica,sans-Serif" font-size="10.00">assimp/postprocess.h</text>
</a>
</g>
</g>
<!-- Node3&#45;&gt;Node20 -->
<g id="edge19_Node000003_Node000020" class="edge">
<title>Node3&#45;&gt;Node20</title>
<g id="a_edge19_Node000003_Node000020"><a xlink:title=" ">
<path fill="none" stroke="#63b8ff" d="M1843.17,-288.38C1713.1,-286.1 1295.67,-276.67 939.52,-244.16"/>
<polygon fill="#63b8ff" stroke="#63b8ff" points="940,-240.69 929.72,-243.26 939.35,-247.66 940,-240.69"/>
</a>
</g>
</g>
<!-- Node21 -->
<g id="Node000021" class="node">
<title>Node21</title>
<g id="a_Node000021"><a xlink:title=" ">
<polygon fill="#e0e0e0" stroke="#999999" points="1091.38,-244 946.38,-244 946.38,-224 1091.38,-224 1091.38,-244"/>
<text text-anchor="middle" x="1018.88" y="-230.5" font-family="Helvetica,sans-Serif" font-size="10.00">directxtk\WICTextureLoader.h</text>
</a>
</g>
</g>
<!-- Node3&#45;&gt;Node21 -->
<g id="edge20_Node000003_Node000021" class="edge">
<title>Node3&#45;&gt;Node21</title>
<g id="a_edge20_Node000003_Node000021"><a xlink:title=" ">
<path fill="none" stroke="#63b8ff" d="M1843.48,-287.42C1729.18,-282.79 1393.47,-268.1 1102.92,-244.12"/>
<polygon fill="#63b8ff" stroke="#63b8ff" points="1103.5,-240.66 1093.24,-243.32 1102.92,-247.64 1103.5,-240.66"/>
</a>
</g>
</g>
<!-- Node22 -->
<g id="Node000022" class="node">
<title>Node22</title>
<g id="a_Node000022"><a xlink:title=" ">
<polygon fill="#e0e0e0" stroke="#999999" points="1174.25,-244 1109.5,-244 1109.5,-224 1174.25,-224 1174.25,-244"/>
<text text-anchor="middle" x="1141.88" y="-230.5" font-family="Helvetica,sans-Serif" font-size="10.00">wincodec.h</text>
</a>
</g>
</g>
<!-- Node3&#45;&gt;Node22 -->
<g id="edge21_Node000003_Node000022" class="edge">
<title>Node3&#45;&gt;Node22</title>
<g id="a_edge21_Node000003_Node000022"><a xlink:title=" ">
<path fill="none" stroke="#63b8ff" d="M1843.35,-288.55C1737.01,-286.9 1441.08,-279.39 1185.82,-244.21"/>
<polygon fill="#63b8ff" stroke="#63b8ff" points="1186.35,-240.75 1175.97,-242.83 1185.39,-247.68 1186.35,-240.75"/>
</a>
</g>
</g>
<!-- Node23 -->
<g id="Node000023" class="node">
<title>Node23</title>
<g id="a_Node000023"><a xlink:title=" ">
<polygon fill="#e0e0e0" stroke="#999999" points="1249.88,-244 1191.88,-244 1191.88,-224 1249.88,-224 1249.88,-244"/>
<text text-anchor="middle" x="1220.88" y="-230.5" font-family="Helvetica,sans-Serif" font-size="10.00">lodepng.h</text>
</a>
</g>
</g>
<!-- Node3&#45;&gt;Node23 -->
<g id="edge22_Node000003_Node000023" class="edge">
<title>Node3&#45;&gt;Node23</title>
<g id="a_edge22_Node000003_Node000023"><a xlink:title=" ">
<path fill="none" stroke="#63b8ff" d="M1843.41,-288.33C1745.22,-286.24 1486.48,-277.85 1261.6,-244.17"/>
<polygon fill="#63b8ff" stroke="#63b8ff" points="1262.15,-240.72 1251.74,-242.68 1261.1,-247.64 1262.15,-240.72"/>
</a>
</g>
</g>
<!-- Node24 -->
<g id="Node000024" class="node">
<title>Node24</title>
<g id="a_Node000024"><a xlink:title=" ">
<polygon fill="#e0e0e0" stroke="#999999" points="1318.12,-244 1267.62,-244 1267.62,-224 1318.12,-224 1318.12,-244"/>
<text text-anchor="middle" x="1292.88" y="-230.5" font-family="Helvetica,sans-Serif" font-size="10.00">d3d11.h</text>
</a>
</g>
</g>
<!-- Node3&#45;&gt;Node24 -->
<g id="edge23_Node000003_Node000024" class="edge">
<title>Node3&#45;&gt;Node24</title>
<g id="a_edge23_Node000003_Node000024"><a xlink:title=" ">
<path fill="none" stroke="#63b8ff" d="M1843.47,-288.09C1753.09,-285.56 1527.7,-276.43 1329.59,-243.96"/>
<polygon fill="#63b8ff" stroke="#63b8ff" points="1330.31,-240.54 1319.87,-242.34 1329.16,-247.44 1330.31,-240.54"/>
</a>
</g>
</g>
<!-- Node25 -->
<g id="Node000025" class="node">
<title>Node25</title>
<g id="a_Node000025"><a xlink:title=" ">
<polygon fill="#e0e0e0" stroke="#999999" points="1413.25,-244 1336.5,-244 1336.5,-224 1413.25,-224 1413.25,-244"/>
<text text-anchor="middle" x="1374.88" y="-230.5" font-family="Helvetica,sans-Serif" font-size="10.00">DirectXMath.h</text>
</a>
</g>
</g>
<!-- Node3&#45;&gt;Node25 -->
<g id="edge24_Node000003_Node000025" class="edge">
<title>Node3&#45;&gt;Node25</title>
<g id="a_edge24_Node000003_Node000025"><a xlink:title=" ">
<path fill="none" stroke="#63b8ff" d="M1843.25,-286.31C1764.43,-280.81 1585.11,-266.97 1424.59,-244.28"/>
<polygon fill="#63b8ff" stroke="#63b8ff" points="1425.45,-240.87 1415.05,-242.91 1424.46,-247.79 1425.45,-240.87"/>
</a>
</g>
</g>
<!-- Node26 -->
<g id="Node000026" class="node">
<title>Node26</title>
<g id="a_Node000026"><a xlink:title=" ">
<polygon fill="#e0e0e0" stroke="#999999" points="1510.75,-244 1431,-244 1431,-224 1510.75,-224 1510.75,-244"/>
<text text-anchor="middle" x="1470.88" y="-230.5" font-family="Helvetica,sans-Serif" font-size="10.00">D3Dcompiler.h</text>
</a>
</g>
</g>
<!-- Node3&#45;&gt;Node26 -->
<g id="edge25_Node000003_Node000026" class="edge">
<title>Node3&#45;&gt;Node26</title>
<g id="a_edge25_Node000003_Node000026"><a xlink:title=" ">
<path fill="none" stroke="#63b8ff" d="M1843.37,-284.78C1778.02,-277.79 1645.03,-262.88 1522.3,-244.3"/>
<polygon fill="#63b8ff" stroke="#63b8ff" points="1523.13,-240.88 1512.72,-242.83 1522.07,-247.8 1523.13,-240.88"/>
</a>
</g>
</g>
<!-- Node27 -->
<g id="Node000027" class="node">
<title>Node27</title>
<g id="a_Node000027"><a xlink:title=" ">
<polygon fill="#e0e0e0" stroke="#999999" points="1584.75,-244 1529,-244 1529,-224 1584.75,-224 1584.75,-244"/>
<text text-anchor="middle" x="1556.88" y="-230.5" font-family="Helvetica,sans-Serif" font-size="10.00">d2d1_2.h</text>
</a>
</g>
</g>
<!-- Node3&#45;&gt;Node27 -->
<g id="edge26_Node000003_Node000027" class="edge">
<title>Node3&#45;&gt;Node27</title>
<g id="a_edge26_Node000003_Node000027"><a xlink:title=" ">
<path fill="none" stroke="#63b8ff" d="M1843.34,-283.81C1789.24,-276.65 1690.23,-262.7 1596.24,-244.33"/>
<polygon fill="#63b8ff" stroke="#63b8ff" points="1597.08,-240.93 1586.59,-242.42 1595.72,-247.79 1597.08,-240.93"/>
</a>
</g>
</g>
<!-- Node28 -->
<g id="Node000028" class="node">
<title>Node28</title>
<g id="a_Node000028"><a xlink:title=" ">
<polygon fill="#e0e0e0" stroke="#999999" points="1658.75,-244 1603,-244 1603,-224 1658.75,-224 1658.75,-244"/>
<text text-anchor="middle" x="1630.88" y="-230.5" font-family="Helvetica,sans-Serif" font-size="10.00">d2d1_1.h</text>
</a>
</g>
</g>
<!-- Node3&#45;&gt;Node28 -->
<g id="edge27_Node000003_Node000028" class="edge">
<title>Node3&#45;&gt;Node28</title>
<g id="a_edge27_Node000003_Node000028"><a xlink:title=" ">
<path fill="none" stroke="#63b8ff" d="M1843.18,-280.94C1801.99,-272.69 1736.18,-259.26 1670.16,-244.46"/>
<polygon fill="#63b8ff" stroke="#63b8ff" points="1671.14,-241.09 1660.61,-242.31 1669.6,-247.92 1671.14,-241.09"/>
</a>
</g>
</g>
<!-- Node29 -->
<g id="Node000029" class="node">
<title>Node29</title>
<g id="a_Node000029"><a xlink:title=" ">
<polygon fill="#e0e0e0" stroke="#999999" points="1722.5,-244 1677.25,-244 1677.25,-224 1722.5,-224 1722.5,-244"/>
<text text-anchor="middle" x="1699.88" y="-230.5" font-family="Helvetica,sans-Serif" font-size="10.00">d2d1.h</text>
</a>
</g>
</g>
<!-- Node3&#45;&gt;Node29 -->
<g id="edge28_Node000003_Node000029" class="edge">
<title>Node3&#45;&gt;Node29</title>
<g id="a_edge28_Node000003_Node000029"><a xlink:title=" ">
<path fill="none" stroke="#63b8ff" d="M1851.82,-279.59C1818.71,-269.87 1767.23,-254.77 1733.54,-244.88"/>
<polygon fill="#63b8ff" stroke="#63b8ff" points="1734.87,-241.62 1724.29,-242.17 1732.9,-248.34 1734.87,-241.62"/>
</a>
</g>
</g>
<!-- Node30 -->
<g id="Node000030" class="node">
<title>Node30</title>
<g id="a_Node000030"><a xlink:title=" ">
<polygon fill="#e0e0e0" stroke="#999999" points="1790.75,-244 1741,-244 1741,-224 1790.75,-224 1790.75,-244"/>
<text text-anchor="middle" x="1765.88" y="-230.5" font-family="Helvetica,sans-Serif" font-size="10.00">dwrite.h</text>
</a>
</g>
</g>
<!-- Node3&#45;&gt;Node30 -->
<g id="edge29_Node000003_Node000030" class="edge">
<title>Node3&#45;&gt;Node30</title>
<g id="a_edge29_Node000003_Node000030"><a xlink:title=" ">
<path fill="none" stroke="#63b8ff" d="M1863.32,-279.59C1844.99,-271.21 1817.89,-258.8 1796.92,-249.21"/>
<polygon fill="#63b8ff" stroke="#63b8ff" points="1798.52,-246.09 1787.97,-245.11 1795.6,-252.45 1798.52,-246.09"/>
</a>
</g>
</g>
<!-- Node31 -->
<g id="Node000031" class="node">
<title>Node31</title>
<g id="a_Node000031"><a xlink:href="_win32_application_8h.html" target="_top" xlink:title=" ">
<polygon fill="white" stroke="#666666" points="2310.88,-244 2210.88,-244 2210.88,-224 2310.88,-224 2310.88,-244"/>
<text text-anchor="middle" x="2260.88" y="-230.5" font-family="Helvetica,sans-Serif" font-size="10.00">Win32Application.h</text>
</a>
</g>
</g>
<!-- Node3&#45;&gt;Node31 -->
<g id="edge30_Node000003_Node000031" class="edge">
<title>Node3&#45;&gt;Node31</title>
<g id="a_edge30_Node000003_Node000031"><a xlink:title=" ">
<path fill="none" stroke="#63b8ff" d="M1924.47,-282.48C1983.47,-273.83 2095.89,-258.01 2191.88,-244 2194.33,-243.64 2196.84,-243.27 2199.39,-242.9"/>
<polygon fill="#63b8ff" stroke="#63b8ff" points="2199.79,-246.38 2209.17,-241.46 2198.77,-239.45 2199.79,-246.38"/>
</a>
</g>
</g>
<!-- Node32 -->
<g id="Node000032" class="node">
<title>Node32</title>
<g id="a_Node000032"><a xlink:href="_direct_x_manager_8h.html" target="_top" xlink:title=" ">
<polygon fill="white" stroke="#666666" points="2395.12,-188 2302.62,-188 2302.62,-168 2395.12,-168 2395.12,-188"/>
<text text-anchor="middle" x="2348.88" y="-174.5" font-family="Helvetica,sans-Serif" font-size="10.00">DirectXManager.h</text>
</a>
</g>
</g>
<!-- Node3&#45;&gt;Node32 -->
<g id="edge54_Node000003_Node000032" class="edge">
<title>Node3&#45;&gt;Node32</title>
<g id="a_edge54_Node000003_Node000032"><a xlink:title=" ">
<path fill="none" stroke="#63b8ff" d="M1924.41,-288.36C2036.96,-286.22 2346.32,-277.42 2376.88,-244 2389.81,-229.85 2375.52,-210.4 2362.83,-196.47"/>
<polygon fill="#63b8ff" stroke="#63b8ff" points="2365.48,-194.18 2356.06,-189.32 2360.39,-198.99 2365.48,-194.18"/>
</a>
</g>
</g>
<!-- Node33 -->
<g id="Node000033" class="node">
<title>Node33</title>
<g id="a_Node000033"><a xlink:href="_camera_8h.html" target="_top" xlink:title=" ">
<polygon fill="white" stroke="#666666" points="1978.88,-132 1920.88,-132 1920.88,-112 1978.88,-112 1978.88,-132"/>
<text text-anchor="middle" x="1949.88" y="-118.5" font-family="Helvetica,sans-Serif" font-size="10.00">Camera.h</text>
</a>
</g>
</g>
<!-- Node3&#45;&gt;Node33 -->
<g id="edge55_Node000003_Node000033" class="edge">
<title>Node3&#45;&gt;Node33</title>
<g id="a_edge55_Node000003_Node000033"><a xlink:title=" ">
<path fill="none" stroke="#63b8ff" d="M1882.22,-279.52C1885.1,-270.53 1892.46,-256.57 1897.88,-244 1912.97,-208.99 1927.08,-166.76 1937.48,-142.58"/>
<polygon fill="#63b8ff" stroke="#63b8ff" points="1940.59,-144.18 1941.63,-133.64 1934.24,-141.23 1940.59,-144.18"/>
</a>
</g>
</g>
<!-- Node34 -->
<g id="Node000034" class="node">
<title>Node34</title>
<g id="a_Node000034"><a xlink:href="_graphics_device_8h.html" target="_top" xlink:title=" ">
<polygon fill="white" stroke="#666666" points="2701.75,-76 2610,-76 2610,-56 2701.75,-56 2701.75,-76"/>
<text text-anchor="middle" x="2655.88" y="-62.5" font-family="Helvetica,sans-Serif" font-size="10.00">GraphicsDevice.h</text>
</a>
</g>
</g>
<!-- Node3&#45;&gt;Node34 -->
<g id="edge56_Node000003_Node000034" class="edge">
<title>Node3&#45;&gt;Node34</title>
<g id="a_edge56_Node000003_Node000034"><a xlink:title=" ">
<path fill="none" stroke="#63b8ff" d="M1924.54,-289.48C2071.33,-290.71 2567.05,-291.05 2618.88,-244 2662.97,-203.97 2656.78,-124.83 2654.61,-87.46"/>
<polygon fill="#63b8ff" stroke="#63b8ff" points="2658.11,-87.46 2654.17,-77.63 2651.12,-87.77 2658.11,-87.46"/>
</a>
</g>
</g>
<!-- Node3&#45;&gt;Node35 -->
<g id="edge58_Node000003_Node000035" class="edge">
<title>Node3&#45;&gt;Node35</title>
<g id="a_edge58_Node000003_Node000035"><a xlink:title=" ">
<path fill="none" stroke="#63b8ff" d="M1924.38,-289.38C2076.95,-290.37 2610.49,-290.23 2669.88,-244 2700.76,-219.95 2707.08,-170.95 2711.06,-143.25"/>
<polygon fill="#63b8ff" stroke="#63b8ff" points="2714.47,-144.11 2712.58,-133.69 2707.56,-143.02 2714.47,-144.11"/>
</a>
</g>
</g>
<!-- Node36 -->
<g id="Node000036" class="node">
<title>Node36</title>
<g id="a_Node000036"><a xlink:href="_render_state_8h.html" target="_top" xlink:title=" ">
<polygon fill="white" stroke="#666666" points="1934,-20 1855.75,-20 1855.75,0 1934,0 1934,-20"/>
<text text-anchor="middle" x="1894.88" y="-6.5" font-family="Helvetica,sans-Serif" font-size="10.00">RenderState.h</text>
</a>
</g>
</g>
<!-- Node3&#45;&gt;Node36 -->
<g id="edge60_Node000003_Node000036" class="edge">
<title>Node3&#45;&gt;Node36</title>
<g id="a_edge60_Node000003_Node000036"><a xlink:title=" ">
<path fill="none" stroke="#63b8ff" d="M1869.92,-279.53C1850.38,-261.45 1818.88,-220.14 1818.88,-179 1818.88,-179 1818.88,-179 1818.88,-121 1818.88,-83.46 1847.69,-47.85 1870.06,-27.79"/>
<polygon fill="#63b8ff" stroke="#63b8ff" points="1872.28,-30.49 1877.69,-21.39 1867.78,-25.13 1872.28,-30.49"/>
</a>
</g>
</g>
<!-- Node37 -->
<g id="Node000037" class="node">
<title>Node37</title>
<g id="a_Node000037"><a xlink:href="_shader_program_8h.html" target="_top" xlink:title=" ">
<polygon fill="white" stroke="#666666" points="2654.75,-20 2563,-20 2563,0 2654.75,0 2654.75,-20"/>
<text text-anchor="middle" x="2608.88" y="-6.5" font-family="Helvetica,sans-Serif" font-size="10.00">ShaderProgram.h</text>
</a>
</g>
</g>
<!-- Node3&#45;&gt;Node37 -->
<g id="edge61_Node000003_Node000037" class="edge">
<title>Node3&#45;&gt;Node37</title>
<g id="a_edge61_Node000003_Node000037"><a xlink:title=" ">
<path fill="none" stroke="#63b8ff" d="M1924.42,-288.68C2090.66,-287.2 2714.19,-279.39 2794.88,-244 2832.58,-227.46 2860.88,-220.17 2860.88,-179 2860.88,-179 2860.88,-179 2860.88,-121 2860.88,-35.53 2740.54,-15.41 2666.1,-11.3"/>
<polygon fill="#63b8ff" stroke="#63b8ff" points="2666.69,-7.83 2656.54,-10.86 2666.37,-14.82 2666.69,-7.83"/>
</a>
</g>
</g>
<!-- Node39 -->
<g id="Node000039" class="node">
<title>Node39</title>
<g id="a_Node000039"><a xlink:href="_material_8h.html" target="_top" xlink:title=" ">
<polygon fill="white" stroke="#666666" points="2057.25,-76 1998.5,-76 1998.5,-56 2057.25,-56 2057.25,-76"/>
<text text-anchor="middle" x="2027.88" y="-62.5" font-family="Helvetica,sans-Serif" font-size="10.00">Material.h</text>
</a>
</g>
</g>
<!-- Node3&#45;&gt;Node39 -->
<g id="edge57_Node000003_Node000039" class="edge">
<title>Node3&#45;&gt;Node39</title>
<g id="a_edge57_Node000003_Node000039"><a xlink:title=" ">
<path fill="none" stroke="#63b8ff" d="M1878.51,-279.66C1869.44,-251.03 1861.46,-163.33 1902.88,-112 1922.96,-87.1 1958.63,-75.95 1986.87,-70.97"/>
<polygon fill="#63b8ff" stroke="#63b8ff" points="1987.21,-74.46 1996.56,-69.48 1986.15,-67.54 1987.21,-74.46"/>
</a>
</g>
</g>
<!-- Node3&#45;&gt;Node40 -->
<g id="edge59_Node000003_Node000040" class="edge">
<title>Node3&#45;&gt;Node40</title>
<g id="a_edge59_Node000003_Node000040"><a xlink:title=" ">
<path fill="none" stroke="#63b8ff" d="M1924.43,-282.98C1969.56,-275.97 2038.26,-262.9 2056.88,-244 2083.27,-217.2 2086.7,-170.74 2089.05,-143.85"/>
<polygon fill="#63b8ff" stroke="#63b8ff" points="2092.53,-144.21 2090.06,-133.91 2085.56,-143.5 2092.53,-144.21"/>
</a>
</g>
</g>
<!-- Node31&#45;&gt;Node3 -->
<g id="edge31_Node000031_Node000003" class="edge">
<title>Node31&#45;&gt;Node3</title>
<g id="a_edge31_Node000031_Node000003"><a xlink:title=" ">
<path fill="none" stroke="#63b8ff" d="M2210.5,-243.91C2210.29,-243.94 2210.08,-243.97 2209.88,-244 2113.36,-258.09 2000.23,-274 1935.7,-282.62"/>
<polygon fill="#63b8ff" stroke="#63b8ff" points="1935.57,-279.11 1926.12,-283.9 1936.49,-286.05 1935.57,-279.11"/>
</a>
</g>
</g>
<!-- Node31&#45;&gt;Node32 -->
<g id="edge32_Node000031_Node000032" class="edge">
<title>Node31&#45;&gt;Node32</title>
<g id="a_edge32_Node000031_Node000032"><a xlink:title=" ">
<path fill="none" stroke="#63b8ff" d="M2276.2,-223.59C2289.37,-215.51 2308.61,-203.71 2323.98,-194.27"/>
<polygon fill="#63b8ff" stroke="#63b8ff" points="2325.44,-197.48 2332.14,-189.27 2321.78,-191.52 2325.44,-197.48"/>
</a>
</g>
</g>
<!-- Node32&#45;&gt;Node3 -->
<g id="edge33_Node000032_Node000003" class="edge">
<title>Node32&#45;&gt;Node3</title>
<g id="a_edge33_Node000032_Node000003"><a xlink:title=" ">
<path fill="none" stroke="#63b8ff" d="M2367.08,-188.45C2386.22,-201.9 2410.56,-226.85 2394.88,-244 2364.56,-277.16 2059.8,-286.08 1935.8,-288.31"/>
<polygon fill="#63b8ff" stroke="#63b8ff" points="1935.83,-284.81 1925.89,-288.48 1935.95,-291.8 1935.83,-284.81"/>
</a>
</g>
</g>
<!-- Node32&#45;&gt;Node33 -->
<g id="edge34_Node000032_Node000033" class="edge">
<title>Node32&#45;&gt;Node33</title>
<g id="a_edge34_Node000032_Node000033"><a xlink:title=" ">
<path fill="none" stroke="#63b8ff" d="M2302.32,-170.7C2223.49,-160.03 2065.03,-138.58 1990.44,-128.49"/>
<polygon fill="#63b8ff" stroke="#63b8ff" points="1991.1,-125.05 1980.72,-127.17 1990.16,-131.98 1991.1,-125.05"/>
</a>
</g>
</g>
<!-- Node32&#45;&gt;Node34 -->
<g id="edge36_Node000032_Node000034" class="edge">
<title>Node32&#45;&gt;Node34</title>
<g id="a_edge36_Node000032_Node000034"><a xlink:title=" ">
<path fill="none" stroke="#63b8ff" d="M2354.16,-167.69C2362.91,-153.22 2381.83,-125.59 2405.88,-112 2465.78,-78.14 2545.55,-68.84 2598.7,-66.74"/>
<polygon fill="#63b8ff" stroke="#63b8ff" points="2598.56,-70.24 2608.44,-66.43 2598.34,-63.25 2598.56,-70.24"/>
</a>
</g>
</g>
<!-- Node32&#45;&gt;Node35 -->
<g id="edge38_Node000032_Node000035" class="edge">
<title>Node32&#45;&gt;Node35</title>
<g id="a_edge38_Node000032_Node000035"><a xlink:title=" ">
<path fill="none" stroke="#63b8ff" d="M2395.48,-170.16C2470.1,-159.21 2614.77,-137.98 2681.54,-128.19"/>
<polygon fill="#63b8ff" stroke="#63b8ff" points="2681.81,-131.68 2691.19,-126.77 2680.79,-124.76 2681.81,-131.68"/>
</a>
</g>
</g>
<!-- Node32&#45;&gt;Node36 -->
<g id="edge41_Node000032_Node000036" class="edge">
<title>Node32&#45;&gt;Node36</title>
<g id="a_edge41_Node000032_Node000036"><a xlink:title=" ">
<path fill="none" stroke="#63b8ff" d="M2328.17,-167.54C2299.95,-154.7 2247.79,-131.17 2202.88,-112 2142.38,-86.18 2128.26,-76.86 2065.88,-56 2025.99,-42.66 1979.81,-30.71 1945.51,-22.48"/>
<polygon fill="#63b8ff" stroke="#63b8ff" points="1946.37,-19.09 1935.83,-20.19 1944.75,-25.9 1946.37,-19.09"/>
</a>
</g>
</g>
<!-- Node32&#45;&gt;Node37 -->
<g id="edge43_Node000032_Node000037" class="edge">
<title>Node32&#45;&gt;Node37</title>
<g id="a_edge43_Node000032_Node000037"><a xlink:title=" ">
<path fill="none" stroke="#63b8ff" d="M2350.9,-167.82C2354.38,-154.01 2362.73,-127.85 2378.88,-112 2427.59,-64.19 2502.71,-37.08 2553.74,-23.24"/>
<polygon fill="#63b8ff" stroke="#63b8ff" points="2554.31,-26.71 2563.1,-20.79 2552.54,-19.94 2554.31,-26.71"/>
</a>
</g>
</g>
<!-- Node38 -->
<g id="Node000038" class="node">
<title>Node38</title>
<g id="a_Node000038"><a xlink:href="_shader_manager_8h.html" target="_top" xlink:title=" ">
<polygon fill="white" stroke="#666666" points="2507.12,-132 2414.62,-132 2414.62,-112 2507.12,-112 2507.12,-132"/>
<text text-anchor="middle" x="2460.88" y="-118.5" font-family="Helvetica,sans-Serif" font-size="10.00">ShaderManager.h</text>
</a>
</g>
</g>
<!-- Node32&#45;&gt;Node38 -->
<g id="edge45_Node000032_Node000038" class="edge">
<title>Node32&#45;&gt;Node38</title>
<g id="a_edge45_Node000032_Node000038"><a xlink:title=" ">
<path fill="none" stroke="#63b8ff" d="M2368.38,-167.59C2385.62,-159.28 2411.03,-147.03 2430.86,-137.47"/>
<polygon fill="#63b8ff" stroke="#63b8ff" points="2432.36,-140.63 2439.85,-133.14 2429.32,-134.33 2432.36,-140.63"/>
</a>
</g>
</g>
<!-- Node32&#45;&gt;Node39 -->
<g id="edge47_Node000032_Node000039" class="edge">
<title>Node32&#45;&gt;Node39</title>
<g id="a_edge47_Node000032_Node000039"><a xlink:title=" ">
<path fill="none" stroke="#63b8ff" d="M2321.23,-167.53C2263.87,-147.87 2131.82,-102.62 2066.25,-80.15"/>
<polygon fill="#63b8ff" stroke="#63b8ff" points="2067.59,-76.91 2057,-76.98 2065.33,-83.53 2067.59,-76.91"/>
</a>
</g>
</g>
<!-- Node32&#45;&gt;Node40 -->
<g id="edge51_Node000032_Node000040" class="edge">
<title>Node32&#45;&gt;Node40</title>
<g id="a_edge51_Node000032_Node000040"><a xlink:title=" ">
<path fill="none" stroke="#63b8ff" d="M2304.17,-167.53C2254.89,-157.1 2176.55,-140.51 2130.68,-130.79"/>
<polygon fill="#63b8ff" stroke="#63b8ff" points="2131.47,-127.38 2120.96,-128.74 2130.02,-134.23 2131.47,-127.38"/>
</a>
</g>
</g>
<!-- Node33&#45;&gt;Node3 -->
<g id="edge35_Node000033_Node000003" class="edge">
<title>Node33&#45;&gt;Node3</title>
<g id="a_edge35_Node000033_Node000003"><a xlink:title=" ">
<path fill="none" stroke="#63b8ff" d="M1951.81,-132.27C1949.68,-152.74 1933.44,-203.26 1915.88,-244 1912.11,-252.74 1907.4,-262.15 1902.55,-270.1"/>
<polygon fill="#63b8ff" stroke="#63b8ff" points="1899.72,-268.03 1897,-278.27 1905.51,-271.96 1899.72,-268.03"/>
</a>
</g>
</g>
<!-- Node34&#45;&gt;Node3 -->
<g id="edge37_Node000034_Node000003" class="edge">
<title>Node34&#45;&gt;Node3</title>
<g id="a_edge37_Node000034_Node000003"><a xlink:title=" ">
<path fill="none" stroke="#63b8ff" d="M2661.58,-76.12C2672.62,-105.63 2686.17,-199.25 2636.88,-244 2585.47,-290.67 2097.43,-290.72 1935.62,-289.51"/>
<polygon fill="#63b8ff" stroke="#63b8ff" points="1936.09,-286.02 1926.06,-289.44 1936.03,-293.01 1936.09,-286.02"/>
</a>
</g>
</g>
<!-- Node35&#45;&gt;Node3 -->
<g id="edge39_Node000035_Node000003" class="edge">
<title>Node35&#45;&gt;Node3</title>
<g id="a_edge39_Node000035_Node000003"><a xlink:title=" ">
<path fill="none" stroke="#63b8ff" d="M2721.57,-132.19C2726.43,-155.36 2723.49,-216.27 2687.88,-244 2629.02,-289.82 2104.44,-290.37 1935.77,-289.41"/>
<polygon fill="#63b8ff" stroke="#63b8ff" points="1936.02,-285.91 1926,-289.35 1935.98,-292.91 1936.02,-285.91"/>
</a>
</g>
</g>
<!-- Node35&#45;&gt;Node34 -->
<g id="edge40_Node000035_Node000034" class="edge">
<title>Node35&#45;&gt;Node34</title>
<g id="a_edge40_Node000035_Node000034"><a xlink:title=" ">
<path fill="none" stroke="#63b8ff" d="M2706.25,-111.59C2697.59,-103.93 2685.14,-92.91 2674.79,-83.75"/>
<polygon fill="#63b8ff" stroke="#63b8ff" points="2677.32,-81.31 2667.51,-77.3 2672.68,-86.55 2677.32,-81.31"/>
</a>
</g>
</g>
<!-- Node36&#45;&gt;Node3 -->
<g id="edge42_Node000036_Node000003" class="edge">
<title>Node36&#45;&gt;Node3</title>
<g id="a_edge42_Node000036_Node000003"><a xlink:title=" ">
<path fill="none" stroke="#63b8ff" d="M1889.37,-20.41C1874.17,-38.08 1836.88,-78.29 1836.88,-121 1836.88,-179 1836.88,-179 1836.88,-179 1836.88,-214.04 1859.72,-249.19 1873.88,-270.02"/>
<polygon fill="#63b8ff" stroke="#63b8ff" points="1870.97,-271.96 1879.48,-278.27 1876.76,-268.03 1870.97,-271.96"/>
</a>
</g>
</g>
<!-- Node37&#45;&gt;Node3 -->
<g id="edge44_Node000037_Node000003" class="edge">
<title>Node37&#45;&gt;Node3</title>
<g id="a_edge44_Node000037_Node000003"><a xlink:title=" ">
<path fill="none" stroke="#63b8ff" d="M2655.16,-10.49C2732.44,-11.96 2878.88,-26.71 2878.88,-121 2878.88,-179 2878.88,-179 2878.88,-179 2878.88,-220.17 2850.58,-227.46 2812.88,-244 2732.94,-279.06 2120.18,-287.05 1936,-288.64"/>
<polygon fill="#63b8ff" stroke="#63b8ff" points="1935.98,-285.14 1926.01,-288.72 1936.04,-292.14 1935.98,-285.14"/>
</a>
</g>
</g>
<!-- Node38&#45;&gt;Node3 -->
<g id="edge46_Node000038_Node000003" class="edge">
<title>Node38&#45;&gt;Node3</title>
<g id="a_edge46_Node000038_Node000003"><a xlink:title=" ">
<path fill="none" stroke="#63b8ff" d="M2460.27,-132.21C2458.19,-155.42 2449.27,-216.42 2411.88,-244 2374.09,-271.87 2060.86,-283.91 1935.47,-287.64"/>
<polygon fill="#63b8ff" stroke="#63b8ff" points="1935.7,-284.13 1925.8,-287.92 1935.9,-291.13 1935.7,-284.13"/>
</a>
</g>
</g>
<!-- Node39&#45;&gt;Node3 -->
<g id="edge48_Node000039_Node000003" class="edge">
<title>Node39&#45;&gt;Node3</title>
<g id="a_edge48_Node000039_Node000003"><a xlink:title=" ">
<path fill="none" stroke="#63b8ff" d="M1998.01,-71.68C1973.48,-76.97 1940.07,-88.21 1920.88,-112 1883.99,-157.72 1886.28,-232.28 1886.42,-268.27"/>
<polygon fill="#63b8ff" stroke="#63b8ff" points="1882.92,-268.11 1886.31,-278.15 1889.92,-268.19 1882.92,-268.11"/>
</a>
</g>
</g>
<!-- Node39&#45;&gt;Node36 -->
<g id="edge50_Node000039_Node000036" class="edge">
<title>Node39&#45;&gt;Node36</title>
<g id="a_edge50_Node000039_Node000036"><a xlink:title=" ">
<path fill="none" stroke="#63b8ff" d="M2004.71,-55.59C1983.67,-47.05 1952.38,-34.35 1928.57,-24.68"/>
<polygon fill="#63b8ff" stroke="#63b8ff" points="1930.21,-21.57 1919.62,-21.05 1927.57,-28.05 1930.21,-21.57"/>
</a>
</g>
</g>
<!-- Node39&#45;&gt;Node37 -->
<g id="edge49_Node000039_Node000037" class="edge">
<title>Node39&#45;&gt;Node37</title>
<g id="a_edge49_Node000039_Node000037"><a xlink:title=" ">
<path fill="none" stroke="#63b8ff" d="M2057.49,-62.25C2149.22,-53.72 2429.82,-27.64 2551.54,-16.33"/>
<polygon fill="#63b8ff" stroke="#63b8ff" points="2551.67,-19.83 2561.31,-15.42 2551.02,-12.86 2551.67,-19.83"/>
</a>
</g>
</g>
<!-- Node40&#45;&gt;Node3 -->
<g id="edge52_Node000040_Node000003" class="edge">
<title>Node40&#45;&gt;Node3</title>
<g id="a_edge52_Node000040_Node000003"><a xlink:title=" ">
<path fill="none" stroke="#63b8ff" d="M2099.23,-132.4C2105.2,-155 2105.59,-212.82 2074.88,-244 2056.01,-263.15 1985.75,-276.32 1935.84,-283.25"/>
<polygon fill="#63b8ff" stroke="#63b8ff" points="1935.53,-279.76 1926.08,-284.56 1936.46,-286.7 1935.53,-279.76"/>
</a>
</g>
</g>
<!-- Node40&#45;&gt;Node39 -->
<g id="edge53_Node000040_Node000039" class="edge">
<title>Node40&#45;&gt;Node39</title>
<g id="a_edge53_Node000040_Node000039"><a xlink:title=" ">
<path fill="none" stroke="#63b8ff" d="M2082.38,-111.59C2072.91,-103.85 2059.27,-92.69 2048,-83.47"/>
<polygon fill="#63b8ff" stroke="#63b8ff" points="2050.37,-80.88 2040.41,-77.26 2045.93,-86.3 2050.37,-80.88"/>
</a>
</g>
</g>
</g>
</svg>

<g id="navigator" transform="translate(0 0)" fill="#404254">
  <rect fill="#f2f5e9" fill-opacity="0.5" stroke="#606060" stroke-width=".5" x="0" y="0" width="60" height="60"/>
  <use id="zoomplus" xlink:href="#zoomPlus" x="17" y="9" onmousedown="handleZoom(evt,'in')"/>
  <use id="zoomminus" xlink:href="#zoomMin" x="42" y="9" onmousedown="handleZoom(evt,'out')"/>
  <use id="reset" xlink:href="#resetDef" x="30" y="36" onmousedown="handleReset()"/>
   <use id="arrowup" xlink:href="#arrowUp" x="0" y="0" onmousedown="handlePan(0,-1)"/>
  <use id="arrowright" xlink:href="#arrowRight" x="0" y="0" onmousedown="handlePan(1,0)"/>
  <use id="arrowdown" xlink:href="#arrowDown" x="0" y="0" onmousedown="handlePan(0,1)"/>
  <use id="arrowleft" xlink:href="#arrowLeft" x="0" y="0" onmousedown="handlePan(-1,0)"/>
</g>
<svg viewBox="0 0 15 15" width="100%" height="30px" preserveAspectRatio="xMaxYMin meet">
 <g id="arrow_out" transform="scale(0.3 0.3)">
  <a xlink:href="_model_8cpp__incl_org.svg" target="_base">
   <rect id="button" ry="5" rx="5" y="6" x="6" height="38" width="38"
        fill="#f2f5e9" fill-opacity="0.5" stroke="#606060" stroke-width="1.0"/>
   <path id="arrow"
     d="M 11.500037,31.436501 C 11.940474,20.09759 22.043105,11.32322 32.158766,21.979434 L 37.068811,17.246167 C 37.068811,17.246167 37.088388,32 37.088388,32 L 22.160133,31.978069 C 22.160133,31.978069 26.997745,27.140456 26.997745,27.140456 C 18.528582,18.264221 13.291696,25.230495 11.500037,31.436501 z"
     style="fill:#404040;"/>
  </a>
 </g>
</svg>

<style type='text/css'>
<![CDATA[
[data-mouse-over-selected='false'] { opacity: 0.7; }
[data-mouse-over-selected='true']  { opacity: 1.0; }
]]>
</style>
<script type="application/ecmascript"><![CDATA[
document.addEventListener('DOMContentLoaded', (event) => {
  highlightEdges();
  highlightAdjacentNodes();
});
]]></script>
</svg>
