<?xml version="1.0" encoding="UTF-8" standalone="no"?>
<!DOCTYPE svg PUBLIC "-//W3C//DTD SVG 1.1//EN"
 "http://www.w3.org/Graphics/SVG/1.1/DTD/svg11.dtd">
<!-- Generated by graphviz version 9.0.0 (20230911.1827)
 -->
<!-- Title: src/RenderState.h Pages: 1 -->
<svg width="1585pt" height="364pt"
 viewBox="0.00 0.00 1585.49 364.00" xmlns="http://www.w3.org/2000/svg" xmlns:xlink="http://www.w3.org/1999/xlink">
<g id="graph0" class="graph" transform="scale(1 1) rotate(0) translate(4 360)">
<title>src/RenderState.h</title>
<!-- Node1 -->
<g id="Node000001" class="node">
<title>Node1</title>
<g id="a_Node000001"><a xlink:title=" ">
<polygon fill="#999999" stroke="#666666" points="718,-356 623.25,-356 623.25,-336 718,-336 718,-356"/>
<text text-anchor="middle" x="670.62" y="-342.5" font-family="Helvetica,sans-Serif" font-size="10.00">src/RenderState.h</text>
</a>
</g>
</g>
<!-- Node2 -->
<g id="Node000002" class="node">
<title>Node2</title>
<g id="a_Node000002"><a xlink:href="_direct_x_manager_8h.html" target="_top" xlink:title=" ">
<polygon fill="white" stroke="#666666" points="829.12,-300 720.12,-300 720.12,-280 829.12,-280 829.12,-300"/>
<text text-anchor="middle" x="774.62" y="-286.5" font-family="Helvetica,sans-Serif" font-size="10.00">src/DirectXManager.h</text>
</a>
</g>
</g>
<!-- Node1&#45;&gt;Node2 -->
<g id="edge1_Node000001_Node000002" class="edge">
<title>Node1&#45;&gt;Node2</title>
<g id="a_edge1_Node000001_Node000002"><a xlink:title=" ">
<path fill="none" stroke="#63b8ff" d="M698.85,-330.35C717.15,-320.84 740.46,-308.74 756.37,-300.48"/>
<polygon fill="#63b8ff" stroke="#63b8ff" points="697.35,-327.18 690.08,-334.9 700.57,-333.39 697.35,-327.18"/>
</a>
</g>
</g>
<!-- Node4 -->
<g id="Node000004" class="node">
<title>Node4</title>
<g id="a_Node000004"><a xlink:href="_game_engine_8h.html" target="_top" xlink:title=" ">
<polygon fill="white" stroke="#666666" points="719.12,-244 622.12,-244 622.12,-224 719.12,-224 719.12,-244"/>
<text text-anchor="middle" x="670.62" y="-230.5" font-family="Helvetica,sans-Serif" font-size="10.00">src/GameEngine.h</text>
</a>
</g>
</g>
<!-- Node1&#45;&gt;Node4 -->
<g id="edge59_Node000001_Node000004" class="edge">
<title>Node1&#45;&gt;Node4</title>
<g id="a_edge59_Node000001_Node000004"><a xlink:title=" ">
<path fill="none" stroke="#63b8ff" d="M665.21,-324.31C663.04,-300.36 663.51,-261.95 666.65,-244.35"/>
<polygon fill="#63b8ff" stroke="#63b8ff" points="661.73,-324.64 666.46,-334.12 668.67,-323.76 661.73,-324.64"/>
</a>
</g>
</g>
<!-- Node13 -->
<g id="Node000013" class="node">
<title>Node13</title>
<g id="a_Node000013"><a xlink:href="_material_8h.html" target="_top" xlink:title=" ">
<polygon fill="white" stroke="#666666" points="75.25,-132 0,-132 0,-112 75.25,-112 75.25,-132"/>
<text text-anchor="middle" x="37.62" y="-118.5" font-family="Helvetica,sans-Serif" font-size="10.00">src/Material.h</text>
</a>
</g>
</g>
<!-- Node1&#45;&gt;Node13 -->
<g id="edge60_Node000001_Node000013" class="edge">
<title>Node1&#45;&gt;Node13</title>
<g id="a_edge60_Node000001_Node000013"><a xlink:title=" ">
<path fill="none" stroke="#63b8ff" d="M611.41,-335.86C521.27,-321.16 344.76,-289.25 199.62,-244 137.61,-224.67 110.57,-233.92 64.62,-188 48.9,-172.28 41.88,-146.06 39.15,-132.21"/>
<polygon fill="#63b8ff" stroke="#63b8ff" points="610.83,-339.32 621.26,-337.46 611.95,-332.41 610.83,-339.32"/>
</a>
</g>
</g>
<!-- Node25 -->
<g id="Node000025" class="node">
<title>Node25</title>
<g id="a_Node000025"><a xlink:href="_render_state_8cpp.html" target="_top" xlink:title=" ">
<polygon fill="white" stroke="#666666" points="1474.25,-132 1369,-132 1369,-112 1474.25,-112 1474.25,-132"/>
<text text-anchor="middle" x="1421.62" y="-118.5" font-family="Helvetica,sans-Serif" font-size="10.00">src/RenderState.cpp</text>
</a>
</g>
</g>
<!-- Node1&#45;&gt;Node25 -->
<g id="edge61_Node000001_Node000025" class="edge">
<title>Node1&#45;&gt;Node25</title>
<g id="a_edge61_Node000001_Node000025"><a xlink:title=" ">
<path fill="none" stroke="#63b8ff" d="M717.73,-332.72C751.25,-323.89 797.29,-311.54 837.62,-300 1050.75,-239 1305.65,-159.47 1391.63,-132.45"/>
<polygon fill="#63b8ff" stroke="#63b8ff" points="717.12,-329.27 708.34,-335.19 718.9,-336.04 717.12,-329.27"/>
</a>
</g>
</g>
<!-- Node3 -->
<g id="Node000003" class="node">
<title>Node3</title>
<g id="a_Node000003"><a xlink:href="_direct_x_manager_8cpp.html" target="_top" xlink:title=" ">
<polygon fill="white" stroke="#666666" points="1351.38,-132 1231.88,-132 1231.88,-112 1351.38,-112 1351.38,-132"/>
<text text-anchor="middle" x="1291.62" y="-118.5" font-family="Helvetica,sans-Serif" font-size="10.00">src/DirectXManager.cpp</text>
</a>
</g>
</g>
<!-- Node2&#45;&gt;Node3 -->
<g id="edge2_Node000002_Node000003" class="edge">
<title>Node2&#45;&gt;Node3</title>
<g id="a_edge2_Node000002_Node000003"><a xlink:title=" ">
<path fill="none" stroke="#63b8ff" d="M814.77,-276.11C915.07,-243.91 1174.83,-160.5 1262.35,-132.4"/>
<polygon fill="#63b8ff" stroke="#63b8ff" points="813.79,-272.75 805.34,-279.14 815.93,-279.41 813.79,-272.75"/>
</a>
</g>
</g>
<!-- Node2&#45;&gt;Node4 -->
<g id="edge3_Node000002_Node000004" class="edge">
<title>Node2&#45;&gt;Node4</title>
<g id="a_edge3_Node000002_Node000004"><a xlink:title=" ">
<path fill="none" stroke="#63b8ff" d="M740.87,-274.61C721.34,-265.07 698,-252.81 683.6,-244.48"/>
<polygon fill="#63b8ff" stroke="#63b8ff" points="739.35,-277.77 749.88,-278.94 742.38,-271.46 739.35,-277.77"/>
</a>
</g>
</g>
<!-- Node22 -->
<g id="Node000022" class="node">
<title>Node22</title>
<g id="a_Node000022"><a xlink:href="_win32_application_8h.html" target="_top" xlink:title=" ">
<polygon fill="white" stroke="#666666" points="654.88,-188 538.38,-188 538.38,-168 654.88,-168 654.88,-188"/>
<text text-anchor="middle" x="596.62" y="-174.5" font-family="Helvetica,sans-Serif" font-size="10.00">src/Win32Application.h</text>
</a>
</g>
</g>
<!-- Node2&#45;&gt;Node22 -->
<g id="edge58_Node000002_Node000022" class="edge">
<title>Node2&#45;&gt;Node22</title>
<g id="a_edge58_Node000002_Node000022"><a xlink:title=" ">
<path fill="none" stroke="#63b8ff" d="M764.93,-269.73C756.78,-255.29 743.85,-236.03 727.62,-224 703.77,-206.32 672.44,-195.22 646.4,-188.47"/>
<polygon fill="#63b8ff" stroke="#63b8ff" points="761.71,-271.12 769.51,-278.29 767.89,-267.82 761.71,-271.12"/>
</a>
</g>
</g>
<!-- Node4&#45;&gt;Node1 -->
<g id="edge30_Node000004_Node000001" class="edge">
<title>Node4&#45;&gt;Node1</title>
<g id="a_edge30_Node000004_Node000001"><a xlink:title=" ">
<path fill="none" stroke="#63b8ff" d="M676.03,-255.65C678.21,-279.59 677.74,-318.01 674.6,-335.62"/>
<polygon fill="#63b8ff" stroke="#63b8ff" points="679.52,-255.34 674.79,-245.86 672.58,-256.22 679.52,-255.34"/>
</a>
</g>
</g>
<!-- Node4&#45;&gt;Node2 -->
<g id="edge8_Node000004_Node000002" class="edge">
<title>Node4&#45;&gt;Node2</title>
<g id="a_edge8_Node000004_Node000002"><a xlink:title=" ">
<path fill="none" stroke="#63b8ff" d="M704.28,-249.34C723.88,-258.92 747.37,-271.24 761.78,-279.59"/>
<polygon fill="#63b8ff" stroke="#63b8ff" points="706.06,-246.31 695.53,-245.13 703.03,-252.62 706.06,-246.31"/>
</a>
</g>
</g>
<!-- Node5 -->
<g id="Node000005" class="node">
<title>Node5</title>
<g id="a_Node000005"><a xlink:href="_camera_8h.html" target="_top" xlink:title=" ">
<polygon fill="white" stroke="#666666" points="822.88,-188 748.38,-188 748.38,-168 822.88,-168 822.88,-188"/>
<text text-anchor="middle" x="785.62" y="-174.5" font-family="Helvetica,sans-Serif" font-size="10.00">src/Camera.h</text>
</a>
</g>
</g>
<!-- Node4&#45;&gt;Node5 -->
<g id="edge4_Node000004_Node000005" class="edge">
<title>Node4&#45;&gt;Node5</title>
<g id="a_edge4_Node000004_Node000005"><a xlink:title=" ">
<path fill="none" stroke="#63b8ff" d="M695.48,-218.48C714.64,-208.96 740.84,-196.78 760.16,-188.48"/>
<polygon fill="#63b8ff" stroke="#63b8ff" points="694.08,-215.27 686.74,-222.91 697.24,-221.51 694.08,-215.27"/>
</a>
</g>
</g>
<!-- Node7 -->
<g id="Node000007" class="node">
<title>Node7</title>
<g id="a_Node000007"><a xlink:href="_game_engine_8cpp.html" target="_top" xlink:title=" ">
<polygon fill="white" stroke="#666666" points="393.38,-132 285.88,-132 285.88,-112 393.38,-112 393.38,-132"/>
<text text-anchor="middle" x="339.62" y="-118.5" font-family="Helvetica,sans-Serif" font-size="10.00">src/GameEngine.cpp</text>
</a>
</g>
</g>
<!-- Node4&#45;&gt;Node7 -->
<g id="edge9_Node000004_Node000007" class="edge">
<title>Node4&#45;&gt;Node7</title>
<g id="a_edge9_Node000004_Node000007"><a xlink:title=" ">
<path fill="none" stroke="#63b8ff" d="M610.56,-229.73C559.51,-225.17 485.24,-214.23 425.62,-188 394.1,-174.13 363.47,-146.62 348.73,-132.24"/>
<polygon fill="#63b8ff" stroke="#63b8ff" points="609.96,-233.2 620.22,-230.54 610.54,-226.22 609.96,-233.2"/>
</a>
</g>
</g>
<!-- Node8 -->
<g id="Node000008" class="node">
<title>Node8</title>
<g id="a_Node000008"><a xlink:href="_graphics_device_8h.html" target="_top" xlink:title=" ">
<polygon fill="white" stroke="#666666" points="948.75,-188 840.5,-188 840.5,-168 948.75,-168 948.75,-188"/>
<text text-anchor="middle" x="894.62" y="-174.5" font-family="Helvetica,sans-Serif" font-size="10.00">src/GraphicsDevice.h</text>
</a>
</g>
</g>
<!-- Node4&#45;&gt;Node8 -->
<g id="edge10_Node000004_Node000008" class="edge">
<title>Node4&#45;&gt;Node8</title>
<g id="a_edge10_Node000004_Node000008"><a xlink:title=" ">
<path fill="none" stroke="#63b8ff" d="M715.43,-220.81C754.56,-211.02 810.94,-197.47 850.02,-188.48"/>
<polygon fill="#63b8ff" stroke="#63b8ff" points="714.69,-217.39 705.84,-223.22 716.4,-224.18 714.69,-217.39"/>
</a>
</g>
</g>
<!-- Node10 -->
<g id="Node000010" class="node">
<title>Node10</title>
<g id="a_Node000010"><a xlink:href="_mesh_8h.html" target="_top" xlink:title=" ">
<polygon fill="white" stroke="#666666" points="1557,-132 1492.25,-132 1492.25,-112 1557,-112 1557,-132"/>
<text text-anchor="middle" x="1524.62" y="-118.5" font-family="Helvetica,sans-Serif" font-size="10.00">src/Mesh.h</text>
</a>
</g>
</g>
<!-- Node4&#45;&gt;Node10 -->
<g id="edge28_Node000004_Node000010" class="edge">
<title>Node4&#45;&gt;Node10</title>
<g id="a_edge28_Node000004_Node000010"><a xlink:title=" ">
<path fill="none" stroke="#63b8ff" d="M730.42,-227.37C864.4,-214.81 1198.15,-181.67 1474.62,-132 1480.22,-130.99 1486.21,-129.77 1492.09,-128.54"/>
<polygon fill="#63b8ff" stroke="#63b8ff" points="730.36,-223.86 720.72,-228.27 731.01,-230.83 730.36,-223.86"/>
</a>
</g>
</g>
<!-- Node4&#45;&gt;Node13 -->
<g id="edge19_Node000004_Node000013" class="edge">
<title>Node4&#45;&gt;Node13</title>
<g id="a_edge19_Node000004_Node000013"><a xlink:title=" ">
<path fill="none" stroke="#63b8ff" d="M610.64,-230.24C531.67,-225.59 389.27,-214 270.62,-188 242.76,-181.89 237.04,-175.89 209.62,-168 162.17,-154.34 107.02,-140.99 72.09,-132.42"/>
<polygon fill="#63b8ff" stroke="#63b8ff" points="610.13,-233.72 620.31,-230.8 610.53,-226.73 610.13,-233.72"/>
</a>
</g>
</g>
<!-- Node15 -->
<g id="Node000015" class="node">
<title>Node15</title>
<g id="a_Node000015"><a xlink:href="_model_8h.html" target="_top" xlink:title=" ">
<polygon fill="white" stroke="#666666" points="546.12,-76 479.12,-76 479.12,-56 546.12,-56 546.12,-76"/>
<text text-anchor="middle" x="512.62" y="-62.5" font-family="Helvetica,sans-Serif" font-size="10.00">src/Model.h</text>
</a>
</g>
</g>
<!-- Node4&#45;&gt;Node15 -->
<g id="edge29_Node000004_Node000015" class="edge">
<title>Node4&#45;&gt;Node15</title>
<g id="a_edge29_Node000004_Node000015"><a xlink:title=" ">
<path fill="none" stroke="#63b8ff" d="M610.62,-228.04C507.18,-217.66 303.27,-189.68 267.62,-132 262.95,-124.44 261.96,-118.85 267.62,-112 293.62,-80.59 417.54,-70.91 478.68,-68.09"/>
<polygon fill="#63b8ff" stroke="#63b8ff" points="610.02,-231.5 620.31,-228.99 610.7,-224.53 610.02,-231.5"/>
</a>
</g>
</g>
<!-- Node16 -->
<g id="Node000016" class="node">
<title>Node16</title>
<g id="a_Node000016"><a xlink:href="_scene_8h.html" target="_top" xlink:title=" ">
<polygon fill="white" stroke="#666666" points="502.88,-188 434.38,-188 434.38,-168 502.88,-168 502.88,-188"/>
<text text-anchor="middle" x="468.62" y="-174.5" font-family="Helvetica,sans-Serif" font-size="10.00">src/Scene.h</text>
</a>
</g>
</g>
<!-- Node4&#45;&gt;Node16 -->
<g id="edge31_Node000004_Node000016" class="edge">
<title>Node4&#45;&gt;Node16</title>
<g id="a_edge31_Node000004_Node000016"><a xlink:title=" ">
<path fill="none" stroke="#63b8ff" d="M624.46,-220.66C587.51,-210.78 536.52,-197.15 503.07,-188.21"/>
<polygon fill="#63b8ff" stroke="#63b8ff" points="623.41,-224 633.98,-223.2 625.22,-217.24 623.41,-224"/>
</a>
</g>
</g>
<!-- Node18 -->
<g id="Node000018" class="node">
<title>Node18</title>
<g id="a_Node000018"><a xlink:href="_shader_manager_8h.html" target="_top" xlink:title=" ">
<polygon fill="white" stroke="#666666" points="1076.12,-188 967.12,-188 967.12,-168 1076.12,-168 1076.12,-188"/>
<text text-anchor="middle" x="1021.62" y="-174.5" font-family="Helvetica,sans-Serif" font-size="10.00">src/ShaderManager.h</text>
</a>
</g>
</g>
<!-- Node4&#45;&gt;Node18 -->
<g id="edge33_Node000004_Node000018" class="edge">
<title>Node4&#45;&gt;Node18</title>
<g id="a_edge33_Node000004_Node000018"><a xlink:title=" ">
<path fill="none" stroke="#63b8ff" d="M730.52,-223.79C796.81,-213.59 902.74,-197.29 966.89,-187.42"/>
<polygon fill="#63b8ff" stroke="#63b8ff" points="730.28,-220.28 720.93,-225.26 731.34,-227.2 730.28,-220.28"/>
</a>
</g>
</g>
<!-- Node20 -->
<g id="Node000020" class="node">
<title>Node20</title>
<g id="a_Node000020"><a xlink:href="_shader_program_8h.html" target="_top" xlink:title=" ">
<polygon fill="white" stroke="#666666" points="209.75,-188 101.5,-188 101.5,-168 209.75,-168 209.75,-188"/>
<text text-anchor="middle" x="155.62" y="-174.5" font-family="Helvetica,sans-Serif" font-size="10.00">src/ShaderProgram.h</text>
</a>
</g>
</g>
<!-- Node4&#45;&gt;Node20 -->
<g id="edge36_Node000004_Node000020" class="edge">
<title>Node4&#45;&gt;Node20</title>
<g id="a_edge36_Node000004_Node000020"><a xlink:title=" ">
<path fill="none" stroke="#63b8ff" d="M610.54,-228.08C523.08,-220.34 356.05,-204.47 214.62,-188 213.09,-187.82 211.53,-187.64 209.96,-187.45"/>
<polygon fill="#63b8ff" stroke="#63b8ff" points="610.06,-231.55 620.33,-228.94 610.67,-224.58 610.06,-231.55"/>
</a>
</g>
</g>
<!-- Node4&#45;&gt;Node22 -->
<g id="edge41_Node000004_Node000022" class="edge">
<title>Node4&#45;&gt;Node22</title>
<g id="a_edge41_Node000004_Node000022"><a xlink:title=" ">
<path fill="none" stroke="#63b8ff" d="M643.21,-217.5C629.27,-208.06 613.49,-196.32 604.12,-188.3"/>
<polygon fill="#63b8ff" stroke="#63b8ff" points="640.93,-220.19 651.2,-222.76 644.78,-214.34 640.93,-220.19"/>
</a>
</g>
</g>
<!-- Node24 -->
<g id="Node000024" class="node">
<title>Node24</title>
<g id="a_Node000024"><a xlink:href="pch_8h.html" target="_top" xlink:title=" ">
<polygon fill="white" stroke="#666666" points="729.88,-188 673.38,-188 673.38,-168 729.88,-168 729.88,-188"/>
<text text-anchor="middle" x="701.62" y="-174.5" font-family="Helvetica,sans-Serif" font-size="10.00">src/pch.h</text>
</a>
</g>
</g>
<!-- Node4&#45;&gt;Node24 -->
<g id="edge44_Node000004_Node000024" class="edge">
<title>Node4&#45;&gt;Node24</title>
<g id="a_edge44_Node000004_Node000024"><a xlink:title=" ">
<path fill="none" stroke="#63b8ff" d="M681.61,-213.87C686.59,-205.19 692.26,-195.32 696.29,-188.3"/>
<polygon fill="#63b8ff" stroke="#63b8ff" points="678.72,-211.87 676.78,-222.28 684.79,-215.35 678.72,-211.87"/>
</a>
</g>
</g>
<!-- Node5&#45;&gt;Node2 -->
<g id="edge6_Node000005_Node000002" class="edge">
<title>Node5&#45;&gt;Node2</title>
<g id="a_edge6_Node000005_Node000002"><a xlink:title=" ">
<path fill="none" stroke="#63b8ff" d="M783.56,-199.65C781.17,-223.59 777.32,-262.01 775.56,-279.62"/>
<polygon fill="#63b8ff" stroke="#63b8ff" points="787.03,-200.16 784.54,-189.86 780.06,-199.46 787.03,-200.16"/>
</a>
</g>
</g>
<!-- Node5&#45;&gt;Node4 -->
<g id="edge7_Node000005_Node000004" class="edge">
<title>Node5&#45;&gt;Node4</title>
<g id="a_edge7_Node000005_Node000004"><a xlink:title=" ">
<path fill="none" stroke="#63b8ff" d="M760.6,-193.6C741.4,-203.14 715.2,-215.32 695.92,-223.59"/>
<polygon fill="#63b8ff" stroke="#63b8ff" points="762.03,-196.8 769.37,-189.16 758.87,-190.56 762.03,-196.8"/>
</a>
</g>
</g>
<!-- Node6 -->
<g id="Node000006" class="node">
<title>Node6</title>
<g id="a_Node000006"><a xlink:href="_camera_8cpp.html" target="_top" xlink:title=" ">
<polygon fill="white" stroke="#666666" points="939.12,-132 854.12,-132 854.12,-112 939.12,-112 939.12,-132"/>
<text text-anchor="middle" x="896.62" y="-118.5" font-family="Helvetica,sans-Serif" font-size="10.00">src/Camera.cpp</text>
</a>
</g>
</g>
<!-- Node5&#45;&gt;Node6 -->
<g id="edge5_Node000005_Node000006" class="edge">
<title>Node5&#45;&gt;Node6</title>
<g id="a_edge5_Node000005_Node000006"><a xlink:title=" ">
<path fill="none" stroke="#63b8ff" d="M815.2,-162.61C834.82,-153.07 860.01,-140.81 877.14,-132.48"/>
<polygon fill="#63b8ff" stroke="#63b8ff" points="813.78,-159.41 806.32,-166.93 816.84,-165.7 813.78,-159.41"/>
</a>
</g>
</g>
<!-- Node8&#45;&gt;Node2 -->
<g id="edge11_Node000008_Node000002" class="edge">
<title>Node8&#45;&gt;Node2</title>
<g id="a_edge11_Node000008_Node000002"><a xlink:title=" ">
<path fill="none" stroke="#63b8ff" d="M875.94,-196.13C850.28,-219.65 805.05,-261.11 784.86,-279.62"/>
<polygon fill="#63b8ff" stroke="#63b8ff" points="878.3,-198.71 883.3,-189.38 873.57,-193.55 878.3,-198.71"/>
</a>
</g>
</g>
<!-- Node8&#45;&gt;Node4 -->
<g id="edge12_Node000008_Node000004" class="edge">
<title>Node8&#45;&gt;Node4</title>
<g id="a_edge12_Node000008_Node000004"><a xlink:title=" ">
<path fill="none" stroke="#63b8ff" d="M849.61,-191.24C810.47,-201.03 754.19,-214.56 715.18,-223.53"/>
<polygon fill="#63b8ff" stroke="#63b8ff" points="850.36,-194.66 859.21,-188.83 848.65,-187.87 850.36,-194.66"/>
</a>
</g>
</g>
<!-- Node9 -->
<g id="Node000009" class="node">
<title>Node9</title>
<g id="a_Node000009"><a xlink:href="_graphics_device_8cpp.html" target="_top" xlink:title=" ">
<polygon fill="white" stroke="#666666" points="1076,-132 957.25,-132 957.25,-112 1076,-112 1076,-132"/>
<text text-anchor="middle" x="1016.62" y="-118.5" font-family="Helvetica,sans-Serif" font-size="10.00">src/GraphicsDevice.cpp</text>
</a>
</g>
</g>
<!-- Node8&#45;&gt;Node9 -->
<g id="edge13_Node000008_Node000009" class="edge">
<title>Node8&#45;&gt;Node9</title>
<g id="a_edge13_Node000008_Node000009"><a xlink:title=" ">
<path fill="none" stroke="#63b8ff" d="M926.23,-163.01C947.92,-153.41 976.12,-140.93 995.21,-132.48"/>
<polygon fill="#63b8ff" stroke="#63b8ff" points="924.99,-159.73 917.26,-166.98 927.82,-166.13 924.99,-159.73"/>
</a>
</g>
</g>
<!-- Node8&#45;&gt;Node10 -->
<g id="edge14_Node000008_Node000010" class="edge">
<title>Node8&#45;&gt;Node10</title>
<g id="a_edge14_Node000008_Node000010"><a xlink:title=" ">
<path fill="none" stroke="#63b8ff" d="M960.42,-167.79C1192.6,-144.08 1255.29,-164.69 1483.62,-132 1486.37,-131.61 1489.2,-131.13 1492.03,-130.61"/>
<polygon fill="#63b8ff" stroke="#63b8ff" points="960.32,-164.28 950.74,-168.79 961.04,-171.24 960.32,-164.28"/>
</a>
</g>
</g>
<!-- Node10&#45;&gt;Node2 -->
<g id="edge15_Node000010_Node000002" class="edge">
<title>Node10&#45;&gt;Node2</title>
<g id="a_edge15_Node000010_Node000002"><a xlink:title=" ">
<path fill="none" stroke="#63b8ff" d="M1480.93,-132.67C1347.92,-162.11 949.09,-250.38 817.37,-279.54"/>
<polygon fill="#63b8ff" stroke="#63b8ff" points="1481.38,-136.16 1490.39,-130.58 1479.87,-129.32 1481.38,-136.16"/>
</a>
</g>
</g>
<!-- Node10&#45;&gt;Node4 -->
<g id="edge16_Node000010_Node000004" class="edge">
<title>Node10&#45;&gt;Node4</title>
<g id="a_edge16_Node000010_Node000004"><a xlink:title=" ">
<path fill="none" stroke="#63b8ff" d="M1480.67,-134.13C1192.16,-185.17 845.83,-218.36 719.58,-229.16"/>
<polygon fill="#63b8ff" stroke="#63b8ff" points="1481.05,-137.62 1490.28,-132.42 1479.82,-130.73 1481.05,-137.62"/>
</a>
</g>
</g>
<!-- Node11 -->
<g id="Node000011" class="node">
<title>Node11</title>
<g id="a_Node000011"><a xlink:href="_mesh_8cpp.html" target="_top" xlink:title=" ">
<polygon fill="white" stroke="#666666" points="863.25,-20 788,-20 788,0 863.25,0 863.25,-20"/>
<text text-anchor="middle" x="825.62" y="-6.5" font-family="Helvetica,sans-Serif" font-size="10.00">src/Mesh.cpp</text>
</a>
</g>
</g>
<!-- Node10&#45;&gt;Node11 -->
<g id="edge17_Node000010_Node000011" class="edge">
<title>Node10&#45;&gt;Node11</title>
<g id="a_edge17_Node000010_Node000011"><a xlink:title=" ">
<path fill="none" stroke="#63b8ff" d="M1480.93,-111.58C1240.44,-67.12 963.22,-29.18 863.6,-15.97"/>
<polygon fill="#63b8ff" stroke="#63b8ff" points="1480.03,-114.98 1490.5,-113.36 1481.31,-108.1 1480.03,-114.98"/>
</a>
</g>
</g>
<!-- Node12 -->
<g id="Node000012" class="node">
<title>Node12</title>
<g id="a_Node000012"><a xlink:href="_model_8cpp.html" target="_top" xlink:title=" ">
<polygon fill="white" stroke="#666666" points="740.38,-20 662.88,-20 662.88,0 740.38,0 740.38,-20"/>
<text text-anchor="middle" x="701.62" y="-6.5" font-family="Helvetica,sans-Serif" font-size="10.00">src/Model.cpp</text>
</a>
</g>
</g>
<!-- Node10&#45;&gt;Node12 -->
<g id="edge18_Node000010_Node000012" class="edge">
<title>Node10&#45;&gt;Node12</title>
<g id="a_edge18_Node000010_Node000012"><a xlink:title=" ">
<path fill="none" stroke="#63b8ff" d="M1481.03,-111.72C1337.45,-88.57 1298.14,-93.89 1156.62,-76 1002.45,-56.51 819.53,-29.05 740.82,-17.03"/>
<polygon fill="#63b8ff" stroke="#63b8ff" points="1480.08,-115.11 1490.52,-113.27 1481.21,-108.2 1480.08,-115.11"/>
</a>
</g>
</g>
<!-- Node13&#45;&gt;Node2 -->
<g id="edge20_Node000013_Node000002" class="edge">
<title>Node13&#45;&gt;Node2</title>
<g id="a_edge20_Node000013_Node000002"><a xlink:title=" ">
<path fill="none" stroke="#63b8ff" d="M48.6,-142.1C58.23,-157.05 73.66,-177.08 92.62,-188 199.65,-249.64 577.34,-277.54 719.74,-286.03"/>
<polygon fill="#63b8ff" stroke="#63b8ff" points="51.62,-140.32 43.42,-133.6 45.64,-143.96 51.62,-140.32"/>
</a>
</g>
</g>
<!-- Node13&#45;&gt;Node4 -->
<g id="edge21_Node000013_Node000004" class="edge">
<title>Node13&#45;&gt;Node4</title>
<g id="a_edge21_Node000013_Node000004"><a xlink:title=" ">
<path fill="none" stroke="#63b8ff" d="M86.67,-132.51C125.39,-141.08 180.33,-154.39 227.62,-168 255.04,-175.89 260.76,-181.89 288.62,-188 406.77,-213.89 548.46,-225.49 621.68,-230.18"/>
<polygon fill="#63b8ff" stroke="#63b8ff" points="87.7,-129.15 77.18,-130.43 86.2,-135.99 87.7,-129.15"/>
</a>
</g>
</g>
<!-- Node14 -->
<g id="Node000014" class="node">
<title>Node14</title>
<g id="a_Node000014"><a xlink:href="_material_8cpp.html" target="_top" xlink:title=" ">
<polygon fill="white" stroke="#666666" points="207.5,-76 121.75,-76 121.75,-56 207.5,-56 207.5,-76"/>
<text text-anchor="middle" x="164.62" y="-62.5" font-family="Helvetica,sans-Serif" font-size="10.00">src/Material.cpp</text>
</a>
</g>
</g>
<!-- Node13&#45;&gt;Node14 -->
<g id="edge22_Node000013_Node000014" class="edge">
<title>Node13&#45;&gt;Node14</title>
<g id="a_edge22_Node000013_Node000014"><a xlink:title=" ">
<path fill="none" stroke="#63b8ff" d="M70.22,-107.14C92.84,-97.52 122.37,-84.97 142.33,-76.48"/>
<polygon fill="#63b8ff" stroke="#63b8ff" points="68.97,-103.87 61.14,-111 71.71,-110.31 68.97,-103.87"/>
</a>
</g>
</g>
<!-- Node13&#45;&gt;Node15 -->
<g id="edge23_Node000013_Node000015" class="edge">
<title>Node13&#45;&gt;Node15</title>
<g id="a_edge23_Node000013_Node000015"><a xlink:title=" ">
<path fill="none" stroke="#63b8ff" d="M86.48,-111.85C238.77,-89.69 407.78,-75.21 478.66,-69.59"/>
<polygon fill="#63b8ff" stroke="#63b8ff" points="86.42,-108.32 77.04,-113.23 87.44,-115.24 86.42,-108.32"/>
</a>
</g>
</g>
<!-- Node15&#45;&gt;Node2 -->
<g id="edge24_Node000015_Node000002" class="edge">
<title>Node15&#45;&gt;Node2</title>
<g id="a_edge24_Node000015_Node000002"><a xlink:title=" ">
<path fill="none" stroke="#63b8ff" d="M557.69,-67.21C754.48,-68.33 1530.27,-75.1 1565.62,-112 1671.62,-222.63 1025.01,-273.12 829.42,-285.74"/>
<polygon fill="#63b8ff" stroke="#63b8ff" points="557.9,-63.71 547.88,-67.15 557.86,-70.71 557.9,-63.71"/>
</a>
</g>
</g>
<!-- Node15&#45;&gt;Node4 -->
<g id="edge25_Node000015_Node000004" class="edge">
<title>Node15&#45;&gt;Node4</title>
<g id="a_edge25_Node000015_Node000004"><a xlink:title=" ">
<path fill="none" stroke="#63b8ff" d="M467.73,-69.36C408.28,-73.43 308.62,-84.21 285.62,-112 279.96,-118.85 280.95,-124.44 285.62,-132 321.36,-189.82 526.13,-217.79 621.69,-228.11"/>
<polygon fill="#63b8ff" stroke="#63b8ff" points="467.79,-72.86 477.54,-68.73 467.34,-65.88 467.79,-72.86"/>
</a>
</g>
</g>
<!-- Node15&#45;&gt;Node11 -->
<g id="edge26_Node000015_Node000011" class="edge">
<title>Node15&#45;&gt;Node11</title>
<g id="a_edge26_Node000015_Node000011"><a xlink:title=" ">
<path fill="none" stroke="#63b8ff" d="M557.75,-57.21C619.63,-46.54 729.7,-27.55 787.6,-17.56"/>
<polygon fill="#63b8ff" stroke="#63b8ff" points="557.17,-53.76 547.91,-58.91 558.36,-60.66 557.17,-53.76"/>
</a>
</g>
</g>
<!-- Node15&#45;&gt;Node12 -->
<g id="edge27_Node000015_Node000012" class="edge">
<title>Node15&#45;&gt;Node12</title>
<g id="a_edge27_Node000015_Node000012"><a xlink:title=" ">
<path fill="none" stroke="#63b8ff" d="M556.61,-52.43C590.76,-42.67 637.38,-29.35 668.45,-20.48"/>
<polygon fill="#63b8ff" stroke="#63b8ff" points="555.66,-49.07 547,-55.18 557.58,-55.8 555.66,-49.07"/>
</a>
</g>
</g>
<!-- Node17 -->
<g id="Node000017" class="node">
<title>Node17</title>
<g id="a_Node000017"><a xlink:href="_scene_8cpp.html" target="_top" xlink:title=" ">
<polygon fill="white" stroke="#666666" points="490.12,-132 411.12,-132 411.12,-112 490.12,-112 490.12,-132"/>
<text text-anchor="middle" x="450.62" y="-118.5" font-family="Helvetica,sans-Serif" font-size="10.00">src/Scene.cpp</text>
</a>
</g>
</g>
<!-- Node16&#45;&gt;Node17 -->
<g id="edge32_Node000016_Node000017" class="edge">
<title>Node16&#45;&gt;Node17</title>
<g id="a_edge32_Node000016_Node000017"><a xlink:title=" ">
<path fill="none" stroke="#63b8ff" d="M461.86,-156.71C459.07,-148.32 455.96,-139.01 453.72,-132.3"/>
<polygon fill="#63b8ff" stroke="#63b8ff" points="458.53,-157.78 465.01,-166.16 465.17,-155.56 458.53,-157.78"/>
</a>
</g>
</g>
<!-- Node18&#45;&gt;Node2 -->
<g id="edge34_Node000018_Node000002" class="edge">
<title>Node18&#45;&gt;Node2</title>
<g id="a_edge34_Node000018_Node000002"><a xlink:title=" ">
<path fill="none" stroke="#63b8ff" d="M990.19,-193C939.04,-215.78 839.16,-260.26 795.68,-279.62"/>
<polygon fill="#63b8ff" stroke="#63b8ff" points="991.53,-196.24 999.24,-188.97 988.68,-189.84 991.53,-196.24"/>
</a>
</g>
</g>
<!-- Node19 -->
<g id="Node000019" class="node">
<title>Node19</title>
<g id="a_Node000019"><a xlink:href="_shader_manager_8cpp.html" target="_top" xlink:title=" ">
<polygon fill="white" stroke="#666666" points="1213.38,-132 1093.88,-132 1093.88,-112 1213.38,-112 1213.38,-132"/>
<text text-anchor="middle" x="1153.62" y="-118.5" font-family="Helvetica,sans-Serif" font-size="10.00">src/ShaderManager.cpp</text>
</a>
</g>
</g>
<!-- Node18&#45;&gt;Node19 -->
<g id="edge35_Node000018_Node000019" class="edge">
<title>Node18&#45;&gt;Node19</title>
<g id="a_edge35_Node000018_Node000019"><a xlink:title=" ">
<path fill="none" stroke="#63b8ff" d="M1055.18,-163.27C1078.73,-153.64 1109.61,-141.01 1130.45,-132.48"/>
<polygon fill="#63b8ff" stroke="#63b8ff" points="1053.95,-160 1046.02,-167.02 1056.6,-166.47 1053.95,-160"/>
</a>
</g>
</g>
<!-- Node20&#45;&gt;Node2 -->
<g id="edge37_Node000020_Node000002" class="edge">
<title>Node20&#45;&gt;Node2</title>
<g id="a_edge37_Node000020_Node000002"><a xlink:title=" ">
<path fill="none" stroke="#63b8ff" d="M220.1,-190.46C342.82,-212.26 607.85,-259.36 721.31,-279.53"/>
<polygon fill="#63b8ff" stroke="#63b8ff" points="220.98,-187.06 210.52,-188.75 219.75,-193.95 220.98,-187.06"/>
</a>
</g>
</g>
<!-- Node20&#45;&gt;Node4 -->
<g id="edge38_Node000020_Node000004" class="edge">
<title>Node20&#45;&gt;Node4</title>
<g id="a_edge38_Node000020_Node000004"><a xlink:title=" ">
<path fill="none" stroke="#63b8ff" d="M221.55,-186.67C225.3,-187.13 229.02,-187.58 232.62,-188 374.01,-204.47 540.98,-220.33 621.95,-228.07"/>
<polygon fill="#63b8ff" stroke="#63b8ff" points="222.06,-183.21 211.7,-185.44 221.19,-190.15 222.06,-183.21"/>
</a>
</g>
</g>
<!-- Node20&#45;&gt;Node13 -->
<g id="edge39_Node000020_Node000013" class="edge">
<title>Node20&#45;&gt;Node13</title>
<g id="a_edge39_Node000020_Node000013"><a xlink:title=" ">
<path fill="none" stroke="#63b8ff" d="M124.76,-162.88C103.83,-153.3 76.72,-140.89 58.34,-132.48"/>
<polygon fill="#63b8ff" stroke="#63b8ff" points="123.15,-165.99 133.69,-166.96 126.06,-159.62 123.15,-165.99"/>
</a>
</g>
</g>
<!-- Node21 -->
<g id="Node000021" class="node">
<title>Node21</title>
<g id="a_Node000021"><a xlink:href="_shader_program_8cpp.html" target="_top" xlink:title=" ">
<polygon fill="white" stroke="#666666" points="212,-132 93.25,-132 93.25,-112 212,-112 212,-132"/>
<text text-anchor="middle" x="152.62" y="-118.5" font-family="Helvetica,sans-Serif" font-size="10.00">src/ShaderProgram.cpp</text>
</a>
</g>
</g>
<!-- Node20&#45;&gt;Node21 -->
<g id="edge40_Node000020_Node000021" class="edge">
<title>Node20&#45;&gt;Node21</title>
<g id="a_edge40_Node000020_Node000021"><a xlink:title=" ">
<path fill="none" stroke="#63b8ff" d="M154.47,-156.13C154.01,-147.9 153.51,-138.85 153.14,-132.3"/>
<polygon fill="#63b8ff" stroke="#63b8ff" points="150.97,-156.29 155.02,-166.08 157.96,-155.9 150.97,-156.29"/>
</a>
</g>
</g>
<!-- Node22&#45;&gt;Node4 -->
<g id="edge42_Node000022_Node000004" class="edge">
<title>Node22&#45;&gt;Node4</title>
<g id="a_edge42_Node000022_Node000004"><a xlink:title=" ">
<path fill="none" stroke="#63b8ff" d="M624.5,-194.82C638.27,-204.16 653.73,-215.67 663,-223.59"/>
<polygon fill="#63b8ff" stroke="#63b8ff" points="626.44,-191.9 616.16,-189.31 622.58,-197.74 626.44,-191.9"/>
</a>
</g>
</g>
<!-- Node23 -->
<g id="Node000023" class="node">
<title>Node23</title>
<g id="a_Node000023"><a xlink:href="_win32_application_8cpp.html" target="_top" xlink:title=" ">
<polygon fill="white" stroke="#666666" points="635.12,-132 508.12,-132 508.12,-112 635.12,-112 635.12,-132"/>
<text text-anchor="middle" x="571.62" y="-118.5" font-family="Helvetica,sans-Serif" font-size="10.00">src/Win32Application.cpp</text>
</a>
</g>
</g>
<!-- Node22&#45;&gt;Node23 -->
<g id="edge43_Node000022_Node000023" class="edge">
<title>Node22&#45;&gt;Node23</title>
<g id="a_edge43_Node000022_Node000023"><a xlink:title=" ">
<path fill="none" stroke="#63b8ff" d="M587.5,-157.29C583.55,-148.75 579.11,-139.16 575.93,-132.3"/>
<polygon fill="#63b8ff" stroke="#63b8ff" points="584.26,-158.62 591.63,-166.22 590.61,-155.68 584.26,-158.62"/>
</a>
</g>
</g>
<!-- Node24&#45;&gt;Node3 -->
<g id="edge46_Node000024_Node000003" class="edge">
<title>Node24&#45;&gt;Node3</title>
<g id="a_edge46_Node000024_Node000003"><a xlink:title=" ">
<path fill="none" stroke="#63b8ff" d="M741.41,-168C954.32,-135.72 1012.14,-153.55 1222.62,-132 1225.51,-131.7 1228.46,-131.39 1231.44,-131.05"/>
<polygon fill="#63b8ff" stroke="#63b8ff" points="741.01,-164.52 731.66,-169.5 742.08,-171.44 741.01,-164.52"/>
</a>
</g>
</g>
<!-- Node24&#45;&gt;Node6 -->
<g id="edge45_Node000024_Node000006" class="edge">
<title>Node24&#45;&gt;Node6</title>
<g id="a_edge45_Node000024_Node000006"><a xlink:title=" ">
<path fill="none" stroke="#63b8ff" d="M740.91,-166.12C776.49,-156.27 828.38,-141.9 862.32,-132.5"/>
<polygon fill="#63b8ff" stroke="#63b8ff" points="740.14,-162.7 731.44,-168.74 742.01,-169.45 740.14,-162.7"/>
</a>
</g>
</g>
<!-- Node24&#45;&gt;Node7 -->
<g id="edge47_Node000024_Node000007" class="edge">
<title>Node24&#45;&gt;Node7</title>
<g id="a_edge47_Node000024_Node000007"><a xlink:title=" ">
<path fill="none" stroke="#63b8ff" d="M661.96,-167.86C546.18,-146.54 514.48,-147.94 401.62,-132 399.04,-131.63 396.4,-131.26 393.72,-130.88"/>
<polygon fill="#63b8ff" stroke="#63b8ff" points="661.09,-171.26 671.57,-169.65 662.37,-164.38 661.09,-171.26"/>
</a>
</g>
</g>
<!-- Node24&#45;&gt;Node9 -->
<g id="edge48_Node000024_Node000009" class="edge">
<title>Node24&#45;&gt;Node9</title>
<g id="a_edge48_Node000024_Node000009"><a xlink:title=" ">
<path fill="none" stroke="#63b8ff" d="M741.04,-167.84C821.54,-151.99 903.13,-139.32 956.97,-131.43"/>
<polygon fill="#63b8ff" stroke="#63b8ff" points="740.82,-164.32 731.7,-169.7 742.19,-171.19 740.82,-164.32"/>
</a>
</g>
</g>
<!-- Node24&#45;&gt;Node11 -->
<g id="edge50_Node000024_Node000011" class="edge">
<title>Node24&#45;&gt;Node11</title>
<g id="a_edge50_Node000024_Node000011"><a xlink:title=" ">
<path fill="none" stroke="#63b8ff" d="M740.87,-164.42C766.65,-155.37 797.12,-142.89 805.62,-132 832.1,-98.1 829.25,-42.36 826.86,-20.36"/>
<polygon fill="#63b8ff" stroke="#63b8ff" points="739.95,-161.04 731.62,-167.59 742.22,-167.66 739.95,-161.04"/>
</a>
</g>
</g>
<!-- Node24&#45;&gt;Node12 -->
<g id="edge51_Node000024_Node000012" class="edge">
<title>Node24&#45;&gt;Node12</title>
<g id="a_edge51_Node000024_Node000012"><a xlink:title=" ">
<path fill="none" stroke="#63b8ff" d="M701.62,-156.5C701.62,-120.27 701.62,-46.31 701.62,-20.3"/>
<polygon fill="#63b8ff" stroke="#63b8ff" points="698.13,-156.09 701.63,-166.09 705.13,-156.09 698.13,-156.09"/>
</a>
</g>
</g>
<!-- Node24&#45;&gt;Node14 -->
<g id="edge49_Node000024_Node000014" class="edge">
<title>Node24&#45;&gt;Node14</title>
<g id="a_edge49_Node000024_Node000014"><a xlink:title=" ">
<path fill="none" stroke="#63b8ff" d="M690.67,-158.4C680.55,-143.1 664.02,-122.31 643.62,-112 567.96,-73.76 311.1,-67.87 207.99,-67.07"/>
<polygon fill="#63b8ff" stroke="#63b8ff" points="687.55,-160.01 695.82,-166.64 693.49,-156.31 687.55,-160.01"/>
</a>
</g>
</g>
<!-- Node24&#45;&gt;Node17 -->
<g id="edge53_Node000024_Node000017" class="edge">
<title>Node24&#45;&gt;Node17</title>
<g id="a_edge53_Node000024_Node000017"><a xlink:title=" ">
<path fill="none" stroke="#63b8ff" d="M661.98,-167.68C596,-152.97 530.91,-139.42 490.34,-131.09"/>
<polygon fill="#63b8ff" stroke="#63b8ff" points="661.01,-171.04 671.53,-169.81 662.54,-164.21 661.01,-171.04"/>
</a>
</g>
</g>
<!-- Node24&#45;&gt;Node19 -->
<g id="edge54_Node000024_Node000019" class="edge">
<title>Node24&#45;&gt;Node19</title>
<g id="a_edge54_Node000024_Node000019"><a xlink:title=" ">
<path fill="none" stroke="#63b8ff" d="M741.33,-167.94C893.55,-142.53 935.1,-149.55 1084.62,-132 1087.5,-131.66 1090.45,-131.31 1093.43,-130.94"/>
<polygon fill="#63b8ff" stroke="#63b8ff" points="740.95,-164.45 731.67,-169.57 742.11,-171.35 740.95,-164.45"/>
</a>
</g>
</g>
<!-- Node24&#45;&gt;Node21 -->
<g id="edge55_Node000024_Node000021" class="edge">
<title>Node24&#45;&gt;Node21</title>
<g id="a_edge55_Node000024_Node000021"><a xlink:title=" ">
<path fill="none" stroke="#63b8ff" d="M661.93,-168.14C588.55,-158.38 330.42,-137.27 212.25,-127.76"/>
<polygon fill="#63b8ff" stroke="#63b8ff" points="661.18,-171.57 671.58,-169.55 662.19,-164.64 661.18,-171.57"/>
</a>
</g>
</g>
<!-- Node24&#45;&gt;Node23 -->
<g id="edge56_Node000024_Node000023" class="edge">
<title>Node24&#45;&gt;Node23</title>
<g id="a_edge56_Node000024_Node000023"><a xlink:title=" ">
<path fill="none" stroke="#63b8ff" d="M668.57,-163.27C645.39,-153.64 614.98,-141.01 594.45,-132.48"/>
<polygon fill="#63b8ff" stroke="#63b8ff" points="667.01,-166.41 677.58,-167.01 669.69,-159.94 667.01,-166.41"/>
</a>
</g>
</g>
<!-- Node24&#45;&gt;Node25 -->
<g id="edge52_Node000024_Node000025" class="edge">
<title>Node24&#45;&gt;Node25</title>
<g id="a_edge52_Node000024_Node000025"><a xlink:title=" ">
<path fill="none" stroke="#63b8ff" d="M741.24,-168.07C1015.12,-128.83 1089.23,-159.83 1360.62,-132 1363.29,-131.73 1366.01,-131.42 1368.76,-131.09"/>
<polygon fill="#63b8ff" stroke="#63b8ff" points="741.05,-164.56 731.65,-169.46 742.05,-171.49 741.05,-164.56"/>
</a>
</g>
</g>
<!-- Node26 -->
<g id="Node000026" class="node">
<title>Node26</title>
<g id="a_Node000026"><a xlink:href="pch_8cpp.html" target="_top" xlink:title=" ">
<polygon fill="white" stroke="#666666" points="797.12,-132 730.12,-132 730.12,-112 797.12,-112 797.12,-132"/>
<text text-anchor="middle" x="763.62" y="-118.5" font-family="Helvetica,sans-Serif" font-size="10.00">src/pch.cpp</text>
</a>
</g>
</g>
<!-- Node24&#45;&gt;Node26 -->
<g id="edge57_Node000024_Node000026" class="edge">
<title>Node24&#45;&gt;Node26</title>
<g id="a_edge57_Node000024_Node000026"><a xlink:title=" ">
<path fill="none" stroke="#63b8ff" d="M721,-160.13C731.54,-150.94 744.18,-139.93 752.95,-132.3"/>
<polygon fill="#63b8ff" stroke="#63b8ff" points="718.81,-157.39 713.57,-166.6 723.41,-162.67 718.81,-157.39"/>
</a>
</g>
</g>
</g>
</svg>
