<?xml version="1.0" encoding="UTF-8" standalone="no"?>
<!DOCTYPE svg PUBLIC "-//W3C//DTD SVG 1.1//EN"
 "http://www.w3.org/Graphics/SVG/1.1/DTD/svg11.dtd">
<!-- Generated by graphviz version 9.0.0 (20230911.1827)
 -->
<!-- Title: src/RenderState.h Pages: 1 -->
<svg width="2868pt" height="364pt"
 viewBox="0.00 0.00 2867.75 364.00" xmlns="http://www.w3.org/2000/svg" xmlns:xlink="http://www.w3.org/1999/xlink">
<g id="graph0" class="graph" transform="scale(1 1) rotate(0) translate(4 360)">
<title>src/RenderState.h</title>
<!-- Node1 -->
<g id="Node000001" class="node">
<title>Node1</title>
<g id="a_Node000001"><a xlink:title=" ">
<polygon fill="#999999" stroke="#666666" points="2412.12,-356 2317.38,-356 2317.38,-336 2412.12,-336 2412.12,-356"/>
<text text-anchor="middle" x="2364.75" y="-342.5" font-family="Helvetica,sans-Serif" font-size="10.00">src/RenderState.h</text>
</a>
</g>
</g>
<!-- Node2 -->
<g id="Node000002" class="node">
<title>Node2</title>
<g id="a_Node000002"><a xlink:href="_game_engine_8h.html" target="_top" xlink:title=" ">
<polygon fill="white" stroke="#666666" points="1979,-300 1898.5,-300 1898.5,-280 1979,-280 1979,-300"/>
<text text-anchor="middle" x="1938.75" y="-286.5" font-family="Helvetica,sans-Serif" font-size="10.00">GameEngine.h</text>
</a>
</g>
</g>
<!-- Node1&#45;&gt;Node2 -->
<g id="edge1_Node000001_Node000002" class="edge">
<title>Node1&#45;&gt;Node2</title>
<g id="a_edge1_Node000001_Node000002"><a xlink:title=" ">
<path fill="none" stroke="#63b8ff" d="M2317.28,-339.53C2236.68,-329.7 2073.98,-309.1 1990.54,-298.17"/>
<polygon fill="#63b8ff" stroke="#63b8ff" points="1991.18,-294.72 1980.81,-296.89 1990.27,-301.66 1991.18,-294.72"/>
</a>
</g>
</g>
<!-- Node2&#45;&gt;Node1 -->
<g id="edge58_Node000002_Node000001" class="edge">
<title>Node2&#45;&gt;Node1</title>
<g id="a_edge58_Node000002_Node000001"><a xlink:title=" ">
<path fill="none" stroke="#63b8ff" d="M1979.5,-295.66C2055.32,-304.85 2217.96,-325.43 2305.77,-336.89"/>
<polygon fill="#63b8ff" stroke="#63b8ff" points="2305.26,-340.35 2315.63,-338.18 2306.17,-333.41 2305.26,-340.35"/>
</a>
</g>
</g>
<!-- Node3 -->
<g id="Node000003" class="node">
<title>Node3</title>
<g id="a_Node000003"><a xlink:title=" ">
<polygon fill="#e0e0e0" stroke="#999999" points="2428.62,-244 2348.88,-244 2348.88,-224 2428.62,-224 2428.62,-244"/>
<text text-anchor="middle" x="2388.75" y="-230.5" font-family="Helvetica,sans-Serif" font-size="10.00">SDKDDKVer.h</text>
</a>
</g>
</g>
<!-- Node2&#45;&gt;Node3 -->
<g id="edge2_Node000002_Node000003" class="edge">
<title>Node2&#45;&gt;Node3</title>
<g id="a_edge2_Node000002_Node000003"><a xlink:title=" ">
<path fill="none" stroke="#63b8ff" d="M1979.31,-285.09C2051.12,-278.02 2205.24,-262.14 2334.75,-244 2335.58,-243.88 2336.42,-243.76 2337.26,-243.64"/>
<polygon fill="#63b8ff" stroke="#63b8ff" points="2337.53,-247.14 2346.89,-242.19 2336.48,-240.22 2337.53,-247.14"/>
</a>
</g>
</g>
<!-- Node4 -->
<g id="Node000004" class="node">
<title>Node4</title>
<g id="a_Node000004"><a xlink:title=" ">
<polygon fill="#e0e0e0" stroke="#999999" points="2507.25,-244 2446.25,-244 2446.25,-224 2507.25,-224 2507.25,-244"/>
<text text-anchor="middle" x="2476.75" y="-230.5" font-family="Helvetica,sans-Serif" font-size="10.00">windows.h</text>
</a>
</g>
</g>
<!-- Node2&#45;&gt;Node4 -->
<g id="edge3_Node000002_Node000004" class="edge">
<title>Node2&#45;&gt;Node4</title>
<g id="a_edge3_Node000002_Node000004"><a xlink:title=" ">
<path fill="none" stroke="#63b8ff" d="M1979.41,-287.22C2062.98,-283.16 2260.24,-271.49 2434.96,-244.25"/>
<polygon fill="#63b8ff" stroke="#63b8ff" points="2435.35,-247.73 2444.68,-242.71 2434.25,-240.82 2435.35,-247.73"/>
</a>
</g>
</g>
<!-- Node5 -->
<g id="Node000005" class="node">
<title>Node5</title>
<g id="a_Node000005"><a xlink:title=" ">
<polygon fill="#e0e0e0" stroke="#999999" points="2667.5,-244 2620,-244 2620,-224 2667.5,-224 2667.5,-244"/>
<text text-anchor="middle" x="2643.75" y="-230.5" font-family="Helvetica,sans-Serif" font-size="10.00">stdlib.h</text>
</a>
</g>
</g>
<!-- Node2&#45;&gt;Node5 -->
<g id="edge4_Node000002_Node000005" class="edge">
<title>Node2&#45;&gt;Node5</title>
<g id="a_edge4_Node000002_Node000005"><a xlink:title=" ">
<path fill="none" stroke="#63b8ff" d="M1979.23,-288.59C2083.6,-287.04 2370.21,-279.59 2605.75,-244 2606.75,-243.85 2607.76,-243.69 2608.77,-243.51"/>
<polygon fill="#63b8ff" stroke="#63b8ff" points="2609.14,-247.01 2618.26,-241.61 2607.77,-240.14 2609.14,-247.01"/>
</a>
</g>
</g>
<!-- Node6 -->
<g id="Node000006" class="node">
<title>Node6</title>
<g id="a_Node000006"><a xlink:title=" ">
<polygon fill="#e0e0e0" stroke="#999999" points="2794.12,-244 2741.38,-244 2741.38,-224 2794.12,-224 2794.12,-244"/>
<text text-anchor="middle" x="2767.75" y="-230.5" font-family="Helvetica,sans-Serif" font-size="10.00">malloc.h</text>
</a>
</g>
</g>
<!-- Node2&#45;&gt;Node6 -->
<g id="edge5_Node000002_Node000006" class="edge">
<title>Node2&#45;&gt;Node6</title>
<g id="a_edge5_Node000002_Node000006"><a xlink:title=" ">
<path fill="none" stroke="#63b8ff" d="M1979.21,-289.03C2095.94,-288.62 2443.09,-283.87 2727.75,-244 2728.57,-243.89 2729.4,-243.76 2730.23,-243.63"/>
<polygon fill="#63b8ff" stroke="#63b8ff" points="2730.49,-247.14 2739.69,-241.89 2729.23,-240.26 2730.49,-247.14"/>
</a>
</g>
</g>
<!-- Node7 -->
<g id="Node000007" class="node">
<title>Node7</title>
<g id="a_Node000007"><a xlink:title=" ">
<polygon fill="#e0e0e0" stroke="#999999" points="59.5,-244 0,-244 0,-224 59.5,-224 59.5,-244"/>
<text text-anchor="middle" x="29.75" y="-230.5" font-family="Helvetica,sans-Serif" font-size="10.00">memory.h</text>
</a>
</g>
</g>
<!-- Node2&#45;&gt;Node7 -->
<g id="edge6_Node000002_Node000007" class="edge">
<title>Node2&#45;&gt;Node7</title>
<g id="a_edge6_Node000002_Node000007"><a xlink:title=" ">
<path fill="none" stroke="#63b8ff" d="M1898.22,-289.14C1662.39,-289.8 464.01,-290.83 71.26,-243.99"/>
<polygon fill="#63b8ff" stroke="#63b8ff" points="71.73,-240.52 61.38,-242.77 70.88,-247.47 71.73,-240.52"/>
</a>
</g>
</g>
<!-- Node8 -->
<g id="Node000008" class="node">
<title>Node8</title>
<g id="a_Node000008"><a xlink:title=" ">
<polygon fill="#e0e0e0" stroke="#999999" points="123.75,-244 77.75,-244 77.75,-224 123.75,-224 123.75,-244"/>
<text text-anchor="middle" x="100.75" y="-230.5" font-family="Helvetica,sans-Serif" font-size="10.00">tchar.h</text>
</a>
</g>
</g>
<!-- Node2&#45;&gt;Node8 -->
<g id="edge7_Node000002_Node000008" class="edge">
<title>Node2&#45;&gt;Node8</title>
<g id="a_edge7_Node000002_Node000008"><a xlink:title=" ">
<path fill="none" stroke="#63b8ff" d="M1898.04,-288.59C1651.38,-286.05 360.3,-271.61 135.34,-243.82"/>
<polygon fill="#63b8ff" stroke="#63b8ff" points="135.9,-240.36 125.52,-242.47 134.96,-247.3 135.9,-240.36"/>
</a>
</g>
</g>
<!-- Node9 -->
<g id="Node000009" class="node">
<title>Node9</title>
<g id="a_Node000009"><a xlink:title=" ">
<polygon fill="#e0e0e0" stroke="#999999" points="203.62,-244 141.88,-244 141.88,-224 203.62,-224 203.62,-244"/>
<text text-anchor="middle" x="172.75" y="-230.5" font-family="Helvetica,sans-Serif" font-size="10.00">resource.h</text>
</a>
</g>
</g>
<!-- Node2&#45;&gt;Node9 -->
<g id="edge8_Node000002_Node000009" class="edge">
<title>Node2&#45;&gt;Node9</title>
<g id="a_edge8_Node000002_Node000009"><a xlink:title=" ">
<path fill="none" stroke="#63b8ff" d="M1898.07,-289.02C1672.97,-288.95 577.43,-286.49 215.37,-244.02"/>
<polygon fill="#63b8ff" stroke="#63b8ff" points="215.94,-240.57 205.59,-242.84 215.1,-247.52 215.94,-240.57"/>
</a>
</g>
</g>
<!-- Node10 -->
<g id="Node000010" class="node">
<title>Node10</title>
<g id="a_Node000010"><a xlink:title=" ">
<polygon fill="#e0e0e0" stroke="#999999" points="267.38,-244 222.12,-244 222.12,-224 267.38,-224 267.38,-244"/>
<text text-anchor="middle" x="244.75" y="-230.5" font-family="Helvetica,sans-Serif" font-size="10.00">chrono</text>
</a>
</g>
</g>
<!-- Node2&#45;&gt;Node10 -->
<g id="edge9_Node000002_Node000010" class="edge">
<title>Node2&#45;&gt;Node10</title>
<g id="a_edge9_Node000002_Node000010"><a xlink:title=" ">
<path fill="none" stroke="#63b8ff" d="M1898.21,-288.52C1664.02,-285.69 487.61,-270.31 278.93,-243.94"/>
<polygon fill="#63b8ff" stroke="#63b8ff" points="279.51,-240.48 269.12,-242.56 278.54,-247.42 279.51,-240.48"/>
</a>
</g>
</g>
<!-- Node11 -->
<g id="Node000011" class="node">
<title>Node11</title>
<g id="a_Node000011"><a xlink:title=" ">
<polygon fill="#e0e0e0" stroke="#999999" points="326.5,-244 285,-244 285,-224 326.5,-224 326.5,-244"/>
<text text-anchor="middle" x="305.75" y="-230.5" font-family="Helvetica,sans-Serif" font-size="10.00">vector</text>
</a>
</g>
</g>
<!-- Node2&#45;&gt;Node11 -->
<g id="edge10_Node000002_Node000011" class="edge">
<title>Node2&#45;&gt;Node11</title>
<g id="a_edge10_Node000002_Node000011"><a xlink:title=" ">
<path fill="none" stroke="#63b8ff" d="M1898.1,-289.31C1682.77,-290.71 672.83,-294.51 338.04,-243.84"/>
<polygon fill="#63b8ff" stroke="#63b8ff" points="338.81,-240.42 328.39,-242.33 337.73,-247.34 338.81,-240.42"/>
</a>
</g>
</g>
<!-- Node12 -->
<g id="Node000012" class="node">
<title>Node12</title>
<g id="a_Node000012"><a xlink:title=" ">
<polygon fill="#e0e0e0" stroke="#999999" points="398.5,-244 345,-244 345,-224 398.5,-224 398.5,-244"/>
<text text-anchor="middle" x="371.75" y="-230.5" font-family="Helvetica,sans-Serif" font-size="10.00">iostream</text>
</a>
</g>
</g>
<!-- Node2&#45;&gt;Node12 -->
<g id="edge11_Node000002_Node000012" class="edge">
<title>Node2&#45;&gt;Node12</title>
<g id="a_edge11_Node000002_Node000012"><a xlink:title=" ">
<path fill="none" stroke="#63b8ff" d="M1898.24,-288.99C1689.25,-288.76 730.72,-285.51 409.9,-243.91"/>
<polygon fill="#63b8ff" stroke="#63b8ff" points="410.63,-240.48 400.25,-242.62 409.7,-247.42 410.63,-240.48"/>
</a>
</g>
</g>
<!-- Node13 -->
<g id="Node000013" class="node">
<title>Node13</title>
<g id="a_Node000013"><a xlink:title=" ">
<polygon fill="#e0e0e0" stroke="#999999" points="464.88,-244 416.62,-244 416.62,-224 464.88,-224 464.88,-244"/>
<text text-anchor="middle" x="440.75" y="-230.5" font-family="Helvetica,sans-Serif" font-size="10.00">fstream</text>
</a>
</g>
</g>
<!-- Node2&#45;&gt;Node13 -->
<g id="edge12_Node000002_Node000013" class="edge">
<title>Node2&#45;&gt;Node13</title>
<g id="a_edge12_Node000002_Node000013"><a xlink:title=" ">
<path fill="none" stroke="#63b8ff" d="M1898.29,-289.04C1694.91,-289.07 782.36,-286.83 476.19,-243.94"/>
<polygon fill="#63b8ff" stroke="#63b8ff" points="477.02,-240.53 466.62,-242.55 476.01,-247.45 477.02,-240.53"/>
</a>
</g>
</g>
<!-- Node14 -->
<g id="Node000014" class="node">
<title>Node14</title>
<g id="a_Node000014"><a xlink:title=" ">
<polygon fill="#e0e0e0" stroke="#999999" points="542.88,-244 482.62,-244 482.62,-224 542.88,-224 542.88,-244"/>
<text text-anchor="middle" x="512.75" y="-230.5" font-family="Helvetica,sans-Serif" font-size="10.00">filesystem</text>
</a>
</g>
</g>
<!-- Node2&#45;&gt;Node14 -->
<g id="edge13_Node000002_Node000014" class="edge">
<title>Node2&#45;&gt;Node14</title>
<g id="a_edge13_Node000002_Node000014"><a xlink:title=" ">
<path fill="none" stroke="#63b8ff" d="M1898.19,-288.75C1701.52,-287.36 845.16,-279.46 554.64,-244.08"/>
<polygon fill="#63b8ff" stroke="#63b8ff" points="555.17,-240.61 544.81,-242.83 554.29,-247.56 555.17,-240.61"/>
</a>
</g>
</g>
<!-- Node15 -->
<g id="Node000015" class="node">
<title>Node15</title>
<g id="a_Node000015"><a xlink:title=" ">
<polygon fill="#e0e0e0" stroke="#999999" points="612.38,-244 561.12,-244 561.12,-224 612.38,-224 612.38,-244"/>
<text text-anchor="middle" x="586.75" y="-230.5" font-family="Helvetica,sans-Serif" font-size="10.00">sstream</text>
</a>
</g>
</g>
<!-- Node2&#45;&gt;Node15 -->
<g id="edge14_Node000002_Node000015" class="edge">
<title>Node2&#45;&gt;Node15</title>
<g id="a_edge14_Node000002_Node000015"><a xlink:title=" ">
<path fill="none" stroke="#63b8ff" d="M1898.32,-288.8C1708.02,-287.69 899.74,-280.95 623.78,-243.88"/>
<polygon fill="#63b8ff" stroke="#63b8ff" points="624.5,-240.45 614.12,-242.53 623.54,-247.38 624.5,-240.45"/>
</a>
</g>
</g>
<!-- Node16 -->
<g id="Node000016" class="node">
<title>Node16</title>
<g id="a_Node000016"><a xlink:title=" ">
<polygon fill="#e0e0e0" stroke="#999999" points="713.12,-244 630.38,-244 630.38,-224 713.12,-224 713.12,-244"/>
<text text-anchor="middle" x="671.75" y="-230.5" font-family="Helvetica,sans-Serif" font-size="10.00">unordered_map</text>
</a>
</g>
</g>
<!-- Node2&#45;&gt;Node16 -->
<g id="edge15_Node000002_Node000016" class="edge">
<title>Node2&#45;&gt;Node16</title>
<g id="a_edge15_Node000002_Node000016"><a xlink:title=" ">
<path fill="none" stroke="#63b8ff" d="M1898.15,-288.25C1716.95,-284.79 980.32,-269.48 724.52,-243.98"/>
<polygon fill="#63b8ff" stroke="#63b8ff" points="725.24,-240.54 714.94,-242.99 724.53,-247.5 725.24,-240.54"/>
</a>
</g>
</g>
<!-- Node17 -->
<g id="Node000017" class="node">
<title>Node17</title>
<g id="a_Node000017"><a xlink:title=" ">
<polygon fill="#e0e0e0" stroke="#999999" points="836,-244 731.5,-244 731.5,-224 836,-224 836,-244"/>
<text text-anchor="middle" x="783.75" y="-230.5" font-family="Helvetica,sans-Serif" font-size="10.00">assimp/Importer.hpp</text>
</a>
</g>
</g>
<!-- Node2&#45;&gt;Node17 -->
<g id="edge16_Node000002_Node000017" class="edge">
<title>Node2&#45;&gt;Node17</title>
<g id="a_edge16_Node000002_Node000017"><a xlink:title=" ">
<path fill="none" stroke="#63b8ff" d="M1898.41,-288.87C1756.09,-288.1 1263.96,-282.69 847.65,-244.17"/>
<polygon fill="#63b8ff" stroke="#63b8ff" points="848.07,-240.7 837.79,-243.25 847.42,-247.66 848.07,-240.7"/>
</a>
</g>
</g>
<!-- Node18 -->
<g id="Node000018" class="node">
<title>Node18</title>
<g id="a_Node000018"><a xlink:title=" ">
<polygon fill="#e0e0e0" stroke="#999999" points="939.25,-244 854.25,-244 854.25,-224 939.25,-224 939.25,-244"/>
<text text-anchor="middle" x="896.75" y="-230.5" font-family="Helvetica,sans-Serif" font-size="10.00">assimp/scene.h</text>
</a>
</g>
</g>
<!-- Node2&#45;&gt;Node18 -->
<g id="edge17_Node000002_Node000018" class="edge">
<title>Node2&#45;&gt;Node18</title>
<g id="a_edge17_Node000002_Node000018"><a xlink:title=" ">
<path fill="none" stroke="#63b8ff" d="M1898.06,-288.98C1764.1,-288.54 1324.56,-284.02 950.85,-244.07"/>
<polygon fill="#63b8ff" stroke="#63b8ff" points="951.36,-240.6 941.04,-243.01 950.61,-247.56 951.36,-240.6"/>
</a>
</g>
</g>
<!-- Node19 -->
<g id="Node000019" class="node">
<title>Node19</title>
<g id="a_Node000019"><a xlink:title=" ">
<polygon fill="#e0e0e0" stroke="#999999" points="1069.75,-244 957.75,-244 957.75,-224 1069.75,-224 1069.75,-244"/>
<text text-anchor="middle" x="1013.75" y="-230.5" font-family="Helvetica,sans-Serif" font-size="10.00">assimp/postprocess.h</text>
</a>
</g>
</g>
<!-- Node2&#45;&gt;Node19 -->
<g id="edge18_Node000002_Node000019" class="edge">
<title>Node2&#45;&gt;Node19</title>
<g id="a_edge18_Node000002_Node000019"><a xlink:title=" ">
<path fill="none" stroke="#63b8ff" d="M1898.36,-288.11C1776.63,-285.17 1402.45,-274.23 1081.48,-244.18"/>
<polygon fill="#63b8ff" stroke="#63b8ff" points="1081.88,-240.7 1071.59,-243.24 1081.22,-247.67 1081.88,-240.7"/>
</a>
</g>
</g>
<!-- Node20 -->
<g id="Node000020" class="node">
<title>Node20</title>
<g id="a_Node000020"><a xlink:title=" ">
<polygon fill="#e0e0e0" stroke="#999999" points="1233.25,-244 1088.25,-244 1088.25,-224 1233.25,-224 1233.25,-244"/>
<text text-anchor="middle" x="1160.75" y="-230.5" font-family="Helvetica,sans-Serif" font-size="10.00">directxtk\WICTextureLoader.h</text>
</a>
</g>
</g>
<!-- Node2&#45;&gt;Node20 -->
<g id="edge19_Node000002_Node000020" class="edge">
<title>Node2&#45;&gt;Node20</title>
<g id="a_edge19_Node000002_Node000020"><a xlink:title=" ">
<path fill="none" stroke="#63b8ff" d="M1898.3,-287.02C1792.79,-281.72 1500.28,-266.15 1244.97,-244.15"/>
<polygon fill="#63b8ff" stroke="#63b8ff" points="1245.38,-240.68 1235.12,-243.3 1244.78,-247.65 1245.38,-240.68"/>
</a>
</g>
</g>
<!-- Node21 -->
<g id="Node000021" class="node">
<title>Node21</title>
<g id="a_Node000021"><a xlink:title=" ">
<polygon fill="#e0e0e0" stroke="#999999" points="1316.12,-244 1251.38,-244 1251.38,-224 1316.12,-224 1316.12,-244"/>
<text text-anchor="middle" x="1283.75" y="-230.5" font-family="Helvetica,sans-Serif" font-size="10.00">wincodec.h</text>
</a>
</g>
</g>
<!-- Node2&#45;&gt;Node21 -->
<g id="edge20_Node000002_Node000021" class="edge">
<title>Node2&#45;&gt;Node21</title>
<g id="a_edge20_Node000002_Node000021"><a xlink:title=" ">
<path fill="none" stroke="#63b8ff" d="M1898.3,-288.03C1801.37,-285.29 1548.06,-275.6 1327.49,-244.2"/>
<polygon fill="#63b8ff" stroke="#63b8ff" points="1328.24,-240.78 1317.84,-242.81 1327.24,-247.71 1328.24,-240.78"/>
</a>
</g>
</g>
<!-- Node22 -->
<g id="Node000022" class="node">
<title>Node22</title>
<g id="a_Node000022"><a xlink:title=" ">
<polygon fill="#e0e0e0" stroke="#999999" points="1391.75,-244 1333.75,-244 1333.75,-224 1391.75,-224 1391.75,-244"/>
<text text-anchor="middle" x="1362.75" y="-230.5" font-family="Helvetica,sans-Serif" font-size="10.00">lodepng.h</text>
</a>
</g>
</g>
<!-- Node2&#45;&gt;Node22 -->
<g id="edge21_Node000002_Node000022" class="edge">
<title>Node2&#45;&gt;Node22</title>
<g id="a_edge21_Node000002_Node000022"><a xlink:title=" ">
<path fill="none" stroke="#63b8ff" d="M1898.01,-287.67C1809.63,-284.33 1593.6,-273.77 1403.45,-244.2"/>
<polygon fill="#63b8ff" stroke="#63b8ff" points="1404.04,-240.75 1393.62,-242.65 1402.95,-247.67 1404.04,-240.75"/>
</a>
</g>
</g>
<!-- Node23 -->
<g id="Node000023" class="node">
<title>Node23</title>
<g id="a_Node000023"><a xlink:title=" ">
<polygon fill="#e0e0e0" stroke="#999999" points="1460,-244 1409.5,-244 1409.5,-224 1460,-224 1460,-244"/>
<text text-anchor="middle" x="1434.75" y="-230.5" font-family="Helvetica,sans-Serif" font-size="10.00">d3d11.h</text>
</a>
</g>
</g>
<!-- Node2&#45;&gt;Node23 -->
<g id="edge22_Node000002_Node000023" class="edge">
<title>Node2&#45;&gt;Node23</title>
<g id="a_edge22_Node000002_Node000023"><a xlink:title=" ">
<path fill="none" stroke="#63b8ff" d="M1898.31,-287.25C1818.57,-283.33 1635.33,-272.08 1471.52,-244.01"/>
<polygon fill="#63b8ff" stroke="#63b8ff" points="1472.21,-240.58 1461.75,-242.31 1471.01,-247.48 1472.21,-240.58"/>
</a>
</g>
</g>
<!-- Node24 -->
<g id="Node000024" class="node">
<title>Node24</title>
<g id="a_Node000024"><a xlink:title=" ">
<polygon fill="#e0e0e0" stroke="#999999" points="1555.12,-244 1478.38,-244 1478.38,-224 1555.12,-224 1555.12,-244"/>
<text text-anchor="middle" x="1516.75" y="-230.5" font-family="Helvetica,sans-Serif" font-size="10.00">DirectXMath.h</text>
</a>
</g>
</g>
<!-- Node2&#45;&gt;Node24 -->
<g id="edge23_Node000002_Node000024" class="edge">
<title>Node2&#45;&gt;Node24</title>
<g id="a_edge23_Node000002_Node000024"><a xlink:title=" ">
<path fill="none" stroke="#63b8ff" d="M1898.11,-285.06C1831.11,-278.37 1693.02,-263.71 1566.47,-244.34"/>
<polygon fill="#63b8ff" stroke="#63b8ff" points="1567.35,-240.93 1556.94,-242.86 1566.29,-247.85 1567.35,-240.93"/>
</a>
</g>
</g>
<!-- Node25 -->
<g id="Node000025" class="node">
<title>Node25</title>
<g id="a_Node000025"><a xlink:title=" ">
<polygon fill="#e0e0e0" stroke="#999999" points="1652.62,-244 1572.88,-244 1572.88,-224 1652.62,-224 1652.62,-244"/>
<text text-anchor="middle" x="1612.75" y="-230.5" font-family="Helvetica,sans-Serif" font-size="10.00">D3Dcompiler.h</text>
</a>
</g>
</g>
<!-- Node2&#45;&gt;Node25 -->
<g id="edge24_Node000002_Node000025" class="edge">
<title>Node2&#45;&gt;Node25</title>
<g id="a_edge24_Node000002_Node000025"><a xlink:title=" ">
<path fill="none" stroke="#63b8ff" d="M1898.34,-282.7C1846.52,-274.57 1753.59,-259.78 1664.27,-244.41"/>
<polygon fill="#63b8ff" stroke="#63b8ff" points="1665.06,-240.99 1654.61,-242.74 1663.86,-247.89 1665.06,-240.99"/>
</a>
</g>
</g>
<!-- Node26 -->
<g id="Node000026" class="node">
<title>Node26</title>
<g id="a_Node000026"><a xlink:title=" ">
<polygon fill="#e0e0e0" stroke="#999999" points="1726.62,-244 1670.88,-244 1670.88,-224 1726.62,-224 1726.62,-244"/>
<text text-anchor="middle" x="1698.75" y="-230.5" font-family="Helvetica,sans-Serif" font-size="10.00">d2d1_2.h</text>
</a>
</g>
</g>
<!-- Node2&#45;&gt;Node26 -->
<g id="edge25_Node000002_Node000026" class="edge">
<title>Node2&#45;&gt;Node26</title>
<g id="a_edge25_Node000002_Node000026"><a xlink:title=" ">
<path fill="none" stroke="#63b8ff" d="M1898.25,-280.28C1859.56,-271.89 1799.32,-258.68 1738.06,-244.5"/>
<polygon fill="#63b8ff" stroke="#63b8ff" points="1739.02,-241.13 1728.49,-242.28 1737.44,-247.95 1739.02,-241.13"/>
</a>
</g>
</g>
<!-- Node27 -->
<g id="Node000027" class="node">
<title>Node27</title>
<g id="a_Node000027"><a xlink:title=" ">
<polygon fill="#e0e0e0" stroke="#999999" points="1800.62,-244 1744.88,-244 1744.88,-224 1800.62,-224 1800.62,-244"/>
<text text-anchor="middle" x="1772.75" y="-230.5" font-family="Helvetica,sans-Serif" font-size="10.00">d2d1_1.h</text>
</a>
</g>
</g>
<!-- Node2&#45;&gt;Node27 -->
<g id="edge26_Node000002_Node000027" class="edge">
<title>Node2&#45;&gt;Node27</title>
<g id="a_edge26_Node000002_Node000027"><a xlink:title=" ">
<path fill="none" stroke="#63b8ff" d="M1909.84,-279.59C1882.74,-270.78 1842.01,-257.53 1811.99,-247.76"/>
<polygon fill="#63b8ff" stroke="#63b8ff" points="1813.09,-244.44 1802.5,-244.68 1810.92,-251.1 1813.09,-244.44"/>
</a>
</g>
</g>
<!-- Node28 -->
<g id="Node000028" class="node">
<title>Node28</title>
<g id="a_Node000028"><a xlink:title=" ">
<polygon fill="#e0e0e0" stroke="#999999" points="1864.38,-244 1819.12,-244 1819.12,-224 1864.38,-224 1864.38,-244"/>
<text text-anchor="middle" x="1841.75" y="-230.5" font-family="Helvetica,sans-Serif" font-size="10.00">d2d1.h</text>
</a>
</g>
</g>
<!-- Node2&#45;&gt;Node28 -->
<g id="edge27_Node000002_Node000028" class="edge">
<title>Node2&#45;&gt;Node28</title>
<g id="a_edge27_Node000002_Node000028"><a xlink:title=" ">
<path fill="none" stroke="#63b8ff" d="M1921.85,-279.59C1907.2,-271.44 1885.73,-259.48 1868.7,-250"/>
<polygon fill="#63b8ff" stroke="#63b8ff" points="1870.54,-247.02 1860.1,-245.22 1867.14,-253.14 1870.54,-247.02"/>
</a>
</g>
</g>
<!-- Node29 -->
<g id="Node000029" class="node">
<title>Node29</title>
<g id="a_Node000029"><a xlink:title=" ">
<polygon fill="#e0e0e0" stroke="#999999" points="1932.62,-244 1882.88,-244 1882.88,-224 1932.62,-224 1932.62,-244"/>
<text text-anchor="middle" x="1907.75" y="-230.5" font-family="Helvetica,sans-Serif" font-size="10.00">dwrite.h</text>
</a>
</g>
</g>
<!-- Node2&#45;&gt;Node29 -->
<g id="edge28_Node000002_Node000029" class="edge">
<title>Node2&#45;&gt;Node29</title>
<g id="a_edge28_Node000002_Node000029"><a xlink:title=" ">
<path fill="none" stroke="#63b8ff" d="M1933.35,-279.59C1929.31,-272.55 1923.63,-262.67 1918.66,-254"/>
<polygon fill="#63b8ff" stroke="#63b8ff" points="1921.86,-252.54 1913.84,-245.61 1915.78,-256.03 1921.86,-252.54"/>
</a>
</g>
</g>
<!-- Node30 -->
<g id="Node000030" class="node">
<title>Node30</title>
<g id="a_Node000030"><a xlink:href="_win32_application_8h.html" target="_top" xlink:title=" ">
<polygon fill="white" stroke="#666666" points="2274.75,-244 2174.75,-244 2174.75,-224 2274.75,-224 2274.75,-244"/>
<text text-anchor="middle" x="2224.75" y="-230.5" font-family="Helvetica,sans-Serif" font-size="10.00">Win32Application.h</text>
</a>
</g>
</g>
<!-- Node2&#45;&gt;Node30 -->
<g id="edge29_Node000002_Node000030" class="edge">
<title>Node2&#45;&gt;Node30</title>
<g id="a_edge29_Node000002_Node000030"><a xlink:title=" ">
<path fill="none" stroke="#63b8ff" d="M1979.28,-280.38C2027.38,-270.91 2107.86,-255.69 2163.54,-245.52"/>
<polygon fill="#63b8ff" stroke="#63b8ff" points="2163.97,-249 2173.19,-243.77 2162.72,-242.11 2163.97,-249"/>
</a>
</g>
</g>
<!-- Node31 -->
<g id="Node000031" class="node">
<title>Node31</title>
<g id="a_Node000031"><a xlink:href="_direct_x_manager_8h.html" target="_top" xlink:title=" ">
<polygon fill="white" stroke="#666666" points="2358,-188 2265.5,-188 2265.5,-168 2358,-168 2358,-188"/>
<text text-anchor="middle" x="2311.75" y="-174.5" font-family="Helvetica,sans-Serif" font-size="10.00">DirectXManager.h</text>
</a>
</g>
</g>
<!-- Node2&#45;&gt;Node31 -->
<g id="edge52_Node000002_Node000031" class="edge">
<title>Node2&#45;&gt;Node31</title>
<g id="a_edge52_Node000002_Node000031"><a xlink:title=" ">
<path fill="none" stroke="#63b8ff" d="M1979.39,-288.51C2058.44,-286.75 2228.6,-278.86 2274.75,-244 2288.99,-233.25 2296.08,-213.78 2301.2,-198.95"/>
<polygon fill="#63b8ff" stroke="#63b8ff" points="2304.42,-200.32 2304.47,-189.73 2297.83,-197.98 2304.42,-200.32"/>
</a>
</g>
</g>
<!-- Node32 -->
<g id="Node000032" class="node">
<title>Node32</title>
<g id="a_Node000032"><a xlink:href="_camera_8h.html" target="_top" xlink:title=" ">
<polygon fill="white" stroke="#666666" points="2120.75,-132 2062.75,-132 2062.75,-112 2120.75,-112 2120.75,-132"/>
<text text-anchor="middle" x="2091.75" y="-118.5" font-family="Helvetica,sans-Serif" font-size="10.00">Camera.h</text>
</a>
</g>
</g>
<!-- Node2&#45;&gt;Node32 -->
<g id="edge53_Node000002_Node000032" class="edge">
<title>Node2&#45;&gt;Node32</title>
<g id="a_edge53_Node000002_Node000032"><a xlink:title=" ">
<path fill="none" stroke="#63b8ff" d="M1976.35,-279.56C1997.42,-272.92 2022.66,-261.91 2039.75,-244 2066.72,-215.73 2076.92,-169.46 2083.55,-143.09"/>
<polygon fill="#63b8ff" stroke="#63b8ff" points="2086.87,-144.23 2086.09,-133.66 2080.11,-142.41 2086.87,-144.23"/>
</a>
</g>
</g>
<!-- Node33 -->
<g id="Node000033" class="node">
<title>Node33</title>
<g id="a_Node000033"><a xlink:href="_graphics_device_8h.html" target="_top" xlink:title=" ">
<polygon fill="white" stroke="#666666" points="2153.62,-76 2061.88,-76 2061.88,-56 2153.62,-56 2153.62,-76"/>
<text text-anchor="middle" x="2107.75" y="-62.5" font-family="Helvetica,sans-Serif" font-size="10.00">GraphicsDevice.h</text>
</a>
</g>
</g>
<!-- Node2&#45;&gt;Node33 -->
<g id="edge54_Node000002_Node000033" class="edge">
<title>Node2&#45;&gt;Node33</title>
<g id="a_edge54_Node000002_Node000033"><a xlink:title=" ">
<path fill="none" stroke="#63b8ff" d="M1945.94,-279.71C1955.98,-271.48 1972.61,-258.52 1983.75,-244 2023.09,-192.73 2005.41,-163.27 2044.75,-112 2053.31,-100.84 2065.11,-90.61 2076.31,-82.73"/>
<polygon fill="#63b8ff" stroke="#63b8ff" points="2078.19,-85.69 2084.64,-77.28 2074.36,-79.83 2078.19,-85.69"/>
</a>
</g>
</g>
<!-- Node34 -->
<g id="Node000034" class="node">
<title>Node34</title>
<g id="a_Node000034"><a xlink:href="_mesh_8h.html" target="_top" xlink:title=" ">
<polygon fill="white" stroke="#666666" points="2186.88,-132 2138.62,-132 2138.62,-112 2186.88,-112 2186.88,-132"/>
<text text-anchor="middle" x="2162.75" y="-118.5" font-family="Helvetica,sans-Serif" font-size="10.00">Mesh.h</text>
</a>
</g>
</g>
<!-- Node2&#45;&gt;Node34 -->
<g id="edge56_Node000002_Node000034" class="edge">
<title>Node2&#45;&gt;Node34</title>
<g id="a_edge56_Node000002_Node000034"><a xlink:title=" ">
<path fill="none" stroke="#63b8ff" d="M1979.34,-281.73C2007.17,-275.48 2043.63,-264.16 2070.75,-244 2107.23,-216.88 2133.17,-168.79 2148.6,-142.13"/>
<polygon fill="#63b8ff" stroke="#63b8ff" points="2151.48,-144.13 2153.6,-133.74 2145.47,-140.54 2151.48,-144.13"/>
</a>
</g>
</g>
<!-- Node35 -->
<g id="Node000035" class="node">
<title>Node35</title>
<g id="a_Node000035"><a xlink:href="_shader_program_8h.html" target="_top" xlink:title=" ">
<polygon fill="white" stroke="#666666" points="2167.62,-20 2075.88,-20 2075.88,0 2167.62,0 2167.62,-20"/>
<text text-anchor="middle" x="2121.75" y="-6.5" font-family="Helvetica,sans-Serif" font-size="10.00">ShaderProgram.h</text>
</a>
</g>
</g>
<!-- Node2&#45;&gt;Node35 -->
<g id="edge59_Node000002_Node000035" class="edge">
<title>Node2&#45;&gt;Node35</title>
<g id="a_edge59_Node000002_Node000035"><a xlink:title=" ">
<path fill="none" stroke="#63b8ff" d="M1938.24,-279.54C1942.95,-260.82 1960.75,-217.49 1960.75,-179 1960.75,-179 1960.75,-179 1960.75,-121 1960.75,-68.83 2020.24,-38.88 2066.99,-23.77"/>
<polygon fill="#63b8ff" stroke="#63b8ff" points="2067.97,-27.13 2076.51,-20.86 2065.92,-20.44 2067.97,-27.13"/>
</a>
</g>
</g>
<!-- Node37 -->
<g id="Node000037" class="node">
<title>Node37</title>
<g id="a_Node000037"><a xlink:href="_material_8h.html" target="_top" xlink:title=" ">
<polygon fill="white" stroke="#666666" points="2561.12,-76 2502.38,-76 2502.38,-56 2561.12,-56 2561.12,-76"/>
<text text-anchor="middle" x="2531.75" y="-62.5" font-family="Helvetica,sans-Serif" font-size="10.00">Material.h</text>
</a>
</g>
</g>
<!-- Node2&#45;&gt;Node37 -->
<g id="edge55_Node000002_Node000037" class="edge">
<title>Node2&#45;&gt;Node37</title>
<g id="a_edge55_Node000002_Node000037"><a xlink:title=" ">
<path fill="none" stroke="#63b8ff" d="M1979.39,-288.76C2103.26,-287.63 2469.13,-281.16 2506.75,-244 2548.58,-202.69 2537,-124.82 2532.06,-87.7"/>
<polygon fill="#63b8ff" stroke="#63b8ff" points="2535.55,-87.4 2530.87,-77.9 2528.6,-88.25 2535.55,-87.4"/>
</a>
</g>
</g>
<!-- Node38 -->
<g id="Node000038" class="node">
<title>Node38</title>
<g id="a_Node000038"><a xlink:href="_model_8h.html" target="_top" xlink:title=" ">
<polygon fill="white" stroke="#666666" points="2730,-132 2679.5,-132 2679.5,-112 2730,-112 2730,-132"/>
<text text-anchor="middle" x="2704.75" y="-118.5" font-family="Helvetica,sans-Serif" font-size="10.00">Model.h</text>
</a>
</g>
</g>
<!-- Node2&#45;&gt;Node38 -->
<g id="edge57_Node000002_Node000038" class="edge">
<title>Node2&#45;&gt;Node38</title>
<g id="a_edge57_Node000002_Node000038"><a xlink:title=" ">
<path fill="none" stroke="#63b8ff" d="M1979.45,-289.33C2125.25,-290.03 2614.8,-288.79 2667.75,-244 2696.74,-219.47 2699.1,-171.43 2700.67,-143.83"/>
<polygon fill="#63b8ff" stroke="#63b8ff" points="2704.16,-144.16 2701.36,-133.94 2697.17,-143.68 2704.16,-144.16"/>
</a>
</g>
</g>
<!-- Node30&#45;&gt;Node2 -->
<g id="edge30_Node000030_Node000002" class="edge">
<title>Node30&#45;&gt;Node2</title>
<g id="a_edge30_Node000030_Node000002"><a xlink:title=" ">
<path fill="none" stroke="#63b8ff" d="M2180.07,-244.43C2128.67,-254.52 2044.59,-270.38 1990.42,-280.21"/>
<polygon fill="#63b8ff" stroke="#63b8ff" points="1990.05,-276.72 1980.83,-281.95 1991.29,-283.61 1990.05,-276.72"/>
</a>
</g>
</g>
<!-- Node30&#45;&gt;Node31 -->
<g id="edge31_Node000030_Node000031" class="edge">
<title>Node30&#45;&gt;Node31</title>
<g id="a_edge31_Node000030_Node000031"><a xlink:title=" ">
<path fill="none" stroke="#63b8ff" d="M2239.9,-223.59C2252.8,-215.59 2271.58,-203.93 2286.71,-194.54"/>
<polygon fill="#63b8ff" stroke="#63b8ff" points="2288.54,-197.53 2295.19,-189.28 2284.85,-191.58 2288.54,-197.53"/>
</a>
</g>
</g>
<!-- Node31&#45;&gt;Node1 -->
<g id="edge40_Node000031_Node000001" class="edge">
<title>Node31&#45;&gt;Node1</title>
<g id="a_edge40_Node000031_Node000001"><a xlink:title=" ">
<path fill="none" stroke="#63b8ff" d="M2358.5,-179.78C2475.39,-182.21 2773.14,-191.55 2802.75,-224 2856.24,-282.62 2555.17,-323.83 2423.77,-338.79"/>
<polygon fill="#63b8ff" stroke="#63b8ff" points="2423.4,-335.31 2413.85,-339.91 2424.18,-342.27 2423.4,-335.31"/>
</a>
</g>
</g>
<!-- Node31&#45;&gt;Node2 -->
<g id="edge32_Node000031_Node000002" class="edge">
<title>Node31&#45;&gt;Node2</title>
<g id="a_edge32_Node000031_Node000002"><a xlink:title=" ">
<path fill="none" stroke="#63b8ff" d="M2316.29,-188.3C2317.36,-202.76 2310.79,-230.37 2292.75,-244 2246.78,-278.72 2077.8,-286.68 1990.9,-288.49"/>
<polygon fill="#63b8ff" stroke="#63b8ff" points="1990.91,-284.99 1980.97,-288.67 1991.04,-291.98 1990.91,-284.99"/>
</a>
</g>
</g>
<!-- Node31&#45;&gt;Node32 -->
<g id="edge33_Node000031_Node000032" class="edge">
<title>Node31&#45;&gt;Node32</title>
<g id="a_edge33_Node000031_Node000032"><a xlink:title=" ">
<path fill="none" stroke="#63b8ff" d="M2273.18,-167.53C2233.61,-157.82 2172.33,-142.78 2132.12,-132.91"/>
<polygon fill="#63b8ff" stroke="#63b8ff" points="2133.14,-129.55 2122.59,-130.57 2131.47,-136.35 2133.14,-129.55"/>
</a>
</g>
</g>
<!-- Node31&#45;&gt;Node33 -->
<g id="edge35_Node000031_Node000033" class="edge">
<title>Node31&#45;&gt;Node33</title>
<g id="a_edge35_Node000031_Node000033"><a xlink:title=" ">
<path fill="none" stroke="#63b8ff" d="M2295.34,-167.54C2272.96,-154.71 2231.57,-131.18 2195.75,-112 2176.21,-101.53 2153.98,-90.17 2136.75,-81.48"/>
<polygon fill="#63b8ff" stroke="#63b8ff" points="2138.6,-78.49 2128.09,-77.13 2135.46,-84.75 2138.6,-78.49"/>
</a>
</g>
</g>
<!-- Node31&#45;&gt;Node34 -->
<g id="edge37_Node000031_Node000034" class="edge">
<title>Node31&#45;&gt;Node34</title>
<g id="a_edge37_Node000031_Node000034"><a xlink:title=" ">
<path fill="none" stroke="#63b8ff" d="M2285.8,-167.59C2261.32,-158.72 2224.46,-145.37 2197.47,-135.58"/>
<polygon fill="#63b8ff" stroke="#63b8ff" points="2198.94,-132.39 2188.35,-132.28 2196.56,-138.98 2198.94,-132.39"/>
</a>
</g>
</g>
<!-- Node31&#45;&gt;Node35 -->
<g id="edge41_Node000031_Node000035" class="edge">
<title>Node31&#45;&gt;Node35</title>
<g id="a_edge41_Node000031_Node000035"><a xlink:title=" ">
<path fill="none" stroke="#63b8ff" d="M2300.99,-167.6C2270.03,-140.55 2180.42,-62.26 2140.88,-27.71"/>
<polygon fill="#63b8ff" stroke="#63b8ff" points="2143.36,-25.24 2133.53,-21.29 2138.76,-30.51 2143.36,-25.24"/>
</a>
</g>
</g>
<!-- Node36 -->
<g id="Node000036" class="node">
<title>Node36</title>
<g id="a_Node000036"><a xlink:href="_shader_manager_8h.html" target="_top" xlink:title=" ">
<polygon fill="white" stroke="#666666" points="2661,-132 2568.5,-132 2568.5,-112 2661,-112 2661,-132"/>
<text text-anchor="middle" x="2614.75" y="-118.5" font-family="Helvetica,sans-Serif" font-size="10.00">ShaderManager.h</text>
</a>
</g>
</g>
<!-- Node31&#45;&gt;Node36 -->
<g id="edge43_Node000031_Node000036" class="edge">
<title>Node31&#45;&gt;Node36</title>
<g id="a_edge43_Node000031_Node000036"><a xlink:title=" ">
<path fill="none" stroke="#63b8ff" d="M2358.43,-168.68C2411.81,-159.17 2499.24,-143.59 2556.9,-133.31"/>
<polygon fill="#63b8ff" stroke="#63b8ff" points="2557.3,-136.79 2566.53,-131.59 2556.07,-129.9 2557.3,-136.79"/>
</a>
</g>
</g>
<!-- Node31&#45;&gt;Node37 -->
<g id="edge45_Node000031_Node000037" class="edge">
<title>Node31&#45;&gt;Node37</title>
<g id="a_edge45_Node000031_Node000037"><a xlink:title=" ">
<path fill="none" stroke="#63b8ff" d="M2330.51,-167.62C2368.99,-148.38 2457.08,-104.34 2502.89,-81.43"/>
<polygon fill="#63b8ff" stroke="#63b8ff" points="2504.31,-84.63 2511.69,-77.03 2501.18,-78.37 2504.31,-84.63"/>
</a>
</g>
</g>
<!-- Node31&#45;&gt;Node38 -->
<g id="edge49_Node000031_Node000038" class="edge">
<title>Node31&#45;&gt;Node38</title>
<g id="a_edge49_Node000031_Node000038"><a xlink:title=" ">
<path fill="none" stroke="#63b8ff" d="M2358.39,-173.04C2424.85,-166.98 2550.8,-153.96 2667.92,-132.11"/>
<polygon fill="#63b8ff" stroke="#63b8ff" points="2668.56,-135.55 2677.73,-130.24 2667.26,-128.67 2668.56,-135.55"/>
</a>
</g>
</g>
<!-- Node32&#45;&gt;Node2 -->
<g id="edge34_Node000032_Node000002" class="edge">
<title>Node32&#45;&gt;Node2</title>
<g id="a_edge34_Node000032_Node000002"><a xlink:title=" ">
<path fill="none" stroke="#63b8ff" d="M2095.51,-132.2C2097.72,-154.36 2088.99,-211.26 2057.75,-244 2040.1,-262.49 2013.78,-273.63 1990.28,-280.19"/>
<polygon fill="#63b8ff" stroke="#63b8ff" points="1989.67,-276.74 1980.85,-282.6 1991.4,-283.52 1989.67,-276.74"/>
</a>
</g>
</g>
<!-- Node33&#45;&gt;Node2 -->
<g id="edge36_Node000033_Node000002" class="edge">
<title>Node33&#45;&gt;Node2</title>
<g id="a_edge36_Node000033_Node000002"><a xlink:title=" ">
<path fill="none" stroke="#63b8ff" d="M2100.56,-76.29C2090.52,-84.52 2073.89,-97.48 2062.75,-112 2023.41,-163.27 2041.09,-192.73 2001.75,-244 1993.19,-255.16 1981.39,-265.39 1970.19,-273.27"/>
<polygon fill="#63b8ff" stroke="#63b8ff" points="1968.31,-270.31 1961.86,-278.72 1972.14,-276.17 1968.31,-270.31"/>
</a>
</g>
</g>
<!-- Node34&#45;&gt;Node2 -->
<g id="edge38_Node000034_Node000002" class="edge">
<title>Node34&#45;&gt;Node2</title>
<g id="a_edge38_Node000034_Node000002"><a xlink:title=" ">
<path fill="none" stroke="#63b8ff" d="M2163.4,-132.44C2158.12,-155.14 2130.25,-213.15 2088.75,-244 2060.28,-265.16 2021.52,-276.59 1990.42,-282.62"/>
<polygon fill="#63b8ff" stroke="#63b8ff" points="1990.06,-279.13 1980.84,-284.34 1991.3,-286.02 1990.06,-279.13"/>
</a>
</g>
</g>
<!-- Node34&#45;&gt;Node33 -->
<g id="edge39_Node000034_Node000033" class="edge">
<title>Node34&#45;&gt;Node33</title>
<g id="a_edge39_Node000034_Node000033"><a xlink:title=" ">
<path fill="none" stroke="#63b8ff" d="M2153.17,-111.59C2145.52,-104.08 2134.59,-93.35 2125.37,-84.3"/>
<polygon fill="#63b8ff" stroke="#63b8ff" points="2127.89,-81.87 2118.3,-77.36 2122.98,-86.86 2127.89,-81.87"/>
</a>
</g>
</g>
<!-- Node35&#45;&gt;Node2 -->
<g id="edge42_Node000035_Node000002" class="edge">
<title>Node35&#45;&gt;Node2</title>
<g id="a_edge42_Node000035_Node000002"><a xlink:title=" ">
<path fill="none" stroke="#63b8ff" d="M2090.4,-20.42C2048.17,-34.22 1978.75,-64.65 1978.75,-121 1978.75,-179 1978.75,-179 1978.75,-179 1978.75,-211.78 1965.84,-248.06 1954.26,-269.67"/>
<polygon fill="#63b8ff" stroke="#63b8ff" points="1951.27,-267.85 1949.18,-278.24 1957.29,-271.43 1951.27,-267.85"/>
</a>
</g>
</g>
<!-- Node36&#45;&gt;Node2 -->
<g id="edge44_Node000036_Node000002" class="edge">
<title>Node36&#45;&gt;Node2</title>
<g id="a_edge44_Node000036_Node000002"><a xlink:title=" ">
<path fill="none" stroke="#63b8ff" d="M2614.32,-132.23C2612.7,-155.48 2604.92,-216.56 2567.75,-244 2521.81,-277.91 2132.97,-286.44 1990.66,-288.43"/>
<polygon fill="#63b8ff" stroke="#63b8ff" points="1990.72,-284.93 1980.77,-288.56 1990.82,-291.93 1990.72,-284.93"/>
</a>
</g>
</g>
<!-- Node37&#45;&gt;Node1 -->
<g id="edge48_Node000037_Node000001" class="edge">
<title>Node37&#45;&gt;Node1</title>
<g id="a_edge48_Node000037_Node000001"><a xlink:title=" ">
<path fill="none" stroke="#63b8ff" d="M2561.44,-70.49C2642.18,-80.8 2859.75,-114.39 2859.75,-177 2859.75,-235 2859.75,-235 2859.75,-235 2859.75,-323.45 2554.79,-340.82 2423.6,-344.2"/>
<polygon fill="#63b8ff" stroke="#63b8ff" points="2423.64,-340.7 2413.73,-344.43 2423.81,-347.69 2423.64,-340.7"/>
</a>
</g>
</g>
<!-- Node37&#45;&gt;Node2 -->
<g id="edge46_Node000037_Node000002" class="edge">
<title>Node37&#45;&gt;Node2</title>
<g id="a_edge46_Node000037_Node000002"><a xlink:title=" ">
<path fill="none" stroke="#63b8ff" d="M2538.32,-76.39C2551.53,-105.95 2571.51,-197.82 2524.75,-244 2487.42,-280.88 2126.76,-287.53 1990.45,-288.74"/>
<polygon fill="#63b8ff" stroke="#63b8ff" points="1990.61,-285.23 1980.64,-288.82 1990.66,-292.23 1990.61,-285.23"/>
</a>
</g>
</g>
<!-- Node37&#45;&gt;Node35 -->
<g id="edge47_Node000037_Node000035" class="edge">
<title>Node37&#45;&gt;Node35</title>
<g id="a_edge47_Node000037_Node000035"><a xlink:title=" ">
<path fill="none" stroke="#63b8ff" d="M2501.93,-61.07C2434.14,-52.14 2267.5,-30.2 2179.05,-18.55"/>
<polygon fill="#63b8ff" stroke="#63b8ff" points="2179.76,-15.11 2169.39,-17.27 2178.84,-22.05 2179.76,-15.11"/>
</a>
</g>
</g>
<!-- Node38&#45;&gt;Node2 -->
<g id="edge50_Node000038_Node000002" class="edge">
<title>Node38&#45;&gt;Node2</title>
<g id="a_edge50_Node000038_Node000002"><a xlink:title=" ">
<path fill="none" stroke="#63b8ff" d="M2710.36,-132.43C2717.17,-155.62 2719.33,-215.59 2685.75,-244 2633.26,-288.41 2151.66,-290 1990.74,-289.34"/>
<polygon fill="#63b8ff" stroke="#63b8ff" points="1990.8,-285.84 1980.79,-289.3 1990.77,-292.84 1990.8,-285.84"/>
</a>
</g>
</g>
<!-- Node38&#45;&gt;Node37 -->
<g id="edge51_Node000038_Node000037" class="edge">
<title>Node38&#45;&gt;Node37</title>
<g id="a_edge51_Node000038_Node000037"><a xlink:title=" ">
<path fill="none" stroke="#63b8ff" d="M2679.22,-113.03C2651.02,-104.23 2605.22,-89.93 2572.13,-79.61"/>
<polygon fill="#63b8ff" stroke="#63b8ff" points="2573.48,-76.36 2562.89,-76.72 2571.39,-83.04 2573.48,-76.36"/>
</a>
</g>
</g>
</g>
</svg>
