<?xml version="1.0" encoding="UTF-8" standalone="no"?>
<!DOCTYPE svg PUBLIC "-//W3C//DTD SVG 1.1//EN"
 "http://www.w3.org/Graphics/SVG/1.1/DTD/svg11.dtd">
<!-- Generated by graphviz version 9.0.0 (20230911.1827)
 -->
<!-- Title: src/RenderState.cpp Pages: 1 -->
<!--zoomable 420 -->

<svg id="main" version="1.1" xmlns="http://www.w3.org/2000/svg" xmlns:xlink="http://www.w3.org/1999/xlink" xml:space="preserve" onload="init(evt)">
<style type="text/css"><![CDATA[
.node, .edge {opacity: 0.7;}
.node.selected, .edge.selected {opacity: 1;}
.edge:hover path { stroke: red; }
.edge:hover polygon { stroke: red; fill: red; }
]]></style>

<defs>
  <circle id="rim" cx="0" cy="0" r="7"/>
  <circle id="rim2" cx="0" cy="0" r="3.5"/>
  <g id="zoomPlus">
    <use xlink:href="#rim" fill="#404040"><set attributeName="fill" to="#808080" begin="zoomplus.mouseover" end="zoomplus.mouseout"/></use>
    <path d="M-4,0h8M0,-4v8" fill="none" stroke="white" stroke-width="1.5" pointer-events="none"/>
  </g>
  <g id="zoomMin">
    <use xlink:href="#rim" fill="#404040"><set attributeName="fill" to="#808080" begin="zoomminus.mouseover" end="zoomminus.mouseout"/></use>
    <path d="M-4,0h8" fill="none" stroke="white" stroke-width="1.5" pointer-events="none"/>
  </g>
  <g id="arrowUp" transform="translate(30 24)">
    <use xlink:href="#rim"/>
    <path pointer-events="none" fill="none" stroke="white" stroke-width="1.5" d="M0,-3.0v7 M-2.5,-0.5L0,-3.0L2.5,-0.5"/>
  </g>
  <g id="arrowRight" transform="rotate(90) translate(36 -43)">
    <use xlink:href="#rim"/>
    <path pointer-events="none" fill="none" stroke="white" stroke-width="1.5" d="M0,-3.0v7 M-2.5,-0.5L0,-3.0L2.5,-0.5"/>
  </g>
  <g id="arrowDown" transform="rotate(180) translate(-30 -48)">
    <use xlink:href="#rim"/>
    <path pointer-events="none" fill="none" stroke="white" stroke-width="1.5" d="M0,-3.0v7 M-2.5,-0.5L0,-3.0L2.5,-0.5"/>
  </g>
  <g id="arrowLeft" transform="rotate(270) translate(-36 17)">
    <use xlink:href="#rim"/>
    <path pointer-events="none" fill="none" stroke="white" stroke-width="1.5" d="M0,-3.0v7 M-2.5,-0.5L0,-3.0L2.5,-0.5"/>
  </g>
  <g id="resetDef">
    <use xlink:href="#rim2" fill="#404040"><set attributeName="fill" to="#808080" begin="reset.mouseover" end="reset.mouseout"/></use>
  </g>
</defs>
<script type="application/ecmascript">
var viewWidth = 2964;
var viewHeight = 420;
var sectionId = 'dynsection-0';
</script>
<script type="application/ecmascript" xlink:href="svg.min.js"/>
<svg id="graph" class="graph">
<g id="viewport">
<title>src/RenderState.cpp</title>
<!-- Node1 -->
<g id="Node000001" class="node">
<title>Node1</title>
<g id="a_Node000001"><a xlink:title=" ">
<polygon fill="#999999" stroke="#666666" points="2520,-412 2414.75,-412 2414.75,-392 2520,-392 2520,-412"/>
<text text-anchor="middle" x="2467.38" y="-398.5" font-family="Helvetica,sans-Serif" font-size="10.00">src/RenderState.cpp</text>
</a>
</g>
</g>
<!-- Node2 -->
<g id="Node000002" class="node">
<title>Node2</title>
<g id="a_Node000002"><a xlink:href="pch_8h.html" target="_top" xlink:title=" ">
<polygon fill="white" stroke="#666666" points="2463.38,-356 2423.38,-356 2423.38,-336 2463.38,-336 2463.38,-356"/>
<text text-anchor="middle" x="2443.38" y="-342.5" font-family="Helvetica,sans-Serif" font-size="10.00">pch.h</text>
</a>
</g>
</g>
<!-- Node1&#45;&gt;Node2 -->
<g id="edge1_Node000001_Node000002" class="edge">
<title>Node1&#45;&gt;Node2</title>
<g id="a_edge1_Node000001_Node000002"><a xlink:title=" ">
<path fill="none" stroke="#63b8ff" d="M2463.19,-391.59C2460.13,-384.7 2455.86,-375.1 2452.07,-366.57"/>
<polygon fill="#63b8ff" stroke="#63b8ff" points="2455.38,-365.4 2448.12,-357.68 2448.99,-368.24 2455.38,-365.4"/>
</a>
</g>
</g>
<!-- Node36 -->
<g id="Node000036" class="node">
<title>Node36</title>
<g id="a_Node000036"><a xlink:href="_render_state_8h.html" target="_top" xlink:title=" ">
<polygon fill="white" stroke="#666666" points="2706.5,-20 2628.25,-20 2628.25,0 2706.5,0 2706.5,-20"/>
<text text-anchor="middle" x="2667.38" y="-6.5" font-family="Helvetica,sans-Serif" font-size="10.00">RenderState.h</text>
</a>
</g>
</g>
<!-- Node1&#45;&gt;Node36 -->
<g id="edge62_Node000001_Node000036" class="edge">
<title>Node1&#45;&gt;Node36</title>
<g id="a_edge62_Node000001_Node000036"><a xlink:title=" ">
<path fill="none" stroke="#63b8ff" d="M2520.17,-400.2C2646.62,-396.87 2956.38,-379.65 2956.38,-291 2956.38,-291 2956.38,-291 2956.38,-121 2956.38,-70.62 2801.06,-34.99 2718.15,-19.56"/>
<polygon fill="#63b8ff" stroke="#63b8ff" points="2718.91,-16.14 2708.44,-17.79 2717.65,-23.03 2718.91,-16.14"/>
</a>
</g>
</g>
<!-- Node3 -->
<g id="Node000003" class="node">
<title>Node3</title>
<g id="a_Node000003"><a xlink:href="_game_engine_8h.html" target="_top" xlink:title=" ">
<polygon fill="white" stroke="#666666" points="2018.62,-300 1938.12,-300 1938.12,-280 2018.62,-280 2018.62,-300"/>
<text text-anchor="middle" x="1978.38" y="-286.5" font-family="Helvetica,sans-Serif" font-size="10.00">GameEngine.h</text>
</a>
</g>
</g>
<!-- Node2&#45;&gt;Node3 -->
<g id="edge2_Node000002_Node000003" class="edge">
<title>Node2&#45;&gt;Node3</title>
<g id="a_edge2_Node000002_Node000003"><a xlink:title=" ">
<path fill="none" stroke="#63b8ff" d="M2423.1,-342.64C2354.84,-334.72 2132.06,-308.85 2030.13,-297.01"/>
<polygon fill="#63b8ff" stroke="#63b8ff" points="2030.74,-293.56 2020.4,-295.88 2029.93,-300.51 2030.74,-293.56"/>
</a>
</g>
</g>
<!-- Node4 -->
<g id="Node000004" class="node">
<title>Node4</title>
<g id="a_Node000004"><a xlink:title=" ">
<polygon fill="#e0e0e0" stroke="#999999" points="2784.25,-244 2704.5,-244 2704.5,-224 2784.25,-224 2784.25,-244"/>
<text text-anchor="middle" x="2744.38" y="-230.5" font-family="Helvetica,sans-Serif" font-size="10.00">SDKDDKVer.h</text>
</a>
</g>
</g>
<!-- Node3&#45;&gt;Node4 -->
<g id="edge3_Node000003_Node000004" class="edge">
<title>Node3&#45;&gt;Node4</title>
<g id="a_edge3_Node000003_Node000004"><a xlink:title=" ">
<path fill="none" stroke="#63b8ff" d="M2019.04,-287.88C2128.09,-284.57 2435.97,-273.16 2690.38,-244 2691.21,-243.9 2692.05,-243.81 2692.89,-243.7"/>
<polygon fill="#63b8ff" stroke="#63b8ff" points="2693.1,-247.21 2702.54,-242.39 2692.16,-240.27 2693.1,-247.21"/>
</a>
</g>
</g>
<!-- Node5 -->
<g id="Node000005" class="node">
<title>Node5</title>
<g id="a_Node000005"><a xlink:title=" ">
<polygon fill="#e0e0e0" stroke="#999999" points="2862.88,-244 2801.88,-244 2801.88,-224 2862.88,-224 2862.88,-244"/>
<text text-anchor="middle" x="2832.38" y="-230.5" font-family="Helvetica,sans-Serif" font-size="10.00">windows.h</text>
</a>
</g>
</g>
<!-- Node3&#45;&gt;Node5 -->
<g id="edge4_Node000003_Node000005" class="edge">
<title>Node3&#45;&gt;Node5</title>
<g id="a_edge4_Node000003_Node000005"><a xlink:title=" ">
<path fill="none" stroke="#63b8ff" d="M2018.9,-289.21C2136.75,-289.32 2489.63,-285.95 2790.26,-244.22"/>
<polygon fill="#63b8ff" stroke="#63b8ff" points="2790.47,-247.73 2799.89,-242.87 2789.5,-240.8 2790.47,-247.73"/>
</a>
</g>
</g>
<!-- Node6 -->
<g id="Node000006" class="node">
<title>Node6</title>
<g id="a_Node000006"><a xlink:title=" ">
<polygon fill="#e0e0e0" stroke="#999999" points="2928.12,-244 2880.62,-244 2880.62,-224 2928.12,-224 2928.12,-244"/>
<text text-anchor="middle" x="2904.38" y="-230.5" font-family="Helvetica,sans-Serif" font-size="10.00">stdlib.h</text>
</a>
</g>
</g>
<!-- Node3&#45;&gt;Node6 -->
<g id="edge5_Node000003_Node000006" class="edge">
<title>Node3&#45;&gt;Node6</title>
<g id="a_edge5_Node000003_Node000006"><a xlink:title=" ">
<path fill="none" stroke="#63b8ff" d="M2019,-288.16C2167.69,-284.91 2682.9,-272 2869.13,-244.14"/>
<polygon fill="#63b8ff" stroke="#63b8ff" points="2869.56,-247.61 2878.9,-242.6 2868.47,-240.7 2869.56,-247.61"/>
</a>
</g>
</g>
<!-- Node7 -->
<g id="Node000007" class="node">
<title>Node7</title>
<g id="a_Node000007"><a xlink:title=" ">
<polygon fill="#e0e0e0" stroke="#999999" points="52.75,-244 0,-244 0,-224 52.75,-224 52.75,-244"/>
<text text-anchor="middle" x="26.38" y="-230.5" font-family="Helvetica,sans-Serif" font-size="10.00">malloc.h</text>
</a>
</g>
</g>
<!-- Node3&#45;&gt;Node7 -->
<g id="edge6_Node000003_Node000007" class="edge">
<title>Node3&#45;&gt;Node7</title>
<g id="a_edge6_Node000003_Node000007"><a xlink:title=" ">
<path fill="none" stroke="#63b8ff" d="M1937.72,-288.6C1682.21,-286.03 301.4,-271.06 64.32,-243.94"/>
<polygon fill="#63b8ff" stroke="#63b8ff" points="64.86,-240.48 54.5,-242.7 63.99,-247.43 64.86,-240.48"/>
</a>
</g>
</g>
<!-- Node8 -->
<g id="Node000008" class="node">
<title>Node8</title>
<g id="a_Node000008"><a xlink:title=" ">
<polygon fill="#e0e0e0" stroke="#999999" points="130.12,-244 70.62,-244 70.62,-224 130.12,-224 130.12,-244"/>
<text text-anchor="middle" x="100.38" y="-230.5" font-family="Helvetica,sans-Serif" font-size="10.00">memory.h</text>
</a>
</g>
</g>
<!-- Node3&#45;&gt;Node8 -->
<g id="edge7_Node000003_Node000008" class="edge">
<title>Node3&#45;&gt;Node8</title>
<g id="a_edge7_Node000003_Node000008"><a xlink:title=" ">
<path fill="none" stroke="#63b8ff" d="M1937.76,-289.12C1704.01,-289.66 527.64,-290.09 141.69,-243.96"/>
<polygon fill="#63b8ff" stroke="#63b8ff" points="142.36,-240.52 132,-242.77 141.5,-247.47 142.36,-240.52"/>
</a>
</g>
</g>
<!-- Node9 -->
<g id="Node000009" class="node">
<title>Node9</title>
<g id="a_Node000009"><a xlink:title=" ">
<polygon fill="#e0e0e0" stroke="#999999" points="194.38,-244 148.38,-244 148.38,-224 194.38,-224 194.38,-244"/>
<text text-anchor="middle" x="171.38" y="-230.5" font-family="Helvetica,sans-Serif" font-size="10.00">tchar.h</text>
</a>
</g>
</g>
<!-- Node3&#45;&gt;Node9 -->
<g id="edge8_Node000003_Node000009" class="edge">
<title>Node3&#45;&gt;Node9</title>
<g id="a_edge8_Node000003_Node000009"><a xlink:title=" ">
<path fill="none" stroke="#63b8ff" d="M1937.96,-288.58C1694.54,-285.96 426.87,-271.18 205.78,-243.79"/>
<polygon fill="#63b8ff" stroke="#63b8ff" points="206.53,-240.36 196.15,-242.47 205.58,-247.3 206.53,-240.36"/>
</a>
</g>
</g>
<!-- Node10 -->
<g id="Node000010" class="node">
<title>Node10</title>
<g id="a_Node000010"><a xlink:title=" ">
<polygon fill="#e0e0e0" stroke="#999999" points="274.25,-244 212.5,-244 212.5,-224 274.25,-224 274.25,-244"/>
<text text-anchor="middle" x="243.38" y="-230.5" font-family="Helvetica,sans-Serif" font-size="10.00">resource.h</text>
</a>
</g>
</g>
<!-- Node3&#45;&gt;Node10 -->
<g id="edge9_Node000003_Node000010" class="edge">
<title>Node3&#45;&gt;Node10</title>
<g id="a_edge9_Node000003_Node000010"><a xlink:title=" ">
<path fill="none" stroke="#63b8ff" d="M1937.69,-288.99C1715.05,-288.81 641.63,-285.78 286.04,-244.03"/>
<polygon fill="#63b8ff" stroke="#63b8ff" points="286.57,-240.57 276.22,-242.84 285.72,-247.52 286.57,-240.57"/>
</a>
</g>
</g>
<!-- Node11 -->
<g id="Node000011" class="node">
<title>Node11</title>
<g id="a_Node000011"><a xlink:title=" ">
<polygon fill="#e0e0e0" stroke="#999999" points="338,-244 292.75,-244 292.75,-224 338,-224 338,-244"/>
<text text-anchor="middle" x="315.38" y="-230.5" font-family="Helvetica,sans-Serif" font-size="10.00">chrono</text>
</a>
</g>
</g>
<!-- Node3&#45;&gt;Node11 -->
<g id="edge10_Node000003_Node000011" class="edge">
<title>Node3&#45;&gt;Node11</title>
<g id="a_edge10_Node000003_Node000011"><a xlink:title=" ">
<path fill="none" stroke="#63b8ff" d="M1937.72,-289.28C1720.09,-290.57 690.17,-293.99 349.59,-244.07"/>
<polygon fill="#63b8ff" stroke="#63b8ff" points="350.16,-240.62 339.75,-242.57 349.11,-247.54 350.16,-240.62"/>
</a>
</g>
</g>
<!-- Node12 -->
<g id="Node000012" class="node">
<title>Node12</title>
<g id="a_Node000012"><a xlink:title=" ">
<polygon fill="#e0e0e0" stroke="#999999" points="397.12,-244 355.62,-244 355.62,-224 397.12,-224 397.12,-244"/>
<text text-anchor="middle" x="376.38" y="-230.5" font-family="Helvetica,sans-Serif" font-size="10.00">vector</text>
</a>
</g>
</g>
<!-- Node3&#45;&gt;Node12 -->
<g id="edge11_Node000003_Node000012" class="edge">
<title>Node3&#45;&gt;Node12</title>
<g id="a_edge11_Node000003_Node000012"><a xlink:title=" ">
<path fill="none" stroke="#63b8ff" d="M1937.81,-289.28C1725.15,-290.52 736.54,-293.58 408.44,-243.81"/>
<polygon fill="#63b8ff" stroke="#63b8ff" points="409.44,-240.42 399.01,-242.33 408.35,-247.34 409.44,-240.42"/>
</a>
</g>
</g>
<!-- Node13 -->
<g id="Node000013" class="node">
<title>Node13</title>
<g id="a_Node000013"><a xlink:title=" ">
<polygon fill="#e0e0e0" stroke="#999999" points="469.12,-244 415.62,-244 415.62,-224 469.12,-224 469.12,-244"/>
<text text-anchor="middle" x="442.38" y="-230.5" font-family="Helvetica,sans-Serif" font-size="10.00">iostream</text>
</a>
</g>
</g>
<!-- Node3&#45;&gt;Node13 -->
<g id="edge12_Node000003_Node000013" class="edge">
<title>Node3&#45;&gt;Node13</title>
<g id="a_edge12_Node000003_Node000013"><a xlink:title=" ">
<path fill="none" stroke="#63b8ff" d="M1937.66,-288.96C1730.9,-288.59 795.17,-284.71 480.75,-243.94"/>
<polygon fill="#63b8ff" stroke="#63b8ff" points="481.26,-240.48 470.88,-242.61 480.32,-247.42 481.26,-240.48"/>
</a>
</g>
</g>
<!-- Node14 -->
<g id="Node000014" class="node">
<title>Node14</title>
<g id="a_Node000014"><a xlink:title=" ">
<polygon fill="#e0e0e0" stroke="#999999" points="535.5,-244 487.25,-244 487.25,-224 535.5,-224 535.5,-244"/>
<text text-anchor="middle" x="511.38" y="-230.5" font-family="Helvetica,sans-Serif" font-size="10.00">fstream</text>
</a>
</g>
</g>
<!-- Node3&#45;&gt;Node14 -->
<g id="edge13_Node000003_Node000014" class="edge">
<title>Node3&#45;&gt;Node14</title>
<g id="a_edge13_Node000003_Node000014"><a xlink:title=" ">
<path fill="none" stroke="#63b8ff" d="M1937.77,-289.01C1736.81,-288.88 846.81,-285.97 547.02,-243.97"/>
<polygon fill="#63b8ff" stroke="#63b8ff" points="547.64,-240.53 537.24,-242.55 546.64,-247.45 547.64,-240.53"/>
</a>
</g>
</g>
<!-- Node15 -->
<g id="Node000015" class="node">
<title>Node15</title>
<g id="a_Node000015"><a xlink:title=" ">
<polygon fill="#e0e0e0" stroke="#999999" points="613.5,-244 553.25,-244 553.25,-224 613.5,-224 613.5,-244"/>
<text text-anchor="middle" x="583.38" y="-230.5" font-family="Helvetica,sans-Serif" font-size="10.00">filesystem</text>
</a>
</g>
</g>
<!-- Node3&#45;&gt;Node15 -->
<g id="edge14_Node000003_Node000015" class="edge">
<title>Node3&#45;&gt;Node15</title>
<g id="a_edge14_Node000003_Node000015"><a xlink:title=" ">
<path fill="none" stroke="#63b8ff" d="M1937.75,-288.71C1743.63,-287.18 908.72,-278.73 625,-244.04"/>
<polygon fill="#63b8ff" stroke="#63b8ff" points="625.79,-240.62 615.43,-242.83 624.91,-247.56 625.79,-240.62"/>
</a>
</g>
</g>
<!-- Node16 -->
<g id="Node000016" class="node">
<title>Node16</title>
<g id="a_Node000016"><a xlink:title=" ">
<polygon fill="#e0e0e0" stroke="#999999" points="683,-244 631.75,-244 631.75,-224 683,-224 683,-244"/>
<text text-anchor="middle" x="657.38" y="-230.5" font-family="Helvetica,sans-Serif" font-size="10.00">sstream</text>
</a>
</g>
</g>
<!-- Node3&#45;&gt;Node16 -->
<g id="edge15_Node000003_Node000016" class="edge">
<title>Node3&#45;&gt;Node16</title>
<g id="a_edge15_Node000003_Node000016"><a xlink:title=" ">
<path fill="none" stroke="#63b8ff" d="M1937.63,-288.76C1749.62,-287.48 963.95,-280.13 694.53,-243.9"/>
<polygon fill="#63b8ff" stroke="#63b8ff" points="695.13,-240.45 684.74,-242.53 694.16,-247.38 695.13,-240.45"/>
</a>
</g>
</g>
<!-- Node17 -->
<g id="Node000017" class="node">
<title>Node17</title>
<g id="a_Node000017"><a xlink:title=" ">
<polygon fill="#e0e0e0" stroke="#999999" points="783.75,-244 701,-244 701,-224 783.75,-224 783.75,-244"/>
<text text-anchor="middle" x="742.38" y="-230.5" font-family="Helvetica,sans-Serif" font-size="10.00">unordered_map</text>
</a>
</g>
</g>
<!-- Node3&#45;&gt;Node17 -->
<g id="edge16_Node000003_Node000017" class="edge">
<title>Node3&#45;&gt;Node17</title>
<g id="a_edge16_Node000003_Node000017"><a xlink:title=" ">
<path fill="none" stroke="#63b8ff" d="M1937.82,-289.46C1787.69,-290.76 1249.21,-291.66 795.43,-244.04"/>
<polygon fill="#63b8ff" stroke="#63b8ff" points="795.88,-240.57 785.56,-242.99 795.14,-247.53 795.88,-240.57"/>
</a>
</g>
</g>
<!-- Node18 -->
<g id="Node000018" class="node">
<title>Node18</title>
<g id="a_Node000018"><a xlink:title=" ">
<polygon fill="#e0e0e0" stroke="#999999" points="906.62,-244 802.12,-244 802.12,-224 906.62,-224 906.62,-244"/>
<text text-anchor="middle" x="854.38" y="-230.5" font-family="Helvetica,sans-Serif" font-size="10.00">assimp/Importer.hpp</text>
</a>
</g>
</g>
<!-- Node3&#45;&gt;Node18 -->
<g id="edge17_Node000003_Node000018" class="edge">
<title>Node3&#45;&gt;Node18</title>
<g id="a_edge17_Node000003_Node000018"><a xlink:title=" ">
<path fill="none" stroke="#63b8ff" d="M1937.72,-288.8C1797.58,-287.8 1321.53,-281.72 918.22,-244.17"/>
<polygon fill="#63b8ff" stroke="#63b8ff" points="918.7,-240.7 908.41,-243.25 918.04,-247.67 918.7,-240.7"/>
</a>
</g>
</g>
<!-- Node19 -->
<g id="Node000019" class="node">
<title>Node19</title>
<g id="a_Node000019"><a xlink:title=" ">
<polygon fill="#e0e0e0" stroke="#999999" points="1009.88,-244 924.88,-244 924.88,-224 1009.88,-224 1009.88,-244"/>
<text text-anchor="middle" x="967.38" y="-230.5" font-family="Helvetica,sans-Serif" font-size="10.00">assimp/scene.h</text>
</a>
</g>
</g>
<!-- Node3&#45;&gt;Node19 -->
<g id="edge18_Node000003_Node000019" class="edge">
<title>Node3&#45;&gt;Node19</title>
<g id="a_edge18_Node000003_Node000019"><a xlink:title=" ">
<path fill="none" stroke="#63b8ff" d="M1938.04,-288.9C1807.21,-288.2 1382.77,-282.96 1021.38,-244.06"/>
<polygon fill="#63b8ff" stroke="#63b8ff" points="1021.99,-240.61 1011.67,-243 1021.23,-247.57 1021.99,-240.61"/>
</a>
</g>
</g>
<!-- Node20 -->
<g id="Node000020" class="node">
<title>Node20</title>
<g id="a_Node000020"><a xlink:title=" ">
<polygon fill="#e0e0e0" stroke="#999999" points="1140.38,-244 1028.38,-244 1028.38,-224 1140.38,-224 1140.38,-244"/>
<text text-anchor="middle" x="1084.38" y="-230.5" font-family="Helvetica,sans-Serif" font-size="10.00">assimp/postprocess.h</text>
</a>
</g>
</g>
<!-- Node3&#45;&gt;Node20 -->
<g id="edge19_Node000003_Node000020" class="edge">
<title>Node3&#45;&gt;Node20</title>
<g id="a_edge19_Node000003_Node000020"><a xlink:title=" ">
<path fill="none" stroke="#63b8ff" d="M1937.74,-287.99C1818.71,-284.79 1460.28,-273.34 1152.11,-244.18"/>
<polygon fill="#63b8ff" stroke="#63b8ff" points="1152.51,-240.7 1142.22,-243.24 1151.84,-247.67 1152.51,-240.7"/>
</a>
</g>
</g>
<!-- Node21 -->
<g id="Node000021" class="node">
<title>Node21</title>
<g id="a_Node000021"><a xlink:title=" ">
<polygon fill="#e0e0e0" stroke="#999999" points="1303.88,-244 1158.88,-244 1158.88,-224 1303.88,-224 1303.88,-244"/>
<text text-anchor="middle" x="1231.38" y="-230.5" font-family="Helvetica,sans-Serif" font-size="10.00">directxtk\WICTextureLoader.h</text>
</a>
</g>
</g>
<!-- Node3&#45;&gt;Node21 -->
<g id="edge20_Node000003_Node000021" class="edge">
<title>Node3&#45;&gt;Node21</title>
<g id="a_edge20_Node000003_Node000021"><a xlink:title=" ">
<path fill="none" stroke="#63b8ff" d="M1937.85,-286.85C1835.53,-281.29 1558.23,-265.44 1315.41,-244.14"/>
<polygon fill="#63b8ff" stroke="#63b8ff" points="1316.01,-240.68 1305.74,-243.29 1315.4,-247.66 1316.01,-240.68"/>
</a>
</g>
</g>
<!-- Node22 -->
<g id="Node000022" class="node">
<title>Node22</title>
<g id="a_Node000022"><a xlink:title=" ">
<polygon fill="#e0e0e0" stroke="#999999" points="1386.75,-244 1322,-244 1322,-224 1386.75,-224 1386.75,-244"/>
<text text-anchor="middle" x="1354.38" y="-230.5" font-family="Helvetica,sans-Serif" font-size="10.00">wincodec.h</text>
</a>
</g>
</g>
<!-- Node3&#45;&gt;Node22 -->
<g id="edge21_Node000003_Node000022" class="edge">
<title>Node3&#45;&gt;Node22</title>
<g id="a_edge21_Node000003_Node000022"><a xlink:title=" ">
<path fill="none" stroke="#63b8ff" d="M1937.87,-287.81C1844.4,-284.65 1606.3,-274.25 1398.12,-244.22"/>
<polygon fill="#63b8ff" stroke="#63b8ff" points="1398.87,-240.79 1388.47,-242.8 1397.86,-247.71 1398.87,-240.79"/>
</a>
</g>
</g>
<!-- Node23 -->
<g id="Node000023" class="node">
<title>Node23</title>
<g id="a_Node000023"><a xlink:title=" ">
<polygon fill="#e0e0e0" stroke="#999999" points="1462.38,-244 1404.38,-244 1404.38,-224 1462.38,-224 1462.38,-244"/>
<text text-anchor="middle" x="1433.38" y="-230.5" font-family="Helvetica,sans-Serif" font-size="10.00">lodepng.h</text>
</a>
</g>
</g>
<!-- Node3&#45;&gt;Node23 -->
<g id="edge22_Node000003_Node000023" class="edge">
<title>Node3&#45;&gt;Node23</title>
<g id="a_edge22_Node000003_Node000023"><a xlink:title=" ">
<path fill="none" stroke="#63b8ff" d="M1937.71,-287.38C1853.12,-283.58 1651.91,-272.34 1473.9,-244.19"/>
<polygon fill="#63b8ff" stroke="#63b8ff" points="1474.67,-240.77 1464.24,-242.64 1473.56,-247.68 1474.67,-240.77"/>
</a>
</g>
</g>
<!-- Node24 -->
<g id="Node000024" class="node">
<title>Node24</title>
<g id="a_Node000024"><a xlink:title=" ">
<polygon fill="#e0e0e0" stroke="#999999" points="1530.62,-244 1480.12,-244 1480.12,-224 1530.62,-224 1530.62,-244"/>
<text text-anchor="middle" x="1505.38" y="-230.5" font-family="Helvetica,sans-Serif" font-size="10.00">d3d11.h</text>
</a>
</g>
</g>
<!-- Node3&#45;&gt;Node24 -->
<g id="edge23_Node000003_Node000024" class="edge">
<title>Node3&#45;&gt;Node24</title>
<g id="a_edge23_Node000003_Node000024"><a xlink:title=" ">
<path fill="none" stroke="#63b8ff" d="M1937.63,-286.85C1861.72,-282.41 1693.36,-270.49 1541.78,-243.97"/>
<polygon fill="#63b8ff" stroke="#63b8ff" points="1542.84,-240.6 1532.38,-242.3 1541.62,-247.49 1542.84,-240.6"/>
</a>
</g>
</g>
<!-- Node25 -->
<g id="Node000025" class="node">
<title>Node25</title>
<g id="a_Node000025"><a xlink:title=" ">
<polygon fill="#e0e0e0" stroke="#999999" points="1625.75,-244 1549,-244 1549,-224 1625.75,-224 1625.75,-244"/>
<text text-anchor="middle" x="1587.38" y="-230.5" font-family="Helvetica,sans-Serif" font-size="10.00">DirectXMath.h</text>
</a>
</g>
</g>
<!-- Node3&#45;&gt;Node25 -->
<g id="edge24_Node000003_Node000025" class="edge">
<title>Node3&#45;&gt;Node25</title>
<g id="a_edge24_Node000003_Node000025"><a xlink:title=" ">
<path fill="none" stroke="#63b8ff" d="M1937.75,-284.47C1875.29,-277.34 1751.68,-262.55 1637.13,-244.37"/>
<polygon fill="#63b8ff" stroke="#63b8ff" points="1637.99,-240.96 1627.57,-242.84 1636.89,-247.87 1637.99,-240.96"/>
</a>
</g>
</g>
<!-- Node26 -->
<g id="Node000026" class="node">
<title>Node26</title>
<g id="a_Node000026"><a xlink:title=" ">
<polygon fill="#e0e0e0" stroke="#999999" points="1723.25,-244 1643.5,-244 1643.5,-224 1723.25,-224 1723.25,-244"/>
<text text-anchor="middle" x="1683.38" y="-230.5" font-family="Helvetica,sans-Serif" font-size="10.00">D3Dcompiler.h</text>
</a>
</g>
</g>
<!-- Node3&#45;&gt;Node26 -->
<g id="edge25_Node000003_Node000026" class="edge">
<title>Node3&#45;&gt;Node26</title>
<g id="a_edge25_Node000003_Node000026"><a xlink:title=" ">
<path fill="none" stroke="#63b8ff" d="M1937.89,-281.6C1891.33,-273.09 1812.27,-258.64 1734.45,-244.38"/>
<polygon fill="#63b8ff" stroke="#63b8ff" points="1735.44,-241 1724.97,-242.64 1734.18,-247.89 1735.44,-241"/>
</a>
</g>
</g>
<!-- Node27 -->
<g id="Node000027" class="node">
<title>Node27</title>
<g id="a_Node000027"><a xlink:title=" ">
<polygon fill="#e0e0e0" stroke="#999999" points="1797.25,-244 1741.5,-244 1741.5,-224 1797.25,-224 1797.25,-244"/>
<text text-anchor="middle" x="1769.38" y="-230.5" font-family="Helvetica,sans-Serif" font-size="10.00">d2d1_2.h</text>
</a>
</g>
</g>
<!-- Node3&#45;&gt;Node27 -->
<g id="edge26_Node000003_Node000027" class="edge">
<title>Node3&#45;&gt;Node27</title>
<g id="a_edge26_Node000003_Node000027"><a xlink:title=" ">
<path fill="none" stroke="#63b8ff" d="M1941.97,-279.59C1904.61,-269.94 1846.68,-254.97 1808.39,-245.08"/>
<polygon fill="#63b8ff" stroke="#63b8ff" points="1809.69,-241.8 1799.13,-242.69 1807.94,-248.58 1809.69,-241.8"/>
</a>
</g>
</g>
<!-- Node28 -->
<g id="Node000028" class="node">
<title>Node28</title>
<g id="a_Node000028"><a xlink:title=" ">
<polygon fill="#e0e0e0" stroke="#999999" points="1871.25,-244 1815.5,-244 1815.5,-224 1871.25,-224 1871.25,-244"/>
<text text-anchor="middle" x="1843.38" y="-230.5" font-family="Helvetica,sans-Serif" font-size="10.00">d2d1_1.h</text>
</a>
</g>
</g>
<!-- Node3&#45;&gt;Node28 -->
<g id="edge27_Node000003_Node000028" class="edge">
<title>Node3&#45;&gt;Node28</title>
<g id="a_edge27_Node000003_Node000028"><a xlink:title=" ">
<path fill="none" stroke="#63b8ff" d="M1954.86,-279.59C1933.5,-271.05 1901.74,-258.35 1877.58,-248.68"/>
<polygon fill="#63b8ff" stroke="#63b8ff" points="1879.06,-245.51 1868.48,-245.04 1876.46,-252.01 1879.06,-245.51"/>
</a>
</g>
</g>
<!-- Node29 -->
<g id="Node000029" class="node">
<title>Node29</title>
<g id="a_Node000029"><a xlink:title=" ">
<polygon fill="#e0e0e0" stroke="#999999" points="1935,-244 1889.75,-244 1889.75,-224 1935,-224 1935,-244"/>
<text text-anchor="middle" x="1912.38" y="-230.5" font-family="Helvetica,sans-Serif" font-size="10.00">d2d1.h</text>
</a>
</g>
</g>
<!-- Node3&#45;&gt;Node29 -->
<g id="edge28_Node000003_Node000029" class="edge">
<title>Node3&#45;&gt;Node29</title>
<g id="a_edge28_Node000003_Node000029"><a xlink:title=" ">
<path fill="none" stroke="#63b8ff" d="M1966.88,-279.59C1957.41,-271.85 1943.77,-260.69 1932.5,-251.47"/>
<polygon fill="#63b8ff" stroke="#63b8ff" points="1934.87,-248.88 1924.91,-245.26 1930.43,-254.3 1934.87,-248.88"/>
</a>
</g>
</g>
<!-- Node30 -->
<g id="Node000030" class="node">
<title>Node30</title>
<g id="a_Node000030"><a xlink:title=" ">
<polygon fill="#e0e0e0" stroke="#999999" points="2003.25,-244 1953.5,-244 1953.5,-224 2003.25,-224 2003.25,-244"/>
<text text-anchor="middle" x="1978.38" y="-230.5" font-family="Helvetica,sans-Serif" font-size="10.00">dwrite.h</text>
</a>
</g>
</g>
<!-- Node3&#45;&gt;Node30 -->
<g id="edge29_Node000003_Node000030" class="edge">
<title>Node3&#45;&gt;Node30</title>
<g id="a_edge29_Node000003_Node000030"><a xlink:title=" ">
<path fill="none" stroke="#63b8ff" d="M1978.38,-279.59C1978.38,-273.01 1978.38,-263.96 1978.38,-255.73"/>
<polygon fill="#63b8ff" stroke="#63b8ff" points="1981.88,-255.81 1978.38,-245.81 1974.88,-255.81 1981.88,-255.81"/>
</a>
</g>
</g>
<!-- Node31 -->
<g id="Node000031" class="node">
<title>Node31</title>
<g id="a_Node000031"><a xlink:href="_win32_application_8h.html" target="_top" xlink:title=" ">
<polygon fill="white" stroke="#666666" points="2345.38,-244 2245.38,-244 2245.38,-224 2345.38,-224 2345.38,-244"/>
<text text-anchor="middle" x="2295.38" y="-230.5" font-family="Helvetica,sans-Serif" font-size="10.00">Win32Application.h</text>
</a>
</g>
</g>
<!-- Node3&#45;&gt;Node31 -->
<g id="edge30_Node000003_Node000031" class="edge">
<title>Node3&#45;&gt;Node31</title>
<g id="a_edge30_Node000003_Node000031"><a xlink:title=" ">
<path fill="none" stroke="#63b8ff" d="M2018.89,-281.26C2073.34,-271.59 2170.35,-255.04 2233.82,-244.58"/>
<polygon fill="#63b8ff" stroke="#63b8ff" points="2234.08,-248.09 2243.38,-243.01 2232.95,-241.18 2234.08,-248.09"/>
</a>
</g>
</g>
<!-- Node32 -->
<g id="Node000032" class="node">
<title>Node32</title>
<g id="a_Node000032"><a xlink:href="_direct_x_manager_8h.html" target="_top" xlink:title=" ">
<polygon fill="white" stroke="#666666" points="2299.62,-188 2207.12,-188 2207.12,-168 2299.62,-168 2299.62,-188"/>
<text text-anchor="middle" x="2253.38" y="-174.5" font-family="Helvetica,sans-Serif" font-size="10.00">DirectXManager.h</text>
</a>
</g>
</g>
<!-- Node3&#45;&gt;Node32 -->
<g id="edge54_Node000003_Node000032" class="edge">
<title>Node3&#45;&gt;Node32</title>
<g id="a_edge54_Node000003_Node000032"><a xlink:title=" ">
<path fill="none" stroke="#63b8ff" d="M2019.11,-284.41C2058.49,-279.01 2118.74,-267.58 2166.38,-244 2190.77,-231.93 2214.11,-210.77 2230.77,-195.88"/>
<polygon fill="#63b8ff" stroke="#63b8ff" points="2232.99,-198.59 2238.17,-189.35 2228.36,-193.34 2232.99,-198.59"/>
</a>
</g>
</g>
<!-- Node33 -->
<g id="Node000033" class="node">
<title>Node33</title>
<g id="a_Node000033"><a xlink:href="_camera_8h.html" target="_top" xlink:title=" ">
<polygon fill="white" stroke="#666666" points="2121.38,-132 2063.38,-132 2063.38,-112 2121.38,-112 2121.38,-132"/>
<text text-anchor="middle" x="2092.38" y="-118.5" font-family="Helvetica,sans-Serif" font-size="10.00">Camera.h</text>
</a>
</g>
</g>
<!-- Node3&#45;&gt;Node33 -->
<g id="edge55_Node000003_Node000033" class="edge">
<title>Node3&#45;&gt;Node33</title>
<g id="a_edge55_Node000003_Node000033"><a xlink:title=" ">
<path fill="none" stroke="#63b8ff" d="M2002,-279.65C2019.03,-272.66 2040.97,-261.29 2054.38,-244 2077.35,-214.37 2082.5,-169.28 2086.24,-143.33"/>
<polygon fill="#63b8ff" stroke="#63b8ff" points="2089.65,-144.2 2087.8,-133.77 2082.74,-143.08 2089.65,-144.2"/>
</a>
</g>
</g>
<!-- Node34 -->
<g id="Node000034" class="node">
<title>Node34</title>
<g id="a_Node000034"><a xlink:href="_graphics_device_8h.html" target="_top" xlink:title=" ">
<polygon fill="white" stroke="#666666" points="2141.25,-76 2049.5,-76 2049.5,-56 2141.25,-56 2141.25,-76"/>
<text text-anchor="middle" x="2095.38" y="-62.5" font-family="Helvetica,sans-Serif" font-size="10.00">GraphicsDevice.h</text>
</a>
</g>
</g>
<!-- Node3&#45;&gt;Node34 -->
<g id="edge56_Node000003_Node000034" class="edge">
<title>Node3&#45;&gt;Node34</title>
<g id="a_edge56_Node000003_Node000034"><a xlink:title=" ">
<path fill="none" stroke="#63b8ff" d="M1979.93,-279.64C1985.55,-270.96 1996.44,-257.39 2003.38,-244 2031.67,-189.32 2014.6,-165.32 2045.38,-112 2051.4,-101.56 2060.19,-91.5 2068.88,-83.54"/>
<polygon fill="#63b8ff" stroke="#63b8ff" points="2070.87,-86.44 2076.27,-77.33 2066.37,-81.08 2070.87,-86.44"/>
</a>
</g>
</g>
<!-- Node35 -->
<g id="Node000035" class="node">
<title>Node35</title>
<g id="a_Node000035"><a xlink:href="_mesh_8h.html" target="_top" xlink:title=" ">
<polygon fill="white" stroke="#666666" points="2187.5,-132 2139.25,-132 2139.25,-112 2187.5,-112 2187.5,-132"/>
<text text-anchor="middle" x="2163.38" y="-118.5" font-family="Helvetica,sans-Serif" font-size="10.00">Mesh.h</text>
</a>
</g>
</g>
<!-- Node3&#45;&gt;Node35 -->
<g id="edge58_Node000003_Node000035" class="edge">
<title>Node3&#45;&gt;Node35</title>
<g id="a_edge58_Node000003_Node000035"><a xlink:title=" ">
<path fill="none" stroke="#63b8ff" d="M2012.77,-279.54C2034.85,-272.7 2062.93,-261.51 2083.38,-244 2116.24,-215.86 2137.68,-168.52 2150.73,-142.17"/>
<polygon fill="#63b8ff" stroke="#63b8ff" points="2153.67,-144.12 2155.13,-133.62 2147.44,-140.91 2153.67,-144.12"/>
</a>
</g>
</g>
<!-- Node3&#45;&gt;Node36 -->
<g id="edge60_Node000003_Node000036" class="edge">
<title>Node3&#45;&gt;Node36</title>
<g id="a_edge60_Node000003_Node000036"><a xlink:title=" ">
<path fill="none" stroke="#63b8ff" d="M2018.85,-289.61C2107.03,-289.86 2321.95,-285.46 2496.38,-244 2571.85,-226.06 2658.38,-256.58 2658.38,-179 2658.38,-179 2658.38,-179 2658.38,-121 2658.38,-89.87 2658.38,-53.78 2660.7,-31.68"/>
<polygon fill="#63b8ff" stroke="#63b8ff" points="2664.14,-32.32 2662.13,-21.91 2657.22,-31.3 2664.14,-32.32"/>
</a>
</g>
</g>
<!-- Node37 -->
<g id="Node000037" class="node">
<title>Node37</title>
<g id="a_Node000037"><a xlink:href="_shader_program_8h.html" target="_top" xlink:title=" ">
<polygon fill="white" stroke="#666666" points="2422.25,-20 2330.5,-20 2330.5,0 2422.25,0 2422.25,-20"/>
<text text-anchor="middle" x="2376.38" y="-6.5" font-family="Helvetica,sans-Serif" font-size="10.00">ShaderProgram.h</text>
</a>
</g>
</g>
<!-- Node3&#45;&gt;Node37 -->
<g id="edge61_Node000003_Node000037" class="edge">
<title>Node3&#45;&gt;Node37</title>
<g id="a_edge61_Node000003_Node000037"><a xlink:title=" ">
<path fill="none" stroke="#63b8ff" d="M2018.85,-286.72C2109.62,-281.51 2322.62,-267.33 2345.38,-244 2402.04,-185.9 2383.67,-76.61 2377.14,-31.39"/>
<polygon fill="#63b8ff" stroke="#63b8ff" points="2380.64,-31.16 2375.86,-21.7 2373.7,-32.08 2380.64,-31.16"/>
</a>
</g>
</g>
<!-- Node39 -->
<g id="Node000039" class="node">
<title>Node39</title>
<g id="a_Node000039"><a xlink:href="_material_8h.html" target="_top" xlink:title=" ">
<polygon fill="white" stroke="#666666" points="2551.75,-76 2493,-76 2493,-56 2551.75,-56 2551.75,-76"/>
<text text-anchor="middle" x="2522.38" y="-62.5" font-family="Helvetica,sans-Serif" font-size="10.00">Material.h</text>
</a>
</g>
</g>
<!-- Node3&#45;&gt;Node39 -->
<g id="edge57_Node000003_Node000039" class="edge">
<title>Node3&#45;&gt;Node39</title>
<g id="a_edge57_Node000003_Node000039"><a xlink:title=" ">
<path fill="none" stroke="#63b8ff" d="M2018.93,-288.47C2119.19,-286.67 2375.54,-278.74 2453.38,-244 2520.29,-214.14 2545.03,-199.15 2574.38,-132 2583.16,-111.9 2563.51,-94.13 2545.76,-82.27"/>
<polygon fill="#63b8ff" stroke="#63b8ff" points="2547.89,-79.48 2537.56,-77.12 2544.16,-85.41 2547.89,-79.48"/>
</a>
</g>
</g>
<!-- Node40 -->
<g id="Node000040" class="node">
<title>Node40</title>
<g id="a_Node000040"><a xlink:href="_model_8h.html" target="_top" xlink:title=" ">
<polygon fill="white" stroke="#666666" points="2463.62,-132 2413.12,-132 2413.12,-112 2463.62,-112 2463.62,-132"/>
<text text-anchor="middle" x="2438.38" y="-118.5" font-family="Helvetica,sans-Serif" font-size="10.00">Model.h</text>
</a>
</g>
</g>
<!-- Node3&#45;&gt;Node40 -->
<g id="edge59_Node000003_Node000040" class="edge">
<title>Node3&#45;&gt;Node40</title>
<g id="a_edge59_Node000003_Node000040"><a xlink:title=" ">
<path fill="none" stroke="#63b8ff" d="M2018.95,-287.09C2118.42,-282.31 2367.7,-268.39 2396.38,-244 2425.59,-219.16 2430.22,-171.23 2433.2,-143.74"/>
<polygon fill="#63b8ff" stroke="#63b8ff" points="2436.67,-144.24 2434.4,-133.89 2429.72,-143.39 2436.67,-144.24"/>
</a>
</g>
</g>
<!-- Node31&#45;&gt;Node3 -->
<g id="edge31_Node000031_Node000003" class="edge">
<title>Node31&#45;&gt;Node3</title>
<g id="a_edge31_Node000031_Node000003"><a xlink:title=" ">
<path fill="none" stroke="#63b8ff" d="M2244.95,-244.49C2186.04,-254.88 2089.28,-271.34 2029.9,-281.07"/>
<polygon fill="#63b8ff" stroke="#63b8ff" points="2029.71,-277.55 2020.4,-282.61 2030.84,-284.46 2029.71,-277.55"/>
</a>
</g>
</g>
<!-- Node31&#45;&gt;Node32 -->
<g id="edge32_Node000031_Node000032" class="edge">
<title>Node31&#45;&gt;Node32</title>
<g id="a_edge32_Node000031_Node000032"><a xlink:title=" ">
<path fill="none" stroke="#63b8ff" d="M2288.06,-223.59C2282.4,-216.32 2274.39,-206.02 2267.49,-197.15"/>
<polygon fill="#63b8ff" stroke="#63b8ff" points="2270.44,-195.24 2261.54,-189.49 2264.91,-199.54 2270.44,-195.24"/>
</a>
</g>
</g>
<!-- Node32&#45;&gt;Node3 -->
<g id="edge33_Node000032_Node000003" class="edge">
<title>Node32&#45;&gt;Node3</title>
<g id="a_edge33_Node000032_Node000003"><a xlink:title=" ">
<path fill="none" stroke="#63b8ff" d="M2250.89,-188.12C2241.02,-202.33 2213.44,-229.61 2184.38,-244 2135.56,-268.17 2073.49,-279.57 2030.2,-284.81"/>
<polygon fill="#63b8ff" stroke="#63b8ff" points="2029.83,-281.32 2020.29,-285.92 2030.62,-288.28 2029.83,-281.32"/>
</a>
</g>
</g>
<!-- Node32&#45;&gt;Node33 -->
<g id="edge34_Node000032_Node000033" class="edge">
<title>Node32&#45;&gt;Node33</title>
<g id="a_edge34_Node000032_Node000033"><a xlink:title=" ">
<path fill="none" stroke="#63b8ff" d="M2225.33,-167.59C2199.29,-158.86 2160.27,-145.77 2131.23,-136.03"/>
<polygon fill="#63b8ff" stroke="#63b8ff" points="2132.67,-132.82 2122.07,-132.96 2130.44,-139.46 2132.67,-132.82"/>
</a>
</g>
</g>
<!-- Node32&#45;&gt;Node34 -->
<g id="edge36_Node000032_Node000034" class="edge">
<title>Node32&#45;&gt;Node34</title>
<g id="a_edge36_Node000032_Node000034"><a xlink:title=" ">
<path fill="none" stroke="#63b8ff" d="M2247.35,-167.91C2237.9,-154.22 2218.37,-128.2 2196.38,-112 2178.07,-98.52 2155.09,-87.88 2135.68,-80.34"/>
<polygon fill="#63b8ff" stroke="#63b8ff" points="2137.03,-77.11 2126.43,-76.89 2134.58,-83.66 2137.03,-77.11"/>
</a>
</g>
</g>
<!-- Node32&#45;&gt;Node35 -->
<g id="edge38_Node000032_Node000035" class="edge">
<title>Node32&#45;&gt;Node35</title>
<g id="a_edge38_Node000032_Node000035"><a xlink:title=" ">
<path fill="none" stroke="#63b8ff" d="M2237.7,-167.59C2224.23,-159.51 2204.56,-147.71 2188.83,-138.27"/>
<polygon fill="#63b8ff" stroke="#63b8ff" points="2190.85,-135.4 2180.47,-133.26 2187.25,-141.4 2190.85,-135.4"/>
</a>
</g>
</g>
<!-- Node32&#45;&gt;Node36 -->
<g id="edge41_Node000032_Node000036" class="edge">
<title>Node32&#45;&gt;Node36</title>
<g id="a_edge41_Node000032_Node000036"><a xlink:title=" ">
<path fill="none" stroke="#63b8ff" d="M2266.5,-167.68C2285.54,-154.39 2322.18,-129.64 2355.38,-112 2410.57,-82.67 2425.15,-75.98 2484.38,-56 2528.34,-41.17 2579.76,-28.96 2616.88,-21.02"/>
<polygon fill="#63b8ff" stroke="#63b8ff" points="2617.37,-24.49 2626.44,-19 2615.93,-17.64 2617.37,-24.49"/>
</a>
</g>
</g>
<!-- Node32&#45;&gt;Node37 -->
<g id="edge43_Node000032_Node000037" class="edge">
<title>Node32&#45;&gt;Node37</title>
<g id="a_edge43_Node000032_Node000037"><a xlink:title=" ">
<path fill="none" stroke="#63b8ff" d="M2252.54,-167.65C2251.1,-145.64 2250.51,-89.91 2277.38,-56 2289.07,-41.23 2306.7,-31.14 2323.84,-24.32"/>
<polygon fill="#63b8ff" stroke="#63b8ff" points="2324.78,-27.71 2332.98,-21 2322.39,-21.13 2324.78,-27.71"/>
</a>
</g>
</g>
<!-- Node38 -->
<g id="Node000038" class="node">
<title>Node38</title>
<g id="a_Node000038"><a xlink:href="_shader_manager_8h.html" target="_top" xlink:title=" ">
<polygon fill="white" stroke="#666666" points="2574.62,-132 2482.12,-132 2482.12,-112 2574.62,-112 2574.62,-132"/>
<text text-anchor="middle" x="2528.38" y="-118.5" font-family="Helvetica,sans-Serif" font-size="10.00">ShaderManager.h</text>
</a>
</g>
</g>
<!-- Node32&#45;&gt;Node38 -->
<g id="edge45_Node000032_Node000038" class="edge">
<title>Node32&#45;&gt;Node38</title>
<g id="a_edge45_Node000032_Node000038"><a xlink:title=" ">
<path fill="none" stroke="#63b8ff" d="M2300.03,-167.84C2347.18,-158.58 2420.14,-144.25 2470.85,-134.3"/>
<polygon fill="#63b8ff" stroke="#63b8ff" points="2471.33,-137.77 2480.47,-132.41 2469.98,-130.9 2471.33,-137.77"/>
</a>
</g>
</g>
<!-- Node32&#45;&gt;Node39 -->
<g id="edge47_Node000032_Node000039" class="edge">
<title>Node32&#45;&gt;Node39</title>
<g id="a_edge47_Node000032_Node000039"><a xlink:title=" ">
<path fill="none" stroke="#63b8ff" d="M2274.27,-167.68C2303.3,-154.79 2357.56,-130.99 2404.38,-112 2431.74,-100.9 2462.97,-89.02 2486.42,-80.26"/>
<polygon fill="#63b8ff" stroke="#63b8ff" points="2487.37,-83.65 2495.52,-76.88 2484.92,-77.09 2487.37,-83.65"/>
</a>
</g>
</g>
<!-- Node32&#45;&gt;Node40 -->
<g id="edge51_Node000032_Node000040" class="edge">
<title>Node32&#45;&gt;Node40</title>
<g id="a_edge51_Node000032_Node000040"><a xlink:title=" ">
<path fill="none" stroke="#63b8ff" d="M2285.6,-167.59C2318.06,-158.12 2368.06,-143.52 2401.94,-133.63"/>
<polygon fill="#63b8ff" stroke="#63b8ff" points="2402.7,-137.06 2411.31,-130.9 2400.73,-130.34 2402.7,-137.06"/>
</a>
</g>
</g>
<!-- Node33&#45;&gt;Node3 -->
<g id="edge35_Node000033_Node000003" class="edge">
<title>Node33&#45;&gt;Node3</title>
<g id="a_edge35_Node000033_Node000003"><a xlink:title=" ">
<path fill="none" stroke="#63b8ff" d="M2097.2,-132.28C2101.71,-154.12 2099.11,-209.52 2072.38,-244 2061.38,-258.18 2044.64,-268.38 2028.25,-275.45"/>
<polygon fill="#63b8ff" stroke="#63b8ff" points="2027.02,-272.18 2019,-279.1 2029.58,-278.69 2027.02,-272.18"/>
</a>
</g>
</g>
<!-- Node34&#45;&gt;Node3 -->
<g id="edge37_Node000034_Node000003" class="edge">
<title>Node34&#45;&gt;Node3</title>
<g id="a_edge37_Node000034_Node000003"><a xlink:title=" ">
<path fill="none" stroke="#63b8ff" d="M2091.67,-76.36C2084.35,-84.83 2071.41,-98.09 2063.38,-112 2032.6,-165.32 2049.67,-189.32 2021.38,-244 2016.34,-253.73 2009.21,-263.55 2002.03,-271.53"/>
<polygon fill="#63b8ff" stroke="#63b8ff" points="1999.61,-268.99 1995.07,-278.56 2004.59,-273.91 1999.61,-268.99"/>
</a>
</g>
</g>
<!-- Node35&#45;&gt;Node3 -->
<g id="edge39_Node000035_Node000003" class="edge">
<title>Node35&#45;&gt;Node3</title>
<g id="a_edge39_Node000035_Node000003"><a xlink:title=" ">
<path fill="none" stroke="#63b8ff" d="M2164.85,-132.28C2161.57,-154.6 2138.93,-211.84 2101.38,-244 2081.35,-261.14 2054.01,-272.23 2030.11,-279.11"/>
<polygon fill="#63b8ff" stroke="#63b8ff" points="2029.27,-275.71 2020.51,-281.68 2031.08,-282.48 2029.27,-275.71"/>
</a>
</g>
</g>
<!-- Node35&#45;&gt;Node34 -->
<g id="edge40_Node000035_Node000034" class="edge">
<title>Node35&#45;&gt;Node34</title>
<g id="a_edge40_Node000035_Node000034"><a xlink:title=" ">
<path fill="none" stroke="#63b8ff" d="M2151.53,-111.59C2141.68,-103.77 2127.44,-92.46 2115.77,-83.19"/>
<polygon fill="#63b8ff" stroke="#63b8ff" points="2118.28,-80.72 2108.27,-77.24 2113.92,-86.2 2118.28,-80.72"/>
</a>
</g>
</g>
<!-- Node36&#45;&gt;Node3 -->
<g id="edge42_Node000036_Node000003" class="edge">
<title>Node36&#45;&gt;Node3</title>
<g id="a_edge42_Node000036_Node000003"><a xlink:title=" ">
<path fill="none" stroke="#63b8ff" d="M2672.4,-20.42C2676.38,-39.43 2676.38,-83.76 2676.38,-121 2676.38,-179 2676.38,-179 2676.38,-179 2676.38,-256.58 2589.85,-226.06 2514.38,-244 2340.93,-285.23 2127.45,-289.8 2030.49,-289.61"/>
<polygon fill="#63b8ff" stroke="#63b8ff" points="2030.51,-286.11 2020.5,-289.57 2030.48,-293.11 2030.51,-286.11"/>
</a>
</g>
</g>
<!-- Node37&#45;&gt;Node3 -->
<g id="edge44_Node000037_Node000003" class="edge">
<title>Node37&#45;&gt;Node3</title>
<g id="a_edge44_Node000037_Node000003"><a xlink:title=" ">
<path fill="none" stroke="#63b8ff" d="M2382.39,-20.2C2397.43,-55.07 2425.5,-180.3 2363.38,-244 2340.77,-267.17 2130.4,-281.33 2030.45,-286.62"/>
<polygon fill="#63b8ff" stroke="#63b8ff" points="2030.44,-283.12 2020.63,-287.13 2030.8,-290.11 2030.44,-283.12"/>
</a>
</g>
</g>
<!-- Node38&#45;&gt;Node3 -->
<g id="edge46_Node000038_Node000003" class="edge">
<title>Node38&#45;&gt;Node3</title>
<g id="a_edge46_Node000038_Node000003"><a xlink:title=" ">
<path fill="none" stroke="#63b8ff" d="M2524.43,-132.35C2513.93,-155.9 2482.86,-217.64 2435.38,-244 2366.93,-282 2134.55,-288.18 2030.04,-289"/>
<polygon fill="#63b8ff" stroke="#63b8ff" points="2030.33,-285.5 2020.36,-289.06 2030.38,-292.5 2030.33,-285.5"/>
</a>
</g>
</g>
<!-- Node39&#45;&gt;Node3 -->
<g id="edge48_Node000039_Node000003" class="edge">
<title>Node39&#45;&gt;Node3</title>
<g id="a_edge48_Node000039_Node000003"><a xlink:title=" ">
<path fill="none" stroke="#63b8ff" d="M2549.19,-76.32C2573.26,-87.63 2602.79,-108.18 2592.38,-132 2563.03,-199.15 2538.29,-214.14 2471.38,-244 2394.05,-278.51 2140.51,-286.57 2030.23,-288.44"/>
<polygon fill="#63b8ff" stroke="#63b8ff" points="2030.22,-284.94 2020.27,-288.6 2030.33,-291.94 2030.22,-284.94"/>
</a>
</g>
</g>
<!-- Node39&#45;&gt;Node36 -->
<g id="edge50_Node000039_Node000036" class="edge">
<title>Node39&#45;&gt;Node36</title>
<g id="a_edge50_Node000039_Node000036"><a xlink:title=" ">
<path fill="none" stroke="#63b8ff" d="M2547.63,-55.59C2570.78,-46.97 2605.3,-34.12 2631.34,-24.42"/>
<polygon fill="#63b8ff" stroke="#63b8ff" points="2632.35,-27.78 2640.5,-21.01 2629.91,-21.22 2632.35,-27.78"/>
</a>
</g>
</g>
<!-- Node39&#45;&gt;Node37 -->
<g id="edge49_Node000039_Node000037" class="edge">
<title>Node39&#45;&gt;Node37</title>
<g id="a_edge49_Node000039_Node000037"><a xlink:title=" ">
<path fill="none" stroke="#63b8ff" d="M2496.94,-55.59C2473.64,-46.97 2438.88,-34.12 2412.66,-24.42"/>
<polygon fill="#63b8ff" stroke="#63b8ff" points="2414.02,-21.19 2403.42,-21 2411.59,-27.76 2414.02,-21.19"/>
</a>
</g>
</g>
<!-- Node40&#45;&gt;Node3 -->
<g id="edge52_Node000040_Node000003" class="edge">
<title>Node40&#45;&gt;Node3</title>
<g id="a_edge52_Node000040_Node000003"><a xlink:title=" ">
<path fill="none" stroke="#63b8ff" d="M2443.48,-132.39C2449.08,-155.47 2448.21,-215.22 2414.38,-244 2385.89,-268.23 2139.65,-282.13 2030.24,-287"/>
<polygon fill="#63b8ff" stroke="#63b8ff" points="2030.19,-283.5 2020.35,-287.43 2030.49,-290.49 2030.19,-283.5"/>
</a>
</g>
</g>
<!-- Node40&#45;&gt;Node39 -->
<g id="edge53_Node000040_Node000039" class="edge">
<title>Node40&#45;&gt;Node39</title>
<g id="a_edge53_Node000040_Node000039"><a xlink:title=" ">
<path fill="none" stroke="#63b8ff" d="M2453.01,-111.59C2465.46,-103.59 2483.59,-91.93 2498.2,-82.54"/>
<polygon fill="#63b8ff" stroke="#63b8ff" points="2499.84,-85.65 2506.36,-77.3 2496.05,-79.76 2499.84,-85.65"/>
</a>
</g>
</g>
</g>
</svg>

<g id="navigator" transform="translate(0 0)" fill="#404254">
  <rect fill="#f2f5e9" fill-opacity="0.5" stroke="#606060" stroke-width=".5" x="0" y="0" width="60" height="60"/>
  <use id="zoomplus" xlink:href="#zoomPlus" x="17" y="9" onmousedown="handleZoom(evt,'in')"/>
  <use id="zoomminus" xlink:href="#zoomMin" x="42" y="9" onmousedown="handleZoom(evt,'out')"/>
  <use id="reset" xlink:href="#resetDef" x="30" y="36" onmousedown="handleReset()"/>
   <use id="arrowup" xlink:href="#arrowUp" x="0" y="0" onmousedown="handlePan(0,-1)"/>
  <use id="arrowright" xlink:href="#arrowRight" x="0" y="0" onmousedown="handlePan(1,0)"/>
  <use id="arrowdown" xlink:href="#arrowDown" x="0" y="0" onmousedown="handlePan(0,1)"/>
  <use id="arrowleft" xlink:href="#arrowLeft" x="0" y="0" onmousedown="handlePan(-1,0)"/>
</g>
<svg viewBox="0 0 15 15" width="100%" height="30px" preserveAspectRatio="xMaxYMin meet">
 <g id="arrow_out" transform="scale(0.3 0.3)">
  <a xlink:href="_render_state_8cpp__incl_org.svg" target="_base">
   <rect id="button" ry="5" rx="5" y="6" x="6" height="38" width="38"
        fill="#f2f5e9" fill-opacity="0.5" stroke="#606060" stroke-width="1.0"/>
   <path id="arrow"
     d="M 11.500037,31.436501 C 11.940474,20.09759 22.043105,11.32322 32.158766,21.979434 L 37.068811,17.246167 C 37.068811,17.246167 37.088388,32 37.088388,32 L 22.160133,31.978069 C 22.160133,31.978069 26.997745,27.140456 26.997745,27.140456 C 18.528582,18.264221 13.291696,25.230495 11.500037,31.436501 z"
     style="fill:#404040;"/>
  </a>
 </g>
</svg>

<style type='text/css'>
<![CDATA[
[data-mouse-over-selected='false'] { opacity: 0.7; }
[data-mouse-over-selected='true']  { opacity: 1.0; }
]]>
</style>
<script type="application/ecmascript"><![CDATA[
document.addEventListener('DOMContentLoaded', (event) => {
  highlightEdges();
  highlightAdjacentNodes();
});
]]></script>
</svg>
