<?xml version="1.0" encoding="UTF-8" standalone="no"?>
<!DOCTYPE svg PUBLIC "-//W3C//DTD SVG 1.1//EN"
 "http://www.w3.org/Graphics/SVG/1.1/DTD/svg11.dtd">
<!-- Generated by graphviz version 9.0.0 (20230911.1827)
 -->
<!-- Title: src/Scene.cpp Pages: 1 -->
<svg width="2934pt" height="420pt"
 viewBox="0.00 0.00 2933.88 420.00" xmlns="http://www.w3.org/2000/svg" xmlns:xlink="http://www.w3.org/1999/xlink">
<g id="graph0" class="graph" transform="scale(1 1) rotate(0) translate(4 416)">
<title>src/Scene.cpp</title>
<!-- Node1 -->
<g id="Node000001" class="node">
<title>Node1</title>
<g id="a_Node000001"><a xlink:title=" ">
<polygon fill="#999999" stroke="#666666" points="2007.38,-412 1928.38,-412 1928.38,-392 2007.38,-392 2007.38,-412"/>
<text text-anchor="middle" x="1967.88" y="-398.5" font-family="Helvetica,sans-Serif" font-size="10.00">src/Scene.cpp</text>
</a>
</g>
</g>
<!-- Node2 -->
<g id="Node000002" class="node">
<title>Node2</title>
<g id="a_Node000002"><a xlink:href="pch_8h.html" target="_top" xlink:title=" ">
<polygon fill="white" stroke="#666666" points="1955.88,-356 1915.88,-356 1915.88,-336 1955.88,-336 1955.88,-356"/>
<text text-anchor="middle" x="1935.88" y="-342.5" font-family="Helvetica,sans-Serif" font-size="10.00">pch.h</text>
</a>
</g>
</g>
<!-- Node1&#45;&gt;Node2 -->
<g id="edge1_Node000001_Node000002" class="edge">
<title>Node1&#45;&gt;Node2</title>
<g id="a_edge1_Node000001_Node000002"><a xlink:title=" ">
<path fill="none" stroke="#63b8ff" d="M1962.3,-391.59C1958.13,-384.55 1952.27,-374.67 1947.13,-366"/>
<polygon fill="#63b8ff" stroke="#63b8ff" points="1950.27,-364.42 1942.16,-357.6 1944.24,-367.99 1950.27,-364.42"/>
</a>
</g>
</g>
<!-- Node41 -->
<g id="Node000041" class="node">
<title>Node41</title>
<g id="a_Node000041"><a xlink:href="_scene_8h.html" target="_top" xlink:title=" ">
<polygon fill="white" stroke="#666666" points="2025.88,-356 1973.88,-356 1973.88,-336 2025.88,-336 2025.88,-356"/>
<text text-anchor="middle" x="1999.88" y="-342.5" font-family="Helvetica,sans-Serif" font-size="10.00">Scene.h</text>
</a>
</g>
</g>
<!-- Node1&#45;&gt;Node41 -->
<g id="edge62_Node000001_Node000041" class="edge">
<title>Node1&#45;&gt;Node41</title>
<g id="a_edge62_Node000001_Node000041"><a xlink:title=" ">
<path fill="none" stroke="#63b8ff" d="M1973.45,-391.59C1977.62,-384.55 1983.48,-374.67 1988.62,-366"/>
<polygon fill="#63b8ff" stroke="#63b8ff" points="1991.51,-367.99 1993.59,-357.6 1985.48,-364.42 1991.51,-367.99"/>
</a>
</g>
</g>
<!-- Node3 -->
<g id="Node000003" class="node">
<title>Node3</title>
<g id="a_Node000003"><a xlink:href="_game_engine_8h.html" target="_top" xlink:title=" ">
<polygon fill="white" stroke="#666666" points="2008.12,-300 1927.62,-300 1927.62,-280 2008.12,-280 2008.12,-300"/>
<text text-anchor="middle" x="1967.88" y="-286.5" font-family="Helvetica,sans-Serif" font-size="10.00">GameEngine.h</text>
</a>
</g>
</g>
<!-- Node2&#45;&gt;Node3 -->
<g id="edge2_Node000002_Node000003" class="edge">
<title>Node2&#45;&gt;Node3</title>
<g id="a_edge2_Node000002_Node000003"><a xlink:title=" ">
<path fill="none" stroke="#63b8ff" d="M1941.45,-335.59C1945.62,-328.55 1951.48,-318.67 1956.62,-310"/>
<polygon fill="#63b8ff" stroke="#63b8ff" points="1959.51,-311.99 1961.59,-301.6 1953.48,-308.42 1959.51,-311.99"/>
</a>
</g>
</g>
<!-- Node4 -->
<g id="Node000004" class="node">
<title>Node4</title>
<g id="a_Node000004"><a xlink:title=" ">
<polygon fill="#e0e0e0" stroke="#999999" points="79.75,-244 0,-244 0,-224 79.75,-224 79.75,-244"/>
<text text-anchor="middle" x="39.88" y="-230.5" font-family="Helvetica,sans-Serif" font-size="10.00">SDKDDKVer.h</text>
</a>
</g>
</g>
<!-- Node3&#45;&gt;Node4 -->
<g id="edge3_Node000003_Node000004" class="edge">
<title>Node3&#45;&gt;Node4</title>
<g id="a_edge3_Node000003_Node000004"><a xlink:title=" ">
<path fill="none" stroke="#63b8ff" d="M1927.16,-288.92C1690.21,-288.32 486.13,-283.42 91.57,-244.21"/>
<polygon fill="#63b8ff" stroke="#63b8ff" points="91.95,-240.73 81.64,-243.19 91.23,-247.69 91.95,-240.73"/>
</a>
</g>
</g>
<!-- Node5 -->
<g id="Node000005" class="node">
<title>Node5</title>
<g id="a_Node000005"><a xlink:title=" ">
<polygon fill="#e0e0e0" stroke="#999999" points="158.38,-244 97.38,-244 97.38,-224 158.38,-224 158.38,-244"/>
<text text-anchor="middle" x="127.88" y="-230.5" font-family="Helvetica,sans-Serif" font-size="10.00">windows.h</text>
</a>
</g>
</g>
<!-- Node3&#45;&gt;Node5 -->
<g id="edge4_Node000003_Node000005" class="edge">
<title>Node3&#45;&gt;Node5</title>
<g id="a_edge4_Node000003_Node000005"><a xlink:title=" ">
<path fill="none" stroke="#63b8ff" d="M1927.34,-289.1C1696.71,-289.49 547.25,-289.19 170.06,-244.12"/>
<polygon fill="#63b8ff" stroke="#63b8ff" points="170.71,-240.68 160.36,-242.93 169.85,-247.62 170.71,-240.68"/>
</a>
</g>
</g>
<!-- Node6 -->
<g id="Node000006" class="node">
<title>Node6</title>
<g id="a_Node000006"><a xlink:title=" ">
<polygon fill="#e0e0e0" stroke="#999999" points="223.62,-244 176.12,-244 176.12,-224 223.62,-224 223.62,-244"/>
<text text-anchor="middle" x="199.88" y="-230.5" font-family="Helvetica,sans-Serif" font-size="10.00">stdlib.h</text>
</a>
</g>
</g>
<!-- Node3&#45;&gt;Node6 -->
<g id="edge5_Node000003_Node000006" class="edge">
<title>Node3&#45;&gt;Node6</title>
<g id="a_edge5_Node000003_Node000006"><a xlink:title=" ">
<path fill="none" stroke="#63b8ff" d="M1927.32,-289.27C1701.71,-290.57 598.64,-294.28 235.2,-243.89"/>
<polygon fill="#63b8ff" stroke="#63b8ff" points="235.78,-240.43 225.38,-242.48 234.78,-247.36 235.78,-240.43"/>
</a>
</g>
</g>
<!-- Node7 -->
<g id="Node000007" class="node">
<title>Node7</title>
<g id="a_Node000007"><a xlink:title=" ">
<polygon fill="#e0e0e0" stroke="#999999" points="294.25,-244 241.5,-244 241.5,-224 294.25,-224 294.25,-244"/>
<text text-anchor="middle" x="267.88" y="-230.5" font-family="Helvetica,sans-Serif" font-size="10.00">malloc.h</text>
</a>
</g>
</g>
<!-- Node3&#45;&gt;Node7 -->
<g id="edge6_Node000003_Node000007" class="edge">
<title>Node3&#45;&gt;Node7</title>
<g id="a_edge6_Node000003_Node000007"><a xlink:title=" ">
<path fill="none" stroke="#63b8ff" d="M1927.16,-289.14C1706.8,-289.7 654.25,-289.98 305.85,-244.05"/>
<polygon fill="#63b8ff" stroke="#63b8ff" points="306.39,-240.59 296,-242.71 305.44,-247.53 306.39,-240.59"/>
</a>
</g>
</g>
<!-- Node8 -->
<g id="Node000008" class="node">
<title>Node8</title>
<g id="a_Node000008"><a xlink:title=" ">
<polygon fill="#e0e0e0" stroke="#999999" points="371.62,-244 312.12,-244 312.12,-224 371.62,-224 371.62,-244"/>
<text text-anchor="middle" x="341.88" y="-230.5" font-family="Helvetica,sans-Serif" font-size="10.00">memory.h</text>
</a>
</g>
</g>
<!-- Node3&#45;&gt;Node8 -->
<g id="edge7_Node000003_Node000008" class="edge">
<title>Node3&#45;&gt;Node8</title>
<g id="a_edge7_Node000003_Node000008"><a xlink:title=" ">
<path fill="none" stroke="#63b8ff" d="M1927.33,-288.94C1713.65,-288.46 715.82,-284.14 383.08,-243.96"/>
<polygon fill="#63b8ff" stroke="#63b8ff" points="383.86,-240.53 373.5,-242.76 382.99,-247.47 383.86,-240.53"/>
</a>
</g>
</g>
<!-- Node9 -->
<g id="Node000009" class="node">
<title>Node9</title>
<g id="a_Node000009"><a xlink:title=" ">
<polygon fill="#e0e0e0" stroke="#999999" points="435.88,-244 389.88,-244 389.88,-224 435.88,-224 435.88,-244"/>
<text text-anchor="middle" x="412.88" y="-230.5" font-family="Helvetica,sans-Serif" font-size="10.00">tchar.h</text>
</a>
</g>
</g>
<!-- Node3&#45;&gt;Node9 -->
<g id="edge8_Node000003_Node000009" class="edge">
<title>Node3&#45;&gt;Node9</title>
<g id="a_edge8_Node000003_Node000009"><a xlink:title=" ">
<path fill="none" stroke="#63b8ff" d="M1927.21,-289.14C1718.48,-289.67 765.35,-289.57 447.2,-243.9"/>
<polygon fill="#63b8ff" stroke="#63b8ff" points="448.05,-240.49 437.65,-242.48 447.02,-247.41 448.05,-240.49"/>
</a>
</g>
</g>
<!-- Node10 -->
<g id="Node000010" class="node">
<title>Node10</title>
<g id="a_Node000010"><a xlink:title=" ">
<polygon fill="#e0e0e0" stroke="#999999" points="515.75,-244 454,-244 454,-224 515.75,-224 515.75,-244"/>
<text text-anchor="middle" x="484.88" y="-230.5" font-family="Helvetica,sans-Serif" font-size="10.00">resource.h</text>
</a>
</g>
</g>
<!-- Node3&#45;&gt;Node10 -->
<g id="edge9_Node000003_Node000010" class="edge">
<title>Node3&#45;&gt;Node10</title>
<g id="a_edge9_Node000003_Node000010"><a xlink:title=" ">
<path fill="none" stroke="#63b8ff" d="M1927.38,-288.78C1725.99,-287.51 830.24,-280.01 527.6,-244.05"/>
<polygon fill="#63b8ff" stroke="#63b8ff" points="528.07,-240.58 517.72,-242.83 527.22,-247.53 528.07,-240.58"/>
</a>
</g>
</g>
<!-- Node11 -->
<g id="Node000011" class="node">
<title>Node11</title>
<g id="a_Node000011"><a xlink:title=" ">
<polygon fill="#e0e0e0" stroke="#999999" points="579.5,-244 534.25,-244 534.25,-224 579.5,-224 579.5,-244"/>
<text text-anchor="middle" x="556.88" y="-230.5" font-family="Helvetica,sans-Serif" font-size="10.00">chrono</text>
</a>
</g>
</g>
<!-- Node3&#45;&gt;Node11 -->
<g id="edge10_Node000003_Node000011" class="edge">
<title>Node3&#45;&gt;Node11</title>
<g id="a_edge10_Node000003_Node000011"><a xlink:title=" ">
<path fill="none" stroke="#63b8ff" d="M1927.15,-289.04C1730.64,-289.04 878.57,-286.62 590.97,-244.06"/>
<polygon fill="#63b8ff" stroke="#63b8ff" points="591.66,-240.63 581.25,-242.56 590.6,-247.54 591.66,-240.63"/>
</a>
</g>
</g>
<!-- Node12 -->
<g id="Node000012" class="node">
<title>Node12</title>
<g id="a_Node000012"><a xlink:title=" ">
<polygon fill="#e0e0e0" stroke="#999999" points="638.62,-244 597.12,-244 597.12,-224 638.62,-224 638.62,-244"/>
<text text-anchor="middle" x="617.88" y="-230.5" font-family="Helvetica,sans-Serif" font-size="10.00">vector</text>
</a>
</g>
</g>
<!-- Node3&#45;&gt;Node12 -->
<g id="edge11_Node000003_Node000012" class="edge">
<title>Node3&#45;&gt;Node12</title>
<g id="a_edge11_Node000003_Node000012"><a xlink:title=" ">
<path fill="none" stroke="#63b8ff" d="M1927.32,-289.02C1736.44,-288.9 925.73,-286 650.17,-243.85"/>
<polygon fill="#63b8ff" stroke="#63b8ff" points="650.94,-240.43 640.52,-242.32 649.84,-247.35 650.94,-240.43"/>
</a>
</g>
</g>
<!-- Node13 -->
<g id="Node000013" class="node">
<title>Node13</title>
<g id="a_Node000013"><a xlink:title=" ">
<polygon fill="#e0e0e0" stroke="#999999" points="710.62,-244 657.12,-244 657.12,-224 710.62,-224 710.62,-244"/>
<text text-anchor="middle" x="683.88" y="-230.5" font-family="Helvetica,sans-Serif" font-size="10.00">iostream</text>
</a>
</g>
</g>
<!-- Node3&#45;&gt;Node13 -->
<g id="edge12_Node000003_Node000013" class="edge">
<title>Node3&#45;&gt;Node13</title>
<g id="a_edge12_Node000003_Node000013"><a xlink:title=" ">
<path fill="none" stroke="#63b8ff" d="M1927.41,-288.68C1743.42,-287.04 983.82,-278.38 722.22,-243.95"/>
<polygon fill="#63b8ff" stroke="#63b8ff" points="722.76,-240.49 712.38,-242.6 721.81,-247.43 722.76,-240.49"/>
</a>
</g>
</g>
<!-- Node14 -->
<g id="Node000014" class="node">
<title>Node14</title>
<g id="a_Node000014"><a xlink:title=" ">
<polygon fill="#e0e0e0" stroke="#999999" points="777,-244 728.75,-244 728.75,-224 777,-224 777,-244"/>
<text text-anchor="middle" x="752.88" y="-230.5" font-family="Helvetica,sans-Serif" font-size="10.00">fstream</text>
</a>
</g>
</g>
<!-- Node3&#45;&gt;Node14 -->
<g id="edge13_Node000003_Node000014" class="edge">
<title>Node3&#45;&gt;Node14</title>
<g id="a_edge13_Node000003_Node000014"><a xlink:title=" ">
<path fill="none" stroke="#63b8ff" d="M1927.14,-288.7C1748.78,-287.17 1035.03,-279.07 788.29,-243.95"/>
<polygon fill="#63b8ff" stroke="#63b8ff" points="789.15,-240.54 778.75,-242.54 788.12,-247.47 789.15,-240.54"/>
</a>
</g>
</g>
<!-- Node15 -->
<g id="Node000015" class="node">
<title>Node15</title>
<g id="a_Node000015"><a xlink:title=" ">
<polygon fill="#e0e0e0" stroke="#999999" points="855,-244 794.75,-244 794.75,-224 855,-224 855,-244"/>
<text text-anchor="middle" x="824.88" y="-230.5" font-family="Helvetica,sans-Serif" font-size="10.00">filesystem</text>
</a>
</g>
</g>
<!-- Node3&#45;&gt;Node15 -->
<g id="edge14_Node000003_Node000015" class="edge">
<title>Node3&#45;&gt;Node15</title>
<g id="a_edge14_Node000003_Node000015"><a xlink:title=" ">
<path fill="none" stroke="#63b8ff" d="M1927.27,-288.36C1756.83,-285.51 1097.88,-272.91 866.77,-244.09"/>
<polygon fill="#63b8ff" stroke="#63b8ff" points="867.3,-240.63 856.93,-242.81 866.4,-247.57 867.3,-240.63"/>
</a>
</g>
</g>
<!-- Node16 -->
<g id="Node000016" class="node">
<title>Node16</title>
<g id="a_Node000016"><a xlink:title=" ">
<polygon fill="#e0e0e0" stroke="#999999" points="924.5,-244 873.25,-244 873.25,-224 924.5,-224 924.5,-244"/>
<text text-anchor="middle" x="898.88" y="-230.5" font-family="Helvetica,sans-Serif" font-size="10.00">sstream</text>
</a>
</g>
</g>
<!-- Node3&#45;&gt;Node16 -->
<g id="edge15_Node000003_Node000016" class="edge">
<title>Node3&#45;&gt;Node16</title>
<g id="a_edge15_Node000003_Node000016"><a xlink:title=" ">
<path fill="none" stroke="#63b8ff" d="M1927.32,-288.36C1763.94,-285.62 1152.73,-273.69 936,-243.91"/>
<polygon fill="#63b8ff" stroke="#63b8ff" points="936.64,-240.47 926.24,-242.51 935.64,-247.39 936.64,-240.47"/>
</a>
</g>
</g>
<!-- Node17 -->
<g id="Node000017" class="node">
<title>Node17</title>
<g id="a_Node000017"><a xlink:title=" ">
<polygon fill="#e0e0e0" stroke="#999999" points="1025.25,-244 942.5,-244 942.5,-224 1025.25,-224 1025.25,-244"/>
<text text-anchor="middle" x="983.88" y="-230.5" font-family="Helvetica,sans-Serif" font-size="10.00">unordered_map</text>
</a>
</g>
</g>
<!-- Node3&#45;&gt;Node17 -->
<g id="edge16_Node000003_Node000017" class="edge">
<title>Node3&#45;&gt;Node17</title>
<g id="a_edge16_Node000003_Node000017"><a xlink:title=" ">
<path fill="none" stroke="#63b8ff" d="M1927.26,-288.87C1798.47,-288.08 1387.51,-282.58 1036.96,-244.07"/>
<polygon fill="#63b8ff" stroke="#63b8ff" points="1037.39,-240.59 1027.07,-242.97 1036.62,-247.55 1037.39,-240.59"/>
</a>
</g>
</g>
<!-- Node18 -->
<g id="Node000018" class="node">
<title>Node18</title>
<g id="a_Node000018"><a xlink:title=" ">
<polygon fill="#e0e0e0" stroke="#999999" points="1148.12,-244 1043.62,-244 1043.62,-224 1148.12,-224 1148.12,-244"/>
<text text-anchor="middle" x="1095.88" y="-230.5" font-family="Helvetica,sans-Serif" font-size="10.00">assimp/Importer.hpp</text>
</a>
</g>
</g>
<!-- Node3&#45;&gt;Node18 -->
<g id="edge17_Node000003_Node000018" class="edge">
<title>Node3&#45;&gt;Node18</title>
<g id="a_edge17_Node000003_Node000018"><a xlink:title=" ">
<path fill="none" stroke="#63b8ff" d="M1927.27,-288.05C1809.94,-285.04 1460.18,-274.12 1159.53,-244.18"/>
<polygon fill="#63b8ff" stroke="#63b8ff" points="1160.22,-240.73 1149.92,-243.21 1159.52,-247.7 1160.22,-240.73"/>
</a>
</g>
</g>
<!-- Node19 -->
<g id="Node000019" class="node">
<title>Node19</title>
<g id="a_Node000019"><a xlink:title=" ">
<polygon fill="#e0e0e0" stroke="#999999" points="1251.38,-244 1166.38,-244 1166.38,-224 1251.38,-224 1251.38,-244"/>
<text text-anchor="middle" x="1208.88" y="-230.5" font-family="Helvetica,sans-Serif" font-size="10.00">assimp/scene.h</text>
</a>
</g>
</g>
<!-- Node3&#45;&gt;Node19 -->
<g id="edge18_Node000003_Node000019" class="edge">
<title>Node3&#45;&gt;Node19</title>
<g id="a_edge18_Node000003_Node000019"><a xlink:title=" ">
<path fill="none" stroke="#63b8ff" d="M1927.48,-287.95C1820.71,-284.86 1522.03,-274.11 1262.81,-244.09"/>
<polygon fill="#63b8ff" stroke="#63b8ff" points="1263.51,-240.65 1253.17,-242.96 1262.7,-247.6 1263.51,-240.65"/>
</a>
</g>
</g>
<!-- Node20 -->
<g id="Node000020" class="node">
<title>Node20</title>
<g id="a_Node000020"><a xlink:title=" ">
<polygon fill="#e0e0e0" stroke="#999999" points="1381.88,-244 1269.88,-244 1269.88,-224 1381.88,-224 1381.88,-244"/>
<text text-anchor="middle" x="1325.88" y="-230.5" font-family="Helvetica,sans-Serif" font-size="10.00">assimp/postprocess.h</text>
</a>
</g>
</g>
<!-- Node3&#45;&gt;Node20 -->
<g id="edge19_Node000003_Node000020" class="edge">
<title>Node3&#45;&gt;Node20</title>
<g id="a_edge19_Node000003_Node000020"><a xlink:title=" ">
<path fill="none" stroke="#63b8ff" d="M1927.22,-286.67C1834.56,-281.17 1600.33,-266.26 1393.6,-244.23"/>
<polygon fill="#63b8ff" stroke="#63b8ff" points="1394.04,-240.76 1383.72,-243.17 1393.29,-247.72 1394.04,-240.76"/>
</a>
</g>
</g>
<!-- Node21 -->
<g id="Node000021" class="node">
<title>Node21</title>
<g id="a_Node000021"><a xlink:title=" ">
<polygon fill="#e0e0e0" stroke="#999999" points="1545.38,-244 1400.38,-244 1400.38,-224 1545.38,-224 1545.38,-244"/>
<text text-anchor="middle" x="1472.88" y="-230.5" font-family="Helvetica,sans-Serif" font-size="10.00">directxtk\WICTextureLoader.h</text>
</a>
</g>
</g>
<!-- Node3&#45;&gt;Node21 -->
<g id="edge20_Node000003_Node000021" class="edge">
<title>Node3&#45;&gt;Node21</title>
<g id="a_edge20_Node000003_Node000021"><a xlink:title=" ">
<path fill="none" stroke="#63b8ff" d="M1927.13,-284.57C1854.92,-276.72 1699.44,-259.8 1556.87,-244.22"/>
<polygon fill="#63b8ff" stroke="#63b8ff" points="1557.58,-240.77 1547.26,-243.17 1556.82,-247.73 1557.58,-240.77"/>
</a>
</g>
</g>
<!-- Node22 -->
<g id="Node000022" class="node">
<title>Node22</title>
<g id="a_Node000022"><a xlink:title=" ">
<polygon fill="#e0e0e0" stroke="#999999" points="1628.25,-244 1563.5,-244 1563.5,-224 1628.25,-224 1628.25,-244"/>
<text text-anchor="middle" x="1595.88" y="-230.5" font-family="Helvetica,sans-Serif" font-size="10.00">wincodec.h</text>
</a>
</g>
</g>
<!-- Node3&#45;&gt;Node22 -->
<g id="edge21_Node000003_Node000022" class="edge">
<title>Node3&#45;&gt;Node22</title>
<g id="a_edge21_Node000003_Node000022"><a xlink:title=" ">
<path fill="none" stroke="#63b8ff" d="M1927.2,-284.55C1866.67,-277.68 1749.09,-263.45 1639.74,-244.39"/>
<polygon fill="#63b8ff" stroke="#63b8ff" points="1640.45,-240.96 1629.99,-242.67 1639.23,-247.86 1640.45,-240.96"/>
</a>
</g>
</g>
<!-- Node23 -->
<g id="Node000023" class="node">
<title>Node23</title>
<g id="a_Node000023"><a xlink:title=" ">
<polygon fill="#e0e0e0" stroke="#999999" points="1703.88,-244 1645.88,-244 1645.88,-224 1703.88,-224 1703.88,-244"/>
<text text-anchor="middle" x="1674.88" y="-230.5" font-family="Helvetica,sans-Serif" font-size="10.00">lodepng.h</text>
</a>
</g>
</g>
<!-- Node3&#45;&gt;Node23 -->
<g id="edge22_Node000003_Node000023" class="edge">
<title>Node3&#45;&gt;Node23</title>
<g id="a_edge22_Node000003_Node000023"><a xlink:title=" ">
<path fill="none" stroke="#63b8ff" d="M1927.55,-282.62C1879.33,-274.84 1795.94,-260.86 1715.16,-244.38"/>
<polygon fill="#63b8ff" stroke="#63b8ff" points="1716.28,-241.04 1705.78,-242.45 1714.87,-247.89 1716.28,-241.04"/>
</a>
</g>
</g>
<!-- Node24 -->
<g id="Node000024" class="node">
<title>Node24</title>
<g id="a_Node000024"><a xlink:title=" ">
<polygon fill="#e0e0e0" stroke="#999999" points="1772.12,-244 1721.62,-244 1721.62,-224 1772.12,-224 1772.12,-244"/>
<text text-anchor="middle" x="1746.88" y="-230.5" font-family="Helvetica,sans-Serif" font-size="10.00">d3d11.h</text>
</a>
</g>
</g>
<!-- Node3&#45;&gt;Node24 -->
<g id="edge23_Node000003_Node000024" class="edge">
<title>Node3&#45;&gt;Node24</title>
<g id="a_edge23_Node000003_Node000024"><a xlink:title=" ">
<path fill="none" stroke="#63b8ff" d="M1927.92,-279.51C1892.59,-271.08 1839.34,-258.27 1783.65,-244.41"/>
<polygon fill="#63b8ff" stroke="#63b8ff" points="1784.5,-241.02 1773.95,-242 1782.8,-247.81 1784.5,-241.02"/>
</a>
</g>
</g>
<!-- Node25 -->
<g id="Node000025" class="node">
<title>Node25</title>
<g id="a_Node000025"><a xlink:title=" ">
<polygon fill="#e0e0e0" stroke="#999999" points="1867.25,-244 1790.5,-244 1790.5,-224 1867.25,-224 1867.25,-244"/>
<text text-anchor="middle" x="1828.88" y="-230.5" font-family="Helvetica,sans-Serif" font-size="10.00">DirectXMath.h</text>
</a>
</g>
</g>
<!-- Node3&#45;&gt;Node25 -->
<g id="edge24_Node000003_Node000025" class="edge">
<title>Node3&#45;&gt;Node25</title>
<g id="a_edge24_Node000003_Node000025"><a xlink:title=" ">
<path fill="none" stroke="#63b8ff" d="M1943.66,-279.59C1921.57,-271.01 1888.68,-258.23 1863.75,-248.55"/>
<polygon fill="#63b8ff" stroke="#63b8ff" points="1865.28,-245.39 1854.69,-245.03 1862.74,-251.91 1865.28,-245.39"/>
</a>
</g>
</g>
<!-- Node26 -->
<g id="Node000026" class="node">
<title>Node26</title>
<g id="a_Node000026"><a xlink:title=" ">
<polygon fill="#e0e0e0" stroke="#999999" points="1964.75,-244 1885,-244 1885,-224 1964.75,-224 1964.75,-244"/>
<text text-anchor="middle" x="1924.88" y="-230.5" font-family="Helvetica,sans-Serif" font-size="10.00">D3Dcompiler.h</text>
</a>
</g>
</g>
<!-- Node3&#45;&gt;Node26 -->
<g id="edge25_Node000003_Node000026" class="edge">
<title>Node3&#45;&gt;Node26</title>
<g id="a_edge25_Node000003_Node000026"><a xlink:title=" ">
<path fill="none" stroke="#63b8ff" d="M1960.38,-279.59C1954.59,-272.32 1946.39,-262.02 1939.33,-253.15"/>
<polygon fill="#63b8ff" stroke="#63b8ff" points="1942.19,-251.12 1933.22,-245.48 1936.71,-255.49 1942.19,-251.12"/>
</a>
</g>
</g>
<!-- Node27 -->
<g id="Node000027" class="node">
<title>Node27</title>
<g id="a_Node000027"><a xlink:title=" ">
<polygon fill="#e0e0e0" stroke="#999999" points="2038.75,-244 1983,-244 1983,-224 2038.75,-224 2038.75,-244"/>
<text text-anchor="middle" x="2010.88" y="-230.5" font-family="Helvetica,sans-Serif" font-size="10.00">d2d1_2.h</text>
</a>
</g>
</g>
<!-- Node3&#45;&gt;Node27 -->
<g id="edge26_Node000003_Node000027" class="edge">
<title>Node3&#45;&gt;Node27</title>
<g id="a_edge26_Node000003_Node000027"><a xlink:title=" ">
<path fill="none" stroke="#63b8ff" d="M1975.37,-279.59C1981.16,-272.32 1989.36,-262.02 1996.42,-253.15"/>
<polygon fill="#63b8ff" stroke="#63b8ff" points="1999.04,-255.49 2002.53,-245.48 1993.56,-251.12 1999.04,-255.49"/>
</a>
</g>
</g>
<!-- Node28 -->
<g id="Node000028" class="node">
<title>Node28</title>
<g id="a_Node000028"><a xlink:title=" ">
<polygon fill="#e0e0e0" stroke="#999999" points="2112.75,-244 2057,-244 2057,-224 2112.75,-224 2112.75,-244"/>
<text text-anchor="middle" x="2084.88" y="-230.5" font-family="Helvetica,sans-Serif" font-size="10.00">d2d1_1.h</text>
</a>
</g>
</g>
<!-- Node3&#45;&gt;Node28 -->
<g id="edge27_Node000003_Node000028" class="edge">
<title>Node3&#45;&gt;Node28</title>
<g id="a_edge27_Node000003_Node000028"><a xlink:title=" ">
<path fill="none" stroke="#63b8ff" d="M1988.25,-279.59C2006.43,-271.21 2033.3,-258.8 2054.09,-249.21"/>
<polygon fill="#63b8ff" stroke="#63b8ff" points="2055.35,-252.48 2062.96,-245.11 2052.42,-246.13 2055.35,-252.48"/>
</a>
</g>
</g>
<!-- Node29 -->
<g id="Node000029" class="node">
<title>Node29</title>
<g id="a_Node000029"><a xlink:title=" ">
<polygon fill="#e0e0e0" stroke="#999999" points="2176.5,-244 2131.25,-244 2131.25,-224 2176.5,-224 2176.5,-244"/>
<text text-anchor="middle" x="2153.88" y="-230.5" font-family="Helvetica,sans-Serif" font-size="10.00">d2d1.h</text>
</a>
</g>
</g>
<!-- Node3&#45;&gt;Node29 -->
<g id="edge28_Node000003_Node000029" class="edge">
<title>Node3&#45;&gt;Node29</title>
<g id="a_edge28_Node000003_Node000029"><a xlink:title=" ">
<path fill="none" stroke="#63b8ff" d="M2000.27,-279.59C2033.84,-269.85 2086.08,-254.68 2120.13,-244.8"/>
<polygon fill="#63b8ff" stroke="#63b8ff" points="2120.85,-248.23 2129.48,-242.08 2118.9,-241.51 2120.85,-248.23"/>
</a>
</g>
</g>
<!-- Node30 -->
<g id="Node000030" class="node">
<title>Node30</title>
<g id="a_Node000030"><a xlink:title=" ">
<polygon fill="#e0e0e0" stroke="#999999" points="2244.75,-244 2195,-244 2195,-224 2244.75,-224 2244.75,-244"/>
<text text-anchor="middle" x="2219.88" y="-230.5" font-family="Helvetica,sans-Serif" font-size="10.00">dwrite.h</text>
</a>
</g>
</g>
<!-- Node3&#45;&gt;Node30 -->
<g id="edge29_Node000003_Node000030" class="edge">
<title>Node3&#45;&gt;Node30</title>
<g id="a_edge29_Node000003_Node000030"><a xlink:title=" ">
<path fill="none" stroke="#63b8ff" d="M2008.6,-281.29C2050.19,-273.26 2116.87,-259.97 2183.53,-244.45"/>
<polygon fill="#63b8ff" stroke="#63b8ff" points="2184.25,-247.88 2193.19,-242.19 2182.65,-241.06 2184.25,-247.88"/>
</a>
</g>
</g>
<!-- Node31 -->
<g id="Node000031" class="node">
<title>Node31</title>
<g id="a_Node000031"><a xlink:href="_win32_application_8h.html" target="_top" xlink:title=" ">
<polygon fill="white" stroke="#666666" points="2586.88,-244 2486.88,-244 2486.88,-224 2586.88,-224 2586.88,-244"/>
<text text-anchor="middle" x="2536.88" y="-230.5" font-family="Helvetica,sans-Serif" font-size="10.00">Win32Application.h</text>
</a>
</g>
</g>
<!-- Node3&#45;&gt;Node31 -->
<g id="edge30_Node000003_Node000031" class="edge">
<title>Node3&#45;&gt;Node31</title>
<g id="a_edge30_Node000003_Node000031"><a xlink:title=" ">
<path fill="none" stroke="#63b8ff" d="M2008.44,-285.71C2093.26,-279.15 2294.88,-263.4 2463.88,-244 2467.5,-243.58 2471.23,-243.13 2475.01,-242.65"/>
<polygon fill="#63b8ff" stroke="#63b8ff" points="2475.44,-246.12 2484.9,-241.36 2474.54,-239.18 2475.44,-246.12"/>
</a>
</g>
</g>
<!-- Node32 -->
<g id="Node000032" class="node">
<title>Node32</title>
<g id="a_Node000032"><a xlink:href="_direct_x_manager_8h.html" target="_top" xlink:title=" ">
<polygon fill="white" stroke="#666666" points="2643.12,-188 2550.62,-188 2550.62,-168 2643.12,-168 2643.12,-188"/>
<text text-anchor="middle" x="2596.88" y="-174.5" font-family="Helvetica,sans-Serif" font-size="10.00">DirectXManager.h</text>
</a>
</g>
</g>
<!-- Node3&#45;&gt;Node32 -->
<g id="edge54_Node000003_Node000032" class="edge">
<title>Node3&#45;&gt;Node32</title>
<g id="a_edge54_Node000003_Node000032"><a xlink:title=" ">
<path fill="none" stroke="#63b8ff" d="M2008.34,-289.2C2139.65,-289.35 2546.94,-286.25 2586.88,-244 2597.79,-232.46 2597,-213.95 2595.58,-199.64"/>
<polygon fill="#63b8ff" stroke="#63b8ff" points="2599.09,-199.51 2594.6,-189.92 2592.12,-200.22 2599.09,-199.51"/>
</a>
</g>
</g>
<!-- Node33 -->
<g id="Node000033" class="node">
<title>Node33</title>
<g id="a_Node000033"><a xlink:href="_camera_8h.html" target="_top" xlink:title=" ">
<polygon fill="white" stroke="#666666" points="2426.88,-132 2368.88,-132 2368.88,-112 2426.88,-112 2426.88,-132"/>
<text text-anchor="middle" x="2397.88" y="-118.5" font-family="Helvetica,sans-Serif" font-size="10.00">Camera.h</text>
</a>
</g>
</g>
<!-- Node3&#45;&gt;Node33 -->
<g id="edge55_Node000003_Node000033" class="edge">
<title>Node3&#45;&gt;Node33</title>
<g id="a_edge55_Node000003_Node000033"><a xlink:title=" ">
<path fill="none" stroke="#63b8ff" d="M2008.36,-289.83C2096.22,-290.57 2300.01,-287.16 2351.88,-244 2381.61,-219.25 2387.95,-171.29 2391.93,-143.77"/>
<polygon fill="#63b8ff" stroke="#63b8ff" points="2395.39,-144.32 2393.5,-133.9 2388.47,-143.22 2395.39,-144.32"/>
</a>
</g>
</g>
<!-- Node34 -->
<g id="Node000034" class="node">
<title>Node34</title>
<g id="a_Node000034"><a xlink:href="_graphics_device_8h.html" target="_top" xlink:title=" ">
<polygon fill="white" stroke="#666666" points="2459.75,-76 2368,-76 2368,-56 2459.75,-56 2459.75,-76"/>
<text text-anchor="middle" x="2413.88" y="-62.5" font-family="Helvetica,sans-Serif" font-size="10.00">GraphicsDevice.h</text>
</a>
</g>
</g>
<!-- Node3&#45;&gt;Node34 -->
<g id="edge56_Node000003_Node000034" class="edge">
<title>Node3&#45;&gt;Node34</title>
<g id="a_edge56_Node000003_Node000034"><a xlink:title=" ">
<path fill="none" stroke="#63b8ff" d="M2008.41,-288.4C2086,-286.45 2251.21,-278.27 2295.88,-244 2346.3,-205.32 2313.15,-163.15 2350.88,-112 2359.22,-100.68 2371,-90.43 2382.24,-82.59"/>
<polygon fill="#63b8ff" stroke="#63b8ff" points="2384.13,-85.54 2390.62,-77.17 2380.32,-79.66 2384.13,-85.54"/>
</a>
</g>
</g>
<!-- Node35 -->
<g id="Node000035" class="node">
<title>Node35</title>
<g id="a_Node000035"><a xlink:href="_mesh_8h.html" target="_top" xlink:title=" ">
<polygon fill="white" stroke="#666666" points="2493,-132 2444.75,-132 2444.75,-112 2493,-112 2493,-132"/>
<text text-anchor="middle" x="2468.88" y="-118.5" font-family="Helvetica,sans-Serif" font-size="10.00">Mesh.h</text>
</a>
</g>
</g>
<!-- Node3&#45;&gt;Node35 -->
<g id="edge58_Node000003_Node000035" class="edge">
<title>Node3&#45;&gt;Node35</title>
<g id="a_edge58_Node000003_Node000035"><a xlink:title=" ">
<path fill="none" stroke="#63b8ff" d="M2008.53,-289.07C2100.46,-288.43 2320.51,-282.66 2382.88,-244 2421.01,-220.36 2443.61,-170.06 2456.78,-142.34"/>
<polygon fill="#63b8ff" stroke="#63b8ff" points="2459.78,-144.17 2461.05,-133.65 2453.5,-141.09 2459.78,-144.17"/>
</a>
</g>
</g>
<!-- Node36 -->
<g id="Node000036" class="node">
<title>Node36</title>
<g id="a_Node000036"><a xlink:href="_render_state_8h.html" target="_top" xlink:title=" ">
<polygon fill="white" stroke="#666666" points="2457,-20 2378.75,-20 2378.75,0 2457,0 2457,-20"/>
<text text-anchor="middle" x="2417.88" y="-6.5" font-family="Helvetica,sans-Serif" font-size="10.00">RenderState.h</text>
</a>
</g>
</g>
<!-- Node3&#45;&gt;Node36 -->
<g id="edge60_Node000003_Node000036" class="edge">
<title>Node3&#45;&gt;Node36</title>
<g id="a_edge60_Node000003_Node000036"><a xlink:title=" ">
<path fill="none" stroke="#63b8ff" d="M2008.36,-286.6C2075.79,-282.12 2206.94,-270.44 2244.88,-244 2323.39,-189.27 2287.18,-128.31 2349.88,-56 2359.8,-44.56 2373.05,-34.13 2385.35,-26.21"/>
<polygon fill="#63b8ff" stroke="#63b8ff" points="2386.89,-29.36 2393.64,-21.19 2383.27,-23.37 2386.89,-29.36"/>
</a>
</g>
</g>
<!-- Node37 -->
<g id="Node000037" class="node">
<title>Node37</title>
<g id="a_Node000037"><a xlink:href="_shader_program_8h.html" target="_top" xlink:title=" ">
<polygon fill="white" stroke="#666666" points="2904.75,-20 2813,-20 2813,0 2904.75,0 2904.75,-20"/>
<text text-anchor="middle" x="2858.88" y="-6.5" font-family="Helvetica,sans-Serif" font-size="10.00">ShaderProgram.h</text>
</a>
</g>
</g>
<!-- Node3&#45;&gt;Node37 -->
<g id="edge61_Node000003_Node000037" class="edge">
<title>Node3&#45;&gt;Node37</title>
<g id="a_edge61_Node000003_Node000037"><a xlink:title=" ">
<path fill="none" stroke="#63b8ff" d="M2008.37,-288.59C2188.58,-286.29 2907.88,-271.42 2907.88,-179 2907.88,-179 2907.88,-179 2907.88,-121 2907.88,-85.54 2884,-50.3 2869.26,-29.6"/>
<polygon fill="#63b8ff" stroke="#63b8ff" points="2872.26,-27.77 2863.61,-21.65 2866.55,-31.83 2872.26,-27.77"/>
</a>
</g>
</g>
<!-- Node39 -->
<g id="Node000039" class="node">
<title>Node39</title>
<g id="a_Node000039"><a xlink:href="_material_8h.html" target="_top" xlink:title=" ">
<polygon fill="white" stroke="#666666" points="2774.25,-76 2715.5,-76 2715.5,-56 2774.25,-56 2774.25,-76"/>
<text text-anchor="middle" x="2744.88" y="-62.5" font-family="Helvetica,sans-Serif" font-size="10.00">Material.h</text>
</a>
</g>
</g>
<!-- Node3&#45;&gt;Node39 -->
<g id="edge57_Node000003_Node000039" class="edge">
<title>Node3&#45;&gt;Node39</title>
<g id="a_edge57_Node000003_Node000039"><a xlink:title=" ">
<path fill="none" stroke="#63b8ff" d="M2008.54,-289.6C2140.45,-290.94 2554.34,-290.88 2678.88,-244 2755.08,-215.31 2787.98,-205.09 2823.88,-132 2835.5,-108.33 2808.62,-91.21 2783.02,-80.5"/>
<polygon fill="#63b8ff" stroke="#63b8ff" points="2784.62,-77.37 2774.03,-76.99 2782.07,-83.89 2784.62,-77.37"/>
</a>
</g>
</g>
<!-- Node40 -->
<g id="Node000040" class="node">
<title>Node40</title>
<g id="a_Node000040"><a xlink:href="_model_8h.html" target="_top" xlink:title=" ">
<polygon fill="white" stroke="#666666" points="2713.12,-132 2662.62,-132 2662.62,-112 2713.12,-112 2713.12,-132"/>
<text text-anchor="middle" x="2687.88" y="-118.5" font-family="Helvetica,sans-Serif" font-size="10.00">Model.h</text>
</a>
</g>
</g>
<!-- Node3&#45;&gt;Node40 -->
<g id="edge59_Node000003_Node000040" class="edge">
<title>Node3&#45;&gt;Node40</title>
<g id="a_edge59_Node000003_Node000040"><a xlink:title=" ">
<path fill="none" stroke="#63b8ff" d="M2008.58,-288.43C2142.63,-286.3 2563.85,-277.17 2614.88,-244 2650.62,-220.77 2667.69,-170.69 2677.81,-142.79"/>
<polygon fill="#63b8ff" stroke="#63b8ff" points="2680.96,-144.34 2681.22,-133.75 2674.41,-141.87 2680.96,-144.34"/>
</a>
</g>
</g>
<!-- Node31&#45;&gt;Node3 -->
<g id="edge31_Node000031_Node000003" class="edge">
<title>Node31&#45;&gt;Node3</title>
<g id="a_edge31_Node000031_Node000003"><a xlink:title=" ">
<path fill="none" stroke="#63b8ff" d="M2486.61,-243.44C2485.02,-243.63 2483.44,-243.82 2481.88,-244 2313.53,-263.33 2112.79,-279.03 2019.75,-285.64"/>
<polygon fill="#63b8ff" stroke="#63b8ff" points="2019.66,-282.13 2009.93,-286.33 2020.15,-289.12 2019.66,-282.13"/>
</a>
</g>
</g>
<!-- Node31&#45;&gt;Node32 -->
<g id="edge32_Node000031_Node000032" class="edge">
<title>Node31&#45;&gt;Node32</title>
<g id="a_edge32_Node000031_Node000032"><a xlink:title=" ">
<path fill="none" stroke="#63b8ff" d="M2547.33,-223.59C2555.84,-215.93 2568.09,-204.91 2578.27,-195.75"/>
<polygon fill="#63b8ff" stroke="#63b8ff" points="2580.33,-198.6 2585.42,-189.31 2575.64,-193.4 2580.33,-198.6"/>
</a>
</g>
</g>
<!-- Node32&#45;&gt;Node3 -->
<g id="edge33_Node000032_Node000003" class="edge">
<title>Node32&#45;&gt;Node3</title>
<g id="a_edge33_Node000032_Node000003"><a xlink:title=" ">
<path fill="none" stroke="#63b8ff" d="M2605.98,-188.41C2613.54,-202.52 2618.99,-229.07 2604.88,-244 2565.26,-285.91 2164.19,-289.3 2019.48,-289.2"/>
<polygon fill="#63b8ff" stroke="#63b8ff" points="2019.82,-285.7 2009.82,-289.19 2019.81,-292.7 2019.82,-285.7"/>
</a>
</g>
</g>
<!-- Node32&#45;&gt;Node33 -->
<g id="edge34_Node000032_Node000033" class="edge">
<title>Node32&#45;&gt;Node33</title>
<g id="a_edge34_Node000032_Node000033"><a xlink:title=" ">
<path fill="none" stroke="#63b8ff" d="M2562.21,-167.59C2527.6,-158.2 2474.44,-143.78 2438.01,-133.89"/>
<polygon fill="#63b8ff" stroke="#63b8ff" points="2439.31,-130.62 2428.75,-131.38 2437.48,-137.37 2439.31,-130.62"/>
</a>
</g>
</g>
<!-- Node32&#45;&gt;Node34 -->
<g id="edge36_Node000032_Node000034" class="edge">
<title>Node32&#45;&gt;Node34</title>
<g id="a_edge36_Node000032_Node000034"><a xlink:title=" ">
<path fill="none" stroke="#63b8ff" d="M2584.31,-167.64C2566.44,-154.5 2532.45,-130.18 2501.88,-112 2483.19,-100.89 2461.44,-89.75 2444.24,-81.34"/>
<polygon fill="#63b8ff" stroke="#63b8ff" points="2446.08,-78.34 2435.55,-77.14 2443.03,-84.64 2446.08,-78.34"/>
</a>
</g>
</g>
<!-- Node32&#45;&gt;Node35 -->
<g id="edge38_Node000032_Node000035" class="edge">
<title>Node32&#45;&gt;Node35</title>
<g id="a_edge38_Node000032_Node000035"><a xlink:title=" ">
<path fill="none" stroke="#63b8ff" d="M2574.58,-167.59C2554.51,-159.13 2524.76,-146.58 2501.92,-136.94"/>
<polygon fill="#63b8ff" stroke="#63b8ff" points="2503.31,-133.73 2492.74,-133.07 2500.59,-140.18 2503.31,-133.73"/>
</a>
</g>
</g>
<!-- Node32&#45;&gt;Node36 -->
<g id="edge41_Node000032_Node000036" class="edge">
<title>Node32&#45;&gt;Node36</title>
<g id="a_edge41_Node000032_Node000036"><a xlink:title=" ">
<path fill="none" stroke="#63b8ff" d="M2587.6,-167.61C2574.94,-154.86 2551.47,-131.42 2530.88,-112 2503.86,-86.52 2496.57,-80.73 2468.88,-56 2458.33,-46.58 2446.49,-36.13 2436.88,-27.67"/>
<polygon fill="#63b8ff" stroke="#63b8ff" points="2439.41,-25.24 2429.59,-21.27 2434.79,-30.5 2439.41,-25.24"/>
</a>
</g>
</g>
<!-- Node32&#45;&gt;Node37 -->
<g id="edge43_Node000032_Node000037" class="edge">
<title>Node32&#45;&gt;Node37</title>
<g id="a_edge43_Node000032_Node000037"><a xlink:title=" ">
<path fill="none" stroke="#63b8ff" d="M2599.97,-167.8C2604.79,-154.43 2615.1,-129.34 2629.88,-112 2673.86,-60.4 2749.31,-34.18 2801.53,-21.57"/>
<polygon fill="#63b8ff" stroke="#63b8ff" points="2802.19,-25.01 2811.15,-19.35 2800.62,-18.19 2802.19,-25.01"/>
</a>
</g>
</g>
<!-- Node38 -->
<g id="Node000038" class="node">
<title>Node38</title>
<g id="a_Node000038"><a xlink:href="_shader_manager_8h.html" target="_top" xlink:title=" ">
<polygon fill="white" stroke="#666666" points="2824.12,-132 2731.62,-132 2731.62,-112 2824.12,-112 2824.12,-132"/>
<text text-anchor="middle" x="2777.88" y="-118.5" font-family="Helvetica,sans-Serif" font-size="10.00">ShaderManager.h</text>
</a>
</g>
</g>
<!-- Node32&#45;&gt;Node38 -->
<g id="edge45_Node000032_Node000038" class="edge">
<title>Node32&#45;&gt;Node38</title>
<g id="a_edge45_Node000032_Node000038"><a xlink:title=" ">
<path fill="none" stroke="#63b8ff" d="M2628.4,-167.59C2658.07,-158.74 2702.71,-145.43 2735.48,-135.65"/>
<polygon fill="#63b8ff" stroke="#63b8ff" points="2736.07,-139.13 2744.65,-132.91 2734.07,-132.42 2736.07,-139.13"/>
</a>
</g>
</g>
<!-- Node32&#45;&gt;Node39 -->
<g id="edge47_Node000032_Node000039" class="edge">
<title>Node32&#45;&gt;Node39</title>
<g id="a_edge47_Node000032_Node000039"><a xlink:title=" ">
<path fill="none" stroke="#63b8ff" d="M2603.3,-167.57C2612.97,-153.91 2632.45,-128.46 2653.88,-112 2670.54,-99.2 2691.43,-88.56 2708.98,-80.84"/>
<polygon fill="#63b8ff" stroke="#63b8ff" points="2710.18,-84.14 2718.02,-77.02 2707.45,-77.69 2710.18,-84.14"/>
</a>
</g>
</g>
<!-- Node32&#45;&gt;Node40 -->
<g id="edge51_Node000032_Node000040" class="edge">
<title>Node32&#45;&gt;Node40</title>
<g id="a_edge51_Node000032_Node000040"><a xlink:title=" ">
<path fill="none" stroke="#63b8ff" d="M2612.73,-167.59C2626.34,-159.51 2646.24,-147.71 2662.14,-138.27"/>
<polygon fill="#63b8ff" stroke="#63b8ff" points="2663.78,-141.37 2670.6,-133.25 2660.21,-135.35 2663.78,-141.37"/>
</a>
</g>
</g>
<!-- Node33&#45;&gt;Node3 -->
<g id="edge35_Node000033_Node000003" class="edge">
<title>Node33&#45;&gt;Node3</title>
<g id="a_edge35_Node000033_Node000003"><a xlink:title=" ">
<path fill="none" stroke="#63b8ff" d="M2402.62,-132.4C2407.36,-155.52 2404.32,-215.34 2369.88,-244 2318.26,-286.95 2116.18,-290.54 2019.62,-289.84"/>
<polygon fill="#63b8ff" stroke="#63b8ff" points="2019.93,-286.34 2009.9,-289.75 2019.86,-293.34 2019.93,-286.34"/>
</a>
</g>
</g>
<!-- Node34&#45;&gt;Node3 -->
<g id="edge37_Node000034_Node000003" class="edge">
<title>Node34&#45;&gt;Node3</title>
<g id="a_edge37_Node000034_Node000003"><a xlink:title=" ">
<path fill="none" stroke="#63b8ff" d="M2406.55,-76.18C2396.41,-84.35 2379.74,-97.27 2368.88,-112 2331.15,-163.15 2364.3,-205.32 2313.88,-244 2269.37,-278.14 2105.2,-286.39 2019.89,-288.38"/>
<polygon fill="#63b8ff" stroke="#63b8ff" points="2019.84,-284.88 2009.91,-288.59 2019.98,-291.88 2019.84,-284.88"/>
</a>
</g>
</g>
<!-- Node35&#45;&gt;Node3 -->
<g id="edge39_Node000035_Node000003" class="edge">
<title>Node35&#45;&gt;Node3</title>
<g id="a_edge39_Node000035_Node000003"><a xlink:title=" ">
<path fill="none" stroke="#63b8ff" d="M2470.47,-132.29C2467.54,-155.69 2444.26,-217.11 2400.88,-244 2338.84,-282.45 2120.8,-288.37 2019.78,-289.05"/>
<polygon fill="#63b8ff" stroke="#63b8ff" points="2019.85,-285.55 2009.87,-289.11 2019.88,-292.55 2019.85,-285.55"/>
</a>
</g>
</g>
<!-- Node35&#45;&gt;Node34 -->
<g id="edge40_Node000035_Node000034" class="edge">
<title>Node35&#45;&gt;Node34</title>
<g id="a_edge40_Node000035_Node000034"><a xlink:title=" ">
<path fill="none" stroke="#63b8ff" d="M2459.29,-111.59C2451.64,-104.08 2440.72,-93.35 2431.5,-84.3"/>
<polygon fill="#63b8ff" stroke="#63b8ff" points="2434.01,-81.87 2424.43,-77.36 2429.11,-86.86 2434.01,-81.87"/>
</a>
</g>
</g>
<!-- Node36&#45;&gt;Node3 -->
<g id="edge42_Node000036_Node000003" class="edge">
<title>Node36&#45;&gt;Node3</title>
<g id="a_edge42_Node000036_Node000003"><a xlink:title=" ">
<path fill="none" stroke="#63b8ff" d="M2409.61,-20.25C2398.61,-28.46 2380.53,-41.4 2367.88,-56 2305.18,-128.31 2341.39,-189.27 2262.88,-244 2224.96,-270.43 2093.91,-282.11 2019.78,-286.59"/>
<polygon fill="#63b8ff" stroke="#63b8ff" points="2019.69,-283.09 2009.91,-287.16 2020.09,-290.08 2019.69,-283.09"/>
</a>
</g>
</g>
<!-- Node37&#45;&gt;Node3 -->
<g id="edge44_Node000037_Node000003" class="edge">
<title>Node37&#45;&gt;Node3</title>
<g id="a_edge44_Node000037_Node000003"><a xlink:title=" ">
<path fill="none" stroke="#63b8ff" d="M2873.14,-20.42C2893.25,-38.4 2925.88,-79.55 2925.88,-121 2925.88,-179 2925.88,-179 2925.88,-179 2925.88,-270.58 2219.58,-286.01 2019.86,-288.53"/>
<polygon fill="#63b8ff" stroke="#63b8ff" points="2020,-285.03 2010.05,-288.64 2020.09,-292.02 2020,-285.03"/>
</a>
</g>
</g>
<!-- Node38&#45;&gt;Node3 -->
<g id="edge46_Node000038_Node000003" class="edge">
<title>Node38&#45;&gt;Node3</title>
<g id="a_edge46_Node000038_Node000003"><a xlink:title=" ">
<path fill="none" stroke="#63b8ff" d="M2772.28,-132.15C2757.24,-155.78 2713.34,-218.74 2657.88,-244 2600.31,-270.21 2169.86,-283.77 2019.51,-287.74"/>
<polygon fill="#63b8ff" stroke="#63b8ff" points="2019.76,-284.23 2009.86,-287.99 2019.94,-291.23 2019.76,-284.23"/>
</a>
</g>
</g>
<!-- Node39&#45;&gt;Node3 -->
<g id="edge48_Node000039_Node000003" class="edge">
<title>Node39&#45;&gt;Node3</title>
<g id="a_edge48_Node000039_Node000003"><a xlink:title=" ">
<path fill="none" stroke="#63b8ff" d="M2774.53,-72.97C2808.41,-82.08 2856.78,-101.65 2841.88,-132 2805.98,-205.09 2773.08,-215.31 2696.88,-244 2573.34,-290.51 2165.09,-290.94 2019.72,-289.64"/>
<polygon fill="#63b8ff" stroke="#63b8ff" points="2020.05,-286.14 2010.02,-289.54 2019.98,-293.14 2020.05,-286.14"/>
</a>
</g>
</g>
<!-- Node39&#45;&gt;Node36 -->
<g id="edge50_Node000039_Node000036" class="edge">
<title>Node39&#45;&gt;Node36</title>
<g id="a_edge50_Node000039_Node000036"><a xlink:title=" ">
<path fill="none" stroke="#63b8ff" d="M2715.28,-60.11C2659.36,-50.88 2537.6,-30.77 2468.47,-19.35"/>
<polygon fill="#63b8ff" stroke="#63b8ff" points="2469.36,-15.96 2458.92,-17.78 2468.22,-22.86 2469.36,-15.96"/>
</a>
</g>
</g>
<!-- Node39&#45;&gt;Node37 -->
<g id="edge49_Node000039_Node000037" class="edge">
<title>Node39&#45;&gt;Node37</title>
<g id="a_edge49_Node000039_Node000037"><a xlink:title=" ">
<path fill="none" stroke="#63b8ff" d="M2764.73,-55.59C2782.36,-47.24 2808.38,-34.92 2828.6,-25.34"/>
<polygon fill="#63b8ff" stroke="#63b8ff" points="2829.96,-28.57 2837.49,-21.13 2826.96,-22.25 2829.96,-28.57"/>
</a>
</g>
</g>
<!-- Node40&#45;&gt;Node3 -->
<g id="edge52_Node000040_Node000003" class="edge">
<title>Node40&#45;&gt;Node3</title>
<g id="a_edge52_Node000040_Node000003"><a xlink:title=" ">
<path fill="none" stroke="#63b8ff" d="M2690.51,-132.33C2690.19,-155.83 2673.72,-217.45 2632.88,-244 2582.26,-276.9 2167.44,-286.15 2019.74,-288.38"/>
<polygon fill="#63b8ff" stroke="#63b8ff" points="2019.8,-284.87 2009.86,-288.52 2019.91,-291.87 2019.8,-284.87"/>
</a>
</g>
</g>
<!-- Node40&#45;&gt;Node39 -->
<g id="edge53_Node000040_Node000039" class="edge">
<title>Node40&#45;&gt;Node39</title>
<g id="a_edge53_Node000040_Node000039"><a xlink:title=" ">
<path fill="none" stroke="#63b8ff" d="M2697.8,-111.59C2705.81,-104.01 2717.29,-93.13 2726.91,-84.02"/>
<polygon fill="#63b8ff" stroke="#63b8ff" points="2729.11,-86.76 2733.96,-77.34 2724.29,-81.68 2729.11,-86.76"/>
</a>
</g>
</g>
<!-- Node41&#45;&gt;Node3 -->
<g id="edge63_Node000041_Node000003" class="edge">
<title>Node41&#45;&gt;Node3</title>
<g id="a_edge63_Node000041_Node000003"><a xlink:title=" ">
<path fill="none" stroke="#63b8ff" d="M1994.3,-335.59C1990.13,-328.55 1984.27,-318.67 1979.13,-310"/>
<polygon fill="#63b8ff" stroke="#63b8ff" points="1982.27,-308.42 1974.16,-301.6 1976.24,-311.99 1982.27,-308.42"/>
</a>
</g>
</g>
</g>
</svg>
