<?xml version="1.0" encoding="UTF-8" standalone="no"?>
<!DOCTYPE svg PUBLIC "-//W3C//DTD SVG 1.1//EN"
 "http://www.w3.org/Graphics/SVG/1.1/DTD/svg11.dtd">
<!-- Generated by graphviz version 9.0.0 (20230911.1827)
 -->
<!-- Title: src/ShaderProgram.h Pages: 1 -->
<!--zoomable 364 -->

<svg id="main" version="1.1" xmlns="http://www.w3.org/2000/svg" xmlns:xlink="http://www.w3.org/1999/xlink" xml:space="preserve" onload="init(evt)">
<style type="text/css"><![CDATA[
.node, .edge {opacity: 0.7;}
.node.selected, .edge.selected {opacity: 1;}
.edge:hover path { stroke: red; }
.edge:hover polygon { stroke: red; fill: red; }
]]></style>

<defs>
  <circle id="rim" cx="0" cy="0" r="7"/>
  <circle id="rim2" cx="0" cy="0" r="3.5"/>
  <g id="zoomPlus">
    <use xlink:href="#rim" fill="#404040"><set attributeName="fill" to="#808080" begin="zoomplus.mouseover" end="zoomplus.mouseout"/></use>
    <path d="M-4,0h8M0,-4v8" fill="none" stroke="white" stroke-width="1.5" pointer-events="none"/>
  </g>
  <g id="zoomMin">
    <use xlink:href="#rim" fill="#404040"><set attributeName="fill" to="#808080" begin="zoomminus.mouseover" end="zoomminus.mouseout"/></use>
    <path d="M-4,0h8" fill="none" stroke="white" stroke-width="1.5" pointer-events="none"/>
  </g>
  <g id="arrowUp" transform="translate(30 24)">
    <use xlink:href="#rim"/>
    <path pointer-events="none" fill="none" stroke="white" stroke-width="1.5" d="M0,-3.0v7 M-2.5,-0.5L0,-3.0L2.5,-0.5"/>
  </g>
  <g id="arrowRight" transform="rotate(90) translate(36 -43)">
    <use xlink:href="#rim"/>
    <path pointer-events="none" fill="none" stroke="white" stroke-width="1.5" d="M0,-3.0v7 M-2.5,-0.5L0,-3.0L2.5,-0.5"/>
  </g>
  <g id="arrowDown" transform="rotate(180) translate(-30 -48)">
    <use xlink:href="#rim"/>
    <path pointer-events="none" fill="none" stroke="white" stroke-width="1.5" d="M0,-3.0v7 M-2.5,-0.5L0,-3.0L2.5,-0.5"/>
  </g>
  <g id="arrowLeft" transform="rotate(270) translate(-36 17)">
    <use xlink:href="#rim"/>
    <path pointer-events="none" fill="none" stroke="white" stroke-width="1.5" d="M0,-3.0v7 M-2.5,-0.5L0,-3.0L2.5,-0.5"/>
  </g>
  <g id="resetDef">
    <use xlink:href="#rim2" fill="#404040"><set attributeName="fill" to="#808080" begin="reset.mouseover" end="reset.mouseout"/></use>
  </g>
</defs>
<script type="application/ecmascript">
var viewWidth = 1541;
var viewHeight = 364;
var sectionId = 'dynsection-1';
</script>
<script type="application/ecmascript" xlink:href="svg.min.js"/>
<svg id="graph" class="graph">
<g id="viewport">
<title>src/ShaderProgram.h</title>
<!-- Node1 -->
<g id="Node000001" class="node">
<title>Node1</title>
<g id="a_Node000001"><a xlink:title=" ">
<polygon fill="#999999" stroke="#666666" points="771.62,-356 663.38,-356 663.38,-336 771.62,-336 771.62,-356"/>
<text text-anchor="middle" x="717.5" y="-342.5" font-family="Helvetica,sans-Serif" font-size="10.00">src/ShaderProgram.h</text>
</a>
</g>
</g>
<!-- Node2 -->
<g id="Node000002" class="node">
<title>Node2</title>
<g id="a_Node000002"><a xlink:href="_direct_x_manager_8h.html" target="_top" xlink:title=" ">
<polygon fill="white" stroke="#666666" points="864,-300 755,-300 755,-280 864,-280 864,-300"/>
<text text-anchor="middle" x="809.5" y="-286.5" font-family="Helvetica,sans-Serif" font-size="10.00">src/DirectXManager.h</text>
</a>
</g>
</g>
<!-- Node1&#45;&gt;Node2 -->
<g id="edge1_Node000001_Node000002" class="edge">
<title>Node1&#45;&gt;Node2</title>
<g id="a_edge1_Node000001_Node000002"><a xlink:title=" ">
<path fill="none" stroke="#63b8ff" d="M743.38,-329.81C759.43,-320.39 779.54,-308.58 793.35,-300.48"/>
<polygon fill="#63b8ff" stroke="#63b8ff" points="741.68,-326.75 734.83,-334.83 745.23,-332.78 741.68,-326.75"/>
</a>
</g>
</g>
<!-- Node4 -->
<g id="Node000004" class="node">
<title>Node4</title>
<g id="a_Node000004"><a xlink:href="_game_engine_8h.html" target="_top" xlink:title=" ">
<polygon fill="white" stroke="#666666" points="766,-244 669,-244 669,-224 766,-224 766,-244"/>
<text text-anchor="middle" x="717.5" y="-230.5" font-family="Helvetica,sans-Serif" font-size="10.00">src/GameEngine.h</text>
</a>
</g>
</g>
<!-- Node1&#45;&gt;Node4 -->
<g id="edge59_Node000001_Node000004" class="edge">
<title>Node1&#45;&gt;Node4</title>
<g id="a_edge59_Node000001_Node000004"><a xlink:title=" ">
<path fill="none" stroke="#63b8ff" d="M712.09,-324.31C709.91,-300.36 710.39,-261.95 713.52,-244.35"/>
<polygon fill="#63b8ff" stroke="#63b8ff" points="708.6,-324.64 713.33,-334.12 715.55,-323.76 708.6,-324.64"/>
</a>
</g>
</g>
<!-- Node13 -->
<g id="Node000013" class="node">
<title>Node13</title>
<g id="a_Node000013"><a xlink:href="_material_8h.html" target="_top" xlink:title=" ">
<polygon fill="white" stroke="#666666" points="108.12,-132 32.88,-132 32.88,-112 108.12,-112 108.12,-132"/>
<text text-anchor="middle" x="70.5" y="-118.5" font-family="Helvetica,sans-Serif" font-size="10.00">src/Material.h</text>
</a>
</g>
</g>
<!-- Node1&#45;&gt;Node13 -->
<g id="edge60_Node000001_Node000013" class="edge">
<title>Node1&#45;&gt;Node13</title>
<g id="a_edge60_Node000001_Node000013"><a xlink:title=" ">
<path fill="none" stroke="#63b8ff" d="M659.68,-333.2C559.29,-311.61 347.42,-261.15 179.5,-188 142.94,-172.07 103.59,-146.17 83.67,-132.37"/>
<polygon fill="#63b8ff" stroke="#63b8ff" points="658.79,-336.59 669.3,-335.25 660.25,-329.74 658.79,-336.59"/>
</a>
</g>
</g>
<!-- Node25 -->
<g id="Node000025" class="node">
<title>Node25</title>
<g id="a_Node000025"><a xlink:href="_shader_program_8cpp.html" target="_top" xlink:title=" ">
<polygon fill="white" stroke="#666666" points="1449.88,-132 1331.12,-132 1331.12,-112 1449.88,-112 1449.88,-132"/>
<text text-anchor="middle" x="1390.5" y="-118.5" font-family="Helvetica,sans-Serif" font-size="10.00">src/ShaderProgram.cpp</text>
</a>
</g>
</g>
<!-- Node1&#45;&gt;Node25 -->
<g id="edge61_Node000001_Node000025" class="edge">
<title>Node1&#45;&gt;Node25</title>
<g id="a_edge61_Node000001_Node000025"><a xlink:title=" ">
<path fill="none" stroke="#63b8ff" d="M762.7,-332.48C793.71,-323.74 835.73,-311.61 872.5,-300 1062.36,-240.04 1288.38,-159.68 1364.23,-132.46"/>
<polygon fill="#63b8ff" stroke="#63b8ff" points="761.95,-329.05 753.26,-335.13 763.84,-335.79 761.95,-329.05"/>
</a>
</g>
</g>
<!-- Node3 -->
<g id="Node000003" class="node">
<title>Node3</title>
<g id="a_Node000003"><a xlink:href="_direct_x_manager_8cpp.html" target="_top" xlink:title=" ">
<polygon fill="white" stroke="#666666" points="1313.25,-132 1193.75,-132 1193.75,-112 1313.25,-112 1313.25,-132"/>
<text text-anchor="middle" x="1253.5" y="-118.5" font-family="Helvetica,sans-Serif" font-size="10.00">src/DirectXManager.cpp</text>
</a>
</g>
</g>
<!-- Node2&#45;&gt;Node3 -->
<g id="edge2_Node000002_Node000003" class="edge">
<title>Node2&#45;&gt;Node3</title>
<g id="a_edge2_Node000002_Node000003"><a xlink:title=" ">
<path fill="none" stroke="#63b8ff" d="M857.76,-276.76C921.42,-259.94 1036.41,-227.28 1130.5,-188 1170.62,-171.25 1215.13,-145.92 1238.02,-132.36"/>
<polygon fill="#63b8ff" stroke="#63b8ff" points="857.11,-273.31 848.33,-279.23 858.89,-280.08 857.11,-273.31"/>
</a>
</g>
</g>
<!-- Node2&#45;&gt;Node4 -->
<g id="edge3_Node000002_Node000004" class="edge">
<title>Node2&#45;&gt;Node4</title>
<g id="a_edge3_Node000002_Node000004"><a xlink:title=" ">
<path fill="none" stroke="#63b8ff" d="M778.46,-274.35C761.16,-264.84 740.8,-252.74 728.37,-244.48"/>
<polygon fill="#63b8ff" stroke="#63b8ff" points="776.41,-277.22 786.88,-278.88 779.73,-271.06 776.41,-277.22"/>
</a>
</g>
</g>
<!-- Node22 -->
<g id="Node000022" class="node">
<title>Node22</title>
<g id="a_Node000022"><a xlink:href="_win32_application_8h.html" target="_top" xlink:title=" ">
<polygon fill="white" stroke="#666666" points="775.75,-188 659.25,-188 659.25,-168 775.75,-168 775.75,-188"/>
<text text-anchor="middle" x="717.5" y="-174.5" font-family="Helvetica,sans-Serif" font-size="10.00">src/Win32Application.h</text>
</a>
</g>
</g>
<!-- Node2&#45;&gt;Node22 -->
<g id="edge58_Node000002_Node000022" class="edge">
<title>Node2&#45;&gt;Node22</title>
<g id="a_edge58_Node000002_Node000022"><a xlink:title=" ">
<path fill="none" stroke="#63b8ff" d="M801.64,-269.71C795.5,-256.06 786.09,-237.81 774.5,-224 762.34,-209.51 744.86,-196.55 732.47,-188.31"/>
<polygon fill="#63b8ff" stroke="#63b8ff" points="798.25,-270.68 805.4,-278.5 804.69,-267.93 798.25,-270.68"/>
</a>
</g>
</g>
<!-- Node4&#45;&gt;Node1 -->
<g id="edge40_Node000004_Node000001" class="edge">
<title>Node4&#45;&gt;Node1</title>
<g id="a_edge40_Node000004_Node000001"><a xlink:title=" ">
<path fill="none" stroke="#63b8ff" d="M722.91,-255.65C725.09,-279.59 724.61,-318.01 721.48,-335.62"/>
<polygon fill="#63b8ff" stroke="#63b8ff" points="726.4,-255.34 721.67,-245.86 719.45,-256.22 726.4,-255.34"/>
</a>
</g>
</g>
<!-- Node4&#45;&gt;Node2 -->
<g id="edge8_Node000004_Node000002" class="edge">
<title>Node4&#45;&gt;Node2</title>
<g id="a_edge8_Node000004_Node000002"><a xlink:title=" ">
<path fill="none" stroke="#63b8ff" d="M748.7,-249.74C766.02,-259.26 786.36,-271.36 798.74,-279.59"/>
<polygon fill="#63b8ff" stroke="#63b8ff" points="750.73,-246.86 740.26,-245.2 747.41,-253.02 750.73,-246.86"/>
</a>
</g>
</g>
<!-- Node5 -->
<g id="Node000005" class="node">
<title>Node5</title>
<g id="a_Node000005"><a xlink:href="_camera_8h.html" target="_top" xlink:title=" ">
<polygon fill="white" stroke="#666666" points="995.75,-188 921.25,-188 921.25,-168 995.75,-168 995.75,-188"/>
<text text-anchor="middle" x="958.5" y="-174.5" font-family="Helvetica,sans-Serif" font-size="10.00">src/Camera.h</text>
</a>
</g>
</g>
<!-- Node4&#45;&gt;Node5 -->
<g id="edge4_Node000004_Node000005" class="edge">
<title>Node4&#45;&gt;Node5</title>
<g id="a_edge4_Node000004_Node000005"><a xlink:title=" ">
<path fill="none" stroke="#63b8ff" d="M765.59,-220.94C811.26,-210.35 878.85,-195.27 920.78,-186.37"/>
<polygon fill="#63b8ff" stroke="#63b8ff" points="764.89,-217.51 755.95,-223.19 766.48,-224.33 764.89,-217.51"/>
</a>
</g>
</g>
<!-- Node7 -->
<g id="Node000007" class="node">
<title>Node7</title>
<g id="a_Node000007"><a xlink:href="_game_engine_8cpp.html" target="_top" xlink:title=" ">
<polygon fill="white" stroke="#666666" points="356.25,-132 248.75,-132 248.75,-112 356.25,-112 356.25,-132"/>
<text text-anchor="middle" x="302.5" y="-118.5" font-family="Helvetica,sans-Serif" font-size="10.00">src/GameEngine.cpp</text>
</a>
</g>
</g>
<!-- Node4&#45;&gt;Node7 -->
<g id="edge9_Node000004_Node000007" class="edge">
<title>Node4&#45;&gt;Node7</title>
<g id="a_edge9_Node000004_Node000007"><a xlink:title=" ">
<path fill="none" stroke="#63b8ff" d="M657.41,-226.05C610.47,-219.47 544.09,-207.62 488.5,-188 470.5,-181.65 468.15,-175.25 450.5,-168 414.11,-153.05 370.9,-140.47 340.59,-132.45"/>
<polygon fill="#63b8ff" stroke="#63b8ff" points="656.73,-229.49 667.11,-227.37 657.67,-222.55 656.73,-229.49"/>
</a>
</g>
</g>
<!-- Node8 -->
<g id="Node000008" class="node">
<title>Node8</title>
<g id="a_Node000008"><a xlink:href="_graphics_device_8h.html" target="_top" xlink:title=" ">
<polygon fill="white" stroke="#666666" points="1121.62,-188 1013.38,-188 1013.38,-168 1121.62,-168 1121.62,-188"/>
<text text-anchor="middle" x="1067.5" y="-174.5" font-family="Helvetica,sans-Serif" font-size="10.00">src/GraphicsDevice.h</text>
</a>
</g>
</g>
<!-- Node4&#45;&gt;Node8 -->
<g id="edge10_Node000004_Node000008" class="edge">
<title>Node4&#45;&gt;Node8</title>
<g id="a_edge10_Node000004_Node000008"><a xlink:title=" ">
<path fill="none" stroke="#63b8ff" d="M777.45,-222.92C843.59,-212.41 948.95,-196.18 1012.88,-186.67"/>
<polygon fill="#63b8ff" stroke="#63b8ff" points="777.2,-219.41 767.88,-224.44 778.31,-226.33 777.2,-219.41"/>
</a>
</g>
</g>
<!-- Node10 -->
<g id="Node000010" class="node">
<title>Node10</title>
<g id="a_Node000010"><a xlink:href="_mesh_8h.html" target="_top" xlink:title=" ">
<polygon fill="white" stroke="#666666" points="1532.88,-132 1468.12,-132 1468.12,-112 1532.88,-112 1532.88,-132"/>
<text text-anchor="middle" x="1500.5" y="-118.5" font-family="Helvetica,sans-Serif" font-size="10.00">src/Mesh.h</text>
</a>
</g>
</g>
<!-- Node4&#45;&gt;Node10 -->
<g id="edge28_Node000004_Node000010" class="edge">
<title>Node4&#45;&gt;Node10</title>
<g id="a_edge28_Node000004_Node000010"><a xlink:title=" ">
<path fill="none" stroke="#63b8ff" d="M777.68,-227C856.77,-219.35 999.63,-205.03 1121.5,-188 1267.96,-167.54 1304.28,-159.94 1449.5,-132 1455.36,-130.87 1461.66,-129.57 1467.82,-128.31"/>
<polygon fill="#63b8ff" stroke="#63b8ff" points="777.61,-223.49 767.99,-227.94 778.29,-230.46 777.61,-223.49"/>
</a>
</g>
</g>
<!-- Node4&#45;&gt;Node13 -->
<g id="edge19_Node000004_Node000013" class="edge">
<title>Node4&#45;&gt;Node13</title>
<g id="a_edge19_Node000004_Node000013"><a xlink:title=" ">
<path fill="none" stroke="#63b8ff" d="M657.41,-228.64C580.69,-222.21 444.41,-208.68 329.5,-188 243.98,-172.61 145.01,-146.37 97.86,-132.4"/>
<polygon fill="#63b8ff" stroke="#63b8ff" points="656.99,-232.11 667.24,-229.45 657.56,-225.14 656.99,-232.11"/>
</a>
</g>
</g>
<!-- Node15 -->
<g id="Node000015" class="node">
<title>Node15</title>
<g id="a_Node000015"><a xlink:href="_model_8h.html" target="_top" xlink:title=" ">
<polygon fill="white" stroke="#666666" points="67,-76 0,-76 0,-56 67,-56 67,-76"/>
<text text-anchor="middle" x="33.5" y="-62.5" font-family="Helvetica,sans-Serif" font-size="10.00">src/Model.h</text>
</a>
</g>
</g>
<!-- Node4&#45;&gt;Node15 -->
<g id="edge29_Node000004_Node000015" class="edge">
<title>Node4&#45;&gt;Node15</title>
<g id="a_edge29_Node000004_Node000015"><a xlink:title=" ">
<path fill="none" stroke="#63b8ff" d="M657.51,-230.51C565.93,-225.86 386.44,-213.9 236.5,-188 136.23,-170.68 77.04,-212.27 14.5,-132 1.87,-115.79 11.94,-90.24 22.17,-76.5"/>
<polygon fill="#63b8ff" stroke="#63b8ff" points="657.1,-233.99 667.26,-230.99 657.45,-227 657.1,-233.99"/>
</a>
</g>
</g>
<!-- Node16 -->
<g id="Node000016" class="node">
<title>Node16</title>
<g id="a_Node000016"><a xlink:href="_render_state_8h.html" target="_top" xlink:title=" ">
<polygon fill="white" stroke="#666666" points="441.88,-188 347.12,-188 347.12,-168 441.88,-168 441.88,-188"/>
<text text-anchor="middle" x="394.5" y="-174.5" font-family="Helvetica,sans-Serif" font-size="10.00">src/RenderState.h</text>
</a>
</g>
</g>
<!-- Node4&#45;&gt;Node16 -->
<g id="edge30_Node000004_Node000016" class="edge">
<title>Node4&#45;&gt;Node16</title>
<g id="a_edge30_Node000004_Node000016"><a xlink:title=" ">
<path fill="none" stroke="#63b8ff" d="M657.6,-223.86C595.42,-213.81 499.55,-197.78 442.27,-187.85"/>
<polygon fill="#63b8ff" stroke="#63b8ff" points="656.88,-227.29 667.31,-225.42 657.99,-220.37 656.88,-227.29"/>
</a>
</g>
</g>
<!-- Node18 -->
<g id="Node000018" class="node">
<title>Node18</title>
<g id="a_Node000018"><a xlink:href="_scene_8h.html" target="_top" xlink:title=" ">
<polygon fill="white" stroke="#666666" points="565.75,-188 497.25,-188 497.25,-168 565.75,-168 565.75,-188"/>
<text text-anchor="middle" x="531.5" y="-174.5" font-family="Helvetica,sans-Serif" font-size="10.00">src/Scene.h</text>
</a>
</g>
</g>
<!-- Node4&#45;&gt;Node18 -->
<g id="edge35_Node000004_Node000018" class="edge">
<title>Node4&#45;&gt;Node18</title>
<g id="a_edge35_Node000004_Node000018"><a xlink:title=" ">
<path fill="none" stroke="#63b8ff" d="M674.21,-220.43C640.6,-210.67 594.72,-197.35 564.15,-188.48"/>
<polygon fill="#63b8ff" stroke="#63b8ff" points="673.07,-223.74 683.65,-223.17 675.02,-217.02 673.07,-223.74"/>
</a>
</g>
</g>
<!-- Node20 -->
<g id="Node000020" class="node">
<title>Node20</title>
<g id="a_Node000020"><a xlink:href="_shader_manager_8h.html" target="_top" xlink:title=" ">
<polygon fill="white" stroke="#666666" points="903,-188 794,-188 794,-168 903,-168 903,-188"/>
<text text-anchor="middle" x="848.5" y="-174.5" font-family="Helvetica,sans-Serif" font-size="10.00">src/ShaderManager.h</text>
</a>
</g>
</g>
<!-- Node4&#45;&gt;Node20 -->
<g id="edge37_Node000004_Node000020" class="edge">
<title>Node4&#45;&gt;Node20</title>
<g id="a_edge37_Node000004_Node000020"><a xlink:title=" ">
<path fill="none" stroke="#63b8ff" d="M750.8,-219.27C774.17,-209.64 804.82,-197.01 825.5,-188.48"/>
<polygon fill="#63b8ff" stroke="#63b8ff" points="749.63,-215.97 741.72,-223.02 752.3,-222.44 749.63,-215.97"/>
</a>
</g>
</g>
<!-- Node4&#45;&gt;Node22 -->
<g id="edge41_Node000004_Node000022" class="edge">
<title>Node4&#45;&gt;Node22</title>
<g id="a_edge41_Node000004_Node000022"><a xlink:title=" ">
<path fill="none" stroke="#63b8ff" d="M710.92,-212.43C710.47,-204.11 710.91,-194.93 712.25,-188.3"/>
<polygon fill="#63b8ff" stroke="#63b8ff" points="707.42,-212.57 712.06,-222.09 714.37,-211.75 707.42,-212.57"/>
</a>
</g>
</g>
<!-- Node24 -->
<g id="Node000024" class="node">
<title>Node24</title>
<g id="a_Node000024"><a xlink:href="pch_8h.html" target="_top" xlink:title=" ">
<polygon fill="white" stroke="#666666" points="640.75,-188 584.25,-188 584.25,-168 640.75,-168 640.75,-188"/>
<text text-anchor="middle" x="612.5" y="-174.5" font-family="Helvetica,sans-Serif" font-size="10.00">src/pch.h</text>
</a>
</g>
</g>
<!-- Node4&#45;&gt;Node24 -->
<g id="edge44_Node000004_Node000024" class="edge">
<title>Node4&#45;&gt;Node24</title>
<g id="a_edge44_Node000004_Node000024"><a xlink:title=" ">
<path fill="none" stroke="#63b8ff" d="M689.01,-218.35C670.53,-208.84 646.99,-196.74 630.93,-188.48"/>
<polygon fill="#63b8ff" stroke="#63b8ff" points="687.37,-221.44 697.86,-222.9 690.57,-215.22 687.37,-221.44"/>
</a>
</g>
</g>
<!-- Node5&#45;&gt;Node2 -->
<g id="edge6_Node000005_Node000002" class="edge">
<title>Node5&#45;&gt;Node2</title>
<g id="a_edge6_Node000005_Node000002"><a xlink:title=" ">
<path fill="none" stroke="#63b8ff" d="M936.95,-194.91C905.42,-218.18 847.71,-260.79 822.2,-279.62"/>
<polygon fill="#63b8ff" stroke="#63b8ff" points="938.64,-198.01 944.61,-189.25 934.49,-192.38 938.64,-198.01"/>
</a>
</g>
</g>
<!-- Node5&#45;&gt;Node4 -->
<g id="edge7_Node000005_Node000004" class="edge">
<title>Node5&#45;&gt;Node4</title>
<g id="a_edge7_Node000005_Node000004"><a xlink:title=" ">
<path fill="none" stroke="#63b8ff" d="M910.45,-191.05C868.19,-200.85 807.14,-214.5 765.03,-223.53"/>
<polygon fill="#63b8ff" stroke="#63b8ff" points="911.15,-194.48 920.1,-188.8 909.56,-187.66 911.15,-194.48"/>
</a>
</g>
</g>
<!-- Node6 -->
<g id="Node000006" class="node">
<title>Node6</title>
<g id="a_Node000006"><a xlink:href="_camera_8cpp.html" target="_top" xlink:title=" ">
<polygon fill="white" stroke="#666666" points="1039,-132 954,-132 954,-112 1039,-112 1039,-132"/>
<text text-anchor="middle" x="996.5" y="-118.5" font-family="Helvetica,sans-Serif" font-size="10.00">src/Camera.cpp</text>
</a>
</g>
</g>
<!-- Node5&#45;&gt;Node6 -->
<g id="edge5_Node000005_Node000006" class="edge">
<title>Node5&#45;&gt;Node6</title>
<g id="a_edge5_Node000005_Node000006"><a xlink:title=" ">
<path fill="none" stroke="#63b8ff" d="M971.56,-158.44C977.77,-149.62 984.91,-139.47 989.96,-132.3"/>
<polygon fill="#63b8ff" stroke="#63b8ff" points="968.88,-156.16 965.99,-166.36 974.61,-160.19 968.88,-156.16"/>
</a>
</g>
</g>
<!-- Node8&#45;&gt;Node2 -->
<g id="edge11_Node000008_Node000002" class="edge">
<title>Node8&#45;&gt;Node2</title>
<g id="a_edge11_Node000008_Node000002"><a xlink:title=" ">
<path fill="none" stroke="#63b8ff" d="M1035,-192.86C981.68,-215.59 877,-260.22 831.5,-279.62"/>
<polygon fill="#63b8ff" stroke="#63b8ff" points="1036.34,-196.09 1044.17,-188.95 1033.59,-189.65 1036.34,-196.09"/>
</a>
</g>
</g>
<!-- Node8&#45;&gt;Node4 -->
<g id="edge12_Node000008_Node000004" class="edge">
<title>Node8&#45;&gt;Node4</title>
<g id="a_edge12_Node000008_Node000004"><a xlink:title=" ">
<path fill="none" stroke="#63b8ff" d="M1002.06,-189.95C933.53,-200.81 827.63,-217.11 766.13,-226.22"/>
<polygon fill="#63b8ff" stroke="#63b8ff" points="1002.32,-193.46 1011.65,-188.43 1001.22,-186.54 1002.32,-193.46"/>
</a>
</g>
</g>
<!-- Node9 -->
<g id="Node000009" class="node">
<title>Node9</title>
<g id="a_Node000009"><a xlink:href="_graphics_device_8cpp.html" target="_top" xlink:title=" ">
<polygon fill="white" stroke="#666666" points="1175.88,-132 1057.12,-132 1057.12,-112 1175.88,-112 1175.88,-132"/>
<text text-anchor="middle" x="1116.5" y="-118.5" font-family="Helvetica,sans-Serif" font-size="10.00">src/GraphicsDevice.cpp</text>
</a>
</g>
</g>
<!-- Node8&#45;&gt;Node9 -->
<g id="edge13_Node000008_Node000009" class="edge">
<title>Node8&#45;&gt;Node9</title>
<g id="a_edge13_Node000008_Node000009"><a xlink:title=" ">
<path fill="none" stroke="#63b8ff" d="M1083.57,-159.29C1091.75,-150.28 1101.35,-139.7 1108.06,-132.3"/>
<polygon fill="#63b8ff" stroke="#63b8ff" points="1081.18,-156.72 1077.05,-166.47 1086.36,-161.42 1081.18,-156.72"/>
</a>
</g>
</g>
<!-- Node8&#45;&gt;Node10 -->
<g id="edge14_Node000008_Node000010" class="edge">
<title>Node8&#45;&gt;Node10</title>
<g id="a_edge14_Node000008_Node000010"><a xlink:title=" ">
<path fill="none" stroke="#63b8ff" d="M1133.25,-170.21C1227.83,-160.31 1397.58,-142.01 1458.5,-132 1461.59,-131.49 1464.8,-130.91 1468,-130.29"/>
<polygon fill="#63b8ff" stroke="#63b8ff" points="1132.91,-166.73 1123.33,-171.25 1133.64,-173.69 1132.91,-166.73"/>
</a>
</g>
</g>
<!-- Node10&#45;&gt;Node2 -->
<g id="edge15_Node000010_Node000002" class="edge">
<title>Node10&#45;&gt;Node2</title>
<g id="a_edge15_Node000010_Node000002"><a xlink:title=" ">
<path fill="none" stroke="#63b8ff" d="M1456.92,-134.47C1372.52,-156.56 1180.77,-206.17 1018.5,-244 962.65,-257.02 898.09,-270.71 855.67,-279.53"/>
<polygon fill="#63b8ff" stroke="#63b8ff" points="1457.61,-137.9 1466.4,-131.98 1455.84,-131.13 1457.61,-137.9"/>
</a>
</g>
</g>
<!-- Node10&#45;&gt;Node4 -->
<g id="edge16_Node000010_Node000004" class="edge">
<title>Node10&#45;&gt;Node4</title>
<g id="a_edge16_Node000010_Node000004"><a xlink:title=" ">
<path fill="none" stroke="#63b8ff" d="M1456.64,-134.09C1320.29,-160.35 1282.1,-168.08 1139.5,-188 1005.21,-206.76 845.42,-222.24 766.45,-229.13"/>
<polygon fill="#63b8ff" stroke="#63b8ff" points="1457.3,-137.53 1466.45,-132.2 1455.97,-130.65 1457.3,-137.53"/>
</a>
</g>
</g>
<!-- Node11 -->
<g id="Node000011" class="node">
<title>Node11</title>
<g id="a_Node000011"><a xlink:href="_mesh_8cpp.html" target="_top" xlink:title=" ">
<polygon fill="white" stroke="#666666" points="519.12,-20 443.88,-20 443.88,0 519.12,0 519.12,-20"/>
<text text-anchor="middle" x="481.5" y="-6.5" font-family="Helvetica,sans-Serif" font-size="10.00">src/Mesh.cpp</text>
</a>
</g>
</g>
<!-- Node10&#45;&gt;Node11 -->
<g id="edge17_Node000010_Node000011" class="edge">
<title>Node10&#45;&gt;Node11</title>
<g id="a_edge17_Node000010_Node000011"><a xlink:title=" ">
<path fill="none" stroke="#63b8ff" d="M1456.72,-111.92C1288.01,-86.39 1242.51,-92.89 1076.5,-76 865.86,-54.57 613.61,-26.08 519.42,-15.34"/>
<polygon fill="#63b8ff" stroke="#63b8ff" points="1456.1,-115.36 1466.51,-113.42 1457.16,-108.44 1456.1,-115.36"/>
</a>
</g>
</g>
<!-- Node12 -->
<g id="Node000012" class="node">
<title>Node12</title>
<g id="a_Node000012"><a xlink:href="_model_8cpp.html" target="_top" xlink:title=" ">
<polygon fill="white" stroke="#666666" points="682.25,-20 604.75,-20 604.75,0 682.25,0 682.25,-20"/>
<text text-anchor="middle" x="643.5" y="-6.5" font-family="Helvetica,sans-Serif" font-size="10.00">src/Model.cpp</text>
</a>
</g>
</g>
<!-- Node10&#45;&gt;Node12 -->
<g id="edge18_Node000010_Node000012" class="edge">
<title>Node10&#45;&gt;Node12</title>
<g id="a_edge18_Node000010_Node000012"><a xlink:title=" ">
<path fill="none" stroke="#63b8ff" d="M1456.76,-111.85C1153.08,-61.06 799.11,-25.65 682.7,-14.62"/>
<polygon fill="#63b8ff" stroke="#63b8ff" points="1456.06,-115.28 1466.5,-113.49 1457.22,-108.38 1456.06,-115.28"/>
</a>
</g>
</g>
<!-- Node13&#45;&gt;Node2 -->
<g id="edge20_Node000013_Node000002" class="edge">
<title>Node13&#45;&gt;Node2</title>
<g id="a_edge20_Node000013_Node000002"><a xlink:title=" ">
<path fill="none" stroke="#63b8ff" d="M102.62,-136.91C137.3,-151.45 194.43,-174.06 245.5,-188 429.03,-238.09 653.12,-269.71 754.73,-282.5"/>
<polygon fill="#63b8ff" stroke="#63b8ff" points="104.15,-133.76 93.58,-133.08 101.43,-140.2 104.15,-133.76"/>
</a>
</g>
</g>
<!-- Node13&#45;&gt;Node4 -->
<g id="edge21_Node000013_Node000004" class="edge">
<title>Node13&#45;&gt;Node4</title>
<g id="a_edge21_Node000013_Node000004"><a xlink:title=" ">
<path fill="none" stroke="#63b8ff" d="M119.44,-135.01C174.7,-149.44 267.05,-173.52 347.5,-188 461.95,-208.6 597.6,-222.1 668.69,-228.56"/>
<polygon fill="#63b8ff" stroke="#63b8ff" points="120.59,-131.69 110.03,-132.55 118.82,-138.47 120.59,-131.69"/>
</a>
</g>
</g>
<!-- Node14 -->
<g id="Node000014" class="node">
<title>Node14</title>
<g id="a_Node000014"><a xlink:href="_material_8cpp.html" target="_top" xlink:title=" ">
<polygon fill="white" stroke="#666666" points="312.38,-76 226.62,-76 226.62,-56 312.38,-56 312.38,-76"/>
<text text-anchor="middle" x="269.5" y="-62.5" font-family="Helvetica,sans-Serif" font-size="10.00">src/Material.cpp</text>
</a>
</g>
</g>
<!-- Node13&#45;&gt;Node14 -->
<g id="edge22_Node000013_Node000014" class="edge">
<title>Node13&#45;&gt;Node14</title>
<g id="a_edge22_Node000013_Node000014"><a xlink:title=" ">
<path fill="none" stroke="#63b8ff" d="M115.88,-108.69C151.92,-98.91 201.58,-85.43 234.57,-76.48"/>
<polygon fill="#63b8ff" stroke="#63b8ff" points="115.36,-105.2 106.62,-111.2 117.19,-111.96 115.36,-105.2"/>
</a>
</g>
</g>
<!-- Node13&#45;&gt;Node15 -->
<g id="edge23_Node000013_Node000015" class="edge">
<title>Node13&#45;&gt;Node15</title>
<g id="a_edge23_Node000013_Node000015"><a xlink:title=" ">
<path fill="none" stroke="#63b8ff" d="M57.59,-102.15C51.59,-93.4 44.73,-83.39 39.87,-76.3"/>
<polygon fill="#63b8ff" stroke="#63b8ff" points="54.66,-104.07 63.2,-110.35 60.43,-100.12 54.66,-104.07"/>
</a>
</g>
</g>
<!-- Node15&#45;&gt;Node2 -->
<g id="edge24_Node000015_Node000002" class="edge">
<title>Node15&#45;&gt;Node2</title>
<g id="a_edge24_Node000015_Node000002"><a xlink:title=" ">
<path fill="none" stroke="#63b8ff" d="M21.04,-86.08C14.13,-99.13 7.95,-116.74 13.5,-132 24.61,-162.53 32.29,-171.87 60.5,-188 179.39,-255.97 602.42,-280.25 754.52,-286.89"/>
<polygon fill="#63b8ff" stroke="#63b8ff" points="23.94,-88.05 26.01,-77.66 17.91,-84.49 23.94,-88.05"/>
</a>
</g>
</g>
<!-- Node15&#45;&gt;Node4 -->
<g id="edge25_Node000015_Node000004" class="edge">
<title>Node15&#45;&gt;Node4</title>
<g id="a_edge25_Node000015_Node000004"><a xlink:title=" ">
<path fill="none" stroke="#63b8ff" d="M30.61,-87.41C26.54,-101.34 22.73,-119.46 32.5,-132 95.04,-212.27 154.23,-170.68 254.5,-188 404.36,-213.89 583.75,-225.85 668.61,-230.5"/>
<polygon fill="#63b8ff" stroke="#63b8ff" points="33.93,-88.53 33.47,-77.95 27.23,-86.5 33.93,-88.53"/>
</a>
</g>
</g>
<!-- Node15&#45;&gt;Node11 -->
<g id="edge26_Node000015_Node000011" class="edge">
<title>Node15&#45;&gt;Node11</title>
<g id="a_edge26_Node000015_Node000011"><a xlink:title=" ">
<path fill="none" stroke="#63b8ff" d="M78.4,-59.59C166.69,-48.95 361.44,-25.47 443.67,-15.56"/>
<polygon fill="#63b8ff" stroke="#63b8ff" points="78.18,-56.09 68.68,-60.76 79.02,-63.04 78.18,-56.09"/>
</a>
</g>
</g>
<!-- Node15&#45;&gt;Node12 -->
<g id="edge27_Node000015_Node000012" class="edge">
<title>Node15&#45;&gt;Node12</title>
<g id="a_edge27_Node000015_Node000012"><a xlink:title=" ">
<path fill="none" stroke="#63b8ff" d="M78.31,-61.03C193.13,-50.87 496.4,-24.02 604.52,-14.45"/>
<polygon fill="#63b8ff" stroke="#63b8ff" points="78.33,-57.52 68.67,-61.89 78.94,-64.49 78.33,-57.52"/>
</a>
</g>
</g>
<!-- Node16&#45;&gt;Node2 -->
<g id="edge31_Node000016_Node000002" class="edge">
<title>Node16&#45;&gt;Node2</title>
<g id="a_edge31_Node000016_Node000002"><a xlink:title=" ">
<path fill="none" stroke="#63b8ff" d="M441.26,-191.39C524.99,-213.59 698.76,-259.65 773.76,-279.53"/>
<polygon fill="#63b8ff" stroke="#63b8ff" points="442.33,-188.06 431.77,-188.88 440.54,-194.82 442.33,-188.06"/>
</a>
</g>
</g>
<!-- Node16&#45;&gt;Node4 -->
<g id="edge32_Node000016_Node000004" class="edge">
<title>Node16&#45;&gt;Node4</title>
<g id="a_edge32_Node000016_Node000004"><a xlink:title=" ">
<path fill="none" stroke="#63b8ff" d="M453.24,-187.95C514.98,-197.93 610.86,-213.96 668.63,-223.96"/>
<polygon fill="#63b8ff" stroke="#63b8ff" points="454.05,-184.54 443.62,-186.41 452.93,-191.45 454.05,-184.54"/>
</a>
</g>
</g>
<!-- Node16&#45;&gt;Node13 -->
<g id="edge33_Node000016_Node000013" class="edge">
<title>Node16&#45;&gt;Node13</title>
<g id="a_edge33_Node000016_Node000013"><a xlink:title=" ">
<path fill="none" stroke="#63b8ff" d="M335.51,-168.03C279.17,-159.32 191.92,-145.48 116.5,-132 113.78,-131.51 110.96,-131 108.14,-130.47"/>
<polygon fill="#63b8ff" stroke="#63b8ff" points="334.79,-171.45 345.21,-169.52 335.86,-164.54 334.79,-171.45"/>
</a>
</g>
</g>
<!-- Node17 -->
<g id="Node000017" class="node">
<title>Node17</title>
<g id="a_Node000017"><a xlink:href="_render_state_8cpp.html" target="_top" xlink:title=" ">
<polygon fill="white" stroke="#666666" points="231.12,-132 125.88,-132 125.88,-112 231.12,-112 231.12,-132"/>
<text text-anchor="middle" x="178.5" y="-118.5" font-family="Helvetica,sans-Serif" font-size="10.00">src/RenderState.cpp</text>
</a>
</g>
</g>
<!-- Node16&#45;&gt;Node17 -->
<g id="edge34_Node000016_Node000017" class="edge">
<title>Node16&#45;&gt;Node17</title>
<g id="a_edge34_Node000016_Node000017"><a xlink:title=" ">
<path fill="none" stroke="#63b8ff" d="M345.75,-164.81C306.59,-155.02 252.38,-141.47 216.42,-132.48"/>
<polygon fill="#63b8ff" stroke="#63b8ff" points="344.86,-168.2 355.41,-167.23 346.55,-161.41 344.86,-168.2"/>
</a>
</g>
</g>
<!-- Node19 -->
<g id="Node000019" class="node">
<title>Node19</title>
<g id="a_Node000019"><a xlink:href="_scene_8cpp.html" target="_top" xlink:title=" ">
<polygon fill="white" stroke="#666666" points="453,-132 374,-132 374,-112 453,-112 453,-132"/>
<text text-anchor="middle" x="413.5" y="-118.5" font-family="Helvetica,sans-Serif" font-size="10.00">src/Scene.cpp</text>
</a>
</g>
</g>
<!-- Node18&#45;&gt;Node19 -->
<g id="edge36_Node000018_Node000019" class="edge">
<title>Node18&#45;&gt;Node19</title>
<g id="a_edge36_Node000018_Node000019"><a xlink:title=" ">
<path fill="none" stroke="#63b8ff" d="M500.64,-162.88C479.7,-153.3 452.6,-140.89 434.21,-132.48"/>
<polygon fill="#63b8ff" stroke="#63b8ff" points="499.02,-165.99 509.57,-166.96 501.93,-159.62 499.02,-165.99"/>
</a>
</g>
</g>
<!-- Node20&#45;&gt;Node2 -->
<g id="edge38_Node000020_Node000002" class="edge">
<title>Node20&#45;&gt;Node2</title>
<g id="a_edge38_Node000020_Node000002"><a xlink:title=" ">
<path fill="none" stroke="#63b8ff" d="M841.41,-199C832.94,-222.88 819.13,-261.84 812.83,-279.62"/>
<polygon fill="#63b8ff" stroke="#63b8ff" points="844.63,-200.38 844.68,-189.78 838.04,-198.04 844.63,-200.38"/>
</a>
</g>
</g>
<!-- Node21 -->
<g id="Node000021" class="node">
<title>Node21</title>
<g id="a_Node000021"><a xlink:href="_shader_manager_8cpp.html" target="_top" xlink:title=" ">
<polygon fill="white" stroke="#666666" points="936.25,-132 816.75,-132 816.75,-112 936.25,-112 936.25,-132"/>
<text text-anchor="middle" x="876.5" y="-118.5" font-family="Helvetica,sans-Serif" font-size="10.00">src/ShaderManager.cpp</text>
</a>
</g>
</g>
<!-- Node20&#45;&gt;Node21 -->
<g id="edge39_Node000020_Node000021" class="edge">
<title>Node20&#45;&gt;Node21</title>
<g id="a_edge39_Node000020_Node000021"><a xlink:title=" ">
<path fill="none" stroke="#63b8ff" d="M858.57,-157.58C863.03,-148.97 868.08,-139.24 871.68,-132.3"/>
<polygon fill="#63b8ff" stroke="#63b8ff" points="855.57,-155.76 854.07,-166.25 861.78,-158.98 855.57,-155.76"/>
</a>
</g>
</g>
<!-- Node22&#45;&gt;Node4 -->
<g id="edge42_Node000022_Node000004" class="edge">
<title>Node22&#45;&gt;Node4</title>
<g id="a_edge42_Node000022_Node000004"><a xlink:title=" ">
<path fill="none" stroke="#63b8ff" d="M724.09,-199.73C724.52,-207.96 724.08,-217.01 722.77,-223.59"/>
<polygon fill="#63b8ff" stroke="#63b8ff" points="727.56,-199.33 722.92,-189.8 720.61,-200.14 727.56,-199.33"/>
</a>
</g>
</g>
<!-- Node23 -->
<g id="Node000023" class="node">
<title>Node23</title>
<g id="a_Node000023"><a xlink:href="_win32_application_8cpp.html" target="_top" xlink:title=" ">
<polygon fill="white" stroke="#666666" points="799,-132 672,-132 672,-112 799,-112 799,-132"/>
<text text-anchor="middle" x="735.5" y="-118.5" font-family="Helvetica,sans-Serif" font-size="10.00">src/Win32Application.cpp</text>
</a>
</g>
</g>
<!-- Node22&#45;&gt;Node23 -->
<g id="edge43_Node000022_Node000023" class="edge">
<title>Node22&#45;&gt;Node23</title>
<g id="a_edge43_Node000022_Node000023"><a xlink:title=" ">
<path fill="none" stroke="#63b8ff" d="M724.26,-156.71C727.06,-148.32 730.16,-139.01 732.4,-132.3"/>
<polygon fill="#63b8ff" stroke="#63b8ff" points="720.96,-155.56 721.11,-166.16 727.6,-157.78 720.96,-155.56"/>
</a>
</g>
</g>
<!-- Node24&#45;&gt;Node3 -->
<g id="edge46_Node000024_Node000003" class="edge">
<title>Node24&#45;&gt;Node3</title>
<g id="a_edge46_Node000024_Node000003"><a xlink:title=" ">
<path fill="none" stroke="#63b8ff" d="M652.37,-168.01C887.69,-133.17 951.48,-155.03 1184.5,-132 1187.39,-131.71 1190.34,-131.4 1193.31,-131.07"/>
<polygon fill="#63b8ff" stroke="#63b8ff" points="651.9,-164.54 642.53,-169.48 652.94,-171.46 651.9,-164.54"/>
</a>
</g>
</g>
<!-- Node24&#45;&gt;Node6 -->
<g id="edge45_Node000024_Node000006" class="edge">
<title>Node24&#45;&gt;Node6</title>
<g id="a_edge45_Node000024_Node000006"><a xlink:title=" ">
<path fill="none" stroke="#63b8ff" d="M652.27,-167.88C782.47,-145.09 818.43,-150.95 945.5,-132 948.17,-131.6 950.91,-131.17 953.67,-130.73"/>
<polygon fill="#63b8ff" stroke="#63b8ff" points="651.79,-164.42 642.55,-169.61 653.01,-171.31 651.79,-164.42"/>
</a>
</g>
</g>
<!-- Node24&#45;&gt;Node7 -->
<g id="edge47_Node000024_Node000007" class="edge">
<title>Node24&#45;&gt;Node7</title>
<g id="a_edge47_Node000024_Node000007"><a xlink:title=" ">
<path fill="none" stroke="#63b8ff" d="M572.99,-167.82C491.83,-151.71 409.3,-138.71 356.63,-130.84"/>
<polygon fill="#63b8ff" stroke="#63b8ff" points="571.94,-171.18 582.43,-169.71 573.31,-164.31 571.94,-171.18"/>
</a>
</g>
</g>
<!-- Node24&#45;&gt;Node9 -->
<g id="edge48_Node000024_Node000009" class="edge">
<title>Node24&#45;&gt;Node9</title>
<g id="a_edge48_Node000024_Node000009"><a xlink:title=" ">
<path fill="none" stroke="#63b8ff" d="M652.21,-167.97C827.31,-139.99 875.02,-151.06 1047.5,-132 1050.5,-131.67 1053.58,-131.32 1056.68,-130.95"/>
<polygon fill="#63b8ff" stroke="#63b8ff" points="651.85,-164.48 642.54,-169.54 652.97,-171.39 651.85,-164.48"/>
</a>
</g>
</g>
<!-- Node24&#45;&gt;Node11 -->
<g id="edge50_Node000024_Node000011" class="edge">
<title>Node24&#45;&gt;Node11</title>
<g id="a_edge50_Node000024_Node000011"><a xlink:title=" ">
<path fill="none" stroke="#63b8ff" d="M573.06,-165.7C544.74,-156.78 509.98,-143.91 500.5,-132 473.75,-98.39 477.39,-42.48 480.11,-20.39"/>
<polygon fill="#63b8ff" stroke="#63b8ff" points="571.88,-169 582.47,-168.59 573.94,-162.31 571.88,-169"/>
</a>
</g>
</g>
<!-- Node24&#45;&gt;Node12 -->
<g id="edge51_Node000024_Node000012" class="edge">
<title>Node24&#45;&gt;Node12</title>
<g id="a_edge51_Node000024_Node000012"><a xlink:title=" ">
<path fill="none" stroke="#63b8ff" d="M616.33,-156.5C623.09,-120.27 636.91,-46.31 641.76,-20.3"/>
<polygon fill="#63b8ff" stroke="#63b8ff" points="612.93,-155.64 614.53,-166.11 619.81,-156.92 612.93,-155.64"/>
</a>
</g>
</g>
<!-- Node24&#45;&gt;Node14 -->
<g id="edge49_Node000024_Node000014" class="edge">
<title>Node24&#45;&gt;Node14</title>
<g id="a_edge49_Node000024_Node000014"><a xlink:title=" ">
<path fill="none" stroke="#63b8ff" d="M609.49,-156.67C606.19,-141.93 599.38,-122.76 585.5,-112 543.78,-79.67 389.17,-70.54 312.78,-67.98"/>
<polygon fill="#63b8ff" stroke="#63b8ff" points="606,-157.04 611.24,-166.25 612.88,-155.78 606,-157.04"/>
</a>
</g>
</g>
<!-- Node24&#45;&gt;Node17 -->
<g id="edge52_Node000024_Node000017" class="edge">
<title>Node24&#45;&gt;Node17</title>
<g id="a_edge52_Node000024_Node000017"><a xlink:title=" ">
<path fill="none" stroke="#63b8ff" d="M572.65,-167.91C424.94,-143.08 384.42,-150.47 239.5,-132 236.85,-131.66 234.13,-131.3 231.38,-130.93"/>
<polygon fill="#63b8ff" stroke="#63b8ff" points="572.01,-171.35 582.45,-169.58 573.18,-164.45 572.01,-171.35"/>
</a>
</g>
</g>
<!-- Node24&#45;&gt;Node19 -->
<g id="edge53_Node000024_Node000019" class="edge">
<title>Node24&#45;&gt;Node19</title>
<g id="a_edge53_Node000024_Node000019"><a xlink:title=" ">
<path fill="none" stroke="#63b8ff" d="M573.29,-166.36C536.9,-156.48 483.23,-141.92 448.32,-132.45"/>
<polygon fill="#63b8ff" stroke="#63b8ff" points="571.96,-169.63 582.53,-168.87 573.79,-162.87 571.96,-169.63"/>
</a>
</g>
</g>
<!-- Node24&#45;&gt;Node21 -->
<g id="edge54_Node000024_Node000021" class="edge">
<title>Node24&#45;&gt;Node21</title>
<g id="a_edge54_Node000024_Node000021"><a xlink:title=" ">
<path fill="none" stroke="#63b8ff" d="M652.11,-167.71C717.97,-153.46 782.67,-140.8 826.13,-132.49"/>
<polygon fill="#63b8ff" stroke="#63b8ff" points="651.61,-164.24 642.59,-169.79 653.1,-171.08 651.61,-164.24"/>
</a>
</g>
</g>
<!-- Node24&#45;&gt;Node23 -->
<g id="edge56_Node000024_Node000023" class="edge">
<title>Node24&#45;&gt;Node23</title>
<g id="a_edge56_Node000024_Node000023"><a xlink:title=" ">
<path fill="none" stroke="#63b8ff" d="M644.37,-163.01C666.23,-153.41 694.66,-140.93 713.91,-132.48"/>
<polygon fill="#63b8ff" stroke="#63b8ff" points="643.06,-159.76 635.31,-166.99 645.87,-166.17 643.06,-159.76"/>
</a>
</g>
</g>
<!-- Node24&#45;&gt;Node25 -->
<g id="edge55_Node000024_Node000025" class="edge">
<title>Node24&#45;&gt;Node25</title>
<g id="a_edge55_Node000024_Node000025"><a xlink:title=" ">
<path fill="none" stroke="#63b8ff" d="M652.12,-168.08C948.48,-126.19 1028.32,-159.31 1322.5,-132 1325.23,-131.75 1328.01,-131.47 1330.83,-131.17"/>
<polygon fill="#63b8ff" stroke="#63b8ff" points="651.93,-164.57 642.53,-169.45 652.92,-171.5 651.93,-164.57"/>
</a>
</g>
</g>
<!-- Node26 -->
<g id="Node000026" class="node">
<title>Node26</title>
<g id="a_Node000026"><a xlink:href="pch_8cpp.html" target="_top" xlink:title=" ">
<polygon fill="white" stroke="#666666" points="577,-132 510,-132 510,-112 577,-112 577,-132"/>
<text text-anchor="middle" x="543.5" y="-118.5" font-family="Helvetica,sans-Serif" font-size="10.00">src/pch.cpp</text>
</a>
</g>
</g>
<!-- Node24&#45;&gt;Node26 -->
<g id="edge57_Node000024_Node000026" class="edge">
<title>Node24&#45;&gt;Node26</title>
<g id="a_edge57_Node000024_Node000026"><a xlink:title=" ">
<path fill="none" stroke="#63b8ff" d="M591.65,-160.68C579.77,-151.39 565.33,-140.09 555.38,-132.3"/>
<polygon fill="#63b8ff" stroke="#63b8ff" points="589.26,-163.25 599.29,-166.66 593.57,-157.74 589.26,-163.25"/>
</a>
</g>
</g>
</g>
</svg>

<g id="navigator" transform="translate(0 0)" fill="#404254">
  <rect fill="#f2f5e9" fill-opacity="0.5" stroke="#606060" stroke-width=".5" x="0" y="0" width="60" height="60"/>
  <use id="zoomplus" xlink:href="#zoomPlus" x="17" y="9" onmousedown="handleZoom(evt,'in')"/>
  <use id="zoomminus" xlink:href="#zoomMin" x="42" y="9" onmousedown="handleZoom(evt,'out')"/>
  <use id="reset" xlink:href="#resetDef" x="30" y="36" onmousedown="handleReset()"/>
   <use id="arrowup" xlink:href="#arrowUp" x="0" y="0" onmousedown="handlePan(0,-1)"/>
  <use id="arrowright" xlink:href="#arrowRight" x="0" y="0" onmousedown="handlePan(1,0)"/>
  <use id="arrowdown" xlink:href="#arrowDown" x="0" y="0" onmousedown="handlePan(0,1)"/>
  <use id="arrowleft" xlink:href="#arrowLeft" x="0" y="0" onmousedown="handlePan(-1,0)"/>
</g>
<svg viewBox="0 0 15 15" width="100%" height="30px" preserveAspectRatio="xMaxYMin meet">
 <g id="arrow_out" transform="scale(0.3 0.3)">
  <a xlink:href="_shader_program_8h__dep__incl_org.svg" target="_base">
   <rect id="button" ry="5" rx="5" y="6" x="6" height="38" width="38"
        fill="#f2f5e9" fill-opacity="0.5" stroke="#606060" stroke-width="1.0"/>
   <path id="arrow"
     d="M 11.500037,31.436501 C 11.940474,20.09759 22.043105,11.32322 32.158766,21.979434 L 37.068811,17.246167 C 37.068811,17.246167 37.088388,32 37.088388,32 L 22.160133,31.978069 C 22.160133,31.978069 26.997745,27.140456 26.997745,27.140456 C 18.528582,18.264221 13.291696,25.230495 11.500037,31.436501 z"
     style="fill:#404040;"/>
  </a>
 </g>
</svg>

<style type='text/css'>
<![CDATA[
[data-mouse-over-selected='false'] { opacity: 0.7; }
[data-mouse-over-selected='true']  { opacity: 1.0; }
]]>
</style>
<script type="application/ecmascript"><![CDATA[
document.addEventListener('DOMContentLoaded', (event) => {
  highlightEdges();
  highlightAdjacentNodes();
});
]]></script>
</svg>
