<?xml version="1.0" encoding="UTF-8" standalone="no"?>
<!DOCTYPE svg PUBLIC "-//W3C//DTD SVG 1.1//EN"
 "http://www.w3.org/Graphics/SVG/1.1/DTD/svg11.dtd">
<!-- Generated by graphviz version 9.0.0 (20230911.1827)
 -->
<!-- Title: src/ShaderManager.cpp Pages: 1 -->
<svg width="2886pt" height="420pt"
 viewBox="0.00 0.00 2886.00 420.00" xmlns="http://www.w3.org/2000/svg" xmlns:xlink="http://www.w3.org/1999/xlink">
<g id="graph0" class="graph" transform="scale(1 1) rotate(0) translate(4 416)">
<title>src/ShaderManager.cpp</title>
<!-- Node1 -->
<g id="Node000001" class="node">
<title>Node1</title>
<g id="a_Node000001"><a xlink:title=" ">
<polygon fill="#999999" stroke="#666666" points="2444.75,-412 2325.25,-412 2325.25,-392 2444.75,-392 2444.75,-412"/>
<text text-anchor="middle" x="2385" y="-398.5" font-family="Helvetica,sans-Serif" font-size="10.00">src/ShaderManager.cpp</text>
</a>
</g>
</g>
<!-- Node2 -->
<g id="Node000002" class="node">
<title>Node2</title>
<g id="a_Node000002"><a xlink:href="pch_8h.html" target="_top" xlink:title=" ">
<polygon fill="white" stroke="#666666" points="2381,-356 2341,-356 2341,-336 2381,-336 2381,-356"/>
<text text-anchor="middle" x="2361" y="-342.5" font-family="Helvetica,sans-Serif" font-size="10.00">pch.h</text>
</a>
</g>
</g>
<!-- Node1&#45;&gt;Node2 -->
<g id="edge1_Node000001_Node000002" class="edge">
<title>Node1&#45;&gt;Node2</title>
<g id="a_edge1_Node000001_Node000002"><a xlink:title=" ">
<path fill="none" stroke="#63b8ff" d="M2380.82,-391.59C2377.76,-384.7 2373.49,-375.1 2369.7,-366.57"/>
<polygon fill="#63b8ff" stroke="#63b8ff" points="2373.01,-365.4 2365.75,-357.68 2366.61,-368.24 2373.01,-365.4"/>
</a>
</g>
</g>
<!-- Node38 -->
<g id="Node000038" class="node">
<title>Node38</title>
<g id="a_Node000038"><a xlink:href="_shader_manager_8h.html" target="_top" xlink:title=" ">
<polygon fill="white" stroke="#666666" points="2593.25,-132 2500.75,-132 2500.75,-112 2593.25,-112 2593.25,-132"/>
<text text-anchor="middle" x="2547" y="-118.5" font-family="Helvetica,sans-Serif" font-size="10.00">ShaderManager.h</text>
</a>
</g>
</g>
<!-- Node1&#45;&gt;Node38 -->
<g id="edge62_Node000001_Node000038" class="edge">
<title>Node1&#45;&gt;Node38</title>
<g id="a_edge62_Node000001_Node000038"><a xlink:title=" ">
<path fill="none" stroke="#63b8ff" d="M2444.96,-400.11C2576.34,-396.55 2878,-378.8 2878,-291 2878,-291 2878,-291 2878,-233 2878,-176.12 2699.75,-143.48 2604.86,-130.14"/>
<polygon fill="#63b8ff" stroke="#63b8ff" points="2605.61,-126.71 2595.22,-128.82 2604.65,-133.64 2605.61,-126.71"/>
</a>
</g>
</g>
<!-- Node3 -->
<g id="Node000003" class="node">
<title>Node3</title>
<g id="a_Node000003"><a xlink:href="_game_engine_8h.html" target="_top" xlink:title=" ">
<polygon fill="white" stroke="#666666" points="1932.25,-300 1851.75,-300 1851.75,-280 1932.25,-280 1932.25,-300"/>
<text text-anchor="middle" x="1892" y="-286.5" font-family="Helvetica,sans-Serif" font-size="10.00">GameEngine.h</text>
</a>
</g>
</g>
<!-- Node2&#45;&gt;Node3 -->
<g id="edge2_Node000002_Node000003" class="edge">
<title>Node2&#45;&gt;Node3</title>
<g id="a_edge2_Node000002_Node000003"><a xlink:title=" ">
<path fill="none" stroke="#63b8ff" d="M2340.55,-342.64C2271.62,-334.71 2046.45,-308.78 1943.82,-296.97"/>
<polygon fill="#63b8ff" stroke="#63b8ff" points="1944.35,-293.5 1934.02,-295.84 1943.55,-300.46 1944.35,-293.5"/>
</a>
</g>
</g>
<!-- Node4 -->
<g id="Node000004" class="node">
<title>Node4</title>
<g id="a_Node000004"><a xlink:title=" ">
<polygon fill="#e0e0e0" stroke="#999999" points="2518.88,-244 2439.12,-244 2439.12,-224 2518.88,-224 2518.88,-244"/>
<text text-anchor="middle" x="2479" y="-230.5" font-family="Helvetica,sans-Serif" font-size="10.00">SDKDDKVer.h</text>
</a>
</g>
</g>
<!-- Node3&#45;&gt;Node4 -->
<g id="edge3_Node000003_Node000004" class="edge">
<title>Node3&#45;&gt;Node4</title>
<g id="a_edge3_Node000003_Node000004"><a xlink:title=" ">
<path fill="none" stroke="#63b8ff" d="M1932.57,-286.7C2021.83,-281.39 2241.87,-266.95 2425,-244 2425.83,-243.9 2426.67,-243.79 2427.51,-243.68"/>
<polygon fill="#63b8ff" stroke="#63b8ff" points="2427.75,-247.18 2437.16,-242.3 2426.76,-240.25 2427.75,-247.18"/>
</a>
</g>
</g>
<!-- Node5 -->
<g id="Node000005" class="node">
<title>Node5</title>
<g id="a_Node000005"><a xlink:title=" ">
<polygon fill="#e0e0e0" stroke="#999999" points="2636.5,-244 2575.5,-244 2575.5,-224 2636.5,-224 2636.5,-244"/>
<text text-anchor="middle" x="2606" y="-230.5" font-family="Helvetica,sans-Serif" font-size="10.00">windows.h</text>
</a>
</g>
</g>
<!-- Node3&#45;&gt;Node5 -->
<g id="edge4_Node000003_Node000005" class="edge">
<title>Node3&#45;&gt;Node5</title>
<g id="a_edge4_Node000003_Node000005"><a xlink:title=" ">
<path fill="none" stroke="#63b8ff" d="M1932.53,-288.11C2037.05,-285.42 2324.16,-275.51 2561,-244 2562,-243.87 2563.02,-243.72 2564.04,-243.57"/>
<polygon fill="#63b8ff" stroke="#63b8ff" points="2564.32,-247.08 2573.61,-241.98 2563.17,-240.17 2564.32,-247.08"/>
</a>
</g>
</g>
<!-- Node6 -->
<g id="Node000006" class="node">
<title>Node6</title>
<g id="a_Node000006"><a xlink:title=" ">
<polygon fill="#e0e0e0" stroke="#999999" points="2701.75,-244 2654.25,-244 2654.25,-224 2701.75,-224 2701.75,-244"/>
<text text-anchor="middle" x="2678" y="-230.5" font-family="Helvetica,sans-Serif" font-size="10.00">stdlib.h</text>
</a>
</g>
</g>
<!-- Node3&#45;&gt;Node6 -->
<g id="edge5_Node000003_Node000006" class="edge">
<title>Node3&#45;&gt;Node6</title>
<g id="a_edge5_Node000003_Node000006"><a xlink:title=" ">
<path fill="none" stroke="#63b8ff" d="M1932.4,-289.62C2044.3,-290.69 2367.7,-289.45 2643.01,-244.18"/>
<polygon fill="#63b8ff" stroke="#63b8ff" points="2643.23,-247.69 2652.52,-242.59 2642.08,-240.79 2643.23,-247.69"/>
</a>
</g>
</g>
<!-- Node7 -->
<g id="Node000007" class="node">
<title>Node7</title>
<g id="a_Node000007"><a xlink:title=" ">
<polygon fill="#e0e0e0" stroke="#999999" points="2772.38,-244 2719.62,-244 2719.62,-224 2772.38,-224 2772.38,-244"/>
<text text-anchor="middle" x="2746" y="-230.5" font-family="Helvetica,sans-Serif" font-size="10.00">malloc.h</text>
</a>
</g>
</g>
<!-- Node3&#45;&gt;Node7 -->
<g id="edge6_Node000003_Node000007" class="edge">
<title>Node3&#45;&gt;Node7</title>
<g id="a_edge6_Node000003_Node000007"><a xlink:title=" ">
<path fill="none" stroke="#63b8ff" d="M1932.34,-289.58C2050.49,-290.68 2405.94,-289.79 2708.18,-244.14"/>
<polygon fill="#63b8ff" stroke="#63b8ff" points="2708.51,-247.63 2717.86,-242.66 2707.45,-240.71 2708.51,-247.63"/>
</a>
</g>
</g>
<!-- Node8 -->
<g id="Node000008" class="node">
<title>Node8</title>
<g id="a_Node000008"><a xlink:title=" ">
<polygon fill="#e0e0e0" stroke="#999999" points="2849.75,-244 2790.25,-244 2790.25,-224 2849.75,-224 2849.75,-244"/>
<text text-anchor="middle" x="2820" y="-230.5" font-family="Helvetica,sans-Serif" font-size="10.00">memory.h</text>
</a>
</g>
</g>
<!-- Node3&#45;&gt;Node8 -->
<g id="edge7_Node000003_Node000008" class="edge">
<title>Node3&#45;&gt;Node8</title>
<g id="a_edge7_Node000003_Node000008"><a xlink:title=" ">
<path fill="none" stroke="#63b8ff" d="M1932.55,-289.48C2057.44,-290.42 2447.25,-289.37 2778.6,-244.07"/>
<polygon fill="#63b8ff" stroke="#63b8ff" points="2778.94,-247.55 2788.37,-242.71 2777.98,-240.62 2778.94,-247.55"/>
</a>
</g>
</g>
<!-- Node9 -->
<g id="Node000009" class="node">
<title>Node9</title>
<g id="a_Node000009"><a xlink:title=" ">
<polygon fill="#e0e0e0" stroke="#999999" points="46,-244 0,-244 0,-224 46,-224 46,-244"/>
<text text-anchor="middle" x="23" y="-230.5" font-family="Helvetica,sans-Serif" font-size="10.00">tchar.h</text>
</a>
</g>
</g>
<!-- Node3&#45;&gt;Node9 -->
<g id="edge8_Node000003_Node000009" class="edge">
<title>Node3&#45;&gt;Node9</title>
<g id="a_edge8_Node000003_Node000009"><a xlink:title=" ">
<path fill="none" stroke="#63b8ff" d="M1851.42,-288.61C1602.47,-286.16 285.44,-272.04 57.45,-243.8"/>
<polygon fill="#63b8ff" stroke="#63b8ff" points="58.15,-240.36 47.77,-242.48 57.2,-247.3 58.15,-240.36"/>
</a>
</g>
</g>
<!-- Node10 -->
<g id="Node000010" class="node">
<title>Node10</title>
<g id="a_Node000010"><a xlink:title=" ">
<polygon fill="#e0e0e0" stroke="#999999" points="125.88,-244 64.12,-244 64.12,-224 125.88,-224 125.88,-244"/>
<text text-anchor="middle" x="95" y="-230.5" font-family="Helvetica,sans-Serif" font-size="10.00">resource.h</text>
</a>
</g>
</g>
<!-- Node3&#45;&gt;Node10 -->
<g id="edge9_Node000003_Node000010" class="edge">
<title>Node3&#45;&gt;Node10</title>
<g id="a_edge9_Node000003_Node000010"><a xlink:title=" ">
<path fill="none" stroke="#63b8ff" d="M1851.34,-289.04C1623.85,-289.1 506.11,-287.21 137.55,-244.02"/>
<polygon fill="#63b8ff" stroke="#63b8ff" points="138.19,-240.57 127.84,-242.84 137.35,-247.52 138.19,-240.57"/>
</a>
</g>
</g>
<!-- Node11 -->
<g id="Node000011" class="node">
<title>Node11</title>
<g id="a_Node000011"><a xlink:title=" ">
<polygon fill="#e0e0e0" stroke="#999999" points="189.62,-244 144.38,-244 144.38,-224 189.62,-224 189.62,-244"/>
<text text-anchor="middle" x="167" y="-230.5" font-family="Helvetica,sans-Serif" font-size="10.00">chrono</text>
</a>
</g>
</g>
<!-- Node3&#45;&gt;Node11 -->
<g id="edge10_Node000003_Node000011" class="edge">
<title>Node3&#45;&gt;Node11</title>
<g id="a_edge10_Node000003_Node000011"><a xlink:title=" ">
<path fill="none" stroke="#63b8ff" d="M1851.49,-288.54C1614.68,-285.8 412.9,-270.74 201.08,-243.92"/>
<polygon fill="#63b8ff" stroke="#63b8ff" points="201.76,-240.49 191.37,-242.56 200.79,-247.42 201.76,-240.49"/>
</a>
</g>
</g>
<!-- Node12 -->
<g id="Node000012" class="node">
<title>Node12</title>
<g id="a_Node000012"><a xlink:title=" ">
<polygon fill="#e0e0e0" stroke="#999999" points="248.75,-244 207.25,-244 207.25,-224 248.75,-224 248.75,-244"/>
<text text-anchor="middle" x="228" y="-230.5" font-family="Helvetica,sans-Serif" font-size="10.00">vector</text>
</a>
</g>
</g>
<!-- Node3&#45;&gt;Node12 -->
<g id="edge11_Node000003_Node000012" class="edge">
<title>Node3&#45;&gt;Node12</title>
<g id="a_edge11_Node000003_Node000012"><a xlink:title=" ">
<path fill="none" stroke="#63b8ff" d="M1851.4,-288.52C1619.47,-285.71 465.79,-270.58 260.28,-243.72"/>
<polygon fill="#63b8ff" stroke="#63b8ff" points="261.04,-240.29 250.64,-242.31 260.03,-247.22 261.04,-240.29"/>
</a>
</g>
</g>
<!-- Node13 -->
<g id="Node000013" class="node">
<title>Node13</title>
<g id="a_Node000013"><a xlink:title=" ">
<polygon fill="#e0e0e0" stroke="#999999" points="320.75,-244 267.25,-244 267.25,-224 320.75,-224 320.75,-244"/>
<text text-anchor="middle" x="294" y="-230.5" font-family="Helvetica,sans-Serif" font-size="10.00">iostream</text>
</a>
</g>
</g>
<!-- Node3&#45;&gt;Node13 -->
<g id="edge12_Node000003_Node000013" class="edge">
<title>Node3&#45;&gt;Node13</title>
<g id="a_edge12_Node000003_Node000013"><a xlink:title=" ">
<path fill="none" stroke="#63b8ff" d="M1851.38,-289.02C1639.63,-288.93 659.89,-286.29 332.38,-243.94"/>
<polygon fill="#63b8ff" stroke="#63b8ff" points="332.88,-240.48 322.5,-242.62 331.95,-247.41 332.88,-240.48"/>
</a>
</g>
</g>
<!-- Node14 -->
<g id="Node000014" class="node">
<title>Node14</title>
<g id="a_Node000014"><a xlink:title=" ">
<polygon fill="#e0e0e0" stroke="#999999" points="387.12,-244 338.88,-244 338.88,-224 387.12,-224 387.12,-244"/>
<text text-anchor="middle" x="363" y="-230.5" font-family="Helvetica,sans-Serif" font-size="10.00">fstream</text>
</a>
</g>
</g>
<!-- Node3&#45;&gt;Node14 -->
<g id="edge13_Node000003_Node000014" class="edge">
<title>Node3&#45;&gt;Node14</title>
<g id="a_edge13_Node000003_Node000014"><a xlink:title=" ">
<path fill="none" stroke="#63b8ff" d="M1851.37,-289.07C1645.09,-289.25 711.51,-287.67 398.68,-243.98"/>
<polygon fill="#63b8ff" stroke="#63b8ff" points="399.27,-240.52 388.87,-242.55 398.26,-247.45 399.27,-240.52"/>
</a>
</g>
</g>
<!-- Node15 -->
<g id="Node000015" class="node">
<title>Node15</title>
<g id="a_Node000015"><a xlink:title=" ">
<polygon fill="#e0e0e0" stroke="#999999" points="465.12,-244 404.88,-244 404.88,-224 465.12,-224 465.12,-244"/>
<text text-anchor="middle" x="435" y="-230.5" font-family="Helvetica,sans-Serif" font-size="10.00">filesystem</text>
</a>
</g>
</g>
<!-- Node3&#45;&gt;Node15 -->
<g id="edge14_Node000003_Node000015" class="edge">
<title>Node3&#45;&gt;Node15</title>
<g id="a_edge14_Node000003_Node000015"><a xlink:title=" ">
<path fill="none" stroke="#63b8ff" d="M1851.54,-288.78C1652.32,-287.55 773.63,-280.19 476.72,-244.05"/>
<polygon fill="#63b8ff" stroke="#63b8ff" points="477.42,-240.61 467.06,-242.83 476.54,-247.56 477.42,-240.61"/>
</a>
</g>
</g>
<!-- Node16 -->
<g id="Node000016" class="node">
<title>Node16</title>
<g id="a_Node000016"><a xlink:title=" ">
<polygon fill="#e0e0e0" stroke="#999999" points="534.62,-244 483.38,-244 483.38,-224 534.62,-224 534.62,-244"/>
<text text-anchor="middle" x="509" y="-230.5" font-family="Helvetica,sans-Serif" font-size="10.00">sstream</text>
</a>
</g>
</g>
<!-- Node3&#45;&gt;Node16 -->
<g id="edge15_Node000003_Node000016" class="edge">
<title>Node3&#45;&gt;Node16</title>
<g id="a_edge15_Node000003_Node000016"><a xlink:title=" ">
<path fill="none" stroke="#63b8ff" d="M1851.27,-288.84C1657.61,-287.89 828.05,-281.73 545.88,-243.86"/>
<polygon fill="#63b8ff" stroke="#63b8ff" points="546.75,-240.45 536.37,-242.53 545.79,-247.38 546.75,-240.45"/>
</a>
</g>
</g>
<!-- Node17 -->
<g id="Node000017" class="node">
<title>Node17</title>
<g id="a_Node000017"><a xlink:title=" ">
<polygon fill="#e0e0e0" stroke="#999999" points="635.38,-244 552.62,-244 552.62,-224 635.38,-224 635.38,-244"/>
<text text-anchor="middle" x="594" y="-230.5" font-family="Helvetica,sans-Serif" font-size="10.00">unordered_map</text>
</a>
</g>
</g>
<!-- Node3&#45;&gt;Node17 -->
<g id="edge16_Node000003_Node000017" class="edge">
<title>Node3&#45;&gt;Node17</title>
<g id="a_edge16_Node000003_Node000017"><a xlink:title=" ">
<path fill="none" stroke="#63b8ff" d="M1851.3,-288.29C1667.12,-284.97 909.61,-270.04 647.06,-244.01"/>
<polygon fill="#63b8ff" stroke="#63b8ff" points="647.49,-240.53 637.19,-243 646.78,-247.5 647.49,-240.53"/>
</a>
</g>
</g>
<!-- Node18 -->
<g id="Node000018" class="node">
<title>Node18</title>
<g id="a_Node000018"><a xlink:title=" ">
<polygon fill="#e0e0e0" stroke="#999999" points="758.25,-244 653.75,-244 653.75,-224 758.25,-224 758.25,-244"/>
<text text-anchor="middle" x="706" y="-230.5" font-family="Helvetica,sans-Serif" font-size="10.00">assimp/Importer.hpp</text>
</a>
</g>
</g>
<!-- Node3&#45;&gt;Node18 -->
<g id="edge17_Node000003_Node000018" class="edge">
<title>Node3&#45;&gt;Node18</title>
<g id="a_edge17_Node000003_Node000018"><a xlink:title=" ">
<path fill="none" stroke="#63b8ff" d="M1851.28,-288.94C1705.9,-288.38 1198.59,-283.6 769.91,-244.17"/>
<polygon fill="#63b8ff" stroke="#63b8ff" points="770.32,-240.69 760.04,-243.25 769.67,-247.66 770.32,-240.69"/>
</a>
</g>
</g>
<!-- Node19 -->
<g id="Node000019" class="node">
<title>Node19</title>
<g id="a_Node000019"><a xlink:title=" ">
<polygon fill="#e0e0e0" stroke="#999999" points="861.5,-244 776.5,-244 776.5,-224 861.5,-224 861.5,-244"/>
<text text-anchor="middle" x="819" y="-230.5" font-family="Helvetica,sans-Serif" font-size="10.00">assimp/scene.h</text>
</a>
</g>
</g>
<!-- Node3&#45;&gt;Node19 -->
<g id="edge18_Node000003_Node000019" class="edge">
<title>Node3&#45;&gt;Node19</title>
<g id="a_edge18_Node000003_Node000019"><a xlink:title=" ">
<path fill="none" stroke="#63b8ff" d="M1851.49,-289.06C1715.05,-288.89 1259.71,-285.13 873.2,-244.08"/>
<polygon fill="#63b8ff" stroke="#63b8ff" points="873.61,-240.6 863.29,-243.01 872.86,-247.56 873.61,-240.6"/>
</a>
</g>
</g>
<!-- Node20 -->
<g id="Node000020" class="node">
<title>Node20</title>
<g id="a_Node000020"><a xlink:title=" ">
<polygon fill="#e0e0e0" stroke="#999999" points="992,-244 880,-244 880,-224 992,-224 992,-244"/>
<text text-anchor="middle" x="936" y="-230.5" font-family="Helvetica,sans-Serif" font-size="10.00">assimp/postprocess.h</text>
</a>
</g>
</g>
<!-- Node3&#45;&gt;Node20 -->
<g id="edge19_Node000003_Node000020" class="edge">
<title>Node3&#45;&gt;Node20</title>
<g id="a_edge19_Node000003_Node000020"><a xlink:title=" ">
<path fill="none" stroke="#63b8ff" d="M1851.5,-288.21C1726.77,-285.51 1337.17,-275.1 1003.68,-244.17"/>
<polygon fill="#63b8ff" stroke="#63b8ff" points="1004.12,-240.69 993.84,-243.25 1003.47,-247.66 1004.12,-240.69"/>
</a>
</g>
</g>
<!-- Node21 -->
<g id="Node000021" class="node">
<title>Node21</title>
<g id="a_Node000021"><a xlink:title=" ">
<polygon fill="#e0e0e0" stroke="#999999" points="1155.5,-244 1010.5,-244 1010.5,-224 1155.5,-224 1155.5,-244"/>
<text text-anchor="middle" x="1083" y="-230.5" font-family="Helvetica,sans-Serif" font-size="10.00">directxtk\WICTextureLoader.h</text>
</a>
</g>
</g>
<!-- Node3&#45;&gt;Node21 -->
<g id="edge20_Node000003_Node000021" class="edge">
<title>Node3&#45;&gt;Node21</title>
<g id="a_edge20_Node000003_Node000021"><a xlink:title=" ">
<path fill="none" stroke="#63b8ff" d="M1851.36,-287.16C1742.44,-282.09 1434.69,-266.82 1166.97,-244.13"/>
<polygon fill="#63b8ff" stroke="#63b8ff" points="1167.63,-240.67 1157.37,-243.31 1167.03,-247.64 1167.63,-240.67"/>
</a>
</g>
</g>
<!-- Node22 -->
<g id="Node000022" class="node">
<title>Node22</title>
<g id="a_Node000022"><a xlink:title=" ">
<polygon fill="#e0e0e0" stroke="#999999" points="1238.38,-244 1173.62,-244 1173.62,-224 1238.38,-224 1238.38,-244"/>
<text text-anchor="middle" x="1206" y="-230.5" font-family="Helvetica,sans-Serif" font-size="10.00">wincodec.h</text>
</a>
</g>
</g>
<!-- Node3&#45;&gt;Node22 -->
<g id="edge21_Node000003_Node000022" class="edge">
<title>Node3&#45;&gt;Node22</title>
<g id="a_edge21_Node000003_Node000022"><a xlink:title=" ">
<path fill="none" stroke="#63b8ff" d="M1851.41,-288.23C1750.93,-285.88 1482.5,-276.93 1249.66,-244.18"/>
<polygon fill="#63b8ff" stroke="#63b8ff" points="1250.49,-240.77 1240.09,-242.82 1249.5,-247.7 1250.49,-240.77"/>
</a>
</g>
</g>
<!-- Node23 -->
<g id="Node000023" class="node">
<title>Node23</title>
<g id="a_Node000023"><a xlink:title=" ">
<polygon fill="#e0e0e0" stroke="#999999" points="1314,-244 1256,-244 1256,-224 1314,-224 1314,-244"/>
<text text-anchor="middle" x="1285" y="-230.5" font-family="Helvetica,sans-Serif" font-size="10.00">lodepng.h</text>
</a>
</g>
</g>
<!-- Node3&#45;&gt;Node23 -->
<g id="edge22_Node000003_Node000023" class="edge">
<title>Node3&#45;&gt;Node23</title>
<g id="a_edge22_Node000003_Node000023"><a xlink:title=" ">
<path fill="none" stroke="#63b8ff" d="M1851.39,-287.93C1759.42,-285.04 1528.08,-275.22 1325.52,-244.16"/>
<polygon fill="#63b8ff" stroke="#63b8ff" points="1326.28,-240.74 1315.87,-242.66 1325.21,-247.66 1326.28,-240.74"/>
</a>
</g>
</g>
<!-- Node24 -->
<g id="Node000024" class="node">
<title>Node24</title>
<g id="a_Node000024"><a xlink:title=" ">
<polygon fill="#e0e0e0" stroke="#999999" points="1382.25,-244 1331.75,-244 1331.75,-224 1382.25,-224 1382.25,-244"/>
<text text-anchor="middle" x="1357" y="-230.5" font-family="Helvetica,sans-Serif" font-size="10.00">d3d11.h</text>
</a>
</g>
</g>
<!-- Node3&#45;&gt;Node24 -->
<g id="edge23_Node000003_Node000024" class="edge">
<title>Node3&#45;&gt;Node24</title>
<g id="a_edge23_Node000003_Node000024"><a xlink:title=" ">
<path fill="none" stroke="#63b8ff" d="M1851.53,-287.58C1767.87,-284.17 1569.75,-273.63 1393.8,-244"/>
<polygon fill="#63b8ff" stroke="#63b8ff" points="1394.45,-240.56 1384,-242.32 1393.27,-247.46 1394.45,-240.56"/>
</a>
</g>
</g>
<!-- Node25 -->
<g id="Node000025" class="node">
<title>Node25</title>
<g id="a_Node000025"><a xlink:title=" ">
<polygon fill="#e0e0e0" stroke="#999999" points="1477.38,-244 1400.62,-244 1400.62,-224 1477.38,-224 1477.38,-244"/>
<text text-anchor="middle" x="1439" y="-230.5" font-family="Helvetica,sans-Serif" font-size="10.00">DirectXMath.h</text>
</a>
</g>
</g>
<!-- Node3&#45;&gt;Node25 -->
<g id="edge24_Node000003_Node000025" class="edge">
<title>Node3&#45;&gt;Node25</title>
<g id="a_edge24_Node000003_Node000025"><a xlink:title=" ">
<path fill="none" stroke="#63b8ff" d="M1851.52,-285.58C1780.27,-279.33 1627.57,-264.9 1488.92,-244.34"/>
<polygon fill="#63b8ff" stroke="#63b8ff" points="1489.59,-240.9 1479.18,-242.88 1488.55,-247.83 1489.59,-240.9"/>
</a>
</g>
</g>
<!-- Node26 -->
<g id="Node000026" class="node">
<title>Node26</title>
<g id="a_Node000026"><a xlink:title=" ">
<polygon fill="#e0e0e0" stroke="#999999" points="1574.88,-244 1495.12,-244 1495.12,-224 1574.88,-224 1574.88,-244"/>
<text text-anchor="middle" x="1535" y="-230.5" font-family="Helvetica,sans-Serif" font-size="10.00">D3Dcompiler.h</text>
</a>
</g>
</g>
<!-- Node3&#45;&gt;Node26 -->
<g id="edge25_Node000003_Node000026" class="edge">
<title>Node3&#45;&gt;Node26</title>
<g id="a_edge25_Node000003_Node000026"><a xlink:title=" ">
<path fill="none" stroke="#63b8ff" d="M1851.57,-283.57C1794.76,-275.84 1687.8,-260.91 1586.7,-244.4"/>
<polygon fill="#63b8ff" stroke="#63b8ff" points="1587.28,-240.95 1576.85,-242.78 1586.15,-247.85 1587.28,-240.95"/>
</a>
</g>
</g>
<!-- Node27 -->
<g id="Node000027" class="node">
<title>Node27</title>
<g id="a_Node000027"><a xlink:title=" ">
<polygon fill="#e0e0e0" stroke="#999999" points="1648.88,-244 1593.12,-244 1593.12,-224 1648.88,-224 1648.88,-244"/>
<text text-anchor="middle" x="1621" y="-230.5" font-family="Helvetica,sans-Serif" font-size="10.00">d2d1_2.h</text>
</a>
</g>
</g>
<!-- Node3&#45;&gt;Node27 -->
<g id="edge26_Node000003_Node000027" class="edge">
<title>Node3&#45;&gt;Node27</title>
<g id="a_edge26_Node000003_Node000027"><a xlink:title=" ">
<path fill="none" stroke="#63b8ff" d="M1851.3,-281.79C1806.8,-273.78 1733.15,-260.11 1660.44,-244.45"/>
<polygon fill="#63b8ff" stroke="#63b8ff" points="1661.24,-241.04 1650.73,-242.34 1659.76,-247.88 1661.24,-241.04"/>
</a>
</g>
</g>
<!-- Node28 -->
<g id="Node000028" class="node">
<title>Node28</title>
<g id="a_Node000028"><a xlink:title=" ">
<polygon fill="#e0e0e0" stroke="#999999" points="1722.88,-244 1667.12,-244 1667.12,-224 1722.88,-224 1722.88,-244"/>
<text text-anchor="middle" x="1695" y="-230.5" font-family="Helvetica,sans-Serif" font-size="10.00">d2d1_1.h</text>
</a>
</g>
</g>
<!-- Node3&#45;&gt;Node28 -->
<g id="edge27_Node000003_Node000028" class="edge">
<title>Node3&#45;&gt;Node28</title>
<g id="a_edge27_Node000003_Node000028"><a xlink:title=" ">
<path fill="none" stroke="#63b8ff" d="M1857.69,-279.59C1823.27,-270.16 1770.33,-255.65 1734.26,-245.76"/>
<polygon fill="#63b8ff" stroke="#63b8ff" points="1735.22,-242.39 1724.65,-243.13 1733.36,-249.15 1735.22,-242.39"/>
</a>
</g>
</g>
<!-- Node29 -->
<g id="Node000029" class="node">
<title>Node29</title>
<g id="a_Node000029"><a xlink:title=" ">
<polygon fill="#e0e0e0" stroke="#999999" points="1786.62,-244 1741.38,-244 1741.38,-224 1786.62,-224 1786.62,-244"/>
<text text-anchor="middle" x="1764" y="-230.5" font-family="Helvetica,sans-Serif" font-size="10.00">d2d1.h</text>
</a>
</g>
</g>
<!-- Node3&#45;&gt;Node29 -->
<g id="edge28_Node000003_Node000029" class="edge">
<title>Node3&#45;&gt;Node29</title>
<g id="a_edge28_Node000003_Node000029"><a xlink:title=" ">
<path fill="none" stroke="#63b8ff" d="M1869.7,-279.59C1849.64,-271.13 1819.88,-258.58 1797.05,-248.94"/>
<polygon fill="#63b8ff" stroke="#63b8ff" points="1798.44,-245.73 1787.86,-245.07 1795.72,-252.18 1798.44,-245.73"/>
</a>
</g>
</g>
<!-- Node30 -->
<g id="Node000030" class="node">
<title>Node30</title>
<g id="a_Node000030"><a xlink:title=" ">
<polygon fill="#e0e0e0" stroke="#999999" points="1854.88,-244 1805.12,-244 1805.12,-224 1854.88,-224 1854.88,-244"/>
<text text-anchor="middle" x="1830" y="-230.5" font-family="Helvetica,sans-Serif" font-size="10.00">dwrite.h</text>
</a>
</g>
</g>
<!-- Node3&#45;&gt;Node30 -->
<g id="edge29_Node000003_Node000030" class="edge">
<title>Node3&#45;&gt;Node30</title>
<g id="a_edge29_Node000003_Node000030"><a xlink:title=" ">
<path fill="none" stroke="#63b8ff" d="M1881.2,-279.59C1872.4,-271.93 1859.75,-260.91 1849.23,-251.75"/>
<polygon fill="#63b8ff" stroke="#63b8ff" points="1851.66,-249.22 1841.82,-245.29 1847.06,-254.5 1851.66,-249.22"/>
</a>
</g>
</g>
<!-- Node31 -->
<g id="Node000031" class="node">
<title>Node31</title>
<g id="a_Node000031"><a xlink:href="_win32_application_8h.html" target="_top" xlink:title=" ">
<polygon fill="white" stroke="#666666" points="2253,-244 2153,-244 2153,-224 2253,-224 2253,-244"/>
<text text-anchor="middle" x="2203" y="-230.5" font-family="Helvetica,sans-Serif" font-size="10.00">Win32Application.h</text>
</a>
</g>
</g>
<!-- Node3&#45;&gt;Node31 -->
<g id="edge30_Node000003_Node000031" class="edge">
<title>Node3&#45;&gt;Node31</title>
<g id="a_edge30_Node000003_Node000031"><a xlink:title=" ">
<path fill="none" stroke="#63b8ff" d="M1932.61,-281.09C1985.85,-271.45 2079.51,-255.17 2141.46,-244.76"/>
<polygon fill="#63b8ff" stroke="#63b8ff" points="2141.86,-248.24 2151.15,-243.14 2140.71,-241.34 2141.86,-248.24"/>
</a>
</g>
</g>
<!-- Node32 -->
<g id="Node000032" class="node">
<title>Node32</title>
<g id="a_Node000032"><a xlink:href="_direct_x_manager_8h.html" target="_top" xlink:title=" ">
<polygon fill="white" stroke="#666666" points="2207.25,-188 2114.75,-188 2114.75,-168 2207.25,-168 2207.25,-188"/>
<text text-anchor="middle" x="2161" y="-174.5" font-family="Helvetica,sans-Serif" font-size="10.00">DirectXManager.h</text>
</a>
</g>
</g>
<!-- Node3&#45;&gt;Node32 -->
<g id="edge54_Node000003_Node000032" class="edge">
<title>Node3&#45;&gt;Node32</title>
<g id="a_edge54_Node000003_Node000032"><a xlink:title=" ">
<path fill="none" stroke="#63b8ff" d="M1932.42,-283.98C1970.56,-278.35 2028.28,-266.83 2074,-244 2098.35,-231.84 2121.7,-210.7 2138.38,-195.84"/>
<polygon fill="#63b8ff" stroke="#63b8ff" points="2140.59,-198.56 2145.78,-189.33 2135.96,-193.3 2140.59,-198.56"/>
</a>
</g>
</g>
<!-- Node33 -->
<g id="Node000033" class="node">
<title>Node33</title>
<g id="a_Node000033"><a xlink:href="_camera_8h.html" target="_top" xlink:title=" ">
<polygon fill="white" stroke="#666666" points="2029,-132 1971,-132 1971,-112 2029,-112 2029,-132"/>
<text text-anchor="middle" x="2000" y="-118.5" font-family="Helvetica,sans-Serif" font-size="10.00">Camera.h</text>
</a>
</g>
</g>
<!-- Node3&#45;&gt;Node33 -->
<g id="edge55_Node000003_Node000033" class="edge">
<title>Node3&#45;&gt;Node33</title>
<g id="a_edge55_Node000003_Node000033"><a xlink:title=" ">
<path fill="none" stroke="#63b8ff" d="M1912.36,-279.6C1928.25,-272.45 1949.3,-260.91 1962,-244 1984.42,-214.15 1989.78,-169.47 1993.67,-143.57"/>
<polygon fill="#63b8ff" stroke="#63b8ff" points="1997.12,-144.16 1995.34,-133.72 1990.22,-142.99 1997.12,-144.16"/>
</a>
</g>
</g>
<!-- Node34 -->
<g id="Node000034" class="node">
<title>Node34</title>
<g id="a_Node000034"><a xlink:href="_graphics_device_8h.html" target="_top" xlink:title=" ">
<polygon fill="white" stroke="#666666" points="2061.88,-76 1970.12,-76 1970.12,-56 2061.88,-56 2061.88,-76"/>
<text text-anchor="middle" x="2016" y="-62.5" font-family="Helvetica,sans-Serif" font-size="10.00">GraphicsDevice.h</text>
</a>
</g>
</g>
<!-- Node3&#45;&gt;Node34 -->
<g id="edge56_Node000003_Node000034" class="edge">
<title>Node3&#45;&gt;Node34</title>
<g id="a_edge56_Node000003_Node000034"><a xlink:title=" ">
<path fill="none" stroke="#63b8ff" d="M1890.34,-279.52C1893.22,-270.53 1900.58,-256.57 1906,-244 1930.67,-186.82 1917.37,-163.08 1953,-112 1960.99,-100.54 1972.63,-90.33 1983.87,-82.55"/>
<polygon fill="#63b8ff" stroke="#63b8ff" points="1985.72,-85.52 1992.26,-77.18 1981.95,-79.62 1985.72,-85.52"/>
</a>
</g>
</g>
<!-- Node35 -->
<g id="Node000035" class="node">
<title>Node35</title>
<g id="a_Node000035"><a xlink:href="_mesh_8h.html" target="_top" xlink:title=" ">
<polygon fill="white" stroke="#666666" points="2095.12,-132 2046.88,-132 2046.88,-112 2095.12,-112 2095.12,-132"/>
<text text-anchor="middle" x="2071" y="-118.5" font-family="Helvetica,sans-Serif" font-size="10.00">Mesh.h</text>
</a>
</g>
</g>
<!-- Node3&#45;&gt;Node35 -->
<g id="edge58_Node000003_Node000035" class="edge">
<title>Node3&#45;&gt;Node35</title>
<g id="a_edge58_Node000003_Node000035"><a xlink:title=" ">
<path fill="none" stroke="#63b8ff" d="M1922.45,-279.64C1943.56,-272.69 1971.1,-261.36 1991,-244 2023.45,-215.68 2044.95,-168.75 2058.11,-142.43"/>
<polygon fill="#63b8ff" stroke="#63b8ff" points="2061.2,-144.06 2062.71,-133.57 2054.99,-140.83 2061.2,-144.06"/>
</a>
</g>
</g>
<!-- Node36 -->
<g id="Node000036" class="node">
<title>Node36</title>
<g id="a_Node000036"><a xlink:href="_render_state_8h.html" target="_top" xlink:title=" ">
<polygon fill="white" stroke="#666666" points="2059.12,-20 1980.88,-20 1980.88,0 2059.12,0 2059.12,-20"/>
<text text-anchor="middle" x="2020" y="-6.5" font-family="Helvetica,sans-Serif" font-size="10.00">RenderState.h</text>
</a>
</g>
</g>
<!-- Node3&#45;&gt;Node36 -->
<g id="edge60_Node000003_Node000036" class="edge">
<title>Node3&#45;&gt;Node36</title>
<g id="a_edge60_Node000003_Node000036"><a xlink:title=" ">
<path fill="none" stroke="#63b8ff" d="M1889.18,-279.67C1886.59,-246.38 1900.04,-131.37 1952,-56 1960.37,-43.86 1973.04,-33.59 1985.3,-25.93"/>
<polygon fill="#63b8ff" stroke="#63b8ff" points="1986.73,-29.15 1993.65,-21.13 1983.23,-23.08 1986.73,-29.15"/>
</a>
</g>
</g>
<!-- Node37 -->
<g id="Node000037" class="node">
<title>Node37</title>
<g id="a_Node000037"><a xlink:href="_shader_program_8h.html" target="_top" xlink:title=" ">
<polygon fill="white" stroke="#666666" points="2420.88,-20 2329.12,-20 2329.12,0 2420.88,0 2420.88,-20"/>
<text text-anchor="middle" x="2375" y="-6.5" font-family="Helvetica,sans-Serif" font-size="10.00">ShaderProgram.h</text>
</a>
</g>
</g>
<!-- Node3&#45;&gt;Node37 -->
<g id="edge61_Node000003_Node000037" class="edge">
<title>Node3&#45;&gt;Node37</title>
<g id="a_edge61_Node000003_Node000037"><a xlink:title=" ">
<path fill="none" stroke="#63b8ff" d="M1932.6,-286.85C2032.75,-281.51 2285.06,-266.43 2316,-244 2383.36,-195.17 2375.75,-79.28 2373.74,-31.82"/>
<polygon fill="#63b8ff" stroke="#63b8ff" points="2377.24,-31.76 2373.44,-21.87 2370.25,-31.97 2377.24,-31.76"/>
</a>
</g>
</g>
<!-- Node39 -->
<g id="Node000039" class="node">
<title>Node39</title>
<g id="a_Node000039"><a xlink:href="_material_8h.html" target="_top" xlink:title=" ">
<polygon fill="white" stroke="#666666" points="2345.38,-76 2286.62,-76 2286.62,-56 2345.38,-56 2345.38,-76"/>
<text text-anchor="middle" x="2316" y="-62.5" font-family="Helvetica,sans-Serif" font-size="10.00">Material.h</text>
</a>
</g>
</g>
<!-- Node3&#45;&gt;Node39 -->
<g id="edge57_Node000003_Node000039" class="edge">
<title>Node3&#45;&gt;Node39</title>
<g id="a_edge57_Node000003_Node000039"><a xlink:title=" ">
<path fill="none" stroke="#63b8ff" d="M1932.51,-289.69C2021.45,-290.2 2229.57,-286.41 2284,-244 2331,-207.38 2320.37,-125.93 2315.98,-87.64"/>
<polygon fill="#63b8ff" stroke="#63b8ff" points="2319.49,-87.53 2314.98,-77.94 2312.53,-88.25 2319.49,-87.53"/>
</a>
</g>
</g>
<!-- Node40 -->
<g id="Node000040" class="node">
<title>Node40</title>
<g id="a_Node000040"><a xlink:href="_model_8h.html" target="_top" xlink:title=" ">
<polygon fill="white" stroke="#666666" points="2315.25,-132 2264.75,-132 2264.75,-112 2315.25,-112 2315.25,-132"/>
<text text-anchor="middle" x="2290" y="-118.5" font-family="Helvetica,sans-Serif" font-size="10.00">Model.h</text>
</a>
</g>
</g>
<!-- Node3&#45;&gt;Node40 -->
<g id="edge59_Node000003_Node000040" class="edge">
<title>Node3&#45;&gt;Node40</title>
<g id="a_edge59_Node000003_Node000040"><a xlink:title=" ">
<path fill="none" stroke="#63b8ff" d="M1932.65,-289.74C2016.93,-290.19 2206.2,-286.07 2253,-244 2281.24,-218.61 2283.88,-170.89 2285.7,-143.58"/>
<polygon fill="#63b8ff" stroke="#63b8ff" points="2289.17,-144.07 2286.49,-133.82 2282.2,-143.51 2289.17,-144.07"/>
</a>
</g>
</g>
<!-- Node31&#45;&gt;Node3 -->
<g id="edge31_Node000031_Node000003" class="edge">
<title>Node31&#45;&gt;Node3</title>
<g id="a_edge31_Node000031_Node000003"><a xlink:title=" ">
<path fill="none" stroke="#63b8ff" d="M2153.59,-244.5C2096.17,-254.82 2002.03,-271.15 1943.66,-280.9"/>
<polygon fill="#63b8ff" stroke="#63b8ff" points="1943.27,-277.41 1933.98,-282.5 1944.42,-284.32 1943.27,-277.41"/>
</a>
</g>
</g>
<!-- Node31&#45;&gt;Node32 -->
<g id="edge32_Node000031_Node000032" class="edge">
<title>Node31&#45;&gt;Node32</title>
<g id="a_edge32_Node000031_Node000032"><a xlink:title=" ">
<path fill="none" stroke="#63b8ff" d="M2195.68,-223.59C2190.02,-216.32 2182.01,-206.02 2175.11,-197.15"/>
<polygon fill="#63b8ff" stroke="#63b8ff" points="2178.06,-195.24 2169.16,-189.49 2172.54,-199.54 2178.06,-195.24"/>
</a>
</g>
</g>
<!-- Node32&#45;&gt;Node3 -->
<g id="edge33_Node000032_Node000003" class="edge">
<title>Node32&#45;&gt;Node3</title>
<g id="a_edge33_Node000032_Node000003"><a xlink:title=" ">
<path fill="none" stroke="#63b8ff" d="M2158.51,-188.09C2148.62,-202.27 2121.02,-229.51 2092,-244 2045.19,-267.37 1985.82,-278.89 1943.85,-284.38"/>
<polygon fill="#63b8ff" stroke="#63b8ff" points="1943.5,-280.89 1934,-285.58 1944.35,-287.84 1943.5,-280.89"/>
</a>
</g>
</g>
<!-- Node32&#45;&gt;Node33 -->
<g id="edge34_Node000032_Node000033" class="edge">
<title>Node32&#45;&gt;Node33</title>
<g id="a_edge34_Node000032_Node000033"><a xlink:title=" ">
<path fill="none" stroke="#63b8ff" d="M2132.96,-167.59C2106.91,-158.86 2067.9,-145.77 2038.86,-136.03"/>
<polygon fill="#63b8ff" stroke="#63b8ff" points="2040.29,-132.82 2029.7,-132.96 2038.07,-139.46 2040.29,-132.82"/>
</a>
</g>
</g>
<!-- Node32&#45;&gt;Node34 -->
<g id="edge36_Node000032_Node000034" class="edge">
<title>Node32&#45;&gt;Node34</title>
<g id="a_edge36_Node000032_Node000034"><a xlink:title=" ">
<path fill="none" stroke="#63b8ff" d="M2154.55,-167.6C2144.83,-153.99 2125.31,-128.6 2104,-112 2087.75,-99.34 2067.38,-88.65 2050.33,-80.88"/>
<polygon fill="#63b8ff" stroke="#63b8ff" points="2052.16,-77.86 2041.6,-77.03 2049.34,-84.27 2052.16,-77.86"/>
</a>
</g>
</g>
<!-- Node32&#45;&gt;Node35 -->
<g id="edge38_Node000032_Node000035" class="edge">
<title>Node32&#45;&gt;Node35</title>
<g id="a_edge38_Node000032_Node000035"><a xlink:title=" ">
<path fill="none" stroke="#63b8ff" d="M2145.32,-167.59C2131.86,-159.51 2112.18,-147.71 2096.46,-138.27"/>
<polygon fill="#63b8ff" stroke="#63b8ff" points="2098.47,-135.4 2088.1,-133.26 2094.87,-141.4 2098.47,-135.4"/>
</a>
</g>
</g>
<!-- Node32&#45;&gt;Node36 -->
<g id="edge41_Node000032_Node000036" class="edge">
<title>Node32&#45;&gt;Node36</title>
<g id="a_edge41_Node000032_Node000036"><a xlink:title=" ">
<path fill="none" stroke="#63b8ff" d="M2157.57,-167.61C2152.51,-154.45 2142.19,-130.09 2129,-112 2103.88,-77.56 2065.78,-45.5 2041.92,-27.1"/>
<polygon fill="#63b8ff" stroke="#63b8ff" points="2044.23,-24.46 2034.14,-21.21 2040,-30.04 2044.23,-24.46"/>
</a>
</g>
</g>
<!-- Node32&#45;&gt;Node37 -->
<g id="edge43_Node000032_Node000037" class="edge">
<title>Node32&#45;&gt;Node37</title>
<g id="a_edge43_Node000032_Node000037"><a xlink:title=" ">
<path fill="none" stroke="#63b8ff" d="M2167.94,-167.6C2184.68,-145.51 2229.47,-89.59 2278,-56 2296.5,-43.19 2319.23,-32.43 2338.03,-24.64"/>
<polygon fill="#63b8ff" stroke="#63b8ff" points="2339.21,-27.94 2347.18,-20.97 2336.6,-21.44 2339.21,-27.94"/>
</a>
</g>
</g>
<!-- Node32&#45;&gt;Node38 -->
<g id="edge45_Node000032_Node000038" class="edge">
<title>Node32&#45;&gt;Node38</title>
<g id="a_edge45_Node000032_Node000038"><a xlink:title=" ">
<path fill="none" stroke="#63b8ff" d="M2207.56,-170.49C2278.13,-160.61 2412.06,-141.88 2488.91,-131.13"/>
<polygon fill="#63b8ff" stroke="#63b8ff" points="2489.36,-134.6 2498.78,-129.75 2488.39,-127.67 2489.36,-134.6"/>
</a>
</g>
</g>
<!-- Node32&#45;&gt;Node39 -->
<g id="edge47_Node000032_Node000039" class="edge">
<title>Node32&#45;&gt;Node39</title>
<g id="a_edge47_Node000032_Node000039"><a xlink:title=" ">
<path fill="none" stroke="#63b8ff" d="M2174.22,-167.62C2200.75,-148.79 2260.79,-106.18 2293.58,-82.91"/>
<polygon fill="#63b8ff" stroke="#63b8ff" points="2295.45,-85.87 2301.58,-77.23 2291.4,-80.16 2295.45,-85.87"/>
</a>
</g>
</g>
<!-- Node32&#45;&gt;Node40 -->
<g id="edge51_Node000032_Node000040" class="edge">
<title>Node32&#45;&gt;Node40</title>
<g id="a_edge51_Node000032_Node000040"><a xlink:title=" ">
<path fill="none" stroke="#63b8ff" d="M2183.47,-167.59C2203.79,-159.09 2233.95,-146.46 2257.01,-136.81"/>
<polygon fill="#63b8ff" stroke="#63b8ff" points="2258.09,-140.15 2265.96,-133.06 2255.38,-133.7 2258.09,-140.15"/>
</a>
</g>
</g>
<!-- Node33&#45;&gt;Node3 -->
<g id="edge35_Node000033_Node000003" class="edge">
<title>Node33&#45;&gt;Node3</title>
<g id="a_edge35_Node000033_Node000003"><a xlink:title=" ">
<path fill="none" stroke="#63b8ff" d="M2004.75,-132.22C2009.11,-153.94 2006.2,-209.11 1980,-244 1969.68,-257.74 1953.85,-267.93 1938.37,-275.11"/>
<polygon fill="#63b8ff" stroke="#63b8ff" points="1937.01,-271.88 1929.17,-279.01 1939.75,-278.33 1937.01,-271.88"/>
</a>
</g>
</g>
<!-- Node34&#45;&gt;Node3 -->
<g id="edge37_Node000034_Node000003" class="edge">
<title>Node34&#45;&gt;Node3</title>
<g id="a_edge37_Node000034_Node000003"><a xlink:title=" ">
<path fill="none" stroke="#63b8ff" d="M2008.05,-76.36C1997.77,-84.46 1981.33,-97.19 1971,-112 1935.37,-163.08 1948.67,-186.82 1924,-244 1920.23,-252.74 1915.53,-262.15 1910.67,-270.1"/>
<polygon fill="#63b8ff" stroke="#63b8ff" points="1907.85,-268.03 1905.12,-278.27 1913.63,-271.96 1907.85,-268.03"/>
</a>
</g>
</g>
<!-- Node35&#45;&gt;Node3 -->
<g id="edge39_Node000035_Node000003" class="edge">
<title>Node35&#45;&gt;Node3</title>
<g id="a_edge39_Node000035_Node000003"><a xlink:title=" ">
<path fill="none" stroke="#63b8ff" d="M2072.43,-132.23C2069.07,-154.45 2046.25,-211.49 2009,-244 1990.6,-260.05 1965.68,-270.95 1943.47,-278"/>
<polygon fill="#63b8ff" stroke="#63b8ff" points="1942.54,-274.62 1933.95,-280.81 1944.53,-281.33 1942.54,-274.62"/>
</a>
</g>
</g>
<!-- Node35&#45;&gt;Node34 -->
<g id="edge40_Node000035_Node000034" class="edge">
<title>Node35&#45;&gt;Node34</title>
<g id="a_edge40_Node000035_Node000034"><a xlink:title=" ">
<path fill="none" stroke="#63b8ff" d="M2061.42,-111.59C2053.77,-104.08 2042.84,-93.35 2033.62,-84.3"/>
<polygon fill="#63b8ff" stroke="#63b8ff" points="2036.14,-81.87 2026.55,-77.36 2031.23,-86.86 2036.14,-81.87"/>
</a>
</g>
</g>
<!-- Node36&#45;&gt;Node3 -->
<g id="edge42_Node000036_Node000003" class="edge">
<title>Node36&#45;&gt;Node3</title>
<g id="a_edge42_Node000036_Node000003"><a xlink:title=" ">
<path fill="none" stroke="#63b8ff" d="M2009.93,-20.21C1998.36,-28.06 1980.68,-40.51 1970,-56 1922.81,-124.45 1907.38,-225.6 1898.68,-268.53"/>
<polygon fill="#63b8ff" stroke="#63b8ff" points="1895.28,-267.68 1896.54,-278.19 1902.12,-269.18 1895.28,-267.68"/>
</a>
</g>
</g>
<!-- Node37&#45;&gt;Node3 -->
<g id="edge44_Node000037_Node000003" class="edge">
<title>Node37&#45;&gt;Node3</title>
<g id="a_edge44_Node000037_Node000003"><a xlink:title=" ">
<path fill="none" stroke="#63b8ff" d="M2379.97,-20.36C2391.65,-56.9 2407.69,-190.58 2334,-244 2303.26,-266.28 2054.03,-281.31 1943.87,-286.74"/>
<polygon fill="#63b8ff" stroke="#63b8ff" points="1943.73,-283.24 1933.92,-287.22 1944.07,-290.24 1943.73,-283.24"/>
</a>
</g>
</g>
<!-- Node38&#45;&gt;Node3 -->
<g id="edge46_Node000038_Node000003" class="edge">
<title>Node38&#45;&gt;Node3</title>
<g id="a_edge46_Node000038_Node000003"><a xlink:title=" ">
<path fill="none" stroke="#63b8ff" d="M2548.92,-132.32C2553.05,-155.24 2559.95,-214.66 2528,-244 2485.33,-283.18 2087.19,-288.37 1943.45,-288.97"/>
<polygon fill="#63b8ff" stroke="#63b8ff" points="1943.84,-285.46 1933.86,-289 1943.87,-292.46 1943.84,-285.46"/>
</a>
</g>
</g>
<!-- Node39&#45;&gt;Node3 -->
<g id="edge48_Node000039_Node000003" class="edge">
<title>Node39&#45;&gt;Node3</title>
<g id="a_edge48_Node000039_Node000003"><a xlink:title=" ">
<path fill="none" stroke="#63b8ff" d="M2322.31,-76.44C2335.24,-106.94 2354.31,-203.24 2302,-244 2247.9,-286.15 2042,-290.15 1944.11,-289.7"/>
<polygon fill="#63b8ff" stroke="#63b8ff" points="1944.26,-286.2 1934.24,-289.63 1944.21,-293.2 1944.26,-286.2"/>
</a>
</g>
</g>
<!-- Node39&#45;&gt;Node36 -->
<g id="edge50_Node000039_Node000036" class="edge">
<title>Node39&#45;&gt;Node36</title>
<g id="a_edge50_Node000039_Node000036"><a xlink:title=" ">
<path fill="none" stroke="#63b8ff" d="M2286.26,-59.58C2235.75,-50.36 2132.64,-31.55 2070.6,-20.23"/>
<polygon fill="#63b8ff" stroke="#63b8ff" points="2071.47,-16.83 2061,-18.48 2070.21,-23.72 2071.47,-16.83"/>
</a>
</g>
</g>
<!-- Node39&#45;&gt;Node37 -->
<g id="edge49_Node000039_Node000037" class="edge">
<title>Node39&#45;&gt;Node37</title>
<g id="a_edge49_Node000039_Node000037"><a xlink:title=" ">
<path fill="none" stroke="#63b8ff" d="M2326.28,-55.59C2334.57,-48.01 2346.45,-37.13 2356.4,-28.02"/>
<polygon fill="#63b8ff" stroke="#63b8ff" points="2358.71,-30.65 2363.72,-21.32 2353.98,-25.49 2358.71,-30.65"/>
</a>
</g>
</g>
<!-- Node40&#45;&gt;Node3 -->
<g id="edge52_Node000040_Node000003" class="edge">
<title>Node40&#45;&gt;Node3</title>
<g id="a_edge52_Node000040_Node000003"><a xlink:title=" ">
<path fill="none" stroke="#63b8ff" d="M2295.5,-132.31C2302.07,-155.22 2303.71,-214.59 2271,-244 2224.39,-285.9 2036.46,-290.16 1943.87,-289.75"/>
<polygon fill="#63b8ff" stroke="#63b8ff" points="1944.07,-286.25 1934.05,-289.68 1944.02,-293.25 1944.07,-286.25"/>
</a>
</g>
</g>
<!-- Node40&#45;&gt;Node39 -->
<g id="edge53_Node000040_Node000039" class="edge">
<title>Node40&#45;&gt;Node39</title>
<g id="a_edge53_Node000040_Node000039"><a xlink:title=" ">
<path fill="none" stroke="#63b8ff" d="M2294.53,-111.59C2297.85,-104.7 2302.47,-95.1 2306.58,-86.57"/>
<polygon fill="#63b8ff" stroke="#63b8ff" points="2309.68,-88.19 2310.87,-77.66 2303.37,-85.15 2309.68,-88.19"/>
</a>
</g>
</g>
</g>
</svg>
