<?xml version="1.0" encoding="UTF-8" standalone="no"?>
<!DOCTYPE svg PUBLIC "-//W3C//DTD SVG 1.1//EN"
 "http://www.w3.org/Graphics/SVG/1.1/DTD/svg11.dtd">
<!-- Generated by graphviz version 9.0.0 (20230911.1827)
 -->
<!-- Title: src/ShaderManager.h Pages: 1 -->
<svg width="1583pt" height="364pt"
 viewBox="0.00 0.00 1583.43 364.00" xmlns="http://www.w3.org/2000/svg" xmlns:xlink="http://www.w3.org/1999/xlink">
<g id="graph0" class="graph" transform="scale(1 1) rotate(0) translate(4 360)">
<title>src/ShaderManager.h</title>
<!-- Node1 -->
<g id="Node000001" class="node">
<title>Node1</title>
<g id="a_Node000001"><a xlink:title=" ">
<polygon fill="#999999" stroke="#666666" points="960.12,-356 851.12,-356 851.12,-336 960.12,-336 960.12,-356"/>
<text text-anchor="middle" x="905.62" y="-342.5" font-family="Helvetica,sans-Serif" font-size="10.00">src/ShaderManager.h</text>
</a>
</g>
</g>
<!-- Node2 -->
<g id="Node000002" class="node">
<title>Node2</title>
<g id="a_Node000002"><a xlink:href="_direct_x_manager_8h.html" target="_top" xlink:title=" ">
<polygon fill="white" stroke="#666666" points="960.12,-300 851.12,-300 851.12,-280 960.12,-280 960.12,-300"/>
<text text-anchor="middle" x="905.62" y="-286.5" font-family="Helvetica,sans-Serif" font-size="10.00">src/DirectXManager.h</text>
</a>
</g>
</g>
<!-- Node1&#45;&gt;Node2 -->
<g id="edge1_Node000001_Node000002" class="edge">
<title>Node1&#45;&gt;Node2</title>
<g id="a_edge1_Node000001_Node000002"><a xlink:title=" ">
<path fill="none" stroke="#63b8ff" d="M905.62,-324.13C905.62,-315.9 905.62,-306.85 905.62,-300.3"/>
<polygon fill="#63b8ff" stroke="#63b8ff" points="902.13,-324.08 905.63,-334.08 909.13,-324.08 902.13,-324.08"/>
</a>
</g>
</g>
<!-- Node25 -->
<g id="Node000025" class="node">
<title>Node25</title>
<g id="a_Node000025"><a xlink:href="_shader_manager_8cpp.html" target="_top" xlink:title=" ">
<polygon fill="white" stroke="#666666" points="1556.38,-132 1436.88,-132 1436.88,-112 1556.38,-112 1556.38,-132"/>
<text text-anchor="middle" x="1496.62" y="-118.5" font-family="Helvetica,sans-Serif" font-size="10.00">src/ShaderManager.cpp</text>
</a>
</g>
</g>
<!-- Node1&#45;&gt;Node25 -->
<g id="edge61_Node000001_Node000025" class="edge">
<title>Node1&#45;&gt;Node25</title>
<g id="a_edge61_Node000001_Node000025"><a xlink:title=" ">
<path fill="none" stroke="#63b8ff" d="M951.37,-332.43C1014.15,-314.76 1130.22,-280.62 1226.62,-244 1322.9,-207.42 1433.99,-153.92 1477.63,-132.44"/>
<polygon fill="#63b8ff" stroke="#63b8ff" points="950.42,-329.06 941.74,-335.12 952.31,-335.8 950.42,-329.06"/>
</a>
</g>
</g>
<!-- Node3 -->
<g id="Node000003" class="node">
<title>Node3</title>
<g id="a_Node000003"><a xlink:href="_direct_x_manager_8cpp.html" target="_top" xlink:title=" ">
<polygon fill="white" stroke="#666666" points="1336.38,-132 1216.88,-132 1216.88,-112 1336.38,-112 1336.38,-132"/>
<text text-anchor="middle" x="1276.62" y="-118.5" font-family="Helvetica,sans-Serif" font-size="10.00">src/DirectXManager.cpp</text>
</a>
</g>
</g>
<!-- Node2&#45;&gt;Node3 -->
<g id="edge2_Node000002_Node000003" class="edge">
<title>Node2&#45;&gt;Node3</title>
<g id="a_edge2_Node000002_Node000003"><a xlink:title=" ">
<path fill="none" stroke="#63b8ff" d="M971.53,-285.71C1046.77,-278.63 1169.51,-256.56 1247.62,-188 1264.53,-173.17 1272.05,-146.57 1274.99,-132.44"/>
<polygon fill="#63b8ff" stroke="#63b8ff" points="971.49,-282.2 961.83,-286.55 972.1,-289.17 971.49,-282.2"/>
</a>
</g>
</g>
<!-- Node4 -->
<g id="Node000004" class="node">
<title>Node4</title>
<g id="a_Node000004"><a xlink:href="_game_engine_8h.html" target="_top" xlink:title=" ">
<polygon fill="white" stroke="#666666" points="862.12,-244 765.12,-244 765.12,-224 862.12,-224 862.12,-244"/>
<text text-anchor="middle" x="813.62" y="-230.5" font-family="Helvetica,sans-Serif" font-size="10.00">src/GameEngine.h</text>
</a>
</g>
</g>
<!-- Node2&#45;&gt;Node4 -->
<g id="edge3_Node000002_Node000004" class="edge">
<title>Node2&#45;&gt;Node4</title>
<g id="a_edge3_Node000002_Node000004"><a xlink:title=" ">
<path fill="none" stroke="#63b8ff" d="M874.58,-274.35C857.28,-264.84 836.92,-252.74 824.49,-244.48"/>
<polygon fill="#63b8ff" stroke="#63b8ff" points="872.54,-277.22 883,-278.88 875.85,-271.06 872.54,-277.22"/>
</a>
</g>
</g>
<!-- Node22 -->
<g id="Node000022" class="node">
<title>Node22</title>
<g id="a_Node000022"><a xlink:href="_win32_application_8h.html" target="_top" xlink:title=" ">
<polygon fill="white" stroke="#666666" points="963.88,-188 847.38,-188 847.38,-168 963.88,-168 963.88,-188"/>
<text text-anchor="middle" x="905.62" y="-174.5" font-family="Helvetica,sans-Serif" font-size="10.00">src/Win32Application.h</text>
</a>
</g>
</g>
<!-- Node2&#45;&gt;Node22 -->
<g id="edge60_Node000002_Node000022" class="edge">
<title>Node2&#45;&gt;Node22</title>
<g id="a_edge60_Node000002_Node000022"><a xlink:title=" ">
<path fill="none" stroke="#63b8ff" d="M905.62,-268.31C905.62,-244.36 905.62,-205.95 905.62,-188.35"/>
<polygon fill="#63b8ff" stroke="#63b8ff" points="902.13,-268.11 905.63,-278.11 909.13,-268.11 902.13,-268.11"/>
</a>
</g>
</g>
<!-- Node4&#45;&gt;Node1 -->
<g id="edge37_Node000004_Node000001" class="edge">
<title>Node4&#45;&gt;Node1</title>
<g id="a_edge37_Node000004_Node000001"><a xlink:title=" ">
<path fill="none" stroke="#63b8ff" d="M819.05,-254.95C823.5,-268.66 830.84,-286.72 841.62,-300 854.05,-315.29 872.93,-327.69 886.97,-335.58"/>
<polygon fill="#63b8ff" stroke="#63b8ff" points="822.51,-254.29 816.31,-245.7 815.8,-256.28 822.51,-254.29"/>
</a>
</g>
</g>
<!-- Node4&#45;&gt;Node2 -->
<g id="edge8_Node000004_Node000002" class="edge">
<title>Node4&#45;&gt;Node2</title>
<g id="a_edge8_Node000004_Node000002"><a xlink:title=" ">
<path fill="none" stroke="#63b8ff" d="M844.82,-249.74C862.14,-259.26 882.49,-271.36 894.87,-279.59"/>
<polygon fill="#63b8ff" stroke="#63b8ff" points="846.85,-246.86 836.39,-245.2 843.53,-253.02 846.85,-246.86"/>
</a>
</g>
</g>
<!-- Node5 -->
<g id="Node000005" class="node">
<title>Node5</title>
<g id="a_Node000005"><a xlink:href="_camera_8h.html" target="_top" xlink:title=" ">
<polygon fill="white" stroke="#666666" points="1056.88,-188 982.38,-188 982.38,-168 1056.88,-168 1056.88,-188"/>
<text text-anchor="middle" x="1019.62" y="-174.5" font-family="Helvetica,sans-Serif" font-size="10.00">src/Camera.h</text>
</a>
</g>
</g>
<!-- Node4&#45;&gt;Node5 -->
<g id="edge4_Node000004_Node000005" class="edge">
<title>Node4&#45;&gt;Node5</title>
<g id="a_edge4_Node000004_Node000005"><a xlink:title=" ">
<path fill="none" stroke="#63b8ff" d="M855.2,-220.58C892.38,-210.45 946.23,-196.39 982.13,-187.5"/>
<polygon fill="#63b8ff" stroke="#63b8ff" points="854.42,-217.17 845.7,-223.19 856.27,-223.92 854.42,-217.17"/>
</a>
</g>
</g>
<!-- Node7 -->
<g id="Node000007" class="node">
<title>Node7</title>
<g id="a_Node000007"><a xlink:href="_game_engine_8cpp.html" target="_top" xlink:title=" ">
<polygon fill="white" stroke="#666666" points="557.38,-132 449.88,-132 449.88,-112 557.38,-112 557.38,-132"/>
<text text-anchor="middle" x="503.62" y="-118.5" font-family="Helvetica,sans-Serif" font-size="10.00">src/GameEngine.cpp</text>
</a>
</g>
</g>
<!-- Node4&#45;&gt;Node7 -->
<g id="edge9_Node000004_Node000007" class="edge">
<title>Node4&#45;&gt;Node7</title>
<g id="a_edge9_Node000004_Node000007"><a xlink:title=" ">
<path fill="none" stroke="#63b8ff" d="M779.53,-219.19C758.83,-210.62 732,-199.14 708.62,-188 691.4,-179.79 688.39,-174.97 670.62,-168 630.79,-152.37 583.56,-140.2 549.51,-132.48"/>
<polygon fill="#63b8ff" stroke="#63b8ff" points="778.05,-222.37 788.63,-222.94 780.72,-215.9 778.05,-222.37"/>
</a>
</g>
</g>
<!-- Node8 -->
<g id="Node000008" class="node">
<title>Node8</title>
<g id="a_Node000008"><a xlink:href="_graphics_device_8h.html" target="_top" xlink:title=" ">
<polygon fill="white" stroke="#666666" points="1238.75,-188 1130.5,-188 1130.5,-168 1238.75,-168 1238.75,-188"/>
<text text-anchor="middle" x="1184.62" y="-174.5" font-family="Helvetica,sans-Serif" font-size="10.00">src/GraphicsDevice.h</text>
</a>
</g>
</g>
<!-- Node4&#45;&gt;Node8 -->
<g id="edge10_Node000004_Node000008" class="edge">
<title>Node4&#45;&gt;Node8</title>
<g id="a_edge10_Node000004_Node000008"><a xlink:title=" ">
<path fill="none" stroke="#63b8ff" d="M873.24,-223.56C944.2,-212.92 1061.55,-195.86 1130.17,-186.23"/>
<polygon fill="#63b8ff" stroke="#63b8ff" points="873.13,-220.03 863.76,-224.98 874.17,-226.96 873.13,-220.03"/>
</a>
</g>
</g>
<!-- Node10 -->
<g id="Node000010" class="node">
<title>Node10</title>
<g id="a_Node000010"><a xlink:href="_mesh_8h.html" target="_top" xlink:title=" ">
<polygon fill="white" stroke="#666666" points="1419,-132 1354.25,-132 1354.25,-112 1419,-112 1419,-132"/>
<text text-anchor="middle" x="1386.62" y="-118.5" font-family="Helvetica,sans-Serif" font-size="10.00">src/Mesh.h</text>
</a>
</g>
</g>
<!-- Node4&#45;&gt;Node10 -->
<g id="edge28_Node000004_Node000010" class="edge">
<title>Node4&#45;&gt;Node10</title>
<g id="a_edge28_Node000004_Node000010"><a xlink:title=" ">
<path fill="none" stroke="#63b8ff" d="M873.42,-224.11C922.97,-216.59 994.86,-204.42 1056.62,-188 1082.17,-181.21 1087.03,-174.57 1112.62,-168 1210.29,-142.94 1237.56,-150.82 1336.62,-132 1342.21,-130.94 1348.2,-129.69 1354.08,-128.46"/>
<polygon fill="#63b8ff" stroke="#63b8ff" points="873.13,-220.61 863.76,-225.55 874.16,-227.53 873.13,-220.61"/>
</a>
</g>
</g>
<!-- Node13 -->
<g id="Node000013" class="node">
<title>Node13</title>
<g id="a_Node000013"><a xlink:href="_material_8h.html" target="_top" xlink:title=" ">
<polygon fill="white" stroke="#666666" points="75.25,-132 0,-132 0,-112 75.25,-112 75.25,-132"/>
<text text-anchor="middle" x="37.62" y="-118.5" font-family="Helvetica,sans-Serif" font-size="10.00">src/Material.h</text>
</a>
</g>
</g>
<!-- Node4&#45;&gt;Node13 -->
<g id="edge19_Node000004_Node000013" class="edge">
<title>Node4&#45;&gt;Node13</title>
<g id="a_edge19_Node000004_Node000013"><a xlink:title=" ">
<path fill="none" stroke="#63b8ff" d="M753.51,-224.89C704.87,-217.19 635.12,-204.37 575.62,-188 550.14,-180.99 545.46,-173.56 519.62,-168 325.92,-126.33 271.35,-159 75.49,-132.12"/>
<polygon fill="#63b8ff" stroke="#63b8ff" points="752.88,-228.33 763.29,-226.41 753.95,-221.41 752.88,-228.33"/>
</a>
</g>
</g>
<!-- Node15 -->
<g id="Node000015" class="node">
<title>Node15</title>
<g id="a_Node000015"><a xlink:href="_model_8h.html" target="_top" xlink:title=" ">
<polygon fill="white" stroke="#666666" points="973.12,-76 906.12,-76 906.12,-56 973.12,-56 973.12,-76"/>
<text text-anchor="middle" x="939.62" y="-62.5" font-family="Helvetica,sans-Serif" font-size="10.00">src/Model.h</text>
</a>
</g>
</g>
<!-- Node4&#45;&gt;Node15 -->
<g id="edge29_Node000004_Node000015" class="edge">
<title>Node4&#45;&gt;Node15</title>
<g id="a_edge29_Node000004_Node000015"><a xlink:title=" ">
<path fill="none" stroke="#63b8ff" d="M809.86,-212.58C811.9,-198.63 818.3,-180.47 829.62,-168 853.67,-141.51 876.89,-157.85 901.62,-132 917.17,-115.75 925.27,-89.75 931.89,-76.08"/>
<polygon fill="#63b8ff" stroke="#63b8ff" points="806.38,-212.23 809.3,-222.42 813.37,-212.64 806.38,-212.23"/>
</a>
</g>
</g>
<!-- Node16 -->
<g id="Node000016" class="node">
<title>Node16</title>
<g id="a_Node000016"><a xlink:href="_render_state_8h.html" target="_top" xlink:title=" ">
<polygon fill="white" stroke="#666666" points="393,-188 298.25,-188 298.25,-168 393,-168 393,-188"/>
<text text-anchor="middle" x="345.62" y="-174.5" font-family="Helvetica,sans-Serif" font-size="10.00">src/RenderState.h</text>
</a>
</g>
</g>
<!-- Node4&#45;&gt;Node16 -->
<g id="edge30_Node000004_Node000016" class="edge">
<title>Node4&#45;&gt;Node16</title>
<g id="a_edge30_Node000004_Node000016"><a xlink:title=" ">
<path fill="none" stroke="#63b8ff" d="M753.59,-227.9C671.8,-220.3 521.24,-205.05 393.62,-188 393.53,-187.99 393.43,-187.97 393.33,-187.96"/>
<polygon fill="#63b8ff" stroke="#63b8ff" points="753.13,-231.37 763.4,-228.81 753.77,-224.4 753.13,-231.37"/>
</a>
</g>
</g>
<!-- Node18 -->
<g id="Node000018" class="node">
<title>Node18</title>
<g id="a_Node000018"><a xlink:href="_scene_8h.html" target="_top" xlink:title=" ">
<polygon fill="white" stroke="#666666" points="661.88,-188 593.38,-188 593.38,-168 661.88,-168 661.88,-188"/>
<text text-anchor="middle" x="627.62" y="-174.5" font-family="Helvetica,sans-Serif" font-size="10.00">src/Scene.h</text>
</a>
</g>
</g>
<!-- Node4&#45;&gt;Node18 -->
<g id="edge35_Node000004_Node000018" class="edge">
<title>Node4&#45;&gt;Node18</title>
<g id="a_edge35_Node000004_Node000018"><a xlink:title=" ">
<path fill="none" stroke="#63b8ff" d="M770.34,-220.43C736.73,-210.67 690.85,-197.35 660.28,-188.48"/>
<polygon fill="#63b8ff" stroke="#63b8ff" points="769.19,-223.74 779.77,-223.17 771.15,-217.02 769.19,-223.74"/>
</a>
</g>
</g>
<!-- Node20 -->
<g id="Node000020" class="node">
<title>Node20</title>
<g id="a_Node000020"><a xlink:href="_shader_program_8h.html" target="_top" xlink:title=" ">
<polygon fill="white" stroke="#666666" points="519.75,-188 411.5,-188 411.5,-168 519.75,-168 519.75,-188"/>
<text text-anchor="middle" x="465.62" y="-174.5" font-family="Helvetica,sans-Serif" font-size="10.00">src/ShaderProgram.h</text>
</a>
</g>
</g>
<!-- Node4&#45;&gt;Node20 -->
<g id="edge38_Node000004_Node000020" class="edge">
<title>Node4&#45;&gt;Node20</title>
<g id="a_edge38_Node000004_Node000020"><a xlink:title=" ">
<path fill="none" stroke="#63b8ff" d="M753.88,-224.52C688.17,-214.66 583.64,-198.45 520.11,-188.27"/>
<polygon fill="#63b8ff" stroke="#63b8ff" points="752.97,-227.92 763.38,-225.94 754.01,-221 752.97,-227.92"/>
</a>
</g>
</g>
<!-- Node4&#45;&gt;Node22 -->
<g id="edge43_Node000004_Node000022" class="edge">
<title>Node4&#45;&gt;Node22</title>
<g id="a_edge43_Node000004_Node000022"><a xlink:title=" ">
<path fill="none" stroke="#63b8ff" d="M833.79,-217.54C848.76,-208.17 868.92,-196.51 884.19,-188.48"/>
<polygon fill="#63b8ff" stroke="#63b8ff" points="832.17,-214.42 825.66,-222.78 835.96,-220.31 832.17,-214.42"/>
</a>
</g>
</g>
<!-- Node24 -->
<g id="Node000024" class="node">
<title>Node24</title>
<g id="a_Node000024"><a xlink:href="pch_8h.html" target="_top" xlink:title=" ">
<polygon fill="white" stroke="#666666" points="773.88,-188 717.38,-188 717.38,-168 773.88,-168 773.88,-188"/>
<text text-anchor="middle" x="745.62" y="-174.5" font-family="Helvetica,sans-Serif" font-size="10.00">src/pch.h</text>
</a>
</g>
</g>
<!-- Node4&#45;&gt;Node24 -->
<g id="edge46_Node000004_Node000024" class="edge">
<title>Node4&#45;&gt;Node24</title>
<g id="a_edge46_Node000004_Node000024"><a xlink:title=" ">
<path fill="none" stroke="#63b8ff" d="M793.07,-216.68C781.37,-207.39 767.14,-196.09 757.33,-188.3"/>
<polygon fill="#63b8ff" stroke="#63b8ff" points="790.59,-219.17 800.6,-222.65 794.94,-213.69 790.59,-219.17"/>
</a>
</g>
</g>
<!-- Node5&#45;&gt;Node2 -->
<g id="edge6_Node000005_Node000002" class="edge">
<title>Node5&#45;&gt;Node2</title>
<g id="a_edge6_Node000005_Node000002"><a xlink:title=" ">
<path fill="none" stroke="#63b8ff" d="M1001.87,-196.13C977.5,-219.65 934.53,-261.11 915.34,-279.62"/>
<polygon fill="#63b8ff" stroke="#63b8ff" points="1004.07,-198.87 1008.84,-189.41 999.21,-193.83 1004.07,-198.87"/>
</a>
</g>
</g>
<!-- Node5&#45;&gt;Node4 -->
<g id="edge7_Node000005_Node000004" class="edge">
<title>Node5&#45;&gt;Node4</title>
<g id="a_edge7_Node000005_Node000004"><a xlink:title=" ">
<path fill="none" stroke="#63b8ff" d="M977.66,-191.52C941.74,-201.31 890.46,-214.71 854.77,-223.59"/>
<polygon fill="#63b8ff" stroke="#63b8ff" points="978.57,-194.9 987.28,-188.88 976.71,-188.15 978.57,-194.9"/>
</a>
</g>
</g>
<!-- Node6 -->
<g id="Node000006" class="node">
<title>Node6</title>
<g id="a_Node000006"><a xlink:href="_camera_8cpp.html" target="_top" xlink:title=" ">
<polygon fill="white" stroke="#666666" points="1062.12,-132 977.12,-132 977.12,-112 1062.12,-112 1062.12,-132"/>
<text text-anchor="middle" x="1019.62" y="-118.5" font-family="Helvetica,sans-Serif" font-size="10.00">src/Camera.cpp</text>
</a>
</g>
</g>
<!-- Node5&#45;&gt;Node6 -->
<g id="edge5_Node000005_Node000006" class="edge">
<title>Node5&#45;&gt;Node6</title>
<g id="a_edge5_Node000005_Node000006"><a xlink:title=" ">
<path fill="none" stroke="#63b8ff" d="M1019.62,-156.13C1019.62,-147.9 1019.62,-138.85 1019.62,-132.3"/>
<polygon fill="#63b8ff" stroke="#63b8ff" points="1016.13,-156.08 1019.63,-166.08 1023.13,-156.08 1016.13,-156.08"/>
</a>
</g>
</g>
<!-- Node8&#45;&gt;Node2 -->
<g id="edge11_Node000008_Node000002" class="edge">
<title>Node8&#45;&gt;Node2</title>
<g id="a_edge11_Node000008_Node000002"><a xlink:title=" ">
<path fill="none" stroke="#63b8ff" d="M1150.2,-192.57C1092.76,-215.22 978.83,-260.14 929.41,-279.62"/>
<polygon fill="#63b8ff" stroke="#63b8ff" points="1151.47,-195.83 1159.49,-188.91 1148.9,-189.32 1151.47,-195.83"/>
</a>
</g>
</g>
<!-- Node8&#45;&gt;Node4 -->
<g id="edge12_Node000008_Node000004" class="edge">
<title>Node8&#45;&gt;Node4</title>
<g id="a_edge12_Node000008_Node000004"><a xlink:title=" ">
<path fill="none" stroke="#63b8ff" d="M1119.36,-189.29C1045.96,-200.27 928.55,-217.31 862.58,-226.54"/>
<polygon fill="#63b8ff" stroke="#63b8ff" points="1119.44,-192.82 1128.81,-187.87 1118.4,-185.9 1119.44,-192.82"/>
</a>
</g>
</g>
<!-- Node9 -->
<g id="Node000009" class="node">
<title>Node9</title>
<g id="a_Node000009"><a xlink:href="_graphics_device_8cpp.html" target="_top" xlink:title=" ">
<polygon fill="white" stroke="#666666" points="1199,-132 1080.25,-132 1080.25,-112 1199,-112 1199,-132"/>
<text text-anchor="middle" x="1139.62" y="-118.5" font-family="Helvetica,sans-Serif" font-size="10.00">src/GraphicsDevice.cpp</text>
</a>
</g>
</g>
<!-- Node8&#45;&gt;Node9 -->
<g id="edge13_Node000008_Node000009" class="edge">
<title>Node8&#45;&gt;Node9</title>
<g id="a_edge13_Node000008_Node000009"><a xlink:title=" ">
<path fill="none" stroke="#63b8ff" d="M1169.63,-159C1162.17,-150.06 1153.48,-139.62 1147.37,-132.3"/>
<polygon fill="#63b8ff" stroke="#63b8ff" points="1166.73,-160.99 1175.82,-166.43 1172.1,-156.51 1166.73,-160.99"/>
</a>
</g>
</g>
<!-- Node8&#45;&gt;Node10 -->
<g id="edge14_Node000008_Node000010" class="edge">
<title>Node8&#45;&gt;Node10</title>
<g id="a_edge14_Node000008_Node000010"><a xlink:title=" ">
<path fill="none" stroke="#63b8ff" d="M1230.48,-164.74C1268.07,-154.69 1320.36,-140.72 1353.85,-131.76"/>
<polygon fill="#63b8ff" stroke="#63b8ff" points="1230.03,-161.24 1221.27,-167.2 1231.84,-168 1230.03,-161.24"/>
</a>
</g>
</g>
<!-- Node10&#45;&gt;Node2 -->
<g id="edge15_Node000010_Node000002" class="edge">
<title>Node10&#45;&gt;Node2</title>
<g id="a_edge15_Node000010_Node000002"><a xlink:title=" ">
<path fill="none" stroke="#63b8ff" d="M1366.02,-139.53C1331.66,-166.16 1259.53,-218.17 1189.62,-244 1113.3,-272.21 1019.03,-282.74 960.62,-286.67"/>
<polygon fill="#63b8ff" stroke="#63b8ff" points="1368.16,-142.3 1373.86,-133.37 1363.83,-136.8 1368.16,-142.3"/>
</a>
</g>
</g>
<!-- Node10&#45;&gt;Node4 -->
<g id="edge16_Node000010_Node000004" class="edge">
<title>Node10&#45;&gt;Node4</title>
<g id="a_edge16_Node000010_Node000004"><a xlink:title=" ">
<path fill="none" stroke="#63b8ff" d="M1342.55,-134.23C1253.16,-150.22 1224.2,-143.99 1130.62,-168 1105.03,-174.57 1100.17,-181.21 1074.62,-188 1002.04,-207.3 915.47,-220.73 862.42,-227.63"/>
<polygon fill="#63b8ff" stroke="#63b8ff" points="1343.07,-137.69 1352.27,-132.44 1341.8,-130.81 1343.07,-137.69"/>
</a>
</g>
</g>
<!-- Node11 -->
<g id="Node000011" class="node">
<title>Node11</title>
<g id="a_Node000011"><a xlink:href="_mesh_8cpp.html" target="_top" xlink:title=" ">
<polygon fill="white" stroke="#666666" points="1024.25,-20 949,-20 949,0 1024.25,0 1024.25,-20"/>
<text text-anchor="middle" x="986.62" y="-6.5" font-family="Helvetica,sans-Serif" font-size="10.00">src/Mesh.cpp</text>
</a>
</g>
</g>
<!-- Node10&#45;&gt;Node11 -->
<g id="edge17_Node000010_Node000011" class="edge">
<title>Node10&#45;&gt;Node11</title>
<g id="a_edge17_Node000010_Node000011"><a xlink:title=" ">
<path fill="none" stroke="#63b8ff" d="M1349.93,-107.75C1310.42,-93.78 1245.58,-71.65 1188.62,-56 1131.98,-40.43 1065.29,-26.4 1024.5,-18.28"/>
<polygon fill="#63b8ff" stroke="#63b8ff" points="1348.59,-110.99 1359.18,-111.05 1350.94,-104.4 1348.59,-110.99"/>
</a>
</g>
</g>
<!-- Node12 -->
<g id="Node000012" class="node">
<title>Node12</title>
<g id="a_Node000012"><a xlink:href="_model_8cpp.html" target="_top" xlink:title=" ">
<polygon fill="white" stroke="#666666" points="931.38,-20 853.88,-20 853.88,0 931.38,0 931.38,-20"/>
<text text-anchor="middle" x="892.62" y="-6.5" font-family="Helvetica,sans-Serif" font-size="10.00">src/Model.cpp</text>
</a>
</g>
</g>
<!-- Node10&#45;&gt;Node12 -->
<g id="edge18_Node000010_Node000012" class="edge">
<title>Node10&#45;&gt;Node12</title>
<g id="a_edge18_Node000010_Node000012"><a xlink:title=" ">
<path fill="none" stroke="#63b8ff" d="M1342.87,-111.26C1247.62,-90.05 1022.72,-39.97 931.79,-19.72"/>
<polygon fill="#63b8ff" stroke="#63b8ff" points="1341.83,-114.61 1352.35,-113.37 1343.35,-107.78 1341.83,-114.61"/>
</a>
</g>
</g>
<!-- Node13&#45;&gt;Node2 -->
<g id="edge20_Node000013_Node000002" class="edge">
<title>Node13&#45;&gt;Node2</title>
<g id="a_edge20_Node000013_Node000002"><a xlink:title=" ">
<path fill="none" stroke="#63b8ff" d="M83.42,-135.39C133.82,-148.9 217.28,-170.86 289.62,-188 404.22,-215.16 432.54,-224.17 548.62,-244 655,-262.17 780.37,-276.31 850.67,-283.58"/>
<polygon fill="#63b8ff" stroke="#63b8ff" points="84.6,-132.09 74.04,-132.87 82.79,-138.85 84.6,-132.09"/>
</a>
</g>
</g>
<!-- Node13&#45;&gt;Node4 -->
<g id="edge21_Node000013_Node000004" class="edge">
<title>Node13&#45;&gt;Node4</title>
<g id="a_edge21_Node000013_Node000004"><a xlink:title=" ">
<path fill="none" stroke="#63b8ff" d="M86.87,-131.15C88.82,-131.45 90.74,-131.74 92.62,-132 289.19,-159.09 343.64,-126.27 537.62,-168 563.46,-173.56 568.14,-180.99 593.62,-188 651.83,-204.02 719.86,-216.63 764.78,-224.38"/>
<polygon fill="#63b8ff" stroke="#63b8ff" points="87.51,-127.7 77.07,-129.47 86.33,-134.6 87.51,-127.7"/>
</a>
</g>
</g>
<!-- Node14 -->
<g id="Node000014" class="node">
<title>Node14</title>
<g id="a_Node000014"><a xlink:href="_material_8cpp.html" target="_top" xlink:title=" ">
<polygon fill="white" stroke="#666666" points="380.5,-76 294.75,-76 294.75,-56 380.5,-56 380.5,-76"/>
<text text-anchor="middle" x="337.62" y="-62.5" font-family="Helvetica,sans-Serif" font-size="10.00">src/Material.cpp</text>
</a>
</g>
</g>
<!-- Node13&#45;&gt;Node14 -->
<g id="edge22_Node000013_Node000014" class="edge">
<title>Node13&#45;&gt;Node14</title>
<g id="a_edge22_Node000013_Node000014"><a xlink:title=" ">
<path fill="none" stroke="#63b8ff" d="M86.38,-111.51C165.27,-96.87 246.14,-82.75 294.44,-74.41"/>
<polygon fill="#63b8ff" stroke="#63b8ff" points="85.95,-108.03 76.76,-113.3 87.23,-114.91 85.95,-108.03"/>
</a>
</g>
</g>
<!-- Node13&#45;&gt;Node15 -->
<g id="edge23_Node000013_Node000015" class="edge">
<title>Node13&#45;&gt;Node15</title>
<g id="a_edge23_Node000013_Node000015"><a xlink:title=" ">
<path fill="none" stroke="#63b8ff" d="M86.71,-111.77C410.23,-72.63 791.31,-67.68 905.63,-67.07"/>
<polygon fill="#63b8ff" stroke="#63b8ff" points="86.72,-108.25 77.21,-112.94 87.57,-115.19 86.72,-108.25"/>
</a>
</g>
</g>
<!-- Node15&#45;&gt;Node2 -->
<g id="edge24_Node000015_Node000002" class="edge">
<title>Node15&#45;&gt;Node2</title>
<g id="a_edge24_Node000015_Node000002"><a xlink:title=" ">
<path fill="none" stroke="#63b8ff" d="M984.65,-66.79C1121.61,-66.6 1526.22,-69.66 1565.62,-112 1652.05,-204.87 1133.41,-266.1 960.38,-283.74"/>
<polygon fill="#63b8ff" stroke="#63b8ff" points="984.88,-63.28 974.89,-66.81 984.9,-70.28 984.88,-63.28"/>
</a>
</g>
</g>
<!-- Node15&#45;&gt;Node4 -->
<g id="edge25_Node000015_Node000004" class="edge">
<title>Node15&#45;&gt;Node4</title>
<g id="a_edge25_Node000015_Node000004"><a xlink:title=" ">
<path fill="none" stroke="#63b8ff" d="M942.01,-87.44C939.07,-101.4 931.53,-119.56 919.62,-132 894.89,-157.85 871.67,-141.51 847.62,-168 832.83,-184.29 826.44,-210.27 820.74,-223.93"/>
<polygon fill="#63b8ff" stroke="#63b8ff" points="945.48,-87.94 943.23,-77.58 938.53,-87.08 945.48,-87.94"/>
</a>
</g>
</g>
<!-- Node15&#45;&gt;Node11 -->
<g id="edge26_Node000015_Node000011" class="edge">
<title>Node15&#45;&gt;Node11</title>
<g id="a_edge26_Node000015_Node000011"><a xlink:title=" ">
<path fill="none" stroke="#63b8ff" d="M955.29,-47C963.07,-38.06 972.16,-27.62 978.53,-20.3"/>
<polygon fill="#63b8ff" stroke="#63b8ff" points="952.73,-44.61 948.81,-54.45 958.01,-49.21 952.73,-44.61"/>
</a>
</g>
</g>
<!-- Node15&#45;&gt;Node12 -->
<g id="edge27_Node000015_Node000012" class="edge">
<title>Node15&#45;&gt;Node12</title>
<g id="a_edge27_Node000015_Node000012"><a xlink:title=" ">
<path fill="none" stroke="#63b8ff" d="M923.96,-47C916.18,-38.06 907.09,-27.62 900.72,-20.3"/>
<polygon fill="#63b8ff" stroke="#63b8ff" points="921.24,-49.21 930.44,-54.45 926.52,-44.61 921.24,-49.21"/>
</a>
</g>
</g>
<!-- Node16&#45;&gt;Node2 -->
<g id="edge31_Node000016_Node000002" class="edge">
<title>Node16&#45;&gt;Node2</title>
<g id="a_edge31_Node000016_Node000002"><a xlink:title=" ">
<path fill="none" stroke="#63b8ff" d="M396.75,-190.94C455.81,-204.56 555.99,-227.12 642.62,-244 714.35,-257.98 797.55,-271.82 850.84,-280.38"/>
<polygon fill="#63b8ff" stroke="#63b8ff" points="397.86,-187.6 387.33,-188.76 396.29,-194.42 397.86,-187.6"/>
</a>
</g>
</g>
<!-- Node16&#45;&gt;Node4 -->
<g id="edge32_Node000016_Node000004" class="edge">
<title>Node16&#45;&gt;Node4</title>
<g id="a_edge32_Node000016_Node000004"><a xlink:title=" ">
<path fill="none" stroke="#63b8ff" d="M404.63,-187.03C407,-187.37 409.34,-187.69 411.62,-188 538.98,-205.02 689.18,-220.24 764.93,-227.85"/>
<polygon fill="#63b8ff" stroke="#63b8ff" points="405.32,-183.6 394.92,-185.61 404.31,-190.52 405.32,-183.6"/>
</a>
</g>
</g>
<!-- Node16&#45;&gt;Node13 -->
<g id="edge33_Node000016_Node000013" class="edge">
<title>Node16&#45;&gt;Node13</title>
<g id="a_edge33_Node000016_Node000013"><a xlink:title=" ">
<path fill="none" stroke="#63b8ff" d="M286.51,-167.25C233.36,-158.38 153.19,-144.78 83.62,-132 80.9,-131.5 78.09,-130.97 75.27,-130.44"/>
<polygon fill="#63b8ff" stroke="#63b8ff" points="285.83,-170.68 296.26,-168.87 286.97,-163.78 285.83,-170.68"/>
</a>
</g>
</g>
<!-- Node17 -->
<g id="Node000017" class="node">
<title>Node17</title>
<g id="a_Node000017"><a xlink:href="_render_state_8cpp.html" target="_top" xlink:title=" ">
<polygon fill="white" stroke="#666666" points="198.25,-132 93,-132 93,-112 198.25,-112 198.25,-132"/>
<text text-anchor="middle" x="145.62" y="-118.5" font-family="Helvetica,sans-Serif" font-size="10.00">src/RenderState.cpp</text>
</a>
</g>
</g>
<!-- Node16&#45;&gt;Node17 -->
<g id="edge34_Node000016_Node000017" class="edge">
<title>Node16&#45;&gt;Node17</title>
<g id="a_edge34_Node000016_Node000017"><a xlink:title=" ">
<path fill="none" stroke="#63b8ff" d="M300.02,-164.69C263.8,-154.91 213.89,-141.43 180.73,-132.48"/>
<polygon fill="#63b8ff" stroke="#63b8ff" points="298.76,-167.97 309.33,-167.2 300.58,-161.21 298.76,-167.97"/>
</a>
</g>
</g>
<!-- Node19 -->
<g id="Node000019" class="node">
<title>Node19</title>
<g id="a_Node000019"><a xlink:href="_scene_8cpp.html" target="_top" xlink:title=" ">
<polygon fill="white" stroke="#666666" points="432.12,-132 353.12,-132 353.12,-112 432.12,-112 432.12,-132"/>
<text text-anchor="middle" x="392.62" y="-118.5" font-family="Helvetica,sans-Serif" font-size="10.00">src/Scene.cpp</text>
</a>
</g>
</g>
<!-- Node18&#45;&gt;Node19 -->
<g id="edge36_Node000018_Node000019" class="edge">
<title>Node18&#45;&gt;Node19</title>
<g id="a_edge36_Node000018_Node000019"><a xlink:title=" ">
<path fill="none" stroke="#63b8ff" d="M581.85,-166.48C538.46,-156.51 473.92,-141.68 432.56,-132.18"/>
<polygon fill="#63b8ff" stroke="#63b8ff" points="580.94,-169.86 591.47,-168.69 582.51,-163.04 580.94,-169.86"/>
</a>
</g>
</g>
<!-- Node20&#45;&gt;Node2 -->
<g id="edge39_Node000020_Node000002" class="edge">
<title>Node20&#45;&gt;Node2</title>
<g id="a_edge39_Node000020_Node000002"><a xlink:title=" ">
<path fill="none" stroke="#63b8ff" d="M514.66,-191.26C603.22,-213.4 788.05,-259.61 867.73,-279.53"/>
<polygon fill="#63b8ff" stroke="#63b8ff" points="515.6,-187.89 505.05,-188.86 513.91,-194.68 515.6,-187.89"/>
</a>
</g>
</g>
<!-- Node20&#45;&gt;Node4 -->
<g id="edge40_Node000020_Node000004" class="edge">
<title>Node20&#45;&gt;Node4</title>
<g id="a_edge40_Node000020_Node000004"><a xlink:title=" ">
<path fill="none" stroke="#63b8ff" d="M531.11,-188.35C599.05,-198.57 703.58,-214.8 764.68,-224.62"/>
<polygon fill="#63b8ff" stroke="#63b8ff" points="532.03,-184.94 521.62,-186.92 530.99,-191.87 532.03,-184.94"/>
</a>
</g>
</g>
<!-- Node20&#45;&gt;Node13 -->
<g id="edge41_Node000020_Node000013" class="edge">
<title>Node20&#45;&gt;Node13</title>
<g id="a_edge41_Node000020_Node000013"><a xlink:title=" ">
<path fill="none" stroke="#63b8ff" d="M399.91,-167.83C258.61,-150.26 220.63,-153.12 83.62,-132 81.05,-131.6 78.4,-131.17 75.74,-130.7"/>
<polygon fill="#63b8ff" stroke="#63b8ff" points="399.31,-171.28 409.67,-169.05 400.18,-164.33 399.31,-171.28"/>
</a>
</g>
</g>
<!-- Node21 -->
<g id="Node000021" class="node">
<title>Node21</title>
<g id="a_Node000021"><a xlink:href="_shader_program_8cpp.html" target="_top" xlink:title=" ">
<polygon fill="white" stroke="#666666" points="335,-132 216.25,-132 216.25,-112 335,-112 335,-132"/>
<text text-anchor="middle" x="275.62" y="-118.5" font-family="Helvetica,sans-Serif" font-size="10.00">src/ShaderProgram.cpp</text>
</a>
</g>
</g>
<!-- Node20&#45;&gt;Node21 -->
<g id="edge42_Node000020_Node000021" class="edge">
<title>Node20&#45;&gt;Node21</title>
<g id="a_edge42_Node000020_Node000021"><a xlink:title=" ">
<path fill="none" stroke="#63b8ff" d="M421.85,-164.56C387.48,-154.79 340.34,-141.39 308.98,-132.48"/>
<polygon fill="#63b8ff" stroke="#63b8ff" points="420.5,-167.81 431.07,-167.18 422.41,-161.08 420.5,-167.81"/>
</a>
</g>
</g>
<!-- Node22&#45;&gt;Node4 -->
<g id="edge44_Node000022_Node000004" class="edge">
<title>Node22&#45;&gt;Node4</title>
<g id="a_edge44_Node000022_Node000004"><a xlink:title=" ">
<path fill="none" stroke="#63b8ff" d="M885.32,-194.54C870.32,-203.93 850.16,-215.59 834.92,-223.59"/>
<polygon fill="#63b8ff" stroke="#63b8ff" points="886.96,-197.65 893.48,-189.3 883.18,-191.76 886.96,-197.65"/>
</a>
</g>
</g>
<!-- Node23 -->
<g id="Node000023" class="node">
<title>Node23</title>
<g id="a_Node000023"><a xlink:href="_win32_application_8cpp.html" target="_top" xlink:title=" ">
<polygon fill="white" stroke="#666666" points="902.12,-132 775.12,-132 775.12,-112 902.12,-112 902.12,-132"/>
<text text-anchor="middle" x="838.62" y="-118.5" font-family="Helvetica,sans-Serif" font-size="10.00">src/Win32Application.cpp</text>
</a>
</g>
</g>
<!-- Node22&#45;&gt;Node23 -->
<g id="edge45_Node000022_Node000023" class="edge">
<title>Node22&#45;&gt;Node23</title>
<g id="a_edge45_Node000022_Node000023"><a xlink:title=" ">
<path fill="none" stroke="#63b8ff" d="M885.03,-160.4C873.57,-151.17 859.73,-140.01 850.16,-132.3"/>
<polygon fill="#63b8ff" stroke="#63b8ff" points="882.79,-163.09 892.78,-166.64 887.19,-157.64 882.79,-163.09"/>
</a>
</g>
</g>
<!-- Node24&#45;&gt;Node3 -->
<g id="edge48_Node000024_Node000003" class="edge">
<title>Node24&#45;&gt;Node3</title>
<g id="a_edge48_Node000024_Node000003"><a xlink:title=" ">
<path fill="none" stroke="#63b8ff" d="M785.36,-173.15C895.48,-162.47 1197.16,-133.19 1207.62,-132 1210.51,-131.67 1213.45,-131.33 1216.43,-130.97"/>
<polygon fill="#63b8ff" stroke="#63b8ff" points="785.23,-169.64 775.62,-174.09 785.91,-176.61 785.23,-169.64"/>
</a>
</g>
</g>
<!-- Node24&#45;&gt;Node6 -->
<g id="edge47_Node000024_Node000006" class="edge">
<title>Node24&#45;&gt;Node6</title>
<g id="a_edge47_Node000024_Node000006"><a xlink:title=" ">
<path fill="none" stroke="#63b8ff" d="M785.38,-169.17C836.36,-159.12 924.42,-141.76 976.83,-131.43"/>
<polygon fill="#63b8ff" stroke="#63b8ff" points="784.79,-165.71 775.66,-171.08 786.15,-172.58 784.79,-165.71"/>
</a>
</g>
</g>
<!-- Node24&#45;&gt;Node7 -->
<g id="edge49_Node000024_Node000007" class="edge">
<title>Node24&#45;&gt;Node7</title>
<g id="a_edge49_Node000024_Node000007"><a xlink:title=" ">
<path fill="none" stroke="#63b8ff" d="M705.79,-168.11C661.77,-158.29 591.17,-142.54 546.12,-132.48"/>
<polygon fill="#63b8ff" stroke="#63b8ff" points="704.91,-171.5 715.44,-170.26 706.44,-164.67 704.91,-171.5"/>
</a>
</g>
</g>
<!-- Node24&#45;&gt;Node9 -->
<g id="edge50_Node000024_Node000009" class="edge">
<title>Node24&#45;&gt;Node9</title>
<g id="a_edge50_Node000024_Node000009"><a xlink:title=" ">
<path fill="none" stroke="#63b8ff" d="M785.58,-171.52C855.12,-161.99 998.75,-142.31 1080.07,-131.16"/>
<polygon fill="#63b8ff" stroke="#63b8ff" points="785.21,-168.04 775.78,-172.87 786.16,-174.98 785.21,-168.04"/>
</a>
</g>
</g>
<!-- Node24&#45;&gt;Node11 -->
<g id="edge52_Node000024_Node000011" class="edge">
<title>Node24&#45;&gt;Node11</title>
<g id="a_edge52_Node000024_Node000011"><a xlink:title=" ">
<path fill="none" stroke="#63b8ff" d="M747.54,-156.51C749.81,-142.53 754.77,-124.37 765.62,-112 814.32,-56.51 899.71,-29.69 948.88,-18.27"/>
<polygon fill="#63b8ff" stroke="#63b8ff" points="744.07,-156.04 746.31,-166.39 751.02,-156.9 744.07,-156.04"/>
</a>
</g>
</g>
<!-- Node24&#45;&gt;Node12 -->
<g id="edge53_Node000024_Node000012" class="edge">
<title>Node24&#45;&gt;Node12</title>
<g id="a_edge53_Node000024_Node000012"><a xlink:title=" ">
<path fill="none" stroke="#63b8ff" d="M735.87,-157.25C724.6,-131.28 710.28,-85.5 732.62,-56 747.22,-36.74 811.21,-23.42 853.71,-16.51"/>
<polygon fill="#63b8ff" stroke="#63b8ff" points="732.68,-158.69 740.06,-166.29 739.03,-155.74 732.68,-158.69"/>
</a>
</g>
</g>
<!-- Node24&#45;&gt;Node14 -->
<g id="edge51_Node000024_Node000014" class="edge">
<title>Node24&#45;&gt;Node14</title>
<g id="a_edge51_Node000024_Node000014"><a xlink:title=" ">
<path fill="none" stroke="#63b8ff" d="M727,-160.37C708.85,-145.17 679.8,-123.36 650.62,-112 559.18,-76.38 442.84,-68.57 380.95,-67.09"/>
<polygon fill="#63b8ff" stroke="#63b8ff" points="724.43,-162.78 734.29,-166.65 728.99,-157.47 724.43,-162.78"/>
</a>
</g>
</g>
<!-- Node24&#45;&gt;Node17 -->
<g id="edge54_Node000024_Node000017" class="edge">
<title>Node24&#45;&gt;Node17</title>
<g id="a_edge54_Node000024_Node000017"><a xlink:title=" ">
<path fill="none" stroke="#63b8ff" d="M705.79,-171.91C694.44,-170.54 682.05,-169.13 670.62,-168 465.23,-147.7 412.76,-154.84 207.62,-132 204.71,-131.68 201.71,-131.32 198.7,-130.94"/>
<polygon fill="#63b8ff" stroke="#63b8ff" points="705.31,-175.37 715.66,-173.12 706.16,-168.43 705.31,-175.37"/>
</a>
</g>
</g>
<!-- Node24&#45;&gt;Node19 -->
<g id="edge55_Node000024_Node000019" class="edge">
<title>Node24&#45;&gt;Node19</title>
<g id="a_edge55_Node000024_Node000019"><a xlink:title=" ">
<path fill="none" stroke="#63b8ff" d="M705.7,-171.61C647.36,-163.63 535.45,-147.88 440.62,-132 437.95,-131.55 435.19,-131.08 432.42,-130.58"/>
<polygon fill="#63b8ff" stroke="#63b8ff" points="705.09,-175.06 715.47,-172.95 706.04,-168.13 705.09,-175.06"/>
</a>
</g>
</g>
<!-- Node24&#45;&gt;Node21 -->
<g id="edge57_Node000024_Node000021" class="edge">
<title>Node24&#45;&gt;Node21</title>
<g id="a_edge57_Node000024_Node000021"><a xlink:title=" ">
<path fill="none" stroke="#63b8ff" d="M705.77,-172.14C694.42,-170.78 682.03,-169.31 670.62,-168 525.37,-151.29 488.77,-149.59 343.62,-132 340.91,-131.67 338.13,-131.33 335.32,-130.98"/>
<polygon fill="#63b8ff" stroke="#63b8ff" points="705.29,-175.61 715.64,-173.33 706.13,-168.66 705.29,-175.61"/>
</a>
</g>
</g>
<!-- Node24&#45;&gt;Node23 -->
<g id="edge58_Node000024_Node000023" class="edge">
<title>Node24&#45;&gt;Node23</title>
<g id="a_edge58_Node000024_Node000023"><a xlink:title=" ">
<path fill="none" stroke="#63b8ff" d="M771.32,-162.08C787.62,-152.62 808.21,-140.66 822.3,-132.48"/>
<polygon fill="#63b8ff" stroke="#63b8ff" points="770.02,-158.79 763.13,-166.83 773.54,-164.84 770.02,-158.79"/>
</a>
</g>
</g>
<!-- Node24&#45;&gt;Node25 -->
<g id="edge56_Node000024_Node000025" class="edge">
<title>Node24&#45;&gt;Node25</title>
<g id="a_edge56_Node000024_Node000025"><a xlink:title=" ">
<path fill="none" stroke="#63b8ff" d="M785.5,-172.83C801.94,-171.19 821.19,-169.38 838.62,-168 1100.08,-147.37 1166.55,-156.98 1427.62,-132 1430.51,-131.72 1433.46,-131.42 1436.44,-131.1"/>
<polygon fill="#63b8ff" stroke="#63b8ff" points="785.2,-169.34 775.6,-173.83 785.9,-176.31 785.2,-169.34"/>
</a>
</g>
</g>
<!-- Node26 -->
<g id="Node000026" class="node">
<title>Node26</title>
<g id="a_Node000026"><a xlink:href="pch_8cpp.html" target="_top" xlink:title=" ">
<polygon fill="white" stroke="#666666" points="642.12,-132 575.12,-132 575.12,-112 642.12,-112 642.12,-132"/>
<text text-anchor="middle" x="608.62" y="-118.5" font-family="Helvetica,sans-Serif" font-size="10.00">src/pch.cpp</text>
</a>
</g>
</g>
<!-- Node24&#45;&gt;Node26 -->
<g id="edge59_Node000024_Node000026" class="edge">
<title>Node24&#45;&gt;Node26</title>
<g id="a_edge59_Node000024_Node000026"><a xlink:title=" ">
<path fill="none" stroke="#63b8ff" d="M711.13,-163.4C686.65,-153.75 654.41,-141.05 632.67,-132.48"/>
<polygon fill="#63b8ff" stroke="#63b8ff" points="709.77,-166.63 720.35,-167.04 712.33,-160.12 709.77,-166.63"/>
</a>
</g>
</g>
</g>
</svg>
