<?xml version="1.0" encoding="UTF-8" standalone="no"?>
<!DOCTYPE svg PUBLIC "-//W3C//DTD SVG 1.1//EN"
 "http://www.w3.org/Graphics/SVG/1.1/DTD/svg11.dtd">
<!-- Generated by graphviz version 9.0.0 (20230911.1827)
 -->
<!-- Title: src/Win32Application.h Pages: 1 -->
<svg width="2765pt" height="308pt"
 viewBox="0.00 0.00 2765.25 308.00" xmlns="http://www.w3.org/2000/svg" xmlns:xlink="http://www.w3.org/1999/xlink">
<g id="graph0" class="graph" transform="scale(1 1) rotate(0) translate(4 304)">
<title>src/Win32Application.h</title>
<!-- Node1 -->
<g id="Node000001" class="node">
<title>Node1</title>
<g id="a_Node000001"><a xlink:title=" ">
<polygon fill="#999999" stroke="#666666" points="1970.62,-300 1854.12,-300 1854.12,-280 1970.62,-280 1970.62,-300"/>
<text text-anchor="middle" x="1912.38" y="-286.5" font-family="Helvetica,sans-Serif" font-size="10.00">src/Win32Application.h</text>
</a>
</g>
</g>
<!-- Node2 -->
<g id="Node000002" class="node">
<title>Node2</title>
<g id="a_Node000002"><a xlink:href="_game_engine_8h.html" target="_top" xlink:title=" ">
<polygon fill="white" stroke="#666666" points="1952.62,-244 1872.12,-244 1872.12,-224 1952.62,-224 1952.62,-244"/>
<text text-anchor="middle" x="1912.38" y="-230.5" font-family="Helvetica,sans-Serif" font-size="10.00">GameEngine.h</text>
</a>
</g>
</g>
<!-- Node1&#45;&gt;Node2 -->
<g id="edge1_Node000001_Node000002" class="edge">
<title>Node1&#45;&gt;Node2</title>
<g id="a_edge1_Node000001_Node000002"><a xlink:title=" ">
<path fill="none" stroke="#63b8ff" d="M1907.11,-279.59C1905.79,-273.01 1905.35,-263.96 1905.79,-255.73"/>
<polygon fill="#63b8ff" stroke="#63b8ff" points="1909.27,-256.14 1906.95,-245.8 1902.31,-255.33 1909.27,-256.14"/>
</a>
</g>
</g>
<!-- Node30 -->
<g id="Node000030" class="node">
<title>Node30</title>
<g id="a_Node000030"><a xlink:href="_direct_x_manager_8h.html" target="_top" xlink:title=" ">
<polygon fill="white" stroke="#666666" points="2618.62,-188 2526.12,-188 2526.12,-168 2618.62,-168 2618.62,-188"/>
<text text-anchor="middle" x="2572.38" y="-174.5" font-family="Helvetica,sans-Serif" font-size="10.00">DirectXManager.h</text>
</a>
</g>
</g>
<!-- Node1&#45;&gt;Node30 -->
<g id="edge59_Node000001_Node000030" class="edge">
<title>Node1&#45;&gt;Node30</title>
<g id="a_edge59_Node000001_Node000030"><a xlink:title=" ">
<path fill="none" stroke="#63b8ff" d="M1969.22,-279.53C2093.69,-258.78 2389.21,-209.53 2514.56,-188.64"/>
<polygon fill="#63b8ff" stroke="#63b8ff" points="2515.01,-192.11 2524.3,-187.01 2513.86,-185.2 2515.01,-192.11"/>
</a>
</g>
</g>
<!-- Node2&#45;&gt;Node1 -->
<g id="edge29_Node000002_Node000001" class="edge">
<title>Node2&#45;&gt;Node1</title>
<g id="a_edge29_Node000002_Node000001"><a xlink:title=" ">
<path fill="none" stroke="#63b8ff" d="M1917.62,-244.3C1918.96,-250.93 1919.41,-260.11 1918.95,-268.43"/>
<polygon fill="#63b8ff" stroke="#63b8ff" points="1915.51,-267.75 1917.82,-278.09 1922.46,-268.57 1915.51,-267.75"/>
</a>
</g>
</g>
<!-- Node3 -->
<g id="Node000003" class="node">
<title>Node3</title>
<g id="a_Node000003"><a xlink:title=" ">
<polygon fill="#e0e0e0" stroke="#999999" points="2325.25,-188 2245.5,-188 2245.5,-168 2325.25,-168 2325.25,-188"/>
<text text-anchor="middle" x="2285.38" y="-174.5" font-family="Helvetica,sans-Serif" font-size="10.00">SDKDDKVer.h</text>
</a>
</g>
</g>
<!-- Node2&#45;&gt;Node3 -->
<g id="edge2_Node000002_Node000003" class="edge">
<title>Node2&#45;&gt;Node3</title>
<g id="a_edge2_Node000002_Node000003"><a xlink:title=" ">
<path fill="none" stroke="#63b8ff" d="M1952.96,-227.61C2013.61,-219.47 2131.46,-203.37 2231.38,-188 2232.22,-187.87 2233.07,-187.74 2233.93,-187.6"/>
<polygon fill="#63b8ff" stroke="#63b8ff" points="2234.47,-191.06 2243.79,-186.03 2233.37,-184.15 2234.47,-191.06"/>
</a>
</g>
</g>
<!-- Node4 -->
<g id="Node000004" class="node">
<title>Node4</title>
<g id="a_Node000004"><a xlink:title=" ">
<polygon fill="#e0e0e0" stroke="#999999" points="2442.88,-188 2381.88,-188 2381.88,-168 2442.88,-168 2442.88,-188"/>
<text text-anchor="middle" x="2412.38" y="-174.5" font-family="Helvetica,sans-Serif" font-size="10.00">windows.h</text>
</a>
</g>
</g>
<!-- Node2&#45;&gt;Node4 -->
<g id="edge3_Node000002_Node000004" class="edge">
<title>Node2&#45;&gt;Node4</title>
<g id="a_edge3_Node000002_Node000004"><a xlink:title=" ">
<path fill="none" stroke="#63b8ff" d="M1953.02,-230.33C2032.77,-224.8 2215.26,-210.68 2367.38,-188 2368.37,-187.85 2369.39,-187.69 2370.41,-187.53"/>
<polygon fill="#63b8ff" stroke="#63b8ff" points="2370.72,-191.03 2379.97,-185.86 2369.52,-184.13 2370.72,-191.03"/>
</a>
</g>
</g>
<!-- Node5 -->
<g id="Node000005" class="node">
<title>Node5</title>
<g id="a_Node000005"><a xlink:title=" ">
<polygon fill="#e0e0e0" stroke="#999999" points="2508.12,-188 2460.62,-188 2460.62,-168 2508.12,-168 2508.12,-188"/>
<text text-anchor="middle" x="2484.38" y="-174.5" font-family="Helvetica,sans-Serif" font-size="10.00">stdlib.h</text>
</a>
</g>
</g>
<!-- Node2&#45;&gt;Node5 -->
<g id="edge4_Node000002_Node000005" class="edge">
<title>Node2&#45;&gt;Node5</title>
<g id="a_edge4_Node000002_Node000005"><a xlink:title=" ">
<path fill="none" stroke="#63b8ff" d="M1952.93,-232.14C2041.45,-229.73 2258.64,-220.88 2449.27,-188.04"/>
<polygon fill="#63b8ff" stroke="#63b8ff" points="2449.6,-191.54 2458.85,-186.36 2448.39,-184.64 2449.6,-191.54"/>
</a>
</g>
</g>
<!-- Node6 -->
<g id="Node000006" class="node">
<title>Node6</title>
<g id="a_Node000006"><a xlink:title=" ">
<polygon fill="#e0e0e0" stroke="#999999" points="52.75,-188 0,-188 0,-168 52.75,-168 52.75,-188"/>
<text text-anchor="middle" x="26.38" y="-174.5" font-family="Helvetica,sans-Serif" font-size="10.00">malloc.h</text>
</a>
</g>
</g>
<!-- Node2&#45;&gt;Node6 -->
<g id="edge5_Node000002_Node000006" class="edge">
<title>Node2&#45;&gt;Node6</title>
<g id="a_edge5_Node000002_Node000006"><a xlink:title=" ">
<path fill="none" stroke="#63b8ff" d="M1871.86,-233.27C1637.4,-234.62 451.8,-238.88 64.23,-188.03"/>
<polygon fill="#63b8ff" stroke="#63b8ff" points="64.88,-184.59 54.5,-186.72 63.94,-191.53 64.88,-184.59"/>
</a>
</g>
</g>
<!-- Node7 -->
<g id="Node000007" class="node">
<title>Node7</title>
<g id="a_Node000007"><a xlink:title=" ">
<polygon fill="#e0e0e0" stroke="#999999" points="130.12,-188 70.62,-188 70.62,-168 130.12,-168 130.12,-188"/>
<text text-anchor="middle" x="100.38" y="-174.5" font-family="Helvetica,sans-Serif" font-size="10.00">memory.h</text>
</a>
</g>
</g>
<!-- Node2&#45;&gt;Node7 -->
<g id="edge6_Node000002_Node000007" class="edge">
<title>Node2&#45;&gt;Node7</title>
<g id="a_edge6_Node000002_Node000007"><a xlink:title=" ">
<path fill="none" stroke="#63b8ff" d="M1871.72,-233.08C1643,-233.36 513.96,-232.52 141.82,-187.98"/>
<polygon fill="#63b8ff" stroke="#63b8ff" points="142.36,-184.52 132,-186.77 141.5,-191.47 142.36,-184.52"/>
</a>
</g>
</g>
<!-- Node8 -->
<g id="Node000008" class="node">
<title>Node8</title>
<g id="a_Node000008"><a xlink:title=" ">
<polygon fill="#e0e0e0" stroke="#999999" points="194.38,-188 148.38,-188 148.38,-168 194.38,-168 194.38,-188"/>
<text text-anchor="middle" x="171.38" y="-174.5" font-family="Helvetica,sans-Serif" font-size="10.00">tchar.h</text>
</a>
</g>
</g>
<!-- Node2&#45;&gt;Node8 -->
<g id="edge7_Node000002_Node000008" class="edge">
<title>Node2&#45;&gt;Node8</title>
<g id="a_edge7_Node000002_Node000008"><a xlink:title=" ">
<path fill="none" stroke="#63b8ff" d="M1871.91,-232.54C1633.96,-229.72 420.42,-214.27 205.99,-187.82"/>
<polygon fill="#63b8ff" stroke="#63b8ff" points="206.53,-184.36 196.15,-186.47 205.58,-191.29 206.53,-184.36"/>
</a>
</g>
</g>
<!-- Node9 -->
<g id="Node000009" class="node">
<title>Node9</title>
<g id="a_Node000009"><a xlink:title=" ">
<polygon fill="#e0e0e0" stroke="#999999" points="274.25,-188 212.5,-188 212.5,-168 274.25,-168 274.25,-188"/>
<text text-anchor="middle" x="243.38" y="-174.5" font-family="Helvetica,sans-Serif" font-size="10.00">resource.h</text>
</a>
</g>
</g>
<!-- Node2&#45;&gt;Node9 -->
<g id="edge8_Node000002_Node000009" class="edge">
<title>Node2&#45;&gt;Node9</title>
<g id="a_edge8_Node000002_Node000009"><a xlink:title=" ">
<path fill="none" stroke="#63b8ff" d="M1871.85,-232.94C1654.85,-232.49 627.89,-228.27 286.1,-188.04"/>
<polygon fill="#63b8ff" stroke="#63b8ff" points="286.57,-184.57 276.22,-186.84 285.72,-191.52 286.57,-184.57"/>
</a>
</g>
</g>
<!-- Node10 -->
<g id="Node000010" class="node">
<title>Node10</title>
<g id="a_Node000010"><a xlink:title=" ">
<polygon fill="#e0e0e0" stroke="#999999" points="338,-188 292.75,-188 292.75,-168 338,-168 338,-188"/>
<text text-anchor="middle" x="315.38" y="-174.5" font-family="Helvetica,sans-Serif" font-size="10.00">chrono</text>
</a>
</g>
</g>
<!-- Node2&#45;&gt;Node10 -->
<g id="edge9_Node000002_Node000010" class="edge">
<title>Node2&#45;&gt;Node10</title>
<g id="a_edge9_Node000002_Node000010"><a xlink:title=" ">
<path fill="none" stroke="#63b8ff" d="M1871.97,-233.22C1660.26,-234.19 676.47,-236.07 349.6,-188.07"/>
<polygon fill="#63b8ff" stroke="#63b8ff" points="350.16,-184.62 339.75,-186.57 349.11,-191.54 350.16,-184.62"/>
</a>
</g>
</g>
<!-- Node11 -->
<g id="Node000011" class="node">
<title>Node11</title>
<g id="a_Node000011"><a xlink:title=" ">
<polygon fill="#e0e0e0" stroke="#999999" points="397.12,-188 355.62,-188 355.62,-168 397.12,-168 397.12,-188"/>
<text text-anchor="middle" x="376.38" y="-174.5" font-family="Helvetica,sans-Serif" font-size="10.00">vector</text>
</a>
</g>
</g>
<!-- Node2&#45;&gt;Node11 -->
<g id="edge10_Node000002_Node000011" class="edge">
<title>Node2&#45;&gt;Node11</title>
<g id="a_edge10_Node000002_Node000011"><a xlink:title=" ">
<path fill="none" stroke="#63b8ff" d="M1871.8,-233.22C1664.63,-234.12 722.69,-235.59 408.43,-187.81"/>
<polygon fill="#63b8ff" stroke="#63b8ff" points="409.44,-184.43 399.01,-186.33 408.35,-191.34 409.44,-184.43"/>
</a>
</g>
</g>
<!-- Node12 -->
<g id="Node000012" class="node">
<title>Node12</title>
<g id="a_Node000012"><a xlink:title=" ">
<polygon fill="#e0e0e0" stroke="#999999" points="469.12,-188 415.62,-188 415.62,-168 469.12,-168 469.12,-188"/>
<text text-anchor="middle" x="442.38" y="-174.5" font-family="Helvetica,sans-Serif" font-size="10.00">iostream</text>
</a>
</g>
</g>
<!-- Node2&#45;&gt;Node12 -->
<g id="edge11_Node000002_Node000012" class="edge">
<title>Node2&#45;&gt;Node12</title>
<g id="a_edge11_Node000002_Node000012"><a xlink:title=" ">
<path fill="none" stroke="#63b8ff" d="M1871.78,-232.9C1670.91,-232.21 781.23,-227.05 480.68,-187.93"/>
<polygon fill="#63b8ff" stroke="#63b8ff" points="481.26,-184.48 470.88,-186.61 480.32,-191.42 481.26,-184.48"/>
</a>
</g>
</g>
<!-- Node13 -->
<g id="Node000013" class="node">
<title>Node13</title>
<g id="a_Node000013"><a xlink:title=" ">
<polygon fill="#e0e0e0" stroke="#999999" points="535.5,-188 487.25,-188 487.25,-168 535.5,-168 535.5,-188"/>
<text text-anchor="middle" x="511.38" y="-174.5" font-family="Helvetica,sans-Serif" font-size="10.00">fstream</text>
</a>
</g>
</g>
<!-- Node2&#45;&gt;Node13 -->
<g id="edge12_Node000002_Node000013" class="edge">
<title>Node2&#45;&gt;Node13</title>
<g id="a_edge12_Node000002_Node000013"><a xlink:title=" ">
<path fill="none" stroke="#63b8ff" d="M1871.69,-232.94C1676.33,-232.46 832.7,-228.15 546.9,-187.96"/>
<polygon fill="#63b8ff" stroke="#63b8ff" points="547.65,-184.53 537.25,-186.55 546.63,-191.46 547.65,-184.53"/>
</a>
</g>
</g>
<!-- Node14 -->
<g id="Node000014" class="node">
<title>Node14</title>
<g id="a_Node000014"><a xlink:title=" ">
<polygon fill="#e0e0e0" stroke="#999999" points="613.5,-188 553.25,-188 553.25,-168 613.5,-168 613.5,-188"/>
<text text-anchor="middle" x="583.38" y="-174.5" font-family="Helvetica,sans-Serif" font-size="10.00">filesystem</text>
</a>
</g>
</g>
<!-- Node2&#45;&gt;Node14 -->
<g id="edge13_Node000002_Node000014" class="edge">
<title>Node2&#45;&gt;Node14</title>
<g id="a_edge13_Node000002_Node000014"><a xlink:title=" ">
<path fill="none" stroke="#63b8ff" d="M1871.84,-232.63C1683.9,-230.78 895.38,-221.2 625.25,-188.08"/>
<polygon fill="#63b8ff" stroke="#63b8ff" points="625.79,-184.62 615.43,-186.83 624.91,-191.56 625.79,-184.62"/>
</a>
</g>
</g>
<!-- Node15 -->
<g id="Node000015" class="node">
<title>Node15</title>
<g id="a_Node000015"><a xlink:title=" ">
<polygon fill="#e0e0e0" stroke="#999999" points="683,-188 631.75,-188 631.75,-168 683,-168 683,-188"/>
<text text-anchor="middle" x="657.38" y="-174.5" font-family="Helvetica,sans-Serif" font-size="10.00">sstream</text>
</a>
</g>
</g>
<!-- Node2&#45;&gt;Node15 -->
<g id="edge14_Node000002_Node000015" class="edge">
<title>Node2&#45;&gt;Node15</title>
<g id="a_edge14_Node000002_Node000015"><a xlink:title=" ">
<path fill="none" stroke="#63b8ff" d="M1871.89,-232.67C1690.4,-231.04 949.83,-222.45 694.31,-187.87"/>
<polygon fill="#63b8ff" stroke="#63b8ff" points="695.13,-184.45 684.74,-186.52 694.16,-191.38 695.13,-184.45"/>
</a>
</g>
</g>
<!-- Node16 -->
<g id="Node000016" class="node">
<title>Node16</title>
<g id="a_Node000016"><a xlink:title=" ">
<polygon fill="#e0e0e0" stroke="#999999" points="783.75,-188 701,-188 701,-168 783.75,-168 783.75,-188"/>
<text text-anchor="middle" x="742.38" y="-174.5" font-family="Helvetica,sans-Serif" font-size="10.00">unordered_map</text>
</a>
</g>
</g>
<!-- Node2&#45;&gt;Node16 -->
<g id="edge15_Node000002_Node000016" class="edge">
<title>Node2&#45;&gt;Node16</title>
<g id="a_edge15_Node000002_Node000016"><a xlink:title=" ">
<path fill="none" stroke="#63b8ff" d="M1871.84,-233.33C1727.08,-234.11 1222.08,-233.28 795.39,-188.04"/>
<polygon fill="#63b8ff" stroke="#63b8ff" points="795.88,-184.57 785.56,-186.99 795.13,-191.53 795.88,-184.57"/>
</a>
</g>
</g>
<!-- Node17 -->
<g id="Node000017" class="node">
<title>Node17</title>
<g id="a_Node000017"><a xlink:title=" ">
<polygon fill="#e0e0e0" stroke="#999999" points="906.62,-188 802.12,-188 802.12,-168 906.62,-168 906.62,-188"/>
<text text-anchor="middle" x="854.38" y="-174.5" font-family="Helvetica,sans-Serif" font-size="10.00">assimp/Importer.hpp</text>
</a>
</g>
</g>
<!-- Node2&#45;&gt;Node17 -->
<g id="edge16_Node000002_Node000017" class="edge">
<title>Node2&#45;&gt;Node17</title>
<g id="a_edge16_Node000002_Node000017"><a xlink:title=" ">
<path fill="none" stroke="#63b8ff" d="M1871.91,-232.64C1737.68,-231.15 1294.75,-223.74 918.3,-188.18"/>
<polygon fill="#63b8ff" stroke="#63b8ff" points="918.7,-184.7 908.41,-187.24 918.04,-191.67 918.7,-184.7"/>
</a>
</g>
</g>
<!-- Node18 -->
<g id="Node000018" class="node">
<title>Node18</title>
<g id="a_Node000018"><a xlink:title=" ">
<polygon fill="#e0e0e0" stroke="#999999" points="1009.88,-188 924.88,-188 924.88,-168 1009.88,-168 1009.88,-188"/>
<text text-anchor="middle" x="967.38" y="-174.5" font-family="Helvetica,sans-Serif" font-size="10.00">assimp/scene.h</text>
</a>
</g>
</g>
<!-- Node2&#45;&gt;Node18 -->
<g id="edge17_Node000002_Node000018" class="edge">
<title>Node2&#45;&gt;Node18</title>
<g id="a_edge17_Node000002_Node000018"><a xlink:title=" ">
<path fill="none" stroke="#63b8ff" d="M1871.74,-232.7C1746.58,-231.41 1355.74,-224.61 1021.53,-188.08"/>
<polygon fill="#63b8ff" stroke="#63b8ff" points="1021.99,-184.61 1011.67,-186.99 1021.22,-191.57 1021.99,-184.61"/>
</a>
</g>
</g>
<!-- Node19 -->
<g id="Node000019" class="node">
<title>Node19</title>
<g id="a_Node000019"><a xlink:title=" ">
<polygon fill="#e0e0e0" stroke="#999999" points="1140.38,-188 1028.38,-188 1028.38,-168 1140.38,-168 1140.38,-188"/>
<text text-anchor="middle" x="1084.38" y="-174.5" font-family="Helvetica,sans-Serif" font-size="10.00">assimp/postprocess.h</text>
</a>
</g>
</g>
<!-- Node2&#45;&gt;Node19 -->
<g id="edge18_Node000002_Node000019" class="edge">
<title>Node2&#45;&gt;Node19</title>
<g id="a_edge18_Node000002_Node000019"><a xlink:title=" ">
<path fill="none" stroke="#63b8ff" d="M1871.76,-231.73C1759.18,-227.97 1433.45,-215.47 1151.97,-188.18"/>
<polygon fill="#63b8ff" stroke="#63b8ff" points="1152.51,-184.72 1142.22,-187.22 1151.83,-191.68 1152.51,-184.72"/>
</a>
</g>
</g>
<!-- Node20 -->
<g id="Node000020" class="node">
<title>Node20</title>
<g id="a_Node000020"><a xlink:title=" ">
<polygon fill="#e0e0e0" stroke="#999999" points="1303.88,-188 1158.88,-188 1158.88,-168 1303.88,-168 1303.88,-188"/>
<text text-anchor="middle" x="1231.38" y="-174.5" font-family="Helvetica,sans-Serif" font-size="10.00">directxtk\WICTextureLoader.h</text>
</a>
</g>
</g>
<!-- Node2&#45;&gt;Node20 -->
<g id="edge19_Node000002_Node000020" class="edge">
<title>Node2&#45;&gt;Node20</title>
<g id="a_edge19_Node000002_Node000020"><a xlink:title=" ">
<path fill="none" stroke="#63b8ff" d="M1871.66,-230.43C1776.47,-224.3 1531.7,-207.96 1315.49,-188.16"/>
<polygon fill="#63b8ff" stroke="#63b8ff" points="1316.03,-184.7 1305.75,-187.27 1315.38,-191.67 1316.03,-184.7"/>
</a>
</g>
</g>
<!-- Node21 -->
<g id="Node000021" class="node">
<title>Node21</title>
<g id="a_Node000021"><a xlink:title=" ">
<polygon fill="#e0e0e0" stroke="#999999" points="1386.75,-188 1322,-188 1322,-168 1386.75,-168 1386.75,-188"/>
<text text-anchor="middle" x="1354.38" y="-174.5" font-family="Helvetica,sans-Serif" font-size="10.00">wincodec.h</text>
</a>
</g>
</g>
<!-- Node2&#45;&gt;Node21 -->
<g id="edge20_Node000002_Node000021" class="edge">
<title>Node2&#45;&gt;Node21</title>
<g id="a_edge20_Node000002_Node000021"><a xlink:title=" ">
<path fill="none" stroke="#63b8ff" d="M1871.94,-231.26C1786.3,-227.2 1580.19,-215.4 1398.11,-188.24"/>
<polygon fill="#63b8ff" stroke="#63b8ff" points="1398.89,-184.82 1388.47,-186.78 1397.84,-191.74 1398.89,-184.82"/>
</a>
</g>
</g>
<!-- Node22 -->
<g id="Node000022" class="node">
<title>Node22</title>
<g id="a_Node000022"><a xlink:title=" ">
<polygon fill="#e0e0e0" stroke="#999999" points="1462.38,-188 1404.38,-188 1404.38,-168 1462.38,-168 1462.38,-188"/>
<text text-anchor="middle" x="1433.38" y="-174.5" font-family="Helvetica,sans-Serif" font-size="10.00">lodepng.h</text>
</a>
</g>
</g>
<!-- Node2&#45;&gt;Node22 -->
<g id="edge21_Node000002_Node000022" class="edge">
<title>Node2&#45;&gt;Node22</title>
<g id="a_edge21_Node000002_Node000022"><a xlink:title=" ">
<path fill="none" stroke="#63b8ff" d="M1871.7,-230.64C1795.49,-225.82 1625.85,-213.28 1473.68,-188.19"/>
<polygon fill="#63b8ff" stroke="#63b8ff" points="1474.69,-184.81 1464.25,-186.61 1473.53,-191.71 1474.69,-184.81"/>
</a>
</g>
</g>
<!-- Node23 -->
<g id="Node000023" class="node">
<title>Node23</title>
<g id="a_Node000023"><a xlink:title=" ">
<polygon fill="#e0e0e0" stroke="#999999" points="1530.62,-188 1480.12,-188 1480.12,-168 1530.62,-168 1530.62,-188"/>
<text text-anchor="middle" x="1505.38" y="-174.5" font-family="Helvetica,sans-Serif" font-size="10.00">d3d11.h</text>
</a>
</g>
</g>
<!-- Node2&#45;&gt;Node23 -->
<g id="edge22_Node000002_Node000023" class="edge">
<title>Node2&#45;&gt;Node23</title>
<g id="a_edge22_Node000002_Node000023"><a xlink:title=" ">
<path fill="none" stroke="#63b8ff" d="M1871.65,-229.84C1804.88,-224.27 1667.82,-211.24 1541.88,-188.03"/>
<polygon fill="#63b8ff" stroke="#63b8ff" points="1542.86,-184.65 1532.39,-186.26 1541.58,-191.54 1542.86,-184.65"/>
</a>
</g>
</g>
<!-- Node24 -->
<g id="Node000024" class="node">
<title>Node24</title>
<g id="a_Node000024"><a xlink:title=" ">
<polygon fill="#e0e0e0" stroke="#999999" points="1625.75,-188 1549,-188 1549,-168 1625.75,-168 1625.75,-188"/>
<text text-anchor="middle" x="1587.38" y="-174.5" font-family="Helvetica,sans-Serif" font-size="10.00">DirectXMath.h</text>
</a>
</g>
</g>
<!-- Node2&#45;&gt;Node24 -->
<g id="edge23_Node000002_Node000024" class="edge">
<title>Node2&#45;&gt;Node24</title>
<g id="a_edge23_Node000002_Node000024"><a xlink:title=" ">
<path fill="none" stroke="#63b8ff" d="M1871.8,-226.81C1819.77,-218.78 1726.49,-204.12 1637.23,-188.47"/>
<polygon fill="#63b8ff" stroke="#63b8ff" points="1638.03,-185.05 1627.58,-186.77 1636.82,-191.95 1638.03,-185.05"/>
</a>
</g>
</g>
<!-- Node25 -->
<g id="Node000025" class="node">
<title>Node25</title>
<g id="a_Node000025"><a xlink:title=" ">
<polygon fill="#e0e0e0" stroke="#999999" points="1723.25,-188 1643.5,-188 1643.5,-168 1723.25,-168 1723.25,-188"/>
<text text-anchor="middle" x="1683.38" y="-174.5" font-family="Helvetica,sans-Serif" font-size="10.00">D3Dcompiler.h</text>
</a>
</g>
</g>
<!-- Node2&#45;&gt;Node25 -->
<g id="edge24_Node000002_Node000025" class="edge">
<title>Node2&#45;&gt;Node25</title>
<g id="a_edge24_Node000002_Node000025"><a xlink:title=" ">
<path fill="none" stroke="#63b8ff" d="M1872.22,-223.53C1833.92,-214.5 1776.05,-200.85 1734.48,-191.05"/>
<polygon fill="#63b8ff" stroke="#63b8ff" points="1735.49,-187.69 1724.95,-188.8 1733.88,-194.51 1735.49,-187.69"/>
</a>
</g>
</g>
<!-- Node26 -->
<g id="Node000026" class="node">
<title>Node26</title>
<g id="a_Node000026"><a xlink:title=" ">
<polygon fill="#e0e0e0" stroke="#999999" points="1797.25,-188 1741.5,-188 1741.5,-168 1797.25,-168 1797.25,-188"/>
<text text-anchor="middle" x="1769.38" y="-174.5" font-family="Helvetica,sans-Serif" font-size="10.00">d2d1_2.h</text>
</a>
</g>
</g>
<!-- Node2&#45;&gt;Node26 -->
<g id="edge25_Node000002_Node000026" class="edge">
<title>Node2&#45;&gt;Node26</title>
<g id="a_edge25_Node000002_Node000026"><a xlink:title=" ">
<path fill="none" stroke="#63b8ff" d="M1887.47,-223.59C1864.64,-214.97 1830.59,-202.12 1804.91,-192.42"/>
<polygon fill="#63b8ff" stroke="#63b8ff" points="1806.49,-189.27 1795.89,-189.01 1804.01,-195.82 1806.49,-189.27"/>
</a>
</g>
</g>
<!-- Node27 -->
<g id="Node000027" class="node">
<title>Node27</title>
<g id="a_Node000027"><a xlink:title=" ">
<polygon fill="#e0e0e0" stroke="#999999" points="1871.25,-188 1815.5,-188 1815.5,-168 1871.25,-168 1871.25,-188"/>
<text text-anchor="middle" x="1843.38" y="-174.5" font-family="Helvetica,sans-Serif" font-size="10.00">d2d1_1.h</text>
</a>
</g>
</g>
<!-- Node2&#45;&gt;Node27 -->
<g id="edge26_Node000002_Node000027" class="edge">
<title>Node2&#45;&gt;Node27</title>
<g id="a_edge26_Node000002_Node000027"><a xlink:title=" ">
<path fill="none" stroke="#63b8ff" d="M1900.36,-223.59C1890.36,-215.77 1875.91,-204.46 1864.07,-195.19"/>
<polygon fill="#63b8ff" stroke="#63b8ff" points="1866.48,-192.64 1856.45,-189.23 1862.17,-198.15 1866.48,-192.64"/>
</a>
</g>
</g>
<!-- Node28 -->
<g id="Node000028" class="node">
<title>Node28</title>
<g id="a_Node000028"><a xlink:title=" ">
<polygon fill="#e0e0e0" stroke="#999999" points="1935,-188 1889.75,-188 1889.75,-168 1935,-168 1935,-188"/>
<text text-anchor="middle" x="1912.38" y="-174.5" font-family="Helvetica,sans-Serif" font-size="10.00">d2d1.h</text>
</a>
</g>
</g>
<!-- Node2&#45;&gt;Node28 -->
<g id="edge27_Node000002_Node000028" class="edge">
<title>Node2&#45;&gt;Node28</title>
<g id="a_edge27_Node000002_Node000028"><a xlink:title=" ">
<path fill="none" stroke="#63b8ff" d="M1912.38,-223.59C1912.38,-217.01 1912.38,-207.96 1912.38,-199.73"/>
<polygon fill="#63b8ff" stroke="#63b8ff" points="1915.88,-199.81 1912.38,-189.81 1908.88,-199.81 1915.88,-199.81"/>
</a>
</g>
</g>
<!-- Node29 -->
<g id="Node000029" class="node">
<title>Node29</title>
<g id="a_Node000029"><a xlink:title=" ">
<polygon fill="#e0e0e0" stroke="#999999" points="2003.25,-188 1953.5,-188 1953.5,-168 2003.25,-168 2003.25,-188"/>
<text text-anchor="middle" x="1978.38" y="-174.5" font-family="Helvetica,sans-Serif" font-size="10.00">dwrite.h</text>
</a>
</g>
</g>
<!-- Node2&#45;&gt;Node29 -->
<g id="edge28_Node000002_Node000029" class="edge">
<title>Node2&#45;&gt;Node29</title>
<g id="a_edge28_Node000002_Node000029"><a xlink:title=" ">
<path fill="none" stroke="#63b8ff" d="M1923.87,-223.59C1933.34,-215.85 1946.98,-204.69 1958.25,-195.47"/>
<polygon fill="#63b8ff" stroke="#63b8ff" points="1960.32,-198.3 1965.84,-189.26 1955.88,-192.88 1960.32,-198.3"/>
</a>
</g>
</g>
<!-- Node2&#45;&gt;Node30 -->
<g id="edge30_Node000002_Node000030" class="edge">
<title>Node2&#45;&gt;Node30</title>
<g id="a_edge30_Node000002_Node000030"><a xlink:title=" ">
<path fill="none" stroke="#63b8ff" d="M1952.91,-231C2049.48,-226.23 2299.98,-212.75 2508.38,-188 2510.38,-187.76 2512.42,-187.5 2514.48,-187.23"/>
<polygon fill="#63b8ff" stroke="#63b8ff" points="2514.77,-190.72 2524.17,-185.85 2513.78,-183.79 2514.77,-190.72"/>
</a>
</g>
</g>
<!-- Node31 -->
<g id="Node000031" class="node">
<title>Node31</title>
<g id="a_Node000031"><a xlink:href="_camera_8h.html" target="_top" xlink:title=" ">
<polygon fill="white" stroke="#666666" points="2257.38,-132 2199.38,-132 2199.38,-112 2257.38,-112 2257.38,-132"/>
<text text-anchor="middle" x="2228.38" y="-118.5" font-family="Helvetica,sans-Serif" font-size="10.00">Camera.h</text>
</a>
</g>
</g>
<!-- Node2&#45;&gt;Node31 -->
<g id="edge52_Node000002_Node000031" class="edge">
<title>Node2&#45;&gt;Node31</title>
<g id="a_edge52_Node000002_Node000031"><a xlink:title=" ">
<path fill="none" stroke="#63b8ff" d="M1952.8,-231.19C2000.32,-227.7 2080.21,-217.54 2142.38,-188 2166.77,-176.41 2189.75,-155.15 2206.12,-140.11"/>
<polygon fill="#63b8ff" stroke="#63b8ff" points="2208.34,-142.82 2213.38,-133.51 2203.63,-137.64 2208.34,-142.82"/>
</a>
</g>
</g>
<!-- Node32 -->
<g id="Node000032" class="node">
<title>Node32</title>
<g id="a_Node000032"><a xlink:href="_graphics_device_8h.html" target="_top" xlink:title=" ">
<polygon fill="white" stroke="#666666" points="2186.25,-76 2094.5,-76 2094.5,-56 2186.25,-56 2186.25,-76"/>
<text text-anchor="middle" x="2140.38" y="-62.5" font-family="Helvetica,sans-Serif" font-size="10.00">GraphicsDevice.h</text>
</a>
</g>
</g>
<!-- Node2&#45;&gt;Node32 -->
<g id="edge53_Node000002_Node000032" class="edge">
<title>Node2&#45;&gt;Node32</title>
<g id="a_edge53_Node000002_Node000032"><a xlink:title=" ">
<path fill="none" stroke="#63b8ff" d="M1952.92,-227.51C1983.33,-221.89 2024.47,-210.59 2054.38,-188 2089.67,-161.34 2113.06,-113.43 2127.07,-86.58"/>
<polygon fill="#63b8ff" stroke="#63b8ff" points="2130.13,-88.29 2131.8,-77.83 2123.97,-84.97 2130.13,-88.29"/>
</a>
</g>
</g>
<!-- Node33 -->
<g id="Node000033" class="node">
<title>Node33</title>
<g id="a_Node000033"><a xlink:href="_mesh_8h.html" target="_top" xlink:title=" ">
<polygon fill="white" stroke="#666666" points="2181.5,-132 2133.25,-132 2133.25,-112 2181.5,-112 2181.5,-132"/>
<text text-anchor="middle" x="2157.38" y="-118.5" font-family="Helvetica,sans-Serif" font-size="10.00">Mesh.h</text>
</a>
</g>
</g>
<!-- Node2&#45;&gt;Node33 -->
<g id="edge55_Node000002_Node000033" class="edge">
<title>Node2&#45;&gt;Node33</title>
<g id="a_edge55_Node000002_Node000033"><a xlink:title=" ">
<path fill="none" stroke="#63b8ff" d="M1953.01,-233.25C1995.95,-231.22 2063.5,-222.03 2110.38,-188 2125.89,-176.74 2136.09,-157.06 2143.68,-142.29"/>
<polygon fill="#63b8ff" stroke="#63b8ff" points="2146.73,-144 2148.3,-133.52 2140.54,-140.73 2146.73,-144"/>
</a>
</g>
</g>
<!-- Node34 -->
<g id="Node000034" class="node">
<title>Node34</title>
<g id="a_Node000034"><a xlink:href="_render_state_8h.html" target="_top" xlink:title=" ">
<polygon fill="white" stroke="#666666" points="2315.5,-20 2237.25,-20 2237.25,0 2315.5,0 2315.5,-20"/>
<text text-anchor="middle" x="2276.38" y="-6.5" font-family="Helvetica,sans-Serif" font-size="10.00">RenderState.h</text>
</a>
</g>
</g>
<!-- Node2&#45;&gt;Node34 -->
<g id="edge57_Node000002_Node000034" class="edge">
<title>Node2&#45;&gt;Node34</title>
<g id="a_edge57_Node000002_Node000034"><a xlink:title=" ">
<path fill="none" stroke="#63b8ff" d="M1939.25,-223.54C1958.88,-216.46 1984.89,-205.02 2003.38,-188 2052.69,-142.59 2022.94,-96.49 2076.38,-56 2119.24,-23.51 2181.89,-13.98 2225.72,-11.45"/>
<polygon fill="#63b8ff" stroke="#63b8ff" points="2225.65,-14.95 2235.48,-10.99 2225.33,-7.96 2225.65,-14.95"/>
</a>
</g>
</g>
<!-- Node35 -->
<g id="Node000035" class="node">
<title>Node35</title>
<g id="a_Node000035"><a xlink:href="_shader_program_8h.html" target="_top" xlink:title=" ">
<polygon fill="white" stroke="#666666" points="2757.25,-20 2665.5,-20 2665.5,0 2757.25,0 2757.25,-20"/>
<text text-anchor="middle" x="2711.38" y="-6.5" font-family="Helvetica,sans-Serif" font-size="10.00">ShaderProgram.h</text>
</a>
</g>
</g>
<!-- Node2&#45;&gt;Node35 -->
<g id="edge58_Node000002_Node000035" class="edge">
<title>Node2&#45;&gt;Node35</title>
<g id="a_edge58_Node000002_Node000035"><a xlink:title=" ">
<path fill="none" stroke="#63b8ff" d="M1952.94,-232.86C2105.21,-232.05 2636.4,-226.44 2701.38,-188 2733.38,-169.06 2742.39,-148.7 2736.38,-112 2731.64,-83.12 2719.78,-51.37 2713.53,-31.32"/>
<polygon fill="#63b8ff" stroke="#63b8ff" points="2716.96,-30.62 2710.88,-21.94 2710.23,-32.51 2716.96,-30.62"/>
</a>
</g>
</g>
<!-- Node37 -->
<g id="Node000037" class="node">
<title>Node37</title>
<g id="a_Node000037"><a xlink:href="_material_8h.html" target="_top" xlink:title=" ">
<polygon fill="white" stroke="#666666" points="2678.75,-76 2620,-76 2620,-56 2678.75,-56 2678.75,-76"/>
<text text-anchor="middle" x="2649.38" y="-62.5" font-family="Helvetica,sans-Serif" font-size="10.00">Material.h</text>
</a>
</g>
</g>
<!-- Node2&#45;&gt;Node37 -->
<g id="edge54_Node000002_Node000037" class="edge">
<title>Node2&#45;&gt;Node37</title>
<g id="a_edge54_Node000002_Node000037"><a xlink:title=" ">
<path fill="none" stroke="#63b8ff" d="M1953.01,-233.32C2095.87,-233.98 2568.3,-232.53 2618.38,-188 2646.47,-163.01 2646.32,-115.14 2646.42,-87.7"/>
<polygon fill="#63b8ff" stroke="#63b8ff" points="2649.92,-87.93 2646.58,-77.88 2642.92,-87.82 2649.92,-87.93"/>
</a>
</g>
</g>
<!-- Node38 -->
<g id="Node000038" class="node">
<title>Node38</title>
<g id="a_Node000038"><a xlink:href="_model_8h.html" target="_top" xlink:title=" ">
<polygon fill="white" stroke="#666666" points="2736.62,-132 2686.12,-132 2686.12,-112 2736.62,-112 2736.62,-132"/>
<text text-anchor="middle" x="2711.38" y="-118.5" font-family="Helvetica,sans-Serif" font-size="10.00">Model.h</text>
</a>
</g>
</g>
<!-- Node2&#45;&gt;Node38 -->
<g id="edge56_Node000002_Node000038" class="edge">
<title>Node2&#45;&gt;Node38</title>
<g id="a_edge56_Node000002_Node000038"><a xlink:title=" ">
<path fill="none" stroke="#63b8ff" d="M1953.08,-232.94C2101.74,-232.39 2608.99,-227.55 2669.38,-188 2685.07,-177.72 2693.65,-157.56 2699.84,-142.4"/>
<polygon fill="#63b8ff" stroke="#63b8ff" points="2702.97,-144 2703.61,-133.42 2696.51,-141.29 2702.97,-144"/>
</a>
</g>
</g>
<!-- Node30&#45;&gt;Node2 -->
<g id="edge31_Node000030_Node000002" class="edge">
<title>Node30&#45;&gt;Node2</title>
<g id="a_edge31_Node000030_Node000002"><a xlink:title=" ">
<path fill="none" stroke="#63b8ff" d="M2525.75,-188.07C2318.7,-212.63 2070.31,-226.08 1964.28,-230.91"/>
<polygon fill="#63b8ff" stroke="#63b8ff" points="1964.31,-227.41 1954.48,-231.35 1964.63,-234.4 1964.31,-227.41"/>
</a>
</g>
</g>
<!-- Node30&#45;&gt;Node31 -->
<g id="edge32_Node000030_Node000031" class="edge">
<title>Node30&#45;&gt;Node31</title>
<g id="a_edge32_Node000030_Node000031"><a xlink:title=" ">
<path fill="none" stroke="#63b8ff" d="M2525.87,-169.36C2522.99,-168.9 2520.15,-168.44 2517.38,-168 2428.66,-153.84 2324.54,-137.76 2268.68,-129.17"/>
<polygon fill="#63b8ff" stroke="#63b8ff" points="2269.42,-125.75 2259.01,-127.69 2268.36,-132.67 2269.42,-125.75"/>
</a>
</g>
</g>
<!-- Node30&#45;&gt;Node32 -->
<g id="edge34_Node000030_Node000032" class="edge">
<title>Node30&#45;&gt;Node32</title>
<g id="a_edge34_Node000030_Node000032"><a xlink:title=" ">
<path fill="none" stroke="#63b8ff" d="M2553.68,-167.52C2524.91,-153.33 2467.72,-126.67 2416.38,-112 2342.35,-90.86 2254.13,-78.64 2197.71,-72.41"/>
<polygon fill="#63b8ff" stroke="#63b8ff" points="2198.33,-68.95 2188.02,-71.36 2197.58,-75.91 2198.33,-68.95"/>
</a>
</g>
</g>
<!-- Node30&#45;&gt;Node33 -->
<g id="edge36_Node000030_Node000033" class="edge">
<title>Node30&#45;&gt;Node33</title>
<g id="a_edge36_Node000030_Node000033"><a xlink:title=" ">
<path fill="none" stroke="#63b8ff" d="M2525.89,-169.22C2523.01,-168.79 2520.16,-168.38 2517.38,-168 2376.05,-148.67 2335.95,-158.79 2192.73,-132.18"/>
<polygon fill="#63b8ff" stroke="#63b8ff" points="2193.75,-128.81 2183.27,-130.4 2192.45,-135.69 2193.75,-128.81"/>
</a>
</g>
</g>
<!-- Node30&#45;&gt;Node34 -->
<g id="edge39_Node000030_Node000034" class="edge">
<title>Node30&#45;&gt;Node34</title>
<g id="a_edge39_Node000030_Node000034"><a xlink:title=" ">
<path fill="none" stroke="#63b8ff" d="M2556.33,-167.65C2534.47,-154.94 2494.08,-131.55 2459.38,-112 2404.13,-80.87 2339.03,-45.18 2303.28,-25.66"/>
<polygon fill="#63b8ff" stroke="#63b8ff" points="2305.37,-22.81 2294.92,-21.09 2302.02,-28.95 2305.37,-22.81"/>
</a>
</g>
</g>
<!-- Node30&#45;&gt;Node35 -->
<g id="edge41_Node000030_Node000035" class="edge">
<title>Node30&#45;&gt;Node35</title>
<g id="a_edge41_Node000030_Node000035"><a xlink:title=" ">
<path fill="none" stroke="#63b8ff" d="M2572.88,-167.55C2574.55,-145.35 2581.65,-89.23 2611.38,-56 2624.58,-41.24 2643.56,-31.05 2661.44,-24.15"/>
<polygon fill="#63b8ff" stroke="#63b8ff" points="2662.41,-27.52 2670.66,-20.87 2660.06,-20.92 2662.41,-27.52"/>
</a>
</g>
</g>
<!-- Node36 -->
<g id="Node000036" class="node">
<title>Node36</title>
<g id="a_Node000036"><a xlink:href="_shader_manager_8h.html" target="_top" xlink:title=" ">
<polygon fill="white" stroke="#666666" points="2407.62,-132 2315.12,-132 2315.12,-112 2407.62,-112 2407.62,-132"/>
<text text-anchor="middle" x="2361.38" y="-118.5" font-family="Helvetica,sans-Serif" font-size="10.00">ShaderManager.h</text>
</a>
</g>
</g>
<!-- Node30&#45;&gt;Node36 -->
<g id="edge43_Node000030_Node000036" class="edge">
<title>Node30&#45;&gt;Node36</title>
<g id="a_edge43_Node000030_Node000036"><a xlink:title=" ">
<path fill="none" stroke="#63b8ff" d="M2535.62,-167.59C2500.59,-158.63 2447.64,-145.08 2409.31,-135.27"/>
<polygon fill="#63b8ff" stroke="#63b8ff" points="2410.44,-131.94 2399.88,-132.85 2408.7,-138.72 2410.44,-131.94"/>
</a>
</g>
</g>
<!-- Node30&#45;&gt;Node37 -->
<g id="edge45_Node000030_Node000037" class="edge">
<title>Node30&#45;&gt;Node37</title>
<g id="a_edge45_Node000030_Node000037"><a xlink:title=" ">
<path fill="none" stroke="#63b8ff" d="M2578.94,-167.62C2591.61,-149.52 2619.66,-109.45 2636.28,-85.7"/>
<polygon fill="#63b8ff" stroke="#63b8ff" points="2639.09,-87.79 2641.96,-77.59 2633.36,-83.78 2639.09,-87.79"/>
</a>
</g>
</g>
<!-- Node30&#45;&gt;Node38 -->
<g id="edge49_Node000030_Node000038" class="edge">
<title>Node30&#45;&gt;Node38</title>
<g id="a_edge49_Node000030_Node000038"><a xlink:title=" ">
<path fill="none" stroke="#63b8ff" d="M2596.59,-167.59C2618.68,-159.01 2651.57,-146.23 2676.5,-136.55"/>
<polygon fill="#63b8ff" stroke="#63b8ff" points="2677.51,-139.91 2685.56,-133.03 2674.97,-133.39 2677.51,-139.91"/>
</a>
</g>
</g>
<!-- Node31&#45;&gt;Node2 -->
<g id="edge33_Node000031_Node000002" class="edge">
<title>Node31&#45;&gt;Node2</title>
<g id="a_edge33_Node000031_Node000002"><a xlink:title=" ">
<path fill="none" stroke="#63b8ff" d="M2226.09,-132.25C2216.51,-146.65 2189.45,-174.18 2160.38,-188 2097.44,-217.9 2016.34,-227.95 1964.22,-231.32"/>
<polygon fill="#63b8ff" stroke="#63b8ff" points="1964.21,-227.81 1954.43,-231.89 1964.61,-234.8 1964.21,-227.81"/>
</a>
</g>
</g>
<!-- Node32&#45;&gt;Node2 -->
<g id="edge35_Node000032_Node000002" class="edge">
<title>Node32&#45;&gt;Node2</title>
<g id="a_edge35_Node000032_Node000002"><a xlink:title=" ">
<path fill="none" stroke="#63b8ff" d="M2141.54,-76.49C2137.49,-99.3 2112.71,-157.54 2072.38,-188 2041.19,-211.55 1997.79,-222.83 1963.96,-228.2"/>
<polygon fill="#63b8ff" stroke="#63b8ff" points="1963.77,-224.69 1954.38,-229.59 1964.77,-231.62 1963.77,-224.69"/>
</a>
</g>
</g>
<!-- Node33&#45;&gt;Node2 -->
<g id="edge37_Node000033_Node000002" class="edge">
<title>Node33&#45;&gt;Node2</title>
<g id="a_edge37_Node000033_Node000002"><a xlink:title=" ">
<path fill="none" stroke="#63b8ff" d="M2160.33,-132.18C2158.95,-146.47 2147.84,-173.87 2128.38,-188 2080.67,-222.63 2011.56,-231.54 1964.33,-233.35"/>
<polygon fill="#63b8ff" stroke="#63b8ff" points="1964.53,-229.85 1954.64,-233.63 1964.73,-236.84 1964.53,-229.85"/>
</a>
</g>
</g>
<!-- Node33&#45;&gt;Node32 -->
<g id="edge38_Node000033_Node000032" class="edge">
<title>Node33&#45;&gt;Node32</title>
<g id="a_edge38_Node000033_Node000032"><a xlink:title=" ">
<path fill="none" stroke="#63b8ff" d="M2154.41,-111.59C2152.29,-104.86 2149.36,-95.53 2146.72,-87.15"/>
<polygon fill="#63b8ff" stroke="#63b8ff" points="2150.1,-86.23 2143.76,-77.74 2143.42,-88.33 2150.1,-86.23"/>
</a>
</g>
</g>
<!-- Node34&#45;&gt;Node2 -->
<g id="edge40_Node000034_Node000002" class="edge">
<title>Node34&#45;&gt;Node2</title>
<g id="a_edge40_Node000034_Node000002"><a xlink:title=" ">
<path fill="none" stroke="#63b8ff" d="M2236.91,-11.62C2197.21,-14.4 2136.32,-24.21 2094.38,-56 2040.94,-96.49 2070.69,-142.59 2021.38,-188 2005.31,-202.8 1983.55,-213.37 1963.62,-220.53"/>
<polygon fill="#63b8ff" stroke="#63b8ff" points="1962.59,-217.19 1954.22,-223.69 1964.82,-223.83 1962.59,-217.19"/>
</a>
</g>
</g>
<!-- Node35&#45;&gt;Node2 -->
<g id="edge42_Node000035_Node000002" class="edge">
<title>Node35&#45;&gt;Node2</title>
<g id="a_edge42_Node000035_Node000002"><a xlink:title=" ">
<path fill="none" stroke="#63b8ff" d="M2721,-20.48C2732.55,-38.07 2748.66,-77.13 2754.38,-112 2760.39,-148.7 2751.38,-169.06 2719.38,-188 2654.98,-226.1 2132.65,-231.94 1964.34,-232.84"/>
<polygon fill="#63b8ff" stroke="#63b8ff" points="1964.58,-229.34 1954.59,-232.89 1964.61,-236.34 1964.58,-229.34"/>
</a>
</g>
</g>
<!-- Node36&#45;&gt;Node2 -->
<g id="edge44_Node000036_Node000002" class="edge">
<title>Node36&#45;&gt;Node2</title>
<g id="a_edge44_Node000036_Node000002"><a xlink:title=" ">
<path fill="none" stroke="#63b8ff" d="M2360.44,-132.34C2358.45,-146.85 2352.39,-174.54 2334.38,-188 2277.03,-230.84 2063.62,-234.57 1964.1,-233.88"/>
<polygon fill="#63b8ff" stroke="#63b8ff" points="1964.37,-230.39 1954.34,-233.8 1964.31,-237.39 1964.37,-230.39"/>
</a>
</g>
</g>
<!-- Node37&#45;&gt;Node2 -->
<g id="edge46_Node000037_Node000002" class="edge">
<title>Node37&#45;&gt;Node2</title>
<g id="a_edge46_Node000037_Node000002"><a xlink:title=" ">
<path fill="none" stroke="#63b8ff" d="M2655.5,-76.37C2663.57,-99.4 2668.92,-159.05 2636.38,-188 2586.73,-232.15 2121.93,-233.95 1964.29,-233.34"/>
<polygon fill="#63b8ff" stroke="#63b8ff" points="1964.57,-229.84 1954.56,-233.29 1964.54,-236.84 1964.57,-229.84"/>
</a>
</g>
</g>
<!-- Node37&#45;&gt;Node34 -->
<g id="edge48_Node000037_Node000034" class="edge">
<title>Node37&#45;&gt;Node34</title>
<g id="a_edge48_Node000037_Node000034"><a xlink:title=" ">
<path fill="none" stroke="#63b8ff" d="M2619.79,-60.72C2556.24,-51.52 2406.02,-29.77 2326.99,-18.33"/>
<polygon fill="#63b8ff" stroke="#63b8ff" points="2327.76,-14.9 2317.36,-16.93 2326.76,-21.83 2327.76,-14.9"/>
</a>
</g>
</g>
<!-- Node37&#45;&gt;Node35 -->
<g id="edge47_Node000037_Node000035" class="edge">
<title>Node37&#45;&gt;Node35</title>
<g id="a_edge47_Node000037_Node000035"><a xlink:title=" ">
<path fill="none" stroke="#63b8ff" d="M2660.17,-55.59C2668.98,-47.93 2681.63,-36.91 2692.15,-27.75"/>
<polygon fill="#63b8ff" stroke="#63b8ff" points="2694.32,-30.5 2699.56,-21.29 2689.72,-25.22 2694.32,-30.5"/>
</a>
</g>
</g>
<!-- Node38&#45;&gt;Node2 -->
<g id="edge50_Node000038_Node000002" class="edge">
<title>Node38&#45;&gt;Node2</title>
<g id="a_edge50_Node000038_Node000002"><a xlink:title=" ">
<path fill="none" stroke="#63b8ff" d="M2715.29,-132.03C2715.56,-146.63 2707.07,-175.1 2687.38,-188 2627.49,-227.22 2128.06,-232.3 1964.16,-232.93"/>
<polygon fill="#63b8ff" stroke="#63b8ff" points="1964.45,-229.42 1954.47,-232.96 1964.48,-236.42 1964.45,-229.42"/>
</a>
</g>
</g>
<!-- Node38&#45;&gt;Node37 -->
<g id="edge51_Node000038_Node000037" class="edge">
<title>Node38&#45;&gt;Node37</title>
<g id="a_edge51_Node000038_Node000037"><a xlink:title=" ">
<path fill="none" stroke="#63b8ff" d="M2700.58,-111.59C2691.77,-103.93 2679.12,-92.91 2668.6,-83.75"/>
<polygon fill="#63b8ff" stroke="#63b8ff" points="2671.03,-81.22 2661.19,-77.29 2666.43,-86.5 2671.03,-81.22"/>
</a>
</g>
</g>
</g>
</svg>
