<?xml version="1.0" encoding="UTF-8" standalone="no"?>
<!DOCTYPE svg PUBLIC "-//W3C//DTD SVG 1.1//EN"
 "http://www.w3.org/Graphics/SVG/1.1/DTD/svg11.dtd">
<!-- Generated by graphviz version 9.0.0 (20230911.1827)
 -->
<!-- Title: src/Win32Application.cpp Pages: 1 -->
<!--zoomable 420 -->

<svg id="main" version="1.1" xmlns="http://www.w3.org/2000/svg" xmlns:xlink="http://www.w3.org/1999/xlink" xml:space="preserve" onload="init(evt)">
<style type="text/css"><![CDATA[
.node, .edge {opacity: 0.7;}
.node.selected, .edge.selected {opacity: 1;}
.edge:hover path { stroke: red; }
.edge:hover polygon { stroke: red; fill: red; }
]]></style>

<defs>
  <circle id="rim" cx="0" cy="0" r="7"/>
  <circle id="rim2" cx="0" cy="0" r="3.5"/>
  <g id="zoomPlus">
    <use xlink:href="#rim" fill="#404040"><set attributeName="fill" to="#808080" begin="zoomplus.mouseover" end="zoomplus.mouseout"/></use>
    <path d="M-4,0h8M0,-4v8" fill="none" stroke="white" stroke-width="1.5" pointer-events="none"/>
  </g>
  <g id="zoomMin">
    <use xlink:href="#rim" fill="#404040"><set attributeName="fill" to="#808080" begin="zoomminus.mouseover" end="zoomminus.mouseout"/></use>
    <path d="M-4,0h8" fill="none" stroke="white" stroke-width="1.5" pointer-events="none"/>
  </g>
  <g id="arrowUp" transform="translate(30 24)">
    <use xlink:href="#rim"/>
    <path pointer-events="none" fill="none" stroke="white" stroke-width="1.5" d="M0,-3.0v7 M-2.5,-0.5L0,-3.0L2.5,-0.5"/>
  </g>
  <g id="arrowRight" transform="rotate(90) translate(36 -43)">
    <use xlink:href="#rim"/>
    <path pointer-events="none" fill="none" stroke="white" stroke-width="1.5" d="M0,-3.0v7 M-2.5,-0.5L0,-3.0L2.5,-0.5"/>
  </g>
  <g id="arrowDown" transform="rotate(180) translate(-30 -48)">
    <use xlink:href="#rim"/>
    <path pointer-events="none" fill="none" stroke="white" stroke-width="1.5" d="M0,-3.0v7 M-2.5,-0.5L0,-3.0L2.5,-0.5"/>
  </g>
  <g id="arrowLeft" transform="rotate(270) translate(-36 17)">
    <use xlink:href="#rim"/>
    <path pointer-events="none" fill="none" stroke="white" stroke-width="1.5" d="M0,-3.0v7 M-2.5,-0.5L0,-3.0L2.5,-0.5"/>
  </g>
  <g id="resetDef">
    <use xlink:href="#rim2" fill="#404040"><set attributeName="fill" to="#808080" begin="reset.mouseover" end="reset.mouseout"/></use>
  </g>
</defs>
<script type="application/ecmascript">
var viewWidth = 2855;
var viewHeight = 420;
var sectionId = 'dynsection-0';
</script>
<script type="application/ecmascript" xlink:href="svg.min.js"/>
<svg id="graph" class="graph">
<g id="viewport">
<title>src/Win32Application.cpp</title>
<!-- Node1 -->
<g id="Node000001" class="node">
<title>Node1</title>
<g id="a_Node000001"><a xlink:title=" ">
<polygon fill="#999999" stroke="#666666" points="2368.25,-412 2241.25,-412 2241.25,-392 2368.25,-392 2368.25,-412"/>
<text text-anchor="middle" x="2304.75" y="-398.5" font-family="Helvetica,sans-Serif" font-size="10.00">src/Win32Application.cpp</text>
</a>
</g>
</g>
<!-- Node2 -->
<g id="Node000002" class="node">
<title>Node2</title>
<g id="a_Node000002"><a xlink:href="pch_8h.html" target="_top" xlink:title=" ">
<polygon fill="white" stroke="#666666" points="2300.75,-356 2260.75,-356 2260.75,-336 2300.75,-336 2300.75,-356"/>
<text text-anchor="middle" x="2280.75" y="-342.5" font-family="Helvetica,sans-Serif" font-size="10.00">pch.h</text>
</a>
</g>
</g>
<!-- Node1&#45;&gt;Node2 -->
<g id="edge1_Node000001_Node000002" class="edge">
<title>Node1&#45;&gt;Node2</title>
<g id="a_edge1_Node000001_Node000002"><a xlink:title=" ">
<path fill="none" stroke="#63b8ff" d="M2300.57,-391.59C2297.51,-384.7 2293.24,-375.1 2289.45,-366.57"/>
<polygon fill="#63b8ff" stroke="#63b8ff" points="2292.76,-365.4 2285.5,-357.68 2286.36,-368.24 2292.76,-365.4"/>
</a>
</g>
</g>
<!-- Node31 -->
<g id="Node000031" class="node">
<title>Node31</title>
<g id="a_Node000031"><a xlink:href="_win32_application_8h.html" target="_top" xlink:title=" ">
<polygon fill="white" stroke="#666666" points="2682.75,-244 2582.75,-244 2582.75,-224 2682.75,-224 2682.75,-244"/>
<text text-anchor="middle" x="2632.75" y="-230.5" font-family="Helvetica,sans-Serif" font-size="10.00">Win32Application.h</text>
</a>
</g>
</g>
<!-- Node1&#45;&gt;Node31 -->
<g id="edge62_Node000001_Node000031" class="edge">
<title>Node1&#45;&gt;Node31</title>
<g id="a_edge62_Node000001_Node000031"><a xlink:title=" ">
<path fill="none" stroke="#63b8ff" d="M2323.32,-391.6C2378.01,-363.92 2538.71,-282.6 2604.34,-249.38"/>
<polygon fill="#63b8ff" stroke="#63b8ff" points="2605.69,-252.62 2613.03,-244.98 2602.53,-246.37 2605.69,-252.62"/>
</a>
</g>
</g>
<!-- Node3 -->
<g id="Node000003" class="node">
<title>Node3</title>
<g id="a_Node000003"><a xlink:href="_game_engine_8h.html" target="_top" xlink:title=" ">
<polygon fill="white" stroke="#666666" points="2018,-300 1937.5,-300 1937.5,-280 2018,-280 2018,-300"/>
<text text-anchor="middle" x="1977.75" y="-286.5" font-family="Helvetica,sans-Serif" font-size="10.00">GameEngine.h</text>
</a>
</g>
</g>
<!-- Node2&#45;&gt;Node3 -->
<g id="edge2_Node000002_Node000003" class="edge">
<title>Node2&#45;&gt;Node3</title>
<g id="a_edge2_Node000002_Node000003"><a xlink:title=" ">
<path fill="none" stroke="#63b8ff" d="M2260.4,-341.37C2213.68,-333.05 2097.53,-312.35 2029.55,-300.23"/>
<polygon fill="#63b8ff" stroke="#63b8ff" points="2030.21,-296.79 2019.75,-298.48 2028.98,-303.68 2030.21,-296.79"/>
</a>
</g>
</g>
<!-- Node4 -->
<g id="Node000004" class="node">
<title>Node4</title>
<g id="a_Node000004"><a xlink:title=" ">
<polygon fill="#e0e0e0" stroke="#999999" points="2334.62,-244 2254.88,-244 2254.88,-224 2334.62,-224 2334.62,-244"/>
<text text-anchor="middle" x="2294.75" y="-230.5" font-family="Helvetica,sans-Serif" font-size="10.00">SDKDDKVer.h</text>
</a>
</g>
</g>
<!-- Node3&#45;&gt;Node4 -->
<g id="edge3_Node000003_Node000004" class="edge">
<title>Node3&#45;&gt;Node4</title>
<g id="a_edge3_Node000003_Node000004"><a xlink:title=" ">
<path fill="none" stroke="#63b8ff" d="M2018.22,-282.11C2075.57,-272.34 2180.49,-254.46 2243.3,-243.76"/>
<polygon fill="#63b8ff" stroke="#63b8ff" points="2243.76,-247.24 2253.03,-242.11 2242.58,-240.34 2243.76,-247.24"/>
</a>
</g>
</g>
<!-- Node5 -->
<g id="Node000005" class="node">
<title>Node5</title>
<g id="a_Node000005"><a xlink:title=" ">
<polygon fill="#e0e0e0" stroke="#999999" points="2564.25,-244 2503.25,-244 2503.25,-224 2564.25,-224 2564.25,-244"/>
<text text-anchor="middle" x="2533.75" y="-230.5" font-family="Helvetica,sans-Serif" font-size="10.00">windows.h</text>
</a>
</g>
</g>
<!-- Node3&#45;&gt;Node5 -->
<g id="edge4_Node000003_Node000005" class="edge">
<title>Node3&#45;&gt;Node5</title>
<g id="a_edge4_Node000003_Node000005"><a xlink:title=" ">
<path fill="none" stroke="#63b8ff" d="M2018.33,-286.94C2105.04,-282.21 2314.64,-269 2488.75,-244 2489.75,-243.86 2490.76,-243.7 2491.78,-243.55"/>
<polygon fill="#63b8ff" stroke="#63b8ff" points="2492.09,-247.05 2501.35,-241.9 2490.9,-240.15 2492.09,-247.05"/>
</a>
</g>
</g>
<!-- Node6 -->
<g id="Node000006" class="node">
<title>Node6</title>
<g id="a_Node000006"><a xlink:title=" ">
<polygon fill="#e0e0e0" stroke="#999999" points="47.5,-244 0,-244 0,-224 47.5,-224 47.5,-244"/>
<text text-anchor="middle" x="23.75" y="-230.5" font-family="Helvetica,sans-Serif" font-size="10.00">stdlib.h</text>
</a>
</g>
</g>
<!-- Node3&#45;&gt;Node6 -->
<g id="edge5_Node000003_Node000006" class="edge">
<title>Node3&#45;&gt;Node6</title>
<g id="a_edge5_Node000003_Node000006"><a xlink:title=" ">
<path fill="none" stroke="#63b8ff" d="M1937.01,-288.64C1680.93,-286.3 297.09,-272.47 59.12,-243.78"/>
<polygon fill="#63b8ff" stroke="#63b8ff" points="59.63,-240.32 49.26,-242.47 58.71,-247.26 59.63,-240.32"/>
</a>
</g>
</g>
<!-- Node7 -->
<g id="Node000007" class="node">
<title>Node7</title>
<g id="a_Node000007"><a xlink:title=" ">
<polygon fill="#e0e0e0" stroke="#999999" points="118.12,-244 65.38,-244 65.38,-224 118.12,-224 118.12,-244"/>
<text text-anchor="middle" x="91.75" y="-230.5" font-family="Helvetica,sans-Serif" font-size="10.00">malloc.h</text>
</a>
</g>
</g>
<!-- Node3&#45;&gt;Node7 -->
<g id="edge6_Node000003_Node000007" class="edge">
<title>Node3&#45;&gt;Node7</title>
<g id="a_edge6_Node000003_Node000007"><a xlink:title=" ">
<path fill="none" stroke="#63b8ff" d="M1937.23,-289.27C1702.78,-290.62 517.18,-294.88 129.61,-244.03"/>
<polygon fill="#63b8ff" stroke="#63b8ff" points="130.26,-240.59 119.88,-242.72 129.32,-247.53 130.26,-240.59"/>
</a>
</g>
</g>
<!-- Node8 -->
<g id="Node000008" class="node">
<title>Node8</title>
<g id="a_Node000008"><a xlink:title=" ">
<polygon fill="#e0e0e0" stroke="#999999" points="195.5,-244 136,-244 136,-224 195.5,-224 195.5,-244"/>
<text text-anchor="middle" x="165.75" y="-230.5" font-family="Helvetica,sans-Serif" font-size="10.00">memory.h</text>
</a>
</g>
</g>
<!-- Node3&#45;&gt;Node8 -->
<g id="edge7_Node000003_Node000008" class="edge">
<title>Node3&#45;&gt;Node8</title>
<g id="a_edge7_Node000003_Node000008"><a xlink:title=" ">
<path fill="none" stroke="#63b8ff" d="M1937.09,-289.08C1708.37,-289.36 579.34,-288.52 207.2,-243.98"/>
<polygon fill="#63b8ff" stroke="#63b8ff" points="207.73,-240.52 197.38,-242.77 206.87,-247.47 207.73,-240.52"/>
</a>
</g>
</g>
<!-- Node9 -->
<g id="Node000009" class="node">
<title>Node9</title>
<g id="a_Node000009"><a xlink:title=" ">
<polygon fill="#e0e0e0" stroke="#999999" points="259.75,-244 213.75,-244 213.75,-224 259.75,-224 259.75,-244"/>
<text text-anchor="middle" x="236.75" y="-230.5" font-family="Helvetica,sans-Serif" font-size="10.00">tchar.h</text>
</a>
</g>
</g>
<!-- Node3&#45;&gt;Node9 -->
<g id="edge8_Node000003_Node000009" class="edge">
<title>Node3&#45;&gt;Node9</title>
<g id="a_edge8_Node000003_Node000009"><a xlink:title=" ">
<path fill="none" stroke="#63b8ff" d="M1937.28,-288.54C1699.34,-285.72 485.8,-270.27 271.37,-243.82"/>
<polygon fill="#63b8ff" stroke="#63b8ff" points="271.9,-240.36 261.52,-242.47 270.95,-247.29 271.9,-240.36"/>
</a>
</g>
</g>
<!-- Node10 -->
<g id="Node000010" class="node">
<title>Node10</title>
<g id="a_Node000010"><a xlink:title=" ">
<polygon fill="#e0e0e0" stroke="#999999" points="339.62,-244 277.88,-244 277.88,-224 339.62,-224 339.62,-244"/>
<text text-anchor="middle" x="308.75" y="-230.5" font-family="Helvetica,sans-Serif" font-size="10.00">resource.h</text>
</a>
</g>
</g>
<!-- Node3&#45;&gt;Node10 -->
<g id="edge9_Node000003_Node000010" class="edge">
<title>Node3&#45;&gt;Node10</title>
<g id="a_edge9_Node000003_Node000010"><a xlink:title=" ">
<path fill="none" stroke="#63b8ff" d="M1937.22,-288.94C1720.23,-288.49 693.27,-284.27 351.47,-244.04"/>
<polygon fill="#63b8ff" stroke="#63b8ff" points="351.94,-240.57 341.59,-242.84 351.1,-247.52 351.94,-240.57"/>
</a>
</g>
</g>
<!-- Node11 -->
<g id="Node000011" class="node">
<title>Node11</title>
<g id="a_Node000011"><a xlink:title=" ">
<polygon fill="#e0e0e0" stroke="#999999" points="403.38,-244 358.12,-244 358.12,-224 403.38,-224 403.38,-244"/>
<text text-anchor="middle" x="380.75" y="-230.5" font-family="Helvetica,sans-Serif" font-size="10.00">chrono</text>
</a>
</g>
</g>
<!-- Node3&#45;&gt;Node11 -->
<g id="edge10_Node000003_Node000011" class="edge">
<title>Node3&#45;&gt;Node11</title>
<g id="a_edge10_Node000003_Node000011"><a xlink:title=" ">
<path fill="none" stroke="#63b8ff" d="M1937.35,-289.22C1725.64,-290.19 741.84,-292.07 414.97,-244.07"/>
<polygon fill="#63b8ff" stroke="#63b8ff" points="415.54,-240.62 405.12,-242.57 414.48,-247.54 415.54,-240.62"/>
</a>
</g>
</g>
<!-- Node12 -->
<g id="Node000012" class="node">
<title>Node12</title>
<g id="a_Node000012"><a xlink:title=" ">
<polygon fill="#e0e0e0" stroke="#999999" points="462.5,-244 421,-244 421,-224 462.5,-224 462.5,-244"/>
<text text-anchor="middle" x="441.75" y="-230.5" font-family="Helvetica,sans-Serif" font-size="10.00">vector</text>
</a>
</g>
</g>
<!-- Node3&#45;&gt;Node12 -->
<g id="edge11_Node000003_Node000012" class="edge">
<title>Node3&#45;&gt;Node12</title>
<g id="a_edge11_Node000003_Node000012"><a xlink:title=" ">
<path fill="none" stroke="#63b8ff" d="M1937.18,-289.22C1730,-290.12 788.06,-291.59 473.81,-243.81"/>
<polygon fill="#63b8ff" stroke="#63b8ff" points="474.81,-240.43 464.39,-242.33 473.72,-247.34 474.81,-240.43"/>
</a>
</g>
</g>
<!-- Node13 -->
<g id="Node000013" class="node">
<title>Node13</title>
<g id="a_Node000013"><a xlink:title=" ">
<polygon fill="#e0e0e0" stroke="#999999" points="534.5,-244 481,-244 481,-224 534.5,-224 534.5,-244"/>
<text text-anchor="middle" x="507.75" y="-230.5" font-family="Helvetica,sans-Serif" font-size="10.00">iostream</text>
</a>
</g>
</g>
<!-- Node3&#45;&gt;Node13 -->
<g id="edge12_Node000003_Node000013" class="edge">
<title>Node3&#45;&gt;Node13</title>
<g id="a_edge12_Node000003_Node000013"><a xlink:title=" ">
<path fill="none" stroke="#63b8ff" d="M1937.16,-288.9C1736.28,-288.21 846.6,-283.05 546.05,-243.93"/>
<polygon fill="#63b8ff" stroke="#63b8ff" points="546.63,-240.48 536.26,-242.61 545.7,-247.42 546.63,-240.48"/>
</a>
</g>
</g>
<!-- Node14 -->
<g id="Node000014" class="node">
<title>Node14</title>
<g id="a_Node000014"><a xlink:title=" ">
<polygon fill="#e0e0e0" stroke="#999999" points="600.88,-244 552.62,-244 552.62,-224 600.88,-224 600.88,-244"/>
<text text-anchor="middle" x="576.75" y="-230.5" font-family="Helvetica,sans-Serif" font-size="10.00">fstream</text>
</a>
</g>
</g>
<!-- Node3&#45;&gt;Node14 -->
<g id="edge13_Node000003_Node000014" class="edge">
<title>Node3&#45;&gt;Node14</title>
<g id="a_edge13_Node000003_Node000014"><a xlink:title=" ">
<path fill="none" stroke="#63b8ff" d="M1937.06,-288.94C1741.71,-288.46 898.08,-284.15 612.28,-243.96"/>
<polygon fill="#63b8ff" stroke="#63b8ff" points="613.02,-240.53 602.62,-242.55 612.01,-247.46 613.02,-240.53"/>
</a>
</g>
</g>
<!-- Node15 -->
<g id="Node000015" class="node">
<title>Node15</title>
<g id="a_Node000015"><a xlink:title=" ">
<polygon fill="#e0e0e0" stroke="#999999" points="678.88,-244 618.62,-244 618.62,-224 678.88,-224 678.88,-244"/>
<text text-anchor="middle" x="648.75" y="-230.5" font-family="Helvetica,sans-Serif" font-size="10.00">filesystem</text>
</a>
</g>
</g>
<!-- Node3&#45;&gt;Node15 -->
<g id="edge14_Node000003_Node000015" class="edge">
<title>Node3&#45;&gt;Node15</title>
<g id="a_edge14_Node000003_Node000015"><a xlink:title=" ">
<path fill="none" stroke="#63b8ff" d="M1937.22,-288.63C1749.27,-286.78 960.76,-277.2 690.62,-244.08"/>
<polygon fill="#63b8ff" stroke="#63b8ff" points="691.17,-240.62 680.81,-242.83 690.28,-247.56 691.17,-240.62"/>
</a>
</g>
</g>
<!-- Node16 -->
<g id="Node000016" class="node">
<title>Node16</title>
<g id="a_Node000016"><a xlink:title=" ">
<polygon fill="#e0e0e0" stroke="#999999" points="748.38,-244 697.12,-244 697.12,-224 748.38,-224 748.38,-244"/>
<text text-anchor="middle" x="722.75" y="-230.5" font-family="Helvetica,sans-Serif" font-size="10.00">sstream</text>
</a>
</g>
</g>
<!-- Node3&#45;&gt;Node16 -->
<g id="edge15_Node000003_Node000016" class="edge">
<title>Node3&#45;&gt;Node16</title>
<g id="a_edge15_Node000003_Node000016"><a xlink:title=" ">
<path fill="none" stroke="#63b8ff" d="M1937.27,-288.67C1755.78,-287.04 1015.2,-278.45 759.69,-243.87"/>
<polygon fill="#63b8ff" stroke="#63b8ff" points="760.51,-240.45 750.12,-242.52 759.53,-247.38 760.51,-240.45"/>
</a>
</g>
</g>
<!-- Node17 -->
<g id="Node000017" class="node">
<title>Node17</title>
<g id="a_Node000017"><a xlink:title=" ">
<polygon fill="#e0e0e0" stroke="#999999" points="849.12,-244 766.38,-244 766.38,-224 849.12,-224 849.12,-244"/>
<text text-anchor="middle" x="807.75" y="-230.5" font-family="Helvetica,sans-Serif" font-size="10.00">unordered_map</text>
</a>
</g>
</g>
<!-- Node3&#45;&gt;Node17 -->
<g id="edge16_Node000003_Node000017" class="edge">
<title>Node3&#45;&gt;Node17</title>
<g id="a_edge16_Node000003_Node000017"><a xlink:title=" ">
<path fill="none" stroke="#63b8ff" d="M1937.21,-289.33C1792.46,-290.11 1287.45,-289.28 860.76,-244.04"/>
<polygon fill="#63b8ff" stroke="#63b8ff" points="861.25,-240.57 850.94,-242.99 860.51,-247.53 861.25,-240.57"/>
</a>
</g>
</g>
<!-- Node18 -->
<g id="Node000018" class="node">
<title>Node18</title>
<g id="a_Node000018"><a xlink:title=" ">
<polygon fill="#e0e0e0" stroke="#999999" points="972,-244 867.5,-244 867.5,-224 972,-224 972,-244"/>
<text text-anchor="middle" x="919.75" y="-230.5" font-family="Helvetica,sans-Serif" font-size="10.00">assimp/Importer.hpp</text>
</a>
</g>
</g>
<!-- Node3&#45;&gt;Node18 -->
<g id="edge17_Node000003_Node000018" class="edge">
<title>Node3&#45;&gt;Node18</title>
<g id="a_edge17_Node000003_Node000018"><a xlink:title=" ">
<path fill="none" stroke="#63b8ff" d="M1937.28,-288.64C1803.06,-287.15 1360.12,-279.74 983.68,-244.18"/>
<polygon fill="#63b8ff" stroke="#63b8ff" points="984.08,-240.7 973.79,-243.24 983.41,-247.67 984.08,-240.7"/>
</a>
</g>
</g>
<!-- Node19 -->
<g id="Node000019" class="node">
<title>Node19</title>
<g id="a_Node000019"><a xlink:title=" ">
<polygon fill="#e0e0e0" stroke="#999999" points="1075.25,-244 990.25,-244 990.25,-224 1075.25,-224 1075.25,-244"/>
<text text-anchor="middle" x="1032.75" y="-230.5" font-family="Helvetica,sans-Serif" font-size="10.00">assimp/scene.h</text>
</a>
</g>
</g>
<!-- Node3&#45;&gt;Node19 -->
<g id="edge18_Node000003_Node000019" class="edge">
<title>Node3&#45;&gt;Node19</title>
<g id="a_edge18_Node000003_Node000019"><a xlink:title=" ">
<path fill="none" stroke="#63b8ff" d="M1937.11,-288.7C1811.95,-287.41 1421.12,-280.61 1086.91,-244.08"/>
<polygon fill="#63b8ff" stroke="#63b8ff" points="1087.37,-240.61 1077.04,-242.99 1086.6,-247.57 1087.37,-240.61"/>
</a>
</g>
</g>
<!-- Node20 -->
<g id="Node000020" class="node">
<title>Node20</title>
<g id="a_Node000020"><a xlink:title=" ">
<polygon fill="#e0e0e0" stroke="#999999" points="1205.75,-244 1093.75,-244 1093.75,-224 1205.75,-224 1205.75,-244"/>
<text text-anchor="middle" x="1149.75" y="-230.5" font-family="Helvetica,sans-Serif" font-size="10.00">assimp/postprocess.h</text>
</a>
</g>
</g>
<!-- Node3&#45;&gt;Node20 -->
<g id="edge19_Node000003_Node000020" class="edge">
<title>Node3&#45;&gt;Node20</title>
<g id="a_edge19_Node000003_Node000020"><a xlink:title=" ">
<path fill="none" stroke="#63b8ff" d="M1937.13,-287.73C1824.55,-283.97 1498.83,-271.47 1217.35,-244.18"/>
<polygon fill="#63b8ff" stroke="#63b8ff" points="1217.89,-240.72 1207.59,-243.22 1217.21,-247.68 1217.89,-240.72"/>
</a>
</g>
</g>
<!-- Node21 -->
<g id="Node000021" class="node">
<title>Node21</title>
<g id="a_Node000021"><a xlink:title=" ">
<polygon fill="#e0e0e0" stroke="#999999" points="1369.25,-244 1224.25,-244 1224.25,-224 1369.25,-224 1369.25,-244"/>
<text text-anchor="middle" x="1296.75" y="-230.5" font-family="Helvetica,sans-Serif" font-size="10.00">directxtk\WICTextureLoader.h</text>
</a>
</g>
</g>
<!-- Node3&#45;&gt;Node21 -->
<g id="edge20_Node000003_Node000021" class="edge">
<title>Node3&#45;&gt;Node21</title>
<g id="a_edge20_Node000003_Node000021"><a xlink:title=" ">
<path fill="none" stroke="#63b8ff" d="M1937.04,-286.43C1841.85,-280.3 1597.07,-263.96 1380.87,-244.16"/>
<polygon fill="#63b8ff" stroke="#63b8ff" points="1381.4,-240.7 1371.12,-243.27 1380.76,-247.67 1381.4,-240.7"/>
</a>
</g>
</g>
<!-- Node22 -->
<g id="Node000022" class="node">
<title>Node22</title>
<g id="a_Node000022"><a xlink:title=" ">
<polygon fill="#e0e0e0" stroke="#999999" points="1452.12,-244 1387.38,-244 1387.38,-224 1452.12,-224 1452.12,-244"/>
<text text-anchor="middle" x="1419.75" y="-230.5" font-family="Helvetica,sans-Serif" font-size="10.00">wincodec.h</text>
</a>
</g>
</g>
<!-- Node3&#45;&gt;Node22 -->
<g id="edge21_Node000003_Node000022" class="edge">
<title>Node3&#45;&gt;Node22</title>
<g id="a_edge21_Node000003_Node000022"><a xlink:title=" ">
<path fill="none" stroke="#63b8ff" d="M1937.32,-287.26C1851.68,-283.2 1645.57,-271.4 1463.48,-244.24"/>
<polygon fill="#63b8ff" stroke="#63b8ff" points="1464.26,-240.82 1453.85,-242.78 1463.21,-247.74 1464.26,-240.82"/>
</a>
</g>
</g>
<!-- Node23 -->
<g id="Node000023" class="node">
<title>Node23</title>
<g id="a_Node000023"><a xlink:title=" ">
<polygon fill="#e0e0e0" stroke="#999999" points="1527.75,-244 1469.75,-244 1469.75,-224 1527.75,-224 1527.75,-244"/>
<text text-anchor="middle" x="1498.75" y="-230.5" font-family="Helvetica,sans-Serif" font-size="10.00">lodepng.h</text>
</a>
</g>
</g>
<!-- Node3&#45;&gt;Node23 -->
<g id="edge22_Node000003_Node000023" class="edge">
<title>Node3&#45;&gt;Node23</title>
<g id="a_edge22_Node000003_Node000023"><a xlink:title=" ">
<path fill="none" stroke="#63b8ff" d="M1937.08,-286.64C1860.86,-281.82 1691.22,-269.28 1539.06,-244.19"/>
<polygon fill="#63b8ff" stroke="#63b8ff" points="1540.06,-240.81 1529.62,-242.61 1538.91,-247.71 1540.06,-240.81"/>
</a>
</g>
</g>
<!-- Node24 -->
<g id="Node000024" class="node">
<title>Node24</title>
<g id="a_Node000024"><a xlink:title=" ">
<polygon fill="#e0e0e0" stroke="#999999" points="1596,-244 1545.5,-244 1545.5,-224 1596,-224 1596,-244"/>
<text text-anchor="middle" x="1570.75" y="-230.5" font-family="Helvetica,sans-Serif" font-size="10.00">d3d11.h</text>
</a>
</g>
</g>
<!-- Node3&#45;&gt;Node24 -->
<g id="edge23_Node000003_Node000024" class="edge">
<title>Node3&#45;&gt;Node24</title>
<g id="a_edge23_Node000003_Node000024"><a xlink:title=" ">
<path fill="none" stroke="#63b8ff" d="M1937.02,-285.84C1870.25,-280.27 1733.19,-267.24 1607.26,-244.03"/>
<polygon fill="#63b8ff" stroke="#63b8ff" points="1608.24,-240.65 1597.77,-242.26 1606.95,-247.54 1608.24,-240.65"/>
</a>
</g>
</g>
<!-- Node25 -->
<g id="Node000025" class="node">
<title>Node25</title>
<g id="a_Node000025"><a xlink:title=" ">
<polygon fill="#e0e0e0" stroke="#999999" points="1691.12,-244 1614.38,-244 1614.38,-224 1691.12,-224 1691.12,-244"/>
<text text-anchor="middle" x="1652.75" y="-230.5" font-family="Helvetica,sans-Serif" font-size="10.00">DirectXMath.h</text>
</a>
</g>
</g>
<!-- Node3&#45;&gt;Node25 -->
<g id="edge24_Node000003_Node000025" class="edge">
<title>Node3&#45;&gt;Node25</title>
<g id="a_edge24_Node000003_Node000025"><a xlink:title=" ">
<path fill="none" stroke="#63b8ff" d="M1937.17,-282.81C1885.15,-274.78 1791.86,-260.12 1702.61,-244.47"/>
<polygon fill="#63b8ff" stroke="#63b8ff" points="1703.41,-241.05 1692.95,-242.77 1702.19,-247.95 1703.41,-241.05"/>
</a>
</g>
</g>
<!-- Node26 -->
<g id="Node000026" class="node">
<title>Node26</title>
<g id="a_Node000026"><a xlink:title=" ">
<polygon fill="#e0e0e0" stroke="#999999" points="1788.62,-244 1708.88,-244 1708.88,-224 1788.62,-224 1788.62,-244"/>
<text text-anchor="middle" x="1748.75" y="-230.5" font-family="Helvetica,sans-Serif" font-size="10.00">D3Dcompiler.h</text>
</a>
</g>
</g>
<!-- Node3&#45;&gt;Node26 -->
<g id="edge25_Node000003_Node000026" class="edge">
<title>Node3&#45;&gt;Node26</title>
<g id="a_edge25_Node000003_Node000026"><a xlink:title=" ">
<path fill="none" stroke="#63b8ff" d="M1937.6,-279.53C1899.29,-270.5 1841.43,-256.85 1799.85,-247.05"/>
<polygon fill="#63b8ff" stroke="#63b8ff" points="1800.86,-243.69 1790.33,-244.8 1799.26,-250.51 1800.86,-243.69"/>
</a>
</g>
</g>
<!-- Node27 -->
<g id="Node000027" class="node">
<title>Node27</title>
<g id="a_Node000027"><a xlink:title=" ">
<polygon fill="#e0e0e0" stroke="#999999" points="1862.62,-244 1806.88,-244 1806.88,-224 1862.62,-224 1862.62,-244"/>
<text text-anchor="middle" x="1834.75" y="-230.5" font-family="Helvetica,sans-Serif" font-size="10.00">d2d1_2.h</text>
</a>
</g>
</g>
<!-- Node3&#45;&gt;Node27 -->
<g id="edge26_Node000003_Node000027" class="edge">
<title>Node3&#45;&gt;Node27</title>
<g id="a_edge26_Node000003_Node000027"><a xlink:title=" ">
<path fill="none" stroke="#63b8ff" d="M1952.84,-279.59C1930.02,-270.97 1895.97,-258.12 1870.29,-248.42"/>
<polygon fill="#63b8ff" stroke="#63b8ff" points="1871.86,-245.27 1861.27,-245.01 1869.39,-251.82 1871.86,-245.27"/>
</a>
</g>
</g>
<!-- Node28 -->
<g id="Node000028" class="node">
<title>Node28</title>
<g id="a_Node000028"><a xlink:title=" ">
<polygon fill="#e0e0e0" stroke="#999999" points="1936.62,-244 1880.88,-244 1880.88,-224 1936.62,-224 1936.62,-244"/>
<text text-anchor="middle" x="1908.75" y="-230.5" font-family="Helvetica,sans-Serif" font-size="10.00">d2d1_1.h</text>
</a>
</g>
</g>
<!-- Node3&#45;&gt;Node28 -->
<g id="edge27_Node000003_Node000028" class="edge">
<title>Node3&#45;&gt;Node28</title>
<g id="a_edge27_Node000003_Node000028"><a xlink:title=" ">
<path fill="none" stroke="#63b8ff" d="M1965.73,-279.59C1955.74,-271.77 1941.29,-260.46 1929.44,-251.19"/>
<polygon fill="#63b8ff" stroke="#63b8ff" points="1931.86,-248.64 1921.82,-245.23 1927.54,-254.15 1931.86,-248.64"/>
</a>
</g>
</g>
<!-- Node29 -->
<g id="Node000029" class="node">
<title>Node29</title>
<g id="a_Node000029"><a xlink:title=" ">
<polygon fill="#e0e0e0" stroke="#999999" points="2000.38,-244 1955.12,-244 1955.12,-224 2000.38,-224 2000.38,-244"/>
<text text-anchor="middle" x="1977.75" y="-230.5" font-family="Helvetica,sans-Serif" font-size="10.00">d2d1.h</text>
</a>
</g>
</g>
<!-- Node3&#45;&gt;Node29 -->
<g id="edge28_Node000003_Node000029" class="edge">
<title>Node3&#45;&gt;Node29</title>
<g id="a_edge28_Node000003_Node000029"><a xlink:title=" ">
<path fill="none" stroke="#63b8ff" d="M1977.75,-279.59C1977.75,-273.01 1977.75,-263.96 1977.75,-255.73"/>
<polygon fill="#63b8ff" stroke="#63b8ff" points="1981.25,-255.81 1977.75,-245.81 1974.25,-255.81 1981.25,-255.81"/>
</a>
</g>
</g>
<!-- Node30 -->
<g id="Node000030" class="node">
<title>Node30</title>
<g id="a_Node000030"><a xlink:title=" ">
<polygon fill="#e0e0e0" stroke="#999999" points="2068.62,-244 2018.88,-244 2018.88,-224 2068.62,-224 2068.62,-244"/>
<text text-anchor="middle" x="2043.75" y="-230.5" font-family="Helvetica,sans-Serif" font-size="10.00">dwrite.h</text>
</a>
</g>
</g>
<!-- Node3&#45;&gt;Node30 -->
<g id="edge29_Node000003_Node000030" class="edge">
<title>Node3&#45;&gt;Node30</title>
<g id="a_edge29_Node000003_Node000030"><a xlink:title=" ">
<path fill="none" stroke="#63b8ff" d="M1989.25,-279.59C1998.71,-271.85 2012.35,-260.69 2023.62,-251.47"/>
<polygon fill="#63b8ff" stroke="#63b8ff" points="2025.69,-254.3 2031.21,-245.26 2021.26,-248.88 2025.69,-254.3"/>
</a>
</g>
</g>
<!-- Node3&#45;&gt;Node31 -->
<g id="edge30_Node000003_Node000031" class="edge">
<title>Node3&#45;&gt;Node31</title>
<g id="a_edge30_Node000003_Node000031"><a xlink:title=" ">
<path fill="none" stroke="#63b8ff" d="M2018.31,-286.76C2113.86,-281.56 2359.84,-267.33 2564.75,-244 2566.78,-243.77 2568.86,-243.52 2570.95,-243.26"/>
<polygon fill="#63b8ff" stroke="#63b8ff" points="2571.36,-246.73 2580.81,-241.94 2570.44,-239.79 2571.36,-246.73"/>
</a>
</g>
</g>
<!-- Node32 -->
<g id="Node000032" class="node">
<title>Node32</title>
<g id="a_Node000032"><a xlink:href="_direct_x_manager_8h.html" target="_top" xlink:title=" ">
<polygon fill="white" stroke="#666666" points="2539,-188 2446.5,-188 2446.5,-168 2539,-168 2539,-188"/>
<text text-anchor="middle" x="2492.75" y="-174.5" font-family="Helvetica,sans-Serif" font-size="10.00">DirectXManager.h</text>
</a>
</g>
</g>
<!-- Node3&#45;&gt;Node32 -->
<g id="edge54_Node000003_Node000032" class="edge">
<title>Node3&#45;&gt;Node32</title>
<g id="a_edge54_Node000003_Node000032"><a xlink:title=" ">
<path fill="none" stroke="#63b8ff" d="M2018.27,-288.57C2114.36,-286.96 2352.6,-279.42 2423.75,-244 2444.93,-233.46 2462.34,-212.07 2474.81,-196.7"/>
<polygon fill="#63b8ff" stroke="#63b8ff" points="2477.31,-199.18 2480.97,-189.23 2471.91,-194.73 2477.31,-199.18"/>
</a>
</g>
</g>
<!-- Node33 -->
<g id="Node000033" class="node">
<title>Node33</title>
<g id="a_Node000033"><a xlink:href="_camera_8h.html" target="_top" xlink:title=" ">
<polygon fill="white" stroke="#666666" points="2256.75,-132 2198.75,-132 2198.75,-112 2256.75,-112 2256.75,-132"/>
<text text-anchor="middle" x="2227.75" y="-118.5" font-family="Helvetica,sans-Serif" font-size="10.00">Camera.h</text>
</a>
</g>
</g>
<!-- Node3&#45;&gt;Node33 -->
<g id="edge55_Node000003_Node000033" class="edge">
<title>Node3&#45;&gt;Node33</title>
<g id="a_edge55_Node000003_Node000033"><a xlink:title=" ">
<path fill="none" stroke="#63b8ff" d="M2018.28,-284.11C2069.19,-277.64 2152.35,-264.59 2175.75,-244 2205.22,-218.06 2214.5,-170.55 2220.34,-143.42"/>
<polygon fill="#63b8ff" stroke="#63b8ff" points="2223.74,-144.24 2222.59,-133.7 2216.92,-142.66 2223.74,-144.24"/>
</a>
</g>
</g>
<!-- Node34 -->
<g id="Node000034" class="node">
<title>Node34</title>
<g id="a_Node000034"><a xlink:href="_graphics_device_8h.html" target="_top" xlink:title=" ">
<polygon fill="white" stroke="#666666" points="2305.62,-76 2213.88,-76 2213.88,-56 2305.62,-56 2305.62,-76"/>
<text text-anchor="middle" x="2259.75" y="-62.5" font-family="Helvetica,sans-Serif" font-size="10.00">GraphicsDevice.h</text>
</a>
</g>
</g>
<!-- Node3&#45;&gt;Node34 -->
<g id="edge56_Node000003_Node000034" class="edge">
<title>Node3&#45;&gt;Node34</title>
<g id="a_edge56_Node000003_Node000034"><a xlink:title=" ">
<path fill="none" stroke="#63b8ff" d="M2018.31,-284.94C2049.26,-279.94 2091.11,-268.8 2119.75,-244 2168.6,-201.69 2138.32,-160.75 2180.75,-112 2191.66,-99.46 2206.91,-89.1 2221.2,-81.5"/>
<polygon fill="#63b8ff" stroke="#63b8ff" points="2222.61,-84.71 2230.01,-77.13 2219.5,-78.43 2222.61,-84.71"/>
</a>
</g>
</g>
<!-- Node35 -->
<g id="Node000035" class="node">
<title>Node35</title>
<g id="a_Node000035"><a xlink:href="_mesh_8h.html" target="_top" xlink:title=" ">
<polygon fill="white" stroke="#666666" points="2354.88,-132 2306.62,-132 2306.62,-112 2354.88,-112 2354.88,-132"/>
<text text-anchor="middle" x="2330.75" y="-118.5" font-family="Helvetica,sans-Serif" font-size="10.00">Mesh.h</text>
</a>
</g>
</g>
<!-- Node3&#45;&gt;Node35 -->
<g id="edge58_Node000003_Node000035" class="edge">
<title>Node3&#45;&gt;Node35</title>
<g id="a_edge58_Node000003_Node000035"><a xlink:title=" ">
<path fill="none" stroke="#63b8ff" d="M2018.2,-286.73C2107.34,-281.6 2313.81,-267.68 2334.75,-244 2359.39,-216.14 2344,-169.38 2334.9,-142.89"/>
<polygon fill="#63b8ff" stroke="#63b8ff" points="2338.32,-142.08 2331.82,-133.72 2331.69,-144.31 2338.32,-142.08"/>
</a>
</g>
</g>
<!-- Node36 -->
<g id="Node000036" class="node">
<title>Node36</title>
<g id="a_Node000036"><a xlink:href="_render_state_8h.html" target="_top" xlink:title=" ">
<polygon fill="white" stroke="#666666" points="2357.88,-20 2279.62,-20 2279.62,0 2357.88,0 2357.88,-20"/>
<text text-anchor="middle" x="2318.75" y="-6.5" font-family="Helvetica,sans-Serif" font-size="10.00">RenderState.h</text>
</a>
</g>
</g>
<!-- Node3&#45;&gt;Node36 -->
<g id="edge60_Node000003_Node000036" class="edge">
<title>Node3&#45;&gt;Node36</title>
<g id="a_edge60_Node000003_Node000036"><a xlink:title=" ">
<path fill="none" stroke="#63b8ff" d="M2007.06,-279.53C2026.66,-272.62 2051.66,-261.37 2068.75,-244 2090.81,-221.58 2096.75,-210.46 2096.75,-179 2096.75,-179 2096.75,-179 2096.75,-121 2096.75,-46.01 2202.27,-22.09 2267.91,-14.5"/>
<polygon fill="#63b8ff" stroke="#63b8ff" points="2268.18,-17.99 2277.76,-13.46 2267.45,-11.03 2268.18,-17.99"/>
</a>
</g>
</g>
<!-- Node37 -->
<g id="Node000037" class="node">
<title>Node37</title>
<g id="a_Node000037"><a xlink:href="_shader_program_8h.html" target="_top" xlink:title=" ">
<polygon fill="white" stroke="#666666" points="2821.62,-20 2729.88,-20 2729.88,0 2821.62,0 2821.62,-20"/>
<text text-anchor="middle" x="2775.75" y="-6.5" font-family="Helvetica,sans-Serif" font-size="10.00">ShaderProgram.h</text>
</a>
</g>
</g>
<!-- Node3&#45;&gt;Node37 -->
<g id="edge61_Node000003_Node000037" class="edge">
<title>Node3&#45;&gt;Node37</title>
<g id="a_edge61_Node000003_Node000037"><a xlink:title=" ">
<path fill="none" stroke="#63b8ff" d="M2018.47,-288.35C2170.15,-285.8 2696.22,-275 2764.75,-244 2801.69,-227.29 2828.75,-219.54 2828.75,-179 2828.75,-179 2828.75,-179 2828.75,-121 2828.75,-84.83 2802.99,-49.59 2787.09,-29.11"/>
<polygon fill="#63b8ff" stroke="#63b8ff" points="2790.07,-27.23 2781.16,-21.49 2784.55,-31.53 2790.07,-27.23"/>
</a>
</g>
</g>
<!-- Node39 -->
<g id="Node000039" class="node">
<title>Node39</title>
<g id="a_Node000039"><a xlink:href="_material_8h.html" target="_top" xlink:title=" ">
<polygon fill="white" stroke="#666666" points="2743.12,-76 2684.38,-76 2684.38,-56 2743.12,-56 2743.12,-76"/>
<text text-anchor="middle" x="2713.75" y="-62.5" font-family="Helvetica,sans-Serif" font-size="10.00">Material.h</text>
</a>
</g>
</g>
<!-- Node3&#45;&gt;Node39 -->
<g id="edge57_Node000003_Node000039" class="edge">
<title>Node3&#45;&gt;Node39</title>
<g id="a_edge57_Node000003_Node000039"><a xlink:title=" ">
<path fill="none" stroke="#63b8ff" d="M2018.42,-289.42C2161.38,-290.4 2634.02,-289.86 2682.75,-244 2725.72,-203.57 2716.91,-125.27 2713.31,-87.87"/>
<polygon fill="#63b8ff" stroke="#63b8ff" points="2716.8,-87.66 2712.47,-77.99 2709.83,-88.25 2716.8,-87.66"/>
</a>
</g>
</g>
<!-- Node40 -->
<g id="Node000040" class="node">
<title>Node40</title>
<g id="a_Node000040"><a xlink:href="_model_8h.html" target="_top" xlink:title=" ">
<polygon fill="white" stroke="#666666" points="2801,-132 2750.5,-132 2750.5,-112 2801,-112 2801,-132"/>
<text text-anchor="middle" x="2775.75" y="-118.5" font-family="Helvetica,sans-Serif" font-size="10.00">Model.h</text>
</a>
</g>
</g>
<!-- Node3&#45;&gt;Node40 -->
<g id="edge59_Node000003_Node000040" class="edge">
<title>Node3&#45;&gt;Node40</title>
<g id="a_edge59_Node000003_Node000040"><a xlink:title=" ">
<path fill="none" stroke="#63b8ff" d="M2018.44,-289.35C2167.59,-290.19 2677.74,-289.45 2733.75,-244 2763.66,-219.73 2767.99,-171.22 2770.78,-143.56"/>
<polygon fill="#63b8ff" stroke="#63b8ff" points="2774.22,-144.32 2771.87,-133.99 2767.26,-143.53 2774.22,-144.32"/>
</a>
</g>
</g>
<!-- Node31&#45;&gt;Node3 -->
<g id="edge31_Node000031_Node000003" class="edge">
<title>Node31&#45;&gt;Node3</title>
<g id="a_edge31_Node000031_Node000003"><a xlink:title=" ">
<path fill="none" stroke="#63b8ff" d="M2582.44,-244.04C2378.53,-267.24 2134.07,-281.43 2029.32,-286.68"/>
<polygon fill="#63b8ff" stroke="#63b8ff" points="2029.47,-283.17 2019.66,-287.16 2029.82,-290.16 2029.47,-283.17"/>
</a>
</g>
</g>
<!-- Node31&#45;&gt;Node32 -->
<g id="edge32_Node000031_Node000032" class="edge">
<title>Node31&#45;&gt;Node32</title>
<g id="a_edge32_Node000031_Node000032"><a xlink:title=" ">
<path fill="none" stroke="#63b8ff" d="M2608.36,-223.59C2586.12,-215.01 2552.98,-202.23 2527.88,-192.55"/>
<polygon fill="#63b8ff" stroke="#63b8ff" points="2529.33,-189.36 2518.74,-189.02 2526.81,-195.89 2529.33,-189.36"/>
</a>
</g>
</g>
<!-- Node32&#45;&gt;Node3 -->
<g id="edge33_Node000032_Node000003" class="edge">
<title>Node32&#45;&gt;Node3</title>
<g id="a_edge33_Node000032_Node000003"><a xlink:title=" ">
<path fill="none" stroke="#63b8ff" d="M2493.03,-188.07C2487.41,-202.72 2467.32,-231.27 2441.75,-244 2371.03,-279.21 2135.23,-286.87 2029.57,-288.54"/>
<polygon fill="#63b8ff" stroke="#63b8ff" points="2029.71,-285.03 2019.77,-288.68 2029.82,-292.03 2029.71,-285.03"/>
</a>
</g>
</g>
<!-- Node32&#45;&gt;Node33 -->
<g id="edge34_Node000032_Node000033" class="edge">
<title>Node32&#45;&gt;Node33</title>
<g id="a_edge34_Node000032_Node000033"><a xlink:title=" ">
<path fill="none" stroke="#63b8ff" d="M2446.29,-167.53C2395.82,-157.25 2316.02,-140.99 2268.09,-131.22"/>
<polygon fill="#63b8ff" stroke="#63b8ff" points="2268.9,-127.81 2258.41,-129.25 2267.51,-134.67 2268.9,-127.81"/>
</a>
</g>
</g>
<!-- Node32&#45;&gt;Node34 -->
<g id="edge36_Node000032_Node000034" class="edge">
<title>Node32&#45;&gt;Node34</title>
<g id="a_edge36_Node000032_Node000034"><a xlink:title=" ">
<path fill="none" stroke="#63b8ff" d="M2492.85,-167.95C2492.5,-153.85 2489.63,-126.7 2473.75,-112 2451.33,-91.25 2372.55,-78.81 2317.11,-72.42"/>
<polygon fill="#63b8ff" stroke="#63b8ff" points="2317.84,-68.98 2307.52,-71.36 2317.07,-75.94 2317.84,-68.98"/>
</a>
</g>
</g>
<!-- Node32&#45;&gt;Node35 -->
<g id="edge38_Node000032_Node000035" class="edge">
<title>Node32&#45;&gt;Node35</title>
<g id="a_edge38_Node000032_Node000035"><a xlink:title=" ">
<path fill="none" stroke="#63b8ff" d="M2464.53,-167.59C2437.12,-158.46 2395.43,-144.56 2365.88,-134.71"/>
<polygon fill="#63b8ff" stroke="#63b8ff" points="2367.24,-131.47 2356.64,-131.63 2365.02,-138.11 2367.24,-131.47"/>
</a>
</g>
</g>
<!-- Node32&#45;&gt;Node36 -->
<g id="edge41_Node000032_Node000036" class="edge">
<title>Node32&#45;&gt;Node36</title>
<g id="a_edge41_Node000032_Node000036"><a xlink:title=" ">
<path fill="none" stroke="#63b8ff" d="M2495.65,-167.87C2499.29,-154.58 2503.91,-129.59 2493.75,-112 2466.62,-65.01 2408.38,-37.93 2366.54,-23.86"/>
<polygon fill="#63b8ff" stroke="#63b8ff" points="2367.78,-20.58 2357.19,-20.86 2365.64,-27.25 2367.78,-20.58"/>
</a>
</g>
</g>
<!-- Node32&#45;&gt;Node37 -->
<g id="edge43_Node000032_Node000037" class="edge">
<title>Node32&#45;&gt;Node37</title>
<g id="a_edge43_Node000032_Node000037"><a xlink:title=" ">
<path fill="none" stroke="#63b8ff" d="M2505.18,-167.76C2534.12,-146.47 2608.7,-92.94 2675.75,-56 2697.04,-44.27 2721.96,-33.05 2741.6,-24.75"/>
<polygon fill="#63b8ff" stroke="#63b8ff" points="2742.92,-27.99 2750.8,-20.91 2740.22,-21.53 2742.92,-27.99"/>
</a>
</g>
</g>
<!-- Node38 -->
<g id="Node000038" class="node">
<title>Node38</title>
<g id="a_Node000038"><a xlink:href="_shader_manager_8h.html" target="_top" xlink:title=" ">
<polygon fill="white" stroke="#666666" points="2465,-132 2372.5,-132 2372.5,-112 2465,-112 2465,-132"/>
<text text-anchor="middle" x="2418.75" y="-118.5" font-family="Helvetica,sans-Serif" font-size="10.00">ShaderManager.h</text>
</a>
</g>
</g>
<!-- Node32&#45;&gt;Node38 -->
<g id="edge45_Node000032_Node000038" class="edge">
<title>Node32&#45;&gt;Node38</title>
<g id="a_edge45_Node000032_Node000038"><a xlink:title=" ">
<path fill="none" stroke="#63b8ff" d="M2479.86,-167.59C2469.04,-159.7 2453.34,-148.24 2440.56,-138.92"/>
<polygon fill="#63b8ff" stroke="#63b8ff" points="2442.86,-136.26 2432.71,-133.19 2438.73,-141.91 2442.86,-136.26"/>
</a>
</g>
</g>
<!-- Node32&#45;&gt;Node39 -->
<g id="edge47_Node000032_Node000039" class="edge">
<title>Node32&#45;&gt;Node39</title>
<g id="a_edge47_Node000032_Node000039"><a xlink:title=" ">
<path fill="none" stroke="#63b8ff" d="M2516.85,-167.52C2538.34,-158.87 2570.53,-145.41 2597.75,-132 2629.71,-116.25 2665.31,-95.86 2688.53,-82.15"/>
<polygon fill="#63b8ff" stroke="#63b8ff" points="2690.16,-85.26 2696.97,-77.14 2686.59,-79.24 2690.16,-85.26"/>
</a>
</g>
</g>
<!-- Node32&#45;&gt;Node40 -->
<g id="edge51_Node000032_Node000040" class="edge">
<title>Node32&#45;&gt;Node40</title>
<g id="a_edge51_Node000032_Node000040"><a xlink:title=" ">
<path fill="none" stroke="#63b8ff" d="M2539.48,-168.08C2595.41,-157.41 2687.9,-139.76 2738.99,-130.01"/>
<polygon fill="#63b8ff" stroke="#63b8ff" points="2739.48,-133.48 2748.65,-128.17 2738.17,-126.61 2739.48,-133.48"/>
</a>
</g>
</g>
<!-- Node33&#45;&gt;Node3 -->
<g id="edge35_Node000033_Node000003" class="edge">
<title>Node33&#45;&gt;Node3</title>
<g id="a_edge35_Node000033_Node000003"><a xlink:title=" ">
<path fill="none" stroke="#63b8ff" d="M2231.82,-132.23C2234.93,-154.96 2227.89,-213.95 2193.75,-244 2170.12,-264.8 2085.51,-277.9 2029.37,-284.31"/>
<polygon fill="#63b8ff" stroke="#63b8ff" points="2029.26,-280.8 2019.7,-285.37 2030.02,-287.75 2029.26,-280.8"/>
</a>
</g>
</g>
<!-- Node34&#45;&gt;Node3 -->
<g id="edge37_Node000034_Node000003" class="edge">
<title>Node34&#45;&gt;Node3</title>
<g id="a_edge37_Node000034_Node000003"><a xlink:title=" ">
<path fill="none" stroke="#63b8ff" d="M2246.23,-76.45C2232.57,-84.2 2212.31,-96.42 2198.75,-112 2156.32,-160.75 2186.6,-201.69 2137.75,-244 2108.03,-269.74 2064.07,-280.77 2029.65,-285.48"/>
<polygon fill="#63b8ff" stroke="#63b8ff" points="2029.38,-281.99 2019.88,-286.67 2030.22,-288.94 2029.38,-281.99"/>
</a>
</g>
</g>
<!-- Node35&#45;&gt;Node3 -->
<g id="edge39_Node000035_Node000003" class="edge">
<title>Node35&#45;&gt;Node3</title>
<g id="a_edge39_Node000035_Node000003"><a xlink:title=" ">
<path fill="none" stroke="#63b8ff" d="M2340.36,-132.28C2356.34,-154.61 2381.17,-211.88 2352.75,-244 2331.94,-267.53 2127.9,-281.43 2029.77,-286.64"/>
<polygon fill="#63b8ff" stroke="#63b8ff" points="2029.66,-283.14 2019.86,-287.15 2030.02,-290.13 2029.66,-283.14"/>
</a>
</g>
</g>
<!-- Node35&#45;&gt;Node34 -->
<g id="edge40_Node000035_Node000034" class="edge">
<title>Node35&#45;&gt;Node34</title>
<g id="a_edge40_Node000035_Node000034"><a xlink:title=" ">
<path fill="none" stroke="#63b8ff" d="M2318.38,-111.59C2308.1,-103.77 2293.23,-92.46 2281.04,-83.19"/>
<polygon fill="#63b8ff" stroke="#63b8ff" points="2283.26,-80.48 2273.18,-77.21 2279.02,-86.05 2283.26,-80.48"/>
</a>
</g>
</g>
<!-- Node36&#45;&gt;Node3 -->
<g id="edge42_Node000036_Node000003" class="edge">
<title>Node36&#45;&gt;Node3</title>
<g id="a_edge42_Node000036_Node000003"><a xlink:title=" ">
<path fill="none" stroke="#63b8ff" d="M2279.45,-14.52C2220.05,-22.14 2114.75,-46.09 2114.75,-121 2114.75,-179 2114.75,-179 2114.75,-179 2114.75,-210.46 2108.81,-221.58 2086.75,-244 2071.24,-259.76 2049.23,-270.48 2028.96,-277.49"/>
<polygon fill="#63b8ff" stroke="#63b8ff" points="2028.15,-274.08 2019.69,-280.46 2030.28,-280.74 2028.15,-274.08"/>
</a>
</g>
</g>
<!-- Node37&#45;&gt;Node3 -->
<g id="edge44_Node000037_Node000003" class="edge">
<title>Node37&#45;&gt;Node3</title>
<g id="a_edge44_Node000037_Node000003"><a xlink:title=" ">
<path fill="none" stroke="#63b8ff" d="M2790.64,-20.3C2811.88,-38.08 2846.75,-78.91 2846.75,-121 2846.75,-179 2846.75,-179 2846.75,-179 2846.75,-219.54 2819.69,-227.29 2782.75,-244 2714.82,-274.73 2197.41,-285.61 2029.85,-288.28"/>
<polygon fill="#63b8ff" stroke="#63b8ff" points="2029.86,-284.78 2019.92,-288.44 2029.97,-291.78 2029.86,-284.78"/>
</a>
</g>
</g>
<!-- Node38&#45;&gt;Node3 -->
<g id="edge46_Node000038_Node000003" class="edge">
<title>Node38&#45;&gt;Node3</title>
<g id="a_edge46_Node000038_Node000003"><a xlink:title=" ">
<path fill="none" stroke="#63b8ff" d="M2418.31,-132.47C2416.67,-155.74 2408.96,-215.87 2372.75,-244 2320.43,-284.65 2124.42,-289.64 2029.67,-289.59"/>
<polygon fill="#63b8ff" stroke="#63b8ff" points="2029.88,-286.09 2019.87,-289.56 2029.86,-293.09 2029.88,-286.09"/>
</a>
</g>
</g>
<!-- Node39&#45;&gt;Node3 -->
<g id="edge48_Node000039_Node000003" class="edge">
<title>Node39&#45;&gt;Node3</title>
<g id="a_edge48_Node000039_Node000003"><a xlink:title=" ">
<path fill="none" stroke="#63b8ff" d="M2719.98,-76.48C2732.12,-106.28 2748.78,-198.8 2700.75,-244 2652.44,-289.47 2187.44,-290.39 2029.7,-289.45"/>
<polygon fill="#63b8ff" stroke="#63b8ff" points="2029.98,-285.95 2019.96,-289.38 2029.94,-292.95 2029.98,-285.95"/>
</a>
</g>
</g>
<!-- Node39&#45;&gt;Node36 -->
<g id="edge50_Node000039_Node000036" class="edge">
<title>Node39&#45;&gt;Node36</title>
<g id="a_edge50_Node000039_Node000036"><a xlink:title=" ">
<path fill="none" stroke="#63b8ff" d="M2684.06,-60.94C2616.97,-51.77 2453.04,-29.36 2369.49,-17.94"/>
<polygon fill="#63b8ff" stroke="#63b8ff" points="2370.14,-14.49 2359.76,-16.61 2369.19,-21.43 2370.14,-14.49"/>
</a>
</g>
</g>
<!-- Node39&#45;&gt;Node37 -->
<g id="edge49_Node000039_Node000037" class="edge">
<title>Node39&#45;&gt;Node37</title>
<g id="a_edge49_Node000039_Node000037"><a xlink:title=" ">
<path fill="none" stroke="#63b8ff" d="M2724.55,-55.59C2733.35,-47.93 2746,-36.91 2756.52,-27.75"/>
<polygon fill="#63b8ff" stroke="#63b8ff" points="2758.69,-30.5 2763.93,-21.29 2754.09,-25.22 2758.69,-30.5"/>
</a>
</g>
</g>
<!-- Node40&#45;&gt;Node3 -->
<g id="edge52_Node000040_Node000003" class="edge">
<title>Node40&#45;&gt;Node3</title>
<g id="a_edge52_Node000040_Node000003"><a xlink:title=" ">
<path fill="none" stroke="#63b8ff" d="M2780.93,-132.48C2786.72,-155.79 2786.24,-216.01 2751.75,-244 2696.2,-289.08 2193.97,-290.17 2029.53,-289.37"/>
<polygon fill="#63b8ff" stroke="#63b8ff" points="2029.81,-285.87 2019.79,-289.32 2029.77,-292.87 2029.81,-285.87"/>
</a>
</g>
</g>
<!-- Node40&#45;&gt;Node39 -->
<g id="edge53_Node000040_Node000039" class="edge">
<title>Node40&#45;&gt;Node39</title>
<g id="a_edge53_Node000040_Node000039"><a xlink:title=" ">
<path fill="none" stroke="#63b8ff" d="M2764.95,-111.59C2756.15,-103.93 2743.5,-92.91 2732.98,-83.75"/>
<polygon fill="#63b8ff" stroke="#63b8ff" points="2735.41,-81.22 2725.57,-77.29 2730.81,-86.5 2735.41,-81.22"/>
</a>
</g>
</g>
</g>
</svg>

<g id="navigator" transform="translate(0 0)" fill="#404254">
  <rect fill="#f2f5e9" fill-opacity="0.5" stroke="#606060" stroke-width=".5" x="0" y="0" width="60" height="60"/>
  <use id="zoomplus" xlink:href="#zoomPlus" x="17" y="9" onmousedown="handleZoom(evt,'in')"/>
  <use id="zoomminus" xlink:href="#zoomMin" x="42" y="9" onmousedown="handleZoom(evt,'out')"/>
  <use id="reset" xlink:href="#resetDef" x="30" y="36" onmousedown="handleReset()"/>
   <use id="arrowup" xlink:href="#arrowUp" x="0" y="0" onmousedown="handlePan(0,-1)"/>
  <use id="arrowright" xlink:href="#arrowRight" x="0" y="0" onmousedown="handlePan(1,0)"/>
  <use id="arrowdown" xlink:href="#arrowDown" x="0" y="0" onmousedown="handlePan(0,1)"/>
  <use id="arrowleft" xlink:href="#arrowLeft" x="0" y="0" onmousedown="handlePan(-1,0)"/>
</g>
<svg viewBox="0 0 15 15" width="100%" height="30px" preserveAspectRatio="xMaxYMin meet">
 <g id="arrow_out" transform="scale(0.3 0.3)">
  <a xlink:href="_win32_application_8cpp__incl_org.svg" target="_base">
   <rect id="button" ry="5" rx="5" y="6" x="6" height="38" width="38"
        fill="#f2f5e9" fill-opacity="0.5" stroke="#606060" stroke-width="1.0"/>
   <path id="arrow"
     d="M 11.500037,31.436501 C 11.940474,20.09759 22.043105,11.32322 32.158766,21.979434 L 37.068811,17.246167 C 37.068811,17.246167 37.088388,32 37.088388,32 L 22.160133,31.978069 C 22.160133,31.978069 26.997745,27.140456 26.997745,27.140456 C 18.528582,18.264221 13.291696,25.230495 11.500037,31.436501 z"
     style="fill:#404040;"/>
  </a>
 </g>
</svg>

<style type='text/css'>
<![CDATA[
[data-mouse-over-selected='false'] { opacity: 0.7; }
[data-mouse-over-selected='true']  { opacity: 1.0; }
]]>
</style>
<script type="application/ecmascript"><![CDATA[
document.addEventListener('DOMContentLoaded', (event) => {
  highlightEdges();
  highlightAdjacentNodes();
});
]]></script>
</svg>
