<?xml version="1.0" encoding="UTF-8" standalone="no"?>
<!DOCTYPE svg PUBLIC "-//W3C//DTD SVG 1.1//EN"
 "http://www.w3.org/Graphics/SVG/1.1/DTD/svg11.dtd">
<!-- Generated by graphviz version 9.0.0 (20230911.1827)
 -->
<!-- Title: src/Win32Application.h Pages: 1 -->
<svg width="1696pt" height="364pt"
 viewBox="0.00 0.00 1696.21 364.00" xmlns="http://www.w3.org/2000/svg" xmlns:xlink="http://www.w3.org/1999/xlink">
<g id="graph0" class="graph" transform="scale(1 1) rotate(0) translate(4 360)">
<title>src/Win32Application.h</title>
<!-- Node1 -->
<g id="Node000001" class="node">
<title>Node1</title>
<g id="a_Node000001"><a xlink:title=" ">
<polygon fill="#999999" stroke="#666666" points="567.25,-356 450.75,-356 450.75,-336 567.25,-336 567.25,-356"/>
<text text-anchor="middle" x="509" y="-342.5" font-family="Helvetica,sans-Serif" font-size="10.00">src/Win32Application.h</text>
</a>
</g>
</g>
<!-- Node2 -->
<g id="Node000002" class="node">
<title>Node2</title>
<g id="a_Node000002"><a xlink:href="_game_engine_8h.html" target="_top" xlink:title=" ">
<polygon fill="white" stroke="#666666" points="557.5,-300 460.5,-300 460.5,-280 557.5,-280 557.5,-300"/>
<text text-anchor="middle" x="509" y="-286.5" font-family="Helvetica,sans-Serif" font-size="10.00">src/GameEngine.h</text>
</a>
</g>
</g>
<!-- Node1&#45;&gt;Node2 -->
<g id="edge1_Node000001_Node000002" class="edge">
<title>Node1&#45;&gt;Node2</title>
<g id="a_edge1_Node000001_Node000002"><a xlink:title=" ">
<path fill="none" stroke="#63b8ff" d="M502.42,-324.43C501.97,-316.11 502.41,-306.93 503.75,-300.3"/>
<polygon fill="#63b8ff" stroke="#63b8ff" points="498.92,-324.57 503.56,-334.09 505.87,-323.75 498.92,-324.57"/>
</a>
</g>
</g>
<!-- Node25 -->
<g id="Node000025" class="node">
<title>Node25</title>
<g id="a_Node000025"><a xlink:href="_win32_application_8cpp.html" target="_top" xlink:title=" ">
<polygon fill="white" stroke="#666666" points="1649.5,-188 1522.5,-188 1522.5,-168 1649.5,-168 1649.5,-188"/>
<text text-anchor="middle" x="1586" y="-174.5" font-family="Helvetica,sans-Serif" font-size="10.00">src/Win32Application.cpp</text>
</a>
</g>
</g>
<!-- Node1&#45;&gt;Node25 -->
<g id="edge61_Node000001_Node000025" class="edge">
<title>Node1&#45;&gt;Node25</title>
<g id="a_edge61_Node000001_Node000025"><a xlink:title=" ">
<path fill="none" stroke="#63b8ff" d="M578.79,-341.33C770.73,-330.65 1303.33,-296.97 1470,-244 1510.48,-231.13 1552.7,-203.18 1573.24,-188.48"/>
<polygon fill="#63b8ff" stroke="#63b8ff" points="578.76,-337.82 568.97,-341.87 579.15,-344.81 578.76,-337.82"/>
</a>
</g>
</g>
<!-- Node2&#45;&gt;Node1 -->
<g id="edge46_Node000002_Node000001" class="edge">
<title>Node2&#45;&gt;Node1</title>
<g id="a_edge46_Node000002_Node000001"><a xlink:title=" ">
<path fill="none" stroke="#63b8ff" d="M515.59,-311.73C516.02,-319.96 515.58,-329.01 514.27,-335.59"/>
<polygon fill="#63b8ff" stroke="#63b8ff" points="519.06,-311.33 514.42,-301.8 512.11,-312.14 519.06,-311.33"/>
</a>
</g>
</g>
<!-- Node3 -->
<g id="Node000003" class="node">
<title>Node3</title>
<g id="a_Node000003"><a xlink:href="_camera_8h.html" target="_top" xlink:title=" ">
<polygon fill="white" stroke="#666666" points="211.25,-244 136.75,-244 136.75,-224 211.25,-224 211.25,-244"/>
<text text-anchor="middle" x="174" y="-230.5" font-family="Helvetica,sans-Serif" font-size="10.00">src/Camera.h</text>
</a>
</g>
</g>
<!-- Node2&#45;&gt;Node3 -->
<g id="edge2_Node000002_Node000003" class="edge">
<title>Node2&#45;&gt;Node3</title>
<g id="a_edge2_Node000002_Node000003"><a xlink:title=" ">
<path fill="none" stroke="#63b8ff" d="M448.8,-280.45C390.16,-271.43 298.82,-256.78 220,-244 217.23,-243.55 214.38,-243.09 211.52,-242.62"/>
<polygon fill="#63b8ff" stroke="#63b8ff" points="448.17,-283.89 458.58,-281.95 449.23,-276.97 448.17,-283.89"/>
</a>
</g>
</g>
<!-- Node5 -->
<g id="Node000005" class="node">
<title>Node5</title>
<g id="a_Node000005"><a xlink:href="_direct_x_manager_8h.html" target="_top" xlink:title=" ">
<polygon fill="white" stroke="#666666" points="389.5,-76 280.5,-76 280.5,-56 389.5,-56 389.5,-76"/>
<text text-anchor="middle" x="335" y="-62.5" font-family="Helvetica,sans-Serif" font-size="10.00">src/DirectXManager.h</text>
</a>
</g>
</g>
<!-- Node2&#45;&gt;Node5 -->
<g id="edge9_Node000002_Node000005" class="edge">
<title>Node2&#45;&gt;Node5</title>
<g id="a_edge9_Node000002_Node000005"><a xlink:title=" ">
<path fill="none" stroke="#63b8ff" d="M448.96,-289.26C352.41,-288.64 168.79,-282.41 119,-244 72.21,-207.91 86.33,-145.51 135,-112 177.65,-82.63 236.99,-72.28 280.05,-68.71"/>
<polygon fill="#63b8ff" stroke="#63b8ff" points="448.76,-292.76 458.78,-289.31 448.79,-285.76 448.76,-292.76"/>
</a>
</g>
</g>
<!-- Node7 -->
<g id="Node000007" class="node">
<title>Node7</title>
<g id="a_Node000007"><a xlink:href="_game_engine_8cpp.html" target="_top" xlink:title=" ">
<polygon fill="white" stroke="#666666" points="1232.75,-188 1125.25,-188 1125.25,-168 1232.75,-168 1232.75,-188"/>
<text text-anchor="middle" x="1179" y="-174.5" font-family="Helvetica,sans-Serif" font-size="10.00">src/GameEngine.cpp</text>
</a>
</g>
</g>
<!-- Node2&#45;&gt;Node7 -->
<g id="edge10_Node000002_Node000007" class="edge">
<title>Node2&#45;&gt;Node7</title>
<g id="a_edge10_Node000002_Node000007"><a xlink:title=" ">
<path fill="none" stroke="#63b8ff" d="M569.08,-289.9C666.67,-290 865.02,-284.56 1027,-244 1078.23,-231.17 1134.34,-203.2 1161.85,-188.49"/>
<polygon fill="#63b8ff" stroke="#63b8ff" points="569.21,-286.4 559.2,-289.86 569.19,-293.4 569.21,-286.4"/>
</a>
</g>
</g>
<!-- Node8 -->
<g id="Node000008" class="node">
<title>Node8</title>
<g id="a_Node000008"><a xlink:href="_graphics_device_8h.html" target="_top" xlink:title=" ">
<polygon fill="white" stroke="#666666" points="1461.12,-244 1352.88,-244 1352.88,-224 1461.12,-224 1461.12,-244"/>
<text text-anchor="middle" x="1407" y="-230.5" font-family="Helvetica,sans-Serif" font-size="10.00">src/GraphicsDevice.h</text>
</a>
</g>
</g>
<!-- Node2&#45;&gt;Node8 -->
<g id="edge11_Node000002_Node000008" class="edge">
<title>Node2&#45;&gt;Node8</title>
<g id="a_edge11_Node000002_Node000008"><a xlink:title=" ">
<path fill="none" stroke="#63b8ff" d="M569.07,-285.53C698.18,-278.37 1011.28,-261.17 1274,-244 1299.63,-242.32 1328.23,-240.26 1352.4,-238.53"/>
<polygon fill="#63b8ff" stroke="#63b8ff" points="569.19,-282.02 559.4,-286.07 569.58,-289.01 569.19,-282.02"/>
</a>
</g>
</g>
<!-- Node10 -->
<g id="Node000010" class="node">
<title>Node10</title>
<g id="a_Node000010"><a xlink:href="_mesh_8h.html" target="_top" xlink:title=" ">
<polygon fill="white" stroke="#666666" points="1449.38,-132 1384.62,-132 1384.62,-112 1449.38,-112 1449.38,-132"/>
<text text-anchor="middle" x="1417" y="-118.5" font-family="Helvetica,sans-Serif" font-size="10.00">src/Mesh.h</text>
</a>
</g>
</g>
<!-- Node2&#45;&gt;Node10 -->
<g id="edge29_Node000002_Node000010" class="edge">
<title>Node2&#45;&gt;Node10</title>
<g id="a_edge29_Node000002_Node000010"><a xlink:title=" ">
<path fill="none" stroke="#63b8ff" d="M569.14,-288.81C797.2,-287.42 1598.66,-276.2 1666,-188 1671.39,-180.93 1671.72,-174.8 1666,-168 1638.35,-135.11 1510.9,-126.26 1449.71,-123.88"/>
<polygon fill="#63b8ff" stroke="#63b8ff" points="569.26,-285.31 559.28,-288.87 569.3,-292.31 569.26,-285.31"/>
</a>
</g>
</g>
<!-- Node13 -->
<g id="Node000013" class="node">
<title>Node13</title>
<g id="a_Node000013"><a xlink:href="_material_8h.html" target="_top" xlink:title=" ">
<polygon fill="white" stroke="#666666" points="339.62,-188 264.38,-188 264.38,-168 339.62,-168 339.62,-188"/>
<text text-anchor="middle" x="302" y="-174.5" font-family="Helvetica,sans-Serif" font-size="10.00">src/Material.h</text>
</a>
</g>
</g>
<!-- Node2&#45;&gt;Node13 -->
<g id="edge20_Node000002_Node000013" class="edge">
<title>Node2&#45;&gt;Node13</title>
<g id="a_edge20_Node000002_Node000013"><a xlink:title=" ">
<path fill="none" stroke="#63b8ff" d="M469.24,-275.36C448.68,-266.85 423.63,-255.37 402,-244 367.29,-225.75 328.15,-201.45 310.55,-188.34"/>
<polygon fill="#63b8ff" stroke="#63b8ff" points="467.85,-278.58 478.43,-279.08 470.48,-272.09 467.85,-278.58"/>
</a>
</g>
</g>
<!-- Node15 -->
<g id="Node000015" class="node">
<title>Node15</title>
<g id="a_Node000015"><a xlink:href="_model_8h.html" target="_top" xlink:title=" ">
<polygon fill="white" stroke="#666666" points="569.5,-132 502.5,-132 502.5,-112 569.5,-112 569.5,-132"/>
<text text-anchor="middle" x="536" y="-118.5" font-family="Helvetica,sans-Serif" font-size="10.00">src/Model.h</text>
</a>
</g>
</g>
<!-- Node2&#45;&gt;Node15 -->
<g id="edge30_Node000002_Node000015" class="edge">
<title>Node2&#45;&gt;Node15</title>
<g id="a_edge30_Node000002_Node000015"><a xlink:title=" ">
<path fill="none" stroke="#63b8ff" d="M507.81,-268.71C509.72,-261.05 512.3,-252.21 514,-244 522.53,-202.83 525.65,-152.55 530.85,-132.2"/>
<polygon fill="#63b8ff" stroke="#63b8ff" points="504.41,-267.85 505.85,-278.35 511.27,-269.25 504.41,-267.85"/>
</a>
</g>
</g>
<!-- Node16 -->
<g id="Node000016" class="node">
<title>Node16</title>
<g id="a_Node000016"><a xlink:href="_render_state_8h.html" target="_top" xlink:title=" ">
<polygon fill="white" stroke="#666666" points="514.38,-244 419.62,-244 419.62,-224 514.38,-224 514.38,-244"/>
<text text-anchor="middle" x="467" y="-230.5" font-family="Helvetica,sans-Serif" font-size="10.00">src/RenderState.h</text>
</a>
</g>
</g>
<!-- Node2&#45;&gt;Node16 -->
<g id="edge31_Node000002_Node000016" class="edge">
<title>Node2&#45;&gt;Node16</title>
<g id="a_edge31_Node000002_Node000016"><a xlink:title=" ">
<path fill="none" stroke="#63b8ff" d="M488.84,-271.29C481.09,-262.28 473.25,-251.7 468.99,-244.3"/>
<polygon fill="#63b8ff" stroke="#63b8ff" points="486.07,-273.45 495.4,-278.48 491.25,-268.73 486.07,-273.45"/>
</a>
</g>
</g>
<!-- Node18 -->
<g id="Node000018" class="node">
<title>Node18</title>
<g id="a_Node000018"><a xlink:href="_scene_8h.html" target="_top" xlink:title=" ">
<polygon fill="white" stroke="#666666" points="1274.25,-244 1205.75,-244 1205.75,-224 1274.25,-224 1274.25,-244"/>
<text text-anchor="middle" x="1240" y="-230.5" font-family="Helvetica,sans-Serif" font-size="10.00">src/Scene.h</text>
</a>
</g>
</g>
<!-- Node2&#45;&gt;Node18 -->
<g id="edge36_Node000002_Node000018" class="edge">
<title>Node2&#45;&gt;Node18</title>
<g id="a_edge36_Node000002_Node000018"><a xlink:title=" ">
<path fill="none" stroke="#63b8ff" d="M569.3,-285.13C681.89,-277.81 931.74,-261.13 1142,-244 1163.12,-242.28 1186.77,-240.11 1205.55,-238.34"/>
<polygon fill="#63b8ff" stroke="#63b8ff" points="569.13,-281.63 559.38,-285.77 569.59,-288.62 569.13,-281.63"/>
</a>
</g>
</g>
<!-- Node20 -->
<g id="Node000020" class="node">
<title>Node20</title>
<g id="a_Node000020"><a xlink:href="_shader_manager_8h.html" target="_top" xlink:title=" ">
<polygon fill="white" stroke="#666666" points="697.5,-244 588.5,-244 588.5,-224 697.5,-224 697.5,-244"/>
<text text-anchor="middle" x="643" y="-230.5" font-family="Helvetica,sans-Serif" font-size="10.00">src/ShaderManager.h</text>
</a>
</g>
</g>
<!-- Node2&#45;&gt;Node20 -->
<g id="edge38_Node000002_Node000020" class="edge">
<title>Node2&#45;&gt;Node20</title>
<g id="a_edge38_Node000002_Node000020"><a xlink:title=" ">
<path fill="none" stroke="#63b8ff" d="M542.74,-275.4C566.69,-265.75 598.22,-253.05 619.48,-244.48"/>
<polygon fill="#63b8ff" stroke="#63b8ff" points="541.71,-272.04 533.74,-279.03 544.33,-278.54 541.71,-272.04"/>
</a>
</g>
</g>
<!-- Node22 -->
<g id="Node000022" class="node">
<title>Node22</title>
<g id="a_Node000022"><a xlink:href="_shader_program_8h.html" target="_top" xlink:title=" ">
<polygon fill="white" stroke="#666666" points="346.12,-244 237.88,-244 237.88,-224 346.12,-224 346.12,-244"/>
<text text-anchor="middle" x="292" y="-230.5" font-family="Helvetica,sans-Serif" font-size="10.00">src/ShaderProgram.h</text>
</a>
</g>
</g>
<!-- Node2&#45;&gt;Node22 -->
<g id="edge41_Node000002_Node000022" class="edge">
<title>Node2&#45;&gt;Node22</title>
<g id="a_edge41_Node000002_Node000022"><a xlink:title=" ">
<path fill="none" stroke="#63b8ff" d="M454.53,-276.88C413.66,-267.07 359.14,-253.47 324.73,-244.46"/>
<polygon fill="#63b8ff" stroke="#63b8ff" points="453.66,-280.27 464.2,-279.18 455.29,-273.46 453.66,-280.27"/>
</a>
</g>
</g>
<!-- Node24 -->
<g id="Node000024" class="node">
<title>Node24</title>
<g id="a_Node000024"><a xlink:href="pch_8h.html" target="_top" xlink:title=" ">
<polygon fill="white" stroke="#666666" points="1018.25,-244 961.75,-244 961.75,-224 1018.25,-224 1018.25,-244"/>
<text text-anchor="middle" x="990" y="-230.5" font-family="Helvetica,sans-Serif" font-size="10.00">src/pch.h</text>
</a>
</g>
</g>
<!-- Node2&#45;&gt;Node24 -->
<g id="edge47_Node000002_Node000024" class="edge">
<title>Node2&#45;&gt;Node24</title>
<g id="a_edge47_Node000002_Node000024"><a xlink:title=" ">
<path fill="none" stroke="#63b8ff" d="M569.05,-282.26C673.52,-270.53 884.85,-246.8 961.45,-238.2"/>
<polygon fill="#63b8ff" stroke="#63b8ff" points="568.82,-278.76 559.27,-283.36 569.6,-285.72 568.82,-278.76"/>
</a>
</g>
</g>
<!-- Node3&#45;&gt;Node2 -->
<g id="edge8_Node000003_Node000002" class="edge">
<title>Node3&#45;&gt;Node2</title>
<g id="a_edge8_Node000003_Node000002"><a xlink:title=" ">
<path fill="none" stroke="#63b8ff" d="M222.92,-241.56C228.04,-242.38 233.14,-243.21 238,-244 315.76,-256.61 405.69,-271.04 460.01,-280.08"/>
<polygon fill="#63b8ff" stroke="#63b8ff" points="223.67,-238.13 213.24,-240.02 222.57,-245.05 223.67,-238.13"/>
</a>
</g>
</g>
<!-- Node4 -->
<g id="Node000004" class="node">
<title>Node4</title>
<g id="a_Node000004"><a xlink:href="_camera_8cpp.html" target="_top" xlink:title=" ">
<polygon fill="white" stroke="#666666" points="207.5,-188 122.5,-188 122.5,-168 207.5,-168 207.5,-188"/>
<text text-anchor="middle" x="165" y="-174.5" font-family="Helvetica,sans-Serif" font-size="10.00">src/Camera.cpp</text>
</a>
</g>
</g>
<!-- Node3&#45;&gt;Node4 -->
<g id="edge3_Node000003_Node000004" class="edge">
<title>Node3&#45;&gt;Node4</title>
<g id="a_edge3_Node000003_Node000004"><a xlink:title=" ">
<path fill="none" stroke="#63b8ff" d="M170.57,-212.43C169.18,-204.11 167.66,-194.93 166.55,-188.3"/>
<polygon fill="#63b8ff" stroke="#63b8ff" points="167.09,-212.81 172.18,-222.1 173.99,-211.66 167.09,-212.81"/>
</a>
</g>
</g>
<!-- Node3&#45;&gt;Node5 -->
<g id="edge4_Node000003_Node000005" class="edge">
<title>Node3&#45;&gt;Node5</title>
<g id="a_edge4_Node000003_Node000005"><a xlink:title=" ">
<path fill="none" stroke="#63b8ff" d="M143.52,-218.08C122.61,-205.71 100.69,-187.12 113,-168 149.67,-111.03 227.22,-85.82 280.23,-74.92"/>
<polygon fill="#63b8ff" stroke="#63b8ff" points="141.78,-221.11 152.23,-222.89 145.17,-214.99 141.78,-221.11"/>
</a>
</g>
</g>
<!-- Node5&#45;&gt;Node1 -->
<g id="edge7_Node000005_Node000001" class="edge">
<title>Node5&#45;&gt;Node1</title>
<g id="a_edge7_Node000005_Node000001"><a xlink:title=" ">
<path fill="none" stroke="#63b8ff" d="M268.82,-75.07C171.19,-88.84 0,-120.99 0,-177 0,-235 0,-235 0,-235 0,-326.31 316.91,-342.01 450.61,-344.57"/>
<polygon fill="#63b8ff" stroke="#63b8ff" points="269.13,-78.56 278.56,-73.72 268.17,-71.62 269.13,-78.56"/>
</a>
</g>
</g>
<!-- Node5&#45;&gt;Node2 -->
<g id="edge6_Node000005_Node000002" class="edge">
<title>Node5&#45;&gt;Node2</title>
<g id="a_edge6_Node000005_Node000002"><a xlink:title=" ">
<path fill="none" stroke="#63b8ff" d="M269.26,-71.66C232.47,-77.04 187.33,-88.36 153,-112 104.33,-145.51 90.21,-207.91 137,-244 186.9,-282.49 371.24,-288.67 460.34,-289.27"/>
<polygon fill="#63b8ff" stroke="#63b8ff" points="269.45,-75.17 278.89,-70.38 268.52,-68.23 269.45,-75.17"/>
</a>
</g>
</g>
<!-- Node6 -->
<g id="Node000006" class="node">
<title>Node6</title>
<g id="a_Node000006"><a xlink:href="_direct_x_manager_8cpp.html" target="_top" xlink:title=" ">
<polygon fill="white" stroke="#666666" points="758.75,-20 639.25,-20 639.25,0 758.75,0 758.75,-20"/>
<text text-anchor="middle" x="699" y="-6.5" font-family="Helvetica,sans-Serif" font-size="10.00">src/DirectXManager.cpp</text>
</a>
</g>
</g>
<!-- Node5&#45;&gt;Node6 -->
<g id="edge5_Node000005_Node000006" class="edge">
<title>Node5&#45;&gt;Node6</title>
<g id="a_edge5_Node000005_Node000006"><a xlink:title=" ">
<path fill="none" stroke="#63b8ff" d="M401.27,-55.17C469.02,-45.12 573.35,-29.64 638.81,-19.93"/>
<polygon fill="#63b8ff" stroke="#63b8ff" points="400.76,-51.71 391.39,-56.64 401.79,-58.63 400.76,-51.71"/>
</a>
</g>
</g>
<!-- Node8&#45;&gt;Node2 -->
<g id="edge13_Node000008_Node000002" class="edge">
<title>Node8&#45;&gt;Node2</title>
<g id="a_edge13_Node000008_Node000002"><a xlink:title=" ">
<path fill="none" stroke="#63b8ff" d="M1341.06,-240.6C1325.04,-241.77 1307.95,-242.96 1292,-244 1014.64,-262.13 681.12,-280.29 557.79,-286.64"/>
<polygon fill="#63b8ff" stroke="#63b8ff" points="1341.29,-244.09 1351,-239.87 1340.77,-237.11 1341.29,-244.09"/>
</a>
</g>
</g>
<!-- Node8&#45;&gt;Node5 -->
<g id="edge12_Node000008_Node000005" class="edge">
<title>Node8&#45;&gt;Node5</title>
<g id="a_edge12_Node000008_Node000005"><a xlink:title=" ">
<path fill="none" stroke="#63b8ff" d="M1440.15,-218.44C1464.87,-205.63 1491.69,-186.24 1475,-168 1437.88,-127.44 612.48,-81.5 389.89,-69.82"/>
<polygon fill="#63b8ff" stroke="#63b8ff" points="1438.62,-215.29 1431.18,-222.84 1441.7,-221.58 1438.62,-215.29"/>
</a>
</g>
</g>
<!-- Node9 -->
<g id="Node000009" class="node">
<title>Node9</title>
<g id="a_Node000009"><a xlink:href="_graphics_device_8cpp.html" target="_top" xlink:title=" ">
<polygon fill="white" stroke="#666666" points="1466.38,-188 1347.62,-188 1347.62,-168 1466.38,-168 1466.38,-188"/>
<text text-anchor="middle" x="1407" y="-174.5" font-family="Helvetica,sans-Serif" font-size="10.00">src/GraphicsDevice.cpp</text>
</a>
</g>
</g>
<!-- Node8&#45;&gt;Node9 -->
<g id="edge14_Node000008_Node000009" class="edge">
<title>Node8&#45;&gt;Node9</title>
<g id="a_edge14_Node000008_Node000009"><a xlink:title=" ">
<path fill="none" stroke="#63b8ff" d="M1407,-212.13C1407,-203.9 1407,-194.85 1407,-188.3"/>
<polygon fill="#63b8ff" stroke="#63b8ff" points="1403.5,-212.08 1407,-222.08 1410.5,-212.08 1403.5,-212.08"/>
</a>
</g>
</g>
<!-- Node8&#45;&gt;Node10 -->
<g id="edge15_Node000008_Node000010" class="edge">
<title>Node8&#45;&gt;Node10</title>
<g id="a_edge15_Node000008_Node000010"><a xlink:title=" ">
<path fill="none" stroke="#63b8ff" d="M1472.77,-230.48C1539.07,-226.39 1634.8,-215.72 1658,-188 1663.7,-181.18 1663.68,-174.84 1658,-168 1631.89,-136.57 1509.38,-126.97 1449.76,-124.14"/>
<polygon fill="#63b8ff" stroke="#63b8ff" points="1472.88,-226.97 1463.09,-231.04 1473.28,-233.95 1472.88,-226.97"/>
</a>
</g>
</g>
<!-- Node10&#45;&gt;Node2 -->
<g id="edge17_Node000010_Node000002" class="edge">
<title>Node10&#45;&gt;Node2</title>
<g id="a_edge17_Node000010_Node000002"><a xlink:title=" ">
<path fill="none" stroke="#63b8ff" d="M1460.91,-123.89C1529.45,-126.3 1656.41,-135.18 1684,-168 1689.72,-174.8 1689.39,-180.93 1684,-188 1614.84,-278.59 771.2,-287.97 557.76,-288.9"/>
<polygon fill="#63b8ff" stroke="#63b8ff" points="1461.25,-120.4 1451.14,-123.58 1461.03,-127.4 1461.25,-120.4"/>
</a>
</g>
</g>
<!-- Node10&#45;&gt;Node5 -->
<g id="edge16_Node000010_Node000005" class="edge">
<title>Node10&#45;&gt;Node5</title>
<g id="a_edge16_Node000010_Node000005"><a xlink:title=" ">
<path fill="none" stroke="#63b8ff" d="M1373.01,-118.8C1201.69,-110.25 579.25,-79.19 389.98,-69.74"/>
<polygon fill="#63b8ff" stroke="#63b8ff" points="1372.65,-122.29 1382.81,-119.29 1373,-115.3 1372.65,-122.29"/>
</a>
</g>
</g>
<!-- Node11 -->
<g id="Node000011" class="node">
<title>Node11</title>
<g id="a_Node000011"><a xlink:href="_mesh_8cpp.html" target="_top" xlink:title=" ">
<polygon fill="white" stroke="#666666" points="973.62,-76 898.38,-76 898.38,-56 973.62,-56 973.62,-76"/>
<text text-anchor="middle" x="936" y="-62.5" font-family="Helvetica,sans-Serif" font-size="10.00">src/Mesh.cpp</text>
</a>
</g>
</g>
<!-- Node10&#45;&gt;Node11 -->
<g id="edge18_Node000010_Node000011" class="edge">
<title>Node10&#45;&gt;Node11</title>
<g id="a_edge18_Node000010_Node000011"><a xlink:title=" ">
<path fill="none" stroke="#63b8ff" d="M1372.73,-117.75C1293.9,-111.66 1124.14,-97.21 982,-76 979.42,-75.62 976.77,-75.19 974.11,-74.73"/>
<polygon fill="#63b8ff" stroke="#63b8ff" points="1372.39,-121.23 1382.62,-118.5 1372.92,-114.25 1372.39,-121.23"/>
</a>
</g>
</g>
<!-- Node12 -->
<g id="Node000012" class="node">
<title>Node12</title>
<g id="a_Node000012"><a xlink:href="_model_8cpp.html" target="_top" xlink:title=" ">
<polygon fill="white" stroke="#666666" points="1068.75,-76 991.25,-76 991.25,-56 1068.75,-56 1068.75,-76"/>
<text text-anchor="middle" x="1030" y="-62.5" font-family="Helvetica,sans-Serif" font-size="10.00">src/Model.cpp</text>
</a>
</g>
</g>
<!-- Node10&#45;&gt;Node12 -->
<g id="edge19_Node000010_Node000012" class="edge">
<title>Node10&#45;&gt;Node12</title>
<g id="a_edge19_Node000010_Node000012"><a xlink:title=" ">
<path fill="none" stroke="#63b8ff" d="M1373.27,-114.9C1297.17,-104.28 1141.58,-82.57 1068.96,-72.44"/>
<polygon fill="#63b8ff" stroke="#63b8ff" points="1372.45,-118.32 1382.84,-116.23 1373.42,-111.38 1372.45,-118.32"/>
</a>
</g>
</g>
<!-- Node13&#45;&gt;Node2 -->
<g id="edge22_Node000013_Node000002" class="edge">
<title>Node13&#45;&gt;Node2</title>
<g id="a_edge22_Node000013_Node000002"><a xlink:title=" ">
<path fill="none" stroke="#63b8ff" d="M332.37,-193.93C356.17,-207.62 389.76,-228.1 420,-244 445.52,-257.42 475.8,-270.98 493.92,-279.65"/>
<polygon fill="#63b8ff" stroke="#63b8ff" points="334.24,-190.97 323.81,-189.09 330.79,-197.06 334.24,-190.97"/>
</a>
</g>
</g>
<!-- Node13&#45;&gt;Node5 -->
<g id="edge21_Node000013_Node000005" class="edge">
<title>Node13&#45;&gt;Node5</title>
<g id="a_edge21_Node000013_Node000005"><a xlink:title=" ">
<path fill="none" stroke="#63b8ff" d="M308.11,-156.64C315.29,-132.72 326.89,-94.03 332.19,-76.35"/>
<polygon fill="#63b8ff" stroke="#63b8ff" points="304.77,-155.59 305.25,-166.17 311.47,-157.6 304.77,-155.59"/>
</a>
</g>
</g>
<!-- Node14 -->
<g id="Node000014" class="node">
<title>Node14</title>
<g id="a_Node000014"><a xlink:href="_material_8cpp.html" target="_top" xlink:title=" ">
<polygon fill="white" stroke="#666666" points="825.88,-132 740.12,-132 740.12,-112 825.88,-112 825.88,-132"/>
<text text-anchor="middle" x="783" y="-118.5" font-family="Helvetica,sans-Serif" font-size="10.00">src/Material.cpp</text>
</a>
</g>
</g>
<!-- Node13&#45;&gt;Node14 -->
<g id="edge23_Node000013_Node000014" class="edge">
<title>Node13&#45;&gt;Node14</title>
<g id="a_edge23_Node000013_Node000014"><a xlink:title=" ">
<path fill="none" stroke="#63b8ff" d="M350.94,-171.51C445.22,-160.92 650.57,-137.87 739.97,-127.83"/>
<polygon fill="#63b8ff" stroke="#63b8ff" points="350.79,-168 341.25,-172.59 351.58,-174.96 350.79,-168"/>
</a>
</g>
</g>
<!-- Node13&#45;&gt;Node15 -->
<g id="edge24_Node000013_Node000015" class="edge">
<title>Node13&#45;&gt;Node15</title>
<g id="a_edge24_Node000013_Node000015"><a xlink:title=" ">
<path fill="none" stroke="#63b8ff" d="M351.15,-165.66C396.43,-155.21 462.42,-139.98 502.08,-130.83"/>
<polygon fill="#63b8ff" stroke="#63b8ff" points="350.55,-162.2 341.59,-167.86 352.12,-169.03 350.55,-162.2"/>
</a>
</g>
</g>
<!-- Node15&#45;&gt;Node2 -->
<g id="edge26_Node000015_Node000002" class="edge">
<title>Node15&#45;&gt;Node2</title>
<g id="a_edge26_Node000015_Node000002"><a xlink:title=" ">
<path fill="none" stroke="#63b8ff" d="M541.44,-143.45C542.58,-167.66 539.23,-209.1 532,-244 529.38,-256.66 524.66,-270.83 519.32,-279.83"/>
<polygon fill="#63b8ff" stroke="#63b8ff" points="544.95,-143.34 540.54,-133.71 537.98,-143.99 544.95,-143.34"/>
</a>
</g>
</g>
<!-- Node15&#45;&gt;Node5 -->
<g id="edge25_Node000015_Node000005" class="edge">
<title>Node15&#45;&gt;Node5</title>
<g id="a_edge25_Node000015_Node000005"><a xlink:title=" ">
<path fill="none" stroke="#63b8ff" d="M491.51,-109.05C454.94,-99.22 403.84,-85.49 370.1,-76.43"/>
<polygon fill="#63b8ff" stroke="#63b8ff" points="490.33,-112.35 500.9,-111.57 492.15,-105.59 490.33,-112.35"/>
</a>
</g>
</g>
<!-- Node15&#45;&gt;Node11 -->
<g id="edge27_Node000015_Node000011" class="edge">
<title>Node15&#45;&gt;Node11</title>
<g id="a_edge27_Node000015_Node000011"><a xlink:title=" ">
<path fill="none" stroke="#63b8ff" d="M580.84,-114.95C660.21,-104.23 824.04,-82.11 898.14,-72.11"/>
<polygon fill="#63b8ff" stroke="#63b8ff" points="580.7,-111.43 571.26,-116.24 581.64,-118.37 580.7,-111.43"/>
</a>
</g>
</g>
<!-- Node15&#45;&gt;Node12 -->
<g id="edge28_Node000015_Node000012" class="edge">
<title>Node15&#45;&gt;Node12</title>
<g id="a_edge28_Node000015_Node000012"><a xlink:title=" ">
<path fill="none" stroke="#63b8ff" d="M581.24,-117.78C662.12,-111.73 836.76,-97.32 983,-76 985.55,-75.63 988.17,-75.21 990.81,-74.78"/>
<polygon fill="#63b8ff" stroke="#63b8ff" points="580.99,-114.29 571.28,-118.52 581.51,-121.27 580.99,-114.29"/>
</a>
</g>
</g>
<!-- Node16&#45;&gt;Node2 -->
<g id="edge33_Node000016_Node000002" class="edge">
<title>Node16&#45;&gt;Node2</title>
<g id="a_edge33_Node000016_Node000002"><a xlink:title=" ">
<path fill="none" stroke="#63b8ff" d="M487.05,-252.58C494.79,-261.58 502.66,-272.16 506.95,-279.59"/>
<polygon fill="#63b8ff" stroke="#63b8ff" points="489.83,-250.44 480.5,-245.42 484.66,-255.16 489.83,-250.44"/>
</a>
</g>
</g>
<!-- Node16&#45;&gt;Node5 -->
<g id="edge32_Node000016_Node000005" class="edge">
<title>Node16&#45;&gt;Node5</title>
<g id="a_edge32_Node000016_Node000005"><a xlink:title=" ">
<path fill="none" stroke="#63b8ff" d="M430.91,-218.93C415.77,-211.57 398.94,-201.29 387,-188 356.13,-153.65 341.6,-98.17 336.84,-76.29"/>
<polygon fill="#63b8ff" stroke="#63b8ff" points="429.12,-221.96 439.67,-222.93 432.03,-215.59 429.12,-221.96"/>
</a>
</g>
</g>
<!-- Node16&#45;&gt;Node13 -->
<g id="edge34_Node000016_Node000013" class="edge">
<title>Node16&#45;&gt;Node13</title>
<g id="a_edge34_Node000016_Node000013"><a xlink:title=" ">
<path fill="none" stroke="#63b8ff" d="M427.43,-220.05C397.72,-210.33 357.73,-197.24 330.97,-188.48"/>
<polygon fill="#63b8ff" stroke="#63b8ff" points="426.23,-223.34 436.82,-223.12 428.41,-216.69 426.23,-223.34"/>
</a>
</g>
</g>
<!-- Node17 -->
<g id="Node000017" class="node">
<title>Node17</title>
<g id="a_Node000017"><a xlink:href="_render_state_8cpp.html" target="_top" xlink:title=" ">
<polygon fill="white" stroke="#666666" points="731.62,-188 626.38,-188 626.38,-168 731.62,-168 731.62,-188"/>
<text text-anchor="middle" x="679" y="-174.5" font-family="Helvetica,sans-Serif" font-size="10.00">src/RenderState.cpp</text>
</a>
</g>
</g>
<!-- Node16&#45;&gt;Node17 -->
<g id="edge35_Node000016_Node000017" class="edge">
<title>Node16&#45;&gt;Node17</title>
<g id="a_edge35_Node000016_Node000017"><a xlink:title=" ">
<path fill="none" stroke="#63b8ff" d="M514.85,-220.81C553.28,-211.02 606.49,-197.47 641.78,-188.48"/>
<polygon fill="#63b8ff" stroke="#63b8ff" points="514.22,-217.36 505.39,-223.22 515.95,-224.14 514.22,-217.36"/>
</a>
</g>
</g>
<!-- Node19 -->
<g id="Node000019" class="node">
<title>Node19</title>
<g id="a_Node000019"><a xlink:href="_scene_8cpp.html" target="_top" xlink:title=" ">
<polygon fill="white" stroke="#666666" points="1329.5,-188 1250.5,-188 1250.5,-168 1329.5,-168 1329.5,-188"/>
<text text-anchor="middle" x="1290" y="-174.5" font-family="Helvetica,sans-Serif" font-size="10.00">src/Scene.cpp</text>
</a>
</g>
</g>
<!-- Node18&#45;&gt;Node19 -->
<g id="edge37_Node000018_Node000019" class="edge">
<title>Node18&#45;&gt;Node19</title>
<g id="a_edge37_Node000018_Node000019"><a xlink:title=" ">
<path fill="none" stroke="#63b8ff" d="M1256.4,-215.29C1264.74,-206.28 1274.54,-195.7 1281.39,-188.3"/>
<polygon fill="#63b8ff" stroke="#63b8ff" points="1253.96,-212.77 1249.74,-222.48 1259.1,-217.52 1253.96,-212.77"/>
</a>
</g>
</g>
<!-- Node20&#45;&gt;Node5 -->
<g id="edge39_Node000020_Node000005" class="edge">
<title>Node20&#45;&gt;Node5</title>
<g id="a_edge39_Node000020_Node000005"><a xlink:title=" ">
<path fill="none" stroke="#63b8ff" d="M631.73,-213.99C627.08,-206.01 621.69,-196.61 617,-188 598.83,-154.66 608.45,-134.67 578,-112 548.88,-90.32 452.05,-77.64 389.77,-71.53"/>
<polygon fill="#63b8ff" stroke="#63b8ff" points="628.63,-215.62 636.72,-222.46 634.67,-212.07 628.63,-215.62"/>
</a>
</g>
</g>
<!-- Node21 -->
<g id="Node000021" class="node">
<title>Node21</title>
<g id="a_Node000021"><a xlink:href="_shader_manager_8cpp.html" target="_top" xlink:title=" ">
<polygon fill="white" stroke="#666666" points="868.75,-188 749.25,-188 749.25,-168 868.75,-168 868.75,-188"/>
<text text-anchor="middle" x="809" y="-174.5" font-family="Helvetica,sans-Serif" font-size="10.00">src/ShaderManager.cpp</text>
</a>
</g>
</g>
<!-- Node20&#45;&gt;Node21 -->
<g id="edge40_Node000020_Node000021" class="edge">
<title>Node20&#45;&gt;Node21</title>
<g id="a_edge40_Node000020_Node000021"><a xlink:title=" ">
<path fill="none" stroke="#63b8ff" d="M682.81,-220.05C712.7,-210.33 752.93,-197.24 779.86,-188.48"/>
<polygon fill="#63b8ff" stroke="#63b8ff" points="681.78,-216.7 673.35,-223.13 683.95,-223.36 681.78,-216.7"/>
</a>
</g>
</g>
<!-- Node22&#45;&gt;Node2 -->
<g id="edge43_Node000022_Node000002" class="edge">
<title>Node22&#45;&gt;Node2</title>
<g id="a_edge43_Node000022_Node000002"><a xlink:title=" ">
<path fill="none" stroke="#63b8ff" d="M346.53,-247.14C387.48,-256.96 442.09,-270.59 476.47,-279.59"/>
<polygon fill="#63b8ff" stroke="#63b8ff" points="347.39,-243.75 336.85,-244.83 345.76,-250.56 347.39,-243.75"/>
</a>
</g>
</g>
<!-- Node22&#45;&gt;Node5 -->
<g id="edge42_Node000022_Node000005" class="edge">
<title>Node22&#45;&gt;Node5</title>
<g id="a_edge42_Node000022_Node000005"><a xlink:title=" ">
<path fill="none" stroke="#63b8ff" d="M272.76,-216C260.88,-203.35 248.97,-185.34 255,-168 268.75,-128.49 305.1,-92.81 323.69,-76.45"/>
<polygon fill="#63b8ff" stroke="#63b8ff" points="270.08,-218.28 279.68,-222.77 274.98,-213.28 270.08,-218.28"/>
</a>
</g>
</g>
<!-- Node22&#45;&gt;Node13 -->
<g id="edge44_Node000022_Node000013" class="edge">
<title>Node22&#45;&gt;Node13</title>
<g id="a_edge44_Node000022_Node000013"><a xlink:title=" ">
<path fill="none" stroke="#63b8ff" d="M295.81,-212.43C297.35,-204.11 299.05,-194.93 300.28,-188.3"/>
<polygon fill="#63b8ff" stroke="#63b8ff" points="292.4,-211.64 294.02,-222.11 299.28,-212.91 292.4,-211.64"/>
</a>
</g>
</g>
<!-- Node23 -->
<g id="Node000023" class="node">
<title>Node23</title>
<g id="a_Node000023"><a xlink:href="_shader_program_8cpp.html" target="_top" xlink:title=" ">
<polygon fill="white" stroke="#666666" points="514.38,-188 395.62,-188 395.62,-168 514.38,-168 514.38,-188"/>
<text text-anchor="middle" x="455" y="-174.5" font-family="Helvetica,sans-Serif" font-size="10.00">src/ShaderProgram.cpp</text>
</a>
</g>
</g>
<!-- Node22&#45;&gt;Node23 -->
<g id="edge45_Node000022_Node000023" class="edge">
<title>Node22&#45;&gt;Node23</title>
<g id="a_edge45_Node000022_Node000023"><a xlink:title=" ">
<path fill="none" stroke="#63b8ff" d="M331.09,-220.05C360.44,-210.33 399.95,-197.24 426.39,-188.48"/>
<polygon fill="#63b8ff" stroke="#63b8ff" points="330.22,-216.65 321.83,-223.12 332.42,-223.3 330.22,-216.65"/>
</a>
</g>
</g>
<!-- Node24&#45;&gt;Node4 -->
<g id="edge48_Node000024_Node000004" class="edge">
<title>Node24&#45;&gt;Node4</title>
<g id="a_edge48_Node000024_Node000004"><a xlink:title=" ">
<path fill="none" stroke="#63b8ff" d="M950,-231.09C839.38,-225.7 519.96,-209.35 255,-188 239.5,-186.75 222.53,-185.12 207.55,-183.59"/>
<polygon fill="#63b8ff" stroke="#63b8ff" points="949.58,-234.58 959.74,-231.57 949.92,-227.59 949.58,-234.58"/>
</a>
</g>
</g>
<!-- Node24&#45;&gt;Node6 -->
<g id="edge49_Node000024_Node000006" class="edge">
<title>Node24&#45;&gt;Node6</title>
<g id="a_edge49_Node000024_Node000006"><a xlink:title=" ">
<path fill="none" stroke="#63b8ff" d="M1019.31,-217.87C1031.12,-210.39 1043.85,-200.3 1052,-188 1085.04,-138.17 1117.71,-100.7 1078,-56 1057.21,-32.59 860.54,-19.22 759.02,-13.82"/>
<polygon fill="#63b8ff" stroke="#63b8ff" points="1017.85,-214.67 1011.03,-222.77 1021.42,-220.69 1017.85,-214.67"/>
</a>
</g>
</g>
<!-- Node24&#45;&gt;Node7 -->
<g id="edge50_Node000024_Node000007" class="edge">
<title>Node24&#45;&gt;Node7</title>
<g id="a_edge50_Node000024_Node000007"><a xlink:title=" ">
<path fill="none" stroke="#63b8ff" d="M1029.33,-221.76C1063.82,-211.91 1113.38,-197.75 1145.88,-188.46"/>
<polygon fill="#63b8ff" stroke="#63b8ff" points="1028.81,-218.27 1020.16,-224.38 1030.74,-225 1028.81,-218.27"/>
</a>
</g>
</g>
<!-- Node24&#45;&gt;Node9 -->
<g id="edge51_Node000024_Node000009" class="edge">
<title>Node24&#45;&gt;Node9</title>
<g id="a_edge51_Node000024_Node000009"><a xlink:title=" ">
<path fill="none" stroke="#63b8ff" d="M1029.68,-227.88C1094.29,-219.55 1226.25,-202.51 1338,-188 1341,-187.61 1344.06,-187.21 1347.16,-186.81"/>
<polygon fill="#63b8ff" stroke="#63b8ff" points="1029.39,-224.39 1019.92,-229.14 1030.29,-231.33 1029.39,-224.39"/>
</a>
</g>
</g>
<!-- Node24&#45;&gt;Node11 -->
<g id="edge53_Node000024_Node000011" class="edge">
<title>Node24&#45;&gt;Node11</title>
<g id="a_edge53_Node000024_Node000011"><a xlink:title=" ">
<path fill="none" stroke="#63b8ff" d="M997.99,-213.03C1002.07,-200.03 1005.35,-182.8 1001,-168 989.88,-130.19 959.75,-93.16 944.74,-76.36"/>
<polygon fill="#63b8ff" stroke="#63b8ff" points="994.8,-211.57 994.73,-222.16 1001.39,-213.92 994.8,-211.57"/>
</a>
</g>
</g>
<!-- Node24&#45;&gt;Node12 -->
<g id="edge54_Node000024_Node000012" class="edge">
<title>Node24&#45;&gt;Node12</title>
<g id="a_edge54_Node000024_Node000012"><a xlink:title=" ">
<path fill="none" stroke="#63b8ff" d="M1012.71,-216.71C1021.41,-209.09 1030.36,-199.21 1035,-188 1051.09,-149.15 1038.99,-97.15 1032.92,-76.26"/>
<polygon fill="#63b8ff" stroke="#63b8ff" points="1010.69,-213.84 1005.11,-222.85 1015.09,-219.29 1010.69,-213.84"/>
</a>
</g>
</g>
<!-- Node24&#45;&gt;Node14 -->
<g id="edge52_Node000024_Node000014" class="edge">
<title>Node24&#45;&gt;Node14</title>
<g id="a_edge52_Node000024_Node000014"><a xlink:title=" ">
<path fill="none" stroke="#63b8ff" d="M964.89,-217.62C942.42,-204.05 908.4,-183.99 878,-168 852.96,-154.83 823.42,-141.11 804,-132.34"/>
<polygon fill="#63b8ff" stroke="#63b8ff" points="962.99,-220.56 973.35,-222.76 966.62,-214.58 962.99,-220.56"/>
</a>
</g>
</g>
<!-- Node24&#45;&gt;Node17 -->
<g id="edge55_Node000024_Node000017" class="edge">
<title>Node24&#45;&gt;Node17</title>
<g id="a_edge55_Node000024_Node000017"><a xlink:title=" ">
<path fill="none" stroke="#63b8ff" d="M950.17,-226.08C894.67,-216.45 793.92,-198.95 732.09,-188.22"/>
<polygon fill="#63b8ff" stroke="#63b8ff" points="949.36,-229.5 959.81,-227.76 950.55,-222.6 949.36,-229.5"/>
</a>
</g>
</g>
<!-- Node24&#45;&gt;Node19 -->
<g id="edge56_Node000024_Node000019" class="edge">
<title>Node24&#45;&gt;Node19</title>
<g id="a_edge56_Node000024_Node000019"><a xlink:title=" ">
<path fill="none" stroke="#63b8ff" d="M1029.94,-225.98C1079.65,-217.21 1167.13,-201.7 1242,-188 1244.67,-187.51 1247.42,-187 1250.19,-186.49"/>
<polygon fill="#63b8ff" stroke="#63b8ff" points="1029.47,-222.51 1020.23,-227.69 1030.68,-229.4 1029.47,-222.51"/>
</a>
</g>
</g>
<!-- Node24&#45;&gt;Node21 -->
<g id="edge57_Node000024_Node000021" class="edge">
<title>Node24&#45;&gt;Node21</title>
<g id="a_edge57_Node000024_Node000021"><a xlink:title=" ">
<path fill="none" stroke="#63b8ff" d="M950.69,-221.27C917.71,-211.43 871.2,-197.56 840.59,-188.42"/>
<polygon fill="#63b8ff" stroke="#63b8ff" points="949.29,-224.51 959.87,-224.01 951.29,-217.8 949.29,-224.51"/>
</a>
</g>
</g>
<!-- Node24&#45;&gt;Node23 -->
<g id="edge58_Node000024_Node000023" class="edge">
<title>Node24&#45;&gt;Node23</title>
<g id="a_edge58_Node000024_Node000023"><a xlink:title=" ">
<path fill="none" stroke="#63b8ff" d="M950.19,-228.98C857.07,-219.58 624.61,-196.12 514.56,-185.01"/>
<polygon fill="#63b8ff" stroke="#63b8ff" points="949.81,-232.46 960.11,-229.98 950.51,-225.5 949.81,-232.46"/>
</a>
</g>
</g>
<!-- Node24&#45;&gt;Node25 -->
<g id="edge59_Node000024_Node000025" class="edge">
<title>Node24&#45;&gt;Node25</title>
<g id="a_edge59_Node000024_Node000025"><a xlink:title=" ">
<path fill="none" stroke="#63b8ff" d="M1029.98,-229.38C1131.31,-220.2 1398.87,-195.95 1522.15,-184.79"/>
<polygon fill="#63b8ff" stroke="#63b8ff" points="1029.9,-225.87 1020.25,-230.26 1030.53,-232.84 1029.9,-225.87"/>
</a>
</g>
</g>
<!-- Node26 -->
<g id="Node000026" class="node">
<title>Node26</title>
<g id="a_Node000026"><a xlink:href="pch_8cpp.html" target="_top" xlink:title=" ">
<polygon fill="white" stroke="#666666" points="992.5,-188 925.5,-188 925.5,-168 992.5,-168 992.5,-188"/>
<text text-anchor="middle" x="959" y="-174.5" font-family="Helvetica,sans-Serif" font-size="10.00">src/pch.cpp</text>
</a>
</g>
</g>
<!-- Node24&#45;&gt;Node26 -->
<g id="edge60_Node000024_Node000026" class="edge">
<title>Node24&#45;&gt;Node26</title>
<g id="a_edge60_Node000024_Node000026"><a xlink:title=" ">
<path fill="none" stroke="#63b8ff" d="M979.02,-213.87C974.03,-205.19 968.37,-195.32 964.34,-188.3"/>
<polygon fill="#63b8ff" stroke="#63b8ff" points="975.83,-215.35 983.85,-222.28 981.9,-211.87 975.83,-215.35"/>
</a>
</g>
</g>
</g>
</svg>
