<?xml version="1.0" encoding="UTF-8" standalone="no"?>
<!DOCTYPE svg PUBLIC "-//W3C//DTD SVG 1.1//EN"
 "http://www.w3.org/Graphics/SVG/1.1/DTD/svg11.dtd">
<!-- Generated by graphviz version 9.0.0 (20230911.1827)
 -->
<!-- Title: Material Pages: 1 -->
<svg width="596pt" height="1140pt"
 viewBox="0.00 0.00 596.40 1140.00" xmlns="http://www.w3.org/2000/svg" xmlns:xlink="http://www.w3.org/1999/xlink">
<g id="graph0" class="graph" transform="scale(1 1) rotate(0) translate(4 1136)">
<title>Material</title>
<!-- Node1 -->
<g id="Node000001" class="node">
<title>Node1</title>
<g id="a_Node000001"><a xlink:title=" ">
<polygon fill="#999999" stroke="none" points="343.4,-188 55.4,-188 55.4,0 343.4,0 343.4,-188"/>
<text text-anchor="start" x="182.15" y="-174.5" font-family="Helvetica,sans-Serif" font-size="10.00">Material</text>
<text text-anchor="start" x="60.9" y="-158.5" font-family="Helvetica,sans-Serif" font-size="10.00">&#45;</text>
<text text-anchor="start" x="69.4" y="-158.5" font-family="Helvetica,sans-Serif" font-size="10.00">ID3D11ShaderResourceView * textureSRV</text>
<text text-anchor="start" x="60.9" y="-142.5" font-family="Helvetica,sans-Serif" font-size="10.00">&#45;</text>
<text text-anchor="start" x="69.4" y="-142.5" font-family="Helvetica,sans-Serif" font-size="10.00">bool transparent</text>
<text text-anchor="start" x="59.4" y="-126.5" font-family="Helvetica,sans-Serif" font-size="10.00">+</text>
<text text-anchor="start" x="69.4" y="-126.5" font-family="Helvetica,sans-Serif" font-size="10.00">Material(GraphicsDevice *graphicsDevice, std::shared</text>
<text text-anchor="start" x="69.4" y="-114.5" font-family="Helvetica,sans-Serif" font-size="10.00">_ptr&lt; ShaderProgram &gt; shader, RenderState *renderState,</text>
<text text-anchor="start" x="69.4" y="-102.5" font-family="Helvetica,sans-Serif" font-size="10.00"> bool transparent)</text>
<text text-anchor="start" x="59.4" y="-86.5" font-family="Helvetica,sans-Serif" font-size="10.00">+</text>
<text text-anchor="start" x="69.4" y="-86.5" font-family="Helvetica,sans-Serif" font-size="10.00">void LoadTexture(LPCSTR filename)</text>
<text text-anchor="start" x="59.4" y="-70.5" font-family="Helvetica,sans-Serif" font-size="10.00">+</text>
<text text-anchor="start" x="69.4" y="-70.5" font-family="Helvetica,sans-Serif" font-size="10.00">void SetConstantBuffer(ConstantBuffer cb)</text>
<text text-anchor="start" x="59.4" y="-54.5" font-family="Helvetica,sans-Serif" font-size="10.00">+</text>
<text text-anchor="start" x="69.4" y="-54.5" font-family="Helvetica,sans-Serif" font-size="10.00">void Setup()</text>
<text text-anchor="start" x="59.4" y="-38.5" font-family="Helvetica,sans-Serif" font-size="10.00">+</text>
<text text-anchor="start" x="69.4" y="-38.5" font-family="Helvetica,sans-Serif" font-size="10.00">bool isTransparent()</text>
<text text-anchor="start" x="59.4" y="-22.5" font-family="Helvetica,sans-Serif" font-size="10.00">+</text>
<text text-anchor="start" x="69.4" y="-22.5" font-family="Helvetica,sans-Serif" font-size="10.00">std::shared_ptr&lt; ShaderProgram &gt; GetShaderProgram() const</text>
<text text-anchor="start" x="59.4" y="-6.5" font-family="Helvetica,sans-Serif" font-size="10.00">+</text>
<text text-anchor="start" x="69.4" y="-6.5" font-family="Helvetica,sans-Serif" font-size="10.00">RenderState * GetRenderState() const</text>
<polygon fill="#666666" stroke="#666666" points="55.4,-170 55.4,-170 343.4,-170 343.4,-170 55.4,-170"/>
<polygon fill="#666666" stroke="#666666" points="55.4,-138 55.4,-138 67.4,-138 67.4,-138 55.4,-138"/>
<polygon fill="#666666" stroke="#666666" points="67.4,-138 67.4,-138 343.4,-138 343.4,-138 67.4,-138"/>
<polygon fill="none" stroke="#666666" points="55.4,0 55.4,-188 343.4,-188 343.4,0 55.4,0"/>
</a>
</g>
</g>
<!-- Node2 -->
<g id="Node000002" class="node">
<title>Node2</title>
<g id="a_Node000002"><a xlink:title=" ">
<polygon fill="white" stroke="none" points="279.4,-288 119.4,-288 119.4,-236 279.4,-236 279.4,-288"/>
<text text-anchor="start" x="124.03" y="-274.5" font-family="Helvetica,sans-Serif" font-size="10.00">std::shared_ptr&lt; ShaderProgram &gt;</text>
<text text-anchor="start" x="197.9" y="-258.5" font-family="Helvetica,sans-Serif" font-size="10.00"> </text>
<text text-anchor="start" x="126.9" y="-242.5" font-family="Helvetica,sans-Serif" font-size="10.00">+</text>
<text text-anchor="start" x="140.4" y="-242.5" font-family="Helvetica,sans-Serif" font-size="10.00">ShaderProgram * operator&#45;&gt;()</text>
<polygon fill="#666666" stroke="#666666" points="119.4,-270 119.4,-270 279.4,-270 279.4,-270 119.4,-270"/>
<polygon fill="#666666" stroke="#666666" points="119.4,-254 119.4,-254 279.4,-254 279.4,-254 119.4,-254"/>
<polygon fill="none" stroke="#666666" points="119.4,-236 119.4,-288 279.4,-288 279.4,-236 119.4,-236"/>
</a>
</g>
</g>
<!-- Node2&#45;&gt;Node1 -->
<g id="edge1_Node000001_Node000002" class="edge">
<title>Node2&#45;&gt;Node1</title>
<g id="a_edge1_Node000001_Node000002"><a xlink:title=" ">
<path fill="none" stroke="#63b8ff" d="M199.4,-236.15C199.4,-226.07 199.4,-213.7 199.4,-200.51"/>
<polygon fill="none" stroke="#63b8ff" points="199.4,-200.55 195.4,-194.55 199.4,-188.55 203.4,-194.55 199.4,-200.55"/>
</a>
</g>
<text text-anchor="middle" x="217.03" y="-208.5" font-family="Helvetica,sans-Serif" font-size="10.00" fill="grey"> &#45;shader</text>
</g>
<!-- Node3 -->
<g id="Node000003" class="node">
<title>Node3</title>
<g id="a_Node000003"><a xlink:href="class_shader_program.html" target="_top" xlink:title=" ">
<polygon fill="white" stroke="none" points="377.9,-760 46.9,-760 46.9,-552 377.9,-552 377.9,-760"/>
<text text-anchor="start" x="178.65" y="-746.5" font-family="Helvetica,sans-Serif" font-size="10.00">ShaderProgram</text>
<text text-anchor="start" x="52.4" y="-730.5" font-family="Helvetica,sans-Serif" font-size="10.00">&#45;</text>
<text text-anchor="start" x="60.9" y="-730.5" font-family="Helvetica,sans-Serif" font-size="10.00">ID3D11VertexShader * vertexShader</text>
<text text-anchor="start" x="52.4" y="-714.5" font-family="Helvetica,sans-Serif" font-size="10.00">&#45;</text>
<text text-anchor="start" x="60.9" y="-714.5" font-family="Helvetica,sans-Serif" font-size="10.00">ID3D11PixelShader * pixelShader</text>
<text text-anchor="start" x="52.4" y="-698.5" font-family="Helvetica,sans-Serif" font-size="10.00">&#45;</text>
<text text-anchor="start" x="60.9" y="-698.5" font-family="Helvetica,sans-Serif" font-size="10.00">ID3D11InputLayout * inputLayout</text>
<text text-anchor="start" x="52.4" y="-682.5" font-family="Helvetica,sans-Serif" font-size="10.00">&#45;</text>
<text text-anchor="start" x="60.9" y="-682.5" font-family="Helvetica,sans-Serif" font-size="10.00">ID3D11Buffer * constantBuffer</text>
<text text-anchor="start" x="50.9" y="-666.5" font-family="Helvetica,sans-Serif" font-size="10.00">+</text>
<text text-anchor="start" x="60.9" y="-666.5" font-family="Helvetica,sans-Serif" font-size="10.00">ShaderProgram(GraphicsDevice *graphicsDevice)</text>
<text text-anchor="start" x="50.9" y="-650.5" font-family="Helvetica,sans-Serif" font-size="10.00">+</text>
<text text-anchor="start" x="60.9" y="-650.5" font-family="Helvetica,sans-Serif" font-size="10.00">void LoadShader(LPCSTR VSFilename, LPCSTR PSFilename)</text>
<text text-anchor="start" x="50.9" y="-634.5" font-family="Helvetica,sans-Serif" font-size="10.00">+</text>
<text text-anchor="start" x="60.9" y="-634.5" font-family="Helvetica,sans-Serif" font-size="10.00">void ClearResources()</text>
<text text-anchor="start" x="50.9" y="-618.5" font-family="Helvetica,sans-Serif" font-size="10.00">+</text>
<text text-anchor="start" x="60.9" y="-618.5" font-family="Helvetica,sans-Serif" font-size="10.00">void UpdateBuffers(ConstantBuffer cb)</text>
<text text-anchor="start" x="50.9" y="-602.5" font-family="Helvetica,sans-Serif" font-size="10.00">+</text>
<text text-anchor="start" x="60.9" y="-602.5" font-family="Helvetica,sans-Serif" font-size="10.00">void Bind()</text>
<text text-anchor="start" x="52.4" y="-586.5" font-family="Helvetica,sans-Serif" font-size="10.00">&#45;</text>
<text text-anchor="start" x="60.9" y="-586.5" font-family="Helvetica,sans-Serif" font-size="10.00">bool CompileHLSL(const std::string &amp;filename, ShaderType shaderType)</text>
<text text-anchor="start" x="52.4" y="-570.5" font-family="Helvetica,sans-Serif" font-size="10.00">&#45;</text>
<text text-anchor="start" x="60.9" y="-570.5" font-family="Helvetica,sans-Serif" font-size="10.00">std::vector&lt; byte &gt; LoadShaderFile(const std::string</text>
<text text-anchor="start" x="60.9" y="-558.5" font-family="Helvetica,sans-Serif" font-size="10.00"> &amp;filename, ShaderType shaderType)</text>
<polygon fill="#666666" stroke="#666666" points="46.9,-742 46.9,-742 377.9,-742 377.9,-742 46.9,-742"/>
<polygon fill="#666666" stroke="#666666" points="46.9,-678 46.9,-678 58.9,-678 58.9,-678 46.9,-678"/>
<polygon fill="#666666" stroke="#666666" points="58.9,-678 58.9,-678 377.9,-678 377.9,-678 58.9,-678"/>
<polygon fill="none" stroke="#666666" points="46.9,-552 46.9,-760 377.9,-760 377.9,-552 46.9,-552"/>
</a>
</g>
</g>
<!-- Node3&#45;&gt;Node2 -->
<g id="edge2_Node000002_Node000003" class="edge">
<title>Node3&#45;&gt;Node2</title>
<g id="a_edge2_Node000002_Node000003"><a xlink:title=" ">
<path fill="none" stroke="#63b8ff" d="M196.73,-552.13C196.11,-546 195.57,-539.93 195.15,-534 187.98,-432.92 190.16,-407.21 195.15,-306 195.23,-304.36 195.33,-302.68 195.44,-300.98"/>
<polygon fill="none" stroke="#63b8ff" points="195.46,-300.84 191.96,-294.53 196.44,-288.88 199.94,-295.19 195.46,-300.84"/>
</a>
</g>
<text text-anchor="middle" x="205.53" y="-416.5" font-family="Helvetica,sans-Serif" font-size="10.00" fill="grey"> +ptr</text>
</g>
<!-- Node4 -->
<g id="Node000004" class="node">
<title>Node4</title>
<g id="a_Node000004"><a xlink:href="class_graphics_device.html" target="_top" xlink:title=" ">
<polygon fill="white" stroke="none" points="344.9,-1132 79.9,-1132 79.9,-808 344.9,-808 344.9,-1132"/>
<text text-anchor="start" x="178.65" y="-1118.5" font-family="Helvetica,sans-Serif" font-size="10.00">GraphicsDevice</text>
<text text-anchor="start" x="85.4" y="-1102.5" font-family="Helvetica,sans-Serif" font-size="10.00">&#45;</text>
<text text-anchor="start" x="93.9" y="-1102.5" font-family="Helvetica,sans-Serif" font-size="10.00">ID3D11Device * device</text>
<text text-anchor="start" x="85.4" y="-1086.5" font-family="Helvetica,sans-Serif" font-size="10.00">&#45;</text>
<text text-anchor="start" x="93.9" y="-1086.5" font-family="Helvetica,sans-Serif" font-size="10.00">ID3D11DeviceContext * deviceContext</text>
<text text-anchor="start" x="85.4" y="-1070.5" font-family="Helvetica,sans-Serif" font-size="10.00">&#45;</text>
<text text-anchor="start" x="93.9" y="-1070.5" font-family="Helvetica,sans-Serif" font-size="10.00">IDXGISwapChain * swapChain</text>
<text text-anchor="start" x="85.4" y="-1054.5" font-family="Helvetica,sans-Serif" font-size="10.00">&#45;</text>
<text text-anchor="start" x="93.9" y="-1054.5" font-family="Helvetica,sans-Serif" font-size="10.00">ID3D11RenderTargetView * renderTargetView</text>
<text text-anchor="start" x="85.4" y="-1038.5" font-family="Helvetica,sans-Serif" font-size="10.00">&#45;</text>
<text text-anchor="start" x="93.9" y="-1038.5" font-family="Helvetica,sans-Serif" font-size="10.00">ID3D11DepthStencilView * depthStencilView</text>
<text text-anchor="start" x="85.4" y="-1022.5" font-family="Helvetica,sans-Serif" font-size="10.00">&#45;</text>
<text text-anchor="start" x="93.9" y="-1022.5" font-family="Helvetica,sans-Serif" font-size="10.00">ID3D11Texture2D * depthStencilBuffer</text>
<text text-anchor="start" x="85.4" y="-1006.5" font-family="Helvetica,sans-Serif" font-size="10.00">&#45;</text>
<text text-anchor="start" x="93.9" y="-1006.5" font-family="Helvetica,sans-Serif" font-size="10.00">int windowWidth</text>
<text text-anchor="start" x="85.4" y="-990.5" font-family="Helvetica,sans-Serif" font-size="10.00">&#45;</text>
<text text-anchor="start" x="93.9" y="-990.5" font-family="Helvetica,sans-Serif" font-size="10.00">int windowHeight</text>
<text text-anchor="start" x="85.4" y="-974.5" font-family="Helvetica,sans-Serif" font-size="10.00">&#45;</text>
<text text-anchor="start" x="93.9" y="-974.5" font-family="Helvetica,sans-Serif" font-size="10.00">HWND hWnd</text>
<text text-anchor="start" x="83.9" y="-958.5" font-family="Helvetica,sans-Serif" font-size="10.00">+</text>
<text text-anchor="start" x="93.9" y="-958.5" font-family="Helvetica,sans-Serif" font-size="10.00">void Initialize(HWND hWnd, int width, int height)</text>
<text text-anchor="start" x="83.9" y="-942.5" font-family="Helvetica,sans-Serif" font-size="10.00">+</text>
<text text-anchor="start" x="93.9" y="-942.5" font-family="Helvetica,sans-Serif" font-size="10.00">void ResizeBuffersAndViews(int width, int height)</text>
<text text-anchor="start" x="83.9" y="-926.5" font-family="Helvetica,sans-Serif" font-size="10.00">+</text>
<text text-anchor="start" x="93.9" y="-926.5" font-family="Helvetica,sans-Serif" font-size="10.00">ID3D11Device * GetDevice() const</text>
<text text-anchor="start" x="83.9" y="-910.5" font-family="Helvetica,sans-Serif" font-size="10.00">+</text>
<text text-anchor="start" x="93.9" y="-910.5" font-family="Helvetica,sans-Serif" font-size="10.00">ID3D11DeviceContext * GetDeviceContext() const</text>
<text text-anchor="start" x="83.9" y="-894.5" font-family="Helvetica,sans-Serif" font-size="10.00">+</text>
<text text-anchor="start" x="93.9" y="-894.5" font-family="Helvetica,sans-Serif" font-size="10.00">IDXGISwapChain * GetSwapChain() const</text>
<text text-anchor="start" x="83.9" y="-878.5" font-family="Helvetica,sans-Serif" font-size="10.00">+</text>
<text text-anchor="start" x="93.9" y="-878.5" font-family="Helvetica,sans-Serif" font-size="10.00">ID3D11RenderTargetView * GetRenderTargetView() const</text>
<text text-anchor="start" x="83.9" y="-862.5" font-family="Helvetica,sans-Serif" font-size="10.00">+</text>
<text text-anchor="start" x="93.9" y="-862.5" font-family="Helvetica,sans-Serif" font-size="10.00">ID3D11DepthStencilView * GetDepthStencilView() const</text>
<text text-anchor="start" x="83.9" y="-846.5" font-family="Helvetica,sans-Serif" font-size="10.00">+</text>
<text text-anchor="start" x="93.9" y="-846.5" font-family="Helvetica,sans-Serif" font-size="10.00">int GetWindowWidth()</text>
<text text-anchor="start" x="83.9" y="-830.5" font-family="Helvetica,sans-Serif" font-size="10.00">+</text>
<text text-anchor="start" x="93.9" y="-830.5" font-family="Helvetica,sans-Serif" font-size="10.00">int GetWindowHeight()</text>
<text text-anchor="start" x="83.9" y="-814.5" font-family="Helvetica,sans-Serif" font-size="10.00">+</text>
<text text-anchor="start" x="93.9" y="-814.5" font-family="Helvetica,sans-Serif" font-size="10.00">HWND GetHWND()</text>
<polygon fill="#666666" stroke="#666666" points="79.9,-1114 79.9,-1114 344.9,-1114 344.9,-1114 79.9,-1114"/>
<polygon fill="#666666" stroke="#666666" points="79.9,-970 79.9,-970 91.9,-970 91.9,-970 79.9,-970"/>
<polygon fill="#666666" stroke="#666666" points="91.9,-970 91.9,-970 344.9,-970 344.9,-970 91.9,-970"/>
<polygon fill="none" stroke="#666666" points="79.9,-808 79.9,-1132 344.9,-1132 344.9,-808 79.9,-808"/>
</a>
</g>
</g>
<!-- Node4&#45;&gt;Node1 -->
<g id="edge6_Node000001_Node000004" class="edge">
<title>Node4&#45;&gt;Node1</title>
<g id="a_edge6_Node000001_Node000004"><a xlink:title=" ">
<path fill="none" stroke="#63b8ff" d="M80.06,-837.76C62.61,-813.63 47.34,-787.35 37.4,-760 -42.9,-539 19.91,-453.03 110.4,-236 115.56,-223.62 121.77,-211.11 128.48,-198.91"/>
<polygon fill="none" stroke="#63b8ff" points="128.4,-199.04 127.88,-191.85 134.31,-188.6 134.84,-195.79 128.4,-199.04"/>
</a>
</g>
<text text-anchor="middle" x="116.03" y="-416.5" font-family="Helvetica,sans-Serif" font-size="10.00" fill="grey"> &#45;graphicsDevice</text>
</g>
<!-- Node4&#45;&gt;Node3 -->
<g id="edge3_Node000003_Node000004" class="edge">
<title>Node4&#45;&gt;Node3</title>
<g id="a_edge3_Node000003_Node000004"><a xlink:title=" ">
<path fill="none" stroke="#63b8ff" d="M212.4,-808.43C212.4,-796.39 212.4,-784.38 212.4,-772.7"/>
<polygon fill="none" stroke="#63b8ff" points="212.4,-772.57 208.4,-766.57 212.4,-760.57 216.4,-766.57 212.4,-772.57"/>
</a>
</g>
<text text-anchor="middle" x="248.03" y="-780.5" font-family="Helvetica,sans-Serif" font-size="10.00" fill="grey"> &#45;graphicsDevice</text>
</g>
<!-- Node5 -->
<g id="Node000005" class="node">
<title>Node5</title>
<g id="a_Node000005"><a xlink:href="class_render_state.html" target="_top" xlink:title=" ">
<polygon fill="white" stroke="none" points="588.4,-534 224.4,-534 224.4,-306 588.4,-306 588.4,-534"/>
<text text-anchor="start" x="379.4" y="-520.5" font-family="Helvetica,sans-Serif" font-size="10.00">RenderState</text>
<text text-anchor="start" x="229.9" y="-504.5" font-family="Helvetica,sans-Serif" font-size="10.00">&#45;</text>
<text text-anchor="start" x="238.4" y="-504.5" font-family="Helvetica,sans-Serif" font-size="10.00">ID3D11RasterizerState * rasterizerState</text>
<text text-anchor="start" x="229.9" y="-488.5" font-family="Helvetica,sans-Serif" font-size="10.00">&#45;</text>
<text text-anchor="start" x="238.4" y="-488.5" font-family="Helvetica,sans-Serif" font-size="10.00">ID3D11BlendState * blendState</text>
<text text-anchor="start" x="229.9" y="-472.5" font-family="Helvetica,sans-Serif" font-size="10.00">&#45;</text>
<text text-anchor="start" x="238.4" y="-472.5" font-family="Helvetica,sans-Serif" font-size="10.00">ID3D11DepthStencilState * depthStencilState</text>
<text text-anchor="start" x="229.9" y="-456.5" font-family="Helvetica,sans-Serif" font-size="10.00">&#45;</text>
<text text-anchor="start" x="238.4" y="-456.5" font-family="Helvetica,sans-Serif" font-size="10.00">ID3D11SamplerState * samplerState</text>
<text text-anchor="start" x="229.9" y="-440.5" font-family="Helvetica,sans-Serif" font-size="10.00">&#45;</text>
<text text-anchor="start" x="238.4" y="-440.5" font-family="Helvetica,sans-Serif" font-size="10.00">float blendFactor</text>
<text text-anchor="start" x="228.4" y="-424.5" font-family="Helvetica,sans-Serif" font-size="10.00">+</text>
<text text-anchor="start" x="238.4" y="-424.5" font-family="Helvetica,sans-Serif" font-size="10.00">RenderState(GraphicsDevice *graphicsDevice)</text>
<text text-anchor="start" x="228.4" y="-408.5" font-family="Helvetica,sans-Serif" font-size="10.00">+</text>
<text text-anchor="start" x="238.4" y="-408.5" font-family="Helvetica,sans-Serif" font-size="10.00">~RenderState()</text>
<text text-anchor="start" x="228.4" y="-392.5" font-family="Helvetica,sans-Serif" font-size="10.00">+</text>
<text text-anchor="start" x="238.4" y="-392.5" font-family="Helvetica,sans-Serif" font-size="10.00">void CreateRasterizerState(const D3D11_RASTERIZER_DESC &amp;rasterDesc)</text>
<text text-anchor="start" x="228.4" y="-376.5" font-family="Helvetica,sans-Serif" font-size="10.00">+</text>
<text text-anchor="start" x="238.4" y="-376.5" font-family="Helvetica,sans-Serif" font-size="10.00">void CreateBlendState(const D3D11_BLEND_DESC &amp;blendDesc)</text>
<text text-anchor="start" x="228.4" y="-360.5" font-family="Helvetica,sans-Serif" font-size="10.00">+</text>
<text text-anchor="start" x="238.4" y="-360.5" font-family="Helvetica,sans-Serif" font-size="10.00">void CreateBlendFactor(float, float, float, float)</text>
<text text-anchor="start" x="228.4" y="-344.5" font-family="Helvetica,sans-Serif" font-size="10.00">+</text>
<text text-anchor="start" x="238.4" y="-344.5" font-family="Helvetica,sans-Serif" font-size="10.00">void CreateDepthStencilState(const D3D11_DEPTH_STENCIL_DESC &amp;dsDesc)</text>
<text text-anchor="start" x="228.4" y="-328.5" font-family="Helvetica,sans-Serif" font-size="10.00">+</text>
<text text-anchor="start" x="238.4" y="-328.5" font-family="Helvetica,sans-Serif" font-size="10.00">void CreateSamplerState(const D3D11_SAMPLER_DESC &amp;sampDesc)</text>
<text text-anchor="start" x="228.4" y="-312.5" font-family="Helvetica,sans-Serif" font-size="10.00">+</text>
<text text-anchor="start" x="238.4" y="-312.5" font-family="Helvetica,sans-Serif" font-size="10.00">void SetState()</text>
<polygon fill="#666666" stroke="#666666" points="224.4,-516 224.4,-516 588.4,-516 588.4,-516 224.4,-516"/>
<polygon fill="#666666" stroke="#666666" points="224.4,-436 224.4,-436 236.4,-436 236.4,-436 224.4,-436"/>
<polygon fill="#666666" stroke="#666666" points="236.4,-436 236.4,-436 588.4,-436 588.4,-436 236.4,-436"/>
<polygon fill="none" stroke="#666666" points="224.4,-306 224.4,-534 588.4,-534 588.4,-306 224.4,-306"/>
</a>
</g>
</g>
<!-- Node4&#45;&gt;Node5 -->
<g id="edge5_Node000005_Node000004" class="edge">
<title>Node4&#45;&gt;Node5</title>
<g id="a_edge5_Node000005_Node000004"><a xlink:title=" ">
<path fill="none" stroke="#63b8ff" d="M344.71,-835.5C361.8,-811.91 376.96,-786.41 387.4,-760 413.92,-692.93 419.43,-612.55 417.96,-546.89"/>
<polygon fill="none" stroke="#63b8ff" points="417.96,-546.85 413.78,-540.98 417.6,-534.86 421.78,-540.74 417.96,-546.85"/>
</a>
</g>
<text text-anchor="middle" x="414.03" y="-780.5" font-family="Helvetica,sans-Serif" font-size="10.00" fill="grey"> &#45;graphicsDevice</text>
</g>
<!-- Node5&#45;&gt;Node1 -->
<g id="edge4_Node000001_Node000005" class="edge">
<title>Node5&#45;&gt;Node1</title>
<g id="a_edge4_Node000001_Node000005"><a xlink:title=" ">
<path fill="none" stroke="#63b8ff" d="M334.3,-306.14C312.03,-271.28 287.62,-233.08 265.76,-198.86"/>
<polygon fill="none" stroke="#63b8ff" points="265.7,-198.77 259.1,-195.87 259.24,-188.66 265.84,-191.56 265.7,-198.77"/>
</a>
</g>
<text text-anchor="middle" x="348.53" y="-258.5" font-family="Helvetica,sans-Serif" font-size="10.00" fill="grey"> &#45;renderState</text>
</g>
</g>
</svg>
