<?xml version="1.0" encoding="UTF-8" standalone="no"?>
<!DOCTYPE svg PUBLIC "-//W3C//DTD SVG 1.1//EN"
 "http://www.w3.org/Graphics/SVG/1.1/DTD/svg11.dtd">
<!-- Generated by graphviz version 9.0.0 (20230911.1827)
 -->
<!-- Title: DirectXManager::handleLeftDown Pages: 1 -->
<svg width="370pt" height="104pt"
 viewBox="0.00 0.00 370.00 104.00" xmlns="http://www.w3.org/2000/svg" xmlns:xlink="http://www.w3.org/1999/xlink">
<g id="graph0" class="graph" transform="scale(1 1) rotate(0) translate(4 100)">
<title>DirectXManager::handleLeftDown</title>
<!-- Node1 -->
<g id="Node000001" class="node">
<title>Node1</title>
<g id="a_Node000001"><a xlink:title=" ">
<polygon fill="#999999" stroke="#666666" points="158.5,-58 0,-58 0,-38 158.5,-38 158.5,-58"/>
<text text-anchor="middle" x="79.25" y="-44.5" font-family="Helvetica,sans-Serif" font-size="10.00">DirectXManager::handleLeftDown</text>
</a>
</g>
</g>
<!-- Node2 -->
<g id="Node000002" class="node">
<title>Node2</title>
<g id="a_Node000002"><a xlink:href="class_graphics_device.html#a28350dcab3e8059d360079f277649067" target="_top" xlink:title=" ">
<polygon fill="white" stroke="#666666" points="345.88,-96 210.62,-96 210.62,-76 345.88,-76 345.88,-96"/>
<text text-anchor="middle" x="278.25" y="-82.5" font-family="Helvetica,sans-Serif" font-size="10.00">GraphicsDevice::GetHWND</text>
</a>
</g>
</g>
<!-- Node1&#45;&gt;Node2 -->
<g id="edge1_Node000001_Node000002" class="edge">
<title>Node1&#45;&gt;Node2</title>
<g id="a_edge1_Node000001_Node000002"><a xlink:title=" ">
<path fill="none" stroke="#63b8ff" d="M134.6,-58.48C158.5,-63.09 186.78,-68.55 211.82,-73.38"/>
<polygon fill="#63b8ff" stroke="#63b8ff" points="211.11,-76.81 221.59,-75.26 212.43,-69.93 211.11,-76.81"/>
</a>
</g>
</g>
<!-- Node3 -->
<g id="Node000003" class="node">
<title>Node3</title>
<g id="a_Node000003"><a xlink:href="class_graphics_device.html#afb2cef3f85e50972191d7b44e598493c" target="_top" xlink:title=" ">
<polygon fill="white" stroke="#666666" points="362,-58 194.5,-58 194.5,-38 362,-38 362,-58"/>
<text text-anchor="middle" x="278.25" y="-44.5" font-family="Helvetica,sans-Serif" font-size="10.00">GraphicsDevice::GetWindowHeight</text>
</a>
</g>
</g>
<!-- Node1&#45;&gt;Node3 -->
<g id="edge2_Node000001_Node000003" class="edge">
<title>Node1&#45;&gt;Node3</title>
<g id="a_edge2_Node000001_Node000003"><a xlink:title=" ">
<path fill="none" stroke="#63b8ff" d="M158.96,-48C166.83,-48 174.87,-48 182.88,-48"/>
<polygon fill="#63b8ff" stroke="#63b8ff" points="182.63,-51.5 192.63,-48 182.63,-44.5 182.63,-51.5"/>
</a>
</g>
</g>
<!-- Node4 -->
<g id="Node000004" class="node">
<title>Node4</title>
<g id="a_Node000004"><a xlink:href="class_graphics_device.html#a9ce4e3a7ea6a35ded13381fb7c55a027" target="_top" xlink:title=" ">
<polygon fill="white" stroke="#666666" points="360.88,-20 195.62,-20 195.62,0 360.88,0 360.88,-20"/>
<text text-anchor="middle" x="278.25" y="-6.5" font-family="Helvetica,sans-Serif" font-size="10.00">GraphicsDevice::GetWindowWidth</text>
</a>
</g>
</g>
<!-- Node1&#45;&gt;Node4 -->
<g id="edge3_Node000001_Node000004" class="edge">
<title>Node1&#45;&gt;Node4</title>
<g id="a_edge3_Node000001_Node000004"><a xlink:title=" ">
<path fill="none" stroke="#63b8ff" d="M134.6,-37.52C158.5,-32.91 186.78,-27.45 211.82,-22.62"/>
<polygon fill="#63b8ff" stroke="#63b8ff" points="212.43,-26.07 221.59,-20.74 211.11,-19.19 212.43,-26.07"/>
</a>
</g>
</g>
</g>
</svg>
