<?xml version="1.0" encoding="UTF-8" standalone="no"?>
<!DOCTYPE svg PUBLIC "-//W3C//DTD SVG 1.1//EN"
 "http://www.w3.org/Graphics/SVG/1.1/DTD/svg11.dtd">
<!-- Generated by graphviz version 9.0.0 (20230911.1827)
 -->
<!-- Title: GraphicsDevice::GetDeviceContext Pages: 1 -->
<svg width="1070pt" height="218pt"
 viewBox="0.00 0.00 1069.50 218.00" xmlns="http://www.w3.org/2000/svg" xmlns:xlink="http://www.w3.org/1999/xlink">
<g id="graph0" class="graph" transform="scale(1 1) rotate(0) translate(4 214)">
<title>GraphicsDevice::GetDeviceContext</title>
<!-- Node1 -->
<g id="Node000001" class="node">
<title>Node1</title>
<g id="a_Node000001"><a xlink:title=" ">
<polygon fill="#999999" stroke="#666666" points="1061.5,-115 894,-115 894,-95 1061.5,-95 1061.5,-115"/>
<text text-anchor="middle" x="977.75" y="-101.5" font-family="Helvetica,sans-Serif" font-size="10.00">GraphicsDevice::GetDeviceContext</text>
</a>
</g>
</g>
<!-- Node2 -->
<g id="Node000002" class="node">
<title>Node2</title>
<g id="a_Node000002"><a xlink:href="class_shader_program.html#a81f529e752b02a577c0cde465f401000" target="_top" xlink:title=" ">
<polygon fill="white" stroke="#666666" points="837.38,-210 728.38,-210 728.38,-190 837.38,-190 837.38,-210"/>
<text text-anchor="middle" x="782.88" y="-196.5" font-family="Helvetica,sans-Serif" font-size="10.00">ShaderProgram::Bind</text>
</a>
</g>
</g>
<!-- Node1&#45;&gt;Node2 -->
<g id="edge1_Node000001_Node000002" class="edge">
<title>Node1&#45;&gt;Node2</title>
<g id="a_edge1_Node000001_Node000002"><a xlink:title=" ">
<path fill="none" stroke="#63b8ff" d="M952.52,-121.71C929.13,-137.3 892.3,-160.44 858,-176 846.54,-181.2 833.63,-185.79 821.83,-189.52"/>
<polygon fill="#63b8ff" stroke="#63b8ff" points="954.39,-124.67 960.72,-116.18 950.47,-118.87 954.39,-124.67"/>
</a>
</g>
</g>
<!-- Node3 -->
<g id="Node000003" class="node">
<title>Node3</title>
<g id="a_Node000003"><a xlink:href="class_mesh.html#afdd95c079fd0442afef8a6c421c8bfc9" target="_top" xlink:title=" ">
<polygon fill="white" stroke="#666666" points="664.62,-172 596.88,-172 596.88,-152 664.62,-152 664.62,-172"/>
<text text-anchor="middle" x="630.75" y="-158.5" font-family="Helvetica,sans-Serif" font-size="10.00">Mesh::Draw</text>
</a>
</g>
</g>
<!-- Node1&#45;&gt;Node3 -->
<g id="edge2_Node000001_Node000003" class="edge">
<title>Node1&#45;&gt;Node3</title>
<g id="a_edge2_Node000001_Node000003"><a xlink:title=" ">
<path fill="none" stroke="#63b8ff" d="M933.75,-118.8C911.38,-125.51 883.44,-133.15 858,-138 790.1,-150.94 709.3,-157.41 664.97,-160.2"/>
<polygon fill="#63b8ff" stroke="#63b8ff" points="934.59,-122.2 943.14,-115.94 932.55,-115.51 934.59,-122.2"/>
</a>
</g>
</g>
<!-- Node4 -->
<g id="Node000004" class="node">
<title>Node4</title>
<g id="a_Node000004"><a xlink:href="class_direct_x_manager.html#a939df5d867998c476f7c8fbacb39556d" target="_top" xlink:title=" ">
<polygon fill="white" stroke="#666666" points="553.75,-134 405,-134 405,-114 553.75,-114 553.75,-134"/>
<text text-anchor="middle" x="479.38" y="-120.5" font-family="Helvetica,sans-Serif" font-size="10.00">DirectXManager::RenderFrame</text>
</a>
</g>
</g>
<!-- Node1&#45;&gt;Node4 -->
<g id="edge7_Node000001_Node000004" class="edge">
<title>Node1&#45;&gt;Node4</title>
<g id="a_edge7_Node000001_Node000004"><a xlink:title=" ">
<path fill="none" stroke="#63b8ff" d="M882.28,-108.62C786.8,-112.27 641.25,-117.84 554,-121.18"/>
<polygon fill="#63b8ff" stroke="#63b8ff" points="882.3,-112.12 892.16,-108.24 882.03,-105.12 882.3,-112.12"/>
</a>
</g>
</g>
<!-- Node8 -->
<g id="Node000008" class="node">
<title>Node8</title>
<g id="a_Node000008"><a xlink:href="class_render_state.html#a6a48845d14ec5b7b8728549178626ce4" target="_top" xlink:title=" ">
<polygon fill="white" stroke="#666666" points="840,-96 725.75,-96 725.75,-76 840,-76 840,-96"/>
<text text-anchor="middle" x="782.88" y="-82.5" font-family="Helvetica,sans-Serif" font-size="10.00">RenderState::SetState</text>
</a>
</g>
</g>
<!-- Node1&#45;&gt;Node8 -->
<g id="edge8_Node000001_Node000008" class="edge">
<title>Node1&#45;&gt;Node8</title>
<g id="a_edge8_Node000001_Node000008"><a xlink:title=" ">
<path fill="none" stroke="#63b8ff" d="M882.14,-95.68C867.86,-94.27 853.53,-92.86 840.4,-91.57"/>
<polygon fill="#63b8ff" stroke="#63b8ff" points="881.75,-99.16 892.05,-96.66 882.44,-92.19 881.75,-99.16"/>
</a>
</g>
</g>
<!-- Node9 -->
<g id="Node000009" class="node">
<title>Node9</title>
<g id="a_Node000009"><a xlink:href="class_material.html#a031a68217b55fb3c46a01757c58eb836" target="_top" xlink:title=" ">
<polygon fill="white" stroke="#666666" points="671.75,-96 589.75,-96 589.75,-76 671.75,-76 671.75,-96"/>
<text text-anchor="middle" x="630.75" y="-82.5" font-family="Helvetica,sans-Serif" font-size="10.00">Material::Setup</text>
</a>
</g>
</g>
<!-- Node1&#45;&gt;Node9 -->
<g id="edge11_Node000001_Node000009" class="edge">
<title>Node1&#45;&gt;Node9</title>
<g id="a_edge11_Node000001_Node000009"><a xlink:title=" ">
<path fill="none" stroke="#63b8ff" d="M941.11,-90.4C917.88,-81.68 886.67,-71.48 858,-67 792.02,-56.7 774.03,-58.84 707.75,-67 693.85,-68.71 678.83,-72.12 665.84,-75.59"/>
<polygon fill="#63b8ff" stroke="#63b8ff" points="939.82,-93.65 950.41,-93.98 942.33,-87.12 939.82,-93.65"/>
</a>
</g>
</g>
<!-- Node10 -->
<g id="Node000010" class="node">
<title>Node10</title>
<g id="a_Node000010"><a xlink:href="class_shader_program.html#a0495827219d2b682f0f255a4f11edba4" target="_top" xlink:title=" ">
<polygon fill="white" stroke="#666666" points="858,-20 707.75,-20 707.75,0 858,0 858,-20"/>
<text text-anchor="middle" x="782.88" y="-6.5" font-family="Helvetica,sans-Serif" font-size="10.00">ShaderProgram::UpdateBuffers</text>
</a>
</g>
</g>
<!-- Node1&#45;&gt;Node10 -->
<g id="edge12_Node000001_Node000010" class="edge">
<title>Node1&#45;&gt;Node10</title>
<g id="a_edge12_Node000001_Node000010"><a xlink:title=" ">
<path fill="none" stroke="#63b8ff" d="M952.52,-88.29C929.13,-72.7 892.3,-49.56 858,-34 846.54,-28.8 833.63,-24.21 821.83,-20.48"/>
<polygon fill="#63b8ff" stroke="#63b8ff" points="950.47,-91.13 960.72,-93.82 954.39,-85.33 950.47,-91.13"/>
</a>
</g>
</g>
<!-- Node3&#45;&gt;Node4 -->
<g id="edge3_Node000003_Node000004" class="edge">
<title>Node3&#45;&gt;Node4</title>
<g id="a_edge3_Node000003_Node000004"><a xlink:title=" ">
<path fill="none" stroke="#63b8ff" d="M585.45,-150.73C565.17,-145.57 541.3,-139.5 521.43,-134.44"/>
<polygon fill="#63b8ff" stroke="#63b8ff" points="584.58,-154.12 595.13,-153.19 586.3,-147.34 584.58,-154.12"/>
</a>
</g>
</g>
<!-- Node5 -->
<g id="Node000005" class="node">
<title>Node5</title>
<g id="a_Node000005"><a xlink:href="class_direct_x_manager.html#a2717dd089cad24c77c753ecc6bc139b2" target="_top" xlink:title=" ">
<polygon fill="white" stroke="#666666" points="369,-134 248,-134 248,-114 369,-114 369,-134"/>
<text text-anchor="middle" x="308.5" y="-120.5" font-family="Helvetica,sans-Serif" font-size="10.00">DirectXManager::Update</text>
</a>
</g>
</g>
<!-- Node4&#45;&gt;Node5 -->
<g id="edge4_Node000004_Node000005" class="edge">
<title>Node4&#45;&gt;Node5</title>
<g id="a_edge4_Node000004_Node000005"><a xlink:title=" ">
<path fill="none" stroke="#63b8ff" d="M393.38,-124C385.28,-124 377.2,-124 369.41,-124"/>
<polygon fill="#63b8ff" stroke="#63b8ff" points="393.28,-127.5 403.28,-124 393.28,-120.5 393.28,-127.5"/>
</a>
</g>
</g>
<!-- Node6 -->
<g id="Node000006" class="node">
<title>Node6</title>
<g id="a_Node000006"><a xlink:href="class_win32_application.html#a1d44083e5c10ac5faea4a4e0633898b6" target="_top" xlink:title=" ">
<polygon fill="white" stroke="#666666" points="212,-134 97,-134 97,-114 212,-114 212,-134"/>
<text text-anchor="middle" x="154.5" y="-120.5" font-family="Helvetica,sans-Serif" font-size="10.00">Win32Application::Run</text>
</a>
</g>
</g>
<!-- Node5&#45;&gt;Node6 -->
<g id="edge5_Node000005_Node000006" class="edge">
<title>Node5&#45;&gt;Node6</title>
<g id="a_edge5_Node000005_Node000006"><a xlink:title=" ">
<path fill="none" stroke="#63b8ff" d="M236.55,-124C228.48,-124 220.33,-124 212.48,-124"/>
<polygon fill="#63b8ff" stroke="#63b8ff" points="236.35,-127.5 246.35,-124 236.35,-120.5 236.35,-127.5"/>
</a>
</g>
</g>
<!-- Node7 -->
<g id="Node000007" class="node">
<title>Node7</title>
<g id="a_Node000007"><a xlink:href="_game_engine_8cpp.html#a1e683c5a19c00d05cd803e46b805e339" target="_top" xlink:title=" ">
<polygon fill="white" stroke="#666666" points="61,-134 0,-134 0,-114 61,-114 61,-134"/>
<text text-anchor="middle" x="30.5" y="-120.5" font-family="Helvetica,sans-Serif" font-size="10.00">wWinMain</text>
</a>
</g>
</g>
<!-- Node6&#45;&gt;Node7 -->
<g id="edge6_Node000006_Node000007" class="edge">
<title>Node6&#45;&gt;Node7</title>
<g id="a_edge6_Node000006_Node000007"><a xlink:title=" ">
<path fill="none" stroke="#63b8ff" d="M85.34,-124C76.99,-124 68.82,-124 61.47,-124"/>
<polygon fill="#63b8ff" stroke="#63b8ff" points="85.27,-127.5 95.27,-124 85.27,-120.5 85.27,-127.5"/>
</a>
</g>
</g>
<!-- Node8&#45;&gt;Node9 -->
<g id="edge9_Node000008_Node000009" class="edge">
<title>Node8&#45;&gt;Node9</title>
<g id="a_edge9_Node000008_Node000009"><a xlink:title=" ">
<path fill="none" stroke="#63b8ff" d="M714.12,-86C699.72,-86 684.97,-86 671.99,-86"/>
<polygon fill="#63b8ff" stroke="#63b8ff" points="714.03,-89.5 724.03,-86 714.03,-82.5 714.03,-89.5"/>
</a>
</g>
</g>
<!-- Node9&#45;&gt;Node4 -->
<g id="edge10_Node000009_Node000004" class="edge">
<title>Node9&#45;&gt;Node4</title>
<g id="a_edge10_Node000009_Node000004"><a xlink:title=" ">
<path fill="none" stroke="#63b8ff" d="M578.4,-99.06C559.86,-103.78 539.18,-109.04 521.61,-113.51"/>
<polygon fill="#63b8ff" stroke="#63b8ff" points="579.03,-102.51 587.86,-96.66 577.31,-95.73 579.03,-102.51"/>
</a>
</g>
</g>
</g>
</svg>
