<?xml version="1.0" encoding="UTF-8" standalone="no"?>
<!DOCTYPE svg PUBLIC "-//W3C//DTD SVG 1.1//EN"
 "http://www.w3.org/Graphics/SVG/1.1/DTD/svg11.dtd">
<!-- Generated by graphviz version 9.0.0 (20230911.1827)
 -->
<!-- Title: Model::SetPosition Pages: 1 -->
<svg width="757pt" height="66pt"
 viewBox="0.00 0.00 757.00 66.00" xmlns="http://www.w3.org/2000/svg" xmlns:xlink="http://www.w3.org/1999/xlink">
<g id="graph0" class="graph" transform="scale(1 1) rotate(0) translate(4 62)">
<title>Model::SetPosition</title>
<!-- Node1 -->
<g id="Node000001" class="node">
<title>Node1</title>
<g id="a_Node000001"><a xlink:title=" ">
<polygon fill="#999999" stroke="#666666" points="749,-39 650.5,-39 650.5,-19 749,-19 749,-39"/>
<text text-anchor="middle" x="699.75" y="-25.5" font-family="Helvetica,sans-Serif" font-size="10.00">Model::SetPosition</text>
</a>
</g>
</g>
<!-- Node2 -->
<g id="Node000002" class="node">
<title>Node2</title>
<g id="a_Node000002"><a xlink:href="class_direct_x_manager.html#a7f652b8737c1a55544f67b19b19f4d6a" target="_top" xlink:title=" ">
<polygon fill="white" stroke="#666666" points="614.5,-58 454.5,-58 454.5,-38 614.5,-38 614.5,-58"/>
<text text-anchor="middle" x="534.5" y="-44.5" font-family="Helvetica,sans-Serif" font-size="10.00">DirectXManager::handleKeyDown</text>
</a>
</g>
</g>
<!-- Node1&#45;&gt;Node2 -->
<g id="edge1_Node000001_Node000002" class="edge">
<title>Node1&#45;&gt;Node2</title>
<g id="a_edge1_Node000001_Node000002"><a xlink:title=" ">
<path fill="none" stroke="#63b8ff" d="M638.92,-35.96C631.04,-36.88 622.87,-37.83 614.73,-38.78"/>
<polygon fill="#63b8ff" stroke="#63b8ff" points="639.18,-39.46 648.71,-34.82 638.37,-32.5 639.18,-39.46"/>
</a>
</g>
</g>
<!-- Node6 -->
<g id="Node000006" class="node">
<title>Node6</title>
<g id="a_Node000006"><a xlink:href="class_direct_x_manager.html#ac95cceb904d9893d0b135c2bd9039b33" target="_top" xlink:title=" ">
<polygon fill="white" stroke="#666666" points="405,-20 279.5,-20 279.5,0 405,0 405,-20"/>
<text text-anchor="middle" x="342.25" y="-6.5" font-family="Helvetica,sans-Serif" font-size="10.00">DirectXManager::Initialize</text>
</a>
</g>
</g>
<!-- Node1&#45;&gt;Node6 -->
<g id="edge5_Node000001_Node000006" class="edge">
<title>Node1&#45;&gt;Node6</title>
<g id="a_edge5_Node000001_Node000006"><a xlink:title=" ">
<path fill="none" stroke="#63b8ff" d="M638.81,-25.8C573.96,-22.33 471.06,-16.83 405.37,-13.32"/>
<polygon fill="#63b8ff" stroke="#63b8ff" points="638.38,-29.28 648.55,-26.32 638.75,-22.29 638.38,-29.28"/>
</a>
</g>
</g>
<!-- Node3 -->
<g id="Node000003" class="node">
<title>Node3</title>
<g id="a_Node000003"><a xlink:href="class_win32_application.html#ae0aa88d9449557e8772fc70c1043e55c" target="_top" xlink:title=" ">
<polygon fill="white" stroke="#666666" points="418.5,-58 266,-58 266,-38 418.5,-38 418.5,-58"/>
<text text-anchor="middle" x="342.25" y="-44.5" font-family="Helvetica,sans-Serif" font-size="10.00">Win32Application::WindowProc</text>
</a>
</g>
</g>
<!-- Node2&#45;&gt;Node3 -->
<g id="edge2_Node000002_Node000003" class="edge">
<title>Node2&#45;&gt;Node3</title>
<g id="a_edge2_Node000002_Node000003"><a xlink:title=" ">
<path fill="none" stroke="#63b8ff" d="M442.85,-48C434.79,-48 426.68,-48 418.77,-48"/>
<polygon fill="#63b8ff" stroke="#63b8ff" points="442.68,-51.5 452.68,-48 442.68,-44.5 442.68,-51.5"/>
</a>
</g>
</g>
<!-- Node4 -->
<g id="Node000004" class="node">
<title>Node4</title>
<g id="a_Node000004"><a xlink:href="class_win32_application.html#a05c9e61b80735ab0b3fa576ebab260d6" target="_top" xlink:title=" ">
<polygon fill="white" stroke="#666666" points="230,-58 97,-58 97,-38 230,-38 230,-58"/>
<text text-anchor="middle" x="163.5" y="-44.5" font-family="Helvetica,sans-Serif" font-size="10.00">Win32Application::Initialize</text>
</a>
</g>
</g>
<!-- Node3&#45;&gt;Node4 -->
<g id="edge3_Node000003_Node000004" class="edge">
<title>Node3&#45;&gt;Node4</title>
<g id="a_edge3_Node000003_Node000004"><a xlink:title=" ">
<path fill="none" stroke="#63b8ff" d="M254.2,-48C246.17,-48 238.12,-48 230.32,-48"/>
<polygon fill="#63b8ff" stroke="#63b8ff" points="254.01,-51.5 264.01,-48 254.01,-44.5 254.01,-51.5"/>
</a>
</g>
</g>
<!-- Node5 -->
<g id="Node000005" class="node">
<title>Node5</title>
<g id="a_Node000005"><a xlink:href="_game_engine_8cpp.html#a1e683c5a19c00d05cd803e46b805e339" target="_top" xlink:title=" ">
<polygon fill="white" stroke="#666666" points="61,-39 0,-39 0,-19 61,-19 61,-39"/>
<text text-anchor="middle" x="30.5" y="-25.5" font-family="Helvetica,sans-Serif" font-size="10.00">wWinMain</text>
</a>
</g>
</g>
<!-- Node4&#45;&gt;Node5 -->
<g id="edge4_Node000004_Node000005" class="edge">
<title>Node4&#45;&gt;Node5</title>
<g id="a_edge4_Node000004_Node000005"><a xlink:title=" ">
<path fill="none" stroke="#63b8ff" d="M85.37,-36.81C76.9,-35.58 68.69,-34.39 61.35,-33.33"/>
<polygon fill="#63b8ff" stroke="#63b8ff" points="84.72,-40.26 95.12,-38.23 85.72,-33.33 84.72,-40.26"/>
</a>
</g>
</g>
<!-- Node6&#45;&gt;Node5 -->
<g id="edge6_Node000006_Node000005" class="edge">
<title>Node6&#45;&gt;Node5</title>
<g id="a_edge6_Node000006_Node000005"><a xlink:title=" ">
<path fill="none" stroke="#63b8ff" d="M268.17,-14.48C202.3,-18.52 108.75,-24.26 61.41,-27.17"/>
<polygon fill="#63b8ff" stroke="#63b8ff" points="268.03,-18 277.8,-13.89 267.61,-11.01 268.03,-18"/>
</a>
</g>
</g>
</g>
</svg>
