<?xml version="1.0" encoding="UTF-8" standalone="no"?>
<!DOCTYPE svg PUBLIC "-//W3C//DTD SVG 1.1//EN"
 "http://www.w3.org/Graphics/SVG/1.1/DTD/svg11.dtd">
<!-- Generated by graphviz version 9.0.0 (20230911.1827)
 -->
<!-- Title: ShaderProgram::LoadShader Pages: 1 -->
<svg width="527pt" height="66pt"
 viewBox="0.00 0.00 527.00 66.00" xmlns="http://www.w3.org/2000/svg" xmlns:xlink="http://www.w3.org/1999/xlink">
<g id="graph0" class="graph" transform="scale(1 1) rotate(0) translate(4 62)">
<title>ShaderProgram::LoadShader</title>
<!-- Node1 -->
<g id="Node000001" class="node">
<title>Node1</title>
<g id="a_Node000001"><a xlink:title=" ">
<polygon fill="#999999" stroke="#666666" points="141.25,-39 0,-39 0,-19 141.25,-19 141.25,-39"/>
<text text-anchor="middle" x="70.62" y="-25.5" font-family="Helvetica,sans-Serif" font-size="10.00">ShaderProgram::LoadShader</text>
</a>
</g>
</g>
<!-- Node2 -->
<g id="Node000002" class="node">
<title>Node2</title>
<g id="a_Node000002"><a xlink:href="class_graphics_device.html#a19aee842c4313e06ae7a456c2508eb51" target="_top" xlink:title=" ">
<polygon fill="white" stroke="#666666" points="322.62,-58 188.88,-58 188.88,-38 322.62,-38 322.62,-58"/>
<text text-anchor="middle" x="255.75" y="-44.5" font-family="Helvetica,sans-Serif" font-size="10.00">GraphicsDevice::GetDevice</text>
</a>
</g>
</g>
<!-- Node1&#45;&gt;Node2 -->
<g id="edge1_Node000001_Node000002" class="edge">
<title>Node1&#45;&gt;Node2</title>
<g id="a_edge1_Node000001_Node000002"><a xlink:title=" ">
<path fill="none" stroke="#63b8ff" d="M141.64,-36.26C153.27,-37.47 165.39,-38.73 177.2,-39.95"/>
<polygon fill="#63b8ff" stroke="#63b8ff" points="176.58,-43.41 186.89,-40.96 177.3,-36.45 176.58,-43.41"/>
</a>
</g>
</g>
<!-- Node3 -->
<g id="Node000003" class="node">
<title>Node3</title>
<g id="a_Node000003"><a xlink:href="class_shader_program.html#ae94d14696ac5bba6e5873153bb3242f2" target="_top" xlink:title=" ">
<polygon fill="white" stroke="#666666" points="334.25,-20 177.25,-20 177.25,0 334.25,0 334.25,-20"/>
<text text-anchor="middle" x="255.75" y="-6.5" font-family="Helvetica,sans-Serif" font-size="10.00">ShaderProgram::LoadShaderFile</text>
</a>
</g>
</g>
<!-- Node1&#45;&gt;Node3 -->
<g id="edge2_Node000001_Node000003" class="edge">
<title>Node1&#45;&gt;Node3</title>
<g id="a_edge2_Node000001_Node000003"><a xlink:title=" ">
<path fill="none" stroke="#63b8ff" d="M141.64,-21.74C149.46,-20.92 157.51,-20.09 165.53,-19.26"/>
<polygon fill="#63b8ff" stroke="#63b8ff" points="165.74,-22.75 175.33,-18.24 165.02,-15.79 165.74,-22.75"/>
</a>
</g>
</g>
<!-- Node4 -->
<g id="Node000004" class="node">
<title>Node4</title>
<g id="a_Node000004"><a xlink:href="class_shader_program.html#a36103195f14d296a331cb6424bbfe7d1" target="_top" xlink:title=" ">
<polygon fill="white" stroke="#666666" points="519,-20 370.25,-20 370.25,0 519,0 519,-20"/>
<text text-anchor="middle" x="444.62" y="-6.5" font-family="Helvetica,sans-Serif" font-size="10.00">ShaderProgram::CompileHLSL</text>
</a>
</g>
</g>
<!-- Node3&#45;&gt;Node4 -->
<g id="edge3_Node000003_Node000004" class="edge">
<title>Node3&#45;&gt;Node4</title>
<g id="a_edge3_Node000003_Node000004"><a xlink:title=" ">
<path fill="none" stroke="#63b8ff" d="M334.65,-10C342.61,-10 350.73,-10 358.77,-10"/>
<polygon fill="#63b8ff" stroke="#63b8ff" points="358.53,-13.5 368.53,-10 358.53,-6.5 358.53,-13.5"/>
</a>
</g>
</g>
</g>
</svg>
