<?xml version="1.0" encoding="UTF-8" standalone="no"?>
<!DOCTYPE svg PUBLIC "-//W3C//DTD SVG 1.1//EN"
 "http://www.w3.org/Graphics/SVG/1.1/DTD/svg11.dtd">
<!-- Generated by graphviz version 9.0.0 (20230911.1827)
 -->
<!-- Title: ShaderManager::GenerateShaderKey Pages: 1 -->
<svg width="1437pt" height="104pt"
 viewBox="0.00 0.00 1437.25 104.00" xmlns="http://www.w3.org/2000/svg" xmlns:xlink="http://www.w3.org/1999/xlink">
<g id="graph0" class="graph" transform="scale(1 1) rotate(0) translate(4 100)">
<title>ShaderManager::GenerateShaderKey</title>
<!-- Node1 -->
<g id="Node000001" class="node">
<title>Node1</title>
<g id="a_Node000001"><a xlink:title=" ">
<polygon fill="#999999" stroke="#666666" points="1429.25,-77 1251.25,-77 1251.25,-57 1429.25,-57 1429.25,-77"/>
<text text-anchor="middle" x="1340.25" y="-63.5" font-family="Helvetica,sans-Serif" font-size="10.00">ShaderManager::GenerateShaderKey</text>
</a>
</g>
</g>
<!-- Node2 -->
<g id="Node000002" class="node">
<title>Node2</title>
<g id="a_Node000002"><a xlink:href="class_shader_manager.html#a6d8ac1d497a7ae3d1da64456d24b94a3" target="_top" xlink:title=" ">
<polygon fill="white" stroke="#666666" points="1215.25,-96 1073.25,-96 1073.25,-76 1215.25,-76 1215.25,-96"/>
<text text-anchor="middle" x="1144.25" y="-82.5" font-family="Helvetica,sans-Serif" font-size="10.00">ShaderManager::LoadShader</text>
</a>
</g>
</g>
<!-- Node1&#45;&gt;Node2 -->
<g id="edge1_Node000001_Node000002" class="edge">
<title>Node1&#45;&gt;Node2</title>
<g id="a_edge1_Node000001_Node000002"><a xlink:title=" ">
<path fill="none" stroke="#63b8ff" d="M1239.41,-76.78C1231.37,-77.57 1223.35,-78.35 1215.59,-79.11"/>
<polygon fill="#63b8ff" stroke="#63b8ff" points="1239.65,-80.27 1249.26,-75.81 1238.97,-73.3 1239.65,-80.27"/>
</a>
</g>
</g>
<!-- Node5 -->
<g id="Node000005" class="node">
<title>Node5</title>
<g id="a_Node000005"><a xlink:href="class_shader_manager.html#ac6e7ac40f579b9ff0d44c91379e5e631" target="_top" xlink:title=" ">
<polygon fill="white" stroke="#666666" points="1037.25,-58 886.25,-58 886.25,-38 1037.25,-38 1037.25,-58"/>
<text text-anchor="middle" x="961.75" y="-44.5" font-family="Helvetica,sans-Serif" font-size="10.00">ShaderManager::ReloadShader</text>
</a>
</g>
</g>
<!-- Node1&#45;&gt;Node5 -->
<g id="edge13_Node000001_Node000005" class="edge">
<title>Node1&#45;&gt;Node5</title>
<g id="a_edge13_Node000001_Node000005"><a xlink:title=" ">
<path fill="none" stroke="#63b8ff" d="M1239.75,-61.98C1176.3,-58.78 1095.42,-54.7 1037.46,-51.77"/>
<polygon fill="#63b8ff" stroke="#63b8ff" points="1239.3,-65.46 1249.47,-62.47 1239.65,-58.47 1239.3,-65.46"/>
</a>
</g>
</g>
<!-- Node3 -->
<g id="Node000003" class="node">
<title>Node3</title>
<g id="a_Node000003"><a xlink:href="class_direct_x_manager.html#ac95cceb904d9893d0b135c2bd9039b33" target="_top" xlink:title=" ">
<polygon fill="white" stroke="#666666" points="813.5,-96 688,-96 688,-76 813.5,-76 813.5,-96"/>
<text text-anchor="middle" x="750.75" y="-82.5" font-family="Helvetica,sans-Serif" font-size="10.00">DirectXManager::Initialize</text>
</a>
</g>
</g>
<!-- Node2&#45;&gt;Node3 -->
<g id="edge2_Node000002_Node000003" class="edge">
<title>Node2&#45;&gt;Node3</title>
<g id="a_edge2_Node000002_Node000003"><a xlink:title=" ">
<path fill="none" stroke="#63b8ff" d="M1061.72,-86C987.96,-86 880.93,-86 813.89,-86"/>
<polygon fill="#63b8ff" stroke="#63b8ff" points="1061.29,-89.5 1071.29,-86 1061.29,-82.5 1061.29,-89.5"/>
</a>
</g>
</g>
<!-- Node2&#45;&gt;Node5 -->
<g id="edge4_Node000002_Node000005" class="edge">
<title>Node2&#45;&gt;Node5</title>
<g id="a_edge4_Node000002_Node000005"><a xlink:title=" ">
<path fill="none" stroke="#63b8ff" d="M1082.2,-73.15C1059.47,-68.36 1033.97,-62.99 1012.39,-58.45"/>
<polygon fill="#63b8ff" stroke="#63b8ff" points="1081.46,-76.57 1091.97,-75.2 1082.9,-69.72 1081.46,-76.57"/>
</a>
</g>
</g>
<!-- Node4 -->
<g id="Node000004" class="node">
<title>Node4</title>
<g id="a_Node000004"><a xlink:href="_game_engine_8cpp.html#a1e683c5a19c00d05cd803e46b805e339" target="_top" xlink:title=" ">
<polygon fill="white" stroke="#666666" points="61,-58 0,-58 0,-38 61,-38 61,-58"/>
<text text-anchor="middle" x="30.5" y="-44.5" font-family="Helvetica,sans-Serif" font-size="10.00">wWinMain</text>
</a>
</g>
</g>
<!-- Node3&#45;&gt;Node4 -->
<g id="edge3_Node000003_Node000004" class="edge">
<title>Node3&#45;&gt;Node4</title>
<g id="a_edge3_Node000003_Node000004"><a xlink:title=" ">
<path fill="none" stroke="#63b8ff" d="M676.28,-89.87C554.86,-94.93 305.05,-99.66 97,-67 85.19,-65.15 72.5,-61.8 61.47,-58.42"/>
<polygon fill="#63b8ff" stroke="#63b8ff" points="676.27,-93.37 686.11,-89.45 675.97,-86.38 676.27,-93.37"/>
</a>
</g>
</g>
<!-- Node6 -->
<g id="Node000006" class="node">
<title>Node6</title>
<g id="a_Node000006"><a xlink:href="class_shader_manager.html#a6eefb74e7cf9795b75f018a6e64ba931" target="_top" xlink:title=" ">
<polygon fill="white" stroke="#666666" points="850.25,-58 651.25,-58 651.25,-38 850.25,-38 850.25,-58"/>
<text text-anchor="middle" x="750.75" y="-44.5" font-family="Helvetica,sans-Serif" font-size="10.00">ShaderManager::CheckForShaderUpdates</text>
</a>
</g>
</g>
<!-- Node5&#45;&gt;Node6 -->
<g id="edge5_Node000005_Node000006" class="edge">
<title>Node5&#45;&gt;Node6</title>
<g id="a_edge5_Node000005_Node000006"><a xlink:title=" ">
<path fill="none" stroke="#63b8ff" d="M874.44,-48C866.54,-48 858.5,-48 850.51,-48"/>
<polygon fill="#63b8ff" stroke="#63b8ff" points="874.37,-51.5 884.37,-48 874.37,-44.5 874.37,-51.5"/>
</a>
</g>
</g>
<!-- Node7 -->
<g id="Node000007" class="node">
<title>Node7</title>
<g id="a_Node000007"><a xlink:href="class_direct_x_manager.html#a048268665d6ae0020237dc38917d3e47" target="_top" xlink:title=" ">
<polygon fill="white" stroke="#666666" points="615.25,-58 454.5,-58 454.5,-38 615.25,-38 615.25,-58"/>
<text text-anchor="middle" x="534.88" y="-44.5" font-family="Helvetica,sans-Serif" font-size="10.00">DirectXManager::handleSetFocus</text>
</a>
</g>
</g>
<!-- Node6&#45;&gt;Node7 -->
<g id="edge6_Node000006_Node000007" class="edge">
<title>Node6&#45;&gt;Node7</title>
<g id="a_edge6_Node000006_Node000007"><a xlink:title=" ">
<path fill="none" stroke="#63b8ff" d="M639.57,-48C631.52,-48 623.49,-48 615.67,-48"/>
<polygon fill="#63b8ff" stroke="#63b8ff" points="639.44,-51.5 649.44,-48 639.44,-44.5 639.44,-51.5"/>
</a>
</g>
</g>
<!-- Node10 -->
<g id="Node000010" class="node">
<title>Node10</title>
<g id="a_Node000010"><a xlink:href="class_direct_x_manager.html#a2717dd089cad24c77c753ecc6bc139b2" target="_top" xlink:title=" ">
<polygon fill="white" stroke="#666666" points="595.38,-20 474.38,-20 474.38,0 595.38,0 595.38,-20"/>
<text text-anchor="middle" x="534.88" y="-6.5" font-family="Helvetica,sans-Serif" font-size="10.00">DirectXManager::Update</text>
</a>
</g>
</g>
<!-- Node6&#45;&gt;Node10 -->
<g id="edge10_Node000006_Node000010" class="edge">
<title>Node6&#45;&gt;Node10</title>
<g id="a_edge10_Node000006_Node000010"><a xlink:title=" ">
<path fill="none" stroke="#63b8ff" d="M679.62,-35.54C652.14,-30.66 620.97,-25.12 594.69,-20.45"/>
<polygon fill="#63b8ff" stroke="#63b8ff" points="678.79,-38.95 689.25,-37.25 680.02,-32.06 678.79,-38.95"/>
</a>
</g>
</g>
<!-- Node8 -->
<g id="Node000008" class="node">
<title>Node8</title>
<g id="a_Node000008"><a xlink:href="class_win32_application.html#ae0aa88d9449557e8772fc70c1043e55c" target="_top" xlink:title=" ">
<polygon fill="white" stroke="#666666" points="418.5,-58 266,-58 266,-38 418.5,-38 418.5,-58"/>
<text text-anchor="middle" x="342.25" y="-44.5" font-family="Helvetica,sans-Serif" font-size="10.00">Win32Application::WindowProc</text>
</a>
</g>
</g>
<!-- Node7&#45;&gt;Node8 -->
<g id="edge7_Node000007_Node000008" class="edge">
<title>Node7&#45;&gt;Node8</title>
<g id="a_edge7_Node000007_Node000008"><a xlink:title=" ">
<path fill="none" stroke="#63b8ff" d="M442.79,-48C434.72,-48 426.62,-48 418.71,-48"/>
<polygon fill="#63b8ff" stroke="#63b8ff" points="442.62,-51.5 452.62,-48 442.62,-44.5 442.62,-51.5"/>
</a>
</g>
</g>
<!-- Node9 -->
<g id="Node000009" class="node">
<title>Node9</title>
<g id="a_Node000009"><a xlink:href="class_win32_application.html#a05c9e61b80735ab0b3fa576ebab260d6" target="_top" xlink:title=" ">
<polygon fill="white" stroke="#666666" points="230,-58 97,-58 97,-38 230,-38 230,-58"/>
<text text-anchor="middle" x="163.5" y="-44.5" font-family="Helvetica,sans-Serif" font-size="10.00">Win32Application::Initialize</text>
</a>
</g>
</g>
<!-- Node8&#45;&gt;Node9 -->
<g id="edge8_Node000008_Node000009" class="edge">
<title>Node8&#45;&gt;Node9</title>
<g id="a_edge8_Node000008_Node000009"><a xlink:title=" ">
<path fill="none" stroke="#63b8ff" d="M254.2,-48C246.17,-48 238.12,-48 230.32,-48"/>
<polygon fill="#63b8ff" stroke="#63b8ff" points="254.01,-51.5 264.01,-48 254.01,-44.5 254.01,-51.5"/>
</a>
</g>
</g>
<!-- Node9&#45;&gt;Node4 -->
<g id="edge9_Node000009_Node000004" class="edge">
<title>Node9&#45;&gt;Node4</title>
<g id="a_edge9_Node000009_Node000004"><a xlink:title=" ">
<path fill="none" stroke="#63b8ff" d="M85.37,-48C76.9,-48 68.69,-48 61.35,-48"/>
<polygon fill="#63b8ff" stroke="#63b8ff" points="85.1,-51.5 95.1,-48 85.1,-44.5 85.1,-51.5"/>
</a>
</g>
</g>
<!-- Node11 -->
<g id="Node000011" class="node">
<title>Node11</title>
<g id="a_Node000011"><a xlink:href="class_win32_application.html#a1d44083e5c10ac5faea4a4e0633898b6" target="_top" xlink:title=" ">
<polygon fill="white" stroke="#666666" points="221,-20 106,-20 106,0 221,0 221,-20"/>
<text text-anchor="middle" x="163.5" y="-6.5" font-family="Helvetica,sans-Serif" font-size="10.00">Win32Application::Run</text>
</a>
</g>
</g>
<!-- Node10&#45;&gt;Node11 -->
<g id="edge11_Node000010_Node000011" class="edge">
<title>Node10&#45;&gt;Node11</title>
<g id="a_edge11_Node000010_Node000011"><a xlink:title=" ">
<path fill="none" stroke="#63b8ff" d="M462.73,-10C392.45,-10 286.32,-10 221.44,-10"/>
<polygon fill="#63b8ff" stroke="#63b8ff" points="462.6,-13.5 472.6,-10 462.6,-6.5 462.6,-13.5"/>
</a>
</g>
</g>
<!-- Node11&#45;&gt;Node4 -->
<g id="edge12_Node000011_Node000004" class="edge">
<title>Node11&#45;&gt;Node4</title>
<g id="a_edge12_Node000011_Node000004"><a xlink:title=" ">
<path fill="none" stroke="#63b8ff" d="M115.44,-23.65C97.4,-28.88 77.33,-34.71 61.34,-39.34"/>
<polygon fill="#63b8ff" stroke="#63b8ff" points="116.27,-27.05 124.9,-20.91 114.32,-20.33 116.27,-27.05"/>
</a>
</g>
</g>
</g>
</svg>
