<?xml version="1.0" encoding="UTF-8" standalone="no"?>
<!DOCTYPE svg PUBLIC "-//W3C//DTD SVG 1.1//EN"
 "http://www.w3.org/Graphics/SVG/1.1/DTD/svg11.dtd">
<!-- Generated by graphviz version 9.0.0 (20230911.1827)
 -->
<!-- Title: GraphicsDevice::GetHWND Pages: 1 -->
<svg width="804pt" height="66pt"
 viewBox="0.00 0.00 804.25 66.00" xmlns="http://www.w3.org/2000/svg" xmlns:xlink="http://www.w3.org/1999/xlink">
<g id="graph0" class="graph" transform="scale(1 1) rotate(0) translate(4 62)">
<title>GraphicsDevice::GetHWND</title>
<!-- Node1 -->
<g id="Node000001" class="node">
<title>Node1</title>
<g id="a_Node000001"><a xlink:title=" ">
<polygon fill="#999999" stroke="#666666" points="796.25,-39 661,-39 661,-19 796.25,-19 796.25,-39"/>
<text text-anchor="middle" x="728.62" y="-25.5" font-family="Helvetica,sans-Serif" font-size="10.00">GraphicsDevice::GetHWND</text>
</a>
</g>
</g>
<!-- Node2 -->
<g id="Node000002" class="node">
<title>Node2</title>
<g id="a_Node000002"><a xlink:href="class_direct_x_manager.html#a4b6ab131def1de37e8af1f66dd64bf14" target="_top" xlink:title=" ">
<polygon fill="white" stroke="#666666" points="619,-58 460.5,-58 460.5,-38 619,-38 619,-58"/>
<text text-anchor="middle" x="539.75" y="-44.5" font-family="Helvetica,sans-Serif" font-size="10.00">DirectXManager::handleLeftDown</text>
</a>
</g>
</g>
<!-- Node1&#45;&gt;Node2 -->
<g id="edge1_Node000001_Node000002" class="edge">
<title>Node1&#45;&gt;Node2</title>
<g id="a_edge1_Node000001_Node000002"><a xlink:title=" ">
<path fill="none" stroke="#63b8ff" d="M649.54,-36.94C639.55,-37.95 629.32,-38.99 619.32,-40.01"/>
<polygon fill="#63b8ff" stroke="#63b8ff" points="649.59,-40.45 659.18,-35.96 648.88,-33.49 649.59,-40.45"/>
</a>
</g>
</g>
<!-- Node6 -->
<g id="Node000006" class="node">
<title>Node6</title>
<g id="a_Node000006"><a xlink:href="class_direct_x_manager.html#ab8c1c45c0b3e8140250e8927870f1258" target="_top" xlink:title=" ">
<polygon fill="white" stroke="#666666" points="625,-20 454.5,-20 454.5,0 625,0 625,-20"/>
<text text-anchor="middle" x="539.75" y="-6.5" font-family="Helvetica,sans-Serif" font-size="10.00">DirectXManager::handleMouseMove</text>
</a>
</g>
</g>
<!-- Node1&#45;&gt;Node6 -->
<g id="edge5_Node000001_Node000006" class="edge">
<title>Node1&#45;&gt;Node6</title>
<g id="a_edge5_Node000001_Node000006"><a xlink:title=" ">
<path fill="none" stroke="#63b8ff" d="M649.29,-21.04C641.42,-20.24 633.41,-19.42 625.48,-18.61"/>
<polygon fill="#63b8ff" stroke="#63b8ff" points="648.88,-24.51 659.18,-22.04 649.59,-17.55 648.88,-24.51"/>
</a>
</g>
</g>
<!-- Node3 -->
<g id="Node000003" class="node">
<title>Node3</title>
<g id="a_Node000003"><a xlink:href="class_win32_application.html#ae0aa88d9449557e8772fc70c1043e55c" target="_top" xlink:title=" ">
<polygon fill="white" stroke="#666666" points="418.5,-39 266,-39 266,-19 418.5,-19 418.5,-39"/>
<text text-anchor="middle" x="342.25" y="-25.5" font-family="Helvetica,sans-Serif" font-size="10.00">Win32Application::WindowProc</text>
</a>
</g>
</g>
<!-- Node2&#45;&gt;Node3 -->
<g id="edge2_Node000002_Node000003" class="edge">
<title>Node2&#45;&gt;Node3</title>
<g id="a_edge2_Node000002_Node000003"><a xlink:title=" ">
<path fill="none" stroke="#63b8ff" d="M448.84,-39.26C438.83,-38.29 428.71,-37.31 418.91,-36.35"/>
<polygon fill="#63b8ff" stroke="#63b8ff" points="448.28,-42.72 458.57,-40.21 448.96,-35.76 448.28,-42.72"/>
</a>
</g>
</g>
<!-- Node4 -->
<g id="Node000004" class="node">
<title>Node4</title>
<g id="a_Node000004"><a xlink:href="class_win32_application.html#a05c9e61b80735ab0b3fa576ebab260d6" target="_top" xlink:title=" ">
<polygon fill="white" stroke="#666666" points="230,-39 97,-39 97,-19 230,-19 230,-39"/>
<text text-anchor="middle" x="163.5" y="-25.5" font-family="Helvetica,sans-Serif" font-size="10.00">Win32Application::Initialize</text>
</a>
</g>
</g>
<!-- Node3&#45;&gt;Node4 -->
<g id="edge3_Node000003_Node000004" class="edge">
<title>Node3&#45;&gt;Node4</title>
<g id="a_edge3_Node000003_Node000004"><a xlink:title=" ">
<path fill="none" stroke="#63b8ff" d="M254.2,-29C246.17,-29 238.12,-29 230.32,-29"/>
<polygon fill="#63b8ff" stroke="#63b8ff" points="254.01,-32.5 264.01,-29 254.01,-25.5 254.01,-32.5"/>
</a>
</g>
</g>
<!-- Node5 -->
<g id="Node000005" class="node">
<title>Node5</title>
<g id="a_Node000005"><a xlink:href="_game_engine_8cpp.html#a1e683c5a19c00d05cd803e46b805e339" target="_top" xlink:title=" ">
<polygon fill="white" stroke="#666666" points="61,-39 0,-39 0,-19 61,-19 61,-39"/>
<text text-anchor="middle" x="30.5" y="-25.5" font-family="Helvetica,sans-Serif" font-size="10.00">wWinMain</text>
</a>
</g>
</g>
<!-- Node4&#45;&gt;Node5 -->
<g id="edge4_Node000004_Node000005" class="edge">
<title>Node4&#45;&gt;Node5</title>
<g id="a_edge4_Node000004_Node000005"><a xlink:title=" ">
<path fill="none" stroke="#63b8ff" d="M85.37,-29C76.9,-29 68.69,-29 61.35,-29"/>
<polygon fill="#63b8ff" stroke="#63b8ff" points="85.1,-32.5 95.1,-29 85.1,-25.5 85.1,-32.5"/>
</a>
</g>
</g>
<!-- Node6&#45;&gt;Node3 -->
<g id="edge6_Node000006_Node000003" class="edge">
<title>Node6&#45;&gt;Node3</title>
<g id="a_edge6_Node000006_Node000003"><a xlink:title=" ">
<path fill="none" stroke="#63b8ff" d="M442.78,-19.33C434.72,-20.11 426.64,-20.9 418.77,-21.66"/>
<polygon fill="#63b8ff" stroke="#63b8ff" points="443.02,-22.82 452.63,-18.37 442.34,-15.85 443.02,-22.82"/>
</a>
</g>
</g>
</g>
</svg>
