<?xml version="1.0" encoding="UTF-8" standalone="no"?>
<!DOCTYPE svg PUBLIC "-//W3C//DTD SVG 1.1//EN"
 "http://www.w3.org/Graphics/SVG/1.1/DTD/svg11.dtd">
<!-- Generated by graphviz version 9.0.0 (20230911.1827)
 -->
<!-- Title: ShaderProgram Pages: 1 -->
<svg width="339pt" height="588pt"
 viewBox="0.00 0.00 339.00 588.00" xmlns="http://www.w3.org/2000/svg" xmlns:xlink="http://www.w3.org/1999/xlink">
<g id="graph0" class="graph" transform="scale(1 1) rotate(0) translate(4 584)">
<title>ShaderProgram</title>
<!-- Node1 -->
<g id="Node000001" class="node">
<title>Node1</title>
<g id="a_Node000001"><a xlink:title=" ">
<polygon fill="#999999" stroke="none" points="331,-208 0,-208 0,0 331,0 331,-208"/>
<text text-anchor="start" x="131.75" y="-194.5" font-family="Helvetica,sans-Serif" font-size="10.00">ShaderProgram</text>
<text text-anchor="start" x="5.5" y="-178.5" font-family="Helvetica,sans-Serif" font-size="10.00">&#45;</text>
<text text-anchor="start" x="14" y="-178.5" font-family="Helvetica,sans-Serif" font-size="10.00">ID3D11VertexShader * vertexShader</text>
<text text-anchor="start" x="5.5" y="-162.5" font-family="Helvetica,sans-Serif" font-size="10.00">&#45;</text>
<text text-anchor="start" x="14" y="-162.5" font-family="Helvetica,sans-Serif" font-size="10.00">ID3D11PixelShader * pixelShader</text>
<text text-anchor="start" x="5.5" y="-146.5" font-family="Helvetica,sans-Serif" font-size="10.00">&#45;</text>
<text text-anchor="start" x="14" y="-146.5" font-family="Helvetica,sans-Serif" font-size="10.00">ID3D11InputLayout * inputLayout</text>
<text text-anchor="start" x="5.5" y="-130.5" font-family="Helvetica,sans-Serif" font-size="10.00">&#45;</text>
<text text-anchor="start" x="14" y="-130.5" font-family="Helvetica,sans-Serif" font-size="10.00">ID3D11Buffer * constantBuffer</text>
<text text-anchor="start" x="4" y="-114.5" font-family="Helvetica,sans-Serif" font-size="10.00">+</text>
<text text-anchor="start" x="14" y="-114.5" font-family="Helvetica,sans-Serif" font-size="10.00">ShaderProgram(GraphicsDevice *graphicsDevice)</text>
<text text-anchor="start" x="4" y="-98.5" font-family="Helvetica,sans-Serif" font-size="10.00">+</text>
<text text-anchor="start" x="14" y="-98.5" font-family="Helvetica,sans-Serif" font-size="10.00">void LoadShader(LPCSTR VSFilename, LPCSTR PSFilename)</text>
<text text-anchor="start" x="4" y="-82.5" font-family="Helvetica,sans-Serif" font-size="10.00">+</text>
<text text-anchor="start" x="14" y="-82.5" font-family="Helvetica,sans-Serif" font-size="10.00">void ClearResources()</text>
<text text-anchor="start" x="4" y="-66.5" font-family="Helvetica,sans-Serif" font-size="10.00">+</text>
<text text-anchor="start" x="14" y="-66.5" font-family="Helvetica,sans-Serif" font-size="10.00">void UpdateBuffers(ConstantBuffer cb)</text>
<text text-anchor="start" x="4" y="-50.5" font-family="Helvetica,sans-Serif" font-size="10.00">+</text>
<text text-anchor="start" x="14" y="-50.5" font-family="Helvetica,sans-Serif" font-size="10.00">void Bind()</text>
<text text-anchor="start" x="5.5" y="-34.5" font-family="Helvetica,sans-Serif" font-size="10.00">&#45;</text>
<text text-anchor="start" x="14" y="-34.5" font-family="Helvetica,sans-Serif" font-size="10.00">bool CompileHLSL(const std::string &amp;filename, ShaderType shaderType)</text>
<text text-anchor="start" x="5.5" y="-18.5" font-family="Helvetica,sans-Serif" font-size="10.00">&#45;</text>
<text text-anchor="start" x="14" y="-18.5" font-family="Helvetica,sans-Serif" font-size="10.00">std::vector&lt; byte &gt; LoadShaderFile(const std::string</text>
<text text-anchor="start" x="14" y="-6.5" font-family="Helvetica,sans-Serif" font-size="10.00"> &amp;filename, ShaderType shaderType)</text>
<polygon fill="#666666" stroke="#666666" points="0,-190 0,-190 331,-190 331,-190 0,-190"/>
<polygon fill="#666666" stroke="#666666" points="0,-126 0,-126 12,-126 12,-126 0,-126"/>
<polygon fill="#666666" stroke="#666666" points="12,-126 12,-126 331,-126 331,-126 12,-126"/>
<polygon fill="none" stroke="#666666" points="0,0 0,-208 331,-208 331,0 0,0"/>
</a>
</g>
</g>
<!-- Node2 -->
<g id="Node000002" class="node">
<title>Node2</title>
<g id="a_Node000002"><a xlink:href="class_graphics_device.html" target="_top" xlink:title=" ">
<polygon fill="white" stroke="none" points="298,-580 33,-580 33,-256 298,-256 298,-580"/>
<text text-anchor="start" x="131.75" y="-566.5" font-family="Helvetica,sans-Serif" font-size="10.00">GraphicsDevice</text>
<text text-anchor="start" x="38.5" y="-550.5" font-family="Helvetica,sans-Serif" font-size="10.00">&#45;</text>
<text text-anchor="start" x="47" y="-550.5" font-family="Helvetica,sans-Serif" font-size="10.00">ID3D11Device * device</text>
<text text-anchor="start" x="38.5" y="-534.5" font-family="Helvetica,sans-Serif" font-size="10.00">&#45;</text>
<text text-anchor="start" x="47" y="-534.5" font-family="Helvetica,sans-Serif" font-size="10.00">ID3D11DeviceContext * deviceContext</text>
<text text-anchor="start" x="38.5" y="-518.5" font-family="Helvetica,sans-Serif" font-size="10.00">&#45;</text>
<text text-anchor="start" x="47" y="-518.5" font-family="Helvetica,sans-Serif" font-size="10.00">IDXGISwapChain * swapChain</text>
<text text-anchor="start" x="38.5" y="-502.5" font-family="Helvetica,sans-Serif" font-size="10.00">&#45;</text>
<text text-anchor="start" x="47" y="-502.5" font-family="Helvetica,sans-Serif" font-size="10.00">ID3D11RenderTargetView * renderTargetView</text>
<text text-anchor="start" x="38.5" y="-486.5" font-family="Helvetica,sans-Serif" font-size="10.00">&#45;</text>
<text text-anchor="start" x="47" y="-486.5" font-family="Helvetica,sans-Serif" font-size="10.00">ID3D11DepthStencilView * depthStencilView</text>
<text text-anchor="start" x="38.5" y="-470.5" font-family="Helvetica,sans-Serif" font-size="10.00">&#45;</text>
<text text-anchor="start" x="47" y="-470.5" font-family="Helvetica,sans-Serif" font-size="10.00">ID3D11Texture2D * depthStencilBuffer</text>
<text text-anchor="start" x="38.5" y="-454.5" font-family="Helvetica,sans-Serif" font-size="10.00">&#45;</text>
<text text-anchor="start" x="47" y="-454.5" font-family="Helvetica,sans-Serif" font-size="10.00">int windowWidth</text>
<text text-anchor="start" x="38.5" y="-438.5" font-family="Helvetica,sans-Serif" font-size="10.00">&#45;</text>
<text text-anchor="start" x="47" y="-438.5" font-family="Helvetica,sans-Serif" font-size="10.00">int windowHeight</text>
<text text-anchor="start" x="38.5" y="-422.5" font-family="Helvetica,sans-Serif" font-size="10.00">&#45;</text>
<text text-anchor="start" x="47" y="-422.5" font-family="Helvetica,sans-Serif" font-size="10.00">HWND hWnd</text>
<text text-anchor="start" x="37" y="-406.5" font-family="Helvetica,sans-Serif" font-size="10.00">+</text>
<text text-anchor="start" x="47" y="-406.5" font-family="Helvetica,sans-Serif" font-size="10.00">void Initialize(HWND hWnd, int width, int height)</text>
<text text-anchor="start" x="37" y="-390.5" font-family="Helvetica,sans-Serif" font-size="10.00">+</text>
<text text-anchor="start" x="47" y="-390.5" font-family="Helvetica,sans-Serif" font-size="10.00">void ResizeBuffersAndViews(int width, int height)</text>
<text text-anchor="start" x="37" y="-374.5" font-family="Helvetica,sans-Serif" font-size="10.00">+</text>
<text text-anchor="start" x="47" y="-374.5" font-family="Helvetica,sans-Serif" font-size="10.00">ID3D11Device * GetDevice() const</text>
<text text-anchor="start" x="37" y="-358.5" font-family="Helvetica,sans-Serif" font-size="10.00">+</text>
<text text-anchor="start" x="47" y="-358.5" font-family="Helvetica,sans-Serif" font-size="10.00">ID3D11DeviceContext * GetDeviceContext() const</text>
<text text-anchor="start" x="37" y="-342.5" font-family="Helvetica,sans-Serif" font-size="10.00">+</text>
<text text-anchor="start" x="47" y="-342.5" font-family="Helvetica,sans-Serif" font-size="10.00">IDXGISwapChain * GetSwapChain() const</text>
<text text-anchor="start" x="37" y="-326.5" font-family="Helvetica,sans-Serif" font-size="10.00">+</text>
<text text-anchor="start" x="47" y="-326.5" font-family="Helvetica,sans-Serif" font-size="10.00">ID3D11RenderTargetView * GetRenderTargetView() const</text>
<text text-anchor="start" x="37" y="-310.5" font-family="Helvetica,sans-Serif" font-size="10.00">+</text>
<text text-anchor="start" x="47" y="-310.5" font-family="Helvetica,sans-Serif" font-size="10.00">ID3D11DepthStencilView * GetDepthStencilView() const</text>
<text text-anchor="start" x="37" y="-294.5" font-family="Helvetica,sans-Serif" font-size="10.00">+</text>
<text text-anchor="start" x="47" y="-294.5" font-family="Helvetica,sans-Serif" font-size="10.00">int GetWindowWidth()</text>
<text text-anchor="start" x="37" y="-278.5" font-family="Helvetica,sans-Serif" font-size="10.00">+</text>
<text text-anchor="start" x="47" y="-278.5" font-family="Helvetica,sans-Serif" font-size="10.00">int GetWindowHeight()</text>
<text text-anchor="start" x="37" y="-262.5" font-family="Helvetica,sans-Serif" font-size="10.00">+</text>
<text text-anchor="start" x="47" y="-262.5" font-family="Helvetica,sans-Serif" font-size="10.00">HWND GetHWND()</text>
<polygon fill="#666666" stroke="#666666" points="33,-562 33,-562 298,-562 298,-562 33,-562"/>
<polygon fill="#666666" stroke="#666666" points="33,-418 33,-418 45,-418 45,-418 33,-418"/>
<polygon fill="#666666" stroke="#666666" points="45,-418 45,-418 298,-418 298,-418 45,-418"/>
<polygon fill="none" stroke="#666666" points="33,-256 33,-580 298,-580 298,-256 33,-256"/>
</a>
</g>
</g>
<!-- Node2&#45;&gt;Node1 -->
<g id="edge1_Node000001_Node000002" class="edge">
<title>Node2&#45;&gt;Node1</title>
<g id="a_edge1_Node000001_Node000002"><a xlink:title=" ">
<path fill="none" stroke="#63b8ff" d="M165.5,-256.43C165.5,-244.39 165.5,-232.38 165.5,-220.7"/>
<polygon fill="none" stroke="#63b8ff" points="165.5,-220.57 161.5,-214.57 165.5,-208.57 169.5,-214.57 165.5,-220.57"/>
</a>
</g>
<text text-anchor="middle" x="201.12" y="-228.5" font-family="Helvetica,sans-Serif" font-size="10.00" fill="grey"> &#45;graphicsDevice</text>
</g>
</g>
</svg>
