<?xml version="1.0" encoding="UTF-8" standalone="no"?>
<!DOCTYPE svg PUBLIC "-//W3C//DTD SVG 1.1//EN"
 "http://www.w3.org/Graphics/SVG/1.1/DTD/svg11.dtd">
<!-- Generated by graphviz version 9.0.0 (20230911.1827)
 -->
<!-- Title: DirectXManager::RenderFrame Pages: 1 -->
<!--zoomable 527 -->

<svg id="main" version="1.1" xmlns="http://www.w3.org/2000/svg" xmlns:xlink="http://www.w3.org/1999/xlink" xml:space="preserve" onload="init(evt)">
<style type="text/css"><![CDATA[
.node, .edge {opacity: 0.7;}
.node.selected, .edge.selected {opacity: 1;}
.edge:hover path { stroke: red; }
.edge:hover polygon { stroke: red; fill: red; }
]]></style>

<defs>
  <circle id="rim" cx="0" cy="0" r="7"/>
  <circle id="rim2" cx="0" cy="0" r="3.5"/>
  <g id="zoomPlus">
    <use xlink:href="#rim" fill="#404040"><set attributeName="fill" to="#808080" begin="zoomplus.mouseover" end="zoomplus.mouseout"/></use>
    <path d="M-4,0h8M0,-4v8" fill="none" stroke="white" stroke-width="1.5" pointer-events="none"/>
  </g>
  <g id="zoomMin">
    <use xlink:href="#rim" fill="#404040"><set attributeName="fill" to="#808080" begin="zoomminus.mouseover" end="zoomminus.mouseout"/></use>
    <path d="M-4,0h8" fill="none" stroke="white" stroke-width="1.5" pointer-events="none"/>
  </g>
  <g id="arrowUp" transform="translate(30 24)">
    <use xlink:href="#rim"/>
    <path pointer-events="none" fill="none" stroke="white" stroke-width="1.5" d="M0,-3.0v7 M-2.5,-0.5L0,-3.0L2.5,-0.5"/>
  </g>
  <g id="arrowRight" transform="rotate(90) translate(36 -43)">
    <use xlink:href="#rim"/>
    <path pointer-events="none" fill="none" stroke="white" stroke-width="1.5" d="M0,-3.0v7 M-2.5,-0.5L0,-3.0L2.5,-0.5"/>
  </g>
  <g id="arrowDown" transform="rotate(180) translate(-30 -48)">
    <use xlink:href="#rim"/>
    <path pointer-events="none" fill="none" stroke="white" stroke-width="1.5" d="M0,-3.0v7 M-2.5,-0.5L0,-3.0L2.5,-0.5"/>
  </g>
  <g id="arrowLeft" transform="rotate(270) translate(-36 17)">
    <use xlink:href="#rim"/>
    <path pointer-events="none" fill="none" stroke="white" stroke-width="1.5" d="M0,-3.0v7 M-2.5,-0.5L0,-3.0L2.5,-0.5"/>
  </g>
  <g id="resetDef">
    <use xlink:href="#rim2" fill="#404040"><set attributeName="fill" to="#808080" begin="reset.mouseover" end="reset.mouseout"/></use>
  </g>
</defs>
<script type="application/ecmascript">
var viewWidth = 731;
var viewHeight = 527;
var sectionId = 'dynsection-20';
</script>
<script type="application/ecmascript" xlink:href="svg.min.js"/>
<svg id="graph" class="graph">
<g id="viewport">
<title>DirectXManager::RenderFrame</title>
<!-- Node1 -->
<g id="Node000001" class="node">
<title>Node1</title>
<g id="a_Node000001"><a xlink:title=" ">
<polygon fill="#999999" stroke="#666666" points="148.75,-267 0,-267 0,-247 148.75,-247 148.75,-267"/>
<text text-anchor="middle" x="74.38" y="-253.5" font-family="Helvetica,sans-Serif" font-size="10.00">DirectXManager::RenderFrame</text>
</a>
</g>
</g>
<!-- Node2 -->
<g id="Node000002" class="node">
<title>Node2</title>
<g id="a_Node000002"><a xlink:href="class_mesh.html#afdd95c079fd0442afef8a6c421c8bfc9" target="_top" xlink:title=" ">
<polygon fill="white" stroke="#666666" points="495.75,-514 428,-514 428,-494 495.75,-494 495.75,-514"/>
<text text-anchor="middle" x="461.88" y="-500.5" font-family="Helvetica,sans-Serif" font-size="10.00">Mesh::Draw</text>
</a>
</g>
</g>
<!-- Node1&#45;&gt;Node2 -->
<g id="edge1_Node000001_Node000002" class="edge">
<title>Node1&#45;&gt;Node2</title>
<g id="a_edge1_Node000001_Node000002"><a xlink:title=" ">
<path fill="none" stroke="#63b8ff" d="M76.84,-267.27C82.64,-303.65 107.56,-427.11 184.75,-480 254.34,-527.68 358.11,-521.31 416.61,-512.56"/>
<polygon fill="#63b8ff" stroke="#63b8ff" points="416.87,-516.07 426.19,-511.03 415.77,-509.15 416.87,-516.07"/>
</a>
</g>
</g>
<!-- Node3 -->
<g id="Node000003" class="node">
<title>Node3</title>
<g id="a_Node000003"><a xlink:href="class_graphics_device.html#acf91316dd6fe685f48258016a3098d41" target="_top" xlink:title=" ">
<polygon fill="white" stroke="#666666" points="722.5,-409 555,-409 555,-389 722.5,-389 722.5,-409"/>
<text text-anchor="middle" x="638.75" y="-395.5" font-family="Helvetica,sans-Serif" font-size="10.00">GraphicsDevice::GetDeviceContext</text>
</a>
</g>
</g>
<!-- Node1&#45;&gt;Node3 -->
<g id="edge4_Node000001_Node000003" class="edge">
<title>Node1&#45;&gt;Node3</title>
<g id="a_edge4_Node000001_Node000003"><a xlink:title=" ">
<path fill="none" stroke="#63b8ff" d="M77.55,-267.37C85.18,-300.85 114.24,-406.23 184.75,-447 251.8,-485.77 481.42,-437.12 585.6,-412.12"/>
<polygon fill="#63b8ff" stroke="#63b8ff" points="586.11,-415.6 595,-409.84 584.46,-408.79 586.11,-415.6"/>
</a>
</g>
</g>
<!-- Node4 -->
<g id="Node000004" class="node">
<title>Node4</title>
<g id="a_Node000004"><a xlink:href="class_graphics_device.html#adb0057512a565256ef377441fe466985" target="_top" xlink:title=" ">
<polygon fill="white" stroke="#666666" points="367.62,-438 185.88,-438 185.88,-418 367.62,-418 367.62,-438"/>
<text text-anchor="middle" x="276.75" y="-424.5" font-family="Helvetica,sans-Serif" font-size="10.00">GraphicsDevice::GetDepthStencilView</text>
</a>
</g>
</g>
<!-- Node1&#45;&gt;Node4 -->
<g id="edge3_Node000001_Node000004" class="edge">
<title>Node1&#45;&gt;Node4</title>
<g id="a_edge3_Node000001_Node000004"><a xlink:title=" ">
<path fill="none" stroke="#63b8ff" d="M79.49,-267.14C91.28,-294.83 128.06,-372.14 184.75,-409 186.89,-410.39 189.12,-411.69 191.41,-412.89"/>
<polygon fill="#63b8ff" stroke="#63b8ff" points="189.88,-416.04 200.44,-416.96 192.76,-409.66 189.88,-416.04"/>
</a>
</g>
</g>
<!-- Node5 -->
<g id="Node000005" class="node">
<title>Node5</title>
<g id="a_Node000005"><a xlink:href="class_camera.html#a0d0f678e977d6a7db6f357b255a01b4e" target="_top" xlink:title=" ">
<polygon fill="white" stroke="#666666" points="314.75,-400 238.75,-400 238.75,-380 314.75,-380 314.75,-400"/>
<text text-anchor="middle" x="276.75" y="-386.5" font-family="Helvetica,sans-Serif" font-size="10.00">Camera::getP</text>
</a>
</g>
</g>
<!-- Node1&#45;&gt;Node5 -->
<g id="edge5_Node000001_Node000005" class="edge">
<title>Node1&#45;&gt;Node5</title>
<g id="a_edge5_Node000001_Node000005"><a xlink:title=" ">
<path fill="none" stroke="#63b8ff" d="M81.9,-267.16C97,-289.79 136.77,-344.41 184.75,-371 197.67,-378.16 212.99,-382.63 227.33,-385.42"/>
<polygon fill="#63b8ff" stroke="#63b8ff" points="226.63,-388.85 237.07,-387.06 227.79,-381.94 226.63,-388.85"/>
</a>
</g>
</g>
<!-- Node6 -->
<g id="Node000006" class="node">
<title>Node6</title>
<g id="a_Node000006"><a xlink:href="class_mesh.html#a5b502948f58e8c8e3e1876637b522cd3" target="_top" xlink:title=" ">
<polygon fill="white" stroke="#666666" points="335,-362 218.5,-362 218.5,-342 335,-342 335,-362"/>
<text text-anchor="middle" x="276.75" y="-348.5" font-family="Helvetica,sans-Serif" font-size="10.00">Mesh::GetParentModel</text>
</a>
</g>
</g>
<!-- Node1&#45;&gt;Node6 -->
<g id="edge6_Node000001_Node000006" class="edge">
<title>Node1&#45;&gt;Node6</title>
<g id="a_edge6_Node000001_Node000006"><a xlink:title=" ">
<path fill="none" stroke="#63b8ff" d="M86.88,-267.39C105.84,-283.93 145.46,-316.08 184.75,-333 191.9,-336.08 199.59,-338.67 207.36,-340.86"/>
<polygon fill="#63b8ff" stroke="#63b8ff" points="206.33,-344.2 216.89,-343.3 208.07,-337.42 206.33,-344.2"/>
</a>
</g>
</g>
<!-- Node7 -->
<g id="Node000007" class="node">
<title>Node7</title>
<g id="a_Node000007"><a xlink:href="class_graphics_device.html#a8255f0c23dcbc89765a40b197a5db87f" target="_top" xlink:title=" ">
<polygon fill="white" stroke="#666666" points="368.75,-324 184.75,-324 184.75,-304 368.75,-304 368.75,-324"/>
<text text-anchor="middle" x="276.75" y="-310.5" font-family="Helvetica,sans-Serif" font-size="10.00">GraphicsDevice::GetRenderTargetView</text>
</a>
</g>
</g>
<!-- Node1&#45;&gt;Node7 -->
<g id="edge7_Node000001_Node000007" class="edge">
<title>Node1&#45;&gt;Node7</title>
<g id="a_edge7_Node000001_Node000007"><a xlink:title=" ">
<path fill="none" stroke="#63b8ff" d="M102.04,-267.34C124,-275.6 156.08,-287.06 184.75,-295 192.56,-297.16 200.8,-299.21 209.01,-301.1"/>
<polygon fill="#63b8ff" stroke="#63b8ff" points="208.14,-304.49 218.66,-303.24 209.66,-297.65 208.14,-304.49"/>
</a>
</g>
</g>
<!-- Node8 -->
<g id="Node000008" class="node">
<title>Node8</title>
<g id="a_Node000008"><a xlink:href="class_material.html#a96434cf45f279c51bde30fb55e2706ac" target="_top" xlink:title=" ">
<polygon fill="white" stroke="#666666" points="346.62,-286 206.88,-286 206.88,-266 346.62,-266 346.62,-286"/>
<text text-anchor="middle" x="276.75" y="-272.5" font-family="Helvetica,sans-Serif" font-size="10.00">Material::GetShaderProgram</text>
</a>
</g>
</g>
<!-- Node1&#45;&gt;Node8 -->
<g id="edge8_Node000001_Node000008" class="edge">
<title>Node1&#45;&gt;Node8</title>
<g id="a_edge8_Node000001_Node000008"><a xlink:title=" ">
<path fill="none" stroke="#63b8ff" d="M149.13,-263.99C164.07,-265.41 179.86,-266.91 195.02,-268.35"/>
<polygon fill="#63b8ff" stroke="#63b8ff" points="194.68,-271.83 204.97,-269.29 195.34,-264.86 194.68,-271.83"/>
</a>
</g>
</g>
<!-- Node9 -->
<g id="Node000009" class="node">
<title>Node9</title>
<g id="a_Node000009"><a xlink:href="class_graphics_device.html#acb7d1c815260bbbb1776e130bbf62ffb" target="_top" xlink:title=" ">
<polygon fill="white" stroke="#666666" points="353.75,-248 199.75,-248 199.75,-228 353.75,-228 353.75,-248"/>
<text text-anchor="middle" x="276.75" y="-234.5" font-family="Helvetica,sans-Serif" font-size="10.00">GraphicsDevice::GetSwapChain</text>
</a>
</g>
</g>
<!-- Node1&#45;&gt;Node9 -->
<g id="edge9_Node000001_Node000009" class="edge">
<title>Node1&#45;&gt;Node9</title>
<g id="a_edge9_Node000001_Node000009"><a xlink:title=" ">
<path fill="none" stroke="#63b8ff" d="M149.13,-250.01C161.82,-248.8 175.12,-247.54 188.13,-246.31"/>
<polygon fill="#63b8ff" stroke="#63b8ff" points="188.33,-249.81 197.95,-245.38 187.67,-242.84 188.33,-249.81"/>
</a>
</g>
</g>
<!-- Node10 -->
<g id="Node000010" class="node">
<title>Node10</title>
<g id="a_Node000010"><a xlink:href="class_model.html#ae416dc1c473be023e26213ba793bf4ce" target="_top" xlink:title=" ">
<polygon fill="white" stroke="#666666" points="354.12,-210 199.38,-210 199.38,-190 354.12,-190 354.12,-210"/>
<text text-anchor="middle" x="276.75" y="-196.5" font-family="Helvetica,sans-Serif" font-size="10.00">Model::GetTransformationMatrix</text>
</a>
</g>
</g>
<!-- Node1&#45;&gt;Node10 -->
<g id="edge10_Node000001_Node000010" class="edge">
<title>Node1&#45;&gt;Node10</title>
<g id="a_edge10_Node000001_Node000010"><a xlink:title=" ">
<path fill="none" stroke="#63b8ff" d="M102.04,-246.66C124,-238.4 156.08,-226.94 184.75,-219 192.56,-216.84 200.8,-214.79 209.01,-212.9"/>
<polygon fill="#63b8ff" stroke="#63b8ff" points="209.66,-216.35 218.66,-210.76 208.14,-209.51 209.66,-216.35"/>
</a>
</g>
</g>
<!-- Node11 -->
<g id="Node000011" class="node">
<title>Node11</title>
<g id="a_Node000011"><a xlink:href="class_camera.html#abb4a67224c4f219bba8a657907caf4a1" target="_top" xlink:title=" ">
<polygon fill="white" stroke="#666666" points="314.75,-172 238.75,-172 238.75,-152 314.75,-152 314.75,-172"/>
<text text-anchor="middle" x="276.75" y="-158.5" font-family="Helvetica,sans-Serif" font-size="10.00">Camera::getV</text>
</a>
</g>
</g>
<!-- Node1&#45;&gt;Node11 -->
<g id="edge11_Node000001_Node000011" class="edge">
<title>Node1&#45;&gt;Node11</title>
<g id="a_edge11_Node000001_Node000011"><a xlink:title=" ">
<path fill="none" stroke="#63b8ff" d="M86.88,-246.61C105.84,-230.07 145.46,-197.92 184.75,-181 198.08,-175.26 213.28,-171.21 227.39,-168.37"/>
<polygon fill="#63b8ff" stroke="#63b8ff" points="227.72,-171.86 236.92,-166.61 226.46,-164.98 227.72,-171.86"/>
</a>
</g>
</g>
<!-- Node12 -->
<g id="Node000012" class="node">
<title>Node12</title>
<g id="a_Node000012"><a xlink:href="class_camera.html#ab2b7b6a0f6fddefaed1f31ddd90279dc" target="_top" xlink:title=" ">
<polygon fill="white" stroke="#666666" points="316.25,-134 237.25,-134 237.25,-114 316.25,-114 316.25,-134"/>
<text text-anchor="middle" x="276.75" y="-120.5" font-family="Helvetica,sans-Serif" font-size="10.00">Camera::getW</text>
</a>
</g>
</g>
<!-- Node1&#45;&gt;Node12 -->
<g id="edge12_Node000001_Node000012" class="edge">
<title>Node1&#45;&gt;Node12</title>
<g id="a_edge12_Node000001_Node000012"><a xlink:title=" ">
<path fill="none" stroke="#63b8ff" d="M81.9,-246.84C97,-224.21 136.77,-169.59 184.75,-143 197.23,-136.09 211.93,-131.68 225.84,-128.88"/>
<polygon fill="#63b8ff" stroke="#63b8ff" points="226.04,-132.4 235.28,-127.22 224.83,-125.5 226.04,-132.4"/>
</a>
</g>
</g>
<!-- Node13 -->
<g id="Node000013" class="node">
<title>Node13</title>
<g id="a_Node000013"><a xlink:href="class_material.html#aebbf2f38964d3601bee4a73231e50683" target="_top" xlink:title=" ">
<polygon fill="white" stroke="#666666" points="334.25,-96 219.25,-96 219.25,-76 334.25,-76 334.25,-96"/>
<text text-anchor="middle" x="276.75" y="-82.5" font-family="Helvetica,sans-Serif" font-size="10.00">Material::isTransparent</text>
</a>
</g>
</g>
<!-- Node1&#45;&gt;Node13 -->
<g id="edge13_Node000001_Node000013" class="edge">
<title>Node1&#45;&gt;Node13</title>
<g id="a_edge13_Node000001_Node000013"><a xlink:title=" ">
<path fill="none" stroke="#63b8ff" d="M79.49,-246.86C91.28,-219.17 128.06,-141.86 184.75,-105 191.81,-100.41 199.76,-96.91 207.96,-94.23"/>
<polygon fill="#63b8ff" stroke="#63b8ff" points="208.69,-97.66 217.37,-91.58 206.79,-90.92 208.69,-97.66"/>
</a>
</g>
</g>
<!-- Node14 -->
<g id="Node000014" class="node">
<title>Node14</title>
<g id="a_Node000014"><a xlink:href="class_material.html#a7877c23c5a3b522271a3be3408ae1e9c" target="_top" xlink:title=" ">
<polygon fill="white" stroke="#666666" points="344.38,-58 209.12,-58 209.12,-38 344.38,-38 344.38,-58"/>
<text text-anchor="middle" x="276.75" y="-44.5" font-family="Helvetica,sans-Serif" font-size="10.00">Material::SetConstantBuffer</text>
</a>
</g>
</g>
<!-- Node1&#45;&gt;Node14 -->
<g id="edge14_Node000001_Node000014" class="edge">
<title>Node1&#45;&gt;Node14</title>
<g id="a_edge14_Node000001_Node000014"><a xlink:title=" ">
<path fill="none" stroke="#63b8ff" d="M78.04,-246.75C86.98,-214.51 119.11,-114.58 184.75,-67 188.91,-63.99 193.43,-61.43 198.17,-59.26"/>
<polygon fill="#63b8ff" stroke="#63b8ff" points="199.38,-62.55 207.43,-55.66 196.84,-56.03 199.38,-62.55"/>
</a>
</g>
</g>
<!-- Node15 -->
<g id="Node000015" class="node">
<title>Node15</title>
<g id="a_Node000015"><a xlink:href="class_material.html#a031a68217b55fb3c46a01757c58eb836" target="_top" xlink:title=" ">
<polygon fill="white" stroke="#666666" points="317.75,-20 235.75,-20 235.75,0 317.75,0 317.75,-20"/>
<text text-anchor="middle" x="276.75" y="-6.5" font-family="Helvetica,sans-Serif" font-size="10.00">Material::Setup</text>
</a>
</g>
</g>
<!-- Node1&#45;&gt;Node15 -->
<g id="edge15_Node000001_Node000015" class="edge">
<title>Node1&#45;&gt;Node15</title>
<g id="a_edge15_Node000001_Node000015"><a xlink:title=" ">
<path fill="none" stroke="#63b8ff" d="M77,-246.83C83.31,-210.73 109.76,-87.76 184.75,-29 195.98,-20.2 210.3,-15.21 224.24,-12.45"/>
<polygon fill="#63b8ff" stroke="#63b8ff" points="224.45,-15.96 233.77,-10.93 223.35,-9.05 224.45,-15.96"/>
</a>
</g>
</g>
<!-- Node2&#45;&gt;Node3 -->
<g id="edge2_Node000002_Node000003" class="edge">
<title>Node2&#45;&gt;Node3</title>
<g id="a_edge2_Node000002_Node000003"><a xlink:title=" ">
<path fill="none" stroke="#63b8ff" d="M490.22,-493.56C499.53,-489.68 509.89,-484.99 519,-480 554.23,-460.69 592.12,-433.63 615.38,-416.21"/>
<polygon fill="#63b8ff" stroke="#63b8ff" points="617.34,-419.12 623.2,-410.29 613.12,-413.53 617.34,-419.12"/>
</a>
</g>
</g>
<!-- Node15&#45;&gt;Node3 -->
<g id="edge16_Node000015_Node000003" class="edge">
<title>Node15&#45;&gt;Node3</title>
<g id="a_edge16_Node000015_Node000003"><a xlink:title=" ">
<path fill="none" stroke="#63b8ff" d="M318.23,-10.07C335.53,-12.06 354.89,-17.15 368.75,-29 403.07,-58.34 381.82,-85.1 404.75,-124 468.23,-231.7 574.54,-338.79 618.16,-380.63"/>
<polygon fill="#63b8ff" stroke="#63b8ff" points="615.73,-383.14 625.39,-387.5 620.55,-378.07 615.73,-383.14"/>
</a>
</g>
</g>
<!-- Node16 -->
<g id="Node000016" class="node">
<title>Node16</title>
<g id="a_Node000016"><a xlink:href="class_render_state.html#a6a48845d14ec5b7b8728549178626ce4" target="_top" xlink:title=" ">
<polygon fill="white" stroke="#666666" points="519,-115 404.75,-115 404.75,-95 519,-95 519,-115"/>
<text text-anchor="middle" x="461.88" y="-101.5" font-family="Helvetica,sans-Serif" font-size="10.00">RenderState::SetState</text>
</a>
</g>
</g>
<!-- Node15&#45;&gt;Node16 -->
<g id="edge17_Node000015_Node000016" class="edge">
<title>Node15&#45;&gt;Node16</title>
<g id="a_edge17_Node000015_Node000016"><a xlink:title=" ">
<path fill="none" stroke="#63b8ff" d="M318.07,-14.14C334.39,-16.89 353.04,-21.45 368.75,-29 398.46,-43.27 426.8,-69.13 444.01,-86.68"/>
<polygon fill="#63b8ff" stroke="#63b8ff" points="441.04,-88.63 450.48,-93.44 446.1,-83.8 441.04,-88.63"/>
</a>
</g>
</g>
<!-- Node16&#45;&gt;Node3 -->
<g id="edge18_Node000016_Node000003" class="edge">
<title>Node16&#45;&gt;Node3</title>
<g id="a_edge18_Node000016_Node000003"><a xlink:title=" ">
<path fill="none" stroke="#63b8ff" d="M469.1,-115.46C494.65,-158.42 591.74,-321.65 625.83,-378.96"/>
<polygon fill="#63b8ff" stroke="#63b8ff" points="622.71,-380.56 630.83,-387.36 628.72,-376.98 622.71,-380.56"/>
</a>
</g>
</g>
</g>
</svg>

<g id="navigator" transform="translate(0 0)" fill="#404254">
  <rect fill="#f2f5e9" fill-opacity="0.5" stroke="#606060" stroke-width=".5" x="0" y="0" width="60" height="60"/>
  <use id="zoomplus" xlink:href="#zoomPlus" x="17" y="9" onmousedown="handleZoom(evt,'in')"/>
  <use id="zoomminus" xlink:href="#zoomMin" x="42" y="9" onmousedown="handleZoom(evt,'out')"/>
  <use id="reset" xlink:href="#resetDef" x="30" y="36" onmousedown="handleReset()"/>
   <use id="arrowup" xlink:href="#arrowUp" x="0" y="0" onmousedown="handlePan(0,-1)"/>
  <use id="arrowright" xlink:href="#arrowRight" x="0" y="0" onmousedown="handlePan(1,0)"/>
  <use id="arrowdown" xlink:href="#arrowDown" x="0" y="0" onmousedown="handlePan(0,1)"/>
  <use id="arrowleft" xlink:href="#arrowLeft" x="0" y="0" onmousedown="handlePan(-1,0)"/>
</g>
<svg viewBox="0 0 15 15" width="100%" height="30px" preserveAspectRatio="xMaxYMin meet">
 <g id="arrow_out" transform="scale(0.3 0.3)">
  <a xlink:href="class_direct_x_manager_a939df5d867998c476f7c8fbacb39556d_cgraph_org.svg" target="_base">
   <rect id="button" ry="5" rx="5" y="6" x="6" height="38" width="38"
        fill="#f2f5e9" fill-opacity="0.5" stroke="#606060" stroke-width="1.0"/>
   <path id="arrow"
     d="M 11.500037,31.436501 C 11.940474,20.09759 22.043105,11.32322 32.158766,21.979434 L 37.068811,17.246167 C 37.068811,17.246167 37.088388,32 37.088388,32 L 22.160133,31.978069 C 22.160133,31.978069 26.997745,27.140456 26.997745,27.140456 C 18.528582,18.264221 13.291696,25.230495 11.500037,31.436501 z"
     style="fill:#404040;"/>
  </a>
 </g>
</svg>

<style type='text/css'>
<![CDATA[
[data-mouse-over-selected='false'] { opacity: 0.7; }
[data-mouse-over-selected='true']  { opacity: 1.0; }
]]>
</style>
<script type="application/ecmascript"><![CDATA[
document.addEventListener('DOMContentLoaded', (event) => {
  highlightEdges();
  highlightAdjacentNodes();
});
]]></script>
</svg>
