<?xml version="1.0" encoding="UTF-8" standalone="no"?>
<!DOCTYPE svg PUBLIC "-//W3C//DTD SVG 1.1//EN"
 "http://www.w3.org/Graphics/SVG/1.1/DTD/svg11.dtd">
<!-- Generated by graphviz version 9.0.0 (20230911.1827)
 -->
<!-- Title: Model::UpdateTransformationMatrix Pages: 1 -->
<svg width="964pt" height="104pt"
 viewBox="0.00 0.00 963.50 104.00" xmlns="http://www.w3.org/2000/svg" xmlns:xlink="http://www.w3.org/1999/xlink">
<g id="graph0" class="graph" transform="scale(1 1) rotate(0) translate(4 100)">
<title>Model::UpdateTransformationMatrix</title>
<!-- Node1 -->
<g id="Node000001" class="node">
<title>Node1</title>
<g id="a_Node000001"><a xlink:title=" ">
<polygon fill="#999999" stroke="#666666" points="955.5,-58 785.75,-58 785.75,-38 955.5,-38 955.5,-58"/>
<text text-anchor="middle" x="870.62" y="-44.5" font-family="Helvetica,sans-Serif" font-size="10.00">Model::UpdateTransformationMatrix</text>
</a>
</g>
</g>
<!-- Node2 -->
<g id="Node000002" class="node">
<title>Node2</title>
<g id="a_Node000002"><a xlink:href="class_model.html#aad465ba03d1c753232c59a6c6747b18f" target="_top" xlink:title=" ">
<polygon fill="white" stroke="#666666" points="749.38,-96 650.88,-96 650.88,-76 749.38,-76 749.38,-96"/>
<text text-anchor="middle" x="700.12" y="-82.5" font-family="Helvetica,sans-Serif" font-size="10.00">Model::SetPosition</text>
</a>
</g>
</g>
<!-- Node1&#45;&gt;Node2 -->
<g id="edge1_Node000001_Node000002" class="edge">
<title>Node1&#45;&gt;Node2</title>
<g id="a_edge1_Node000001_Node000002"><a xlink:title=" ">
<path fill="none" stroke="#63b8ff" d="M812.05,-60.98C790.98,-65.74 767.43,-71.05 747.46,-75.55"/>
<polygon fill="#63b8ff" stroke="#63b8ff" points="812.67,-64.43 821.66,-58.82 811.13,-57.6 812.67,-64.43"/>
</a>
</g>
</g>
<!-- Node8 -->
<g id="Node000008" class="node">
<title>Node8</title>
<g id="a_Node000008"><a xlink:href="class_model.html#a57035d77f213ec90ebc355fd9c0d0e05" target="_top" xlink:title=" ">
<polygon fill="white" stroke="#666666" points="749.75,-58 650.5,-58 650.5,-38 749.75,-38 749.75,-58"/>
<text text-anchor="middle" x="700.12" y="-44.5" font-family="Helvetica,sans-Serif" font-size="10.00">Model::SetRotation</text>
</a>
</g>
</g>
<!-- Node1&#45;&gt;Node8 -->
<g id="edge8_Node000001_Node000008" class="edge">
<title>Node1&#45;&gt;Node8</title>
<g id="a_edge8_Node000001_Node000008"><a xlink:title=" ">
<path fill="none" stroke="#63b8ff" d="M773.99,-48C765.69,-48 757.53,-48 749.86,-48"/>
<polygon fill="#63b8ff" stroke="#63b8ff" points="773.86,-51.5 783.86,-48 773.86,-44.5 773.86,-51.5"/>
</a>
</g>
</g>
<!-- Node9 -->
<g id="Node000009" class="node">
<title>Node9</title>
<g id="a_Node000009"><a xlink:href="class_model.html#ac517047da883a877b300c13c2fce17d9" target="_top" xlink:title=" ">
<polygon fill="white" stroke="#666666" points="744.12,-20 656.12,-20 656.12,0 744.12,0 744.12,-20"/>
<text text-anchor="middle" x="700.12" y="-6.5" font-family="Helvetica,sans-Serif" font-size="10.00">Model::SetScale</text>
</a>
</g>
</g>
<!-- Node1&#45;&gt;Node9 -->
<g id="edge11_Node000001_Node000009" class="edge">
<title>Node1&#45;&gt;Node9</title>
<g id="a_edge11_Node000001_Node000009"><a xlink:title=" ">
<path fill="none" stroke="#63b8ff" d="M812.19,-35.05C790.06,-30.06 765.17,-24.44 744.57,-19.8"/>
<polygon fill="#63b8ff" stroke="#63b8ff" points="811.13,-38.4 821.66,-37.18 812.67,-31.57 811.13,-38.4"/>
</a>
</g>
</g>
<!-- Node3 -->
<g id="Node000003" class="node">
<title>Node3</title>
<g id="a_Node000003"><a xlink:href="class_direct_x_manager.html#a7f652b8737c1a55544f67b19b19f4d6a" target="_top" xlink:title=" ">
<polygon fill="white" stroke="#666666" points="614.5,-77 454.5,-77 454.5,-57 614.5,-57 614.5,-77"/>
<text text-anchor="middle" x="534.5" y="-63.5" font-family="Helvetica,sans-Serif" font-size="10.00">DirectXManager::handleKeyDown</text>
</a>
</g>
</g>
<!-- Node2&#45;&gt;Node3 -->
<g id="edge2_Node000002_Node000003" class="edge">
<title>Node2&#45;&gt;Node3</title>
<g id="a_edge2_Node000002_Node000003"><a xlink:title=" ">
<path fill="none" stroke="#63b8ff" d="M639.15,-79.04C631.26,-78.12 623.07,-77.17 614.92,-76.22"/>
<polygon fill="#63b8ff" stroke="#63b8ff" points="638.63,-82.5 648.97,-80.18 639.44,-75.55 638.63,-82.5"/>
</a>
</g>
</g>
<!-- Node7 -->
<g id="Node000007" class="node">
<title>Node7</title>
<g id="a_Node000007"><a xlink:href="class_direct_x_manager.html#ac95cceb904d9893d0b135c2bd9039b33" target="_top" xlink:title=" ">
<polygon fill="white" stroke="#666666" points="597.25,-39 471.75,-39 471.75,-19 597.25,-19 597.25,-39"/>
<text text-anchor="middle" x="534.5" y="-25.5" font-family="Helvetica,sans-Serif" font-size="10.00">DirectXManager::Initialize</text>
</a>
</g>
</g>
<!-- Node2&#45;&gt;Node7 -->
<g id="edge6_Node000002_Node000007" class="edge">
<title>Node2&#45;&gt;Node7</title>
<g id="a_edge6_Node000002_Node000007"><a xlink:title=" ">
<path fill="none" stroke="#63b8ff" d="M660.28,-71.28C656.95,-69.88 653.65,-68.44 650.5,-67 634.05,-59.47 631.43,-54.39 614.5,-48 605.79,-44.71 596.32,-41.86 587.06,-39.43"/>
<polygon fill="#63b8ff" stroke="#63b8ff" points="658.89,-74.49 669.47,-75.01 661.52,-68.01 658.89,-74.49"/>
</a>
</g>
</g>
<!-- Node4 -->
<g id="Node000004" class="node">
<title>Node4</title>
<g id="a_Node000004"><a xlink:href="class_win32_application.html#ae0aa88d9449557e8772fc70c1043e55c" target="_top" xlink:title=" ">
<polygon fill="white" stroke="#666666" points="418.5,-77 266,-77 266,-57 418.5,-57 418.5,-77"/>
<text text-anchor="middle" x="342.25" y="-63.5" font-family="Helvetica,sans-Serif" font-size="10.00">Win32Application::WindowProc</text>
</a>
</g>
</g>
<!-- Node3&#45;&gt;Node4 -->
<g id="edge3_Node000003_Node000004" class="edge">
<title>Node3&#45;&gt;Node4</title>
<g id="a_edge3_Node000003_Node000004"><a xlink:title=" ">
<path fill="none" stroke="#63b8ff" d="M442.85,-67C434.79,-67 426.68,-67 418.77,-67"/>
<polygon fill="#63b8ff" stroke="#63b8ff" points="442.68,-70.5 452.68,-67 442.68,-63.5 442.68,-70.5"/>
</a>
</g>
</g>
<!-- Node5 -->
<g id="Node000005" class="node">
<title>Node5</title>
<g id="a_Node000005"><a xlink:href="class_win32_application.html#a05c9e61b80735ab0b3fa576ebab260d6" target="_top" xlink:title=" ">
<polygon fill="white" stroke="#666666" points="230,-77 97,-77 97,-57 230,-57 230,-77"/>
<text text-anchor="middle" x="163.5" y="-63.5" font-family="Helvetica,sans-Serif" font-size="10.00">Win32Application::Initialize</text>
</a>
</g>
</g>
<!-- Node4&#45;&gt;Node5 -->
<g id="edge4_Node000004_Node000005" class="edge">
<title>Node4&#45;&gt;Node5</title>
<g id="a_edge4_Node000004_Node000005"><a xlink:title=" ">
<path fill="none" stroke="#63b8ff" d="M254.2,-67C246.17,-67 238.12,-67 230.32,-67"/>
<polygon fill="#63b8ff" stroke="#63b8ff" points="254.01,-70.5 264.01,-67 254.01,-63.5 254.01,-70.5"/>
</a>
</g>
</g>
<!-- Node6 -->
<g id="Node000006" class="node">
<title>Node6</title>
<g id="a_Node000006"><a xlink:href="_game_engine_8cpp.html#a1e683c5a19c00d05cd803e46b805e339" target="_top" xlink:title=" ">
<polygon fill="white" stroke="#666666" points="61,-58 0,-58 0,-38 61,-38 61,-58"/>
<text text-anchor="middle" x="30.5" y="-44.5" font-family="Helvetica,sans-Serif" font-size="10.00">wWinMain</text>
</a>
</g>
</g>
<!-- Node5&#45;&gt;Node6 -->
<g id="edge5_Node000005_Node000006" class="edge">
<title>Node5&#45;&gt;Node6</title>
<g id="a_edge5_Node000005_Node000006"><a xlink:title=" ">
<path fill="none" stroke="#63b8ff" d="M85.37,-55.81C76.9,-54.58 68.69,-53.39 61.35,-52.33"/>
<polygon fill="#63b8ff" stroke="#63b8ff" points="84.72,-59.26 95.12,-57.23 85.72,-52.33 84.72,-59.26"/>
</a>
</g>
</g>
<!-- Node7&#45;&gt;Node6 -->
<g id="edge7_Node000007_Node000006" class="edge">
<title>Node7&#45;&gt;Node6</title>
<g id="a_edge7_Node000007_Node000006"><a xlink:title=" ">
<path fill="none" stroke="#63b8ff" d="M460.25,-31.77C348.19,-36.01 139.03,-43.93 61.46,-46.87"/>
<polygon fill="#63b8ff" stroke="#63b8ff" points="460.07,-35.28 469.93,-31.41 459.8,-28.29 460.07,-35.28"/>
</a>
</g>
</g>
<!-- Node8&#45;&gt;Node3 -->
<g id="edge9_Node000008_Node000003" class="edge">
<title>Node8&#45;&gt;Node3</title>
<g id="a_edge9_Node000008_Node000003"><a xlink:title=" ">
<path fill="none" stroke="#63b8ff" d="M638.82,-55C631.01,-55.91 622.92,-56.85 614.85,-57.79"/>
<polygon fill="#63b8ff" stroke="#63b8ff" points="639,-58.51 648.53,-53.88 638.19,-51.55 639,-58.51"/>
</a>
</g>
</g>
<!-- Node8&#45;&gt;Node7 -->
<g id="edge10_Node000008_Node000007" class="edge">
<title>Node8&#45;&gt;Node7</title>
<g id="a_edge10_Node000008_Node000007"><a xlink:title=" ">
<path fill="none" stroke="#63b8ff" d="M638.95,-41.01C625.48,-39.45 611.17,-37.79 597.63,-36.21"/>
<polygon fill="#63b8ff" stroke="#63b8ff" points="638.19,-44.45 648.53,-42.12 639,-37.49 638.19,-44.45"/>
</a>
</g>
</g>
<!-- Node9&#45;&gt;Node3 -->
<g id="edge12_Node000009_Node000003" class="edge">
<title>Node9&#45;&gt;Node3</title>
<g id="a_edge12_Node000009_Node000003"><a xlink:title=" ">
<path fill="none" stroke="#63b8ff" d="M660.28,-24.72C656.95,-26.12 653.65,-27.56 650.5,-29 634.05,-36.53 631.43,-41.61 614.5,-48 605.79,-51.29 596.32,-54.14 587.06,-56.57"/>
<polygon fill="#63b8ff" stroke="#63b8ff" points="661.52,-27.99 669.47,-20.99 658.89,-21.51 661.52,-27.99"/>
</a>
</g>
</g>
<!-- Node9&#45;&gt;Node7 -->
<g id="edge13_Node000009_Node000007" class="edge">
<title>Node9&#45;&gt;Node7</title>
<g id="a_edge13_Node000009_Node000007"><a xlink:title=" ">
<path fill="none" stroke="#63b8ff" d="M644.51,-16.34C629.47,-18.09 613.04,-20 597.6,-21.79"/>
<polygon fill="#63b8ff" stroke="#63b8ff" points="644.67,-19.85 654.2,-15.22 643.87,-12.89 644.67,-19.85"/>
</a>
</g>
</g>
</g>
</svg>
