<?xml version="1.0" encoding="UTF-8" standalone="no"?>
<!DOCTYPE svg PUBLIC "-//W3C//DTD SVG 1.1//EN"
 "http://www.w3.org/Graphics/SVG/1.1/DTD/svg11.dtd">
<!-- Generated by graphviz version 9.0.0 (20230911.1827)
 -->
<!-- Title: Camera::calculateV Pages: 1 -->
<!--zoomable 104 -->

<svg id="main" version="1.1" xmlns="http://www.w3.org/2000/svg" xmlns:xlink="http://www.w3.org/1999/xlink" xml:space="preserve" onload="init(evt)">
<style type="text/css"><![CDATA[
.node, .edge {opacity: 0.7;}
.node.selected, .edge.selected {opacity: 1;}
.edge:hover path { stroke: red; }
.edge:hover polygon { stroke: red; fill: red; }
]]></style>

<defs>
  <circle id="rim" cx="0" cy="0" r="7"/>
  <circle id="rim2" cx="0" cy="0" r="3.5"/>
  <g id="zoomPlus">
    <use xlink:href="#rim" fill="#404040"><set attributeName="fill" to="#808080" begin="zoomplus.mouseover" end="zoomplus.mouseout"/></use>
    <path d="M-4,0h8M0,-4v8" fill="none" stroke="white" stroke-width="1.5" pointer-events="none"/>
  </g>
  <g id="zoomMin">
    <use xlink:href="#rim" fill="#404040"><set attributeName="fill" to="#808080" begin="zoomminus.mouseover" end="zoomminus.mouseout"/></use>
    <path d="M-4,0h8" fill="none" stroke="white" stroke-width="1.5" pointer-events="none"/>
  </g>
  <g id="arrowUp" transform="translate(30 24)">
    <use xlink:href="#rim"/>
    <path pointer-events="none" fill="none" stroke="white" stroke-width="1.5" d="M0,-3.0v7 M-2.5,-0.5L0,-3.0L2.5,-0.5"/>
  </g>
  <g id="arrowRight" transform="rotate(90) translate(36 -43)">
    <use xlink:href="#rim"/>
    <path pointer-events="none" fill="none" stroke="white" stroke-width="1.5" d="M0,-3.0v7 M-2.5,-0.5L0,-3.0L2.5,-0.5"/>
  </g>
  <g id="arrowDown" transform="rotate(180) translate(-30 -48)">
    <use xlink:href="#rim"/>
    <path pointer-events="none" fill="none" stroke="white" stroke-width="1.5" d="M0,-3.0v7 M-2.5,-0.5L0,-3.0L2.5,-0.5"/>
  </g>
  <g id="arrowLeft" transform="rotate(270) translate(-36 17)">
    <use xlink:href="#rim"/>
    <path pointer-events="none" fill="none" stroke="white" stroke-width="1.5" d="M0,-3.0v7 M-2.5,-0.5L0,-3.0L2.5,-0.5"/>
  </g>
  <g id="resetDef">
    <use xlink:href="#rim2" fill="#404040"><set attributeName="fill" to="#808080" begin="reset.mouseover" end="reset.mouseout"/></use>
  </g>
</defs>
<script type="application/ecmascript">
var viewWidth = 673;
var viewHeight = 104;
var sectionId = 'dynsection-5';
</script>
<script type="application/ecmascript" xlink:href="svg.min.js"/>
<svg id="graph" class="graph">
<g id="viewport">
<title>Camera::calculateV</title>
<!-- Node1 -->
<g id="Node000001" class="node">
<title>Node1</title>
<g id="a_Node000001"><a xlink:title=" ">
<polygon fill="#999999" stroke="#666666" points="665,-58 563.5,-58 563.5,-38 665,-38 665,-58"/>
<text text-anchor="middle" x="614.25" y="-44.5" font-family="Helvetica,sans-Serif" font-size="10.00">Camera::calculateV</text>
</a>
</g>
</g>
<!-- Node2 -->
<g id="Node000002" class="node">
<title>Node2</title>
<g id="a_Node000002"><a xlink:href="class_camera.html#a35229a64fcaf1a94a954aabf0b1545d9" target="_top" xlink:title=" ">
<polygon fill="white" stroke="#666666" points="517,-96 426,-96 426,-76 517,-76 517,-96"/>
<text text-anchor="middle" x="471.5" y="-82.5" font-family="Helvetica,sans-Serif" font-size="10.00">Camera::Initialize</text>
</a>
</g>
</g>
<!-- Node1&#45;&gt;Node2 -->
<g id="edge1_Node000001_Node000002" class="edge">
<title>Node1&#45;&gt;Node2</title>
<g id="a_edge1_Node000001_Node000002"><a xlink:title=" ">
<path fill="none" stroke="#63b8ff" d="M563.45,-61.45C546.29,-66.08 527.34,-71.19 511.21,-75.55"/>
<polygon fill="#63b8ff" stroke="#63b8ff" points="564.21,-64.86 572.96,-58.88 562.39,-58.11 564.21,-64.86"/>
</a>
</g>
</g>
<!-- Node5 -->
<g id="Node000005" class="node">
<title>Node5</title>
<g id="a_Node000005"><a xlink:href="class_camera.html#a48dfa19aab3188bfb069a489e5ad9a87" target="_top" xlink:title=" ">
<polygon fill="white" stroke="#666666" points="527.5,-58 415.5,-58 415.5,-38 527.5,-38 527.5,-58"/>
<text text-anchor="middle" x="471.5" y="-44.5" font-family="Helvetica,sans-Serif" font-size="10.00">Camera::MoveCamera</text>
</a>
</g>
</g>
<!-- Node1&#45;&gt;Node5 -->
<g id="edge4_Node000001_Node000005" class="edge">
<title>Node1&#45;&gt;Node5</title>
<g id="a_edge4_Node000001_Node000005"><a xlink:title=" ">
<path fill="none" stroke="#63b8ff" d="M551.95,-48C543.85,-48 535.6,-48 527.62,-48"/>
<polygon fill="#63b8ff" stroke="#63b8ff" points="551.72,-51.5 561.72,-48 551.72,-44.5 551.72,-51.5"/>
</a>
</g>
</g>
<!-- Node6 -->
<g id="Node000006" class="node">
<title>Node6</title>
<g id="a_Node000006"><a xlink:href="class_camera.html#a02990aac6f3ed367157b0b8bab0b0143" target="_top" xlink:title=" ">
<polygon fill="white" stroke="#666666" points="514.75,-20 428.25,-20 428.25,0 514.75,0 514.75,-20"/>
<text text-anchor="middle" x="471.5" y="-6.5" font-family="Helvetica,sans-Serif" font-size="10.00">Camera::Update</text>
</a>
</g>
</g>
<!-- Node1&#45;&gt;Node6 -->
<g id="edge5_Node000001_Node000006" class="edge">
<title>Node1&#45;&gt;Node6</title>
<g id="a_edge5_Node000001_Node000006"><a xlink:title=" ">
<path fill="none" stroke="#63b8ff" d="M563.45,-34.55C546.29,-29.92 527.34,-24.81 511.21,-20.45"/>
<polygon fill="#63b8ff" stroke="#63b8ff" points="562.39,-37.89 572.96,-37.12 564.21,-31.14 562.39,-37.89"/>
</a>
</g>
</g>
<!-- Node3 -->
<g id="Node000003" class="node">
<title>Node3</title>
<g id="a_Node000003"><a xlink:href="class_direct_x_manager.html#ac95cceb904d9893d0b135c2bd9039b33" target="_top" xlink:title=" ">
<polygon fill="white" stroke="#666666" points="222.5,-91 97,-91 97,-71 222.5,-71 222.5,-91"/>
<text text-anchor="middle" x="159.75" y="-77.5" font-family="Helvetica,sans-Serif" font-size="10.00">DirectXManager::Initialize</text>
</a>
</g>
</g>
<!-- Node2&#45;&gt;Node3 -->
<g id="edge2_Node000002_Node000003" class="edge">
<title>Node2&#45;&gt;Node3</title>
<g id="a_edge2_Node000002_Node000003"><a xlink:title=" ">
<path fill="none" stroke="#63b8ff" d="M414.36,-85.09C360.33,-84.22 278.79,-82.91 222.84,-82"/>
<polygon fill="#63b8ff" stroke="#63b8ff" points="414.22,-88.59 424.28,-85.25 414.33,-81.59 414.22,-88.59"/>
</a>
</g>
</g>
<!-- Node4 -->
<g id="Node000004" class="node">
<title>Node4</title>
<g id="a_Node000004"><a xlink:href="_game_engine_8cpp.html#a1e683c5a19c00d05cd803e46b805e339" target="_top" xlink:title=" ">
<polygon fill="white" stroke="#666666" points="61,-67 0,-67 0,-47 61,-47 61,-67"/>
<text text-anchor="middle" x="30.5" y="-53.5" font-family="Helvetica,sans-Serif" font-size="10.00">wWinMain</text>
</a>
</g>
</g>
<!-- Node3&#45;&gt;Node4 -->
<g id="edge3_Node000003_Node000004" class="edge">
<title>Node3&#45;&gt;Node4</title>
<g id="a_edge3_Node000003_Node000004"><a xlink:title=" ">
<path fill="none" stroke="#63b8ff" d="M92.06,-68.42C81.25,-66.38 70.56,-64.37 61.24,-62.61"/>
<polygon fill="#63b8ff" stroke="#63b8ff" points="91.34,-71.85 101.82,-70.26 92.64,-64.97 91.34,-71.85"/>
</a>
</g>
</g>
<!-- Node7 -->
<g id="Node000007" class="node">
<title>Node7</title>
<g id="a_Node000007"><a xlink:href="class_direct_x_manager.html#a2717dd089cad24c77c753ecc6bc139b2" target="_top" xlink:title=" ">
<polygon fill="white" stroke="#666666" points="379.5,-39 258.5,-39 258.5,-19 379.5,-19 379.5,-39"/>
<text text-anchor="middle" x="319" y="-25.5" font-family="Helvetica,sans-Serif" font-size="10.00">DirectXManager::Update</text>
</a>
</g>
</g>
<!-- Node6&#45;&gt;Node7 -->
<g id="edge6_Node000006_Node000007" class="edge">
<title>Node6&#45;&gt;Node7</title>
<g id="a_edge6_Node000006_Node000007"><a xlink:title=" ">
<path fill="none" stroke="#63b8ff" d="M416.65,-16.8C404.76,-18.3 392.09,-19.9 379.96,-21.43"/>
<polygon fill="#63b8ff" stroke="#63b8ff" points="416.79,-20.31 426.27,-15.58 415.91,-13.36 416.79,-20.31"/>
</a>
</g>
</g>
<!-- Node8 -->
<g id="Node000008" class="node">
<title>Node8</title>
<g id="a_Node000008"><a xlink:href="class_win32_application.html#a1d44083e5c10ac5faea4a4e0633898b6" target="_top" xlink:title=" ">
<polygon fill="white" stroke="#666666" points="217.25,-48 102.25,-48 102.25,-28 217.25,-28 217.25,-48"/>
<text text-anchor="middle" x="159.75" y="-34.5" font-family="Helvetica,sans-Serif" font-size="10.00">Win32Application::Run</text>
</a>
</g>
</g>
<!-- Node7&#45;&gt;Node8 -->
<g id="edge7_Node000007_Node000008" class="edge">
<title>Node7&#45;&gt;Node8</title>
<g id="a_edge7_Node000007_Node000008"><a xlink:title=" ">
<path fill="none" stroke="#63b8ff" d="M246.75,-33.08C237,-33.64 227.09,-34.2 217.63,-34.74"/>
<polygon fill="#63b8ff" stroke="#63b8ff" points="246.81,-36.58 256.59,-32.51 246.41,-29.59 246.81,-36.58"/>
</a>
</g>
</g>
<!-- Node8&#45;&gt;Node4 -->
<g id="edge8_Node000008_Node000004" class="edge">
<title>Node8&#45;&gt;Node4</title>
<g id="a_edge8_Node000008_Node000004"><a xlink:title=" ">
<path fill="none" stroke="#63b8ff" d="M90.6,-48.18C80.27,-49.72 70.1,-51.24 61.19,-52.57"/>
<polygon fill="#63b8ff" stroke="#63b8ff" points="90.95,-51.66 100.33,-46.72 89.92,-44.74 90.95,-51.66"/>
</a>
</g>
</g>
</g>
</svg>

<g id="navigator" transform="translate(0 0)" fill="#404254">
  <rect fill="#f2f5e9" fill-opacity="0.5" stroke="#606060" stroke-width=".5" x="0" y="0" width="60" height="60"/>
  <use id="zoomplus" xlink:href="#zoomPlus" x="17" y="9" onmousedown="handleZoom(evt,'in')"/>
  <use id="zoomminus" xlink:href="#zoomMin" x="42" y="9" onmousedown="handleZoom(evt,'out')"/>
  <use id="reset" xlink:href="#resetDef" x="30" y="36" onmousedown="handleReset()"/>
   <use id="arrowup" xlink:href="#arrowUp" x="0" y="0" onmousedown="handlePan(0,-1)"/>
  <use id="arrowright" xlink:href="#arrowRight" x="0" y="0" onmousedown="handlePan(1,0)"/>
  <use id="arrowdown" xlink:href="#arrowDown" x="0" y="0" onmousedown="handlePan(0,1)"/>
  <use id="arrowleft" xlink:href="#arrowLeft" x="0" y="0" onmousedown="handlePan(-1,0)"/>
</g>
<svg viewBox="0 0 15 15" width="100%" height="30px" preserveAspectRatio="xMaxYMin meet">
 <g id="arrow_out" transform="scale(0.3 0.3)">
  <a xlink:href="class_camera_ab41e9e98499b4b6f3898d6b7e52a8be0_icgraph_org.svg" target="_base">
   <rect id="button" ry="5" rx="5" y="6" x="6" height="38" width="38"
        fill="#f2f5e9" fill-opacity="0.5" stroke="#606060" stroke-width="1.0"/>
   <path id="arrow"
     d="M 11.500037,31.436501 C 11.940474,20.09759 22.043105,11.32322 32.158766,21.979434 L 37.068811,17.246167 C 37.068811,17.246167 37.088388,32 37.088388,32 L 22.160133,31.978069 C 22.160133,31.978069 26.997745,27.140456 26.997745,27.140456 C 18.528582,18.264221 13.291696,25.230495 11.500037,31.436501 z"
     style="fill:#404040;"/>
  </a>
 </g>
</svg>

<style type='text/css'>
<![CDATA[
[data-mouse-over-selected='false'] { opacity: 0.7; }
[data-mouse-over-selected='true']  { opacity: 1.0; }
]]>
</style>
<script type="application/ecmascript"><![CDATA[
document.addEventListener('DOMContentLoaded', (event) => {
  highlightEdges();
  highlightAdjacentNodes();
});
]]></script>
</svg>
