<?xml version="1.0" encoding="UTF-8" standalone="no"?>
<!DOCTYPE svg PUBLIC "-//W3C//DTD SVG 1.1//EN"
 "http://www.w3.org/Graphics/SVG/1.1/DTD/svg11.dtd">
<!-- Generated by graphviz version 9.0.0 (20230911.1827)
 -->
<!-- Title: Model Pages: 1 -->
<!--zoomable 1472 -->

<svg id="main" version="1.1" xmlns="http://www.w3.org/2000/svg" xmlns:xlink="http://www.w3.org/1999/xlink" xml:space="preserve" onload="init(evt)">
<style type="text/css"><![CDATA[
.node, .edge {opacity: 0.7;}
.node.selected, .edge.selected {opacity: 1;}
.edge:hover path { stroke: red; }
.edge:hover polygon { stroke: red; fill: red; }
]]></style>

<defs>
  <circle id="rim" cx="0" cy="0" r="7"/>
  <circle id="rim2" cx="0" cy="0" r="3.5"/>
  <g id="zoomPlus">
    <use xlink:href="#rim" fill="#404040"><set attributeName="fill" to="#808080" begin="zoomplus.mouseover" end="zoomplus.mouseout"/></use>
    <path d="M-4,0h8M0,-4v8" fill="none" stroke="white" stroke-width="1.5" pointer-events="none"/>
  </g>
  <g id="zoomMin">
    <use xlink:href="#rim" fill="#404040"><set attributeName="fill" to="#808080" begin="zoomminus.mouseover" end="zoomminus.mouseout"/></use>
    <path d="M-4,0h8" fill="none" stroke="white" stroke-width="1.5" pointer-events="none"/>
  </g>
  <g id="arrowUp" transform="translate(30 24)">
    <use xlink:href="#rim"/>
    <path pointer-events="none" fill="none" stroke="white" stroke-width="1.5" d="M0,-3.0v7 M-2.5,-0.5L0,-3.0L2.5,-0.5"/>
  </g>
  <g id="arrowRight" transform="rotate(90) translate(36 -43)">
    <use xlink:href="#rim"/>
    <path pointer-events="none" fill="none" stroke="white" stroke-width="1.5" d="M0,-3.0v7 M-2.5,-0.5L0,-3.0L2.5,-0.5"/>
  </g>
  <g id="arrowDown" transform="rotate(180) translate(-30 -48)">
    <use xlink:href="#rim"/>
    <path pointer-events="none" fill="none" stroke="white" stroke-width="1.5" d="M0,-3.0v7 M-2.5,-0.5L0,-3.0L2.5,-0.5"/>
  </g>
  <g id="arrowLeft" transform="rotate(270) translate(-36 17)">
    <use xlink:href="#rim"/>
    <path pointer-events="none" fill="none" stroke="white" stroke-width="1.5" d="M0,-3.0v7 M-2.5,-0.5L0,-3.0L2.5,-0.5"/>
  </g>
  <g id="resetDef">
    <use xlink:href="#rim2" fill="#404040"><set attributeName="fill" to="#808080" begin="reset.mouseover" end="reset.mouseout"/></use>
  </g>
</defs>
<script type="application/ecmascript">
var viewWidth = 1231;
var viewHeight = 1472;
var sectionId = 'dynsection-0';
</script>
<script type="application/ecmascript" xlink:href="svg.min.js"/>
<svg id="graph" class="graph">
<g id="viewport">
<title>Model</title>
<!-- Node1 -->
<g id="Node000001" class="node">
<title>Node1</title>
<g id="a_Node000001"><a xlink:title=" ">
<polygon fill="#999999" stroke="none" points="244,-1092 0,-1092 0,-832 244,-832 244,-1092"/>
<text text-anchor="start" x="108.88" y="-1078.5" font-family="Helvetica,sans-Serif" font-size="10.00">Model</text>
<text text-anchor="start" x="5.5" y="-1062.5" font-family="Helvetica,sans-Serif" font-size="10.00">&#45;</text>
<text text-anchor="start" x="14" y="-1062.5" font-family="Helvetica,sans-Serif" font-size="10.00">DirectX::XMFLOAT3 position</text>
<text text-anchor="start" x="5.5" y="-1046.5" font-family="Helvetica,sans-Serif" font-size="10.00">&#45;</text>
<text text-anchor="start" x="14" y="-1046.5" font-family="Helvetica,sans-Serif" font-size="10.00">DirectX::XMFLOAT3 rotation</text>
<text text-anchor="start" x="5.5" y="-1030.5" font-family="Helvetica,sans-Serif" font-size="10.00">&#45;</text>
<text text-anchor="start" x="14" y="-1030.5" font-family="Helvetica,sans-Serif" font-size="10.00">DirectX::XMFLOAT3 scale</text>
<text text-anchor="start" x="5.5" y="-1014.5" font-family="Helvetica,sans-Serif" font-size="10.00">&#45;</text>
<text text-anchor="start" x="14" y="-1014.5" font-family="Helvetica,sans-Serif" font-size="10.00">DirectX::XMMATRIX transformationMatrix</text>
<text text-anchor="start" x="4" y="-998.5" font-family="Helvetica,sans-Serif" font-size="10.00">+</text>
<text text-anchor="start" x="14" y="-998.5" font-family="Helvetica,sans-Serif" font-size="10.00">Model(GraphicsDevice *graphicsDevice)</text>
<text text-anchor="start" x="4" y="-982.5" font-family="Helvetica,sans-Serif" font-size="10.00">+</text>
<text text-anchor="start" x="14" y="-982.5" font-family="Helvetica,sans-Serif" font-size="10.00">void AddMeshEntry(Mesh *mesh, Material *material)</text>
<text text-anchor="start" x="4" y="-966.5" font-family="Helvetica,sans-Serif" font-size="10.00">+</text>
<text text-anchor="start" x="14" y="-966.5" font-family="Helvetica,sans-Serif" font-size="10.00">void SetPosition(const DirectX::XMFLOAT3 &amp;pos)</text>
<text text-anchor="start" x="4" y="-950.5" font-family="Helvetica,sans-Serif" font-size="10.00">+</text>
<text text-anchor="start" x="14" y="-950.5" font-family="Helvetica,sans-Serif" font-size="10.00">void SetRotation(const DirectX::XMFLOAT3 &amp;rot)</text>
<text text-anchor="start" x="4" y="-934.5" font-family="Helvetica,sans-Serif" font-size="10.00">+</text>
<text text-anchor="start" x="14" y="-934.5" font-family="Helvetica,sans-Serif" font-size="10.00">void SetScale(const DirectX::XMFLOAT3 &amp;scl)</text>
<text text-anchor="start" x="4" y="-918.5" font-family="Helvetica,sans-Serif" font-size="10.00">+</text>
<text text-anchor="start" x="14" y="-918.5" font-family="Helvetica,sans-Serif" font-size="10.00">DirectX::XMFLOAT3 GetPosition()</text>
<text text-anchor="start" x="4" y="-902.5" font-family="Helvetica,sans-Serif" font-size="10.00">+</text>
<text text-anchor="start" x="14" y="-902.5" font-family="Helvetica,sans-Serif" font-size="10.00">DirectX::XMFLOAT3 GetRotation()</text>
<text text-anchor="start" x="4" y="-886.5" font-family="Helvetica,sans-Serif" font-size="10.00">+</text>
<text text-anchor="start" x="14" y="-886.5" font-family="Helvetica,sans-Serif" font-size="10.00">DirectX::XMFLOAT3 GetScale()</text>
<text text-anchor="start" x="4" y="-870.5" font-family="Helvetica,sans-Serif" font-size="10.00">+</text>
<text text-anchor="start" x="14" y="-870.5" font-family="Helvetica,sans-Serif" font-size="10.00">void UpdateTransformationMatrix()</text>
<text text-anchor="start" x="4" y="-854.5" font-family="Helvetica,sans-Serif" font-size="10.00">+</text>
<text text-anchor="start" x="14" y="-854.5" font-family="Helvetica,sans-Serif" font-size="10.00">XMMATRIX GetTransformationMatrix()</text>
<text text-anchor="start" x="4" y="-838.5" font-family="Helvetica,sans-Serif" font-size="10.00">+</text>
<text text-anchor="start" x="14" y="-838.5" font-family="Helvetica,sans-Serif" font-size="10.00">std::vector&lt; MeshEntry &gt; GetMeshEntries()</text>
<polygon fill="#666666" stroke="#666666" points="0,-1074 0,-1074 244,-1074 244,-1074 0,-1074"/>
<polygon fill="#666666" stroke="#666666" points="0,-1010 0,-1010 12,-1010 12,-1010 0,-1010"/>
<polygon fill="#666666" stroke="#666666" points="12,-1010 12,-1010 244,-1010 244,-1010 12,-1010"/>
<polygon fill="none" stroke="#666666" points="0,-832 0,-1092 244,-1092 244,-832 0,-832"/>
</a>
</g>
</g>
<!-- Node4 -->
<g id="Node000004" class="node">
<title>Node4</title>
<g id="a_Node000004"><a xlink:href="class_mesh.html" target="_top" xlink:title=" ">
<polygon fill="white" stroke="none" points="512,-568 242,-568 242,-436 512,-436 512,-568"/>
<text text-anchor="start" x="365" y="-554.5" font-family="Helvetica,sans-Serif" font-size="10.00">Mesh</text>
<text text-anchor="start" x="247.5" y="-538.5" font-family="Helvetica,sans-Serif" font-size="10.00">&#45;</text>
<text text-anchor="start" x="256" y="-538.5" font-family="Helvetica,sans-Serif" font-size="10.00">ID3D11Buffer * vertexBuffer</text>
<text text-anchor="start" x="247.5" y="-522.5" font-family="Helvetica,sans-Serif" font-size="10.00">&#45;</text>
<text text-anchor="start" x="256" y="-522.5" font-family="Helvetica,sans-Serif" font-size="10.00">ID3D11Buffer * indexBuffer</text>
<text text-anchor="start" x="246" y="-506.5" font-family="Helvetica,sans-Serif" font-size="10.00">+</text>
<text text-anchor="start" x="256" y="-506.5" font-family="Helvetica,sans-Serif" font-size="10.00">Mesh(GraphicsDevice *graphicsDevice, LPCSTR filename)</text>
<text text-anchor="start" x="246" y="-490.5" font-family="Helvetica,sans-Serif" font-size="10.00">+</text>
<text text-anchor="start" x="256" y="-490.5" font-family="Helvetica,sans-Serif" font-size="10.00">void SetParentModel(Model *model)</text>
<text text-anchor="start" x="246" y="-474.5" font-family="Helvetica,sans-Serif" font-size="10.00">+</text>
<text text-anchor="start" x="256" y="-474.5" font-family="Helvetica,sans-Serif" font-size="10.00">Model * GetParentModel() const</text>
<text text-anchor="start" x="246" y="-458.5" font-family="Helvetica,sans-Serif" font-size="10.00">+</text>
<text text-anchor="start" x="256" y="-458.5" font-family="Helvetica,sans-Serif" font-size="10.00">void LoadMesh(LPCSTR)</text>
<text text-anchor="start" x="246" y="-442.5" font-family="Helvetica,sans-Serif" font-size="10.00">+</text>
<text text-anchor="start" x="256" y="-442.5" font-family="Helvetica,sans-Serif" font-size="10.00">void Draw()</text>
<polygon fill="#666666" stroke="#666666" points="242,-550 242,-550 512,-550 512,-550 242,-550"/>
<polygon fill="#666666" stroke="#666666" points="242,-518 242,-518 254,-518 254,-518 242,-518"/>
<polygon fill="#666666" stroke="#666666" points="254,-518 254,-518 512,-518 512,-518 254,-518"/>
<polygon fill="none" stroke="#666666" points="242,-436 242,-568 512,-568 512,-436 242,-436"/>
</a>
</g>
</g>
<!-- Node1&#45;&gt;Node4 -->
<g id="edge4_Node000004_Node000001" class="edge">
<title>Node1&#45;&gt;Node4</title>
<g id="a_edge4_Node000004_Node000001"><a xlink:title=" ">
<path fill="none" stroke="#63b8ff" d="M212.26,-832.15C215.38,-826.11 218.31,-820.04 221,-814 263.42,-718.58 222.36,-674.52 277.75,-586 279.47,-583.25 281.31,-580.55 283.26,-577.89"/>
<polygon fill="none" stroke="#63b8ff" points="283.17,-578 283.79,-570.81 290.66,-568.62 290.04,-575.8 283.17,-578"/>
</a>
</g>
<text text-anchor="middle" x="307.62" y="-696.5" font-family="Helvetica,sans-Serif" font-size="10.00" fill="grey"> &#45;parentModel</text>
</g>
<!-- Node2 -->
<g id="Node000002" class="node">
<title>Node2</title>
<g id="a_Node000002"><a xlink:title=" ">
<polygon fill="white" stroke="none" points="299,-52 147,-52 147,0 299,0 299,-52"/>
<text text-anchor="start" x="151.75" y="-38.5" font-family="Helvetica,sans-Serif" font-size="10.00">std::vector&lt; Model::MeshEntry &gt;</text>
<text text-anchor="start" x="221.5" y="-22.5" font-family="Helvetica,sans-Serif" font-size="10.00"> </text>
<text text-anchor="start" x="221.5" y="-6.5" font-family="Helvetica,sans-Serif" font-size="10.00"> </text>
<polygon fill="#666666" stroke="#666666" points="147,-34 147,-34 299,-34 299,-34 147,-34"/>
<polygon fill="#666666" stroke="#666666" points="147,-18 147,-18 299,-18 299,-18 147,-18"/>
<polygon fill="none" stroke="#666666" points="147,0 147,-52 299,-52 299,0 147,0"/>
</a>
</g>
</g>
<!-- Node2&#45;&gt;Node1 -->
<g id="edge1_Node000001_Node000002" class="edge">
<title>Node2&#45;&gt;Node1</title>
<g id="a_edge1_Node000001_Node000002"><a xlink:title=" ">
<path fill="none" stroke="#63b8ff" d="M216.68,-51.79C212.2,-71.5 207,-99.83 207,-125 207,-503 207,-503 207,-503 207,-610.55 184.06,-729.97 162.01,-819.89"/>
<polygon fill="none" stroke="#63b8ff" points="162.02,-819.86 164.46,-826.65 159.13,-831.5 156.69,-824.72 162.02,-819.86"/>
</a>
</g>
<text text-anchor="middle" x="237.38" y="-290.5" font-family="Helvetica,sans-Serif" font-size="10.00" fill="grey"> &#45;meshEntries</text>
</g>
<!-- Node3 -->
<g id="Node000003" class="node">
<title>Node3</title>
<g id="a_Node000003"><a xlink:href="class_model.html#struct_model_1_1_mesh_entry" target="_top" xlink:title=" ">
<polygon fill="white" stroke="none" points="421.5,-152 332.5,-152 332.5,-100 421.5,-100 421.5,-152"/>
<text text-anchor="start" x="337.25" y="-138.5" font-family="Helvetica,sans-Serif" font-size="10.00">Model::MeshEntry</text>
<text text-anchor="start" x="375.5" y="-122.5" font-family="Helvetica,sans-Serif" font-size="10.00"> </text>
<text text-anchor="start" x="375.5" y="-106.5" font-family="Helvetica,sans-Serif" font-size="10.00"> </text>
<polygon fill="#666666" stroke="#666666" points="332.5,-134 332.5,-134 421.5,-134 421.5,-134 332.5,-134"/>
<polygon fill="#666666" stroke="#666666" points="332.5,-118 332.5,-118 421.5,-118 421.5,-118 332.5,-118"/>
<polygon fill="none" stroke="#666666" points="332.5,-100 332.5,-152 421.5,-152 421.5,-100 332.5,-100"/>
</a>
</g>
</g>
<!-- Node3&#45;&gt;Node2 -->
<g id="edge2_Node000002_Node000003" class="edge">
<title>Node3&#45;&gt;Node2</title>
<g id="a_edge2_Node000002_Node000003"><a xlink:title=" ">
<path fill="none" stroke="#63b8ff" d="M337.74,-100.02C318.1,-87.52 294.11,-72.25 273.15,-58.91"/>
<polygon fill="none" stroke="#63b8ff" points="273.07,-58.86 265.86,-59.02 262.95,-52.42 270.16,-52.27 273.07,-58.86"/>
</a>
</g>
<text text-anchor="middle" x="334.38" y="-72.5" font-family="Helvetica,sans-Serif" font-size="10.00" fill="grey"> +elements</text>
</g>
<!-- Node4&#45;&gt;Node3 -->
<g id="edge3_Node000003_Node000004" class="edge">
<title>Node4&#45;&gt;Node3</title>
<g id="a_edge3_Node000003_Node000004"><a xlink:title=" ">
<path fill="none" stroke="#63b8ff" d="M377,-436.28C377,-357.79 377,-228.1 377,-164.51"/>
<polygon fill="none" stroke="#63b8ff" points="377,-164.53 373,-158.53 377,-152.53 381,-158.53 377,-164.53"/>
</a>
</g>
<text text-anchor="middle" x="393.5" y="-290.5" font-family="Helvetica,sans-Serif" font-size="10.00" fill="grey"> +mesh</text>
</g>
<!-- Node5 -->
<g id="Node000005" class="node">
<title>Node5</title>
<g id="a_Node000005"><a xlink:title=" ">
<polygon fill="white" stroke="none" points="384,-988 262,-988 262,-936 384,-936 384,-988"/>
<text text-anchor="start" x="266.75" y="-974.5" font-family="Helvetica,sans-Serif" font-size="10.00">std::vector&lt; VertexType &gt;</text>
<text text-anchor="start" x="321.5" y="-958.5" font-family="Helvetica,sans-Serif" font-size="10.00"> </text>
<text text-anchor="start" x="321.5" y="-942.5" font-family="Helvetica,sans-Serif" font-size="10.00"> </text>
<polygon fill="#666666" stroke="#666666" points="262,-970 262,-970 384,-970 384,-970 262,-970"/>
<polygon fill="#666666" stroke="#666666" points="262,-954 262,-954 384,-954 384,-954 262,-954"/>
<polygon fill="none" stroke="#666666" points="262,-936 262,-988 384,-988 384,-936 262,-936"/>
</a>
</g>
</g>
<!-- Node5&#45;&gt;Node4 -->
<g id="edge5_Node000004_Node000005" class="edge">
<title>Node5&#45;&gt;Node4</title>
<g id="a_edge5_Node000004_Node000005"><a xlink:title=" ">
<path fill="none" stroke="#63b8ff" d="M325.94,-936.05C333.78,-869.57 355.42,-686.04 367.87,-580.47"/>
<polygon fill="none" stroke="#63b8ff" points="367.86,-580.49 364.59,-574.07 369.27,-568.58 372.54,-575 367.86,-580.49"/>
</a>
</g>
<text text-anchor="middle" x="386.5" y="-696.5" font-family="Helvetica,sans-Serif" font-size="10.00" fill="grey"> &#45;vertices</text>
</g>
<!-- Node6 -->
<g id="Node000006" class="node">
<title>Node6</title>
<g id="a_Node000006"><a xlink:href="_mesh_8h.html#struct_vertex_type" target="_top" xlink:title=" ">
<polygon fill="white" stroke="none" points="380,-1344 266,-1344 266,-1260 380,-1260 380,-1344"/>
<text text-anchor="start" x="298.25" y="-1330.5" font-family="Helvetica,sans-Serif" font-size="10.00">VertexType</text>
<text text-anchor="start" x="270" y="-1314.5" font-family="Helvetica,sans-Serif" font-size="10.00">+</text>
<text text-anchor="start" x="280" y="-1314.5" font-family="Helvetica,sans-Serif" font-size="10.00">XMFLOAT4 position</text>
<text text-anchor="start" x="270" y="-1298.5" font-family="Helvetica,sans-Serif" font-size="10.00">+</text>
<text text-anchor="start" x="280" y="-1298.5" font-family="Helvetica,sans-Serif" font-size="10.00">XMFLOAT2 texCoords</text>
<text text-anchor="start" x="270" y="-1282.5" font-family="Helvetica,sans-Serif" font-size="10.00">+</text>
<text text-anchor="start" x="280" y="-1282.5" font-family="Helvetica,sans-Serif" font-size="10.00">XMFLOAT3 normal</text>
<text text-anchor="start" x="321.5" y="-1266.5" font-family="Helvetica,sans-Serif" font-size="10.00"> </text>
<polygon fill="#666666" stroke="#666666" points="266,-1326 266,-1326 380,-1326 380,-1326 266,-1326"/>
<polygon fill="#666666" stroke="#666666" points="266,-1278 266,-1278 278,-1278 278,-1278 266,-1278"/>
<polygon fill="#666666" stroke="#666666" points="278,-1278 278,-1278 380,-1278 380,-1278 278,-1278"/>
<polygon fill="none" stroke="#666666" points="266,-1260 266,-1344 380,-1344 380,-1260 266,-1260"/>
</a>
</g>
</g>
<!-- Node6&#45;&gt;Node5 -->
<g id="edge6_Node000005_Node000006" class="edge">
<title>Node6&#45;&gt;Node5</title>
<g id="a_edge6_Node000005_Node000006"><a xlink:title=" ">
<path fill="none" stroke="#63b8ff" d="M323,-1260.23C323,-1194.14 323,-1064.6 323,-1000.6"/>
<polygon fill="none" stroke="#63b8ff" points="323,-1000.53 319,-994.53 323,-988.53 327,-994.53 323,-1000.53"/>
</a>
</g>
<text text-anchor="middle" x="347.38" y="-1112.5" font-family="Helvetica,sans-Serif" font-size="10.00" fill="grey"> +elements</text>
</g>
<!-- Node7 -->
<g id="Node000007" class="node">
<title>Node7</title>
<g id="a_Node000007"><a xlink:title=" ">
<polygon fill="white" stroke="none" points="527.5,-988 402.5,-988 402.5,-936 527.5,-936 527.5,-988"/>
<text text-anchor="start" x="407.25" y="-974.5" font-family="Helvetica,sans-Serif" font-size="10.00">std::vector&lt; unsigned int &gt;</text>
<text text-anchor="start" x="409.5" y="-958.5" font-family="Helvetica,sans-Serif" font-size="10.00">+</text>
<text text-anchor="start" x="422.5" y="-958.5" font-family="Helvetica,sans-Serif" font-size="10.00">unsigned int elements</text>
<text text-anchor="start" x="463.5" y="-942.5" font-family="Helvetica,sans-Serif" font-size="10.00"> </text>
<polygon fill="#666666" stroke="#666666" points="402.5,-970 402.5,-970 527.5,-970 527.5,-970 402.5,-970"/>
<polygon fill="#666666" stroke="#666666" points="402.5,-954 402.5,-954 420.5,-954 420.5,-954 402.5,-954"/>
<polygon fill="#666666" stroke="#666666" points="420.5,-954 420.5,-954 527.5,-954 527.5,-954 420.5,-954"/>
<polygon fill="none" stroke="#666666" points="402.5,-936 402.5,-988 527.5,-988 527.5,-936 402.5,-936"/>
</a>
</g>
</g>
<!-- Node7&#45;&gt;Node4 -->
<g id="edge7_Node000004_Node000007" class="edge">
<title>Node7&#45;&gt;Node4</title>
<g id="a_edge7_Node000004_Node000007"><a xlink:title=" ">
<path fill="none" stroke="#63b8ff" d="M463.35,-936.03C458.91,-875.22 444.6,-715.02 410,-586 409.47,-584.03 408.91,-582.05 408.33,-580.06"/>
<polygon fill="none" stroke="#63b8ff" points="408.32,-580.05 402.69,-575.55 404.68,-568.62 410.31,-573.12 408.32,-580.05"/>
</a>
</g>
<text text-anchor="middle" x="468.38" y="-696.5" font-family="Helvetica,sans-Serif" font-size="10.00" fill="grey"> &#45;indices</text>
</g>
<!-- Node8 -->
<g id="Node000008" class="node">
<title>Node8</title>
<g id="a_Node000008"><a xlink:href="class_graphics_device.html" target="_top" xlink:title=" ">
<polygon fill="white" stroke="none" points="795.5,-1464 530.5,-1464 530.5,-1140 795.5,-1140 795.5,-1464"/>
<text text-anchor="start" x="629.25" y="-1450.5" font-family="Helvetica,sans-Serif" font-size="10.00">GraphicsDevice</text>
<text text-anchor="start" x="536" y="-1434.5" font-family="Helvetica,sans-Serif" font-size="10.00">&#45;</text>
<text text-anchor="start" x="544.5" y="-1434.5" font-family="Helvetica,sans-Serif" font-size="10.00">ID3D11Device * device</text>
<text text-anchor="start" x="536" y="-1418.5" font-family="Helvetica,sans-Serif" font-size="10.00">&#45;</text>
<text text-anchor="start" x="544.5" y="-1418.5" font-family="Helvetica,sans-Serif" font-size="10.00">ID3D11DeviceContext * deviceContext</text>
<text text-anchor="start" x="536" y="-1402.5" font-family="Helvetica,sans-Serif" font-size="10.00">&#45;</text>
<text text-anchor="start" x="544.5" y="-1402.5" font-family="Helvetica,sans-Serif" font-size="10.00">IDXGISwapChain * swapChain</text>
<text text-anchor="start" x="536" y="-1386.5" font-family="Helvetica,sans-Serif" font-size="10.00">&#45;</text>
<text text-anchor="start" x="544.5" y="-1386.5" font-family="Helvetica,sans-Serif" font-size="10.00">ID3D11RenderTargetView * renderTargetView</text>
<text text-anchor="start" x="536" y="-1370.5" font-family="Helvetica,sans-Serif" font-size="10.00">&#45;</text>
<text text-anchor="start" x="544.5" y="-1370.5" font-family="Helvetica,sans-Serif" font-size="10.00">ID3D11DepthStencilView * depthStencilView</text>
<text text-anchor="start" x="536" y="-1354.5" font-family="Helvetica,sans-Serif" font-size="10.00">&#45;</text>
<text text-anchor="start" x="544.5" y="-1354.5" font-family="Helvetica,sans-Serif" font-size="10.00">ID3D11Texture2D * depthStencilBuffer</text>
<text text-anchor="start" x="536" y="-1338.5" font-family="Helvetica,sans-Serif" font-size="10.00">&#45;</text>
<text text-anchor="start" x="544.5" y="-1338.5" font-family="Helvetica,sans-Serif" font-size="10.00">int windowWidth</text>
<text text-anchor="start" x="536" y="-1322.5" font-family="Helvetica,sans-Serif" font-size="10.00">&#45;</text>
<text text-anchor="start" x="544.5" y="-1322.5" font-family="Helvetica,sans-Serif" font-size="10.00">int windowHeight</text>
<text text-anchor="start" x="536" y="-1306.5" font-family="Helvetica,sans-Serif" font-size="10.00">&#45;</text>
<text text-anchor="start" x="544.5" y="-1306.5" font-family="Helvetica,sans-Serif" font-size="10.00">HWND hWnd</text>
<text text-anchor="start" x="534.5" y="-1290.5" font-family="Helvetica,sans-Serif" font-size="10.00">+</text>
<text text-anchor="start" x="544.5" y="-1290.5" font-family="Helvetica,sans-Serif" font-size="10.00">void Initialize(HWND hWnd, int width, int height)</text>
<text text-anchor="start" x="534.5" y="-1274.5" font-family="Helvetica,sans-Serif" font-size="10.00">+</text>
<text text-anchor="start" x="544.5" y="-1274.5" font-family="Helvetica,sans-Serif" font-size="10.00">void ResizeBuffersAndViews(int width, int height)</text>
<text text-anchor="start" x="534.5" y="-1258.5" font-family="Helvetica,sans-Serif" font-size="10.00">+</text>
<text text-anchor="start" x="544.5" y="-1258.5" font-family="Helvetica,sans-Serif" font-size="10.00">ID3D11Device * GetDevice() const</text>
<text text-anchor="start" x="534.5" y="-1242.5" font-family="Helvetica,sans-Serif" font-size="10.00">+</text>
<text text-anchor="start" x="544.5" y="-1242.5" font-family="Helvetica,sans-Serif" font-size="10.00">ID3D11DeviceContext * GetDeviceContext() const</text>
<text text-anchor="start" x="534.5" y="-1226.5" font-family="Helvetica,sans-Serif" font-size="10.00">+</text>
<text text-anchor="start" x="544.5" y="-1226.5" font-family="Helvetica,sans-Serif" font-size="10.00">IDXGISwapChain * GetSwapChain() const</text>
<text text-anchor="start" x="534.5" y="-1210.5" font-family="Helvetica,sans-Serif" font-size="10.00">+</text>
<text text-anchor="start" x="544.5" y="-1210.5" font-family="Helvetica,sans-Serif" font-size="10.00">ID3D11RenderTargetView * GetRenderTargetView() const</text>
<text text-anchor="start" x="534.5" y="-1194.5" font-family="Helvetica,sans-Serif" font-size="10.00">+</text>
<text text-anchor="start" x="544.5" y="-1194.5" font-family="Helvetica,sans-Serif" font-size="10.00">ID3D11DepthStencilView * GetDepthStencilView() const</text>
<text text-anchor="start" x="534.5" y="-1178.5" font-family="Helvetica,sans-Serif" font-size="10.00">+</text>
<text text-anchor="start" x="544.5" y="-1178.5" font-family="Helvetica,sans-Serif" font-size="10.00">int GetWindowWidth()</text>
<text text-anchor="start" x="534.5" y="-1162.5" font-family="Helvetica,sans-Serif" font-size="10.00">+</text>
<text text-anchor="start" x="544.5" y="-1162.5" font-family="Helvetica,sans-Serif" font-size="10.00">int GetWindowHeight()</text>
<text text-anchor="start" x="534.5" y="-1146.5" font-family="Helvetica,sans-Serif" font-size="10.00">+</text>
<text text-anchor="start" x="544.5" y="-1146.5" font-family="Helvetica,sans-Serif" font-size="10.00">HWND GetHWND()</text>
<polygon fill="#666666" stroke="#666666" points="530.5,-1446 530.5,-1446 795.5,-1446 795.5,-1446 530.5,-1446"/>
<polygon fill="#666666" stroke="#666666" points="530.5,-1302 530.5,-1302 542.5,-1302 542.5,-1302 530.5,-1302"/>
<polygon fill="#666666" stroke="#666666" points="542.5,-1302 542.5,-1302 795.5,-1302 795.5,-1302 542.5,-1302"/>
<polygon fill="none" stroke="#666666" points="530.5,-1140 530.5,-1464 795.5,-1464 795.5,-1140 530.5,-1140"/>
</a>
</g>
</g>
<!-- Node8&#45;&gt;Node1 -->
<g id="edge16_Node000001_Node000008" class="edge">
<title>Node8&#45;&gt;Node1</title>
<g id="a_edge16_Node000001_Node000008"><a xlink:title=" ">
<path fill="none" stroke="#63b8ff" d="M530.62,-1208.68C487.26,-1182.5 437.69,-1156.62 389,-1140 329.11,-1119.55 302.85,-1153.13 247.75,-1122 237.17,-1116.03 227.17,-1108.77 217.76,-1100.69"/>
<polygon fill="none" stroke="#63b8ff" points="217.73,-1100.67 210.6,-1099.6 208.85,-1092.6 215.98,-1093.67 217.73,-1100.67"/>
</a>
</g>
<text text-anchor="middle" x="283.62" y="-1112.5" font-family="Helvetica,sans-Serif" font-size="10.00" fill="grey"> &#45;graphicsDevice</text>
</g>
<!-- Node8&#45;&gt;Node4 -->
<g id="edge8_Node000004_Node000008" class="edge">
<title>Node8&#45;&gt;Node4</title>
<g id="a_edge8_Node000004_Node000008"><a xlink:title=" ">
<path fill="none" stroke="#63b8ff" d="M593.13,-1140.27C587.42,-1124.14 582.16,-1107.86 577.75,-1092 516.59,-872.18 612.81,-778.93 491,-586 489.23,-583.19 487.32,-580.45 485.3,-577.77"/>
<polygon fill="none" stroke="#63b8ff" points="485.24,-577.7 478.33,-575.64 477.58,-568.47 484.49,-570.53 485.24,-577.7"/>
</a>
</g>
<text text-anchor="middle" x="612.62" y="-958.5" font-family="Helvetica,sans-Serif" font-size="10.00" fill="grey"> &#45;graphicsDevice</text>
</g>
<!-- Node9 -->
<g id="Node000009" class="node">
<title>Node9</title>
<g id="a_Node000009"><a xlink:href="class_material.html" target="_top" xlink:title=" ">
<polygon fill="white" stroke="none" points="861,-388 573,-388 573,-200 861,-200 861,-388"/>
<text text-anchor="start" x="699.75" y="-374.5" font-family="Helvetica,sans-Serif" font-size="10.00">Material</text>
<text text-anchor="start" x="578.5" y="-358.5" font-family="Helvetica,sans-Serif" font-size="10.00">&#45;</text>
<text text-anchor="start" x="587" y="-358.5" font-family="Helvetica,sans-Serif" font-size="10.00">ID3D11ShaderResourceView * textureSRV</text>
<text text-anchor="start" x="578.5" y="-342.5" font-family="Helvetica,sans-Serif" font-size="10.00">&#45;</text>
<text text-anchor="start" x="587" y="-342.5" font-family="Helvetica,sans-Serif" font-size="10.00">bool transparent</text>
<text text-anchor="start" x="577" y="-326.5" font-family="Helvetica,sans-Serif" font-size="10.00">+</text>
<text text-anchor="start" x="587" y="-326.5" font-family="Helvetica,sans-Serif" font-size="10.00">Material(GraphicsDevice *graphicsDevice, std::shared</text>
<text text-anchor="start" x="587" y="-314.5" font-family="Helvetica,sans-Serif" font-size="10.00">_ptr&lt; ShaderProgram &gt; shader, RenderState *renderState,</text>
<text text-anchor="start" x="587" y="-302.5" font-family="Helvetica,sans-Serif" font-size="10.00"> bool transparent)</text>
<text text-anchor="start" x="577" y="-286.5" font-family="Helvetica,sans-Serif" font-size="10.00">+</text>
<text text-anchor="start" x="587" y="-286.5" font-family="Helvetica,sans-Serif" font-size="10.00">void LoadTexture(LPCSTR filename)</text>
<text text-anchor="start" x="577" y="-270.5" font-family="Helvetica,sans-Serif" font-size="10.00">+</text>
<text text-anchor="start" x="587" y="-270.5" font-family="Helvetica,sans-Serif" font-size="10.00">void SetConstantBuffer(ConstantBuffer cb)</text>
<text text-anchor="start" x="577" y="-254.5" font-family="Helvetica,sans-Serif" font-size="10.00">+</text>
<text text-anchor="start" x="587" y="-254.5" font-family="Helvetica,sans-Serif" font-size="10.00">void Setup()</text>
<text text-anchor="start" x="577" y="-238.5" font-family="Helvetica,sans-Serif" font-size="10.00">+</text>
<text text-anchor="start" x="587" y="-238.5" font-family="Helvetica,sans-Serif" font-size="10.00">bool isTransparent()</text>
<text text-anchor="start" x="577" y="-222.5" font-family="Helvetica,sans-Serif" font-size="10.00">+</text>
<text text-anchor="start" x="587" y="-222.5" font-family="Helvetica,sans-Serif" font-size="10.00">std::shared_ptr&lt; ShaderProgram &gt; GetShaderProgram() const</text>
<text text-anchor="start" x="577" y="-206.5" font-family="Helvetica,sans-Serif" font-size="10.00">+</text>
<text text-anchor="start" x="587" y="-206.5" font-family="Helvetica,sans-Serif" font-size="10.00">RenderState * GetRenderState() const</text>
<polygon fill="#666666" stroke="#666666" points="573,-370 573,-370 861,-370 861,-370 573,-370"/>
<polygon fill="#666666" stroke="#666666" points="573,-338 573,-338 585,-338 585,-338 573,-338"/>
<polygon fill="#666666" stroke="#666666" points="585,-338 585,-338 861,-338 861,-338 585,-338"/>
<polygon fill="none" stroke="#666666" points="573,-200 573,-388 861,-388 861,-200 573,-200"/>
</a>
</g>
</g>
<!-- Node8&#45;&gt;Node9 -->
<g id="edge15_Node000009_Node000008" class="edge">
<title>Node8&#45;&gt;Node9</title>
<g id="a_edge15_Node000009_Node000008"><a xlink:title=" ">
<path fill="none" stroke="#63b8ff" d="M669.04,-1140.06C672.65,-1049.53 677.57,-934.44 683,-832 690.94,-682.08 702.31,-508.75 709.68,-400.49"/>
<polygon fill="none" stroke="#63b8ff" points="709.68,-400.49 706.09,-394.23 710.49,-388.52 714.08,-394.77 709.68,-400.49"/>
</a>
</g>
<text text-anchor="middle" x="732.62" y="-696.5" font-family="Helvetica,sans-Serif" font-size="10.00" fill="grey"> &#45;graphicsDevice</text>
</g>
<!-- Node11 -->
<g id="Node000011" class="node">
<title>Node11</title>
<g id="a_Node000011"><a xlink:href="class_shader_program.html" target="_top" xlink:title=" ">
<polygon fill="white" stroke="none" points="1022.5,-1066 691.5,-1066 691.5,-858 1022.5,-858 1022.5,-1066"/>
<text text-anchor="start" x="823.25" y="-1052.5" font-family="Helvetica,sans-Serif" font-size="10.00">ShaderProgram</text>
<text text-anchor="start" x="697" y="-1036.5" font-family="Helvetica,sans-Serif" font-size="10.00">&#45;</text>
<text text-anchor="start" x="705.5" y="-1036.5" font-family="Helvetica,sans-Serif" font-size="10.00">ID3D11VertexShader * vertexShader</text>
<text text-anchor="start" x="697" y="-1020.5" font-family="Helvetica,sans-Serif" font-size="10.00">&#45;</text>
<text text-anchor="start" x="705.5" y="-1020.5" font-family="Helvetica,sans-Serif" font-size="10.00">ID3D11PixelShader * pixelShader</text>
<text text-anchor="start" x="697" y="-1004.5" font-family="Helvetica,sans-Serif" font-size="10.00">&#45;</text>
<text text-anchor="start" x="705.5" y="-1004.5" font-family="Helvetica,sans-Serif" font-size="10.00">ID3D11InputLayout * inputLayout</text>
<text text-anchor="start" x="697" y="-988.5" font-family="Helvetica,sans-Serif" font-size="10.00">&#45;</text>
<text text-anchor="start" x="705.5" y="-988.5" font-family="Helvetica,sans-Serif" font-size="10.00">ID3D11Buffer * constantBuffer</text>
<text text-anchor="start" x="695.5" y="-972.5" font-family="Helvetica,sans-Serif" font-size="10.00">+</text>
<text text-anchor="start" x="705.5" y="-972.5" font-family="Helvetica,sans-Serif" font-size="10.00">ShaderProgram(GraphicsDevice *graphicsDevice)</text>
<text text-anchor="start" x="695.5" y="-956.5" font-family="Helvetica,sans-Serif" font-size="10.00">+</text>
<text text-anchor="start" x="705.5" y="-956.5" font-family="Helvetica,sans-Serif" font-size="10.00">void LoadShader(LPCSTR VSFilename, LPCSTR PSFilename)</text>
<text text-anchor="start" x="695.5" y="-940.5" font-family="Helvetica,sans-Serif" font-size="10.00">+</text>
<text text-anchor="start" x="705.5" y="-940.5" font-family="Helvetica,sans-Serif" font-size="10.00">void ClearResources()</text>
<text text-anchor="start" x="695.5" y="-924.5" font-family="Helvetica,sans-Serif" font-size="10.00">+</text>
<text text-anchor="start" x="705.5" y="-924.5" font-family="Helvetica,sans-Serif" font-size="10.00">void UpdateBuffers(ConstantBuffer cb)</text>
<text text-anchor="start" x="695.5" y="-908.5" font-family="Helvetica,sans-Serif" font-size="10.00">+</text>
<text text-anchor="start" x="705.5" y="-908.5" font-family="Helvetica,sans-Serif" font-size="10.00">void Bind()</text>
<text text-anchor="start" x="697" y="-892.5" font-family="Helvetica,sans-Serif" font-size="10.00">&#45;</text>
<text text-anchor="start" x="705.5" y="-892.5" font-family="Helvetica,sans-Serif" font-size="10.00">bool CompileHLSL(const std::string &amp;filename, ShaderType shaderType)</text>
<text text-anchor="start" x="697" y="-876.5" font-family="Helvetica,sans-Serif" font-size="10.00">&#45;</text>
<text text-anchor="start" x="705.5" y="-876.5" font-family="Helvetica,sans-Serif" font-size="10.00">std::vector&lt; byte &gt; LoadShaderFile(const std::string</text>
<text text-anchor="start" x="705.5" y="-864.5" font-family="Helvetica,sans-Serif" font-size="10.00"> &amp;filename, ShaderType shaderType)</text>
<polygon fill="#666666" stroke="#666666" points="691.5,-1048 691.5,-1048 1022.5,-1048 1022.5,-1048 691.5,-1048"/>
<polygon fill="#666666" stroke="#666666" points="691.5,-984 691.5,-984 703.5,-984 703.5,-984 691.5,-984"/>
<polygon fill="#666666" stroke="#666666" points="703.5,-984 703.5,-984 1022.5,-984 1022.5,-984 703.5,-984"/>
<polygon fill="none" stroke="#666666" points="691.5,-858 691.5,-1066 1022.5,-1066 1022.5,-858 691.5,-858"/>
</a>
</g>
</g>
<!-- Node8&#45;&gt;Node11 -->
<g id="edge12_Node000011_Node000008" class="edge">
<title>Node8&#45;&gt;Node11</title>
<g id="a_edge12_Node000011_Node000008"><a xlink:title=" ">
<path fill="none" stroke="#63b8ff" d="M755.17,-1140.41C767.46,-1119 779.86,-1097.41 791.56,-1077.01"/>
<polygon fill="none" stroke="#63b8ff" points="791.57,-1077 791.08,-1069.81 797.54,-1066.59 798.02,-1073.79 791.57,-1077"/>
</a>
</g>
<text text-anchor="middle" x="806.62" y="-1112.5" font-family="Helvetica,sans-Serif" font-size="10.00" fill="grey"> &#45;graphicsDevice</text>
</g>
<!-- Node12 -->
<g id="Node000012" class="node">
<title>Node12</title>
<g id="a_Node000012"><a xlink:href="class_render_state.html" target="_top" xlink:title=" ">
<polygon fill="white" stroke="none" points="1223,-814 859,-814 859,-586 1223,-586 1223,-814"/>
<text text-anchor="start" x="1014" y="-800.5" font-family="Helvetica,sans-Serif" font-size="10.00">RenderState</text>
<text text-anchor="start" x="864.5" y="-784.5" font-family="Helvetica,sans-Serif" font-size="10.00">&#45;</text>
<text text-anchor="start" x="873" y="-784.5" font-family="Helvetica,sans-Serif" font-size="10.00">ID3D11RasterizerState * rasterizerState</text>
<text text-anchor="start" x="864.5" y="-768.5" font-family="Helvetica,sans-Serif" font-size="10.00">&#45;</text>
<text text-anchor="start" x="873" y="-768.5" font-family="Helvetica,sans-Serif" font-size="10.00">ID3D11BlendState * blendState</text>
<text text-anchor="start" x="864.5" y="-752.5" font-family="Helvetica,sans-Serif" font-size="10.00">&#45;</text>
<text text-anchor="start" x="873" y="-752.5" font-family="Helvetica,sans-Serif" font-size="10.00">ID3D11DepthStencilState * depthStencilState</text>
<text text-anchor="start" x="864.5" y="-736.5" font-family="Helvetica,sans-Serif" font-size="10.00">&#45;</text>
<text text-anchor="start" x="873" y="-736.5" font-family="Helvetica,sans-Serif" font-size="10.00">ID3D11SamplerState * samplerState</text>
<text text-anchor="start" x="864.5" y="-720.5" font-family="Helvetica,sans-Serif" font-size="10.00">&#45;</text>
<text text-anchor="start" x="873" y="-720.5" font-family="Helvetica,sans-Serif" font-size="10.00">float blendFactor</text>
<text text-anchor="start" x="863" y="-704.5" font-family="Helvetica,sans-Serif" font-size="10.00">+</text>
<text text-anchor="start" x="873" y="-704.5" font-family="Helvetica,sans-Serif" font-size="10.00">RenderState(GraphicsDevice *graphicsDevice)</text>
<text text-anchor="start" x="863" y="-688.5" font-family="Helvetica,sans-Serif" font-size="10.00">+</text>
<text text-anchor="start" x="873" y="-688.5" font-family="Helvetica,sans-Serif" font-size="10.00">~RenderState()</text>
<text text-anchor="start" x="863" y="-672.5" font-family="Helvetica,sans-Serif" font-size="10.00">+</text>
<text text-anchor="start" x="873" y="-672.5" font-family="Helvetica,sans-Serif" font-size="10.00">void CreateRasterizerState(const D3D11_RASTERIZER_DESC &amp;rasterDesc)</text>
<text text-anchor="start" x="863" y="-656.5" font-family="Helvetica,sans-Serif" font-size="10.00">+</text>
<text text-anchor="start" x="873" y="-656.5" font-family="Helvetica,sans-Serif" font-size="10.00">void CreateBlendState(const D3D11_BLEND_DESC &amp;blendDesc)</text>
<text text-anchor="start" x="863" y="-640.5" font-family="Helvetica,sans-Serif" font-size="10.00">+</text>
<text text-anchor="start" x="873" y="-640.5" font-family="Helvetica,sans-Serif" font-size="10.00">void CreateBlendFactor(float, float, float, float)</text>
<text text-anchor="start" x="863" y="-624.5" font-family="Helvetica,sans-Serif" font-size="10.00">+</text>
<text text-anchor="start" x="873" y="-624.5" font-family="Helvetica,sans-Serif" font-size="10.00">void CreateDepthStencilState(const D3D11_DEPTH_STENCIL_DESC &amp;dsDesc)</text>
<text text-anchor="start" x="863" y="-608.5" font-family="Helvetica,sans-Serif" font-size="10.00">+</text>
<text text-anchor="start" x="873" y="-608.5" font-family="Helvetica,sans-Serif" font-size="10.00">void CreateSamplerState(const D3D11_SAMPLER_DESC &amp;sampDesc)</text>
<text text-anchor="start" x="863" y="-592.5" font-family="Helvetica,sans-Serif" font-size="10.00">+</text>
<text text-anchor="start" x="873" y="-592.5" font-family="Helvetica,sans-Serif" font-size="10.00">void SetState()</text>
<polygon fill="#666666" stroke="#666666" points="859,-796 859,-796 1223,-796 1223,-796 859,-796"/>
<polygon fill="#666666" stroke="#666666" points="859,-716 859,-716 871,-716 871,-716 859,-716"/>
<polygon fill="#666666" stroke="#666666" points="871,-716 871,-716 1223,-716 1223,-716 871,-716"/>
<polygon fill="none" stroke="#666666" points="859,-586 859,-814 1223,-814 1223,-586 859,-586"/>
</a>
</g>
</g>
<!-- Node8&#45;&gt;Node12 -->
<g id="edge14_Node000012_Node000008" class="edge">
<title>Node8&#45;&gt;Node12</title>
<g id="a_edge14_Node000012_Node000008"><a xlink:title=" ">
<path fill="none" stroke="#63b8ff" d="M795.42,-1263.27C878.91,-1231.93 980.4,-1178.24 1032,-1092 1079.33,-1012.91 1078.99,-907.77 1068.24,-826.43"/>
<polygon fill="none" stroke="#63b8ff" points="1068.23,-826.37 1063.43,-820.98 1066.56,-814.48 1071.35,-819.87 1068.23,-826.37"/>
</a>
</g>
<text text-anchor="middle" x="1053.62" y="-1112.5" font-family="Helvetica,sans-Serif" font-size="10.00" fill="grey"> &#45;graphicsDevice</text>
</g>
<!-- Node9&#45;&gt;Node3 -->
<g id="edge9_Node000003_Node000009" class="edge">
<title>Node9&#45;&gt;Node3</title>
<g id="a_edge9_Node000003_Node000009"><a xlink:title=" ">
<path fill="none" stroke="#63b8ff" d="M573.3,-222.84C523.7,-198.62 471.04,-172.91 432.76,-154.22"/>
<polygon fill="none" stroke="#63b8ff" points="432.95,-154.32 425.8,-155.28 422.17,-149.05 429.31,-148.09 432.95,-154.32"/>
</a>
</g>
<text text-anchor="middle" x="507.75" y="-172.5" font-family="Helvetica,sans-Serif" font-size="10.00" fill="grey"> +material</text>
</g>
<!-- Node10 -->
<g id="Node000010" class="node">
<title>Node10</title>
<g id="a_Node000010"><a xlink:title=" ">
<polygon fill="white" stroke="none" points="887,-528 727,-528 727,-476 887,-476 887,-528"/>
<text text-anchor="start" x="731.62" y="-514.5" font-family="Helvetica,sans-Serif" font-size="10.00">std::shared_ptr&lt; ShaderProgram &gt;</text>
<text text-anchor="start" x="805.5" y="-498.5" font-family="Helvetica,sans-Serif" font-size="10.00"> </text>
<text text-anchor="start" x="734.5" y="-482.5" font-family="Helvetica,sans-Serif" font-size="10.00">+</text>
<text text-anchor="start" x="748" y="-482.5" font-family="Helvetica,sans-Serif" font-size="10.00">ShaderProgram * operator&#45;&gt;()</text>
<polygon fill="#666666" stroke="#666666" points="727,-510 727,-510 887,-510 887,-510 727,-510"/>
<polygon fill="#666666" stroke="#666666" points="727,-494 727,-494 887,-494 887,-494 727,-494"/>
<polygon fill="none" stroke="#666666" points="727,-476 727,-528 887,-528 887,-476 727,-476"/>
</a>
</g>
</g>
<!-- Node10&#45;&gt;Node9 -->
<g id="edge10_Node000009_Node000010" class="edge">
<title>Node10&#45;&gt;Node9</title>
<g id="a_edge10_Node000009_Node000010"><a xlink:title=" ">
<path fill="none" stroke="#63b8ff" d="M796.14,-476.15C787.64,-456.68 775.18,-428.18 762.66,-399.51"/>
<polygon fill="none" stroke="#63b8ff" points="762.66,-399.5 756.59,-395.61 757.85,-388.51 763.92,-392.4 762.66,-399.5"/>
</a>
</g>
<text text-anchor="middle" x="787.62" y="-408.5" font-family="Helvetica,sans-Serif" font-size="10.00" fill="grey"> &#45;shader</text>
</g>
<!-- Node11&#45;&gt;Node10 -->
<g id="edge11_Node000010_Node000011" class="edge">
<title>Node11&#45;&gt;Node10</title>
<g id="a_edge11_Node000010_Node000011"><a xlink:title=" ">
<path fill="none" stroke="#63b8ff" d="M836.43,-858.02C833.91,-843.29 831.59,-828.29 829.75,-814 817.1,-715.83 810.91,-599.24 808.41,-540.63"/>
<polygon fill="none" stroke="#63b8ff" points="808.41,-540.58 804.17,-534.75 807.92,-528.59 812.16,-534.42 808.41,-540.58"/>
</a>
</g>
<text text-anchor="middle" x="839.12" y="-696.5" font-family="Helvetica,sans-Serif" font-size="10.00" fill="grey"> +ptr</text>
</g>
<!-- Node12&#45;&gt;Node9 -->
<g id="edge13_Node000009_Node000012" class="edge">
<title>Node12&#45;&gt;Node9</title>
<g id="a_edge13_Node000009_Node000012"><a xlink:title=" ">
<path fill="none" stroke="#63b8ff" d="M991.34,-586.21C966.7,-537.18 934.04,-480.82 896,-436 884.35,-422.28 871.19,-408.98 857.42,-396.38"/>
<polygon fill="none" stroke="#63b8ff" points="857.42,-396.38 850.28,-395.37 848.48,-388.38 855.61,-389.4 857.42,-396.38"/>
</a>
</g>
<text text-anchor="middle" x="1009.12" y="-498.5" font-family="Helvetica,sans-Serif" font-size="10.00" fill="grey"> &#45;renderState</text>
</g>
</g>
</svg>

<g id="navigator" transform="translate(0 0)" fill="#404254">
  <rect fill="#f2f5e9" fill-opacity="0.5" stroke="#606060" stroke-width=".5" x="0" y="0" width="60" height="60"/>
  <use id="zoomplus" xlink:href="#zoomPlus" x="17" y="9" onmousedown="handleZoom(evt,'in')"/>
  <use id="zoomminus" xlink:href="#zoomMin" x="42" y="9" onmousedown="handleZoom(evt,'out')"/>
  <use id="reset" xlink:href="#resetDef" x="30" y="36" onmousedown="handleReset()"/>
   <use id="arrowup" xlink:href="#arrowUp" x="0" y="0" onmousedown="handlePan(0,-1)"/>
  <use id="arrowright" xlink:href="#arrowRight" x="0" y="0" onmousedown="handlePan(1,0)"/>
  <use id="arrowdown" xlink:href="#arrowDown" x="0" y="0" onmousedown="handlePan(0,1)"/>
  <use id="arrowleft" xlink:href="#arrowLeft" x="0" y="0" onmousedown="handlePan(-1,0)"/>
</g>
<svg viewBox="0 0 15 15" width="100%" height="30px" preserveAspectRatio="xMaxYMin meet">
 <g id="arrow_out" transform="scale(0.3 0.3)">
  <a xlink:href="class_model__coll__graph_org.svg" target="_base">
   <rect id="button" ry="5" rx="5" y="6" x="6" height="38" width="38"
        fill="#f2f5e9" fill-opacity="0.5" stroke="#606060" stroke-width="1.0"/>
   <path id="arrow"
     d="M 11.500037,31.436501 C 11.940474,20.09759 22.043105,11.32322 32.158766,21.979434 L 37.068811,17.246167 C 37.068811,17.246167 37.088388,32 37.088388,32 L 22.160133,31.978069 C 22.160133,31.978069 26.997745,27.140456 26.997745,27.140456 C 18.528582,18.264221 13.291696,25.230495 11.500037,31.436501 z"
     style="fill:#404040;"/>
  </a>
 </g>
</svg>

<style type='text/css'>
<![CDATA[
[data-mouse-over-selected='false'] { opacity: 0.7; }
[data-mouse-over-selected='true']  { opacity: 1.0; }
]]>
</style>
<script type="application/ecmascript"><![CDATA[
document.addEventListener('DOMContentLoaded', (event) => {
  highlightEdges();
  highlightAdjacentNodes();
});
]]></script>
</svg>
