<?xml version="1.0" encoding="UTF-8" standalone="no"?>
<!DOCTYPE svg PUBLIC "-//W3C//DTD SVG 1.1//EN"
 "http://www.w3.org/Graphics/SVG/1.1/DTD/svg11.dtd">
<!-- Generated by graphviz version 9.0.0 (20230911.1827)
 -->
<!-- Title: Mesh Pages: 1 -->
<svg width="821pt" height="1648pt"
 viewBox="0.00 0.00 821.25 1648.00" xmlns="http://www.w3.org/2000/svg" xmlns:xlink="http://www.w3.org/1999/xlink">
<g id="graph0" class="graph" transform="scale(1 1) rotate(0) translate(4 1644)">
<title>Mesh</title>
<!-- Node1 -->
<g id="Node000001" class="node">
<title>Node1</title>
<g id="a_Node000001"><a xlink:title=" ">
<polygon fill="#999999" stroke="none" points="665,-668 395,-668 395,-536 665,-536 665,-668"/>
<text text-anchor="start" x="518" y="-654.5" font-family="Helvetica,sans-Serif" font-size="10.00">Mesh</text>
<text text-anchor="start" x="400.5" y="-638.5" font-family="Helvetica,sans-Serif" font-size="10.00">&#45;</text>
<text text-anchor="start" x="409" y="-638.5" font-family="Helvetica,sans-Serif" font-size="10.00">ID3D11Buffer * vertexBuffer</text>
<text text-anchor="start" x="400.5" y="-622.5" font-family="Helvetica,sans-Serif" font-size="10.00">&#45;</text>
<text text-anchor="start" x="409" y="-622.5" font-family="Helvetica,sans-Serif" font-size="10.00">ID3D11Buffer * indexBuffer</text>
<text text-anchor="start" x="399" y="-606.5" font-family="Helvetica,sans-Serif" font-size="10.00">+</text>
<text text-anchor="start" x="409" y="-606.5" font-family="Helvetica,sans-Serif" font-size="10.00">Mesh(GraphicsDevice *graphicsDevice, LPCSTR filename)</text>
<text text-anchor="start" x="399" y="-590.5" font-family="Helvetica,sans-Serif" font-size="10.00">+</text>
<text text-anchor="start" x="409" y="-590.5" font-family="Helvetica,sans-Serif" font-size="10.00">void SetParentModel(Model *model)</text>
<text text-anchor="start" x="399" y="-574.5" font-family="Helvetica,sans-Serif" font-size="10.00">+</text>
<text text-anchor="start" x="409" y="-574.5" font-family="Helvetica,sans-Serif" font-size="10.00">Model * GetParentModel() const</text>
<text text-anchor="start" x="399" y="-558.5" font-family="Helvetica,sans-Serif" font-size="10.00">+</text>
<text text-anchor="start" x="409" y="-558.5" font-family="Helvetica,sans-Serif" font-size="10.00">void LoadMesh(LPCSTR)</text>
<text text-anchor="start" x="399" y="-542.5" font-family="Helvetica,sans-Serif" font-size="10.00">+</text>
<text text-anchor="start" x="409" y="-542.5" font-family="Helvetica,sans-Serif" font-size="10.00">void Draw()</text>
<polygon fill="#666666" stroke="#666666" points="395,-650 395,-650 665,-650 665,-650 395,-650"/>
<polygon fill="#666666" stroke="#666666" points="395,-618 395,-618 407,-618 407,-618 395,-618"/>
<polygon fill="#666666" stroke="#666666" points="407,-618 407,-618 665,-618 665,-618 407,-618"/>
<polygon fill="none" stroke="#666666" points="395,-536 395,-668 665,-668 665,-536 395,-536"/>
</a>
</g>
</g>
<!-- Node4 -->
<g id="Node000004" class="node">
<title>Node4</title>
<g id="a_Node000004"><a xlink:href="class_model.html#struct_model_1_1_mesh_entry" target="_top" xlink:title=" ">
<polygon fill="white" stroke="none" points="305.5,-460 216.5,-460 216.5,-408 305.5,-408 305.5,-460"/>
<text text-anchor="start" x="221.25" y="-446.5" font-family="Helvetica,sans-Serif" font-size="10.00">Model::MeshEntry</text>
<text text-anchor="start" x="259.5" y="-430.5" font-family="Helvetica,sans-Serif" font-size="10.00"> </text>
<text text-anchor="start" x="259.5" y="-414.5" font-family="Helvetica,sans-Serif" font-size="10.00"> </text>
<polygon fill="#666666" stroke="#666666" points="216.5,-442 216.5,-442 305.5,-442 305.5,-442 216.5,-442"/>
<polygon fill="#666666" stroke="#666666" points="216.5,-426 216.5,-426 305.5,-426 305.5,-426 216.5,-426"/>
<polygon fill="none" stroke="#666666" points="216.5,-408 216.5,-460 305.5,-460 305.5,-408 216.5,-408"/>
</a>
</g>
</g>
<!-- Node1&#45;&gt;Node4 -->
<g id="edge4_Node000004_Node000001" class="edge">
<title>Node1&#45;&gt;Node4</title>
<g id="a_edge4_Node000004_Node000001"><a xlink:title=" ">
<path fill="none" stroke="#63b8ff" d="M430.83,-536.13C415.87,-526.59 400.58,-516.96 386,-508 363.21,-493.99 337.76,-479.02 315.8,-466.29"/>
<polygon fill="none" stroke="#63b8ff" points="315.84,-466.32 308.65,-466.78 305.45,-460.31 312.65,-459.85 315.84,-466.32"/>
</a>
</g>
<text text-anchor="middle" x="372.5" y="-480.5" font-family="Helvetica,sans-Serif" font-size="10.00" fill="grey"> +mesh</text>
</g>
<!-- Node2 -->
<g id="Node000002" class="node">
<title>Node2</title>
<g id="a_Node000002"><a xlink:href="class_model.html" target="_top" xlink:title=" ">
<polygon fill="white" stroke="none" points="383,-260 139,-260 139,0 383,0 383,-260"/>
<text text-anchor="start" x="247.88" y="-246.5" font-family="Helvetica,sans-Serif" font-size="10.00">Model</text>
<text text-anchor="start" x="144.5" y="-230.5" font-family="Helvetica,sans-Serif" font-size="10.00">&#45;</text>
<text text-anchor="start" x="153" y="-230.5" font-family="Helvetica,sans-Serif" font-size="10.00">DirectX::XMFLOAT3 position</text>
<text text-anchor="start" x="144.5" y="-214.5" font-family="Helvetica,sans-Serif" font-size="10.00">&#45;</text>
<text text-anchor="start" x="153" y="-214.5" font-family="Helvetica,sans-Serif" font-size="10.00">DirectX::XMFLOAT3 rotation</text>
<text text-anchor="start" x="144.5" y="-198.5" font-family="Helvetica,sans-Serif" font-size="10.00">&#45;</text>
<text text-anchor="start" x="153" y="-198.5" font-family="Helvetica,sans-Serif" font-size="10.00">DirectX::XMFLOAT3 scale</text>
<text text-anchor="start" x="144.5" y="-182.5" font-family="Helvetica,sans-Serif" font-size="10.00">&#45;</text>
<text text-anchor="start" x="153" y="-182.5" font-family="Helvetica,sans-Serif" font-size="10.00">DirectX::XMMATRIX transformationMatrix</text>
<text text-anchor="start" x="143" y="-166.5" font-family="Helvetica,sans-Serif" font-size="10.00">+</text>
<text text-anchor="start" x="153" y="-166.5" font-family="Helvetica,sans-Serif" font-size="10.00">Model(GraphicsDevice *graphicsDevice)</text>
<text text-anchor="start" x="143" y="-150.5" font-family="Helvetica,sans-Serif" font-size="10.00">+</text>
<text text-anchor="start" x="153" y="-150.5" font-family="Helvetica,sans-Serif" font-size="10.00">void AddMeshEntry(Mesh *mesh, Material *material)</text>
<text text-anchor="start" x="143" y="-134.5" font-family="Helvetica,sans-Serif" font-size="10.00">+</text>
<text text-anchor="start" x="153" y="-134.5" font-family="Helvetica,sans-Serif" font-size="10.00">void SetPosition(const DirectX::XMFLOAT3 &amp;pos)</text>
<text text-anchor="start" x="143" y="-118.5" font-family="Helvetica,sans-Serif" font-size="10.00">+</text>
<text text-anchor="start" x="153" y="-118.5" font-family="Helvetica,sans-Serif" font-size="10.00">void SetRotation(const DirectX::XMFLOAT3 &amp;rot)</text>
<text text-anchor="start" x="143" y="-102.5" font-family="Helvetica,sans-Serif" font-size="10.00">+</text>
<text text-anchor="start" x="153" y="-102.5" font-family="Helvetica,sans-Serif" font-size="10.00">void SetScale(const DirectX::XMFLOAT3 &amp;scl)</text>
<text text-anchor="start" x="143" y="-86.5" font-family="Helvetica,sans-Serif" font-size="10.00">+</text>
<text text-anchor="start" x="153" y="-86.5" font-family="Helvetica,sans-Serif" font-size="10.00">DirectX::XMFLOAT3 GetPosition()</text>
<text text-anchor="start" x="143" y="-70.5" font-family="Helvetica,sans-Serif" font-size="10.00">+</text>
<text text-anchor="start" x="153" y="-70.5" font-family="Helvetica,sans-Serif" font-size="10.00">DirectX::XMFLOAT3 GetRotation()</text>
<text text-anchor="start" x="143" y="-54.5" font-family="Helvetica,sans-Serif" font-size="10.00">+</text>
<text text-anchor="start" x="153" y="-54.5" font-family="Helvetica,sans-Serif" font-size="10.00">DirectX::XMFLOAT3 GetScale()</text>
<text text-anchor="start" x="143" y="-38.5" font-family="Helvetica,sans-Serif" font-size="10.00">+</text>
<text text-anchor="start" x="153" y="-38.5" font-family="Helvetica,sans-Serif" font-size="10.00">void UpdateTransformationMatrix()</text>
<text text-anchor="start" x="143" y="-22.5" font-family="Helvetica,sans-Serif" font-size="10.00">+</text>
<text text-anchor="start" x="153" y="-22.5" font-family="Helvetica,sans-Serif" font-size="10.00">XMMATRIX GetTransformationMatrix()</text>
<text text-anchor="start" x="143" y="-6.5" font-family="Helvetica,sans-Serif" font-size="10.00">+</text>
<text text-anchor="start" x="153" y="-6.5" font-family="Helvetica,sans-Serif" font-size="10.00">std::vector&lt; MeshEntry &gt; GetMeshEntries()</text>
<polygon fill="#666666" stroke="#666666" points="139,-242 139,-242 383,-242 383,-242 139,-242"/>
<polygon fill="#666666" stroke="#666666" points="139,-178 139,-178 151,-178 151,-178 139,-178"/>
<polygon fill="#666666" stroke="#666666" points="151,-178 151,-178 383,-178 383,-178 151,-178"/>
<polygon fill="none" stroke="#666666" points="139,0 139,-260 383,-260 383,0 139,0"/>
</a>
</g>
</g>
<!-- Node2&#45;&gt;Node1 -->
<g id="edge1_Node000001_Node000002" class="edge">
<title>Node2&#45;&gt;Node1</title>
<g id="a_edge1_Node000001_Node000002"><a xlink:title=" ">
<path fill="none" stroke="#63b8ff" d="M334.73,-259.83C383.42,-344.89 445.55,-453.45 486.49,-524.99"/>
<polygon fill="none" stroke="#63b8ff" points="486.47,-524.94 492.92,-528.17 492.43,-535.36 485.98,-532.14 486.47,-524.94"/>
</a>
</g>
<text text-anchor="middle" x="437.62" y="-380.5" font-family="Helvetica,sans-Serif" font-size="10.00" fill="grey"> &#45;parentModel</text>
</g>
<!-- Node3 -->
<g id="Node000003" class="node">
<title>Node3</title>
<g id="a_Node000003"><a xlink:title=" ">
<polygon fill="white" stroke="none" points="337,-360 185,-360 185,-308 337,-308 337,-360"/>
<text text-anchor="start" x="189.75" y="-346.5" font-family="Helvetica,sans-Serif" font-size="10.00">std::vector&lt; Model::MeshEntry &gt;</text>
<text text-anchor="start" x="259.5" y="-330.5" font-family="Helvetica,sans-Serif" font-size="10.00"> </text>
<text text-anchor="start" x="259.5" y="-314.5" font-family="Helvetica,sans-Serif" font-size="10.00"> </text>
<polygon fill="#666666" stroke="#666666" points="185,-342 185,-342 337,-342 337,-342 185,-342"/>
<polygon fill="#666666" stroke="#666666" points="185,-326 185,-326 337,-326 337,-326 185,-326"/>
<polygon fill="none" stroke="#666666" points="185,-308 185,-360 337,-360 337,-308 185,-308"/>
</a>
</g>
</g>
<!-- Node3&#45;&gt;Node2 -->
<g id="edge2_Node000002_Node000003" class="edge">
<title>Node3&#45;&gt;Node2</title>
<g id="a_edge2_Node000002_Node000003"><a xlink:title=" ">
<path fill="none" stroke="#63b8ff" d="M261,-308.23C261,-298.23 261,-285.84 261,-272.3"/>
<polygon fill="none" stroke="#63b8ff" points="261,-272.47 257,-266.47 261,-260.47 265,-266.47 261,-272.47"/>
</a>
</g>
<text text-anchor="middle" x="291.38" y="-280.5" font-family="Helvetica,sans-Serif" font-size="10.00" fill="grey"> &#45;meshEntries</text>
</g>
<!-- Node4&#45;&gt;Node3 -->
<g id="edge3_Node000003_Node000004" class="edge">
<title>Node4&#45;&gt;Node3</title>
<g id="a_edge3_Node000003_Node000004"><a xlink:title=" ">
<path fill="none" stroke="#63b8ff" d="M261,-408.02C261,-397.3 261,-384.56 261,-372.73"/>
<polygon fill="none" stroke="#63b8ff" points="261,-372.84 257,-366.84 261,-360.84 265,-366.84 261,-372.84"/>
</a>
</g>
<text text-anchor="middle" x="285.38" y="-380.5" font-family="Helvetica,sans-Serif" font-size="10.00" fill="grey"> +elements</text>
</g>
<!-- Node5 -->
<g id="Node000005" class="node">
<title>Node5</title>
<g id="a_Node000005"><a xlink:href="class_material.html" target="_top" xlink:title=" ">
<polygon fill="white" stroke="none" points="377,-696 89,-696 89,-508 377,-508 377,-696"/>
<text text-anchor="start" x="215.75" y="-682.5" font-family="Helvetica,sans-Serif" font-size="10.00">Material</text>
<text text-anchor="start" x="94.5" y="-666.5" font-family="Helvetica,sans-Serif" font-size="10.00">&#45;</text>
<text text-anchor="start" x="103" y="-666.5" font-family="Helvetica,sans-Serif" font-size="10.00">ID3D11ShaderResourceView * textureSRV</text>
<text text-anchor="start" x="94.5" y="-650.5" font-family="Helvetica,sans-Serif" font-size="10.00">&#45;</text>
<text text-anchor="start" x="103" y="-650.5" font-family="Helvetica,sans-Serif" font-size="10.00">bool transparent</text>
<text text-anchor="start" x="93" y="-634.5" font-family="Helvetica,sans-Serif" font-size="10.00">+</text>
<text text-anchor="start" x="103" y="-634.5" font-family="Helvetica,sans-Serif" font-size="10.00">Material(GraphicsDevice *graphicsDevice, std::shared</text>
<text text-anchor="start" x="103" y="-622.5" font-family="Helvetica,sans-Serif" font-size="10.00">_ptr&lt; ShaderProgram &gt; shader, RenderState *renderState,</text>
<text text-anchor="start" x="103" y="-610.5" font-family="Helvetica,sans-Serif" font-size="10.00"> bool transparent)</text>
<text text-anchor="start" x="93" y="-594.5" font-family="Helvetica,sans-Serif" font-size="10.00">+</text>
<text text-anchor="start" x="103" y="-594.5" font-family="Helvetica,sans-Serif" font-size="10.00">void LoadTexture(LPCSTR filename)</text>
<text text-anchor="start" x="93" y="-578.5" font-family="Helvetica,sans-Serif" font-size="10.00">+</text>
<text text-anchor="start" x="103" y="-578.5" font-family="Helvetica,sans-Serif" font-size="10.00">void SetConstantBuffer(ConstantBuffer cb)</text>
<text text-anchor="start" x="93" y="-562.5" font-family="Helvetica,sans-Serif" font-size="10.00">+</text>
<text text-anchor="start" x="103" y="-562.5" font-family="Helvetica,sans-Serif" font-size="10.00">void Setup()</text>
<text text-anchor="start" x="93" y="-546.5" font-family="Helvetica,sans-Serif" font-size="10.00">+</text>
<text text-anchor="start" x="103" y="-546.5" font-family="Helvetica,sans-Serif" font-size="10.00">bool isTransparent()</text>
<text text-anchor="start" x="93" y="-530.5" font-family="Helvetica,sans-Serif" font-size="10.00">+</text>
<text text-anchor="start" x="103" y="-530.5" font-family="Helvetica,sans-Serif" font-size="10.00">std::shared_ptr&lt; ShaderProgram &gt; GetShaderProgram() const</text>
<text text-anchor="start" x="93" y="-514.5" font-family="Helvetica,sans-Serif" font-size="10.00">+</text>
<text text-anchor="start" x="103" y="-514.5" font-family="Helvetica,sans-Serif" font-size="10.00">RenderState * GetRenderState() const</text>
<polygon fill="#666666" stroke="#666666" points="89,-678 89,-678 377,-678 377,-678 89,-678"/>
<polygon fill="#666666" stroke="#666666" points="89,-646 89,-646 101,-646 101,-646 89,-646"/>
<polygon fill="#666666" stroke="#666666" points="101,-646 101,-646 377,-646 377,-646 101,-646"/>
<polygon fill="none" stroke="#666666" points="89,-508 89,-696 377,-696 377,-508 89,-508"/>
</a>
</g>
</g>
<!-- Node5&#45;&gt;Node4 -->
<g id="edge5_Node000004_Node000005" class="edge">
<title>Node5&#45;&gt;Node4</title>
<g id="a_edge5_Node000004_Node000005"><a xlink:title=" ">
<path fill="none" stroke="#63b8ff" d="M248.64,-508.29C250.75,-495.76 252.81,-483.53 254.63,-472.76"/>
<polygon fill="none" stroke="#63b8ff" points="254.64,-472.71 251.69,-466.13 256.64,-460.88 259.58,-467.46 254.64,-472.71"/>
</a>
</g>
<text text-anchor="middle" x="275.75" y="-480.5" font-family="Helvetica,sans-Serif" font-size="10.00" fill="grey"> +material</text>
</g>
<!-- Node6 -->
<g id="Node000006" class="node">
<title>Node6</title>
<g id="a_Node000006"><a xlink:title=" ">
<polygon fill="white" stroke="none" points="269,-796 109,-796 109,-744 269,-744 269,-796"/>
<text text-anchor="start" x="113.62" y="-782.5" font-family="Helvetica,sans-Serif" font-size="10.00">std::shared_ptr&lt; ShaderProgram &gt;</text>
<text text-anchor="start" x="187.5" y="-766.5" font-family="Helvetica,sans-Serif" font-size="10.00"> </text>
<text text-anchor="start" x="116.5" y="-750.5" font-family="Helvetica,sans-Serif" font-size="10.00">+</text>
<text text-anchor="start" x="130" y="-750.5" font-family="Helvetica,sans-Serif" font-size="10.00">ShaderProgram * operator&#45;&gt;()</text>
<polygon fill="#666666" stroke="#666666" points="109,-778 109,-778 269,-778 269,-778 109,-778"/>
<polygon fill="#666666" stroke="#666666" points="109,-762 109,-762 269,-762 269,-762 109,-762"/>
<polygon fill="none" stroke="#666666" points="109,-744 109,-796 269,-796 269,-744 109,-744"/>
</a>
</g>
</g>
<!-- Node6&#45;&gt;Node5 -->
<g id="edge6_Node000005_Node000006" class="edge">
<title>Node6&#45;&gt;Node5</title>
<g id="a_edge6_Node000005_Node000006"><a xlink:title=" ">
<path fill="none" stroke="#63b8ff" d="M195.59,-744.15C198.29,-733.97 201.61,-721.44 205.14,-708.1"/>
<polygon fill="none" stroke="#63b8ff" points="205.14,-708.12 202.81,-701.3 208.21,-696.52 210.54,-703.35 205.14,-708.12"/>
</a>
</g>
<text text-anchor="middle" x="221.62" y="-716.5" font-family="Helvetica,sans-Serif" font-size="10.00" fill="grey"> &#45;shader</text>
</g>
<!-- Node7 -->
<g id="Node000007" class="node">
<title>Node7</title>
<g id="a_Node000007"><a xlink:href="class_shader_program.html" target="_top" xlink:title=" ">
<polygon fill="white" stroke="none" points="397.5,-1268 66.5,-1268 66.5,-1060 397.5,-1060 397.5,-1268"/>
<text text-anchor="start" x="198.25" y="-1254.5" font-family="Helvetica,sans-Serif" font-size="10.00">ShaderProgram</text>
<text text-anchor="start" x="72" y="-1238.5" font-family="Helvetica,sans-Serif" font-size="10.00">&#45;</text>
<text text-anchor="start" x="80.5" y="-1238.5" font-family="Helvetica,sans-Serif" font-size="10.00">ID3D11VertexShader * vertexShader</text>
<text text-anchor="start" x="72" y="-1222.5" font-family="Helvetica,sans-Serif" font-size="10.00">&#45;</text>
<text text-anchor="start" x="80.5" y="-1222.5" font-family="Helvetica,sans-Serif" font-size="10.00">ID3D11PixelShader * pixelShader</text>
<text text-anchor="start" x="72" y="-1206.5" font-family="Helvetica,sans-Serif" font-size="10.00">&#45;</text>
<text text-anchor="start" x="80.5" y="-1206.5" font-family="Helvetica,sans-Serif" font-size="10.00">ID3D11InputLayout * inputLayout</text>
<text text-anchor="start" x="72" y="-1190.5" font-family="Helvetica,sans-Serif" font-size="10.00">&#45;</text>
<text text-anchor="start" x="80.5" y="-1190.5" font-family="Helvetica,sans-Serif" font-size="10.00">ID3D11Buffer * constantBuffer</text>
<text text-anchor="start" x="70.5" y="-1174.5" font-family="Helvetica,sans-Serif" font-size="10.00">+</text>
<text text-anchor="start" x="80.5" y="-1174.5" font-family="Helvetica,sans-Serif" font-size="10.00">ShaderProgram(GraphicsDevice *graphicsDevice)</text>
<text text-anchor="start" x="70.5" y="-1158.5" font-family="Helvetica,sans-Serif" font-size="10.00">+</text>
<text text-anchor="start" x="80.5" y="-1158.5" font-family="Helvetica,sans-Serif" font-size="10.00">void LoadShader(LPCSTR VSFilename, LPCSTR PSFilename)</text>
<text text-anchor="start" x="70.5" y="-1142.5" font-family="Helvetica,sans-Serif" font-size="10.00">+</text>
<text text-anchor="start" x="80.5" y="-1142.5" font-family="Helvetica,sans-Serif" font-size="10.00">void ClearResources()</text>
<text text-anchor="start" x="70.5" y="-1126.5" font-family="Helvetica,sans-Serif" font-size="10.00">+</text>
<text text-anchor="start" x="80.5" y="-1126.5" font-family="Helvetica,sans-Serif" font-size="10.00">void UpdateBuffers(ConstantBuffer cb)</text>
<text text-anchor="start" x="70.5" y="-1110.5" font-family="Helvetica,sans-Serif" font-size="10.00">+</text>
<text text-anchor="start" x="80.5" y="-1110.5" font-family="Helvetica,sans-Serif" font-size="10.00">void Bind()</text>
<text text-anchor="start" x="72" y="-1094.5" font-family="Helvetica,sans-Serif" font-size="10.00">&#45;</text>
<text text-anchor="start" x="80.5" y="-1094.5" font-family="Helvetica,sans-Serif" font-size="10.00">bool CompileHLSL(const std::string &amp;filename, ShaderType shaderType)</text>
<text text-anchor="start" x="72" y="-1078.5" font-family="Helvetica,sans-Serif" font-size="10.00">&#45;</text>
<text text-anchor="start" x="80.5" y="-1078.5" font-family="Helvetica,sans-Serif" font-size="10.00">std::vector&lt; byte &gt; LoadShaderFile(const std::string</text>
<text text-anchor="start" x="80.5" y="-1066.5" font-family="Helvetica,sans-Serif" font-size="10.00"> &amp;filename, ShaderType shaderType)</text>
<polygon fill="#666666" stroke="#666666" points="66.5,-1250 66.5,-1250 397.5,-1250 397.5,-1250 66.5,-1250"/>
<polygon fill="#666666" stroke="#666666" points="66.5,-1186 66.5,-1186 78.5,-1186 78.5,-1186 66.5,-1186"/>
<polygon fill="#666666" stroke="#666666" points="78.5,-1186 78.5,-1186 397.5,-1186 397.5,-1186 78.5,-1186"/>
<polygon fill="none" stroke="#666666" points="66.5,-1060 66.5,-1268 397.5,-1268 397.5,-1060 66.5,-1060"/>
</a>
</g>
</g>
<!-- Node7&#45;&gt;Node6 -->
<g id="edge7_Node000006_Node000007" class="edge">
<title>Node7&#45;&gt;Node6</title>
<g id="a_edge7_Node000006_Node000007"><a xlink:title=" ">
<path fill="none" stroke="#63b8ff" d="M185.28,-1060.24C183.51,-1054.15 181.98,-1048.04 180.75,-1042 160.59,-942.69 171.16,-914.88 180.75,-814 180.92,-812.25 181.12,-810.46 181.35,-808.66"/>
<polygon fill="none" stroke="#63b8ff" points="181.36,-808.64 178.36,-802.08 183.25,-796.79 186.25,-803.34 181.36,-808.64"/>
</a>
</g>
<text text-anchor="middle" x="191.12" y="-924.5" font-family="Helvetica,sans-Serif" font-size="10.00" fill="grey"> +ptr</text>
</g>
<!-- Node8 -->
<g id="Node000008" class="node">
<title>Node8</title>
<g id="a_Node000008"><a xlink:href="class_graphics_device.html" target="_top" xlink:title=" ">
<polygon fill="white" stroke="none" points="364.5,-1640 99.5,-1640 99.5,-1316 364.5,-1316 364.5,-1640"/>
<text text-anchor="start" x="198.25" y="-1626.5" font-family="Helvetica,sans-Serif" font-size="10.00">GraphicsDevice</text>
<text text-anchor="start" x="105" y="-1610.5" font-family="Helvetica,sans-Serif" font-size="10.00">&#45;</text>
<text text-anchor="start" x="113.5" y="-1610.5" font-family="Helvetica,sans-Serif" font-size="10.00">ID3D11Device * device</text>
<text text-anchor="start" x="105" y="-1594.5" font-family="Helvetica,sans-Serif" font-size="10.00">&#45;</text>
<text text-anchor="start" x="113.5" y="-1594.5" font-family="Helvetica,sans-Serif" font-size="10.00">ID3D11DeviceContext * deviceContext</text>
<text text-anchor="start" x="105" y="-1578.5" font-family="Helvetica,sans-Serif" font-size="10.00">&#45;</text>
<text text-anchor="start" x="113.5" y="-1578.5" font-family="Helvetica,sans-Serif" font-size="10.00">IDXGISwapChain * swapChain</text>
<text text-anchor="start" x="105" y="-1562.5" font-family="Helvetica,sans-Serif" font-size="10.00">&#45;</text>
<text text-anchor="start" x="113.5" y="-1562.5" font-family="Helvetica,sans-Serif" font-size="10.00">ID3D11RenderTargetView * renderTargetView</text>
<text text-anchor="start" x="105" y="-1546.5" font-family="Helvetica,sans-Serif" font-size="10.00">&#45;</text>
<text text-anchor="start" x="113.5" y="-1546.5" font-family="Helvetica,sans-Serif" font-size="10.00">ID3D11DepthStencilView * depthStencilView</text>
<text text-anchor="start" x="105" y="-1530.5" font-family="Helvetica,sans-Serif" font-size="10.00">&#45;</text>
<text text-anchor="start" x="113.5" y="-1530.5" font-family="Helvetica,sans-Serif" font-size="10.00">ID3D11Texture2D * depthStencilBuffer</text>
<text text-anchor="start" x="105" y="-1514.5" font-family="Helvetica,sans-Serif" font-size="10.00">&#45;</text>
<text text-anchor="start" x="113.5" y="-1514.5" font-family="Helvetica,sans-Serif" font-size="10.00">int windowWidth</text>
<text text-anchor="start" x="105" y="-1498.5" font-family="Helvetica,sans-Serif" font-size="10.00">&#45;</text>
<text text-anchor="start" x="113.5" y="-1498.5" font-family="Helvetica,sans-Serif" font-size="10.00">int windowHeight</text>
<text text-anchor="start" x="105" y="-1482.5" font-family="Helvetica,sans-Serif" font-size="10.00">&#45;</text>
<text text-anchor="start" x="113.5" y="-1482.5" font-family="Helvetica,sans-Serif" font-size="10.00">HWND hWnd</text>
<text text-anchor="start" x="103.5" y="-1466.5" font-family="Helvetica,sans-Serif" font-size="10.00">+</text>
<text text-anchor="start" x="113.5" y="-1466.5" font-family="Helvetica,sans-Serif" font-size="10.00">void Initialize(HWND hWnd, int width, int height)</text>
<text text-anchor="start" x="103.5" y="-1450.5" font-family="Helvetica,sans-Serif" font-size="10.00">+</text>
<text text-anchor="start" x="113.5" y="-1450.5" font-family="Helvetica,sans-Serif" font-size="10.00">void ResizeBuffersAndViews(int width, int height)</text>
<text text-anchor="start" x="103.5" y="-1434.5" font-family="Helvetica,sans-Serif" font-size="10.00">+</text>
<text text-anchor="start" x="113.5" y="-1434.5" font-family="Helvetica,sans-Serif" font-size="10.00">ID3D11Device * GetDevice() const</text>
<text text-anchor="start" x="103.5" y="-1418.5" font-family="Helvetica,sans-Serif" font-size="10.00">+</text>
<text text-anchor="start" x="113.5" y="-1418.5" font-family="Helvetica,sans-Serif" font-size="10.00">ID3D11DeviceContext * GetDeviceContext() const</text>
<text text-anchor="start" x="103.5" y="-1402.5" font-family="Helvetica,sans-Serif" font-size="10.00">+</text>
<text text-anchor="start" x="113.5" y="-1402.5" font-family="Helvetica,sans-Serif" font-size="10.00">IDXGISwapChain * GetSwapChain() const</text>
<text text-anchor="start" x="103.5" y="-1386.5" font-family="Helvetica,sans-Serif" font-size="10.00">+</text>
<text text-anchor="start" x="113.5" y="-1386.5" font-family="Helvetica,sans-Serif" font-size="10.00">ID3D11RenderTargetView * GetRenderTargetView() const</text>
<text text-anchor="start" x="103.5" y="-1370.5" font-family="Helvetica,sans-Serif" font-size="10.00">+</text>
<text text-anchor="start" x="113.5" y="-1370.5" font-family="Helvetica,sans-Serif" font-size="10.00">ID3D11DepthStencilView * GetDepthStencilView() const</text>
<text text-anchor="start" x="103.5" y="-1354.5" font-family="Helvetica,sans-Serif" font-size="10.00">+</text>
<text text-anchor="start" x="113.5" y="-1354.5" font-family="Helvetica,sans-Serif" font-size="10.00">int GetWindowWidth()</text>
<text text-anchor="start" x="103.5" y="-1338.5" font-family="Helvetica,sans-Serif" font-size="10.00">+</text>
<text text-anchor="start" x="113.5" y="-1338.5" font-family="Helvetica,sans-Serif" font-size="10.00">int GetWindowHeight()</text>
<text text-anchor="start" x="103.5" y="-1322.5" font-family="Helvetica,sans-Serif" font-size="10.00">+</text>
<text text-anchor="start" x="113.5" y="-1322.5" font-family="Helvetica,sans-Serif" font-size="10.00">HWND GetHWND()</text>
<polygon fill="#666666" stroke="#666666" points="99.5,-1622 99.5,-1622 364.5,-1622 364.5,-1622 99.5,-1622"/>
<polygon fill="#666666" stroke="#666666" points="99.5,-1478 99.5,-1478 111.5,-1478 111.5,-1478 99.5,-1478"/>
<polygon fill="#666666" stroke="#666666" points="111.5,-1478 111.5,-1478 364.5,-1478 364.5,-1478 111.5,-1478"/>
<polygon fill="none" stroke="#666666" points="99.5,-1316 99.5,-1640 364.5,-1640 364.5,-1316 99.5,-1316"/>
</a>
</g>
</g>
<!-- Node8&#45;&gt;Node1 -->
<g id="edge16_Node000001_Node000008" class="edge">
<title>Node8&#45;&gt;Node1</title>
<g id="a_edge16_Node000001_Node000008"><a xlink:title=" ">
<path fill="none" stroke="#63b8ff" d="M364.32,-1452.01C465.4,-1425.22 598.05,-1371.68 663,-1268 786.64,-1070.64 748.97,-960.44 663,-744 653.29,-719.54 637.09,-696.87 619.29,-677.17"/>
<polygon fill="none" stroke="#63b8ff" points="619.27,-677.15 612.25,-675.52 611.06,-668.41 618.08,-670.04 619.27,-677.15"/>
</a>
</g>
<text text-anchor="middle" x="777.62" y="-924.5" font-family="Helvetica,sans-Serif" font-size="10.00" fill="grey"> &#45;graphicsDevice</text>
</g>
<!-- Node8&#45;&gt;Node2 -->
<g id="edge12_Node000002_Node000008" class="edge">
<title>Node8&#45;&gt;Node2</title>
<g id="a_edge12_Node000002_Node000008"><a xlink:title=" ">
<path fill="none" stroke="#63b8ff" d="M99.74,-1369.38C47.63,-1314.7 0,-1243.3 0,-1165 0,-1165 0,-1165 0,-333 0,-260.7 63.4,-210.6 127.71,-178.38"/>
<polygon fill="none" stroke="#63b8ff" points="127.68,-178.4 131.33,-172.18 138.48,-173.16 134.82,-179.38 127.68,-178.4"/>
</a>
</g>
<text text-anchor="middle" x="35.62" y="-598.5" font-family="Helvetica,sans-Serif" font-size="10.00" fill="grey"> &#45;graphicsDevice</text>
</g>
<!-- Node8&#45;&gt;Node5 -->
<g id="edge11_Node000005_Node000008" class="edge">
<title>Node8&#45;&gt;Node5</title>
<g id="a_edge11_Node000005_Node000008"><a xlink:title=" ">
<path fill="none" stroke="#63b8ff" d="M99.66,-1345.76C82.2,-1321.63 66.94,-1295.35 57,-1268 17.1,-1158.19 49.63,-849.42 100,-744 106.29,-730.83 114.27,-718.08 123.17,-705.99"/>
<polygon fill="none" stroke="#63b8ff" points="123,-706.21 123.48,-699.02 130.31,-696.7 129.83,-703.89 123,-706.21"/>
</a>
</g>
<text text-anchor="middle" x="111.62" y="-924.5" font-family="Helvetica,sans-Serif" font-size="10.00" fill="grey"> &#45;graphicsDevice</text>
</g>
<!-- Node8&#45;&gt;Node7 -->
<g id="edge8_Node000007_Node000008" class="edge">
<title>Node8&#45;&gt;Node7</title>
<g id="a_edge8_Node000007_Node000008"><a xlink:title=" ">
<path fill="none" stroke="#63b8ff" d="M232,-1316.43C232,-1304.39 232,-1292.38 232,-1280.7"/>
<polygon fill="none" stroke="#63b8ff" points="232,-1280.57 228,-1274.57 232,-1268.57 236,-1274.57 232,-1280.57"/>
</a>
</g>
<text text-anchor="middle" x="267.62" y="-1288.5" font-family="Helvetica,sans-Serif" font-size="10.00" fill="grey"> &#45;graphicsDevice</text>
</g>
<!-- Node9 -->
<g id="Node000009" class="node">
<title>Node9</title>
<g id="a_Node000009"><a xlink:href="class_render_state.html" target="_top" xlink:title=" ">
<polygon fill="white" stroke="none" points="574,-1042 210,-1042 210,-814 574,-814 574,-1042"/>
<text text-anchor="start" x="365" y="-1028.5" font-family="Helvetica,sans-Serif" font-size="10.00">RenderState</text>
<text text-anchor="start" x="215.5" y="-1012.5" font-family="Helvetica,sans-Serif" font-size="10.00">&#45;</text>
<text text-anchor="start" x="224" y="-1012.5" font-family="Helvetica,sans-Serif" font-size="10.00">ID3D11RasterizerState * rasterizerState</text>
<text text-anchor="start" x="215.5" y="-996.5" font-family="Helvetica,sans-Serif" font-size="10.00">&#45;</text>
<text text-anchor="start" x="224" y="-996.5" font-family="Helvetica,sans-Serif" font-size="10.00">ID3D11BlendState * blendState</text>
<text text-anchor="start" x="215.5" y="-980.5" font-family="Helvetica,sans-Serif" font-size="10.00">&#45;</text>
<text text-anchor="start" x="224" y="-980.5" font-family="Helvetica,sans-Serif" font-size="10.00">ID3D11DepthStencilState * depthStencilState</text>
<text text-anchor="start" x="215.5" y="-964.5" font-family="Helvetica,sans-Serif" font-size="10.00">&#45;</text>
<text text-anchor="start" x="224" y="-964.5" font-family="Helvetica,sans-Serif" font-size="10.00">ID3D11SamplerState * samplerState</text>
<text text-anchor="start" x="215.5" y="-948.5" font-family="Helvetica,sans-Serif" font-size="10.00">&#45;</text>
<text text-anchor="start" x="224" y="-948.5" font-family="Helvetica,sans-Serif" font-size="10.00">float blendFactor</text>
<text text-anchor="start" x="214" y="-932.5" font-family="Helvetica,sans-Serif" font-size="10.00">+</text>
<text text-anchor="start" x="224" y="-932.5" font-family="Helvetica,sans-Serif" font-size="10.00">RenderState(GraphicsDevice *graphicsDevice)</text>
<text text-anchor="start" x="214" y="-916.5" font-family="Helvetica,sans-Serif" font-size="10.00">+</text>
<text text-anchor="start" x="224" y="-916.5" font-family="Helvetica,sans-Serif" font-size="10.00">~RenderState()</text>
<text text-anchor="start" x="214" y="-900.5" font-family="Helvetica,sans-Serif" font-size="10.00">+</text>
<text text-anchor="start" x="224" y="-900.5" font-family="Helvetica,sans-Serif" font-size="10.00">void CreateRasterizerState(const D3D11_RASTERIZER_DESC &amp;rasterDesc)</text>
<text text-anchor="start" x="214" y="-884.5" font-family="Helvetica,sans-Serif" font-size="10.00">+</text>
<text text-anchor="start" x="224" y="-884.5" font-family="Helvetica,sans-Serif" font-size="10.00">void CreateBlendState(const D3D11_BLEND_DESC &amp;blendDesc)</text>
<text text-anchor="start" x="214" y="-868.5" font-family="Helvetica,sans-Serif" font-size="10.00">+</text>
<text text-anchor="start" x="224" y="-868.5" font-family="Helvetica,sans-Serif" font-size="10.00">void CreateBlendFactor(float, float, float, float)</text>
<text text-anchor="start" x="214" y="-852.5" font-family="Helvetica,sans-Serif" font-size="10.00">+</text>
<text text-anchor="start" x="224" y="-852.5" font-family="Helvetica,sans-Serif" font-size="10.00">void CreateDepthStencilState(const D3D11_DEPTH_STENCIL_DESC &amp;dsDesc)</text>
<text text-anchor="start" x="214" y="-836.5" font-family="Helvetica,sans-Serif" font-size="10.00">+</text>
<text text-anchor="start" x="224" y="-836.5" font-family="Helvetica,sans-Serif" font-size="10.00">void CreateSamplerState(const D3D11_SAMPLER_DESC &amp;sampDesc)</text>
<text text-anchor="start" x="214" y="-820.5" font-family="Helvetica,sans-Serif" font-size="10.00">+</text>
<text text-anchor="start" x="224" y="-820.5" font-family="Helvetica,sans-Serif" font-size="10.00">void SetState()</text>
<polygon fill="#666666" stroke="#666666" points="210,-1024 210,-1024 574,-1024 574,-1024 210,-1024"/>
<polygon fill="#666666" stroke="#666666" points="210,-944 210,-944 222,-944 222,-944 210,-944"/>
<polygon fill="#666666" stroke="#666666" points="222,-944 222,-944 574,-944 574,-944 222,-944"/>
<polygon fill="none" stroke="#666666" points="210,-814 210,-1042 574,-1042 574,-814 210,-814"/>
</a>
</g>
</g>
<!-- Node8&#45;&gt;Node9 -->
<g id="edge10_Node000009_Node000008" class="edge">
<title>Node8&#45;&gt;Node9</title>
<g id="a_edge10_Node000009_Node000008"><a xlink:title=" ">
<path fill="none" stroke="#63b8ff" d="M364.44,-1344.5C381.44,-1320.7 396.28,-1294.86 406,-1268 430.47,-1200.36 428.41,-1120.12 419.56,-1054.69"/>
<polygon fill="none" stroke="#63b8ff" points="419.55,-1054.58 414.73,-1049.21 417.84,-1042.7 422.65,-1048.07 419.55,-1054.58"/>
</a>
</g>
<text text-anchor="middle" x="434.62" y="-1288.5" font-family="Helvetica,sans-Serif" font-size="10.00" fill="grey"> &#45;graphicsDevice</text>
</g>
<!-- Node9&#45;&gt;Node5 -->
<g id="edge9_Node000005_Node000009" class="edge">
<title>Node9&#45;&gt;Node5</title>
<g id="a_edge9_Node000005_Node000009"><a xlink:title=" ">
<path fill="none" stroke="#63b8ff" d="M331.95,-814.29C328.81,-808.12 325.72,-801.99 322.75,-796 308.6,-767.49 293.81,-736.32 280.41,-707.5"/>
<polygon fill="none" stroke="#63b8ff" points="280.39,-707.44 274.23,-703.68 275.34,-696.55 281.49,-700.32 280.39,-707.44"/>
</a>
</g>
<text text-anchor="middle" x="351.12" y="-766.5" font-family="Helvetica,sans-Serif" font-size="10.00" fill="grey"> &#45;renderState</text>
</g>
<!-- Node10 -->
<g id="Node000010" class="node">
<title>Node10</title>
<g id="a_Node000010"><a xlink:title=" ">
<polygon fill="white" stroke="none" points="510,-796 388,-796 388,-744 510,-744 510,-796"/>
<text text-anchor="start" x="392.75" y="-782.5" font-family="Helvetica,sans-Serif" font-size="10.00">std::vector&lt; VertexType &gt;</text>
<text text-anchor="start" x="447.5" y="-766.5" font-family="Helvetica,sans-Serif" font-size="10.00"> </text>
<text text-anchor="start" x="447.5" y="-750.5" font-family="Helvetica,sans-Serif" font-size="10.00"> </text>
<polygon fill="#666666" stroke="#666666" points="388,-778 388,-778 510,-778 510,-778 388,-778"/>
<polygon fill="#666666" stroke="#666666" points="388,-762 388,-762 510,-762 510,-762 388,-762"/>
<polygon fill="none" stroke="#666666" points="388,-744 388,-796 510,-796 510,-744 388,-744"/>
</a>
</g>
</g>
<!-- Node10&#45;&gt;Node1 -->
<g id="edge13_Node000001_Node000010" class="edge">
<title>Node10&#45;&gt;Node1</title>
<g id="a_edge13_Node000001_Node000010"><a xlink:title=" ">
<path fill="none" stroke="#63b8ff" d="M461.13,-744.15C469.55,-726.89 481.25,-702.9 492.63,-679.59"/>
<polygon fill="none" stroke="#63b8ff" points="492.69,-679.46 491.73,-672.31 497.95,-668.68 498.92,-675.82 492.69,-679.46"/>
</a>
</g>
<text text-anchor="middle" x="495.5" y="-716.5" font-family="Helvetica,sans-Serif" font-size="10.00" fill="grey"> &#45;vertices</text>
</g>
<!-- Node11 -->
<g id="Node000011" class="node">
<title>Node11</title>
<g id="a_Node000011"><a xlink:href="_mesh_8h.html#struct_vertex_type" target="_top" xlink:title=" ">
<polygon fill="white" stroke="none" points="654,-1206 540,-1206 540,-1122 654,-1122 654,-1206"/>
<text text-anchor="start" x="572.25" y="-1192.5" font-family="Helvetica,sans-Serif" font-size="10.00">VertexType</text>
<text text-anchor="start" x="544" y="-1176.5" font-family="Helvetica,sans-Serif" font-size="10.00">+</text>
<text text-anchor="start" x="554" y="-1176.5" font-family="Helvetica,sans-Serif" font-size="10.00">XMFLOAT4 position</text>
<text text-anchor="start" x="544" y="-1160.5" font-family="Helvetica,sans-Serif" font-size="10.00">+</text>
<text text-anchor="start" x="554" y="-1160.5" font-family="Helvetica,sans-Serif" font-size="10.00">XMFLOAT2 texCoords</text>
<text text-anchor="start" x="544" y="-1144.5" font-family="Helvetica,sans-Serif" font-size="10.00">+</text>
<text text-anchor="start" x="554" y="-1144.5" font-family="Helvetica,sans-Serif" font-size="10.00">XMFLOAT3 normal</text>
<text text-anchor="start" x="595.5" y="-1128.5" font-family="Helvetica,sans-Serif" font-size="10.00"> </text>
<polygon fill="#666666" stroke="#666666" points="540,-1188 540,-1188 654,-1188 654,-1188 540,-1188"/>
<polygon fill="#666666" stroke="#666666" points="540,-1140 540,-1140 552,-1140 552,-1140 540,-1140"/>
<polygon fill="#666666" stroke="#666666" points="552,-1140 552,-1140 654,-1140 654,-1140 552,-1140"/>
<polygon fill="none" stroke="#666666" points="540,-1122 540,-1206 654,-1206 654,-1122 540,-1122"/>
</a>
</g>
</g>
<!-- Node11&#45;&gt;Node10 -->
<g id="edge14_Node000010_Node000011" class="edge">
<title>Node11&#45;&gt;Node10</title>
<g id="a_edge14_Node000010_Node000011"><a xlink:title=" ">
<path fill="none" stroke="#63b8ff" d="M599.96,-1122.21C605.03,-1040.59 611.54,-860.95 575,-814 561.01,-796.03 547.69,-802.08 521.95,-796.27"/>
<polygon fill="none" stroke="#63b8ff" points="522.08,-796.31 515.22,-798.53 510.53,-793.05 517.39,-790.83 522.08,-796.31"/>
</a>
</g>
<text text-anchor="middle" x="627.38" y="-924.5" font-family="Helvetica,sans-Serif" font-size="10.00" fill="grey"> +elements</text>
</g>
<!-- Node12 -->
<g id="Node000012" class="node">
<title>Node12</title>
<g id="a_Node000012"><a xlink:title=" ">
<polygon fill="white" stroke="none" points="653.5,-796 528.5,-796 528.5,-744 653.5,-744 653.5,-796"/>
<text text-anchor="start" x="533.25" y="-782.5" font-family="Helvetica,sans-Serif" font-size="10.00">std::vector&lt; unsigned int &gt;</text>
<text text-anchor="start" x="535.5" y="-766.5" font-family="Helvetica,sans-Serif" font-size="10.00">+</text>
<text text-anchor="start" x="548.5" y="-766.5" font-family="Helvetica,sans-Serif" font-size="10.00">unsigned int elements</text>
<text text-anchor="start" x="589.5" y="-750.5" font-family="Helvetica,sans-Serif" font-size="10.00"> </text>
<polygon fill="#666666" stroke="#666666" points="528.5,-778 528.5,-778 653.5,-778 653.5,-778 528.5,-778"/>
<polygon fill="#666666" stroke="#666666" points="528.5,-762 528.5,-762 546.5,-762 546.5,-762 528.5,-762"/>
<polygon fill="#666666" stroke="#666666" points="546.5,-762 546.5,-762 653.5,-762 653.5,-762 546.5,-762"/>
<polygon fill="none" stroke="#666666" points="528.5,-744 528.5,-796 653.5,-796 653.5,-744 528.5,-744"/>
</a>
</g>
</g>
<!-- Node12&#45;&gt;Node1 -->
<g id="edge15_Node000001_Node000012" class="edge">
<title>Node12&#45;&gt;Node1</title>
<g id="a_edge15_Node000001_Node000012"><a xlink:title=" ">
<path fill="none" stroke="#63b8ff" d="M581.87,-744.15C575.56,-726.97 566.79,-703.12 558.26,-679.91"/>
<polygon fill="none" stroke="#63b8ff" points="558.29,-679.98 552.46,-675.72 554.15,-668.71 559.97,-672.96 558.29,-679.98"/>
</a>
</g>
<text text-anchor="middle" x="593.38" y="-716.5" font-family="Helvetica,sans-Serif" font-size="10.00" fill="grey"> &#45;indices</text>
</g>
</g>
</svg>
