<?xml version="1.0" encoding="UTF-8" standalone="no"?>
<!DOCTYPE svg PUBLIC "-//W3C//DTD SVG 1.1//EN"
 "http://www.w3.org/Graphics/SVG/1.1/DTD/svg11.dtd">
<!-- Generated by graphviz version 9.0.0 (20230911.1827)
 -->
<!-- Title: Material::Setup Pages: 1 -->
<svg width="444pt" height="47pt"
 viewBox="0.00 0.00 443.75 47.00" xmlns="http://www.w3.org/2000/svg" xmlns:xlink="http://www.w3.org/1999/xlink">
<g id="graph0" class="graph" transform="scale(1 1) rotate(0) translate(4 43)">
<title>Material::Setup</title>
<!-- Node1 -->
<g id="Node000001" class="node">
<title>Node1</title>
<g id="a_Node000001"><a xlink:title=" ">
<polygon fill="#999999" stroke="#666666" points="82,-39 0,-39 0,-19 82,-19 82,-39"/>
<text text-anchor="middle" x="41" y="-25.5" font-family="Helvetica,sans-Serif" font-size="10.00">Material::Setup</text>
</a>
</g>
</g>
<!-- Node2 -->
<g id="Node000002" class="node">
<title>Node2</title>
<g id="a_Node000002"><a xlink:href="class_graphics_device.html#acf91316dd6fe685f48258016a3098d41" target="_top" xlink:title=" ">
<polygon fill="white" stroke="#666666" points="435.75,-39 268.25,-39 268.25,-19 435.75,-19 435.75,-39"/>
<text text-anchor="middle" x="352" y="-25.5" font-family="Helvetica,sans-Serif" font-size="10.00">GraphicsDevice::GetDeviceContext</text>
</a>
</g>
</g>
<!-- Node1&#45;&gt;Node2 -->
<g id="edge1_Node000001_Node000002" class="edge">
<title>Node1&#45;&gt;Node2</title>
<g id="a_edge1_Node000001_Node000002"><a xlink:title=" ">
<path fill="none" stroke="#63b8ff" d="M82.4,-29C126.34,-29 198.09,-29 256.39,-29"/>
<polygon fill="#63b8ff" stroke="#63b8ff" points="256.35,-32.5 266.35,-29 256.35,-25.5 256.35,-32.5"/>
</a>
</g>
</g>
<!-- Node3 -->
<g id="Node000003" class="node">
<title>Node3</title>
<g id="a_Node000003"><a xlink:href="class_render_state.html#a6a48845d14ec5b7b8728549178626ce4" target="_top" xlink:title=" ">
<polygon fill="white" stroke="#666666" points="232.25,-20 118,-20 118,0 232.25,0 232.25,-20"/>
<text text-anchor="middle" x="175.12" y="-6.5" font-family="Helvetica,sans-Serif" font-size="10.00">RenderState::SetState</text>
</a>
</g>
</g>
<!-- Node1&#45;&gt;Node3 -->
<g id="edge2_Node000001_Node000003" class="edge">
<title>Node1&#45;&gt;Node3</title>
<g id="a_edge2_Node000001_Node000003"><a xlink:title=" ">
<path fill="none" stroke="#63b8ff" d="M82.36,-23.2C90.08,-22.09 98.36,-20.9 106.66,-19.7"/>
<polygon fill="#63b8ff" stroke="#63b8ff" points="107.06,-23.18 116.46,-18.29 106.07,-16.25 107.06,-23.18"/>
</a>
</g>
</g>
<!-- Node3&#45;&gt;Node2 -->
<g id="edge3_Node000003_Node000002" class="edge">
<title>Node3&#45;&gt;Node2</title>
<g id="a_edge3_Node000003_Node000002"><a xlink:title=" ">
<path fill="none" stroke="#63b8ff" d="M232.42,-16.12C240.18,-16.96 248.31,-17.84 256.53,-18.74"/>
<polygon fill="#63b8ff" stroke="#63b8ff" points="255.93,-22.19 266.25,-19.79 256.69,-15.23 255.93,-22.19"/>
</a>
</g>
</g>
</g>
</svg>
