<?xml version="1.0" encoding="UTF-8" standalone="no"?>
<!DOCTYPE svg PUBLIC "-//W3C//DTD SVG 1.1//EN"
 "http://www.w3.org/Graphics/SVG/1.1/DTD/svg11.dtd">
<!-- Generated by graphviz version 9.0.0 (20230911.1827)
 -->
<!-- Title: DirectXManager::handleSetFocus Pages: 1 -->
<svg width="983pt" height="47pt"
 viewBox="0.00 0.00 982.75 47.00" xmlns="http://www.w3.org/2000/svg" xmlns:xlink="http://www.w3.org/1999/xlink">
<g id="graph0" class="graph" transform="scale(1 1) rotate(0) translate(4 43)">
<title>DirectXManager::handleSetFocus</title>
<!-- Node1 -->
<g id="Node000001" class="node">
<title>Node1</title>
<g id="a_Node000001"><a xlink:title=" ">
<polygon fill="#999999" stroke="#666666" points="160.75,-39 0,-39 0,-19 160.75,-19 160.75,-39"/>
<text text-anchor="middle" x="80.38" y="-25.5" font-family="Helvetica,sans-Serif" font-size="10.00">DirectXManager::handleSetFocus</text>
</a>
</g>
</g>
<!-- Node2 -->
<g id="Node000002" class="node">
<title>Node2</title>
<g id="a_Node000002"><a xlink:href="class_shader_manager.html#a6eefb74e7cf9795b75f018a6e64ba931" target="_top" xlink:title=" ">
<polygon fill="white" stroke="#666666" points="395.75,-39 196.75,-39 196.75,-19 395.75,-19 395.75,-39"/>
<text text-anchor="middle" x="296.25" y="-25.5" font-family="Helvetica,sans-Serif" font-size="10.00">ShaderManager::CheckForShaderUpdates</text>
</a>
</g>
</g>
<!-- Node1&#45;&gt;Node2 -->
<g id="edge1_Node000001_Node000002" class="edge">
<title>Node1&#45;&gt;Node2</title>
<g id="a_edge1_Node000001_Node000002"><a xlink:title=" ">
<path fill="none" stroke="#63b8ff" d="M161.01,-29C168.84,-29 176.88,-29 184.95,-29"/>
<polygon fill="#63b8ff" stroke="#63b8ff" points="184.84,-32.5 194.84,-29 184.84,-25.5 184.84,-32.5"/>
</a>
</g>
</g>
<!-- Node3 -->
<g id="Node000003" class="node">
<title>Node3</title>
<g id="a_Node000003"><a xlink:href="class_shader_manager.html#ac6e7ac40f579b9ff0d44c91379e5e631" target="_top" xlink:title=" ">
<polygon fill="white" stroke="#666666" points="582.75,-39 431.75,-39 431.75,-19 582.75,-19 582.75,-39"/>
<text text-anchor="middle" x="507.25" y="-25.5" font-family="Helvetica,sans-Serif" font-size="10.00">ShaderManager::ReloadShader</text>
</a>
</g>
</g>
<!-- Node2&#45;&gt;Node3 -->
<g id="edge2_Node000002_Node000003" class="edge">
<title>Node2&#45;&gt;Node3</title>
<g id="a_edge2_Node000002_Node000003"><a xlink:title=" ">
<path fill="none" stroke="#63b8ff" d="M396.24,-29C404.18,-29 412.16,-29 420,-29"/>
<polygon fill="#63b8ff" stroke="#63b8ff" points="419.85,-32.5 429.85,-29 419.85,-25.5 419.85,-32.5"/>
</a>
</g>
</g>
<!-- Node4 -->
<g id="Node000004" class="node">
<title>Node4</title>
<g id="a_Node000004"><a xlink:href="class_shader_manager.html#a9e20b23487904239ee0fce4998585a11" target="_top" xlink:title=" ">
<polygon fill="white" stroke="#666666" points="974.75,-39 796.75,-39 796.75,-19 974.75,-19 974.75,-39"/>
<text text-anchor="middle" x="885.75" y="-25.5" font-family="Helvetica,sans-Serif" font-size="10.00">ShaderManager::GenerateShaderKey</text>
</a>
</g>
</g>
<!-- Node3&#45;&gt;Node4 -->
<g id="edge3_Node000003_Node000004" class="edge">
<title>Node3&#45;&gt;Node4</title>
<g id="a_edge3_Node000003_Node000004"><a xlink:title=" ">
<path fill="none" stroke="#63b8ff" d="M583.08,-29C641.04,-29 721.87,-29 785.28,-29"/>
<polygon fill="#63b8ff" stroke="#63b8ff" points="784.99,-32.5 794.99,-29 784.99,-25.5 784.99,-32.5"/>
</a>
</g>
</g>
<!-- Node5 -->
<g id="Node000005" class="node">
<title>Node5</title>
<g id="a_Node000005"><a xlink:href="class_shader_manager.html#a6d8ac1d497a7ae3d1da64456d24b94a3" target="_top" xlink:title=" ">
<polygon fill="white" stroke="#666666" points="760.75,-20 618.75,-20 618.75,0 760.75,0 760.75,-20"/>
<text text-anchor="middle" x="689.75" y="-6.5" font-family="Helvetica,sans-Serif" font-size="10.00">ShaderManager::LoadShader</text>
</a>
</g>
</g>
<!-- Node3&#45;&gt;Node5 -->
<g id="edge4_Node000003_Node000005" class="edge">
<title>Node3&#45;&gt;Node5</title>
<g id="a_edge4_Node000003_Node000005"><a xlink:title=" ">
<path fill="none" stroke="#63b8ff" d="M583.23,-21.11C591.13,-20.28 599.19,-19.43 607.16,-18.59"/>
<polygon fill="#63b8ff" stroke="#63b8ff" points="607.26,-22.1 616.84,-17.57 606.53,-15.14 607.26,-22.1"/>
</a>
</g>
</g>
<!-- Node5&#45;&gt;Node4 -->
<g id="edge5_Node000005_Node000004" class="edge">
<title>Node5&#45;&gt;Node4</title>
<g id="a_edge5_Node000005_Node000004"><a xlink:title=" ">
<path fill="none" stroke="#63b8ff" d="M761.06,-16.89C768.88,-17.65 776.94,-18.44 785.03,-19.23"/>
<polygon fill="#63b8ff" stroke="#63b8ff" points="784.65,-22.71 794.95,-20.2 785.34,-15.75 784.65,-22.71"/>
</a>
</g>
</g>
</g>
</svg>
