<?xml version="1.0" encoding="UTF-8" standalone="no"?>
<!DOCTYPE svg PUBLIC "-//W3C//DTD SVG 1.1//EN"
 "http://www.w3.org/Graphics/SVG/1.1/DTD/svg11.dtd">
<!-- Generated by graphviz version 9.0.0 (20230911.1827)
 -->
<!-- Title: ShaderManager::CheckForShaderUpdates Pages: 1 -->
<svg width="786pt" height="47pt"
 viewBox="0.00 0.00 786.00 47.00" xmlns="http://www.w3.org/2000/svg" xmlns:xlink="http://www.w3.org/1999/xlink">
<g id="graph0" class="graph" transform="scale(1 1) rotate(0) translate(4 43)">
<title>ShaderManager::CheckForShaderUpdates</title>
<!-- Node1 -->
<g id="Node000001" class="node">
<title>Node1</title>
<g id="a_Node000001"><a xlink:title=" ">
<polygon fill="#999999" stroke="#666666" points="199,-39 0,-39 0,-19 199,-19 199,-39"/>
<text text-anchor="middle" x="99.5" y="-25.5" font-family="Helvetica,sans-Serif" font-size="10.00">ShaderManager::CheckForShaderUpdates</text>
</a>
</g>
</g>
<!-- Node2 -->
<g id="Node000002" class="node">
<title>Node2</title>
<g id="a_Node000002"><a xlink:href="class_shader_manager.html#ac6e7ac40f579b9ff0d44c91379e5e631" target="_top" xlink:title=" ">
<polygon fill="white" stroke="#666666" points="386,-39 235,-39 235,-19 386,-19 386,-39"/>
<text text-anchor="middle" x="310.5" y="-25.5" font-family="Helvetica,sans-Serif" font-size="10.00">ShaderManager::ReloadShader</text>
</a>
</g>
</g>
<!-- Node1&#45;&gt;Node2 -->
<g id="edge1_Node000001_Node000002" class="edge">
<title>Node1&#45;&gt;Node2</title>
<g id="a_edge1_Node000001_Node000002"><a xlink:title=" ">
<path fill="none" stroke="#63b8ff" d="M199.49,-29C207.43,-29 215.41,-29 223.25,-29"/>
<polygon fill="#63b8ff" stroke="#63b8ff" points="223.1,-32.5 233.1,-29 223.1,-25.5 223.1,-32.5"/>
</a>
</g>
</g>
<!-- Node3 -->
<g id="Node000003" class="node">
<title>Node3</title>
<g id="a_Node000003"><a xlink:href="class_shader_manager.html#a9e20b23487904239ee0fce4998585a11" target="_top" xlink:title=" ">
<polygon fill="white" stroke="#666666" points="778,-39 600,-39 600,-19 778,-19 778,-39"/>
<text text-anchor="middle" x="689" y="-25.5" font-family="Helvetica,sans-Serif" font-size="10.00">ShaderManager::GenerateShaderKey</text>
</a>
</g>
</g>
<!-- Node2&#45;&gt;Node3 -->
<g id="edge2_Node000002_Node000003" class="edge">
<title>Node2&#45;&gt;Node3</title>
<g id="a_edge2_Node000002_Node000003"><a xlink:title=" ">
<path fill="none" stroke="#63b8ff" d="M386.33,-29C444.29,-29 525.12,-29 588.53,-29"/>
<polygon fill="#63b8ff" stroke="#63b8ff" points="588.24,-32.5 598.24,-29 588.24,-25.5 588.24,-32.5"/>
</a>
</g>
</g>
<!-- Node4 -->
<g id="Node000004" class="node">
<title>Node4</title>
<g id="a_Node000004"><a xlink:href="class_shader_manager.html#a6d8ac1d497a7ae3d1da64456d24b94a3" target="_top" xlink:title=" ">
<polygon fill="white" stroke="#666666" points="564,-20 422,-20 422,0 564,0 564,-20"/>
<text text-anchor="middle" x="493" y="-6.5" font-family="Helvetica,sans-Serif" font-size="10.00">ShaderManager::LoadShader</text>
</a>
</g>
</g>
<!-- Node2&#45;&gt;Node4 -->
<g id="edge3_Node000002_Node000004" class="edge">
<title>Node2&#45;&gt;Node4</title>
<g id="a_edge3_Node000002_Node000004"><a xlink:title=" ">
<path fill="none" stroke="#63b8ff" d="M386.48,-21.11C394.38,-20.28 402.44,-19.43 410.41,-18.59"/>
<polygon fill="#63b8ff" stroke="#63b8ff" points="410.51,-22.1 420.09,-17.57 409.78,-15.14 410.51,-22.1"/>
</a>
</g>
</g>
<!-- Node4&#45;&gt;Node3 -->
<g id="edge4_Node000004_Node000003" class="edge">
<title>Node4&#45;&gt;Node3</title>
<g id="a_edge4_Node000004_Node000003"><a xlink:title=" ">
<path fill="none" stroke="#63b8ff" d="M564.31,-16.89C572.13,-17.65 580.19,-18.44 588.28,-19.23"/>
<polygon fill="#63b8ff" stroke="#63b8ff" points="587.9,-22.71 598.2,-20.2 588.59,-15.75 587.9,-22.71"/>
</a>
</g>
</g>
</g>
</svg>
