<?xml version="1.0" encoding="UTF-8" standalone="no"?>
<!DOCTYPE svg PUBLIC "-//W3C//DTD SVG 1.1//EN"
 "http://www.w3.org/Graphics/SVG/1.1/DTD/svg11.dtd">
<!-- Generated by graphviz version 9.0.0 (20230911.1827)
 -->
<!-- Title: ShaderManager Pages: 1 -->
<svg width="548pt" height="1104pt"
 viewBox="0.00 0.00 547.75 1104.00" xmlns="http://www.w3.org/2000/svg" xmlns:xlink="http://www.w3.org/1999/xlink">
<g id="graph0" class="graph" transform="scale(1 1) rotate(0) translate(4 1100)">
<title>ShaderManager</title>
<!-- Node1 -->
<g id="Node000001" class="node">
<title>Node1</title>
<g id="a_Node000001"><a xlink:title=" ">
<polygon fill="#999999" stroke="none" points="454,-168 137,-168 137,0 454,0 454,-168"/>
<text text-anchor="start" x="261.38" y="-154.5" font-family="Helvetica,sans-Serif" font-size="10.00">ShaderManager</text>
<text text-anchor="start" x="294" y="-138.5" font-family="Helvetica,sans-Serif" font-size="10.00"> </text>
<text text-anchor="start" x="141" y="-122.5" font-family="Helvetica,sans-Serif" font-size="10.00">+</text>
<text text-anchor="start" x="151" y="-122.5" font-family="Helvetica,sans-Serif" font-size="10.00">ShaderManager(GraphicsDevice *device, const std::string &amp;directory)</text>
<text text-anchor="start" x="141" y="-106.5" font-family="Helvetica,sans-Serif" font-size="10.00">+</text>
<text text-anchor="start" x="151" y="-106.5" font-family="Helvetica,sans-Serif" font-size="10.00">~ShaderManager()</text>
<text text-anchor="start" x="141" y="-90.5" font-family="Helvetica,sans-Serif" font-size="10.00">+</text>
<text text-anchor="start" x="151" y="-90.5" font-family="Helvetica,sans-Serif" font-size="10.00">std::shared_ptr&lt; ShaderProgram &gt; LoadShader(const std</text>
<text text-anchor="start" x="151" y="-78.5" font-family="Helvetica,sans-Serif" font-size="10.00">::string &amp;vsName, const std::string &amp;psName)</text>
<text text-anchor="start" x="141" y="-62.5" font-family="Helvetica,sans-Serif" font-size="10.00">+</text>
<text text-anchor="start" x="151" y="-62.5" font-family="Helvetica,sans-Serif" font-size="10.00">void ReloadShader(const std::string &amp;vsName, const std</text>
<text text-anchor="start" x="151" y="-50.5" font-family="Helvetica,sans-Serif" font-size="10.00">::string &amp;psName)</text>
<text text-anchor="start" x="141" y="-34.5" font-family="Helvetica,sans-Serif" font-size="10.00">+</text>
<text text-anchor="start" x="151" y="-34.5" font-family="Helvetica,sans-Serif" font-size="10.00">void CheckForShaderUpdates()</text>
<text text-anchor="start" x="142.5" y="-18.5" font-family="Helvetica,sans-Serif" font-size="10.00">&#45;</text>
<text text-anchor="start" x="151" y="-18.5" font-family="Helvetica,sans-Serif" font-size="10.00">std::string GenerateShaderKey(const std::string &amp;vsName,</text>
<text text-anchor="start" x="151" y="-6.5" font-family="Helvetica,sans-Serif" font-size="10.00"> const std::string &amp;psName)</text>
<polygon fill="#666666" stroke="#666666" points="137,-150 137,-150 454,-150 454,-150 137,-150"/>
<polygon fill="#666666" stroke="#666666" points="137,-134 137,-134 454,-134 454,-134 137,-134"/>
<polygon fill="none" stroke="#666666" points="137,0 137,-168 454,-168 454,0 137,0"/>
</a>
</g>
</g>
<!-- Node2 -->
<g id="Node000002" class="node">
<title>Node2</title>
<g id="a_Node000002"><a xlink:href="class_graphics_device.html" target="_top" xlink:title=" ">
<polygon fill="white" stroke="none" points="265,-1096 0,-1096 0,-772 265,-772 265,-1096"/>
<text text-anchor="start" x="98.75" y="-1082.5" font-family="Helvetica,sans-Serif" font-size="10.00">GraphicsDevice</text>
<text text-anchor="start" x="5.5" y="-1066.5" font-family="Helvetica,sans-Serif" font-size="10.00">&#45;</text>
<text text-anchor="start" x="14" y="-1066.5" font-family="Helvetica,sans-Serif" font-size="10.00">ID3D11Device * device</text>
<text text-anchor="start" x="5.5" y="-1050.5" font-family="Helvetica,sans-Serif" font-size="10.00">&#45;</text>
<text text-anchor="start" x="14" y="-1050.5" font-family="Helvetica,sans-Serif" font-size="10.00">ID3D11DeviceContext * deviceContext</text>
<text text-anchor="start" x="5.5" y="-1034.5" font-family="Helvetica,sans-Serif" font-size="10.00">&#45;</text>
<text text-anchor="start" x="14" y="-1034.5" font-family="Helvetica,sans-Serif" font-size="10.00">IDXGISwapChain * swapChain</text>
<text text-anchor="start" x="5.5" y="-1018.5" font-family="Helvetica,sans-Serif" font-size="10.00">&#45;</text>
<text text-anchor="start" x="14" y="-1018.5" font-family="Helvetica,sans-Serif" font-size="10.00">ID3D11RenderTargetView * renderTargetView</text>
<text text-anchor="start" x="5.5" y="-1002.5" font-family="Helvetica,sans-Serif" font-size="10.00">&#45;</text>
<text text-anchor="start" x="14" y="-1002.5" font-family="Helvetica,sans-Serif" font-size="10.00">ID3D11DepthStencilView * depthStencilView</text>
<text text-anchor="start" x="5.5" y="-986.5" font-family="Helvetica,sans-Serif" font-size="10.00">&#45;</text>
<text text-anchor="start" x="14" y="-986.5" font-family="Helvetica,sans-Serif" font-size="10.00">ID3D11Texture2D * depthStencilBuffer</text>
<text text-anchor="start" x="5.5" y="-970.5" font-family="Helvetica,sans-Serif" font-size="10.00">&#45;</text>
<text text-anchor="start" x="14" y="-970.5" font-family="Helvetica,sans-Serif" font-size="10.00">int windowWidth</text>
<text text-anchor="start" x="5.5" y="-954.5" font-family="Helvetica,sans-Serif" font-size="10.00">&#45;</text>
<text text-anchor="start" x="14" y="-954.5" font-family="Helvetica,sans-Serif" font-size="10.00">int windowHeight</text>
<text text-anchor="start" x="5.5" y="-938.5" font-family="Helvetica,sans-Serif" font-size="10.00">&#45;</text>
<text text-anchor="start" x="14" y="-938.5" font-family="Helvetica,sans-Serif" font-size="10.00">HWND hWnd</text>
<text text-anchor="start" x="4" y="-922.5" font-family="Helvetica,sans-Serif" font-size="10.00">+</text>
<text text-anchor="start" x="14" y="-922.5" font-family="Helvetica,sans-Serif" font-size="10.00">void Initialize(HWND hWnd, int width, int height)</text>
<text text-anchor="start" x="4" y="-906.5" font-family="Helvetica,sans-Serif" font-size="10.00">+</text>
<text text-anchor="start" x="14" y="-906.5" font-family="Helvetica,sans-Serif" font-size="10.00">void ResizeBuffersAndViews(int width, int height)</text>
<text text-anchor="start" x="4" y="-890.5" font-family="Helvetica,sans-Serif" font-size="10.00">+</text>
<text text-anchor="start" x="14" y="-890.5" font-family="Helvetica,sans-Serif" font-size="10.00">ID3D11Device * GetDevice() const</text>
<text text-anchor="start" x="4" y="-874.5" font-family="Helvetica,sans-Serif" font-size="10.00">+</text>
<text text-anchor="start" x="14" y="-874.5" font-family="Helvetica,sans-Serif" font-size="10.00">ID3D11DeviceContext * GetDeviceContext() const</text>
<text text-anchor="start" x="4" y="-858.5" font-family="Helvetica,sans-Serif" font-size="10.00">+</text>
<text text-anchor="start" x="14" y="-858.5" font-family="Helvetica,sans-Serif" font-size="10.00">IDXGISwapChain * GetSwapChain() const</text>
<text text-anchor="start" x="4" y="-842.5" font-family="Helvetica,sans-Serif" font-size="10.00">+</text>
<text text-anchor="start" x="14" y="-842.5" font-family="Helvetica,sans-Serif" font-size="10.00">ID3D11RenderTargetView * GetRenderTargetView() const</text>
<text text-anchor="start" x="4" y="-826.5" font-family="Helvetica,sans-Serif" font-size="10.00">+</text>
<text text-anchor="start" x="14" y="-826.5" font-family="Helvetica,sans-Serif" font-size="10.00">ID3D11DepthStencilView * GetDepthStencilView() const</text>
<text text-anchor="start" x="4" y="-810.5" font-family="Helvetica,sans-Serif" font-size="10.00">+</text>
<text text-anchor="start" x="14" y="-810.5" font-family="Helvetica,sans-Serif" font-size="10.00">int GetWindowWidth()</text>
<text text-anchor="start" x="4" y="-794.5" font-family="Helvetica,sans-Serif" font-size="10.00">+</text>
<text text-anchor="start" x="14" y="-794.5" font-family="Helvetica,sans-Serif" font-size="10.00">int GetWindowHeight()</text>
<text text-anchor="start" x="4" y="-778.5" font-family="Helvetica,sans-Serif" font-size="10.00">+</text>
<text text-anchor="start" x="14" y="-778.5" font-family="Helvetica,sans-Serif" font-size="10.00">HWND GetHWND()</text>
<polygon fill="#666666" stroke="#666666" points="0,-1078 0,-1078 265,-1078 265,-1078 0,-1078"/>
<polygon fill="#666666" stroke="#666666" points="0,-934 0,-934 12,-934 12,-934 0,-934"/>
<polygon fill="#666666" stroke="#666666" points="12,-934 12,-934 265,-934 265,-934 12,-934"/>
<polygon fill="none" stroke="#666666" points="0,-772 0,-1096 265,-1096 265,-772 0,-772"/>
</a>
</g>
</g>
<!-- Node2&#45;&gt;Node1 -->
<g id="edge1_Node000001_Node000002" class="edge">
<title>Node2&#45;&gt;Node1</title>
<g id="a_edge1_Node000001_Node000002"><a xlink:title=" ">
<path fill="none" stroke="#63b8ff" d="M121.11,-772.35C118.51,-723.75 116.5,-670.22 116.5,-621 116.5,-621 116.5,-621 116.5,-241 116.5,-217 125.76,-195.85 140.06,-177.49"/>
<polygon fill="none" stroke="#63b8ff" points="140.14,-177.4 140.98,-170.24 147.92,-168.27 147.07,-175.43 140.14,-177.4"/>
</a>
</g>
<text text-anchor="middle" x="133" y="-388.5" font-family="Helvetica,sans-Serif" font-size="10.00" fill="grey"> &#45;device</text>
</g>
<!-- Node8 -->
<g id="Node000008" class="node">
<title>Node8</title>
<g id="a_Node000008"><a xlink:href="class_shader_program.html" target="_top" xlink:title=" ">
<polygon fill="white" stroke="none" points="476,-724 145,-724 145,-516 476,-516 476,-724"/>
<text text-anchor="start" x="276.75" y="-710.5" font-family="Helvetica,sans-Serif" font-size="10.00">ShaderProgram</text>
<text text-anchor="start" x="150.5" y="-694.5" font-family="Helvetica,sans-Serif" font-size="10.00">&#45;</text>
<text text-anchor="start" x="159" y="-694.5" font-family="Helvetica,sans-Serif" font-size="10.00">ID3D11VertexShader * vertexShader</text>
<text text-anchor="start" x="150.5" y="-678.5" font-family="Helvetica,sans-Serif" font-size="10.00">&#45;</text>
<text text-anchor="start" x="159" y="-678.5" font-family="Helvetica,sans-Serif" font-size="10.00">ID3D11PixelShader * pixelShader</text>
<text text-anchor="start" x="150.5" y="-662.5" font-family="Helvetica,sans-Serif" font-size="10.00">&#45;</text>
<text text-anchor="start" x="159" y="-662.5" font-family="Helvetica,sans-Serif" font-size="10.00">ID3D11InputLayout * inputLayout</text>
<text text-anchor="start" x="150.5" y="-646.5" font-family="Helvetica,sans-Serif" font-size="10.00">&#45;</text>
<text text-anchor="start" x="159" y="-646.5" font-family="Helvetica,sans-Serif" font-size="10.00">ID3D11Buffer * constantBuffer</text>
<text text-anchor="start" x="149" y="-630.5" font-family="Helvetica,sans-Serif" font-size="10.00">+</text>
<text text-anchor="start" x="159" y="-630.5" font-family="Helvetica,sans-Serif" font-size="10.00">ShaderProgram(GraphicsDevice *graphicsDevice)</text>
<text text-anchor="start" x="149" y="-614.5" font-family="Helvetica,sans-Serif" font-size="10.00">+</text>
<text text-anchor="start" x="159" y="-614.5" font-family="Helvetica,sans-Serif" font-size="10.00">void LoadShader(LPCSTR VSFilename, LPCSTR PSFilename)</text>
<text text-anchor="start" x="149" y="-598.5" font-family="Helvetica,sans-Serif" font-size="10.00">+</text>
<text text-anchor="start" x="159" y="-598.5" font-family="Helvetica,sans-Serif" font-size="10.00">void ClearResources()</text>
<text text-anchor="start" x="149" y="-582.5" font-family="Helvetica,sans-Serif" font-size="10.00">+</text>
<text text-anchor="start" x="159" y="-582.5" font-family="Helvetica,sans-Serif" font-size="10.00">void UpdateBuffers(ConstantBuffer cb)</text>
<text text-anchor="start" x="149" y="-566.5" font-family="Helvetica,sans-Serif" font-size="10.00">+</text>
<text text-anchor="start" x="159" y="-566.5" font-family="Helvetica,sans-Serif" font-size="10.00">void Bind()</text>
<text text-anchor="start" x="150.5" y="-550.5" font-family="Helvetica,sans-Serif" font-size="10.00">&#45;</text>
<text text-anchor="start" x="159" y="-550.5" font-family="Helvetica,sans-Serif" font-size="10.00">bool CompileHLSL(const std::string &amp;filename, ShaderType shaderType)</text>
<text text-anchor="start" x="150.5" y="-534.5" font-family="Helvetica,sans-Serif" font-size="10.00">&#45;</text>
<text text-anchor="start" x="159" y="-534.5" font-family="Helvetica,sans-Serif" font-size="10.00">std::vector&lt; byte &gt; LoadShaderFile(const std::string</text>
<text text-anchor="start" x="159" y="-522.5" font-family="Helvetica,sans-Serif" font-size="10.00"> &amp;filename, ShaderType shaderType)</text>
<polygon fill="#666666" stroke="#666666" points="145,-706 145,-706 476,-706 476,-706 145,-706"/>
<polygon fill="#666666" stroke="#666666" points="145,-642 145,-642 157,-642 157,-642 145,-642"/>
<polygon fill="#666666" stroke="#666666" points="157,-642 157,-642 476,-642 476,-642 157,-642"/>
<polygon fill="none" stroke="#666666" points="145,-516 145,-724 476,-724 476,-516 145,-516"/>
</a>
</g>
</g>
<!-- Node2&#45;&gt;Node8 -->
<g id="edge9_Node000008_Node000002" class="edge">
<title>Node2&#45;&gt;Node8</title>
<g id="a_edge9_Node000008_Node000002"><a xlink:title=" ">
<path fill="none" stroke="#63b8ff" d="M224.11,-772.43C231.35,-759.74 238.56,-747.09 245.56,-734.82"/>
<polygon fill="none" stroke="#63b8ff" points="245.53,-734.87 245.03,-727.68 251.48,-724.45 251.98,-731.64 245.53,-734.87"/>
</a>
</g>
<text text-anchor="middle" x="273.12" y="-744.5" font-family="Helvetica,sans-Serif" font-size="10.00" fill="grey"> &#45;graphicsDevice</text>
</g>
<!-- Node3 -->
<g id="Node000003" class="node">
<title>Node3</title>
<g id="a_Node000003"><a xlink:title=" ">
<polygon fill="white" stroke="none" points="499,-368 446,-368 446,-316 499,-316 499,-368"/>
<text text-anchor="start" x="450.75" y="-354.5" font-family="Helvetica,sans-Serif" font-size="10.00">std::string</text>
<text text-anchor="start" x="471" y="-338.5" font-family="Helvetica,sans-Serif" font-size="10.00"> </text>
<text text-anchor="start" x="471" y="-322.5" font-family="Helvetica,sans-Serif" font-size="10.00"> </text>
<polygon fill="#666666" stroke="#666666" points="446,-350 446,-350 499,-350 499,-350 446,-350"/>
<polygon fill="#666666" stroke="#666666" points="446,-334 446,-334 499,-334 499,-334 446,-334"/>
<polygon fill="none" stroke="#666666" points="446,-316 446,-368 499,-368 499,-316 446,-316"/>
</a>
</g>
</g>
<!-- Node3&#45;&gt;Node1 -->
<g id="edge2_Node000001_Node000003" class="edge">
<title>Node3&#45;&gt;Node1</title>
<g id="a_edge2_Node000001_Node000003"><a xlink:title=" ">
<path fill="none" stroke="#63b8ff" d="M471.71,-316.32C469.87,-289.84 464,-247.36 445.5,-216 437.46,-202.37 427.5,-189.43 416.57,-177.36"/>
<polygon fill="none" stroke="#63b8ff" points="416.47,-177.25 409.44,-175.64 408.23,-168.53 415.26,-170.14 416.47,-177.25"/>
</a>
</g>
<text text-anchor="middle" x="502.62" y="-238.5" font-family="Helvetica,sans-Serif" font-size="10.00" fill="grey"> &#45;shaderDirectory</text>
</g>
<!-- Node5 -->
<g id="Node000005" class="node">
<title>Node5</title>
<g id="a_Node000005"><a xlink:title=" ">
<polygon fill="white" stroke="none" points="437,-268 154,-268 154,-216 437,-216 437,-268"/>
<text text-anchor="start" x="158.62" y="-254.5" font-family="Helvetica,sans-Serif" font-size="10.00">std::unordered_map&lt; std::string, ShaderManager::ShaderInfo &gt;</text>
<text text-anchor="start" x="294" y="-238.5" font-family="Helvetica,sans-Serif" font-size="10.00"> </text>
<text text-anchor="start" x="294" y="-222.5" font-family="Helvetica,sans-Serif" font-size="10.00"> </text>
<polygon fill="#666666" stroke="#666666" points="154,-250 154,-250 437,-250 437,-250 154,-250"/>
<polygon fill="#666666" stroke="#666666" points="154,-234 154,-234 437,-234 437,-234 154,-234"/>
<polygon fill="none" stroke="#666666" points="154,-216 154,-268 437,-268 437,-216 154,-216"/>
</a>
</g>
</g>
<!-- Node3&#45;&gt;Node5 -->
<g id="edge5_Node000005_Node000003" class="edge">
<title>Node3&#45;&gt;Node5</title>
<g id="a_edge5_Node000005_Node000003"><a xlink:title=" ">
<path fill="none" stroke="#63b8ff" d="M446,-326.33C421.18,-312.58 383.28,-291.6 351.72,-274.13"/>
<polygon fill="none" stroke="#63b8ff" points="351.71,-274.12 344.52,-274.71 341.21,-268.31 348.39,-267.71 351.71,-274.12"/>
</a>
</g>
<text text-anchor="middle" x="410.5" y="-288.5" font-family="Helvetica,sans-Serif" font-size="10.00" fill="grey"> +keys</text>
</g>
<!-- Node4 -->
<g id="Node000004" class="node">
<title>Node4</title>
<g id="a_Node000004"><a xlink:title=" ">
<polygon fill="white" stroke="none" points="532.5,-468 412.5,-468 412.5,-416 532.5,-416 532.5,-468"/>
<text text-anchor="start" x="417.38" y="-454.5" font-family="Helvetica,sans-Serif" font-size="10.00">std::basic_string&lt; Char &gt;</text>
<text text-anchor="start" x="471" y="-438.5" font-family="Helvetica,sans-Serif" font-size="10.00"> </text>
<text text-anchor="start" x="471" y="-422.5" font-family="Helvetica,sans-Serif" font-size="10.00"> </text>
<polygon fill="#666666" stroke="#666666" points="412.5,-450 412.5,-450 532.5,-450 532.5,-450 412.5,-450"/>
<polygon fill="#666666" stroke="#666666" points="412.5,-434 412.5,-434 532.5,-434 532.5,-434 412.5,-434"/>
<polygon fill="none" stroke="#666666" points="412.5,-416 412.5,-468 532.5,-468 532.5,-416 412.5,-416"/>
</a>
</g>
</g>
<!-- Node4&#45;&gt;Node3 -->
<g id="edge3_Node000003_Node000004" class="edge">
<title>Node4&#45;&gt;Node3</title>
<g id="a_edge3_Node000003_Node000004"><a xlink:title=" ">
<path fill="none" stroke="#63b8ff" d="M472.5,-404.74C472.5,-392.49 472.5,-379.1 472.5,-367.94"/>
<polygon fill="none" stroke="#63b8ff" points="469,-404.5 472.5,-414.5 476,-404.5 469,-404.5"/>
</a>
</g>
</g>
<!-- Node5&#45;&gt;Node1 -->
<g id="edge4_Node000001_Node000005" class="edge">
<title>Node5&#45;&gt;Node1</title>
<g id="a_edge4_Node000001_Node000005"><a xlink:title=" ">
<path fill="none" stroke="#63b8ff" d="M295.5,-216.28C295.5,-206.12 295.5,-193.66 295.5,-180.49"/>
<polygon fill="none" stroke="#63b8ff" points="295.5,-180.61 291.5,-174.61 295.5,-168.61 299.5,-174.61 295.5,-180.61"/>
</a>
</g>
<text text-anchor="middle" x="315.75" y="-188.5" font-family="Helvetica,sans-Serif" font-size="10.00" fill="grey"> &#45;shaders</text>
</g>
<!-- Node6 -->
<g id="Node000006" class="node">
<title>Node6</title>
<g id="a_Node000006"><a xlink:href="class_shader_manager.html#struct_shader_manager_1_1_shader_info" target="_top" xlink:title=" ">
<polygon fill="white" stroke="none" points="402.5,-368 192.5,-368 192.5,-316 402.5,-316 402.5,-368"/>
<text text-anchor="start" x="237.5" y="-354.5" font-family="Helvetica,sans-Serif" font-size="10.00">ShaderManager::ShaderInfo</text>
<text text-anchor="start" x="196.5" y="-338.5" font-family="Helvetica,sans-Serif" font-size="10.00">+</text>
<text text-anchor="start" x="206.5" y="-338.5" font-family="Helvetica,sans-Serif" font-size="10.00">std::filesystem::file_time_type lastWriteTime</text>
<text text-anchor="start" x="296" y="-322.5" font-family="Helvetica,sans-Serif" font-size="10.00"> </text>
<polygon fill="#666666" stroke="#666666" points="192.5,-350 192.5,-350 402.5,-350 402.5,-350 192.5,-350"/>
<polygon fill="#666666" stroke="#666666" points="192.5,-334 192.5,-334 204.5,-334 204.5,-334 192.5,-334"/>
<polygon fill="#666666" stroke="#666666" points="204.5,-334 204.5,-334 402.5,-334 402.5,-334 204.5,-334"/>
<polygon fill="none" stroke="#666666" points="192.5,-316 192.5,-368 402.5,-368 402.5,-316 192.5,-316"/>
</a>
</g>
</g>
<!-- Node6&#45;&gt;Node5 -->
<g id="edge6_Node000005_Node000006" class="edge">
<title>Node6&#45;&gt;Node5</title>
<g id="a_edge6_Node000005_Node000006"><a xlink:title=" ">
<path fill="none" stroke="#63b8ff" d="M296.99,-316.02C296.77,-305.3 296.51,-292.56 296.27,-280.73"/>
<polygon fill="none" stroke="#63b8ff" points="296.27,-280.84 292.15,-274.92 296.03,-268.84 300.15,-274.76 296.27,-280.84"/>
</a>
</g>
<text text-anchor="middle" x="321.88" y="-288.5" font-family="Helvetica,sans-Serif" font-size="10.00" fill="grey"> +elements</text>
</g>
<!-- Node7 -->
<g id="Node000007" class="node">
<title>Node7</title>
<g id="a_Node000007"><a xlink:title=" ">
<polygon fill="white" stroke="none" points="384.5,-468 224.5,-468 224.5,-416 384.5,-416 384.5,-468"/>
<text text-anchor="start" x="229.12" y="-454.5" font-family="Helvetica,sans-Serif" font-size="10.00">std::shared_ptr&lt; ShaderProgram &gt;</text>
<text text-anchor="start" x="303" y="-438.5" font-family="Helvetica,sans-Serif" font-size="10.00"> </text>
<text text-anchor="start" x="232" y="-422.5" font-family="Helvetica,sans-Serif" font-size="10.00">+</text>
<text text-anchor="start" x="245.5" y="-422.5" font-family="Helvetica,sans-Serif" font-size="10.00">ShaderProgram * operator&#45;&gt;()</text>
<polygon fill="#666666" stroke="#666666" points="224.5,-450 224.5,-450 384.5,-450 384.5,-450 224.5,-450"/>
<polygon fill="#666666" stroke="#666666" points="224.5,-434 224.5,-434 384.5,-434 384.5,-434 224.5,-434"/>
<polygon fill="none" stroke="#666666" points="224.5,-416 224.5,-468 384.5,-468 384.5,-416 224.5,-416"/>
</a>
</g>
</g>
<!-- Node7&#45;&gt;Node6 -->
<g id="edge7_Node000006_Node000007" class="edge">
<title>Node7&#45;&gt;Node6</title>
<g id="a_edge7_Node000006_Node000007"><a xlink:title=" ">
<path fill="none" stroke="#63b8ff" d="M302.72,-416.02C301.95,-405.3 301.04,-392.56 300.2,-380.73"/>
<polygon fill="none" stroke="#63b8ff" points="300.2,-380.81 295.78,-375.11 299.35,-368.84 303.76,-374.54 300.2,-380.81"/>
</a>
</g>
<text text-anchor="middle" x="339" y="-388.5" font-family="Helvetica,sans-Serif" font-size="10.00" fill="grey"> +shaderProgram</text>
</g>
<!-- Node8&#45;&gt;Node7 -->
<g id="edge8_Node000007_Node000008" class="edge">
<title>Node8&#45;&gt;Node7</title>
<g id="a_edge8_Node000007_Node000008"><a xlink:title=" ">
<path fill="none" stroke="#63b8ff" d="M306.99,-516.11C306.56,-503.42 306.14,-491.15 305.78,-480.4"/>
<polygon fill="none" stroke="#63b8ff" points="305.78,-480.59 301.58,-474.73 305.37,-468.59 309.57,-474.45 305.78,-480.59"/>
</a>
</g>
<text text-anchor="middle" x="316.62" y="-488.5" font-family="Helvetica,sans-Serif" font-size="10.00" fill="grey"> +ptr</text>
</g>
</g>
</svg>
