<?xml version="1.0" encoding="UTF-8" standalone="no"?>
<!DOCTYPE svg PUBLIC "-//W3C//DTD SVG 1.1//EN"
 "http://www.w3.org/Graphics/SVG/1.1/DTD/svg11.dtd">
<!-- Generated by graphviz version 9.0.0 (20230911.1827)
 -->
<!-- Title: ShaderManager::ReloadShader Pages: 1 -->
<svg width="551pt" height="47pt"
 viewBox="0.00 0.00 551.00 47.00" xmlns="http://www.w3.org/2000/svg" xmlns:xlink="http://www.w3.org/1999/xlink">
<g id="graph0" class="graph" transform="scale(1 1) rotate(0) translate(4 43)">
<title>ShaderManager::ReloadShader</title>
<!-- Node1 -->
<g id="Node000001" class="node">
<title>Node1</title>
<g id="a_Node000001"><a xlink:title=" ">
<polygon fill="#999999" stroke="#666666" points="151,-39 0,-39 0,-19 151,-19 151,-39"/>
<text text-anchor="middle" x="75.5" y="-25.5" font-family="Helvetica,sans-Serif" font-size="10.00">ShaderManager::ReloadShader</text>
</a>
</g>
</g>
<!-- Node2 -->
<g id="Node000002" class="node">
<title>Node2</title>
<g id="a_Node000002"><a xlink:href="class_shader_manager.html#a9e20b23487904239ee0fce4998585a11" target="_top" xlink:title=" ">
<polygon fill="white" stroke="#666666" points="543,-39 365,-39 365,-19 543,-19 543,-39"/>
<text text-anchor="middle" x="454" y="-25.5" font-family="Helvetica,sans-Serif" font-size="10.00">ShaderManager::GenerateShaderKey</text>
</a>
</g>
</g>
<!-- Node1&#45;&gt;Node2 -->
<g id="edge1_Node000001_Node000002" class="edge">
<title>Node1&#45;&gt;Node2</title>
<g id="a_edge1_Node000001_Node000002"><a xlink:title=" ">
<path fill="none" stroke="#63b8ff" d="M151.33,-29C209.29,-29 290.12,-29 353.53,-29"/>
<polygon fill="#63b8ff" stroke="#63b8ff" points="353.24,-32.5 363.24,-29 353.24,-25.5 353.24,-32.5"/>
</a>
</g>
</g>
<!-- Node3 -->
<g id="Node000003" class="node">
<title>Node3</title>
<g id="a_Node000003"><a xlink:href="class_shader_manager.html#a6d8ac1d497a7ae3d1da64456d24b94a3" target="_top" xlink:title=" ">
<polygon fill="white" stroke="#666666" points="329,-20 187,-20 187,0 329,0 329,-20"/>
<text text-anchor="middle" x="258" y="-6.5" font-family="Helvetica,sans-Serif" font-size="10.00">ShaderManager::LoadShader</text>
</a>
</g>
</g>
<!-- Node1&#45;&gt;Node3 -->
<g id="edge2_Node000001_Node000003" class="edge">
<title>Node1&#45;&gt;Node3</title>
<g id="a_edge2_Node000001_Node000003"><a xlink:title=" ">
<path fill="none" stroke="#63b8ff" d="M151.48,-21.11C159.38,-20.28 167.44,-19.43 175.41,-18.59"/>
<polygon fill="#63b8ff" stroke="#63b8ff" points="175.51,-22.1 185.09,-17.57 174.78,-15.14 175.51,-22.1"/>
</a>
</g>
</g>
<!-- Node3&#45;&gt;Node2 -->
<g id="edge3_Node000003_Node000002" class="edge">
<title>Node3&#45;&gt;Node2</title>
<g id="a_edge3_Node000003_Node000002"><a xlink:title=" ">
<path fill="none" stroke="#63b8ff" d="M329.31,-16.89C337.13,-17.65 345.19,-18.44 353.28,-19.23"/>
<polygon fill="#63b8ff" stroke="#63b8ff" points="352.9,-22.71 363.2,-20.2 353.59,-15.75 352.9,-22.71"/>
</a>
</g>
</g>
</g>
</svg>
