<?xml version="1.0" encoding="UTF-8" standalone="no"?>
<!DOCTYPE svg PUBLIC "-//W3C//DTD SVG 1.1//EN"
 "http://www.w3.org/Graphics/SVG/1.1/DTD/svg11.dtd">
<!-- Generated by graphviz version 9.0.0 (20230911.1827)
 -->
<!-- Title: DirectXManager::handleSize Pages: 1 -->
<svg width="648pt" height="66pt"
 viewBox="0.00 0.00 648.00 66.00" xmlns="http://www.w3.org/2000/svg" xmlns:xlink="http://www.w3.org/1999/xlink">
<g id="graph0" class="graph" transform="scale(1 1) rotate(0) translate(4 62)">
<title>DirectXManager::handleSize</title>
<!-- Node1 -->
<g id="Node000001" class="node">
<title>Node1</title>
<g id="a_Node000001"><a xlink:title=" ">
<polygon fill="#999999" stroke="#666666" points="138.25,-39 0,-39 0,-19 138.25,-19 138.25,-39"/>
<text text-anchor="middle" x="69.12" y="-25.5" font-family="Helvetica,sans-Serif" font-size="10.00">DirectXManager::handleSize</text>
</a>
</g>
</g>
<!-- Node2 -->
<g id="Node000002" class="node">
<title>Node2</title>
<g id="a_Node000002"><a xlink:href="class_camera.html#a7f65f916f0f843b82e1f755ba5eb4858" target="_top" xlink:title=" ">
<polygon fill="white" stroke="#666666" points="341,-58 200.5,-58 200.5,-38 341,-38 341,-58"/>
<text text-anchor="middle" x="270.75" y="-44.5" font-family="Helvetica,sans-Serif" font-size="10.00">Camera::changeAspectRatio</text>
</a>
</g>
</g>
<!-- Node1&#45;&gt;Node2 -->
<g id="edge1_Node000001_Node000002" class="edge">
<title>Node1&#45;&gt;Node2</title>
<g id="a_edge1_Node000001_Node000002"><a xlink:title=" ">
<path fill="none" stroke="#63b8ff" d="M138.55,-35.51C154.69,-37.05 172.04,-38.7 188.68,-40.28"/>
<polygon fill="#63b8ff" stroke="#63b8ff" points="188.27,-43.76 198.56,-41.22 188.93,-36.79 188.27,-43.76"/>
</a>
</g>
</g>
<!-- Node5 -->
<g id="Node000005" class="node">
<title>Node5</title>
<g id="a_Node000005"><a xlink:href="class_graphics_device.html#ae5b1ab7f592c08722481bf863204e097" target="_top" xlink:title=" ">
<polygon fill="white" stroke="#666666" points="367.25,-20 174.25,-20 174.25,0 367.25,0 367.25,-20"/>
<text text-anchor="middle" x="270.75" y="-6.5" font-family="Helvetica,sans-Serif" font-size="10.00">GraphicsDevice::ResizeBuffersAndViews</text>
</a>
</g>
</g>
<!-- Node1&#45;&gt;Node5 -->
<g id="edge4_Node000001_Node000005" class="edge">
<title>Node1&#45;&gt;Node5</title>
<g id="a_edge4_Node000001_Node000005"><a xlink:title=" ">
<path fill="none" stroke="#63b8ff" d="M138.55,-22.49C146.38,-21.74 154.51,-20.97 162.7,-20.19"/>
<polygon fill="#63b8ff" stroke="#63b8ff" points="162.75,-23.7 172.38,-19.27 162.09,-16.73 162.75,-23.7"/>
</a>
</g>
</g>
<!-- Node3 -->
<g id="Node000003" class="node">
<title>Node3</title>
<g id="a_Node000003"><a xlink:href="class_camera.html#aa083de8522b4424b0f0943d7e887019e" target="_top" xlink:title=" ">
<polygon fill="white" stroke="#666666" points="504.75,-58 403.25,-58 403.25,-38 504.75,-38 504.75,-58"/>
<text text-anchor="middle" x="454" y="-44.5" font-family="Helvetica,sans-Serif" font-size="10.00">Camera::calculateP</text>
</a>
</g>
</g>
<!-- Node2&#45;&gt;Node3 -->
<g id="edge2_Node000002_Node000003" class="edge">
<title>Node2&#45;&gt;Node3</title>
<g id="a_edge2_Node000002_Node000003"><a xlink:title=" ">
<path fill="none" stroke="#63b8ff" d="M341.31,-48C357.78,-48 375.23,-48 391.32,-48"/>
<polygon fill="#63b8ff" stroke="#63b8ff" points="391.25,-51.5 401.25,-48 391.25,-44.5 391.25,-51.5"/>
</a>
</g>
</g>
<!-- Node4 -->
<g id="Node000004" class="node">
<title>Node4</title>
<g id="a_Node000004"><a xlink:href="class_camera.html#aeffd7e25c1d933ac532ac3679d84ee4b" target="_top" xlink:title=" ">
<polygon fill="white" stroke="#666666" points="640,-58 540.75,-58 540.75,-38 640,-38 640,-58"/>
<text text-anchor="middle" x="590.38" y="-44.5" font-family="Helvetica,sans-Serif" font-size="10.00">Camera::toRadians</text>
</a>
</g>
</g>
<!-- Node3&#45;&gt;Node4 -->
<g id="edge3_Node000003_Node000004" class="edge">
<title>Node3&#45;&gt;Node4</title>
<g id="a_edge3_Node000003_Node000004"><a xlink:title=" ">
<path fill="none" stroke="#63b8ff" d="M505.04,-48C512.95,-48 521.2,-48 529.31,-48"/>
<polygon fill="#63b8ff" stroke="#63b8ff" points="529.12,-51.5 539.12,-48 529.12,-44.5 529.12,-51.5"/>
</a>
</g>
</g>
</g>
</svg>
