<?xml version="1.0" encoding="UTF-8" standalone="no"?>
<!DOCTYPE svg PUBLIC "-//W3C//DTD SVG 1.1//EN"
 "http://www.w3.org/Graphics/SVG/1.1/DTD/svg11.dtd">
<!-- Generated by graphviz version 9.0.0 (20230911.1827)
 -->
<!-- Title: Win32Application::Run Pages: 1 -->
<svg width="1127pt" height="617pt"
 viewBox="0.00 0.00 1127.00 617.00" xmlns="http://www.w3.org/2000/svg" xmlns:xlink="http://www.w3.org/1999/xlink">
<g id="graph0" class="graph" transform="scale(1 1) rotate(0) translate(4 613)">
<title>Win32Application::Run</title>
<!-- Node1 -->
<g id="Node000001" class="node">
<title>Node1</title>
<g id="a_Node000001"><a xlink:title=" ">
<polygon fill="#999999" stroke="#666666" points="115,-362 0,-362 0,-342 115,-342 115,-362"/>
<text text-anchor="middle" x="57.5" y="-348.5" font-family="Helvetica,sans-Serif" font-size="10.00">Win32Application::Run</text>
</a>
</g>
</g>
<!-- Node2 -->
<g id="Node000002" class="node">
<title>Node2</title>
<g id="a_Node000002"><a xlink:href="class_direct_x_manager.html#a2717dd089cad24c77c753ecc6bc139b2" target="_top" xlink:title=" ">
<polygon fill="white" stroke="#666666" points="272,-362 151,-362 151,-342 272,-342 272,-362"/>
<text text-anchor="middle" x="211.5" y="-348.5" font-family="Helvetica,sans-Serif" font-size="10.00">DirectXManager::Update</text>
</a>
</g>
</g>
<!-- Node1&#45;&gt;Node2 -->
<g id="edge1_Node000001_Node000002" class="edge">
<title>Node1&#45;&gt;Node2</title>
<g id="a_edge1_Node000001_Node000002"><a xlink:title=" ">
<path fill="none" stroke="#63b8ff" d="M115.1,-352C122.96,-352 131.12,-352 139.2,-352"/>
<polygon fill="#63b8ff" stroke="#63b8ff" points="139.03,-355.5 149.03,-352 139.03,-348.5 139.03,-355.5"/>
</a>
</g>
</g>
<!-- Node3 -->
<g id="Node000003" class="node">
<title>Node3</title>
<g id="a_Node000003"><a xlink:href="class_shader_manager.html#a6eefb74e7cf9795b75f018a6e64ba931" target="_top" xlink:title=" ">
<polygon fill="white" stroke="#666666" points="507,-542 308,-542 308,-522 507,-522 507,-542"/>
<text text-anchor="middle" x="407.5" y="-528.5" font-family="Helvetica,sans-Serif" font-size="10.00">ShaderManager::CheckForShaderUpdates</text>
</a>
</g>
</g>
<!-- Node2&#45;&gt;Node3 -->
<g id="edge2_Node000002_Node000003" class="edge">
<title>Node2&#45;&gt;Node3</title>
<g id="a_edge2_Node000002_Node000003"><a xlink:title=" ">
<path fill="none" stroke="#63b8ff" d="M219.58,-362.28C234.37,-383.32 270.36,-432.18 308,-466 329.61,-485.42 357.34,-503.49 377.86,-515.79"/>
<polygon fill="#63b8ff" stroke="#63b8ff" points="375.89,-518.69 386.28,-520.75 379.44,-512.66 375.89,-518.69"/>
</a>
</g>
</g>
<!-- Node7 -->
<g id="Node000007" class="node">
<title>Node7</title>
<g id="a_Node000007"><a xlink:href="class_camera.html#a61d575df5de7aca99e4be6304857bd9c" target="_top" xlink:title=" ">
<polygon fill="white" stroke="#666666" points="468,-457 347,-457 347,-437 468,-437 468,-457"/>
<text text-anchor="middle" x="407.5" y="-443.5" font-family="Helvetica,sans-Serif" font-size="10.00">Camera::moveBackward</text>
</a>
</g>
</g>
<!-- Node2&#45;&gt;Node7 -->
<g id="edge7_Node000002_Node000007" class="edge">
<title>Node2&#45;&gt;Node7</title>
<g id="a_edge7_Node000002_Node000007"><a xlink:title=" ">
<path fill="none" stroke="#63b8ff" d="M221.99,-362.24C238.01,-378.87 272.2,-411.52 308,-428 316.64,-431.98 326.08,-435.12 335.58,-437.61"/>
<polygon fill="#63b8ff" stroke="#63b8ff" points="334.71,-441 345.25,-439.89 336.32,-434.19 334.71,-441"/>
</a>
</g>
</g>
<!-- Node8 -->
<g id="Node000008" class="node">
<title>Node8</title>
<g id="a_Node000008"><a xlink:href="class_camera.html#a230eecb31997d07c75e737ecf5e7edcf" target="_top" xlink:title=" ">
<polygon fill="white" stroke="#666666" points="463.88,-419 351.12,-419 351.12,-399 463.88,-399 463.88,-419"/>
<text text-anchor="middle" x="407.5" y="-405.5" font-family="Helvetica,sans-Serif" font-size="10.00">Camera::moveForward</text>
</a>
</g>
</g>
<!-- Node2&#45;&gt;Node8 -->
<g id="edge8_Node000002_Node000008" class="edge">
<title>Node2&#45;&gt;Node8</title>
<g id="a_edge8_Node000002_Node000008"><a xlink:title=" ">
<path fill="none" stroke="#63b8ff" d="M235.23,-362.45C254.32,-370.89 282.48,-382.53 308,-390 318.17,-392.98 329.08,-395.61 339.79,-397.9"/>
<polygon fill="#63b8ff" stroke="#63b8ff" points="338.86,-401.28 349.36,-399.85 340.26,-394.42 338.86,-401.28"/>
</a>
</g>
</g>
<!-- Node9 -->
<g id="Node000009" class="node">
<title>Node9</title>
<g id="a_Node000009"><a xlink:href="class_camera.html#acbf35947eb5d887a76538e9525cf34a0" target="_top" xlink:title=" ">
<polygon fill="white" stroke="#666666" points="454.5,-381 360.5,-381 360.5,-361 454.5,-361 454.5,-381"/>
<text text-anchor="middle" x="407.5" y="-367.5" font-family="Helvetica,sans-Serif" font-size="10.00">Camera::moveLeft</text>
</a>
</g>
</g>
<!-- Node2&#45;&gt;Node9 -->
<g id="edge9_Node000002_Node000009" class="edge">
<title>Node2&#45;&gt;Node9</title>
<g id="a_edge9_Node000002_Node000009"><a xlink:title=" ">
<path fill="none" stroke="#63b8ff" d="M272.29,-357.86C296.7,-360.25 324.82,-363 348.99,-365.37"/>
<polygon fill="#63b8ff" stroke="#63b8ff" points="348.35,-368.82 358.64,-366.31 349.03,-361.85 348.35,-368.82"/>
</a>
</g>
</g>
<!-- Node10 -->
<g id="Node000010" class="node">
<title>Node10</title>
<g id="a_Node000010"><a xlink:href="class_camera.html#acf2f00de2e99af1fcd9b5e770fce7ae3" target="_top" xlink:title=" ">
<polygon fill="white" stroke="#666666" points="457.88,-343 357.12,-343 357.12,-323 457.88,-323 457.88,-343"/>
<text text-anchor="middle" x="407.5" y="-329.5" font-family="Helvetica,sans-Serif" font-size="10.00">Camera::moveRight</text>
</a>
</g>
</g>
<!-- Node2&#45;&gt;Node10 -->
<g id="edge10_Node000002_Node000010" class="edge">
<title>Node2&#45;&gt;Node10</title>
<g id="a_edge10_Node000002_Node000010"><a xlink:title=" ">
<path fill="none" stroke="#63b8ff" d="M272.29,-346.14C295.54,-343.87 322.15,-341.26 345.51,-338.97"/>
<polygon fill="#63b8ff" stroke="#63b8ff" points="345.57,-342.48 355.18,-338.03 344.89,-335.52 345.57,-342.48"/>
</a>
</g>
</g>
<!-- Node11 -->
<g id="Node000011" class="node">
<title>Node11</title>
<g id="a_Node000011"><a xlink:href="class_direct_x_manager.html#a939df5d867998c476f7c8fbacb39556d" target="_top" xlink:title=" ">
<polygon fill="white" stroke="#666666" points="481.88,-305 333.12,-305 333.12,-285 481.88,-285 481.88,-305"/>
<text text-anchor="middle" x="407.5" y="-291.5" font-family="Helvetica,sans-Serif" font-size="10.00">DirectXManager::RenderFrame</text>
</a>
</g>
</g>
<!-- Node2&#45;&gt;Node11 -->
<g id="edge11_Node000002_Node000011" class="edge">
<title>Node2&#45;&gt;Node11</title>
<g id="a_edge11_Node000002_Node000011"><a xlink:title=" ">
<path fill="none" stroke="#63b8ff" d="M235.23,-341.55C254.32,-333.11 282.48,-321.47 308,-314 315.64,-311.76 323.7,-309.72 331.77,-307.87"/>
<polygon fill="#63b8ff" stroke="#63b8ff" points="332.26,-311.35 341.28,-305.8 330.76,-304.51 332.26,-311.35"/>
</a>
</g>
</g>
<!-- Node27 -->
<g id="Node000027" class="node">
<title>Node27</title>
<g id="a_Node000027"><a xlink:href="class_camera.html#a0b37aac023aa0f6d25d0bb646b2280f9" target="_top" xlink:title=" ">
<polygon fill="white" stroke="#666666" points="466.88,-267 348.12,-267 348.12,-247 466.88,-247 466.88,-267"/>
<text text-anchor="middle" x="407.5" y="-253.5" font-family="Helvetica,sans-Serif" font-size="10.00">Camera::stopMovement</text>
</a>
</g>
</g>
<!-- Node2&#45;&gt;Node27 -->
<g id="edge30_Node000002_Node000027" class="edge">
<title>Node2&#45;&gt;Node27</title>
<g id="a_edge30_Node000002_Node000027"><a xlink:title=" ">
<path fill="none" stroke="#63b8ff" d="M221.99,-341.76C238.01,-325.13 272.2,-292.48 308,-276 316.97,-271.87 326.79,-268.64 336.65,-266.11"/>
<polygon fill="#63b8ff" stroke="#63b8ff" points="337.33,-269.55 346.28,-263.89 335.75,-262.73 337.33,-269.55"/>
</a>
</g>
</g>
<!-- Node28 -->
<g id="Node000028" class="node">
<title>Node28</title>
<g id="a_Node000028"><a xlink:href="class_camera.html#a02990aac6f3ed367157b0b8bab0b0143" target="_top" xlink:title=" ">
<polygon fill="white" stroke="#666666" points="450.75,-134 364.25,-134 364.25,-114 450.75,-114 450.75,-134"/>
<text text-anchor="middle" x="407.5" y="-120.5" font-family="Helvetica,sans-Serif" font-size="10.00">Camera::Update</text>
</a>
</g>
</g>
<!-- Node2&#45;&gt;Node28 -->
<g id="edge31_Node000002_Node000028" class="edge">
<title>Node2&#45;&gt;Node28</title>
<g id="a_edge31_Node000002_Node000028"><a xlink:title=" ">
<path fill="none" stroke="#63b8ff" d="M221.14,-341.58C237.83,-321.47 275.71,-275.95 308,-238 336.62,-204.36 370.35,-165.49 389.98,-142.93"/>
<polygon fill="#63b8ff" stroke="#63b8ff" points="392.56,-145.31 396.49,-135.47 387.28,-140.71 392.56,-145.31"/>
</a>
</g>
</g>
<!-- Node4 -->
<g id="Node000004" class="node">
<title>Node4</title>
<g id="a_Node000004"><a xlink:href="class_shader_manager.html#ac6e7ac40f579b9ff0d44c91379e5e631" target="_top" xlink:title=" ">
<polygon fill="white" stroke="#666666" points="710.5,-590 559.5,-590 559.5,-570 710.5,-570 710.5,-590"/>
<text text-anchor="middle" x="635" y="-576.5" font-family="Helvetica,sans-Serif" font-size="10.00">ShaderManager::ReloadShader</text>
</a>
</g>
</g>
<!-- Node3&#45;&gt;Node4 -->
<g id="edge3_Node000003_Node000004" class="edge">
<title>Node3&#45;&gt;Node4</title>
<g id="a_edge3_Node000003_Node000004"><a xlink:title=" ">
<path fill="none" stroke="#63b8ff" d="M457.71,-542.47C491.88,-549.75 537.62,-559.49 573.95,-567.22"/>
<polygon fill="#63b8ff" stroke="#63b8ff" points="572.91,-570.57 583.42,-569.23 574.36,-563.73 572.91,-570.57"/>
</a>
</g>
</g>
<!-- Node5 -->
<g id="Node000005" class="node">
<title>Node5</title>
<g id="a_Node000005"><a xlink:href="class_shader_manager.html#a9e20b23487904239ee0fce4998585a11" target="_top" xlink:title=" ">
<polygon fill="white" stroke="#666666" points="1119,-609 941,-609 941,-589 1119,-589 1119,-609"/>
<text text-anchor="middle" x="1030" y="-595.5" font-family="Helvetica,sans-Serif" font-size="10.00">ShaderManager::GenerateShaderKey</text>
</a>
</g>
</g>
<!-- Node4&#45;&gt;Node5 -->
<g id="edge4_Node000004_Node000005" class="edge">
<title>Node4&#45;&gt;Node5</title>
<g id="a_edge4_Node000004_Node000005"><a xlink:title=" ">
<path fill="none" stroke="#63b8ff" d="M693.65,-590.47C715.31,-593.92 740.21,-597.3 763,-599 817.8,-603.08 879.12,-603.36 929.06,-602.5"/>
<polygon fill="#63b8ff" stroke="#63b8ff" points="929.07,-606 939,-602.31 928.94,-599 929.07,-606"/>
</a>
</g>
</g>
<!-- Node6 -->
<g id="Node000006" class="node">
<title>Node6</title>
<g id="a_Node000006"><a xlink:href="class_shader_manager.html#a6d8ac1d497a7ae3d1da64456d24b94a3" target="_top" xlink:title=" ">
<polygon fill="white" stroke="#666666" points="905,-590 763,-590 763,-570 905,-570 905,-590"/>
<text text-anchor="middle" x="834" y="-576.5" font-family="Helvetica,sans-Serif" font-size="10.00">ShaderManager::LoadShader</text>
</a>
</g>
</g>
<!-- Node4&#45;&gt;Node6 -->
<g id="edge5_Node000004_Node000006" class="edge">
<title>Node4&#45;&gt;Node6</title>
<g id="a_edge5_Node000004_Node000006"><a xlink:title=" ">
<path fill="none" stroke="#63b8ff" d="M710.76,-580C724.02,-580 737.9,-580 751.35,-580"/>
<polygon fill="#63b8ff" stroke="#63b8ff" points="751,-583.5 761,-580 751,-576.5 751,-583.5"/>
</a>
</g>
</g>
<!-- Node6&#45;&gt;Node5 -->
<g id="edge6_Node000006_Node000005" class="edge">
<title>Node6&#45;&gt;Node5</title>
<g id="a_edge6_Node000006_Node000005"><a xlink:title=" ">
<path fill="none" stroke="#63b8ff" d="M905.31,-586.89C913.13,-587.65 921.19,-588.44 929.28,-589.23"/>
<polygon fill="#63b8ff" stroke="#63b8ff" points="928.9,-592.71 939.2,-590.2 929.59,-585.75 928.9,-592.71"/>
</a>
</g>
</g>
<!-- Node12 -->
<g id="Node000012" class="node">
<title>Node12</title>
<g id="a_Node000012"><a xlink:href="class_mesh.html#afdd95c079fd0442afef8a6c421c8bfc9" target="_top" xlink:title=" ">
<polygon fill="white" stroke="#666666" points="867.88,-552 800.12,-552 800.12,-532 867.88,-532 867.88,-552"/>
<text text-anchor="middle" x="834" y="-538.5" font-family="Helvetica,sans-Serif" font-size="10.00">Mesh::Draw</text>
</a>
</g>
</g>
<!-- Node11&#45;&gt;Node12 -->
<g id="edge12_Node000011_Node000012" class="edge">
<title>Node11&#45;&gt;Node12</title>
<g id="a_edge12_Node000011_Node000012"><a xlink:title=" ">
<path fill="none" stroke="#63b8ff" d="M481.9,-298.77C491.29,-302.06 500.04,-306.92 507,-314 571.58,-379.62 474.97,-455.96 543,-518 577.83,-549.76 715.98,-547.97 788.31,-544.67"/>
<polygon fill="#63b8ff" stroke="#63b8ff" points="788.42,-548.17 798.24,-544.18 788.08,-541.17 788.42,-548.17"/>
</a>
</g>
</g>
<!-- Node13 -->
<g id="Node000013" class="node">
<title>Node13</title>
<g id="a_Node000013"><a xlink:href="class_graphics_device.html#acf91316dd6fe685f48258016a3098d41" target="_top" xlink:title=" ">
<polygon fill="white" stroke="#666666" points="1113.75,-495 946.25,-495 946.25,-475 1113.75,-475 1113.75,-495"/>
<text text-anchor="middle" x="1030" y="-481.5" font-family="Helvetica,sans-Serif" font-size="10.00">GraphicsDevice::GetDeviceContext</text>
</a>
</g>
</g>
<!-- Node11&#45;&gt;Node13 -->
<g id="edge15_Node000011_Node000013" class="edge">
<title>Node11&#45;&gt;Node13</title>
<g id="a_edge15_Node000011_Node000013"><a xlink:title=" ">
<path fill="none" stroke="#63b8ff" d="M482.19,-299.15C491.42,-302.41 500.05,-307.16 507,-314 562.38,-368.45 482.69,-436.06 543,-485 602.88,-533.59 825.04,-512.79 947.19,-496.92"/>
<polygon fill="#63b8ff" stroke="#63b8ff" points="947.38,-500.43 956.83,-495.65 946.46,-493.49 947.38,-500.43"/>
</a>
</g>
</g>
<!-- Node14 -->
<g id="Node000014" class="node">
<title>Node14</title>
<g id="a_Node000014"><a xlink:href="class_graphics_device.html#adb0057512a565256ef377441fe466985" target="_top" xlink:title=" ">
<polygon fill="white" stroke="#666666" points="725.88,-476 544.12,-476 544.12,-456 725.88,-456 725.88,-476"/>
<text text-anchor="middle" x="635" y="-462.5" font-family="Helvetica,sans-Serif" font-size="10.00">GraphicsDevice::GetDepthStencilView</text>
</a>
</g>
</g>
<!-- Node11&#45;&gt;Node14 -->
<g id="edge14_Node000011_Node000014" class="edge">
<title>Node11&#45;&gt;Node14</title>
<g id="a_edge14_Node000011_Node000014"><a xlink:title=" ">
<path fill="none" stroke="#63b8ff" d="M482.33,-299.69C491.43,-302.89 499.98,-307.48 507,-314 551.87,-355.68 498.45,-404.98 543,-447 543.91,-447.86 544.85,-448.68 545.81,-449.47"/>
<polygon fill="#63b8ff" stroke="#63b8ff" points="543.61,-452.21 553.86,-454.88 547.51,-446.4 543.61,-452.21"/>
</a>
</g>
</g>
<!-- Node15 -->
<g id="Node000015" class="node">
<title>Node15</title>
<g id="a_Node000015"><a xlink:href="class_camera.html#a0d0f678e977d6a7db6f357b255a01b4e" target="_top" xlink:title=" ">
<polygon fill="white" stroke="#666666" points="673,-438 597,-438 597,-418 673,-418 673,-438"/>
<text text-anchor="middle" x="635" y="-424.5" font-family="Helvetica,sans-Serif" font-size="10.00">Camera::getP</text>
</a>
</g>
</g>
<!-- Node11&#45;&gt;Node15 -->
<g id="edge16_Node000011_Node000015" class="edge">
<title>Node11&#45;&gt;Node15</title>
<g id="a_edge16_Node000011_Node000015"><a xlink:title=" ">
<path fill="none" stroke="#63b8ff" d="M482.26,-300.51C491.26,-303.6 499.8,-307.94 507,-314 541.55,-343.07 508.68,-379.66 543,-409 554.73,-419.03 570.4,-424.21 585.42,-426.78"/>
<polygon fill="#63b8ff" stroke="#63b8ff" points="584.83,-430.23 595.2,-428.07 585.75,-423.29 584.83,-430.23"/>
</a>
</g>
</g>
<!-- Node16 -->
<g id="Node000016" class="node">
<title>Node16</title>
<g id="a_Node000016"><a xlink:href="class_mesh.html#a5b502948f58e8c8e3e1876637b522cd3" target="_top" xlink:title=" ">
<polygon fill="white" stroke="#666666" points="693.25,-400 576.75,-400 576.75,-380 693.25,-380 693.25,-400"/>
<text text-anchor="middle" x="635" y="-386.5" font-family="Helvetica,sans-Serif" font-size="10.00">Mesh::GetParentModel</text>
</a>
</g>
</g>
<!-- Node11&#45;&gt;Node16 -->
<g id="edge17_Node000011_Node000016" class="edge">
<title>Node11&#45;&gt;Node16</title>
<g id="a_edge17_Node000011_Node000016"><a xlink:title=" ">
<path fill="none" stroke="#63b8ff" d="M482.21,-302.24C491.02,-305.08 499.52,-308.89 507,-314 531.75,-330.89 518.38,-353.92 543,-371 549.75,-375.68 557.4,-379.25 565.35,-381.97"/>
<polygon fill="#63b8ff" stroke="#63b8ff" points="564.26,-385.3 574.84,-384.74 566.22,-378.58 564.26,-385.3"/>
</a>
</g>
</g>
<!-- Node17 -->
<g id="Node000017" class="node">
<title>Node17</title>
<g id="a_Node000017"><a xlink:href="class_graphics_device.html#a8255f0c23dcbc89765a40b197a5db87f" target="_top" xlink:title=" ">
<polygon fill="white" stroke="#666666" points="727,-362 543,-362 543,-342 727,-342 727,-362"/>
<text text-anchor="middle" x="635" y="-348.5" font-family="Helvetica,sans-Serif" font-size="10.00">GraphicsDevice::GetRenderTargetView</text>
</a>
</g>
</g>
<!-- Node11&#45;&gt;Node17 -->
<g id="edge18_Node000011_Node000017" class="edge">
<title>Node11&#45;&gt;Node17</title>
<g id="a_edge18_Node000011_Node000017"><a xlink:title=" ">
<path fill="none" stroke="#63b8ff" d="M476.76,-305.44C487.03,-307.79 497.39,-310.62 507,-314 524.07,-320 525.98,-326.87 543,-333 548.79,-335.09 554.87,-336.97 561.03,-338.67"/>
<polygon fill="#63b8ff" stroke="#63b8ff" points="560.14,-342.05 570.69,-341.15 561.88,-335.27 560.14,-342.05"/>
</a>
</g>
</g>
<!-- Node18 -->
<g id="Node000018" class="node">
<title>Node18</title>
<g id="a_Node000018"><a xlink:href="class_material.html#a96434cf45f279c51bde30fb55e2706ac" target="_top" xlink:title=" ">
<polygon fill="white" stroke="#666666" points="704.88,-324 565.12,-324 565.12,-304 704.88,-304 704.88,-324"/>
<text text-anchor="middle" x="635" y="-310.5" font-family="Helvetica,sans-Serif" font-size="10.00">Material::GetShaderProgram</text>
</a>
</g>
</g>
<!-- Node11&#45;&gt;Node18 -->
<g id="edge19_Node000011_Node000018" class="edge">
<title>Node11&#45;&gt;Node18</title>
<g id="a_edge19_Node000011_Node000018"><a xlink:title=" ">
<path fill="none" stroke="#63b8ff" d="M482.34,-301.22C505.19,-303.15 530.47,-305.28 553.73,-307.24"/>
<polygon fill="#63b8ff" stroke="#63b8ff" points="553.2,-310.7 563.46,-308.06 553.79,-303.73 553.2,-310.7"/>
</a>
</g>
</g>
<!-- Node19 -->
<g id="Node000019" class="node">
<title>Node19</title>
<g id="a_Node000019"><a xlink:href="class_graphics_device.html#acb7d1c815260bbbb1776e130bbf62ffb" target="_top" xlink:title=" ">
<polygon fill="white" stroke="#666666" points="712,-286 558,-286 558,-266 712,-266 712,-286"/>
<text text-anchor="middle" x="635" y="-272.5" font-family="Helvetica,sans-Serif" font-size="10.00">GraphicsDevice::GetSwapChain</text>
</a>
</g>
</g>
<!-- Node11&#45;&gt;Node19 -->
<g id="edge20_Node000011_Node000019" class="edge">
<title>Node11&#45;&gt;Node19</title>
<g id="a_edge20_Node000011_Node000019"><a xlink:title=" ">
<path fill="none" stroke="#63b8ff" d="M482.34,-288.78C502.81,-287.05 525.23,-285.16 546.4,-283.38"/>
<polygon fill="#63b8ff" stroke="#63b8ff" points="546.5,-286.89 556.17,-282.56 545.91,-279.91 546.5,-286.89"/>
</a>
</g>
</g>
<!-- Node20 -->
<g id="Node000020" class="node">
<title>Node20</title>
<g id="a_Node000020"><a xlink:href="class_model.html#ae416dc1c473be023e26213ba793bf4ce" target="_top" xlink:title=" ">
<polygon fill="white" stroke="#666666" points="712.38,-248 557.62,-248 557.62,-228 712.38,-228 712.38,-248"/>
<text text-anchor="middle" x="635" y="-234.5" font-family="Helvetica,sans-Serif" font-size="10.00">Model::GetTransformationMatrix</text>
</a>
</g>
</g>
<!-- Node11&#45;&gt;Node20 -->
<g id="edge21_Node000011_Node000020" class="edge">
<title>Node11&#45;&gt;Node20</title>
<g id="a_edge21_Node000011_Node000020"><a xlink:title=" ">
<path fill="none" stroke="#63b8ff" d="M476.76,-284.56C487.03,-282.21 497.39,-279.38 507,-276 524.07,-270 525.98,-263.13 543,-257 548.79,-254.91 554.87,-253.03 561.03,-251.33"/>
<polygon fill="#63b8ff" stroke="#63b8ff" points="561.88,-254.73 570.69,-248.85 560.14,-247.95 561.88,-254.73"/>
</a>
</g>
</g>
<!-- Node21 -->
<g id="Node000021" class="node">
<title>Node21</title>
<g id="a_Node000021"><a xlink:href="class_camera.html#abb4a67224c4f219bba8a657907caf4a1" target="_top" xlink:title=" ">
<polygon fill="white" stroke="#666666" points="673,-210 597,-210 597,-190 673,-190 673,-210"/>
<text text-anchor="middle" x="635" y="-196.5" font-family="Helvetica,sans-Serif" font-size="10.00">Camera::getV</text>
</a>
</g>
</g>
<!-- Node11&#45;&gt;Node21 -->
<g id="edge22_Node000011_Node000021" class="edge">
<title>Node11&#45;&gt;Node21</title>
<g id="a_edge22_Node000011_Node000021"><a xlink:title=" ">
<path fill="none" stroke="#63b8ff" d="M482.21,-287.76C491.02,-284.92 499.52,-281.11 507,-276 531.75,-259.11 518.38,-236.08 543,-219 555.47,-210.35 571.05,-205.49 585.79,-202.8"/>
<polygon fill="#63b8ff" stroke="#63b8ff" points="585.95,-206.32 595.32,-201.37 584.91,-199.39 585.95,-206.32"/>
</a>
</g>
</g>
<!-- Node22 -->
<g id="Node000022" class="node">
<title>Node22</title>
<g id="a_Node000022"><a xlink:href="class_camera.html#ab2b7b6a0f6fddefaed1f31ddd90279dc" target="_top" xlink:title=" ">
<polygon fill="white" stroke="#666666" points="674.5,-172 595.5,-172 595.5,-152 674.5,-152 674.5,-172"/>
<text text-anchor="middle" x="635" y="-158.5" font-family="Helvetica,sans-Serif" font-size="10.00">Camera::getW</text>
</a>
</g>
</g>
<!-- Node11&#45;&gt;Node22 -->
<g id="edge23_Node000011_Node000022" class="edge">
<title>Node11&#45;&gt;Node22</title>
<g id="a_edge23_Node000011_Node000022"><a xlink:title=" ">
<path fill="none" stroke="#63b8ff" d="M482.26,-289.49C491.26,-286.4 499.8,-282.06 507,-276 541.55,-246.93 508.68,-210.34 543,-181 554.44,-171.22 569.62,-166.05 584.29,-163.42"/>
<polygon fill="#63b8ff" stroke="#63b8ff" points="584.43,-166.93 593.85,-162.08 583.46,-160 584.43,-166.93"/>
</a>
</g>
</g>
<!-- Node23 -->
<g id="Node000023" class="node">
<title>Node23</title>
<g id="a_Node000023"><a xlink:href="class_material.html#aebbf2f38964d3601bee4a73231e50683" target="_top" xlink:title=" ">
<polygon fill="white" stroke="#666666" points="692.5,-134 577.5,-134 577.5,-114 692.5,-114 692.5,-134"/>
<text text-anchor="middle" x="635" y="-120.5" font-family="Helvetica,sans-Serif" font-size="10.00">Material::isTransparent</text>
</a>
</g>
</g>
<!-- Node11&#45;&gt;Node23 -->
<g id="edge24_Node000011_Node000023" class="edge">
<title>Node11&#45;&gt;Node23</title>
<g id="a_edge24_Node000011_Node000023"><a xlink:title=" ">
<path fill="none" stroke="#63b8ff" d="M482.33,-290.31C491.43,-287.11 499.98,-282.52 507,-276 551.87,-234.32 498.45,-185.02 543,-143 549.68,-136.7 557.88,-132.26 566.6,-129.17"/>
<polygon fill="#63b8ff" stroke="#63b8ff" points="567.34,-132.6 575.97,-126.45 565.39,-125.88 567.34,-132.6"/>
</a>
</g>
</g>
<!-- Node24 -->
<g id="Node000024" class="node">
<title>Node24</title>
<g id="a_Node000024"><a xlink:href="class_material.html#a7877c23c5a3b522271a3be3408ae1e9c" target="_top" xlink:title=" ">
<polygon fill="white" stroke="#666666" points="702.62,-96 567.38,-96 567.38,-76 702.62,-76 702.62,-96"/>
<text text-anchor="middle" x="635" y="-82.5" font-family="Helvetica,sans-Serif" font-size="10.00">Material::SetConstantBuffer</text>
</a>
</g>
</g>
<!-- Node11&#45;&gt;Node24 -->
<g id="edge25_Node000011_Node000024" class="edge">
<title>Node11&#45;&gt;Node24</title>
<g id="a_edge25_Node000011_Node000024"><a xlink:title=" ">
<path fill="none" stroke="#63b8ff" d="M482.19,-290.85C491.42,-287.59 500.05,-282.84 507,-276 562.38,-221.55 488.04,-159.87 543,-105 547.11,-100.9 551.85,-97.58 556.98,-94.89"/>
<polygon fill="#63b8ff" stroke="#63b8ff" points="558.05,-98.25 565.85,-91.08 555.28,-91.81 558.05,-98.25"/>
</a>
</g>
</g>
<!-- Node25 -->
<g id="Node000025" class="node">
<title>Node25</title>
<g id="a_Node000025"><a xlink:href="class_material.html#a031a68217b55fb3c46a01757c58eb836" target="_top" xlink:title=" ">
<polygon fill="white" stroke="#666666" points="676,-58 594,-58 594,-38 676,-38 676,-58"/>
<text text-anchor="middle" x="635" y="-44.5" font-family="Helvetica,sans-Serif" font-size="10.00">Material::Setup</text>
</a>
</g>
</g>
<!-- Node11&#45;&gt;Node25 -->
<g id="edge26_Node000011_Node000025" class="edge">
<title>Node11&#45;&gt;Node25</title>
<g id="a_edge26_Node000011_Node000025"><a xlink:title=" ">
<path fill="none" stroke="#63b8ff" d="M481.93,-291.26C491.31,-287.96 500.05,-283.09 507,-276 572.98,-208.69 477.54,-134.81 543,-67 553.36,-56.27 568.11,-50.81 582.72,-48.21"/>
<polygon fill="#63b8ff" stroke="#63b8ff" points="582.83,-51.73 592.29,-46.95 581.91,-44.79 582.83,-51.73"/>
</a>
</g>
</g>
<!-- Node12&#45;&gt;Node13 -->
<g id="edge13_Node000012_Node000013" class="edge">
<title>Node12&#45;&gt;Node13</title>
<g id="a_edge13_Node000012_Node000013"><a xlink:title=" ">
<path fill="none" stroke="#63b8ff" d="M868.35,-532.2C899.83,-522.95 947.31,-509 982.5,-498.66"/>
<polygon fill="#63b8ff" stroke="#63b8ff" points="983.4,-502.05 992.01,-495.87 981.43,-495.33 983.4,-502.05"/>
</a>
</g>
</g>
<!-- Node25&#45;&gt;Node13 -->
<g id="edge27_Node000025_Node000013" class="edge">
<title>Node25&#45;&gt;Node13</title>
<g id="a_edge27_Node000025_Node000013"><a xlink:title=" ">
<path fill="none" stroke="#63b8ff" d="M676.48,-48.07C693.78,-50.06 713.14,-55.15 727,-67 761.32,-96.34 740.35,-122.94 763,-162 837.47,-290.4 962.52,-419.61 1009.97,-466.53"/>
<polygon fill="#63b8ff" stroke="#63b8ff" points="1007.47,-468.98 1017.06,-473.49 1012.38,-463.99 1007.47,-468.98"/>
</a>
</g>
</g>
<!-- Node26 -->
<g id="Node000026" class="node">
<title>Node26</title>
<g id="a_Node000026"><a xlink:href="class_render_state.html#a6a48845d14ec5b7b8728549178626ce4" target="_top" xlink:title=" ">
<polygon fill="white" stroke="#666666" points="891.12,-153 776.88,-153 776.88,-133 891.12,-133 891.12,-153"/>
<text text-anchor="middle" x="834" y="-139.5" font-family="Helvetica,sans-Serif" font-size="10.00">RenderState::SetState</text>
</a>
</g>
</g>
<!-- Node25&#45;&gt;Node26 -->
<g id="edge28_Node000025_Node000026" class="edge">
<title>Node25&#45;&gt;Node26</title>
<g id="a_edge28_Node000025_Node000026"><a xlink:title=" ">
<path fill="none" stroke="#63b8ff" d="M676.08,-52.68C692.35,-55.51 711.04,-59.99 727,-67 760.11,-81.55 793.16,-107.52 813.34,-125"/>
<polygon fill="#63b8ff" stroke="#63b8ff" points="810.97,-127.58 820.78,-131.59 815.61,-122.34 810.97,-127.58"/>
</a>
</g>
</g>
<!-- Node26&#45;&gt;Node13 -->
<g id="edge29_Node000026_Node000013" class="edge">
<title>Node26&#45;&gt;Node13</title>
<g id="a_edge29_Node000026_Node000013"><a xlink:title=" ">
<path fill="none" stroke="#63b8ff" d="M840.81,-153.24C867.8,-200.83 981.29,-400.89 1017.7,-465.08"/>
<polygon fill="#63b8ff" stroke="#63b8ff" points="1014.49,-466.52 1022.47,-473.49 1020.58,-463.06 1014.49,-466.52"/>
</a>
</g>
</g>
<!-- Node29 -->
<g id="Node000029" class="node">
<title>Node29</title>
<g id="a_Node000029"><a xlink:href="class_camera.html#ab41e9e98499b4b6f3898d6b7e52a8be0" target="_top" xlink:title=" ">
<polygon fill="white" stroke="#666666" points="685.75,-20 584.25,-20 584.25,0 685.75,0 685.75,-20"/>
<text text-anchor="middle" x="635" y="-6.5" font-family="Helvetica,sans-Serif" font-size="10.00">Camera::calculateV</text>
</a>
</g>
</g>
<!-- Node28&#45;&gt;Node29 -->
<g id="edge32_Node000028_Node000029" class="edge">
<title>Node28&#45;&gt;Node29</title>
<g id="a_edge32_Node000028_Node000029"><a xlink:title=" ">
<path fill="none" stroke="#63b8ff" d="M419.74,-113.57C441.65,-93.83 492.41,-51.01 543,-29 552.46,-24.89 562.86,-21.64 573.15,-19.09"/>
<polygon fill="#63b8ff" stroke="#63b8ff" points="573.76,-22.54 582.74,-16.92 572.22,-15.71 573.76,-22.54"/>
</a>
</g>
</g>
</g>
</svg>
