<?xml version="1.0" encoding="UTF-8" standalone="no"?>
<!DOCTYPE svg PUBLIC "-//W3C//DTD SVG 1.1//EN"
 "http://www.w3.org/Graphics/SVG/1.1/DTD/svg11.dtd">
<!-- Generated by graphviz version 9.0.0 (20230911.1827)
 -->
<!-- Title: DirectXManager::handleKeyDown Pages: 1 -->
<svg width="649pt" height="180pt"
 viewBox="0.00 0.00 648.75 180.00" xmlns="http://www.w3.org/2000/svg" xmlns:xlink="http://www.w3.org/1999/xlink">
<g id="graph0" class="graph" transform="scale(1 1) rotate(0) translate(4 176)">
<title>DirectXManager::handleKeyDown</title>
<!-- Node1 -->
<g id="Node000001" class="node">
<title>Node1</title>
<g id="a_Node000001"><a xlink:title=" ">
<polygon fill="#999999" stroke="#666666" points="160,-77 0,-77 0,-57 160,-57 160,-77"/>
<text text-anchor="middle" x="80" y="-63.5" font-family="Helvetica,sans-Serif" font-size="10.00">DirectXManager::handleKeyDown</text>
</a>
</g>
</g>
<!-- Node2 -->
<g id="Node000002" class="node">
<title>Node2</title>
<g id="a_Node000002"><a xlink:href="class_camera.html#a0f1aa347d4142d0a1bbdec93441b2aec" target="_top" xlink:title=" ">
<polygon fill="white" stroke="#666666" points="299.75,-134 196,-134 196,-114 299.75,-114 299.75,-134"/>
<text text-anchor="middle" x="247.88" y="-120.5" font-family="Helvetica,sans-Serif" font-size="10.00">Camera::AdjustFOV</text>
</a>
</g>
</g>
<!-- Node1&#45;&gt;Node2 -->
<g id="edge1_Node000001_Node000002" class="edge">
<title>Node1&#45;&gt;Node2</title>
<g id="a_edge1_Node000001_Node000002"><a xlink:title=" ">
<path fill="none" stroke="#63b8ff" d="M111.42,-77.45C137.88,-86.55 176.45,-99.8 205.67,-109.84"/>
<polygon fill="#63b8ff" stroke="#63b8ff" points="204.34,-113.08 214.93,-113.02 206.61,-106.46 204.34,-113.08"/>
</a>
</g>
</g>
<!-- Node6 -->
<g id="Node000006" class="node">
<title>Node6</title>
<g id="a_Node000006"><a xlink:href="class_model.html#aad465ba03d1c753232c59a6c6747b18f" target="_top" xlink:title=" ">
<polygon fill="white" stroke="#666666" points="297.12,-96 198.62,-96 198.62,-76 297.12,-76 297.12,-96"/>
<text text-anchor="middle" x="247.88" y="-82.5" font-family="Helvetica,sans-Serif" font-size="10.00">Model::SetPosition</text>
</a>
</g>
</g>
<!-- Node1&#45;&gt;Node6 -->
<g id="edge6_Node000001_Node000006" class="edge">
<title>Node1&#45;&gt;Node6</title>
<g id="a_edge6_Node000001_Node000006"><a xlink:title=" ">
<path fill="none" stroke="#63b8ff" d="M160.05,-76.05C169.1,-77.09 178.21,-78.14 186.96,-79.14"/>
<polygon fill="#63b8ff" stroke="#63b8ff" points="186.36,-82.59 196.7,-80.25 187.16,-75.64 186.36,-82.59"/>
</a>
</g>
</g>
<!-- Node8 -->
<g id="Node000008" class="node">
<title>Node8</title>
<g id="a_Node000008"><a xlink:href="class_model.html#a57035d77f213ec90ebc355fd9c0d0e05" target="_top" xlink:title=" ">
<polygon fill="white" stroke="#666666" points="297.5,-58 198.25,-58 198.25,-38 297.5,-38 297.5,-58"/>
<text text-anchor="middle" x="247.88" y="-44.5" font-family="Helvetica,sans-Serif" font-size="10.00">Model::SetRotation</text>
</a>
</g>
</g>
<!-- Node1&#45;&gt;Node8 -->
<g id="edge8_Node000001_Node000008" class="edge">
<title>Node1&#45;&gt;Node8</title>
<g id="a_edge8_Node000001_Node000008"><a xlink:title=" ">
<path fill="none" stroke="#63b8ff" d="M160.05,-57.95C169.1,-56.91 178.21,-55.86 186.96,-54.86"/>
<polygon fill="#63b8ff" stroke="#63b8ff" points="187.16,-58.36 196.7,-53.75 186.36,-51.41 187.16,-58.36"/>
</a>
</g>
</g>
<!-- Node9 -->
<g id="Node000009" class="node">
<title>Node9</title>
<g id="a_Node000009"><a xlink:href="class_model.html#ac517047da883a877b300c13c2fce17d9" target="_top" xlink:title=" ">
<polygon fill="white" stroke="#666666" points="291.88,-20 203.88,-20 203.88,0 291.88,0 291.88,-20"/>
<text text-anchor="middle" x="247.88" y="-6.5" font-family="Helvetica,sans-Serif" font-size="10.00">Model::SetScale</text>
</a>
</g>
</g>
<!-- Node1&#45;&gt;Node9 -->
<g id="edge10_Node000001_Node000009" class="edge">
<title>Node1&#45;&gt;Node9</title>
<g id="a_edge10_Node000001_Node000009"><a xlink:title=" ">
<path fill="none" stroke="#63b8ff" d="M111.42,-56.55C137.88,-47.45 176.45,-34.2 205.67,-24.16"/>
<polygon fill="#63b8ff" stroke="#63b8ff" points="206.61,-27.54 214.93,-20.98 204.34,-20.92 206.61,-27.54"/>
</a>
</g>
</g>
<!-- Node3 -->
<g id="Node000003" class="node">
<title>Node3</title>
<g id="a_Node000003"><a xlink:href="class_camera.html#aa083de8522b4424b0f0943d7e887019e" target="_top" xlink:title=" ">
<polygon fill="white" stroke="#666666" points="471.38,-172 369.88,-172 369.88,-152 471.38,-152 471.38,-172"/>
<text text-anchor="middle" x="420.62" y="-158.5" font-family="Helvetica,sans-Serif" font-size="10.00">Camera::calculateP</text>
</a>
</g>
</g>
<!-- Node2&#45;&gt;Node3 -->
<g id="edge2_Node000002_Node000003" class="edge">
<title>Node2&#45;&gt;Node3</title>
<g id="a_edge2_Node000002_Node000003"><a xlink:title=" ">
<path fill="none" stroke="#63b8ff" d="M295.99,-134.48C316.23,-138.99 340.1,-144.3 361.44,-149.05"/>
<polygon fill="#63b8ff" stroke="#63b8ff" points="360.67,-152.47 371.19,-151.22 362.19,-145.63 360.67,-152.47"/>
</a>
</g>
</g>
<!-- Node4 -->
<g id="Node000004" class="node">
<title>Node4</title>
<g id="a_Node000004"><a xlink:href="class_camera.html#aeffd7e25c1d933ac532ac3679d84ee4b" target="_top" xlink:title=" ">
<polygon fill="white" stroke="#666666" points="640.75,-153 541.5,-153 541.5,-133 640.75,-133 640.75,-153"/>
<text text-anchor="middle" x="591.12" y="-139.5" font-family="Helvetica,sans-Serif" font-size="10.00">Camera::toRadians</text>
</a>
</g>
</g>
<!-- Node2&#45;&gt;Node4 -->
<g id="edge5_Node000002_Node000004" class="edge">
<title>Node2&#45;&gt;Node4</title>
<g id="a_edge5_Node000002_Node000004"><a xlink:title=" ">
<path fill="none" stroke="#63b8ff" d="M299.96,-126.84C361.44,-130.27 464.53,-136.01 529.84,-139.64"/>
<polygon fill="#63b8ff" stroke="#63b8ff" points="529.49,-143.13 539.67,-140.19 529.88,-136.14 529.49,-143.13"/>
</a>
</g>
</g>
<!-- Node5 -->
<g id="Node000005" class="node">
<title>Node5</title>
<g id="a_Node000005"><a xlink:href="class_camera.html#a42ce8c5aa081254cd0b0fcf12b7d54da" target="_top" xlink:title=" ">
<polygon fill="white" stroke="#666666" points="470.62,-96 370.62,-96 370.62,-76 470.62,-76 470.62,-96"/>
<text text-anchor="middle" x="420.62" y="-82.5" font-family="Helvetica,sans-Serif" font-size="10.00">Camera::toDegrees</text>
</a>
</g>
</g>
<!-- Node2&#45;&gt;Node5 -->
<g id="edge4_Node000002_Node000005" class="edge">
<title>Node2&#45;&gt;Node5</title>
<g id="a_edge4_Node000002_Node000005"><a xlink:title=" ">
<path fill="none" stroke="#63b8ff" d="M295.99,-113.52C316.23,-109.01 340.1,-103.7 361.44,-98.95"/>
<polygon fill="#63b8ff" stroke="#63b8ff" points="362.19,-102.37 371.19,-96.78 360.67,-95.53 362.19,-102.37"/>
</a>
</g>
</g>
<!-- Node3&#45;&gt;Node4 -->
<g id="edge3_Node000003_Node000004" class="edge">
<title>Node3&#45;&gt;Node4</title>
<g id="a_edge3_Node000003_Node000004"><a xlink:title=" ">
<path fill="none" stroke="#63b8ff" d="M471.72,-156.35C489.97,-154.29 510.78,-151.95 529.81,-149.8"/>
<polygon fill="#63b8ff" stroke="#63b8ff" points="530.04,-153.3 539.58,-148.7 529.26,-146.34 530.04,-153.3"/>
</a>
</g>
</g>
<!-- Node7 -->
<g id="Node000007" class="node">
<title>Node7</title>
<g id="a_Node000007"><a xlink:href="class_model.html#ade9b21ed1f4b5073186f4246d2727d9a" target="_top" xlink:title=" ">
<polygon fill="white" stroke="#666666" points="505.5,-58 335.75,-58 335.75,-38 505.5,-38 505.5,-58"/>
<text text-anchor="middle" x="420.62" y="-44.5" font-family="Helvetica,sans-Serif" font-size="10.00">Model::UpdateTransformationMatrix</text>
</a>
</g>
</g>
<!-- Node6&#45;&gt;Node7 -->
<g id="edge7_Node000006_Node000007" class="edge">
<title>Node6&#45;&gt;Node7</title>
<g id="a_edge7_Node000006_Node000007"><a xlink:title=" ">
<path fill="none" stroke="#63b8ff" d="M295.99,-75.52C316.23,-71.01 340.1,-65.7 361.44,-60.95"/>
<polygon fill="#63b8ff" stroke="#63b8ff" points="362.19,-64.37 371.19,-58.78 360.67,-57.53 362.19,-64.37"/>
</a>
</g>
</g>
<!-- Node8&#45;&gt;Node7 -->
<g id="edge9_Node000008_Node000007" class="edge">
<title>Node8&#45;&gt;Node7</title>
<g id="a_edge9_Node000008_Node000007"><a xlink:title=" ">
<path fill="none" stroke="#63b8ff" d="M297.81,-48C306.12,-48 315,-48 324.04,-48"/>
<polygon fill="#63b8ff" stroke="#63b8ff" points="324.03,-51.5 334.03,-48 324.03,-44.5 324.03,-51.5"/>
</a>
</g>
</g>
<!-- Node9&#45;&gt;Node7 -->
<g id="edge11_Node000009_Node000007" class="edge">
<title>Node9&#45;&gt;Node7</title>
<g id="a_edge11_Node000009_Node000007"><a xlink:title=" ">
<path fill="none" stroke="#63b8ff" d="M291.96,-19.59C313.1,-24.29 338.87,-30.03 361.71,-35.11"/>
<polygon fill="#63b8ff" stroke="#63b8ff" points="360.65,-38.46 371.17,-37.22 362.17,-31.63 360.65,-38.46"/>
</a>
</g>
</g>
</g>
</svg>
