<?xml version="1.0" encoding="UTF-8" standalone="no"?>
<!DOCTYPE svg PUBLIC "-//W3C//DTD SVG 1.1//EN"
 "http://www.w3.org/Graphics/SVG/1.1/DTD/svg11.dtd">
<!-- Generated by graphviz version 9.0.0 (20230911.1827)
 -->
<!-- Title: Win32Application::WindowProc Pages: 1 -->
<!--zoomable 465 -->

<svg id="main" version="1.1" xmlns="http://www.w3.org/2000/svg" xmlns:xlink="http://www.w3.org/1999/xlink" xml:space="preserve" onload="init(evt)">
<style type="text/css"><![CDATA[
.node, .edge {opacity: 0.7;}
.node.selected, .edge.selected {opacity: 1;}
.edge:hover path { stroke: red; }
.edge:hover polygon { stroke: red; fill: red; }
]]></style>

<defs>
  <circle id="rim" cx="0" cy="0" r="7"/>
  <circle id="rim2" cx="0" cy="0" r="3.5"/>
  <g id="zoomPlus">
    <use xlink:href="#rim" fill="#404040"><set attributeName="fill" to="#808080" begin="zoomplus.mouseover" end="zoomplus.mouseout"/></use>
    <path d="M-4,0h8M0,-4v8" fill="none" stroke="white" stroke-width="1.5" pointer-events="none"/>
  </g>
  <g id="zoomMin">
    <use xlink:href="#rim" fill="#404040"><set attributeName="fill" to="#808080" begin="zoomminus.mouseover" end="zoomminus.mouseout"/></use>
    <path d="M-4,0h8" fill="none" stroke="white" stroke-width="1.5" pointer-events="none"/>
  </g>
  <g id="arrowUp" transform="translate(30 24)">
    <use xlink:href="#rim"/>
    <path pointer-events="none" fill="none" stroke="white" stroke-width="1.5" d="M0,-3.0v7 M-2.5,-0.5L0,-3.0L2.5,-0.5"/>
  </g>
  <g id="arrowRight" transform="rotate(90) translate(36 -43)">
    <use xlink:href="#rim"/>
    <path pointer-events="none" fill="none" stroke="white" stroke-width="1.5" d="M0,-3.0v7 M-2.5,-0.5L0,-3.0L2.5,-0.5"/>
  </g>
  <g id="arrowDown" transform="rotate(180) translate(-30 -48)">
    <use xlink:href="#rim"/>
    <path pointer-events="none" fill="none" stroke="white" stroke-width="1.5" d="M0,-3.0v7 M-2.5,-0.5L0,-3.0L2.5,-0.5"/>
  </g>
  <g id="arrowLeft" transform="rotate(270) translate(-36 17)">
    <use xlink:href="#rim"/>
    <path pointer-events="none" fill="none" stroke="white" stroke-width="1.5" d="M0,-3.0v7 M-2.5,-0.5L0,-3.0L2.5,-0.5"/>
  </g>
  <g id="resetDef">
    <use xlink:href="#rim2" fill="#404040"><set attributeName="fill" to="#808080" begin="reset.mouseover" end="reset.mouseout"/></use>
  </g>
</defs>
<script type="application/ecmascript">
var viewWidth = 1205;
var viewHeight = 465;
var sectionId = 'dynsection-6';
</script>
<script type="application/ecmascript" xlink:href="svg.min.js"/>
<svg id="graph" class="graph">
<g id="viewport">
<title>Win32Application::WindowProc</title>
<!-- Node1 -->
<g id="Node000001" class="node">
<title>Node1</title>
<g id="a_Node000001"><a xlink:title=" ">
<polygon fill="#999999" stroke="#666666" points="152.5,-191 0,-191 0,-171 152.5,-171 152.5,-191"/>
<text text-anchor="middle" x="76.25" y="-177.5" font-family="Helvetica,sans-Serif" font-size="10.00">Win32Application::WindowProc</text>
</a>
</g>
</g>
<!-- Node2 -->
<g id="Node000002" class="node">
<title>Node2</title>
<g id="a_Node000002"><a xlink:href="class_direct_x_manager.html#a7f652b8737c1a55544f67b19b19f4d6a" target="_top" xlink:title=" ">
<polygon fill="white" stroke="#666666" points="356.38,-305 196.38,-305 196.38,-285 356.38,-285 356.38,-305"/>
<text text-anchor="middle" x="276.38" y="-291.5" font-family="Helvetica,sans-Serif" font-size="10.00">DirectXManager::handleKeyDown</text>
</a>
</g>
</g>
<!-- Node1&#45;&gt;Node2 -->
<g id="edge1_Node000001_Node000002" class="edge">
<title>Node1&#45;&gt;Node2</title>
<g id="a_edge1_Node000001_Node000002"><a xlink:title=" ">
<path fill="none" stroke="#63b8ff" d="M86.17,-191.47C103.66,-211.27 144.6,-254.19 188.5,-276 192.17,-277.82 196.02,-279.47 199.96,-280.97"/>
<polygon fill="#63b8ff" stroke="#63b8ff" points="198.55,-284.18 209.14,-284.08 200.79,-277.55 198.55,-284.18"/>
</a>
</g>
</g>
<!-- Node11 -->
<g id="Node000011" class="node">
<title>Node11</title>
<g id="a_Node000011"><a xlink:href="class_direct_x_manager.html#a21aa12e9c419900fc6f84f4c1b90d38e" target="_top" xlink:title=" ">
<polygon fill="white" stroke="#666666" points="350.38,-267 202.38,-267 202.38,-247 350.38,-247 350.38,-267"/>
<text text-anchor="middle" x="276.38" y="-253.5" font-family="Helvetica,sans-Serif" font-size="10.00">DirectXManager::handleKeyUp</text>
</a>
</g>
</g>
<!-- Node1&#45;&gt;Node11 -->
<g id="edge13_Node000001_Node000011" class="edge">
<title>Node1&#45;&gt;Node11</title>
<g id="a_edge13_Node000001_Node000011"><a xlink:title=" ">
<path fill="none" stroke="#63b8ff" d="M93.97,-191.31C115.22,-204 153.36,-225.4 188.5,-238 194.46,-240.14 200.74,-242.08 207.08,-243.83"/>
<polygon fill="#63b8ff" stroke="#63b8ff" points="205.75,-247.1 216.3,-246.22 207.5,-240.32 205.75,-247.1"/>
</a>
</g>
</g>
<!-- Node12 -->
<g id="Node000012" class="node">
<title>Node12</title>
<g id="a_Node000012"><a xlink:href="class_direct_x_manager.html#a4b6ab131def1de37e8af1f66dd64bf14" target="_top" xlink:title=" ">
<polygon fill="white" stroke="#666666" points="355.62,-229 197.12,-229 197.12,-209 355.62,-209 355.62,-229"/>
<text text-anchor="middle" x="276.38" y="-215.5" font-family="Helvetica,sans-Serif" font-size="10.00">DirectXManager::handleLeftDown</text>
</a>
</g>
</g>
<!-- Node1&#45;&gt;Node12 -->
<g id="edge14_Node000001_Node000012" class="edge">
<title>Node1&#45;&gt;Node12</title>
<g id="a_edge14_Node000001_Node000012"><a xlink:title=" ">
<path fill="none" stroke="#63b8ff" d="M131.91,-191.48C156.06,-196.12 184.64,-201.6 209.91,-206.44"/>
<polygon fill="#63b8ff" stroke="#63b8ff" points="208.92,-209.82 219.4,-208.26 210.24,-202.94 208.92,-209.82"/>
</a>
</g>
</g>
<!-- Node16 -->
<g id="Node000016" class="node">
<title>Node16</title>
<g id="a_Node000016"><a xlink:href="class_direct_x_manager.html#abb2f45d41bf579bb5b63d82f14552ec4" target="_top" xlink:title=" ">
<polygon fill="white" stroke="#666666" points="349.62,-153 203.12,-153 203.12,-133 349.62,-133 349.62,-153"/>
<text text-anchor="middle" x="276.38" y="-139.5" font-family="Helvetica,sans-Serif" font-size="10.00">DirectXManager::handleLeftUp</text>
</a>
</g>
</g>
<!-- Node1&#45;&gt;Node16 -->
<g id="edge18_Node000001_Node000016" class="edge">
<title>Node1&#45;&gt;Node16</title>
<g id="a_edge18_Node000001_Node000016"><a xlink:title=" ">
<path fill="none" stroke="#63b8ff" d="M131.91,-170.52C156.06,-165.88 184.64,-160.4 209.91,-155.56"/>
<polygon fill="#63b8ff" stroke="#63b8ff" points="210.24,-159.06 219.4,-153.74 208.92,-152.18 210.24,-159.06"/>
</a>
</g>
</g>
<!-- Node17 -->
<g id="Node000017" class="node">
<title>Node17</title>
<g id="a_Node000017"><a xlink:href="class_direct_x_manager.html#a35b4e0a9102b99107dfde7a0d39d16aa" target="_top" xlink:title=" ">
<polygon fill="white" stroke="#666666" points="358.62,-115 194.12,-115 194.12,-95 358.62,-95 358.62,-115"/>
<text text-anchor="middle" x="276.38" y="-101.5" font-family="Helvetica,sans-Serif" font-size="10.00">DirectXManager::handleLostFocus</text>
</a>
</g>
</g>
<!-- Node1&#45;&gt;Node17 -->
<g id="edge19_Node000001_Node000017" class="edge">
<title>Node1&#45;&gt;Node17</title>
<g id="a_edge19_Node000001_Node000017"><a xlink:title=" ">
<path fill="none" stroke="#63b8ff" d="M93.97,-170.69C115.22,-158 153.36,-136.6 188.5,-124 194.46,-121.86 200.74,-119.92 207.08,-118.17"/>
<polygon fill="#63b8ff" stroke="#63b8ff" points="207.5,-121.68 216.3,-115.78 205.75,-114.9 207.5,-121.68"/>
</a>
</g>
</g>
<!-- Node18 -->
<g id="Node000018" class="node">
<title>Node18</title>
<g id="a_Node000018"><a xlink:href="class_direct_x_manager.html#ab8c1c45c0b3e8140250e8927870f1258" target="_top" xlink:title=" ">
<polygon fill="white" stroke="#666666" points="361.62,-191 191.12,-191 191.12,-171 361.62,-171 361.62,-191"/>
<text text-anchor="middle" x="276.38" y="-177.5" font-family="Helvetica,sans-Serif" font-size="10.00">DirectXManager::handleMouseMove</text>
</a>
</g>
</g>
<!-- Node1&#45;&gt;Node18 -->
<g id="edge20_Node000001_Node000018" class="edge">
<title>Node1&#45;&gt;Node18</title>
<g id="a_edge20_Node000001_Node000018"><a xlink:title=" ">
<path fill="none" stroke="#63b8ff" d="M152.72,-181C161.48,-181 170.51,-181 179.5,-181"/>
<polygon fill="#63b8ff" stroke="#63b8ff" points="179.34,-184.5 189.34,-181 179.34,-177.5 179.34,-184.5"/>
</a>
</g>
</g>
<!-- Node20 -->
<g id="Node000020" class="node">
<title>Node20</title>
<g id="a_Node000020"><a xlink:href="class_direct_x_manager.html#adbd14e0b412bddda9319c094866abfd6" target="_top" xlink:title=" ">
<polygon fill="white" stroke="#666666" points="364.25,-77 188.5,-77 188.5,-57 364.25,-57 364.25,-77"/>
<text text-anchor="middle" x="276.38" y="-63.5" font-family="Helvetica,sans-Serif" font-size="10.00">DirectXManager::handleMouseWheel</text>
</a>
</g>
</g>
<!-- Node1&#45;&gt;Node20 -->
<g id="edge25_Node000001_Node000020" class="edge">
<title>Node1&#45;&gt;Node20</title>
<g id="a_edge25_Node000001_Node000020"><a xlink:title=" ">
<path fill="none" stroke="#63b8ff" d="M86.17,-170.53C103.66,-150.73 144.6,-107.81 188.5,-86 192.17,-84.18 196.02,-82.53 199.96,-81.03"/>
<polygon fill="#63b8ff" stroke="#63b8ff" points="200.79,-84.45 209.14,-77.92 198.55,-77.82 200.79,-84.45"/>
</a>
</g>
</g>
<!-- Node22 -->
<g id="Node000022" class="node">
<title>Node22</title>
<g id="a_Node000022"><a xlink:href="class_direct_x_manager.html#a048268665d6ae0020237dc38917d3e47" target="_top" xlink:title=" ">
<polygon fill="white" stroke="#666666" points="356.75,-39 196,-39 196,-19 356.75,-19 356.75,-39"/>
<text text-anchor="middle" x="276.38" y="-25.5" font-family="Helvetica,sans-Serif" font-size="10.00">DirectXManager::handleSetFocus</text>
</a>
</g>
</g>
<!-- Node1&#45;&gt;Node22 -->
<g id="edge27_Node000001_Node000022" class="edge">
<title>Node1&#45;&gt;Node22</title>
<g id="a_edge27_Node000001_Node000022"><a xlink:title=" ">
<path fill="none" stroke="#63b8ff" d="M82.65,-170.71C96.52,-145.38 135.98,-79.82 188.5,-48 190.98,-46.49 193.57,-45.11 196.24,-43.83"/>
<polygon fill="#63b8ff" stroke="#63b8ff" points="197.54,-47.08 205.42,-40.01 194.85,-40.62 197.54,-47.08"/>
</a>
</g>
</g>
<!-- Node27 -->
<g id="Node000027" class="node">
<title>Node27</title>
<g id="a_Node000027"><a xlink:href="class_direct_x_manager.html#a18eff287d424112f078f38c91cb943d7" target="_top" xlink:title=" ">
<polygon fill="white" stroke="#666666" points="345.5,-419 207.25,-419 207.25,-399 345.5,-399 345.5,-419"/>
<text text-anchor="middle" x="276.38" y="-405.5" font-family="Helvetica,sans-Serif" font-size="10.00">DirectXManager::handleSize</text>
</a>
</g>
</g>
<!-- Node1&#45;&gt;Node27 -->
<g id="edge33_Node000001_Node000027" class="edge">
<title>Node1&#45;&gt;Node27</title>
<g id="a_edge33_Node000001_Node000027"><a xlink:title=" ">
<path fill="none" stroke="#63b8ff" d="M85.75,-191.48C104.17,-214.11 149.26,-269.14 188.5,-314 212.02,-340.89 240.04,-371.24 257.77,-390.24"/>
<polygon fill="#63b8ff" stroke="#63b8ff" points="255.16,-392.58 264.55,-397.49 260.27,-387.79 255.16,-392.58"/>
</a>
</g>
</g>
<!-- Node3 -->
<g id="Node000003" class="node">
<title>Node3</title>
<g id="a_Node000003"><a xlink:href="class_camera.html#a0f1aa347d4142d0a1bbdec93441b2aec" target="_top" xlink:title=" ">
<polygon fill="white" stroke="#666666" points="551.62,-381 447.88,-381 447.88,-361 551.62,-361 551.62,-381"/>
<text text-anchor="middle" x="499.75" y="-367.5" font-family="Helvetica,sans-Serif" font-size="10.00">Camera::AdjustFOV</text>
</a>
</g>
</g>
<!-- Node2&#45;&gt;Node3 -->
<g id="edge2_Node000002_Node000003" class="edge">
<title>Node2&#45;&gt;Node3</title>
<g id="a_edge2_Node000002_Node000003"><a xlink:title=" ">
<path fill="none" stroke="#63b8ff" d="M295.95,-305.37C319.52,-318.11 361.76,-339.57 400.25,-352 411.8,-355.73 424.35,-358.84 436.52,-361.38"/>
<polygon fill="#63b8ff" stroke="#63b8ff" points="435.56,-364.76 446.05,-363.27 436.92,-357.9 435.56,-364.76"/>
</a>
</g>
</g>
<!-- Node7 -->
<g id="Node000007" class="node">
<title>Node7</title>
<g id="a_Node000007"><a xlink:href="class_model.html#aad465ba03d1c753232c59a6c6747b18f" target="_top" xlink:title=" ">
<polygon fill="white" stroke="#666666" points="549,-343 450.5,-343 450.5,-323 549,-323 549,-343"/>
<text text-anchor="middle" x="499.75" y="-329.5" font-family="Helvetica,sans-Serif" font-size="10.00">Model::SetPosition</text>
</a>
</g>
</g>
<!-- Node2&#45;&gt;Node7 -->
<g id="edge7_Node000002_Node000007" class="edge">
<title>Node2&#45;&gt;Node7</title>
<g id="a_edge7_Node000002_Node000007"><a xlink:title=" ">
<path fill="none" stroke="#63b8ff" d="M338.45,-305.48C369.8,-310.86 407.84,-317.39 438.99,-322.74"/>
<polygon fill="#63b8ff" stroke="#63b8ff" points="438.19,-326.16 448.64,-324.4 439.38,-319.26 438.19,-326.16"/>
</a>
</g>
</g>
<!-- Node9 -->
<g id="Node000009" class="node">
<title>Node9</title>
<g id="a_Node000009"><a xlink:href="class_model.html#a57035d77f213ec90ebc355fd9c0d0e05" target="_top" xlink:title=" ">
<polygon fill="white" stroke="#666666" points="549.38,-305 450.12,-305 450.12,-285 549.38,-285 549.38,-305"/>
<text text-anchor="middle" x="499.75" y="-291.5" font-family="Helvetica,sans-Serif" font-size="10.00">Model::SetRotation</text>
</a>
</g>
</g>
<!-- Node2&#45;&gt;Node9 -->
<g id="edge9_Node000002_Node000009" class="edge">
<title>Node2&#45;&gt;Node9</title>
<g id="a_edge9_Node000002_Node000009"><a xlink:title=" ">
<path fill="none" stroke="#63b8ff" d="M356.67,-295C383.68,-295 413.4,-295 438.65,-295"/>
<polygon fill="#63b8ff" stroke="#63b8ff" points="438.39,-298.5 448.39,-295 438.39,-291.5 438.39,-298.5"/>
</a>
</g>
</g>
<!-- Node10 -->
<g id="Node000010" class="node">
<title>Node10</title>
<g id="a_Node000010"><a xlink:href="class_model.html#ac517047da883a877b300c13c2fce17d9" target="_top" xlink:title=" ">
<polygon fill="white" stroke="#666666" points="543.75,-267 455.75,-267 455.75,-247 543.75,-247 543.75,-267"/>
<text text-anchor="middle" x="499.75" y="-253.5" font-family="Helvetica,sans-Serif" font-size="10.00">Model::SetScale</text>
</a>
</g>
</g>
<!-- Node2&#45;&gt;Node10 -->
<g id="edge11_Node000002_Node000010" class="edge">
<title>Node2&#45;&gt;Node10</title>
<g id="a_edge11_Node000002_Node000010"><a xlink:title=" ">
<path fill="none" stroke="#63b8ff" d="M338.45,-284.52C371.65,-278.82 412.36,-271.83 444.44,-266.32"/>
<polygon fill="#63b8ff" stroke="#63b8ff" points="444.65,-269.84 453.92,-264.7 443.47,-262.94 444.65,-269.84"/>
</a>
</g>
</g>
<!-- Node4 -->
<g id="Node000004" class="node">
<title>Node4</title>
<g id="a_Node000004"><a xlink:href="class_camera.html#aa083de8522b4424b0f0943d7e887019e" target="_top" xlink:title=" ">
<polygon fill="white" stroke="#666666" points="770.88,-419 669.38,-419 669.38,-399 770.88,-399 770.88,-419"/>
<text text-anchor="middle" x="720.12" y="-405.5" font-family="Helvetica,sans-Serif" font-size="10.00">Camera::calculateP</text>
</a>
</g>
</g>
<!-- Node3&#45;&gt;Node4 -->
<g id="edge3_Node000003_Node000004" class="edge">
<title>Node3&#45;&gt;Node4</title>
<g id="a_edge3_Node000003_Node000004"><a xlink:title=" ">
<path fill="none" stroke="#63b8ff" d="M551.95,-379.91C583.66,-385.43 624.57,-392.55 657.98,-398.36"/>
<polygon fill="#63b8ff" stroke="#63b8ff" points="657.06,-401.75 667.51,-400.02 658.26,-394.86 657.06,-401.75"/>
</a>
</g>
</g>
<!-- Node5 -->
<g id="Node000005" class="node">
<title>Node5</title>
<g id="a_Node000005"><a xlink:href="class_camera.html#aeffd7e25c1d933ac532ac3679d84ee4b" target="_top" xlink:title=" ">
<polygon fill="white" stroke="#666666" points="961.62,-400 862.38,-400 862.38,-380 961.62,-380 961.62,-400"/>
<text text-anchor="middle" x="912" y="-386.5" font-family="Helvetica,sans-Serif" font-size="10.00">Camera::toRadians</text>
</a>
</g>
</g>
<!-- Node3&#45;&gt;Node5 -->
<g id="edge6_Node000003_Node000005" class="edge">
<title>Node3&#45;&gt;Node5</title>
<g id="a_edge6_Node000003_Node000005"><a xlink:title=" ">
<path fill="none" stroke="#63b8ff" d="M551.88,-373.37C627.73,-376.88 769.79,-383.46 850.64,-387.2"/>
<polygon fill="#63b8ff" stroke="#63b8ff" points="850.45,-390.7 860.6,-387.67 850.77,-383.71 850.45,-390.7"/>
</a>
</g>
</g>
<!-- Node6 -->
<g id="Node000006" class="node">
<title>Node6</title>
<g id="a_Node000006"><a xlink:href="class_camera.html#a42ce8c5aa081254cd0b0fcf12b7d54da" target="_top" xlink:title=" ">
<polygon fill="white" stroke="#666666" points="770.12,-343 670.12,-343 670.12,-323 770.12,-323 770.12,-343"/>
<text text-anchor="middle" x="720.12" y="-329.5" font-family="Helvetica,sans-Serif" font-size="10.00">Camera::toDegrees</text>
</a>
</g>
</g>
<!-- Node3&#45;&gt;Node6 -->
<g id="edge5_Node000003_Node000006" class="edge">
<title>Node3&#45;&gt;Node6</title>
<g id="a_edge5_Node000003_Node000006"><a xlink:title=" ">
<path fill="none" stroke="#63b8ff" d="M551.95,-362.09C583.89,-356.53 625.15,-349.35 658.7,-343.52"/>
<polygon fill="#63b8ff" stroke="#63b8ff" points="659.01,-347.01 668.26,-341.85 657.81,-340.12 659.01,-347.01"/>
</a>
</g>
</g>
<!-- Node4&#45;&gt;Node5 -->
<g id="edge4_Node000004_Node000005" class="edge">
<title>Node4&#45;&gt;Node5</title>
<g id="a_edge4_Node000004_Node000005"><a xlink:title=" ">
<path fill="none" stroke="#63b8ff" d="M771.01,-404.01C795.51,-401.56 825.23,-398.58 850.97,-396.01"/>
<polygon fill="#63b8ff" stroke="#63b8ff" points="850.99,-399.52 860.6,-395.04 850.3,-392.56 850.99,-399.52"/>
</a>
</g>
</g>
<!-- Node8 -->
<g id="Node000008" class="node">
<title>Node8</title>
<g id="a_Node000008"><a xlink:href="class_model.html#ade9b21ed1f4b5073186f4246d2727d9a" target="_top" xlink:title=" ">
<polygon fill="white" stroke="#666666" points="805,-305 635.25,-305 635.25,-285 805,-285 805,-305"/>
<text text-anchor="middle" x="720.12" y="-291.5" font-family="Helvetica,sans-Serif" font-size="10.00">Model::UpdateTransformationMatrix</text>
</a>
</g>
</g>
<!-- Node7&#45;&gt;Node8 -->
<g id="edge8_Node000007_Node000008" class="edge">
<title>Node7&#45;&gt;Node8</title>
<g id="a_edge8_Node000007_Node000008"><a xlink:title=" ">
<path fill="none" stroke="#63b8ff" d="M549.49,-324.52C578.38,-319.49 615.53,-313.03 647.7,-307.43"/>
<polygon fill="#63b8ff" stroke="#63b8ff" points="648.1,-310.91 657.35,-305.75 646.9,-304.02 648.1,-310.91"/>
</a>
</g>
</g>
<!-- Node9&#45;&gt;Node8 -->
<g id="edge10_Node000009_Node000008" class="edge">
<title>Node9&#45;&gt;Node8</title>
<g id="a_edge10_Node000009_Node000008"><a xlink:title=" ">
<path fill="none" stroke="#63b8ff" d="M549.76,-295C571.67,-295 598.27,-295 623.85,-295"/>
<polygon fill="#63b8ff" stroke="#63b8ff" points="623.6,-298.5 633.6,-295 623.6,-291.5 623.6,-298.5"/>
</a>
</g>
</g>
<!-- Node10&#45;&gt;Node8 -->
<g id="edge12_Node000010_Node000008" class="edge">
<title>Node10&#45;&gt;Node8</title>
<g id="a_edge12_Node000010_Node000008"><a xlink:title=" ">
<path fill="none" stroke="#63b8ff" d="M544.15,-264.55C573.66,-269.69 613.38,-276.6 647.51,-282.54"/>
<polygon fill="#63b8ff" stroke="#63b8ff" points="646.91,-285.99 657.36,-284.25 648.11,-279.09 646.91,-285.99"/>
</a>
</g>
</g>
<!-- Node13 -->
<g id="Node000013" class="node">
<title>Node13</title>
<g id="a_Node000013"><a xlink:href="class_graphics_device.html#a28350dcab3e8059d360079f277649067" target="_top" xlink:title=" ">
<polygon fill="white" stroke="#666666" points="567.38,-229 432.12,-229 432.12,-209 567.38,-209 567.38,-229"/>
<text text-anchor="middle" x="499.75" y="-215.5" font-family="Helvetica,sans-Serif" font-size="10.00">GraphicsDevice::GetHWND</text>
</a>
</g>
</g>
<!-- Node12&#45;&gt;Node13 -->
<g id="edge15_Node000012_Node000013" class="edge">
<title>Node12&#45;&gt;Node13</title>
<g id="a_edge15_Node000012_Node000013"><a xlink:title=" ">
<path fill="none" stroke="#63b8ff" d="M356.05,-219C376.91,-219 399.44,-219 420.3,-219"/>
<polygon fill="#63b8ff" stroke="#63b8ff" points="420.18,-222.5 430.18,-219 420.18,-215.5 420.18,-222.5"/>
</a>
</g>
</g>
<!-- Node14 -->
<g id="Node000014" class="node">
<title>Node14</title>
<g id="a_Node000014"><a xlink:href="class_graphics_device.html#afb2cef3f85e50972191d7b44e598493c" target="_top" xlink:title=" ">
<polygon fill="white" stroke="#666666" points="583.5,-191 416,-191 416,-171 583.5,-171 583.5,-191"/>
<text text-anchor="middle" x="499.75" y="-177.5" font-family="Helvetica,sans-Serif" font-size="10.00">GraphicsDevice::GetWindowHeight</text>
</a>
</g>
</g>
<!-- Node12&#45;&gt;Node14 -->
<g id="edge16_Node000012_Node000014" class="edge">
<title>Node12&#45;&gt;Node14</title>
<g id="a_edge16_Node000012_Node000014"><a xlink:title=" ">
<path fill="none" stroke="#63b8ff" d="M338.45,-208.52C365.79,-203.82 398.23,-198.26 426.74,-193.36"/>
<polygon fill="#63b8ff" stroke="#63b8ff" points="427.12,-196.85 436.38,-191.71 425.93,-189.95 427.12,-196.85"/>
</a>
</g>
</g>
<!-- Node15 -->
<g id="Node000015" class="node">
<title>Node15</title>
<g id="a_Node000015"><a xlink:href="class_graphics_device.html#a9ce4e3a7ea6a35ded13381fb7c55a027" target="_top" xlink:title=" ">
<polygon fill="white" stroke="#666666" points="582.38,-153 417.12,-153 417.12,-133 582.38,-133 582.38,-153"/>
<text text-anchor="middle" x="499.75" y="-139.5" font-family="Helvetica,sans-Serif" font-size="10.00">GraphicsDevice::GetWindowWidth</text>
</a>
</g>
</g>
<!-- Node12&#45;&gt;Node15 -->
<g id="edge17_Node000012_Node000015" class="edge">
<title>Node12&#45;&gt;Node15</title>
<g id="a_edge17_Node000012_Node000015"><a xlink:title=" ">
<path fill="none" stroke="#63b8ff" d="M344.81,-208.51C351.59,-206.22 358.2,-203.42 364.25,-200 384.51,-188.56 379.85,-173.18 400.25,-162 403.28,-160.34 406.44,-158.82 409.68,-157.43"/>
<polygon fill="#63b8ff" stroke="#63b8ff" points="410.73,-160.77 418.85,-153.97 408.26,-154.22 410.73,-160.77"/>
</a>
</g>
</g>
<!-- Node18&#45;&gt;Node13 -->
<g id="edge21_Node000018_Node000013" class="edge">
<title>Node18&#45;&gt;Node13</title>
<g id="a_edge21_Node000018_Node000013"><a xlink:title=" ">
<path fill="none" stroke="#63b8ff" d="M338.45,-191.48C365.79,-196.18 398.23,-201.74 426.74,-206.64"/>
<polygon fill="#63b8ff" stroke="#63b8ff" points="425.93,-210.05 436.38,-208.29 427.12,-203.15 425.93,-210.05"/>
</a>
</g>
</g>
<!-- Node18&#45;&gt;Node14 -->
<g id="edge22_Node000018_Node000014" class="edge">
<title>Node18&#45;&gt;Node14</title>
<g id="a_edge22_Node000018_Node000014"><a xlink:title=" ">
<path fill="none" stroke="#63b8ff" d="M362.01,-181C375.88,-181 390.33,-181 404.42,-181"/>
<polygon fill="#63b8ff" stroke="#63b8ff" points="404.11,-184.5 414.11,-181 404.11,-177.5 404.11,-184.5"/>
</a>
</g>
</g>
<!-- Node18&#45;&gt;Node15 -->
<g id="edge23_Node000018_Node000015" class="edge">
<title>Node18&#45;&gt;Node15</title>
<g id="a_edge23_Node000018_Node000015"><a xlink:title=" ">
<path fill="none" stroke="#63b8ff" d="M338.45,-170.52C365.79,-165.82 398.23,-160.26 426.74,-155.36"/>
<polygon fill="#63b8ff" stroke="#63b8ff" points="427.12,-158.85 436.38,-153.71 425.93,-151.95 427.12,-158.85"/>
</a>
</g>
</g>
<!-- Node19 -->
<g id="Node000019" class="node">
<title>Node19</title>
<g id="a_Node000019"><a xlink:href="class_camera.html#ae8a25589ce2d2c2211f33dbeb4c640cf" target="_top" xlink:title=" ">
<polygon fill="white" stroke="#666666" points="541.88,-115 457.62,-115 457.62,-95 541.88,-95 541.88,-115"/>
<text text-anchor="middle" x="499.75" y="-101.5" font-family="Helvetica,sans-Serif" font-size="10.00">Camera::Rotate</text>
</a>
</g>
</g>
<!-- Node18&#45;&gt;Node19 -->
<g id="edge24_Node000018_Node000019" class="edge">
<title>Node18&#45;&gt;Node19</title>
<g id="a_edge24_Node000018_Node000019"><a xlink:title=" ">
<path fill="none" stroke="#63b8ff" d="M344.81,-170.51C351.59,-168.22 358.2,-165.42 364.25,-162 384.51,-150.56 379.85,-135.18 400.25,-124 414.26,-116.32 430.88,-111.7 446.43,-108.94"/>
<polygon fill="#63b8ff" stroke="#63b8ff" points="446.67,-112.45 456.03,-107.47 445.61,-105.53 446.67,-112.45"/>
</a>
</g>
</g>
<!-- Node21 -->
<g id="Node000021" class="node">
<title>Node21</title>
<g id="a_Node000021"><a xlink:href="class_camera.html#a578a39fe4e78f602f0c353a82c6587a4" target="_top" xlink:title=" ">
<polygon fill="white" stroke="#666666" points="539.62,-77 459.88,-77 459.88,-57 539.62,-57 539.62,-77"/>
<text text-anchor="middle" x="499.75" y="-63.5" font-family="Helvetica,sans-Serif" font-size="10.00">Camera::Zoom</text>
</a>
</g>
</g>
<!-- Node20&#45;&gt;Node21 -->
<g id="edge26_Node000020_Node000021" class="edge">
<title>Node20&#45;&gt;Node21</title>
<g id="a_edge26_Node000020_Node000021"><a xlink:title=" ">
<path fill="none" stroke="#63b8ff" d="M364.55,-67C392.96,-67 423.54,-67 448.32,-67"/>
<polygon fill="#63b8ff" stroke="#63b8ff" points="448.11,-70.5 458.11,-67 448.11,-63.5 448.11,-70.5"/>
</a>
</g>
</g>
<!-- Node23 -->
<g id="Node000023" class="node">
<title>Node23</title>
<g id="a_Node000023"><a xlink:href="class_shader_manager.html#a6eefb74e7cf9795b75f018a6e64ba931" target="_top" xlink:title=" ">
<polygon fill="white" stroke="#666666" points="599.25,-39 400.25,-39 400.25,-19 599.25,-19 599.25,-39"/>
<text text-anchor="middle" x="499.75" y="-25.5" font-family="Helvetica,sans-Serif" font-size="10.00">ShaderManager::CheckForShaderUpdates</text>
</a>
</g>
</g>
<!-- Node22&#45;&gt;Node23 -->
<g id="edge28_Node000022_Node000023" class="edge">
<title>Node22&#45;&gt;Node23</title>
<g id="a_edge28_Node000022_Node000023"><a xlink:title=" ">
<path fill="none" stroke="#63b8ff" d="M356.98,-29C367.18,-29 377.76,-29 388.33,-29"/>
<polygon fill="#63b8ff" stroke="#63b8ff" points="388.27,-32.5 398.27,-29 388.27,-25.5 388.27,-32.5"/>
</a>
</g>
</g>
<!-- Node24 -->
<g id="Node000024" class="node">
<title>Node24</title>
<g id="a_Node000024"><a xlink:href="class_shader_manager.html#ac6e7ac40f579b9ff0d44c91379e5e631" target="_top" xlink:title=" ">
<polygon fill="white" stroke="#666666" points="795.62,-39 644.62,-39 644.62,-19 795.62,-19 795.62,-39"/>
<text text-anchor="middle" x="720.12" y="-25.5" font-family="Helvetica,sans-Serif" font-size="10.00">ShaderManager::ReloadShader</text>
</a>
</g>
</g>
<!-- Node23&#45;&gt;Node24 -->
<g id="edge29_Node000023_Node000024" class="edge">
<title>Node23&#45;&gt;Node24</title>
<g id="a_edge29_Node000023_Node000024"><a xlink:title=" ">
<path fill="none" stroke="#63b8ff" d="M599.71,-29C610.85,-29 622.14,-29 633.09,-29"/>
<polygon fill="#63b8ff" stroke="#63b8ff" points="632.86,-32.5 642.86,-29 632.86,-25.5 632.86,-32.5"/>
</a>
</g>
</g>
<!-- Node25 -->
<g id="Node000025" class="node">
<title>Node25</title>
<g id="a_Node000025"><a xlink:href="class_shader_manager.html#a9e20b23487904239ee0fce4998585a11" target="_top" xlink:title=" ">
<polygon fill="white" stroke="#666666" points="1197,-39 1019,-39 1019,-19 1197,-19 1197,-39"/>
<text text-anchor="middle" x="1108" y="-25.5" font-family="Helvetica,sans-Serif" font-size="10.00">ShaderManager::GenerateShaderKey</text>
</a>
</g>
</g>
<!-- Node24&#45;&gt;Node25 -->
<g id="edge30_Node000024_Node000025" class="edge">
<title>Node24&#45;&gt;Node25</title>
<g id="a_edge30_Node000024_Node000025"><a xlink:title=" ">
<path fill="none" stroke="#63b8ff" d="M795.98,-29C856.27,-29 941.56,-29 1007.58,-29"/>
<polygon fill="#63b8ff" stroke="#63b8ff" points="1007.32,-32.5 1017.32,-29 1007.32,-25.5 1007.32,-32.5"/>
</a>
</g>
</g>
<!-- Node26 -->
<g id="Node000026" class="node">
<title>Node26</title>
<g id="a_Node000026"><a xlink:href="class_shader_manager.html#a6d8ac1d497a7ae3d1da64456d24b94a3" target="_top" xlink:title=" ">
<polygon fill="white" stroke="#666666" points="983,-20 841,-20 841,0 983,0 983,-20"/>
<text text-anchor="middle" x="912" y="-6.5" font-family="Helvetica,sans-Serif" font-size="10.00">ShaderManager::LoadShader</text>
</a>
</g>
</g>
<!-- Node24&#45;&gt;Node26 -->
<g id="edge31_Node000024_Node000026" class="edge">
<title>Node24&#45;&gt;Node26</title>
<g id="a_edge31_Node000024_Node000026"><a xlink:title=" ">
<path fill="none" stroke="#63b8ff" d="M795.9,-21.52C806.83,-20.42 818.14,-19.29 829.21,-18.18"/>
<polygon fill="#63b8ff" stroke="#63b8ff" points="829.53,-21.67 839.13,-17.19 828.83,-14.71 829.53,-21.67"/>
</a>
</g>
</g>
<!-- Node26&#45;&gt;Node25 -->
<g id="edge32_Node000026_Node000025" class="edge">
<title>Node26&#45;&gt;Node25</title>
<g id="a_edge32_Node000026_Node000025"><a xlink:title=" ">
<path fill="none" stroke="#63b8ff" d="M983.31,-16.89C991.13,-17.65 999.19,-18.44 1007.28,-19.23"/>
<polygon fill="#63b8ff" stroke="#63b8ff" points="1006.9,-22.71 1017.2,-20.2 1007.59,-15.75 1006.9,-22.71"/>
</a>
</g>
</g>
<!-- Node28 -->
<g id="Node000028" class="node">
<title>Node28</title>
<g id="a_Node000028"><a xlink:href="class_camera.html#a7f65f916f0f843b82e1f755ba5eb4858" target="_top" xlink:title=" ">
<polygon fill="white" stroke="#666666" points="570,-419 429.5,-419 429.5,-399 570,-399 570,-419"/>
<text text-anchor="middle" x="499.75" y="-405.5" font-family="Helvetica,sans-Serif" font-size="10.00">Camera::changeAspectRatio</text>
</a>
</g>
</g>
<!-- Node27&#45;&gt;Node28 -->
<g id="edge34_Node000027_Node000028" class="edge">
<title>Node27&#45;&gt;Node28</title>
<g id="a_edge34_Node000027_Node000028"><a xlink:title=" ">
<path fill="none" stroke="#63b8ff" d="M345.9,-409C368.6,-409 394.08,-409 417.63,-409"/>
<polygon fill="#63b8ff" stroke="#63b8ff" points="417.51,-412.5 427.51,-409 417.51,-405.5 417.51,-412.5"/>
</a>
</g>
</g>
<!-- Node29 -->
<g id="Node000029" class="node">
<title>Node29</title>
<g id="a_Node000029"><a xlink:href="class_graphics_device.html#ae5b1ab7f592c08722481bf863204e097" target="_top" xlink:title=" ">
<polygon fill="white" stroke="#666666" points="596.25,-457 403.25,-457 403.25,-437 596.25,-437 596.25,-457"/>
<text text-anchor="middle" x="499.75" y="-443.5" font-family="Helvetica,sans-Serif" font-size="10.00">GraphicsDevice::ResizeBuffersAndViews</text>
</a>
</g>
</g>
<!-- Node27&#45;&gt;Node29 -->
<g id="edge36_Node000027_Node000029" class="edge">
<title>Node27&#45;&gt;Node29</title>
<g id="a_edge36_Node000027_Node000029"><a xlink:title=" ">
<path fill="none" stroke="#63b8ff" d="M338.45,-419.48C365.79,-424.18 398.23,-429.74 426.74,-434.64"/>
<polygon fill="#63b8ff" stroke="#63b8ff" points="425.93,-438.05 436.38,-436.29 427.12,-431.15 425.93,-438.05"/>
</a>
</g>
</g>
<!-- Node28&#45;&gt;Node4 -->
<g id="edge35_Node000028_Node000004" class="edge">
<title>Node28&#45;&gt;Node4</title>
<g id="a_edge35_Node000028_Node000004"><a xlink:title=" ">
<path fill="none" stroke="#63b8ff" d="M570.45,-409C598.52,-409 630.61,-409 657.78,-409"/>
<polygon fill="#63b8ff" stroke="#63b8ff" points="657.58,-412.5 667.58,-409 657.58,-405.5 657.58,-412.5"/>
</a>
</g>
</g>
</g>
</svg>

<g id="navigator" transform="translate(0 0)" fill="#404254">
  <rect fill="#f2f5e9" fill-opacity="0.5" stroke="#606060" stroke-width=".5" x="0" y="0" width="60" height="60"/>
  <use id="zoomplus" xlink:href="#zoomPlus" x="17" y="9" onmousedown="handleZoom(evt,'in')"/>
  <use id="zoomminus" xlink:href="#zoomMin" x="42" y="9" onmousedown="handleZoom(evt,'out')"/>
  <use id="reset" xlink:href="#resetDef" x="30" y="36" onmousedown="handleReset()"/>
   <use id="arrowup" xlink:href="#arrowUp" x="0" y="0" onmousedown="handlePan(0,-1)"/>
  <use id="arrowright" xlink:href="#arrowRight" x="0" y="0" onmousedown="handlePan(1,0)"/>
  <use id="arrowdown" xlink:href="#arrowDown" x="0" y="0" onmousedown="handlePan(0,1)"/>
  <use id="arrowleft" xlink:href="#arrowLeft" x="0" y="0" onmousedown="handlePan(-1,0)"/>
</g>
<svg viewBox="0 0 15 15" width="100%" height="30px" preserveAspectRatio="xMaxYMin meet">
 <g id="arrow_out" transform="scale(0.3 0.3)">
  <a xlink:href="class_win32_application_ae0aa88d9449557e8772fc70c1043e55c_cgraph_org.svg" target="_base">
   <rect id="button" ry="5" rx="5" y="6" x="6" height="38" width="38"
        fill="#f2f5e9" fill-opacity="0.5" stroke="#606060" stroke-width="1.0"/>
   <path id="arrow"
     d="M 11.500037,31.436501 C 11.940474,20.09759 22.043105,11.32322 32.158766,21.979434 L 37.068811,17.246167 C 37.068811,17.246167 37.088388,32 37.088388,32 L 22.160133,31.978069 C 22.160133,31.978069 26.997745,27.140456 26.997745,27.140456 C 18.528582,18.264221 13.291696,25.230495 11.500037,31.436501 z"
     style="fill:#404040;"/>
  </a>
 </g>
</svg>

<style type='text/css'>
<![CDATA[
[data-mouse-over-selected='false'] { opacity: 0.7; }
[data-mouse-over-selected='true']  { opacity: 1.0; }
]]>
</style>
<script type="application/ecmascript"><![CDATA[
document.addEventListener('DOMContentLoaded', (event) => {
  highlightEdges();
  highlightAdjacentNodes();
});
]]></script>
</svg>
