<?xml version="1.0" encoding="UTF-8" standalone="no"?>
<!DOCTYPE svg PUBLIC "-//W3C//DTD SVG 1.1//EN"
 "http://www.w3.org/Graphics/SVG/1.1/DTD/svg11.dtd">
<!-- Generated by graphviz version 9.0.0 (20230911.1827)
 -->
<!-- Title: DirectXManager::Initialize Pages: 1 -->
<!--zoomable 522 -->

<svg id="main" version="1.1" xmlns="http://www.w3.org/2000/svg" xmlns:xlink="http://www.w3.org/1999/xlink" xml:space="preserve" onload="init(evt)">
<style type="text/css"><![CDATA[
.node, .edge {opacity: 0.7;}
.node.selected, .edge.selected {opacity: 1;}
.edge:hover path { stroke: red; }
.edge:hover polygon { stroke: red; fill: red; }
]]></style>

<defs>
  <circle id="rim" cx="0" cy="0" r="7"/>
  <circle id="rim2" cx="0" cy="0" r="3.5"/>
  <g id="zoomPlus">
    <use xlink:href="#rim" fill="#404040"><set attributeName="fill" to="#808080" begin="zoomplus.mouseover" end="zoomplus.mouseout"/></use>
    <path d="M-4,0h8M0,-4v8" fill="none" stroke="white" stroke-width="1.5" pointer-events="none"/>
  </g>
  <g id="zoomMin">
    <use xlink:href="#rim" fill="#404040"><set attributeName="fill" to="#808080" begin="zoomminus.mouseover" end="zoomminus.mouseout"/></use>
    <path d="M-4,0h8" fill="none" stroke="white" stroke-width="1.5" pointer-events="none"/>
  </g>
  <g id="arrowUp" transform="translate(30 24)">
    <use xlink:href="#rim"/>
    <path pointer-events="none" fill="none" stroke="white" stroke-width="1.5" d="M0,-3.0v7 M-2.5,-0.5L0,-3.0L2.5,-0.5"/>
  </g>
  <g id="arrowRight" transform="rotate(90) translate(36 -43)">
    <use xlink:href="#rim"/>
    <path pointer-events="none" fill="none" stroke="white" stroke-width="1.5" d="M0,-3.0v7 M-2.5,-0.5L0,-3.0L2.5,-0.5"/>
  </g>
  <g id="arrowDown" transform="rotate(180) translate(-30 -48)">
    <use xlink:href="#rim"/>
    <path pointer-events="none" fill="none" stroke="white" stroke-width="1.5" d="M0,-3.0v7 M-2.5,-0.5L0,-3.0L2.5,-0.5"/>
  </g>
  <g id="arrowLeft" transform="rotate(270) translate(-36 17)">
    <use xlink:href="#rim"/>
    <path pointer-events="none" fill="none" stroke="white" stroke-width="1.5" d="M0,-3.0v7 M-2.5,-0.5L0,-3.0L2.5,-0.5"/>
  </g>
  <g id="resetDef">
    <use xlink:href="#rim2" fill="#404040"><set attributeName="fill" to="#808080" begin="reset.mouseover" end="reset.mouseout"/></use>
  </g>
</defs>
<script type="application/ecmascript">
var viewWidth = 702;
var viewHeight = 522;
var sectionId = 'dynsection-18';
</script>
<script type="application/ecmascript" xlink:href="svg.min.js"/>
<svg id="graph" class="graph">
<g id="viewport">
<title>DirectXManager::Initialize</title>
<!-- Node1 -->
<g id="Node000001" class="node">
<title>Node1</title>
<g id="a_Node000001"><a xlink:title=" ">
<polygon fill="#999999" stroke="#666666" points="125.5,-267 0,-267 0,-247 125.5,-247 125.5,-267"/>
<text text-anchor="middle" x="62.75" y="-253.5" font-family="Helvetica,sans-Serif" font-size="10.00">DirectXManager::Initialize</text>
</a>
</g>
</g>
<!-- Node2 -->
<g id="Node000002" class="node">
<title>Node2</title>
<g id="a_Node000002"><a xlink:href="class_model.html#a76e392c4b483303b4f750b11422a6b07" target="_top" xlink:title=" ">
<polygon fill="white" stroke="#666666" points="309.5,-514 196.75,-514 196.75,-494 309.5,-494 309.5,-514"/>
<text text-anchor="middle" x="253.12" y="-500.5" font-family="Helvetica,sans-Serif" font-size="10.00">Model::AddMeshEntry</text>
</a>
</g>
</g>
<!-- Node1&#45;&gt;Node2 -->
<g id="edge1_Node000001_Node000002" class="edge">
<title>Node1&#45;&gt;Node2</title>
<g id="a_edge1_Node000001_Node000002"><a xlink:title=" ">
<path fill="none" stroke="#63b8ff" d="M64.83,-267.14C69.23,-303.13 89.2,-425.78 161.5,-485 168.57,-490.79 176.98,-494.95 185.77,-497.91"/>
<polygon fill="#63b8ff" stroke="#63b8ff" points="184.6,-501.22 195.17,-500.55 186.49,-494.48 184.6,-501.22"/>
</a>
</g>
</g>
<!-- Node4 -->
<g id="Node000004" class="node">
<title>Node4</title>
<g id="a_Node000004"><a xlink:href="class_direct_x_manager.html#aa0dc645dbe7cf4b07dae99c226bd7e69" target="_top" xlink:title=" ">
<polygon fill="white" stroke="#666666" points="320,-476 186.25,-476 186.25,-456 320,-456 320,-476"/>
<text text-anchor="middle" x="253.12" y="-462.5" font-family="Helvetica,sans-Serif" font-size="10.00">DirectXManager::AddModel</text>
</a>
</g>
</g>
<!-- Node1&#45;&gt;Node4 -->
<g id="edge3_Node000001_Node000004" class="edge">
<title>Node1&#45;&gt;Node4</title>
<g id="a_edge3_Node000001_Node000004"><a xlink:title=" ">
<path fill="none" stroke="#63b8ff" d="M65.78,-267.23C72.72,-299.38 98.65,-399.11 161.5,-447 165.83,-450.3 170.59,-453.06 175.61,-455.36"/>
<polygon fill="#63b8ff" stroke="#63b8ff" points="174.19,-458.56 184.78,-458.93 176.73,-452.04 174.19,-458.56"/>
</a>
</g>
</g>
<!-- Node7 -->
<g id="Node000007" class="node">
<title>Node7</title>
<g id="a_Node000007"><a xlink:href="class_render_state.html#ab938b7da898b9cfd20e42c64788e4b9e" target="_top" xlink:title=" ">
<polygon fill="white" stroke="#666666" points="331.62,-438 174.62,-438 174.62,-418 331.62,-418 331.62,-438"/>
<text text-anchor="middle" x="253.12" y="-424.5" font-family="Helvetica,sans-Serif" font-size="10.00">RenderState::CreateBlendFactor</text>
</a>
</g>
</g>
<!-- Node1&#45;&gt;Node7 -->
<g id="edge6_Node000001_Node000007" class="edge">
<title>Node1&#45;&gt;Node7</title>
<g id="a_edge6_Node000001_Node000007"><a xlink:title=" ">
<path fill="none" stroke="#63b8ff" d="M67.1,-267.12C76.81,-294.78 107.75,-371.99 161.5,-409 163.47,-410.35 165.51,-411.61 167.61,-412.79"/>
<polygon fill="#63b8ff" stroke="#63b8ff" points="165.94,-415.87 176.48,-417.02 168.96,-409.55 165.94,-415.87"/>
</a>
</g>
</g>
<!-- Node8 -->
<g id="Node000008" class="node">
<title>Node8</title>
<g id="a_Node000008"><a xlink:href="class_render_state.html#a34866fd1c1dae97ee540b0cbc8de1107" target="_top" xlink:title=" ">
<polygon fill="white" stroke="#666666" points="329.38,-400 176.88,-400 176.88,-380 329.38,-380 329.38,-400"/>
<text text-anchor="middle" x="253.12" y="-386.5" font-family="Helvetica,sans-Serif" font-size="10.00">RenderState::CreateBlendState</text>
</a>
</g>
</g>
<!-- Node1&#45;&gt;Node8 -->
<g id="edge7_Node000001_Node000008" class="edge">
<title>Node1&#45;&gt;Node8</title>
<g id="a_edge7_Node000001_Node000008"><a xlink:title=" ">
<path fill="none" stroke="#63b8ff" d="M69.29,-267.17C82.21,-289.8 116.63,-344.45 161.5,-371 164.13,-372.56 166.88,-373.99 169.7,-375.3"/>
<polygon fill="#63b8ff" stroke="#63b8ff" points="168.21,-378.48 178.8,-379 170.85,-372 168.21,-378.48"/>
</a>
</g>
</g>
<!-- Node10 -->
<g id="Node000010" class="node">
<title>Node10</title>
<g id="a_Node000010"><a xlink:href="class_render_state.html#a21c1b758a9c8766a09aa6131b789c169" target="_top" xlink:title=" ">
<polygon fill="white" stroke="#666666" points="344.75,-362 161.5,-362 161.5,-342 344.75,-342 344.75,-362"/>
<text text-anchor="middle" x="253.12" y="-348.5" font-family="Helvetica,sans-Serif" font-size="10.00">RenderState::CreateDepthStencilState</text>
</a>
</g>
</g>
<!-- Node1&#45;&gt;Node10 -->
<g id="edge9_Node000001_Node000010" class="edge">
<title>Node1&#45;&gt;Node10</title>
<g id="a_edge9_Node000001_Node000010"><a xlink:title=" ">
<path fill="none" stroke="#63b8ff" d="M73.81,-267.44C90.44,-284.04 125.41,-316.29 161.5,-333 165.68,-334.94 170.07,-336.68 174.56,-338.25"/>
<polygon fill="#63b8ff" stroke="#63b8ff" points="173.14,-341.47 183.72,-341.14 175.24,-334.79 173.14,-341.47"/>
</a>
</g>
</g>
<!-- Node11 -->
<g id="Node000011" class="node">
<title>Node11</title>
<g id="a_Node000011"><a xlink:href="class_render_state.html#ade03bd42f99c8e55dfd9d23673e27788" target="_top" xlink:title=" ">
<polygon fill="white" stroke="#666666" points="339.12,-324 167.12,-324 167.12,-304 339.12,-304 339.12,-324"/>
<text text-anchor="middle" x="253.12" y="-310.5" font-family="Helvetica,sans-Serif" font-size="10.00">RenderState::CreateRasterizerState</text>
</a>
</g>
</g>
<!-- Node1&#45;&gt;Node11 -->
<g id="edge11_Node000001_Node000011" class="edge">
<title>Node1&#45;&gt;Node11</title>
<g id="a_edge11_Node000001_Node000011"><a xlink:title=" ">
<path fill="none" stroke="#63b8ff" d="M87.47,-267.49C107.03,-275.83 135.67,-287.33 161.5,-295 168.75,-297.15 176.39,-299.16 184.04,-300.99"/>
<polygon fill="#63b8ff" stroke="#63b8ff" points="183.2,-304.39 193.73,-303.22 184.77,-297.57 183.2,-304.39"/>
</a>
</g>
</g>
<!-- Node12 -->
<g id="Node000012" class="node">
<title>Node12</title>
<g id="a_Node000012"><a xlink:href="class_render_state.html#a08e958035458e17abf37c1427f541625" target="_top" xlink:title=" ">
<polygon fill="white" stroke="#666666" points="335,-286 171.25,-286 171.25,-266 335,-266 335,-286"/>
<text text-anchor="middle" x="253.12" y="-272.5" font-family="Helvetica,sans-Serif" font-size="10.00">RenderState::CreateSamplerState</text>
</a>
</g>
</g>
<!-- Node1&#45;&gt;Node12 -->
<g id="edge13_Node000001_Node000012" class="edge">
<title>Node1&#45;&gt;Node12</title>
<g id="a_edge13_Node000001_Node000012"><a xlink:title=" ">
<path fill="none" stroke="#63b8ff" d="M125.95,-263.27C136.72,-264.36 148.13,-265.51 159.5,-266.66"/>
<polygon fill="#63b8ff" stroke="#63b8ff" points="159.03,-270.13 169.33,-267.65 159.73,-263.16 159.03,-270.13"/>
</a>
</g>
</g>
<!-- Node13 -->
<g id="Node000013" class="node">
<title>Node13</title>
<g id="a_Node000013"><a xlink:href="class_graphics_device.html#a9057869a00295c8e75a0ddbd5a1dd288" target="_top" xlink:title=" ">
<polygon fill="white" stroke="#666666" points="315.5,-248 190.75,-248 190.75,-228 315.5,-228 315.5,-248"/>
<text text-anchor="middle" x="253.12" y="-234.5" font-family="Helvetica,sans-Serif" font-size="10.00">GraphicsDevice::Initialize</text>
</a>
</g>
</g>
<!-- Node1&#45;&gt;Node13 -->
<g id="edge15_Node000001_Node000013" class="edge">
<title>Node1&#45;&gt;Node13</title>
<g id="a_edge15_Node000001_Node000013"><a xlink:title=" ">
<path fill="none" stroke="#63b8ff" d="M125.95,-250.73C142.92,-249.01 161.46,-247.14 178.97,-245.38"/>
<polygon fill="#63b8ff" stroke="#63b8ff" points="179.2,-248.87 188.8,-244.39 178.5,-241.91 179.2,-248.87"/>
</a>
</g>
</g>
<!-- Node14 -->
<g id="Node000014" class="node">
<title>Node14</title>
<g id="a_Node000014"><a xlink:href="class_camera.html#a35229a64fcaf1a94a954aabf0b1545d9" target="_top" xlink:title=" ">
<polygon fill="white" stroke="#666666" points="298.62,-172 207.62,-172 207.62,-152 298.62,-152 298.62,-172"/>
<text text-anchor="middle" x="253.12" y="-158.5" font-family="Helvetica,sans-Serif" font-size="10.00">Camera::Initialize</text>
</a>
</g>
</g>
<!-- Node1&#45;&gt;Node14 -->
<g id="edge16_Node000001_Node000014" class="edge">
<title>Node1&#45;&gt;Node14</title>
<g id="a_edge16_Node000001_Node000014"><a xlink:title=" ">
<path fill="none" stroke="#63b8ff" d="M73.81,-246.56C90.44,-229.96 125.41,-197.71 161.5,-181 172.33,-175.98 184.51,-172.28 196.33,-169.54"/>
<polygon fill="#63b8ff" stroke="#63b8ff" points="196.95,-172.99 206.03,-167.52 195.52,-166.14 196.95,-172.99"/>
</a>
</g>
</g>
<!-- Node18 -->
<g id="Node000018" class="node">
<title>Node18</title>
<g id="a_Node000018"><a xlink:href="class_shader_manager.html#a6d8ac1d497a7ae3d1da64456d24b94a3" target="_top" xlink:title=" ">
<polygon fill="white" stroke="#666666" points="324.12,-134 182.12,-134 182.12,-114 324.12,-114 324.12,-134"/>
<text text-anchor="middle" x="253.12" y="-120.5" font-family="Helvetica,sans-Serif" font-size="10.00">ShaderManager::LoadShader</text>
</a>
</g>
</g>
<!-- Node1&#45;&gt;Node18 -->
<g id="edge20_Node000001_Node000018" class="edge">
<title>Node1&#45;&gt;Node18</title>
<g id="a_edge20_Node000001_Node000018"><a xlink:title=" ">
<path fill="none" stroke="#63b8ff" d="M69.29,-246.83C82.21,-224.2 116.63,-169.55 161.5,-143 164.68,-141.12 168.02,-139.42 171.47,-137.89"/>
<polygon fill="#63b8ff" stroke="#63b8ff" points="172.6,-141.2 180.66,-134.32 170.07,-134.68 172.6,-141.2"/>
</a>
</g>
</g>
<!-- Node20 -->
<g id="Node000020" class="node">
<title>Node20</title>
<g id="a_Node000020"><a xlink:href="class_material.html#a5b84673f2855d9b0cc9e75b3f18cbc38" target="_top" xlink:title=" ">
<polygon fill="white" stroke="#666666" points="308,-210 198.25,-210 198.25,-190 308,-190 308,-210"/>
<text text-anchor="middle" x="253.12" y="-196.5" font-family="Helvetica,sans-Serif" font-size="10.00">Material::LoadTexture</text>
</a>
</g>
</g>
<!-- Node1&#45;&gt;Node20 -->
<g id="edge22_Node000001_Node000020" class="edge">
<title>Node1&#45;&gt;Node20</title>
<g id="a_edge22_Node000001_Node000020"><a xlink:title=" ">
<path fill="none" stroke="#63b8ff" d="M87.47,-246.51C107.03,-238.17 135.67,-226.67 161.5,-219 169.64,-216.58 178.29,-214.35 186.88,-212.34"/>
<polygon fill="#63b8ff" stroke="#63b8ff" points="187.63,-215.75 196.61,-210.14 186.09,-208.93 187.63,-215.75"/>
</a>
</g>
</g>
<!-- Node21 -->
<g id="Node000021" class="node">
<title>Node21</title>
<g id="a_Node000021"><a xlink:href="class_model.html#aad465ba03d1c753232c59a6c6747b18f" target="_top" xlink:title=" ">
<polygon fill="white" stroke="#666666" points="302.38,-96 203.88,-96 203.88,-76 302.38,-76 302.38,-96"/>
<text text-anchor="middle" x="253.12" y="-82.5" font-family="Helvetica,sans-Serif" font-size="10.00">Model::SetPosition</text>
</a>
</g>
</g>
<!-- Node1&#45;&gt;Node21 -->
<g id="edge24_Node000001_Node000021" class="edge">
<title>Node1&#45;&gt;Node21</title>
<g id="a_edge24_Node000001_Node000021"><a xlink:title=" ">
<path fill="none" stroke="#63b8ff" d="M67.1,-246.88C76.81,-219.22 107.75,-142.01 161.5,-105 170.74,-98.64 181.67,-94.34 192.68,-91.44"/>
<polygon fill="#63b8ff" stroke="#63b8ff" points="193.19,-94.91 202.19,-89.32 191.67,-88.08 193.19,-94.91"/>
</a>
</g>
</g>
<!-- Node23 -->
<g id="Node000023" class="node">
<title>Node23</title>
<g id="a_Node000023"><a xlink:href="class_model.html#a57035d77f213ec90ebc355fd9c0d0e05" target="_top" xlink:title=" ">
<polygon fill="white" stroke="#666666" points="302.75,-58 203.5,-58 203.5,-38 302.75,-38 302.75,-58"/>
<text text-anchor="middle" x="253.12" y="-44.5" font-family="Helvetica,sans-Serif" font-size="10.00">Model::SetRotation</text>
</a>
</g>
</g>
<!-- Node1&#45;&gt;Node23 -->
<g id="edge26_Node000001_Node000023" class="edge">
<title>Node1&#45;&gt;Node23</title>
<g id="a_edge26_Node000001_Node000023"><a xlink:title=" ">
<path fill="none" stroke="#63b8ff" d="M65.78,-246.77C72.72,-214.62 98.65,-114.89 161.5,-67 170.42,-60.2 181.2,-55.7 192.18,-52.75"/>
<polygon fill="#63b8ff" stroke="#63b8ff" points="192.69,-56.22 201.68,-50.61 191.15,-49.39 192.69,-56.22"/>
</a>
</g>
</g>
<!-- Node24 -->
<g id="Node000024" class="node">
<title>Node24</title>
<g id="a_Node000024"><a xlink:href="class_model.html#ac517047da883a877b300c13c2fce17d9" target="_top" xlink:title=" ">
<polygon fill="white" stroke="#666666" points="297.12,-20 209.12,-20 209.12,0 297.12,0 297.12,-20"/>
<text text-anchor="middle" x="253.12" y="-6.5" font-family="Helvetica,sans-Serif" font-size="10.00">Model::SetScale</text>
</a>
</g>
</g>
<!-- Node1&#45;&gt;Node24 -->
<g id="edge28_Node000001_Node000024" class="edge">
<title>Node1&#45;&gt;Node24</title>
<g id="a_edge28_Node000001_Node000024"><a xlink:title=" ">
<path fill="none" stroke="#63b8ff" d="M64.83,-246.86C69.23,-210.87 89.2,-88.22 161.5,-29 171.7,-20.65 184.66,-15.7 197.56,-12.83"/>
<polygon fill="#63b8ff" stroke="#63b8ff" points="198.11,-16.28 207.33,-11.07 196.87,-9.39 198.11,-16.28"/>
</a>
</g>
</g>
<!-- Node3 -->
<g id="Node000003" class="node">
<title>Node3</title>
<g id="a_Node000003"><a xlink:href="class_mesh.html#a9c0a4771ec3ecb56361b2a0d135f43cd" target="_top" xlink:title=" ">
<polygon fill="white" stroke="#666666" points="527.62,-514 411.88,-514 411.88,-494 527.62,-494 527.62,-514"/>
<text text-anchor="middle" x="469.75" y="-500.5" font-family="Helvetica,sans-Serif" font-size="10.00">Mesh::SetParentModel</text>
</a>
</g>
</g>
<!-- Node2&#45;&gt;Node3 -->
<g id="edge2_Node000002_Node000003" class="edge">
<title>Node2&#45;&gt;Node3</title>
<g id="a_edge2_Node000002_Node000003"><a xlink:title=" ">
<path fill="none" stroke="#63b8ff" d="M309.95,-504C337.59,-504 371.19,-504 400.35,-504"/>
<polygon fill="#63b8ff" stroke="#63b8ff" points="400.19,-507.5 410.19,-504 400.19,-500.5 400.19,-507.5"/>
</a>
</g>
</g>
<!-- Node5 -->
<g id="Node000005" class="node">
<title>Node5</title>
<g id="a_Node000005"><a xlink:href="class_model.html#a186f6681c1544e240439920cd50607c0" target="_top" xlink:title=" ">
<polygon fill="white" stroke="#666666" points="529.12,-476 410.38,-476 410.38,-456 529.12,-456 529.12,-476"/>
<text text-anchor="middle" x="469.75" y="-462.5" font-family="Helvetica,sans-Serif" font-size="10.00">Model::GetMeshEntries</text>
</a>
</g>
</g>
<!-- Node4&#45;&gt;Node5 -->
<g id="edge4_Node000004_Node000005" class="edge">
<title>Node4&#45;&gt;Node5</title>
<g id="a_edge4_Node000004_Node000005"><a xlink:title=" ">
<path fill="none" stroke="#63b8ff" d="M320.27,-466C345.16,-466 373.53,-466 398.75,-466"/>
<polygon fill="#63b8ff" stroke="#63b8ff" points="398.58,-469.5 408.58,-466 398.58,-462.5 398.58,-469.5"/>
</a>
</g>
</g>
<!-- Node6 -->
<g id="Node000006" class="node">
<title>Node6</title>
<g id="a_Node000006"><a xlink:href="class_material.html#a96434cf45f279c51bde30fb55e2706ac" target="_top" xlink:title=" ">
<polygon fill="white" stroke="#666666" points="539.62,-438 399.88,-438 399.88,-418 539.62,-418 539.62,-438"/>
<text text-anchor="middle" x="469.75" y="-424.5" font-family="Helvetica,sans-Serif" font-size="10.00">Material::GetShaderProgram</text>
</a>
</g>
</g>
<!-- Node4&#45;&gt;Node6 -->
<g id="edge5_Node000004_Node000006" class="edge">
<title>Node4&#45;&gt;Node6</title>
<g id="a_edge5_Node000004_Node000006"><a xlink:title=" ">
<path fill="none" stroke="#63b8ff" d="M313.34,-455.52C339.73,-450.84 371.02,-445.3 398.57,-440.43"/>
<polygon fill="#63b8ff" stroke="#63b8ff" points="399,-443.9 408.24,-438.71 397.78,-437.01 399,-443.9"/>
</a>
</g>
</g>
<!-- Node9 -->
<g id="Node000009" class="node">
<title>Node9</title>
<g id="a_Node000009"><a xlink:href="class_graphics_device.html#a19aee842c4313e06ae7a456c2508eb51" target="_top" xlink:title=" ">
<polygon fill="white" stroke="#666666" points="536.62,-324 402.88,-324 402.88,-304 536.62,-304 536.62,-324"/>
<text text-anchor="middle" x="469.75" y="-310.5" font-family="Helvetica,sans-Serif" font-size="10.00">GraphicsDevice::GetDevice</text>
</a>
</g>
</g>
<!-- Node8&#45;&gt;Node9 -->
<g id="edge8_Node000008_Node000009" class="edge">
<title>Node8&#45;&gt;Node9</title>
<g id="a_edge8_Node000008_Node000009"><a xlink:title=" ">
<path fill="none" stroke="#63b8ff" d="M313.62,-379.52C324.1,-377.11 334.83,-374.27 344.75,-371 378.26,-359.94 414.76,-342.45 439.42,-329.76"/>
<polygon fill="#63b8ff" stroke="#63b8ff" points="440.95,-332.91 448.2,-325.18 437.72,-326.7 440.95,-332.91"/>
</a>
</g>
</g>
<!-- Node10&#45;&gt;Node9 -->
<g id="edge10_Node000010_Node000009" class="edge">
<title>Node10&#45;&gt;Node9</title>
<g id="a_edge10_Node000010_Node000009"><a xlink:title=" ">
<path fill="none" stroke="#63b8ff" d="M313.34,-341.52C339.73,-336.84 371.02,-331.3 398.57,-326.43"/>
<polygon fill="#63b8ff" stroke="#63b8ff" points="399,-329.9 408.24,-324.71 397.78,-323.01 399,-329.9"/>
</a>
</g>
</g>
<!-- Node11&#45;&gt;Node9 -->
<g id="edge12_Node000011_Node000009" class="edge">
<title>Node11&#45;&gt;Node9</title>
<g id="a_edge12_Node000011_Node000009"><a xlink:title=" ">
<path fill="none" stroke="#63b8ff" d="M339.57,-314C356.57,-314 374.33,-314 391.06,-314"/>
<polygon fill="#63b8ff" stroke="#63b8ff" points="390.94,-317.5 400.94,-314 390.94,-310.5 390.94,-317.5"/>
</a>
</g>
</g>
<!-- Node12&#45;&gt;Node9 -->
<g id="edge14_Node000012_Node000009" class="edge">
<title>Node12&#45;&gt;Node9</title>
<g id="a_edge14_Node000012_Node000009"><a xlink:title=" ">
<path fill="none" stroke="#63b8ff" d="M313.34,-286.48C339.73,-291.16 371.02,-296.7 398.57,-301.57"/>
<polygon fill="#63b8ff" stroke="#63b8ff" points="397.78,-304.99 408.24,-303.29 399,-298.1 397.78,-304.99"/>
</a>
</g>
</g>
<!-- Node15 -->
<g id="Node000015" class="node">
<title>Node15</title>
<g id="a_Node000015"><a xlink:href="class_camera.html#aa083de8522b4424b0f0943d7e887019e" target="_top" xlink:title=" ">
<polygon fill="white" stroke="#666666" points="520.5,-210 419,-210 419,-190 520.5,-190 520.5,-210"/>
<text text-anchor="middle" x="469.75" y="-196.5" font-family="Helvetica,sans-Serif" font-size="10.00">Camera::calculateP</text>
</a>
</g>
</g>
<!-- Node14&#45;&gt;Node15 -->
<g id="edge17_Node000014_Node000015" class="edge">
<title>Node14&#45;&gt;Node15</title>
<g id="a_edge17_Node000014_Node000015"><a xlink:title=" ">
<path fill="none" stroke="#63b8ff" d="M299.12,-169.97C330.62,-175.54 373.08,-183.06 407.64,-189.18"/>
<polygon fill="#63b8ff" stroke="#63b8ff" points="406.61,-192.55 417.07,-190.85 407.83,-185.66 406.61,-192.55"/>
</a>
</g>
</g>
<!-- Node17 -->
<g id="Node000017" class="node">
<title>Node17</title>
<g id="a_Node000017"><a xlink:href="class_camera.html#ab41e9e98499b4b6f3898d6b7e52a8be0" target="_top" xlink:title=" ">
<polygon fill="white" stroke="#666666" points="520.5,-172 419,-172 419,-152 520.5,-152 520.5,-172"/>
<text text-anchor="middle" x="469.75" y="-158.5" font-family="Helvetica,sans-Serif" font-size="10.00">Camera::calculateV</text>
</a>
</g>
</g>
<!-- Node14&#45;&gt;Node17 -->
<g id="edge19_Node000014_Node000017" class="edge">
<title>Node14&#45;&gt;Node17</title>
<g id="a_edge19_Node000014_Node000017"><a xlink:title=" ">
<path fill="none" stroke="#63b8ff" d="M299.12,-162C330.48,-162 372.71,-162 407.19,-162"/>
<polygon fill="#63b8ff" stroke="#63b8ff" points="407.05,-165.5 417.05,-162 407.05,-158.5 407.05,-165.5"/>
</a>
</g>
</g>
<!-- Node16 -->
<g id="Node000016" class="node">
<title>Node16</title>
<g id="a_Node000016"><a xlink:href="class_camera.html#aeffd7e25c1d933ac532ac3679d84ee4b" target="_top" xlink:title=" ">
<polygon fill="white" stroke="#666666" points="694,-210 594.75,-210 594.75,-190 694,-190 694,-210"/>
<text text-anchor="middle" x="644.38" y="-196.5" font-family="Helvetica,sans-Serif" font-size="10.00">Camera::toRadians</text>
</a>
</g>
</g>
<!-- Node15&#45;&gt;Node16 -->
<g id="edge18_Node000015_Node000016" class="edge">
<title>Node15&#45;&gt;Node16</title>
<g id="a_edge18_Node000015_Node000016"><a xlink:title=" ">
<path fill="none" stroke="#63b8ff" d="M520.68,-200C540.17,-200 562.68,-200 583.06,-200"/>
<polygon fill="#63b8ff" stroke="#63b8ff" points="582.94,-203.5 592.94,-200 582.94,-196.5 582.94,-203.5"/>
</a>
</g>
</g>
<!-- Node19 -->
<g id="Node000019" class="node">
<title>Node19</title>
<g id="a_Node000019"><a xlink:href="class_shader_manager.html#a9e20b23487904239ee0fce4998585a11" target="_top" xlink:title=" ">
<polygon fill="white" stroke="#666666" points="558.75,-134 380.75,-134 380.75,-114 558.75,-114 558.75,-134"/>
<text text-anchor="middle" x="469.75" y="-120.5" font-family="Helvetica,sans-Serif" font-size="10.00">ShaderManager::GenerateShaderKey</text>
</a>
</g>
</g>
<!-- Node18&#45;&gt;Node19 -->
<g id="edge21_Node000018_Node000019" class="edge">
<title>Node18&#45;&gt;Node19</title>
<g id="a_edge21_Node000018_Node000019"><a xlink:title=" ">
<path fill="none" stroke="#63b8ff" d="M324.4,-124C338.62,-124 353.84,-124 368.86,-124"/>
<polygon fill="#63b8ff" stroke="#63b8ff" points="368.77,-127.5 378.77,-124 368.77,-120.5 368.77,-127.5"/>
</a>
</g>
</g>
<!-- Node20&#45;&gt;Node9 -->
<g id="edge23_Node000020_Node000009" class="edge">
<title>Node20&#45;&gt;Node9</title>
<g id="a_edge23_Node000020_Node000009"><a xlink:title=" ">
<path fill="none" stroke="#63b8ff" d="M308.11,-207.2C320.49,-209.96 333.35,-213.77 344.75,-219 386.75,-238.27 427.77,-273.97 450.51,-295.7"/>
<polygon fill="#63b8ff" stroke="#63b8ff" points="447.87,-298.01 457.48,-302.48 452.76,-293 447.87,-298.01"/>
</a>
</g>
</g>
<!-- Node22 -->
<g id="Node000022" class="node">
<title>Node22</title>
<g id="a_Node000022"><a xlink:href="class_model.html#ade9b21ed1f4b5073186f4246d2727d9a" target="_top" xlink:title=" ">
<polygon fill="white" stroke="#666666" points="554.62,-58 384.88,-58 384.88,-38 554.62,-38 554.62,-58"/>
<text text-anchor="middle" x="469.75" y="-44.5" font-family="Helvetica,sans-Serif" font-size="10.00">Model::UpdateTransformationMatrix</text>
</a>
</g>
</g>
<!-- Node21&#45;&gt;Node22 -->
<g id="edge25_Node000021_Node000022" class="edge">
<title>Node21&#45;&gt;Node22</title>
<g id="a_edge25_Node000021_Node000022"><a xlink:title=" ">
<path fill="none" stroke="#63b8ff" d="M302.83,-77.38C331.03,-72.38 367.01,-66.01 398.26,-60.48"/>
<polygon fill="#63b8ff" stroke="#63b8ff" points="398.81,-63.94 408.04,-58.75 397.59,-57.05 398.81,-63.94"/>
</a>
</g>
</g>
<!-- Node23&#45;&gt;Node22 -->
<g id="edge27_Node000023_Node000022" class="edge">
<title>Node23&#45;&gt;Node22</title>
<g id="a_edge27_Node000023_Node000022"><a xlink:title=" ">
<path fill="none" stroke="#63b8ff" d="M303.1,-48C323.92,-48 348.96,-48 373.19,-48"/>
<polygon fill="#63b8ff" stroke="#63b8ff" points="373.11,-51.5 383.11,-48 373.11,-44.5 373.11,-51.5"/>
</a>
</g>
</g>
<!-- Node24&#45;&gt;Node22 -->
<g id="edge29_Node000024_Node000022" class="edge">
<title>Node24&#45;&gt;Node22</title>
<g id="a_edge29_Node000024_Node000022"><a xlink:title=" ">
<path fill="none" stroke="#63b8ff" d="M297.56,-17.69C326.5,-22.81 365.19,-29.66 398.47,-35.56"/>
<polygon fill="#63b8ff" stroke="#63b8ff" points="397.57,-38.95 408.03,-37.25 398.79,-32.06 397.57,-38.95"/>
</a>
</g>
</g>
</g>
</svg>

<g id="navigator" transform="translate(0 0)" fill="#404254">
  <rect fill="#f2f5e9" fill-opacity="0.5" stroke="#606060" stroke-width=".5" x="0" y="0" width="60" height="60"/>
  <use id="zoomplus" xlink:href="#zoomPlus" x="17" y="9" onmousedown="handleZoom(evt,'in')"/>
  <use id="zoomminus" xlink:href="#zoomMin" x="42" y="9" onmousedown="handleZoom(evt,'out')"/>
  <use id="reset" xlink:href="#resetDef" x="30" y="36" onmousedown="handleReset()"/>
   <use id="arrowup" xlink:href="#arrowUp" x="0" y="0" onmousedown="handlePan(0,-1)"/>
  <use id="arrowright" xlink:href="#arrowRight" x="0" y="0" onmousedown="handlePan(1,0)"/>
  <use id="arrowdown" xlink:href="#arrowDown" x="0" y="0" onmousedown="handlePan(0,1)"/>
  <use id="arrowleft" xlink:href="#arrowLeft" x="0" y="0" onmousedown="handlePan(-1,0)"/>
</g>
<svg viewBox="0 0 15 15" width="100%" height="30px" preserveAspectRatio="xMaxYMin meet">
 <g id="arrow_out" transform="scale(0.3 0.3)">
  <a xlink:href="class_direct_x_manager_ac95cceb904d9893d0b135c2bd9039b33_cgraph_org.svg" target="_base">
   <rect id="button" ry="5" rx="5" y="6" x="6" height="38" width="38"
        fill="#f2f5e9" fill-opacity="0.5" stroke="#606060" stroke-width="1.0"/>
   <path id="arrow"
     d="M 11.500037,31.436501 C 11.940474,20.09759 22.043105,11.32322 32.158766,21.979434 L 37.068811,17.246167 C 37.068811,17.246167 37.088388,32 37.088388,32 L 22.160133,31.978069 C 22.160133,31.978069 26.997745,27.140456 26.997745,27.140456 C 18.528582,18.264221 13.291696,25.230495 11.500037,31.436501 z"
     style="fill:#404040;"/>
  </a>
 </g>
</svg>

<style type='text/css'>
<![CDATA[
[data-mouse-over-selected='false'] { opacity: 0.7; }
[data-mouse-over-selected='true']  { opacity: 1.0; }
]]>
</style>
<script type="application/ecmascript"><![CDATA[
document.addEventListener('DOMContentLoaded', (event) => {
  highlightEdges();
  highlightAdjacentNodes();
});
]]></script>
</svg>
