<?xml version="1.0" encoding="UTF-8" standalone="no"?>
<!DOCTYPE svg PUBLIC "-//W3C//DTD SVG 1.1//EN"
 "http://www.w3.org/Graphics/SVG/1.1/DTD/svg11.dtd">
<!-- Generated by graphviz version 9.0.0 (20230911.1827)
 -->
<!-- Title: DirectXManager::handleMouseMove Pages: 1 -->
<svg width="382pt" height="142pt"
 viewBox="0.00 0.00 382.00 142.00" xmlns="http://www.w3.org/2000/svg" xmlns:xlink="http://www.w3.org/1999/xlink">
<g id="graph0" class="graph" transform="scale(1 1) rotate(0) translate(4 138)">
<title>DirectXManager::handleMouseMove</title>
<!-- Node1 -->
<g id="Node000001" class="node">
<title>Node1</title>
<g id="a_Node000001"><a xlink:title=" ">
<polygon fill="#999999" stroke="#666666" points="170.5,-77 0,-77 0,-57 170.5,-57 170.5,-77"/>
<text text-anchor="middle" x="85.25" y="-63.5" font-family="Helvetica,sans-Serif" font-size="10.00">DirectXManager::handleMouseMove</text>
</a>
</g>
</g>
<!-- Node2 -->
<g id="Node000002" class="node">
<title>Node2</title>
<g id="a_Node000002"><a xlink:href="class_graphics_device.html#a28350dcab3e8059d360079f277649067" target="_top" xlink:title=" ">
<polygon fill="white" stroke="#666666" points="357.88,-134 222.62,-134 222.62,-114 357.88,-114 357.88,-134"/>
<text text-anchor="middle" x="290.25" y="-120.5" font-family="Helvetica,sans-Serif" font-size="10.00">GraphicsDevice::GetHWND</text>
</a>
</g>
</g>
<!-- Node1&#45;&gt;Node2 -->
<g id="edge1_Node000001_Node000002" class="edge">
<title>Node1&#45;&gt;Node2</title>
<g id="a_edge1_Node000001_Node000002"><a xlink:title=" ">
<path fill="none" stroke="#63b8ff" d="M116.69,-77.37C140.88,-85.42 175.66,-96.6 206.5,-105 214.04,-107.05 222.01,-109.07 229.9,-110.98"/>
<polygon fill="#63b8ff" stroke="#63b8ff" points="228.94,-114.35 239.48,-113.25 230.56,-107.54 228.94,-114.35"/>
</a>
</g>
</g>
<!-- Node3 -->
<g id="Node000003" class="node">
<title>Node3</title>
<g id="a_Node000003"><a xlink:href="class_graphics_device.html#afb2cef3f85e50972191d7b44e598493c" target="_top" xlink:title=" ">
<polygon fill="white" stroke="#666666" points="374,-96 206.5,-96 206.5,-76 374,-76 374,-96"/>
<text text-anchor="middle" x="290.25" y="-82.5" font-family="Helvetica,sans-Serif" font-size="10.00">GraphicsDevice::GetWindowHeight</text>
</a>
</g>
</g>
<!-- Node1&#45;&gt;Node3 -->
<g id="edge2_Node000001_Node000003" class="edge">
<title>Node1&#45;&gt;Node3</title>
<g id="a_edge2_Node000001_Node000003"><a xlink:title=" ">
<path fill="none" stroke="#63b8ff" d="M170.87,-74.92C178.78,-75.66 186.84,-76.41 194.83,-77.16"/>
<polygon fill="#63b8ff" stroke="#63b8ff" points="194.28,-80.63 204.56,-78.07 194.93,-73.66 194.28,-80.63"/>
</a>
</g>
</g>
<!-- Node4 -->
<g id="Node000004" class="node">
<title>Node4</title>
<g id="a_Node000004"><a xlink:href="class_graphics_device.html#a9ce4e3a7ea6a35ded13381fb7c55a027" target="_top" xlink:title=" ">
<polygon fill="white" stroke="#666666" points="372.88,-58 207.62,-58 207.62,-38 372.88,-38 372.88,-58"/>
<text text-anchor="middle" x="290.25" y="-44.5" font-family="Helvetica,sans-Serif" font-size="10.00">GraphicsDevice::GetWindowWidth</text>
</a>
</g>
</g>
<!-- Node1&#45;&gt;Node4 -->
<g id="edge3_Node000001_Node000004" class="edge">
<title>Node1&#45;&gt;Node4</title>
<g id="a_edge3_Node000001_Node000004"><a xlink:title=" ">
<path fill="none" stroke="#63b8ff" d="M170.87,-59.08C179.17,-58.3 187.63,-57.51 196.01,-56.73"/>
<polygon fill="#63b8ff" stroke="#63b8ff" points="196.23,-60.22 205.86,-55.8 195.58,-53.25 196.23,-60.22"/>
</a>
</g>
</g>
<!-- Node5 -->
<g id="Node000005" class="node">
<title>Node5</title>
<g id="a_Node000005"><a xlink:href="class_camera.html#ae8a25589ce2d2c2211f33dbeb4c640cf" target="_top" xlink:title=" ">
<polygon fill="white" stroke="#666666" points="332.38,-20 248.12,-20 248.12,0 332.38,0 332.38,-20"/>
<text text-anchor="middle" x="290.25" y="-6.5" font-family="Helvetica,sans-Serif" font-size="10.00">Camera::Rotate</text>
</a>
</g>
</g>
<!-- Node1&#45;&gt;Node5 -->
<g id="edge4_Node000001_Node000005" class="edge">
<title>Node1&#45;&gt;Node5</title>
<g id="a_edge4_Node000001_Node000005"><a xlink:title=" ">
<path fill="none" stroke="#63b8ff" d="M116.69,-56.63C140.88,-48.58 175.66,-37.4 206.5,-29 216.21,-26.35 226.63,-23.77 236.69,-21.4"/>
<polygon fill="#63b8ff" stroke="#63b8ff" points="237.41,-24.83 246.36,-19.16 235.83,-18 237.41,-24.83"/>
</a>
</g>
</g>
</g>
</svg>
