<?xml version="1.0" encoding="UTF-8" standalone="no"?>
<!DOCTYPE svg PUBLIC "-//W3C//DTD SVG 1.1//EN"
 "http://www.w3.org/Graphics/SVG/1.1/DTD/svg11.dtd">
<!-- Generated by graphviz version 9.0.0 (20230911.1827)
 -->
<!-- Title: Camera::toDegrees Pages: 1 -->
<svg width="898pt" height="28pt"
 viewBox="0.00 0.00 898.25 28.00" xmlns="http://www.w3.org/2000/svg" xmlns:xlink="http://www.w3.org/1999/xlink">
<g id="graph0" class="graph" transform="scale(1 1) rotate(0) translate(4 24)">
<title>Camera::toDegrees</title>
<!-- Node1 -->
<g id="Node000001" class="node">
<title>Node1</title>
<g id="a_Node000001"><a xlink:title=" ">
<polygon fill="#999999" stroke="#666666" points="890.25,-20 790.25,-20 790.25,0 890.25,0 890.25,-20"/>
<text text-anchor="middle" x="840.25" y="-6.5" font-family="Helvetica,sans-Serif" font-size="10.00">Camera::toDegrees</text>
</a>
</g>
</g>
<!-- Node2 -->
<g id="Node000002" class="node">
<title>Node2</title>
<g id="a_Node000002"><a xlink:href="class_camera.html#a0f1aa347d4142d0a1bbdec93441b2aec" target="_top" xlink:title=" ">
<polygon fill="white" stroke="#666666" points="754.25,-20 650.5,-20 650.5,0 754.25,0 754.25,-20"/>
<text text-anchor="middle" x="702.38" y="-6.5" font-family="Helvetica,sans-Serif" font-size="10.00">Camera::AdjustFOV</text>
</a>
</g>
</g>
<!-- Node1&#45;&gt;Node2 -->
<g id="edge1_Node000001_Node000002" class="edge">
<title>Node1&#45;&gt;Node2</title>
<g id="a_edge1_Node000001_Node000002"><a xlink:title=" ">
<path fill="none" stroke="#63b8ff" d="M778.54,-10C770.47,-10 762.26,-10 754.37,-10"/>
<polygon fill="#63b8ff" stroke="#63b8ff" points="778.3,-13.5 788.3,-10 778.3,-6.5 778.3,-13.5"/>
</a>
</g>
</g>
<!-- Node3 -->
<g id="Node000003" class="node">
<title>Node3</title>
<g id="a_Node000003"><a xlink:href="class_direct_x_manager.html#a7f652b8737c1a55544f67b19b19f4d6a" target="_top" xlink:title=" ">
<polygon fill="white" stroke="#666666" points="614.5,-20 454.5,-20 454.5,0 614.5,0 614.5,-20"/>
<text text-anchor="middle" x="534.5" y="-6.5" font-family="Helvetica,sans-Serif" font-size="10.00">DirectXManager::handleKeyDown</text>
</a>
</g>
</g>
<!-- Node2&#45;&gt;Node3 -->
<g id="edge2_Node000002_Node000003" class="edge">
<title>Node2&#45;&gt;Node3</title>
<g id="a_edge2_Node000002_Node000003"><a xlink:title=" ">
<path fill="none" stroke="#63b8ff" d="M638.94,-10C631.06,-10 622.92,-10 614.82,-10"/>
<polygon fill="#63b8ff" stroke="#63b8ff" points="638.74,-13.5 648.74,-10 638.74,-6.5 638.74,-13.5"/>
</a>
</g>
</g>
<!-- Node4 -->
<g id="Node000004" class="node">
<title>Node4</title>
<g id="a_Node000004"><a xlink:href="class_win32_application.html#ae0aa88d9449557e8772fc70c1043e55c" target="_top" xlink:title=" ">
<polygon fill="white" stroke="#666666" points="418.5,-20 266,-20 266,0 418.5,0 418.5,-20"/>
<text text-anchor="middle" x="342.25" y="-6.5" font-family="Helvetica,sans-Serif" font-size="10.00">Win32Application::WindowProc</text>
</a>
</g>
</g>
<!-- Node3&#45;&gt;Node4 -->
<g id="edge3_Node000003_Node000004" class="edge">
<title>Node3&#45;&gt;Node4</title>
<g id="a_edge3_Node000003_Node000004"><a xlink:title=" ">
<path fill="none" stroke="#63b8ff" d="M442.85,-10C434.79,-10 426.68,-10 418.77,-10"/>
<polygon fill="#63b8ff" stroke="#63b8ff" points="442.68,-13.5 452.68,-10 442.68,-6.5 442.68,-13.5"/>
</a>
</g>
</g>
<!-- Node5 -->
<g id="Node000005" class="node">
<title>Node5</title>
<g id="a_Node000005"><a xlink:href="class_win32_application.html#a05c9e61b80735ab0b3fa576ebab260d6" target="_top" xlink:title=" ">
<polygon fill="white" stroke="#666666" points="230,-20 97,-20 97,0 230,0 230,-20"/>
<text text-anchor="middle" x="163.5" y="-6.5" font-family="Helvetica,sans-Serif" font-size="10.00">Win32Application::Initialize</text>
</a>
</g>
</g>
<!-- Node4&#45;&gt;Node5 -->
<g id="edge4_Node000004_Node000005" class="edge">
<title>Node4&#45;&gt;Node5</title>
<g id="a_edge4_Node000004_Node000005"><a xlink:title=" ">
<path fill="none" stroke="#63b8ff" d="M254.2,-10C246.17,-10 238.12,-10 230.32,-10"/>
<polygon fill="#63b8ff" stroke="#63b8ff" points="254.01,-13.5 264.01,-10 254.01,-6.5 254.01,-13.5"/>
</a>
</g>
</g>
<!-- Node6 -->
<g id="Node000006" class="node">
<title>Node6</title>
<g id="a_Node000006"><a xlink:href="_game_engine_8cpp.html#a1e683c5a19c00d05cd803e46b805e339" target="_top" xlink:title=" ">
<polygon fill="white" stroke="#666666" points="61,-20 0,-20 0,0 61,0 61,-20"/>
<text text-anchor="middle" x="30.5" y="-6.5" font-family="Helvetica,sans-Serif" font-size="10.00">wWinMain</text>
</a>
</g>
</g>
<!-- Node5&#45;&gt;Node6 -->
<g id="edge5_Node000005_Node000006" class="edge">
<title>Node5&#45;&gt;Node6</title>
<g id="a_edge5_Node000005_Node000006"><a xlink:title=" ">
<path fill="none" stroke="#63b8ff" d="M85.37,-10C76.9,-10 68.69,-10 61.35,-10"/>
<polygon fill="#63b8ff" stroke="#63b8ff" points="85.1,-13.5 95.1,-10 85.1,-6.5 85.1,-13.5"/>
</a>
</g>
</g>
</g>
</svg>
