<?xml version="1.0" encoding="UTF-8" standalone="no"?>
<!DOCTYPE svg PUBLIC "-//W3C//DTD SVG 1.1//EN"
 "http://www.w3.org/Graphics/SVG/1.1/DTD/svg11.dtd">
<!-- Generated by graphviz version 9.0.0 (20230911.1827)
 -->
<!-- Title: Camera::toRadians Pages: 1 -->
<svg width="1072pt" height="104pt"
 viewBox="0.00 0.00 1071.75 104.00" xmlns="http://www.w3.org/2000/svg" xmlns:xlink="http://www.w3.org/1999/xlink">
<g id="graph0" class="graph" transform="scale(1 1) rotate(0) translate(4 100)">
<title>Camera::toRadians</title>
<!-- Node1 -->
<g id="Node000001" class="node">
<title>Node1</title>
<g id="a_Node000001"><a xlink:title=" ">
<polygon fill="#999999" stroke="#666666" points="1063.75,-77 964.5,-77 964.5,-57 1063.75,-57 1063.75,-77"/>
<text text-anchor="middle" x="1014.12" y="-63.5" font-family="Helvetica,sans-Serif" font-size="10.00">Camera::toRadians</text>
</a>
</g>
</g>
<!-- Node2 -->
<g id="Node000002" class="node">
<title>Node2</title>
<g id="a_Node000002"><a xlink:href="class_camera.html#a0f1aa347d4142d0a1bbdec93441b2aec" target="_top" xlink:title=" ">
<polygon fill="white" stroke="#666666" points="772.62,-96 668.88,-96 668.88,-76 772.62,-76 772.62,-96"/>
<text text-anchor="middle" x="720.75" y="-82.5" font-family="Helvetica,sans-Serif" font-size="10.00">Camera::AdjustFOV</text>
</a>
</g>
</g>
<!-- Node1&#45;&gt;Node2 -->
<g id="edge1_Node000001_Node000002" class="edge">
<title>Node1&#45;&gt;Node2</title>
<g id="a_edge1_Node000001_Node000002"><a xlink:title=" ">
<path fill="none" stroke="#63b8ff" d="M952.73,-70.94C899.63,-74.4 823.19,-79.39 773.01,-82.66"/>
<polygon fill="#63b8ff" stroke="#63b8ff" points="952.77,-74.44 962.52,-70.3 952.31,-67.46 952.77,-74.44"/>
</a>
</g>
</g>
<!-- Node7 -->
<g id="Node000007" class="node">
<title>Node7</title>
<g id="a_Node000007"><a xlink:href="class_camera.html#aa083de8522b4424b0f0943d7e887019e" target="_top" xlink:title=" ">
<polygon fill="white" stroke="#666666" points="928.5,-58 827,-58 827,-38 928.5,-38 928.5,-58"/>
<text text-anchor="middle" x="877.75" y="-44.5" font-family="Helvetica,sans-Serif" font-size="10.00">Camera::calculateP</text>
</a>
</g>
</g>
<!-- Node1&#45;&gt;Node7 -->
<g id="edge6_Node000001_Node000007" class="edge">
<title>Node1&#45;&gt;Node7</title>
<g id="a_edge6_Node000001_Node000007"><a xlink:title=" ">
<path fill="none" stroke="#63b8ff" d="M952.94,-58.49C944.85,-57.35 936.62,-56.18 928.73,-55.07"/>
<polygon fill="#63b8ff" stroke="#63b8ff" points="952.34,-61.94 962.73,-59.87 953.32,-55.01 952.34,-61.94"/>
</a>
</g>
</g>
<!-- Node3 -->
<g id="Node000003" class="node">
<title>Node3</title>
<g id="a_Node000003"><a xlink:href="class_direct_x_manager.html#a7f652b8737c1a55544f67b19b19f4d6a" target="_top" xlink:title=" ">
<polygon fill="white" stroke="#666666" points="614.5,-96 454.5,-96 454.5,-76 614.5,-76 614.5,-96"/>
<text text-anchor="middle" x="534.5" y="-82.5" font-family="Helvetica,sans-Serif" font-size="10.00">DirectXManager::handleKeyDown</text>
</a>
</g>
</g>
<!-- Node2&#45;&gt;Node3 -->
<g id="edge2_Node000002_Node000003" class="edge">
<title>Node2&#45;&gt;Node3</title>
<g id="a_edge2_Node000002_Node000003"><a xlink:title=" ">
<path fill="none" stroke="#63b8ff" d="M657.24,-86C643.61,-86 629.02,-86 614.83,-86"/>
<polygon fill="#63b8ff" stroke="#63b8ff" points="656.91,-89.5 666.91,-86 656.91,-82.5 656.91,-89.5"/>
</a>
</g>
</g>
<!-- Node4 -->
<g id="Node000004" class="node">
<title>Node4</title>
<g id="a_Node000004"><a xlink:href="class_win32_application.html#ae0aa88d9449557e8772fc70c1043e55c" target="_top" xlink:title=" ">
<polygon fill="white" stroke="#666666" points="418.5,-58 266,-58 266,-38 418.5,-38 418.5,-58"/>
<text text-anchor="middle" x="342.25" y="-44.5" font-family="Helvetica,sans-Serif" font-size="10.00">Win32Application::WindowProc</text>
</a>
</g>
</g>
<!-- Node3&#45;&gt;Node4 -->
<g id="edge3_Node000003_Node000004" class="edge">
<title>Node3&#45;&gt;Node4</title>
<g id="a_edge3_Node000003_Node000004"><a xlink:title=" ">
<path fill="none" stroke="#63b8ff" d="M469.81,-73.28C445.69,-68.46 418.53,-63.04 395.57,-58.45"/>
<polygon fill="#63b8ff" stroke="#63b8ff" points="469.03,-76.69 479.53,-75.22 470.4,-69.83 469.03,-76.69"/>
</a>
</g>
</g>
<!-- Node5 -->
<g id="Node000005" class="node">
<title>Node5</title>
<g id="a_Node000005"><a xlink:href="class_win32_application.html#a05c9e61b80735ab0b3fa576ebab260d6" target="_top" xlink:title=" ">
<polygon fill="white" stroke="#666666" points="230,-58 97,-58 97,-38 230,-38 230,-58"/>
<text text-anchor="middle" x="163.5" y="-44.5" font-family="Helvetica,sans-Serif" font-size="10.00">Win32Application::Initialize</text>
</a>
</g>
</g>
<!-- Node4&#45;&gt;Node5 -->
<g id="edge4_Node000004_Node000005" class="edge">
<title>Node4&#45;&gt;Node5</title>
<g id="a_edge4_Node000004_Node000005"><a xlink:title=" ">
<path fill="none" stroke="#63b8ff" d="M254.2,-48C246.17,-48 238.12,-48 230.32,-48"/>
<polygon fill="#63b8ff" stroke="#63b8ff" points="254.01,-51.5 264.01,-48 254.01,-44.5 254.01,-51.5"/>
</a>
</g>
</g>
<!-- Node6 -->
<g id="Node000006" class="node">
<title>Node6</title>
<g id="a_Node000006"><a xlink:href="_game_engine_8cpp.html#a1e683c5a19c00d05cd803e46b805e339" target="_top" xlink:title=" ">
<polygon fill="white" stroke="#666666" points="61,-39 0,-39 0,-19 61,-19 61,-39"/>
<text text-anchor="middle" x="30.5" y="-25.5" font-family="Helvetica,sans-Serif" font-size="10.00">wWinMain</text>
</a>
</g>
</g>
<!-- Node5&#45;&gt;Node6 -->
<g id="edge5_Node000005_Node000006" class="edge">
<title>Node5&#45;&gt;Node6</title>
<g id="a_edge5_Node000005_Node000006"><a xlink:title=" ">
<path fill="none" stroke="#63b8ff" d="M85.37,-36.81C76.9,-35.58 68.69,-34.39 61.35,-33.33"/>
<polygon fill="#63b8ff" stroke="#63b8ff" points="84.72,-40.26 95.12,-38.23 85.72,-33.33 84.72,-40.26"/>
</a>
</g>
</g>
<!-- Node7&#45;&gt;Node2 -->
<g id="edge7_Node000007_Node000002" class="edge">
<title>Node7&#45;&gt;Node2</title>
<g id="a_edge7_Node000007_Node000002"><a xlink:title=" ">
<path fill="none" stroke="#63b8ff" d="M822.98,-61.18C803.81,-65.88 782.49,-71.11 764.38,-75.55"/>
<polygon fill="#63b8ff" stroke="#63b8ff" points="823.64,-64.63 832.52,-58.84 821.97,-57.83 823.64,-64.63"/>
</a>
</g>
</g>
<!-- Node8 -->
<g id="Node000008" class="node">
<title>Node8</title>
<g id="a_Node000008"><a xlink:href="class_camera.html#a7f65f916f0f843b82e1f755ba5eb4858" target="_top" xlink:title=" ">
<polygon fill="white" stroke="#666666" points="791,-58 650.5,-58 650.5,-38 791,-38 791,-58"/>
<text text-anchor="middle" x="720.75" y="-44.5" font-family="Helvetica,sans-Serif" font-size="10.00">Camera::changeAspectRatio</text>
</a>
</g>
</g>
<!-- Node7&#45;&gt;Node8 -->
<g id="edge8_Node000007_Node000008" class="edge">
<title>Node7&#45;&gt;Node8</title>
<g id="a_edge8_Node000007_Node000008"><a xlink:title=" ">
<path fill="none" stroke="#63b8ff" d="M815.45,-48C807.53,-48 799.36,-48 791.32,-48"/>
<polygon fill="#63b8ff" stroke="#63b8ff" points="815.34,-51.5 825.34,-48 815.34,-44.5 815.34,-51.5"/>
</a>
</g>
</g>
<!-- Node10 -->
<g id="Node000010" class="node">
<title>Node10</title>
<g id="a_Node000010"><a xlink:href="class_camera.html#a35229a64fcaf1a94a954aabf0b1545d9" target="_top" xlink:title=" ">
<polygon fill="white" stroke="#666666" points="766.25,-20 675.25,-20 675.25,0 766.25,0 766.25,-20"/>
<text text-anchor="middle" x="720.75" y="-6.5" font-family="Helvetica,sans-Serif" font-size="10.00">Camera::Initialize</text>
</a>
</g>
</g>
<!-- Node7&#45;&gt;Node10 -->
<g id="edge11_Node000007_Node000010" class="edge">
<title>Node7&#45;&gt;Node10</title>
<g id="a_edge11_Node000007_Node000010"><a xlink:title=" ">
<path fill="none" stroke="#63b8ff" d="M822.98,-34.82C803.81,-30.12 782.49,-24.89 764.38,-20.45"/>
<polygon fill="#63b8ff" stroke="#63b8ff" points="821.97,-38.17 832.52,-37.16 823.64,-31.37 821.97,-38.17"/>
</a>
</g>
</g>
<!-- Node9 -->
<g id="Node000009" class="node">
<title>Node9</title>
<g id="a_Node000009"><a xlink:href="class_direct_x_manager.html#a18eff287d424112f078f38c91cb943d7" target="_top" xlink:title=" ">
<polygon fill="white" stroke="#666666" points="603.62,-58 465.38,-58 465.38,-38 603.62,-38 603.62,-58"/>
<text text-anchor="middle" x="534.5" y="-44.5" font-family="Helvetica,sans-Serif" font-size="10.00">DirectXManager::handleSize</text>
</a>
</g>
</g>
<!-- Node8&#45;&gt;Node9 -->
<g id="edge9_Node000008_Node000009" class="edge">
<title>Node8&#45;&gt;Node9</title>
<g id="a_edge9_Node000008_Node000009"><a xlink:title=" ">
<path fill="none" stroke="#63b8ff" d="M638.65,-48C627.1,-48 615.31,-48 604.03,-48"/>
<polygon fill="#63b8ff" stroke="#63b8ff" points="638.58,-51.5 648.58,-48 638.58,-44.5 638.58,-51.5"/>
</a>
</g>
</g>
<!-- Node9&#45;&gt;Node4 -->
<g id="edge10_Node000009_Node000004" class="edge">
<title>Node9&#45;&gt;Node4</title>
<g id="a_edge10_Node000009_Node000004"><a xlink:title=" ">
<path fill="none" stroke="#63b8ff" d="M453.66,-48C442.11,-48 430.26,-48 418.79,-48"/>
<polygon fill="#63b8ff" stroke="#63b8ff" points="453.57,-51.5 463.57,-48 453.57,-44.5 453.57,-51.5"/>
</a>
</g>
</g>
<!-- Node11 -->
<g id="Node000011" class="node">
<title>Node11</title>
<g id="a_Node000011"><a xlink:href="class_direct_x_manager.html#ac95cceb904d9893d0b135c2bd9039b33" target="_top" xlink:title=" ">
<polygon fill="white" stroke="#666666" points="405,-20 279.5,-20 279.5,0 405,0 405,-20"/>
<text text-anchor="middle" x="342.25" y="-6.5" font-family="Helvetica,sans-Serif" font-size="10.00">DirectXManager::Initialize</text>
</a>
</g>
</g>
<!-- Node10&#45;&gt;Node11 -->
<g id="edge12_Node000010_Node000011" class="edge">
<title>Node10&#45;&gt;Node11</title>
<g id="a_edge12_Node000010_Node000011"><a xlink:title=" ">
<path fill="none" stroke="#63b8ff" d="M663.57,-10C594.36,-10 477.16,-10 405.34,-10"/>
<polygon fill="#63b8ff" stroke="#63b8ff" points="663.57,-13.5 673.57,-10 663.57,-6.5 663.57,-13.5"/>
</a>
</g>
</g>
<!-- Node11&#45;&gt;Node6 -->
<g id="edge13_Node000011_Node000006" class="edge">
<title>Node11&#45;&gt;Node6</title>
<g id="a_edge13_Node000011_Node000006"><a xlink:title=" ">
<path fill="none" stroke="#63b8ff" d="M268.17,-14.48C202.3,-18.52 108.75,-24.26 61.41,-27.17"/>
<polygon fill="#63b8ff" stroke="#63b8ff" points="268.03,-18 277.8,-13.89 267.61,-11.01 268.03,-18"/>
</a>
</g>
</g>
</g>
</svg>
