<?xml version="1.0" encoding="UTF-8" standalone="no"?>
<!DOCTYPE svg PUBLIC "-//W3C//DTD SVG 1.1//EN"
 "http://www.w3.org/Graphics/SVG/1.1/DTD/svg11.dtd">
<!-- Generated by graphviz version 9.0.0 (20230911.1827)
 -->
<!-- Title: Win32Application::Initialize Pages: 1 -->
<!--zoomable 465 -->

<svg id="main" version="1.1" xmlns="http://www.w3.org/2000/svg" xmlns:xlink="http://www.w3.org/1999/xlink" xml:space="preserve" onload="init(evt)">
<style type="text/css"><![CDATA[
.node, .edge {opacity: 0.7;}
.node.selected, .edge.selected {opacity: 1;}
.edge:hover path { stroke: red; }
.edge:hover polygon { stroke: red; fill: red; }
]]></style>

<defs>
  <circle id="rim" cx="0" cy="0" r="7"/>
  <circle id="rim2" cx="0" cy="0" r="3.5"/>
  <g id="zoomPlus">
    <use xlink:href="#rim" fill="#404040"><set attributeName="fill" to="#808080" begin="zoomplus.mouseover" end="zoomplus.mouseout"/></use>
    <path d="M-4,0h8M0,-4v8" fill="none" stroke="white" stroke-width="1.5" pointer-events="none"/>
  </g>
  <g id="zoomMin">
    <use xlink:href="#rim" fill="#404040"><set attributeName="fill" to="#808080" begin="zoomminus.mouseover" end="zoomminus.mouseout"/></use>
    <path d="M-4,0h8" fill="none" stroke="white" stroke-width="1.5" pointer-events="none"/>
  </g>
  <g id="arrowUp" transform="translate(30 24)">
    <use xlink:href="#rim"/>
    <path pointer-events="none" fill="none" stroke="white" stroke-width="1.5" d="M0,-3.0v7 M-2.5,-0.5L0,-3.0L2.5,-0.5"/>
  </g>
  <g id="arrowRight" transform="rotate(90) translate(36 -43)">
    <use xlink:href="#rim"/>
    <path pointer-events="none" fill="none" stroke="white" stroke-width="1.5" d="M0,-3.0v7 M-2.5,-0.5L0,-3.0L2.5,-0.5"/>
  </g>
  <g id="arrowDown" transform="rotate(180) translate(-30 -48)">
    <use xlink:href="#rim"/>
    <path pointer-events="none" fill="none" stroke="white" stroke-width="1.5" d="M0,-3.0v7 M-2.5,-0.5L0,-3.0L2.5,-0.5"/>
  </g>
  <g id="arrowLeft" transform="rotate(270) translate(-36 17)">
    <use xlink:href="#rim"/>
    <path pointer-events="none" fill="none" stroke="white" stroke-width="1.5" d="M0,-3.0v7 M-2.5,-0.5L0,-3.0L2.5,-0.5"/>
  </g>
  <g id="resetDef">
    <use xlink:href="#rim2" fill="#404040"><set attributeName="fill" to="#808080" begin="reset.mouseover" end="reset.mouseout"/></use>
  </g>
</defs>
<script type="application/ecmascript">
var viewWidth = 1374;
var viewHeight = 465;
var sectionId = 'dynsection-2';
</script>
<script type="application/ecmascript" xlink:href="svg.min.js"/>
<svg id="graph" class="graph">
<g id="viewport">
<title>Win32Application::Initialize</title>
<!-- Node1 -->
<g id="Node000001" class="node">
<title>Node1</title>
<g id="a_Node000001"><a xlink:title=" ">
<polygon fill="#999999" stroke="#666666" points="133,-191 0,-191 0,-171 133,-171 133,-191"/>
<text text-anchor="middle" x="66.5" y="-177.5" font-family="Helvetica,sans-Serif" font-size="10.00">Win32Application::Initialize</text>
</a>
</g>
</g>
<!-- Node2 -->
<g id="Node000002" class="node">
<title>Node2</title>
<g id="a_Node000002"><a xlink:href="class_win32_application.html#ae0aa88d9449557e8772fc70c1043e55c" target="_top" xlink:title=" ">
<polygon fill="white" stroke="#666666" points="321.5,-191 169,-191 169,-171 321.5,-171 321.5,-191"/>
<text text-anchor="middle" x="245.25" y="-177.5" font-family="Helvetica,sans-Serif" font-size="10.00">Win32Application::WindowProc</text>
</a>
</g>
</g>
<!-- Node1&#45;&gt;Node2 -->
<g id="edge1_Node000001_Node000002" class="edge">
<title>Node1&#45;&gt;Node2</title>
<g id="a_edge1_Node000001_Node000002"><a xlink:title=" ">
<path fill="none" stroke="#63b8ff" d="M133.32,-181C141.12,-181 149.18,-181 157.22,-181"/>
<polygon fill="#63b8ff" stroke="#63b8ff" points="157.04,-184.5 167.04,-181 157.04,-177.5 157.04,-184.5"/>
</a>
</g>
</g>
<!-- Node3 -->
<g id="Node000003" class="node">
<title>Node3</title>
<g id="a_Node000003"><a xlink:href="class_direct_x_manager.html#a7f652b8737c1a55544f67b19b19f4d6a" target="_top" xlink:title=" ">
<polygon fill="white" stroke="#666666" points="525.38,-305 365.38,-305 365.38,-285 525.38,-285 525.38,-305"/>
<text text-anchor="middle" x="445.38" y="-291.5" font-family="Helvetica,sans-Serif" font-size="10.00">DirectXManager::handleKeyDown</text>
</a>
</g>
</g>
<!-- Node2&#45;&gt;Node3 -->
<g id="edge2_Node000002_Node000003" class="edge">
<title>Node2&#45;&gt;Node3</title>
<g id="a_edge2_Node000002_Node000003"><a xlink:title=" ">
<path fill="none" stroke="#63b8ff" d="M255.17,-191.47C272.66,-211.27 313.6,-254.19 357.5,-276 361.17,-277.82 365.02,-279.47 368.96,-280.97"/>
<polygon fill="#63b8ff" stroke="#63b8ff" points="367.55,-284.18 378.14,-284.08 369.79,-277.55 367.55,-284.18"/>
</a>
</g>
</g>
<!-- Node12 -->
<g id="Node000012" class="node">
<title>Node12</title>
<g id="a_Node000012"><a xlink:href="class_direct_x_manager.html#a21aa12e9c419900fc6f84f4c1b90d38e" target="_top" xlink:title=" ">
<polygon fill="white" stroke="#666666" points="519.38,-267 371.38,-267 371.38,-247 519.38,-247 519.38,-267"/>
<text text-anchor="middle" x="445.38" y="-253.5" font-family="Helvetica,sans-Serif" font-size="10.00">DirectXManager::handleKeyUp</text>
</a>
</g>
</g>
<!-- Node2&#45;&gt;Node12 -->
<g id="edge14_Node000002_Node000012" class="edge">
<title>Node2&#45;&gt;Node12</title>
<g id="a_edge14_Node000002_Node000012"><a xlink:title=" ">
<path fill="none" stroke="#63b8ff" d="M262.97,-191.31C284.22,-204 322.36,-225.4 357.5,-238 363.46,-240.14 369.74,-242.08 376.08,-243.83"/>
<polygon fill="#63b8ff" stroke="#63b8ff" points="374.75,-247.1 385.3,-246.22 376.5,-240.32 374.75,-247.1"/>
</a>
</g>
</g>
<!-- Node13 -->
<g id="Node000013" class="node">
<title>Node13</title>
<g id="a_Node000013"><a xlink:href="class_direct_x_manager.html#a4b6ab131def1de37e8af1f66dd64bf14" target="_top" xlink:title=" ">
<polygon fill="white" stroke="#666666" points="524.62,-229 366.12,-229 366.12,-209 524.62,-209 524.62,-229"/>
<text text-anchor="middle" x="445.38" y="-215.5" font-family="Helvetica,sans-Serif" font-size="10.00">DirectXManager::handleLeftDown</text>
</a>
</g>
</g>
<!-- Node2&#45;&gt;Node13 -->
<g id="edge15_Node000002_Node000013" class="edge">
<title>Node2&#45;&gt;Node13</title>
<g id="a_edge15_Node000002_Node000013"><a xlink:title=" ">
<path fill="none" stroke="#63b8ff" d="M300.91,-191.48C325.06,-196.12 353.64,-201.6 378.91,-206.44"/>
<polygon fill="#63b8ff" stroke="#63b8ff" points="377.92,-209.82 388.4,-208.26 379.24,-202.94 377.92,-209.82"/>
</a>
</g>
</g>
<!-- Node17 -->
<g id="Node000017" class="node">
<title>Node17</title>
<g id="a_Node000017"><a xlink:href="class_direct_x_manager.html#abb2f45d41bf579bb5b63d82f14552ec4" target="_top" xlink:title=" ">
<polygon fill="white" stroke="#666666" points="518.62,-153 372.12,-153 372.12,-133 518.62,-133 518.62,-153"/>
<text text-anchor="middle" x="445.38" y="-139.5" font-family="Helvetica,sans-Serif" font-size="10.00">DirectXManager::handleLeftUp</text>
</a>
</g>
</g>
<!-- Node2&#45;&gt;Node17 -->
<g id="edge19_Node000002_Node000017" class="edge">
<title>Node2&#45;&gt;Node17</title>
<g id="a_edge19_Node000002_Node000017"><a xlink:title=" ">
<path fill="none" stroke="#63b8ff" d="M300.91,-170.52C325.06,-165.88 353.64,-160.4 378.91,-155.56"/>
<polygon fill="#63b8ff" stroke="#63b8ff" points="379.24,-159.06 388.4,-153.74 377.92,-152.18 379.24,-159.06"/>
</a>
</g>
</g>
<!-- Node18 -->
<g id="Node000018" class="node">
<title>Node18</title>
<g id="a_Node000018"><a xlink:href="class_direct_x_manager.html#a35b4e0a9102b99107dfde7a0d39d16aa" target="_top" xlink:title=" ">
<polygon fill="white" stroke="#666666" points="527.62,-115 363.12,-115 363.12,-95 527.62,-95 527.62,-115"/>
<text text-anchor="middle" x="445.38" y="-101.5" font-family="Helvetica,sans-Serif" font-size="10.00">DirectXManager::handleLostFocus</text>
</a>
</g>
</g>
<!-- Node2&#45;&gt;Node18 -->
<g id="edge20_Node000002_Node000018" class="edge">
<title>Node2&#45;&gt;Node18</title>
<g id="a_edge20_Node000002_Node000018"><a xlink:title=" ">
<path fill="none" stroke="#63b8ff" d="M262.97,-170.69C284.22,-158 322.36,-136.6 357.5,-124 363.46,-121.86 369.74,-119.92 376.08,-118.17"/>
<polygon fill="#63b8ff" stroke="#63b8ff" points="376.5,-121.68 385.3,-115.78 374.75,-114.9 376.5,-121.68"/>
</a>
</g>
</g>
<!-- Node19 -->
<g id="Node000019" class="node">
<title>Node19</title>
<g id="a_Node000019"><a xlink:href="class_direct_x_manager.html#ab8c1c45c0b3e8140250e8927870f1258" target="_top" xlink:title=" ">
<polygon fill="white" stroke="#666666" points="530.62,-191 360.12,-191 360.12,-171 530.62,-171 530.62,-191"/>
<text text-anchor="middle" x="445.38" y="-177.5" font-family="Helvetica,sans-Serif" font-size="10.00">DirectXManager::handleMouseMove</text>
</a>
</g>
</g>
<!-- Node2&#45;&gt;Node19 -->
<g id="edge21_Node000002_Node000019" class="edge">
<title>Node2&#45;&gt;Node19</title>
<g id="a_edge21_Node000002_Node000019"><a xlink:title=" ">
<path fill="none" stroke="#63b8ff" d="M321.72,-181C330.48,-181 339.51,-181 348.5,-181"/>
<polygon fill="#63b8ff" stroke="#63b8ff" points="348.34,-184.5 358.34,-181 348.34,-177.5 348.34,-184.5"/>
</a>
</g>
</g>
<!-- Node21 -->
<g id="Node000021" class="node">
<title>Node21</title>
<g id="a_Node000021"><a xlink:href="class_direct_x_manager.html#adbd14e0b412bddda9319c094866abfd6" target="_top" xlink:title=" ">
<polygon fill="white" stroke="#666666" points="533.25,-77 357.5,-77 357.5,-57 533.25,-57 533.25,-77"/>
<text text-anchor="middle" x="445.38" y="-63.5" font-family="Helvetica,sans-Serif" font-size="10.00">DirectXManager::handleMouseWheel</text>
</a>
</g>
</g>
<!-- Node2&#45;&gt;Node21 -->
<g id="edge26_Node000002_Node000021" class="edge">
<title>Node2&#45;&gt;Node21</title>
<g id="a_edge26_Node000002_Node000021"><a xlink:title=" ">
<path fill="none" stroke="#63b8ff" d="M255.17,-170.53C272.66,-150.73 313.6,-107.81 357.5,-86 361.17,-84.18 365.02,-82.53 368.96,-81.03"/>
<polygon fill="#63b8ff" stroke="#63b8ff" points="369.79,-84.45 378.14,-77.92 367.55,-77.82 369.79,-84.45"/>
</a>
</g>
</g>
<!-- Node23 -->
<g id="Node000023" class="node">
<title>Node23</title>
<g id="a_Node000023"><a xlink:href="class_direct_x_manager.html#a048268665d6ae0020237dc38917d3e47" target="_top" xlink:title=" ">
<polygon fill="white" stroke="#666666" points="525.75,-39 365,-39 365,-19 525.75,-19 525.75,-39"/>
<text text-anchor="middle" x="445.38" y="-25.5" font-family="Helvetica,sans-Serif" font-size="10.00">DirectXManager::handleSetFocus</text>
</a>
</g>
</g>
<!-- Node2&#45;&gt;Node23 -->
<g id="edge28_Node000002_Node000023" class="edge">
<title>Node2&#45;&gt;Node23</title>
<g id="a_edge28_Node000002_Node000023"><a xlink:title=" ">
<path fill="none" stroke="#63b8ff" d="M251.65,-170.71C265.52,-145.38 304.98,-79.82 357.5,-48 359.98,-46.49 362.57,-45.11 365.24,-43.83"/>
<polygon fill="#63b8ff" stroke="#63b8ff" points="366.54,-47.08 374.42,-40.01 363.85,-40.62 366.54,-47.08"/>
</a>
</g>
</g>
<!-- Node28 -->
<g id="Node000028" class="node">
<title>Node28</title>
<g id="a_Node000028"><a xlink:href="class_direct_x_manager.html#a18eff287d424112f078f38c91cb943d7" target="_top" xlink:title=" ">
<polygon fill="white" stroke="#666666" points="514.5,-419 376.25,-419 376.25,-399 514.5,-399 514.5,-419"/>
<text text-anchor="middle" x="445.38" y="-405.5" font-family="Helvetica,sans-Serif" font-size="10.00">DirectXManager::handleSize</text>
</a>
</g>
</g>
<!-- Node2&#45;&gt;Node28 -->
<g id="edge34_Node000002_Node000028" class="edge">
<title>Node2&#45;&gt;Node28</title>
<g id="a_edge34_Node000002_Node000028"><a xlink:title=" ">
<path fill="none" stroke="#63b8ff" d="M254.75,-191.48C273.17,-214.11 318.26,-269.14 357.5,-314 381.02,-340.89 409.04,-371.24 426.77,-390.24"/>
<polygon fill="#63b8ff" stroke="#63b8ff" points="424.16,-392.58 433.55,-397.49 429.27,-387.79 424.16,-392.58"/>
</a>
</g>
</g>
<!-- Node4 -->
<g id="Node000004" class="node">
<title>Node4</title>
<g id="a_Node000004"><a xlink:href="class_camera.html#a0f1aa347d4142d0a1bbdec93441b2aec" target="_top" xlink:title=" ">
<polygon fill="white" stroke="#666666" points="720.62,-381 616.88,-381 616.88,-361 720.62,-361 720.62,-381"/>
<text text-anchor="middle" x="668.75" y="-367.5" font-family="Helvetica,sans-Serif" font-size="10.00">Camera::AdjustFOV</text>
</a>
</g>
</g>
<!-- Node3&#45;&gt;Node4 -->
<g id="edge3_Node000003_Node000004" class="edge">
<title>Node3&#45;&gt;Node4</title>
<g id="a_edge3_Node000003_Node000004"><a xlink:title=" ">
<path fill="none" stroke="#63b8ff" d="M464.95,-305.37C488.52,-318.11 530.76,-339.57 569.25,-352 580.8,-355.73 593.35,-358.84 605.52,-361.38"/>
<polygon fill="#63b8ff" stroke="#63b8ff" points="604.56,-364.76 615.05,-363.27 605.92,-357.9 604.56,-364.76"/>
</a>
</g>
</g>
<!-- Node8 -->
<g id="Node000008" class="node">
<title>Node8</title>
<g id="a_Node000008"><a xlink:href="class_model.html#aad465ba03d1c753232c59a6c6747b18f" target="_top" xlink:title=" ">
<polygon fill="white" stroke="#666666" points="718,-343 619.5,-343 619.5,-323 718,-323 718,-343"/>
<text text-anchor="middle" x="668.75" y="-329.5" font-family="Helvetica,sans-Serif" font-size="10.00">Model::SetPosition</text>
</a>
</g>
</g>
<!-- Node3&#45;&gt;Node8 -->
<g id="edge8_Node000003_Node000008" class="edge">
<title>Node3&#45;&gt;Node8</title>
<g id="a_edge8_Node000003_Node000008"><a xlink:title=" ">
<path fill="none" stroke="#63b8ff" d="M507.45,-305.48C538.8,-310.86 576.84,-317.39 607.99,-322.74"/>
<polygon fill="#63b8ff" stroke="#63b8ff" points="607.19,-326.16 617.64,-324.4 608.38,-319.26 607.19,-326.16"/>
</a>
</g>
</g>
<!-- Node10 -->
<g id="Node000010" class="node">
<title>Node10</title>
<g id="a_Node000010"><a xlink:href="class_model.html#a57035d77f213ec90ebc355fd9c0d0e05" target="_top" xlink:title=" ">
<polygon fill="white" stroke="#666666" points="718.38,-305 619.12,-305 619.12,-285 718.38,-285 718.38,-305"/>
<text text-anchor="middle" x="668.75" y="-291.5" font-family="Helvetica,sans-Serif" font-size="10.00">Model::SetRotation</text>
</a>
</g>
</g>
<!-- Node3&#45;&gt;Node10 -->
<g id="edge10_Node000003_Node000010" class="edge">
<title>Node3&#45;&gt;Node10</title>
<g id="a_edge10_Node000003_Node000010"><a xlink:title=" ">
<path fill="none" stroke="#63b8ff" d="M525.67,-295C552.68,-295 582.4,-295 607.65,-295"/>
<polygon fill="#63b8ff" stroke="#63b8ff" points="607.39,-298.5 617.39,-295 607.39,-291.5 607.39,-298.5"/>
</a>
</g>
</g>
<!-- Node11 -->
<g id="Node000011" class="node">
<title>Node11</title>
<g id="a_Node000011"><a xlink:href="class_model.html#ac517047da883a877b300c13c2fce17d9" target="_top" xlink:title=" ">
<polygon fill="white" stroke="#666666" points="712.75,-267 624.75,-267 624.75,-247 712.75,-247 712.75,-267"/>
<text text-anchor="middle" x="668.75" y="-253.5" font-family="Helvetica,sans-Serif" font-size="10.00">Model::SetScale</text>
</a>
</g>
</g>
<!-- Node3&#45;&gt;Node11 -->
<g id="edge12_Node000003_Node000011" class="edge">
<title>Node3&#45;&gt;Node11</title>
<g id="a_edge12_Node000003_Node000011"><a xlink:title=" ">
<path fill="none" stroke="#63b8ff" d="M507.45,-284.52C540.65,-278.82 581.36,-271.83 613.44,-266.32"/>
<polygon fill="#63b8ff" stroke="#63b8ff" points="613.65,-269.84 622.92,-264.7 612.47,-262.94 613.65,-269.84"/>
</a>
</g>
</g>
<!-- Node5 -->
<g id="Node000005" class="node">
<title>Node5</title>
<g id="a_Node000005"><a xlink:href="class_camera.html#aa083de8522b4424b0f0943d7e887019e" target="_top" xlink:title=" ">
<polygon fill="white" stroke="#666666" points="939.88,-419 838.38,-419 838.38,-399 939.88,-399 939.88,-419"/>
<text text-anchor="middle" x="889.12" y="-405.5" font-family="Helvetica,sans-Serif" font-size="10.00">Camera::calculateP</text>
</a>
</g>
</g>
<!-- Node4&#45;&gt;Node5 -->
<g id="edge4_Node000004_Node000005" class="edge">
<title>Node4&#45;&gt;Node5</title>
<g id="a_edge4_Node000004_Node000005"><a xlink:title=" ">
<path fill="none" stroke="#63b8ff" d="M720.95,-379.91C752.66,-385.43 793.57,-392.55 826.98,-398.36"/>
<polygon fill="#63b8ff" stroke="#63b8ff" points="826.06,-401.75 836.51,-400.02 827.26,-394.86 826.06,-401.75"/>
</a>
</g>
</g>
<!-- Node6 -->
<g id="Node000006" class="node">
<title>Node6</title>
<g id="a_Node000006"><a xlink:href="class_camera.html#aeffd7e25c1d933ac532ac3679d84ee4b" target="_top" xlink:title=" ">
<polygon fill="white" stroke="#666666" points="1130.62,-400 1031.38,-400 1031.38,-380 1130.62,-380 1130.62,-400"/>
<text text-anchor="middle" x="1081" y="-386.5" font-family="Helvetica,sans-Serif" font-size="10.00">Camera::toRadians</text>
</a>
</g>
</g>
<!-- Node4&#45;&gt;Node6 -->
<g id="edge7_Node000004_Node000006" class="edge">
<title>Node4&#45;&gt;Node6</title>
<g id="a_edge7_Node000004_Node000006"><a xlink:title=" ">
<path fill="none" stroke="#63b8ff" d="M720.88,-373.37C796.73,-376.88 938.79,-383.46 1019.64,-387.2"/>
<polygon fill="#63b8ff" stroke="#63b8ff" points="1019.45,-390.7 1029.6,-387.67 1019.77,-383.71 1019.45,-390.7"/>
</a>
</g>
</g>
<!-- Node7 -->
<g id="Node000007" class="node">
<title>Node7</title>
<g id="a_Node000007"><a xlink:href="class_camera.html#a42ce8c5aa081254cd0b0fcf12b7d54da" target="_top" xlink:title=" ">
<polygon fill="white" stroke="#666666" points="939.12,-343 839.12,-343 839.12,-323 939.12,-323 939.12,-343"/>
<text text-anchor="middle" x="889.12" y="-329.5" font-family="Helvetica,sans-Serif" font-size="10.00">Camera::toDegrees</text>
</a>
</g>
</g>
<!-- Node4&#45;&gt;Node7 -->
<g id="edge6_Node000004_Node000007" class="edge">
<title>Node4&#45;&gt;Node7</title>
<g id="a_edge6_Node000004_Node000007"><a xlink:title=" ">
<path fill="none" stroke="#63b8ff" d="M720.95,-362.09C752.89,-356.53 794.15,-349.35 827.7,-343.52"/>
<polygon fill="#63b8ff" stroke="#63b8ff" points="828.01,-347.01 837.26,-341.85 826.81,-340.12 828.01,-347.01"/>
</a>
</g>
</g>
<!-- Node5&#45;&gt;Node6 -->
<g id="edge5_Node000005_Node000006" class="edge">
<title>Node5&#45;&gt;Node6</title>
<g id="a_edge5_Node000005_Node000006"><a xlink:title=" ">
<path fill="none" stroke="#63b8ff" d="M940.01,-404.01C964.51,-401.56 994.23,-398.58 1019.97,-396.01"/>
<polygon fill="#63b8ff" stroke="#63b8ff" points="1019.99,-399.52 1029.6,-395.04 1019.3,-392.56 1019.99,-399.52"/>
</a>
</g>
</g>
<!-- Node9 -->
<g id="Node000009" class="node">
<title>Node9</title>
<g id="a_Node000009"><a xlink:href="class_model.html#ade9b21ed1f4b5073186f4246d2727d9a" target="_top" xlink:title=" ">
<polygon fill="white" stroke="#666666" points="974,-305 804.25,-305 804.25,-285 974,-285 974,-305"/>
<text text-anchor="middle" x="889.12" y="-291.5" font-family="Helvetica,sans-Serif" font-size="10.00">Model::UpdateTransformationMatrix</text>
</a>
</g>
</g>
<!-- Node8&#45;&gt;Node9 -->
<g id="edge9_Node000008_Node000009" class="edge">
<title>Node8&#45;&gt;Node9</title>
<g id="a_edge9_Node000008_Node000009"><a xlink:title=" ">
<path fill="none" stroke="#63b8ff" d="M718.49,-324.52C747.38,-319.49 784.53,-313.03 816.7,-307.43"/>
<polygon fill="#63b8ff" stroke="#63b8ff" points="817.1,-310.91 826.35,-305.75 815.9,-304.02 817.1,-310.91"/>
</a>
</g>
</g>
<!-- Node10&#45;&gt;Node9 -->
<g id="edge11_Node000010_Node000009" class="edge">
<title>Node10&#45;&gt;Node9</title>
<g id="a_edge11_Node000010_Node000009"><a xlink:title=" ">
<path fill="none" stroke="#63b8ff" d="M718.76,-295C740.67,-295 767.27,-295 792.85,-295"/>
<polygon fill="#63b8ff" stroke="#63b8ff" points="792.6,-298.5 802.6,-295 792.6,-291.5 792.6,-298.5"/>
</a>
</g>
</g>
<!-- Node11&#45;&gt;Node9 -->
<g id="edge13_Node000011_Node000009" class="edge">
<title>Node11&#45;&gt;Node9</title>
<g id="a_edge13_Node000011_Node000009"><a xlink:title=" ">
<path fill="none" stroke="#63b8ff" d="M713.15,-264.55C742.66,-269.69 782.38,-276.6 816.51,-282.54"/>
<polygon fill="#63b8ff" stroke="#63b8ff" points="815.91,-285.99 826.36,-284.25 817.11,-279.09 815.91,-285.99"/>
</a>
</g>
</g>
<!-- Node14 -->
<g id="Node000014" class="node">
<title>Node14</title>
<g id="a_Node000014"><a xlink:href="class_graphics_device.html#a28350dcab3e8059d360079f277649067" target="_top" xlink:title=" ">
<polygon fill="white" stroke="#666666" points="736.38,-229 601.12,-229 601.12,-209 736.38,-209 736.38,-229"/>
<text text-anchor="middle" x="668.75" y="-215.5" font-family="Helvetica,sans-Serif" font-size="10.00">GraphicsDevice::GetHWND</text>
</a>
</g>
</g>
<!-- Node13&#45;&gt;Node14 -->
<g id="edge16_Node000013_Node000014" class="edge">
<title>Node13&#45;&gt;Node14</title>
<g id="a_edge16_Node000013_Node000014"><a xlink:title=" ">
<path fill="none" stroke="#63b8ff" d="M525.05,-219C545.91,-219 568.44,-219 589.3,-219"/>
<polygon fill="#63b8ff" stroke="#63b8ff" points="589.18,-222.5 599.18,-219 589.18,-215.5 589.18,-222.5"/>
</a>
</g>
</g>
<!-- Node15 -->
<g id="Node000015" class="node">
<title>Node15</title>
<g id="a_Node000015"><a xlink:href="class_graphics_device.html#afb2cef3f85e50972191d7b44e598493c" target="_top" xlink:title=" ">
<polygon fill="white" stroke="#666666" points="752.5,-191 585,-191 585,-171 752.5,-171 752.5,-191"/>
<text text-anchor="middle" x="668.75" y="-177.5" font-family="Helvetica,sans-Serif" font-size="10.00">GraphicsDevice::GetWindowHeight</text>
</a>
</g>
</g>
<!-- Node13&#45;&gt;Node15 -->
<g id="edge17_Node000013_Node000015" class="edge">
<title>Node13&#45;&gt;Node15</title>
<g id="a_edge17_Node000013_Node000015"><a xlink:title=" ">
<path fill="none" stroke="#63b8ff" d="M507.45,-208.52C534.79,-203.82 567.23,-198.26 595.74,-193.36"/>
<polygon fill="#63b8ff" stroke="#63b8ff" points="596.12,-196.85 605.38,-191.71 594.93,-189.95 596.12,-196.85"/>
</a>
</g>
</g>
<!-- Node16 -->
<g id="Node000016" class="node">
<title>Node16</title>
<g id="a_Node000016"><a xlink:href="class_graphics_device.html#a9ce4e3a7ea6a35ded13381fb7c55a027" target="_top" xlink:title=" ">
<polygon fill="white" stroke="#666666" points="751.38,-153 586.12,-153 586.12,-133 751.38,-133 751.38,-153"/>
<text text-anchor="middle" x="668.75" y="-139.5" font-family="Helvetica,sans-Serif" font-size="10.00">GraphicsDevice::GetWindowWidth</text>
</a>
</g>
</g>
<!-- Node13&#45;&gt;Node16 -->
<g id="edge18_Node000013_Node000016" class="edge">
<title>Node13&#45;&gt;Node16</title>
<g id="a_edge18_Node000013_Node000016"><a xlink:title=" ">
<path fill="none" stroke="#63b8ff" d="M513.81,-208.51C520.59,-206.22 527.2,-203.42 533.25,-200 553.51,-188.56 548.85,-173.18 569.25,-162 572.28,-160.34 575.44,-158.82 578.68,-157.43"/>
<polygon fill="#63b8ff" stroke="#63b8ff" points="579.73,-160.77 587.85,-153.97 577.26,-154.22 579.73,-160.77"/>
</a>
</g>
</g>
<!-- Node19&#45;&gt;Node14 -->
<g id="edge22_Node000019_Node000014" class="edge">
<title>Node19&#45;&gt;Node14</title>
<g id="a_edge22_Node000019_Node000014"><a xlink:title=" ">
<path fill="none" stroke="#63b8ff" d="M507.45,-191.48C534.79,-196.18 567.23,-201.74 595.74,-206.64"/>
<polygon fill="#63b8ff" stroke="#63b8ff" points="594.93,-210.05 605.38,-208.29 596.12,-203.15 594.93,-210.05"/>
</a>
</g>
</g>
<!-- Node19&#45;&gt;Node15 -->
<g id="edge23_Node000019_Node000015" class="edge">
<title>Node19&#45;&gt;Node15</title>
<g id="a_edge23_Node000019_Node000015"><a xlink:title=" ">
<path fill="none" stroke="#63b8ff" d="M531.01,-181C544.88,-181 559.33,-181 573.42,-181"/>
<polygon fill="#63b8ff" stroke="#63b8ff" points="573.11,-184.5 583.11,-181 573.11,-177.5 573.11,-184.5"/>
</a>
</g>
</g>
<!-- Node19&#45;&gt;Node16 -->
<g id="edge24_Node000019_Node000016" class="edge">
<title>Node19&#45;&gt;Node16</title>
<g id="a_edge24_Node000019_Node000016"><a xlink:title=" ">
<path fill="none" stroke="#63b8ff" d="M507.45,-170.52C534.79,-165.82 567.23,-160.26 595.74,-155.36"/>
<polygon fill="#63b8ff" stroke="#63b8ff" points="596.12,-158.85 605.38,-153.71 594.93,-151.95 596.12,-158.85"/>
</a>
</g>
</g>
<!-- Node20 -->
<g id="Node000020" class="node">
<title>Node20</title>
<g id="a_Node000020"><a xlink:href="class_camera.html#ae8a25589ce2d2c2211f33dbeb4c640cf" target="_top" xlink:title=" ">
<polygon fill="white" stroke="#666666" points="710.88,-115 626.62,-115 626.62,-95 710.88,-95 710.88,-115"/>
<text text-anchor="middle" x="668.75" y="-101.5" font-family="Helvetica,sans-Serif" font-size="10.00">Camera::Rotate</text>
</a>
</g>
</g>
<!-- Node19&#45;&gt;Node20 -->
<g id="edge25_Node000019_Node000020" class="edge">
<title>Node19&#45;&gt;Node20</title>
<g id="a_edge25_Node000019_Node000020"><a xlink:title=" ">
<path fill="none" stroke="#63b8ff" d="M513.81,-170.51C520.59,-168.22 527.2,-165.42 533.25,-162 553.51,-150.56 548.85,-135.18 569.25,-124 583.26,-116.32 599.88,-111.7 615.43,-108.94"/>
<polygon fill="#63b8ff" stroke="#63b8ff" points="615.67,-112.45 625.03,-107.47 614.61,-105.53 615.67,-112.45"/>
</a>
</g>
</g>
<!-- Node22 -->
<g id="Node000022" class="node">
<title>Node22</title>
<g id="a_Node000022"><a xlink:href="class_camera.html#a578a39fe4e78f602f0c353a82c6587a4" target="_top" xlink:title=" ">
<polygon fill="white" stroke="#666666" points="708.62,-77 628.88,-77 628.88,-57 708.62,-57 708.62,-77"/>
<text text-anchor="middle" x="668.75" y="-63.5" font-family="Helvetica,sans-Serif" font-size="10.00">Camera::Zoom</text>
</a>
</g>
</g>
<!-- Node21&#45;&gt;Node22 -->
<g id="edge27_Node000021_Node000022" class="edge">
<title>Node21&#45;&gt;Node22</title>
<g id="a_edge27_Node000021_Node000022"><a xlink:title=" ">
<path fill="none" stroke="#63b8ff" d="M533.55,-67C561.96,-67 592.54,-67 617.32,-67"/>
<polygon fill="#63b8ff" stroke="#63b8ff" points="617.11,-70.5 627.11,-67 617.11,-63.5 617.11,-70.5"/>
</a>
</g>
</g>
<!-- Node24 -->
<g id="Node000024" class="node">
<title>Node24</title>
<g id="a_Node000024"><a xlink:href="class_shader_manager.html#a6eefb74e7cf9795b75f018a6e64ba931" target="_top" xlink:title=" ">
<polygon fill="white" stroke="#666666" points="768.25,-39 569.25,-39 569.25,-19 768.25,-19 768.25,-39"/>
<text text-anchor="middle" x="668.75" y="-25.5" font-family="Helvetica,sans-Serif" font-size="10.00">ShaderManager::CheckForShaderUpdates</text>
</a>
</g>
</g>
<!-- Node23&#45;&gt;Node24 -->
<g id="edge29_Node000023_Node000024" class="edge">
<title>Node23&#45;&gt;Node24</title>
<g id="a_edge29_Node000023_Node000024"><a xlink:title=" ">
<path fill="none" stroke="#63b8ff" d="M525.98,-29C536.18,-29 546.76,-29 557.33,-29"/>
<polygon fill="#63b8ff" stroke="#63b8ff" points="557.27,-32.5 567.27,-29 557.27,-25.5 557.27,-32.5"/>
</a>
</g>
</g>
<!-- Node25 -->
<g id="Node000025" class="node">
<title>Node25</title>
<g id="a_Node000025"><a xlink:href="class_shader_manager.html#ac6e7ac40f579b9ff0d44c91379e5e631" target="_top" xlink:title=" ">
<polygon fill="white" stroke="#666666" points="964.62,-39 813.62,-39 813.62,-19 964.62,-19 964.62,-39"/>
<text text-anchor="middle" x="889.12" y="-25.5" font-family="Helvetica,sans-Serif" font-size="10.00">ShaderManager::ReloadShader</text>
</a>
</g>
</g>
<!-- Node24&#45;&gt;Node25 -->
<g id="edge30_Node000024_Node000025" class="edge">
<title>Node24&#45;&gt;Node25</title>
<g id="a_edge30_Node000024_Node000025"><a xlink:title=" ">
<path fill="none" stroke="#63b8ff" d="M768.71,-29C779.85,-29 791.14,-29 802.09,-29"/>
<polygon fill="#63b8ff" stroke="#63b8ff" points="801.86,-32.5 811.86,-29 801.86,-25.5 801.86,-32.5"/>
</a>
</g>
</g>
<!-- Node26 -->
<g id="Node000026" class="node">
<title>Node26</title>
<g id="a_Node000026"><a xlink:href="class_shader_manager.html#a9e20b23487904239ee0fce4998585a11" target="_top" xlink:title=" ">
<polygon fill="white" stroke="#666666" points="1366,-39 1188,-39 1188,-19 1366,-19 1366,-39"/>
<text text-anchor="middle" x="1277" y="-25.5" font-family="Helvetica,sans-Serif" font-size="10.00">ShaderManager::GenerateShaderKey</text>
</a>
</g>
</g>
<!-- Node25&#45;&gt;Node26 -->
<g id="edge31_Node000025_Node000026" class="edge">
<title>Node25&#45;&gt;Node26</title>
<g id="a_edge31_Node000025_Node000026"><a xlink:title=" ">
<path fill="none" stroke="#63b8ff" d="M964.98,-29C1025.27,-29 1110.56,-29 1176.58,-29"/>
<polygon fill="#63b8ff" stroke="#63b8ff" points="1176.32,-32.5 1186.32,-29 1176.32,-25.5 1176.32,-32.5"/>
</a>
</g>
</g>
<!-- Node27 -->
<g id="Node000027" class="node">
<title>Node27</title>
<g id="a_Node000027"><a xlink:href="class_shader_manager.html#a6d8ac1d497a7ae3d1da64456d24b94a3" target="_top" xlink:title=" ">
<polygon fill="white" stroke="#666666" points="1152,-20 1010,-20 1010,0 1152,0 1152,-20"/>
<text text-anchor="middle" x="1081" y="-6.5" font-family="Helvetica,sans-Serif" font-size="10.00">ShaderManager::LoadShader</text>
</a>
</g>
</g>
<!-- Node25&#45;&gt;Node27 -->
<g id="edge32_Node000025_Node000027" class="edge">
<title>Node25&#45;&gt;Node27</title>
<g id="a_edge32_Node000025_Node000027"><a xlink:title=" ">
<path fill="none" stroke="#63b8ff" d="M964.9,-21.52C975.83,-20.42 987.14,-19.29 998.21,-18.18"/>
<polygon fill="#63b8ff" stroke="#63b8ff" points="998.53,-21.67 1008.13,-17.19 997.83,-14.71 998.53,-21.67"/>
</a>
</g>
</g>
<!-- Node27&#45;&gt;Node26 -->
<g id="edge33_Node000027_Node000026" class="edge">
<title>Node27&#45;&gt;Node26</title>
<g id="a_edge33_Node000027_Node000026"><a xlink:title=" ">
<path fill="none" stroke="#63b8ff" d="M1152.31,-16.89C1160.13,-17.65 1168.19,-18.44 1176.28,-19.23"/>
<polygon fill="#63b8ff" stroke="#63b8ff" points="1175.9,-22.71 1186.2,-20.2 1176.59,-15.75 1175.9,-22.71"/>
</a>
</g>
</g>
<!-- Node29 -->
<g id="Node000029" class="node">
<title>Node29</title>
<g id="a_Node000029"><a xlink:href="class_camera.html#a7f65f916f0f843b82e1f755ba5eb4858" target="_top" xlink:title=" ">
<polygon fill="white" stroke="#666666" points="739,-419 598.5,-419 598.5,-399 739,-399 739,-419"/>
<text text-anchor="middle" x="668.75" y="-405.5" font-family="Helvetica,sans-Serif" font-size="10.00">Camera::changeAspectRatio</text>
</a>
</g>
</g>
<!-- Node28&#45;&gt;Node29 -->
<g id="edge35_Node000028_Node000029" class="edge">
<title>Node28&#45;&gt;Node29</title>
<g id="a_edge35_Node000028_Node000029"><a xlink:title=" ">
<path fill="none" stroke="#63b8ff" d="M514.9,-409C537.6,-409 563.08,-409 586.63,-409"/>
<polygon fill="#63b8ff" stroke="#63b8ff" points="586.51,-412.5 596.51,-409 586.51,-405.5 586.51,-412.5"/>
</a>
</g>
</g>
<!-- Node30 -->
<g id="Node000030" class="node">
<title>Node30</title>
<g id="a_Node000030"><a xlink:href="class_graphics_device.html#ae5b1ab7f592c08722481bf863204e097" target="_top" xlink:title=" ">
<polygon fill="white" stroke="#666666" points="765.25,-457 572.25,-457 572.25,-437 765.25,-437 765.25,-457"/>
<text text-anchor="middle" x="668.75" y="-443.5" font-family="Helvetica,sans-Serif" font-size="10.00">GraphicsDevice::ResizeBuffersAndViews</text>
</a>
</g>
</g>
<!-- Node28&#45;&gt;Node30 -->
<g id="edge37_Node000028_Node000030" class="edge">
<title>Node28&#45;&gt;Node30</title>
<g id="a_edge37_Node000028_Node000030"><a xlink:title=" ">
<path fill="none" stroke="#63b8ff" d="M507.45,-419.48C534.79,-424.18 567.23,-429.74 595.74,-434.64"/>
<polygon fill="#63b8ff" stroke="#63b8ff" points="594.93,-438.05 605.38,-436.29 596.12,-431.15 594.93,-438.05"/>
</a>
</g>
</g>
<!-- Node29&#45;&gt;Node5 -->
<g id="edge36_Node000029_Node000005" class="edge">
<title>Node29&#45;&gt;Node5</title>
<g id="a_edge36_Node000029_Node000005"><a xlink:title=" ">
<path fill="none" stroke="#63b8ff" d="M739.45,-409C767.52,-409 799.61,-409 826.78,-409"/>
<polygon fill="#63b8ff" stroke="#63b8ff" points="826.58,-412.5 836.58,-409 826.58,-405.5 826.58,-412.5"/>
</a>
</g>
</g>
</g>
</svg>

<g id="navigator" transform="translate(0 0)" fill="#404254">
  <rect fill="#f2f5e9" fill-opacity="0.5" stroke="#606060" stroke-width=".5" x="0" y="0" width="60" height="60"/>
  <use id="zoomplus" xlink:href="#zoomPlus" x="17" y="9" onmousedown="handleZoom(evt,'in')"/>
  <use id="zoomminus" xlink:href="#zoomMin" x="42" y="9" onmousedown="handleZoom(evt,'out')"/>
  <use id="reset" xlink:href="#resetDef" x="30" y="36" onmousedown="handleReset()"/>
   <use id="arrowup" xlink:href="#arrowUp" x="0" y="0" onmousedown="handlePan(0,-1)"/>
  <use id="arrowright" xlink:href="#arrowRight" x="0" y="0" onmousedown="handlePan(1,0)"/>
  <use id="arrowdown" xlink:href="#arrowDown" x="0" y="0" onmousedown="handlePan(0,1)"/>
  <use id="arrowleft" xlink:href="#arrowLeft" x="0" y="0" onmousedown="handlePan(-1,0)"/>
</g>
<svg viewBox="0 0 15 15" width="100%" height="30px" preserveAspectRatio="xMaxYMin meet">
 <g id="arrow_out" transform="scale(0.3 0.3)">
  <a xlink:href="class_win32_application_a05c9e61b80735ab0b3fa576ebab260d6_cgraph_org.svg" target="_base">
   <rect id="button" ry="5" rx="5" y="6" x="6" height="38" width="38"
        fill="#f2f5e9" fill-opacity="0.5" stroke="#606060" stroke-width="1.0"/>
   <path id="arrow"
     d="M 11.500037,31.436501 C 11.940474,20.09759 22.043105,11.32322 32.158766,21.979434 L 37.068811,17.246167 C 37.068811,17.246167 37.088388,32 37.088388,32 L 22.160133,31.978069 C 22.160133,31.978069 26.997745,27.140456 26.997745,27.140456 C 18.528582,18.264221 13.291696,25.230495 11.500037,31.436501 z"
     style="fill:#404040;"/>
  </a>
 </g>
</svg>

<style type='text/css'>
<![CDATA[
[data-mouse-over-selected='false'] { opacity: 0.7; }
[data-mouse-over-selected='true']  { opacity: 1.0; }
]]>
</style>
<script type="application/ecmascript"><![CDATA[
document.addEventListener('DOMContentLoaded', (event) => {
  highlightEdges();
  highlightAdjacentNodes();
});
]]></script>
</svg>
