<?xml version="1.0" encoding="UTF-8" standalone="no"?>
<!DOCTYPE svg PUBLIC "-//W3C//DTD SVG 1.1//EN"
 "http://www.w3.org/Graphics/SVG/1.1/DTD/svg11.dtd">
<!-- Generated by graphviz version 9.0.0 (20230911.1827)
 -->
<!-- Title: DirectXManager::AddModel Pages: 1 -->
<svg width="318pt" height="66pt"
 viewBox="0.00 0.00 317.50 66.00" xmlns="http://www.w3.org/2000/svg" xmlns:xlink="http://www.w3.org/1999/xlink">
<g id="graph0" class="graph" transform="scale(1 1) rotate(0) translate(4 62)">
<title>DirectXManager::AddModel</title>
<!-- Node1 -->
<g id="Node000001" class="node">
<title>Node1</title>
<g id="a_Node000001"><a xlink:title=" ">
<polygon fill="#999999" stroke="#666666" points="133.75,-39 0,-39 0,-19 133.75,-19 133.75,-39"/>
<text text-anchor="middle" x="66.88" y="-25.5" font-family="Helvetica,sans-Serif" font-size="10.00">DirectXManager::AddModel</text>
</a>
</g>
</g>
<!-- Node2 -->
<g id="Node000002" class="node">
<title>Node2</title>
<g id="a_Node000002"><a xlink:href="class_model.html#a186f6681c1544e240439920cd50607c0" target="_top" xlink:title=" ">
<polygon fill="white" stroke="#666666" points="299,-58 180.25,-58 180.25,-38 299,-38 299,-58"/>
<text text-anchor="middle" x="239.62" y="-44.5" font-family="Helvetica,sans-Serif" font-size="10.00">Model::GetMeshEntries</text>
</a>
</g>
</g>
<!-- Node1&#45;&gt;Node2 -->
<g id="edge1_Node000001_Node000002" class="edge">
<title>Node1&#45;&gt;Node2</title>
<g id="a_edge1_Node000001_Node000002"><a xlink:title=" ">
<path fill="none" stroke="#63b8ff" d="M133.89,-36.35C145.29,-37.61 157.18,-38.94 168.68,-40.22"/>
<polygon fill="#63b8ff" stroke="#63b8ff" points="168.19,-43.68 178.52,-41.31 168.97,-36.73 168.19,-43.68"/>
</a>
</g>
</g>
<!-- Node3 -->
<g id="Node000003" class="node">
<title>Node3</title>
<g id="a_Node000003"><a xlink:href="class_material.html#a96434cf45f279c51bde30fb55e2706ac" target="_top" xlink:title=" ">
<polygon fill="white" stroke="#666666" points="309.5,-20 169.75,-20 169.75,0 309.5,0 309.5,-20"/>
<text text-anchor="middle" x="239.62" y="-6.5" font-family="Helvetica,sans-Serif" font-size="10.00">Material::GetShaderProgram</text>
</a>
</g>
</g>
<!-- Node1&#45;&gt;Node3 -->
<g id="edge2_Node000001_Node000003" class="edge">
<title>Node1&#45;&gt;Node3</title>
<g id="a_edge2_Node000001_Node000003"><a xlink:title=" ">
<path fill="none" stroke="#63b8ff" d="M133.89,-21.65C141.8,-20.77 149.94,-19.87 158.03,-18.97"/>
<polygon fill="#63b8ff" stroke="#63b8ff" points="158.34,-22.46 167.89,-17.87 157.56,-15.5 158.34,-22.46"/>
</a>
</g>
</g>
</g>
</svg>
