<?xml version="1.0" encoding="UTF-8" standalone="no"?>
<!DOCTYPE svg PUBLIC "-//W3C//DTD SVG 1.1//EN"
 "http://www.w3.org/Graphics/SVG/1.1/DTD/svg11.dtd">
<!-- Generated by graphviz version 9.0.0 (20230911.1827)
 -->
<!-- Title: GraphicsDevice::GetDevice Pages: 1 -->
<svg width="620pt" height="256pt"
 viewBox="0.00 0.00 619.50 256.00" xmlns="http://www.w3.org/2000/svg" xmlns:xlink="http://www.w3.org/1999/xlink">
<g id="graph0" class="graph" transform="scale(1 1) rotate(0) translate(4 252)">
<title>GraphicsDevice::GetDevice</title>
<!-- Node1 -->
<g id="Node000001" class="node">
<title>Node1</title>
<g id="a_Node000001"><a xlink:title=" ">
<polygon fill="#999999" stroke="#666666" points="611.5,-134 477.75,-134 477.75,-114 611.5,-114 611.5,-134"/>
<text text-anchor="middle" x="544.62" y="-120.5" font-family="Helvetica,sans-Serif" font-size="10.00">GraphicsDevice::GetDevice</text>
</a>
</g>
</g>
<!-- Node2 -->
<g id="Node000002" class="node">
<title>Node2</title>
<g id="a_Node000002"><a xlink:href="class_render_state.html#a34866fd1c1dae97ee540b0cbc8de1107" target="_top" xlink:title=" ">
<polygon fill="white" stroke="#666666" points="426.38,-172 273.88,-172 273.88,-152 426.38,-152 426.38,-172"/>
<text text-anchor="middle" x="350.12" y="-158.5" font-family="Helvetica,sans-Serif" font-size="10.00">RenderState::CreateBlendState</text>
</a>
</g>
</g>
<!-- Node1&#45;&gt;Node2 -->
<g id="edge1_Node000001_Node000002" class="edge">
<title>Node1&#45;&gt;Node2</title>
<g id="a_edge1_Node000001_Node000002"><a xlink:title=" ">
<path fill="none" stroke="#63b8ff" d="M479.51,-136.66C455.02,-141.49 427.4,-146.94 404.06,-151.55"/>
<polygon fill="#63b8ff" stroke="#63b8ff" points="479.9,-140.15 489.03,-134.78 478.54,-133.28 479.9,-140.15"/>
</a>
</g>
</g>
<!-- Node5 -->
<g id="Node000005" class="node">
<title>Node5</title>
<g id="a_Node000005"><a xlink:href="class_render_state.html#a21c1b758a9c8766a09aa6131b789c169" target="_top" xlink:title=" ">
<polygon fill="white" stroke="#666666" points="441.75,-134 258.5,-134 258.5,-114 441.75,-114 441.75,-134"/>
<text text-anchor="middle" x="350.12" y="-120.5" font-family="Helvetica,sans-Serif" font-size="10.00">RenderState::CreateDepthStencilState</text>
</a>
</g>
</g>
<!-- Node1&#45;&gt;Node5 -->
<g id="edge4_Node000001_Node000005" class="edge">
<title>Node1&#45;&gt;Node5</title>
<g id="a_edge4_Node000001_Node000005"><a xlink:title=" ">
<path fill="none" stroke="#63b8ff" d="M465.96,-124C458.07,-124 450,-124 441.98,-124"/>
<polygon fill="#63b8ff" stroke="#63b8ff" points="465.86,-127.5 475.86,-124 465.86,-120.5 465.86,-127.5"/>
</a>
</g>
</g>
<!-- Node6 -->
<g id="Node000006" class="node">
<title>Node6</title>
<g id="a_Node000006"><a xlink:href="class_render_state.html#ade03bd42f99c8e55dfd9d23673e27788" target="_top" xlink:title=" ">
<polygon fill="white" stroke="#666666" points="436.12,-96 264.12,-96 264.12,-76 436.12,-76 436.12,-96"/>
<text text-anchor="middle" x="350.12" y="-82.5" font-family="Helvetica,sans-Serif" font-size="10.00">RenderState::CreateRasterizerState</text>
</a>
</g>
</g>
<!-- Node1&#45;&gt;Node6 -->
<g id="edge6_Node000001_Node000006" class="edge">
<title>Node1&#45;&gt;Node6</title>
<g id="a_edge6_Node000001_Node000006"><a xlink:title=" ">
<path fill="none" stroke="#63b8ff" d="M479.51,-111.34C455.02,-106.51 427.4,-101.06 404.06,-96.45"/>
<polygon fill="#63b8ff" stroke="#63b8ff" points="478.54,-114.72 489.03,-113.22 479.9,-107.85 478.54,-114.72"/>
</a>
</g>
</g>
<!-- Node7 -->
<g id="Node000007" class="node">
<title>Node7</title>
<g id="a_Node000007"><a xlink:href="class_render_state.html#a08e958035458e17abf37c1427f541625" target="_top" xlink:title=" ">
<polygon fill="white" stroke="#666666" points="432,-248 268.25,-248 268.25,-228 432,-228 432,-248"/>
<text text-anchor="middle" x="350.12" y="-234.5" font-family="Helvetica,sans-Serif" font-size="10.00">RenderState::CreateSamplerState</text>
</a>
</g>
</g>
<!-- Node1&#45;&gt;Node7 -->
<g id="edge8_Node000001_Node000007" class="edge">
<title>Node1&#45;&gt;Node7</title>
<g id="a_edge8_Node000001_Node000007"><a xlink:title=" ">
<path fill="none" stroke="#63b8ff" d="M528.89,-142.94C510.8,-164.81 478.03,-200.18 441.75,-219 435.04,-222.48 427.74,-225.32 420.3,-227.64"/>
<polygon fill="#63b8ff" stroke="#63b8ff" points="531.42,-145.38 534.97,-135.39 525.97,-140.99 531.42,-145.38"/>
</a>
</g>
</g>
<!-- Node8 -->
<g id="Node000008" class="node">
<title>Node8</title>
<g id="a_Node000008"><a xlink:href="class_mesh.html#a759fd9113edce7facf6f7d6a0506a653" target="_top" xlink:title=" ">
<polygon fill="white" stroke="#666666" points="395.62,-20 304.62,-20 304.62,0 395.62,0 395.62,-20"/>
<text text-anchor="middle" x="350.12" y="-6.5" font-family="Helvetica,sans-Serif" font-size="10.00">Mesh::LoadMesh</text>
</a>
</g>
</g>
<!-- Node1&#45;&gt;Node8 -->
<g id="edge10_Node000001_Node000008" class="edge">
<title>Node1&#45;&gt;Node8</title>
<g id="a_edge10_Node000001_Node000008"><a xlink:title=" ">
<path fill="none" stroke="#63b8ff" d="M528.89,-105.06C510.8,-83.19 478.03,-47.82 441.75,-29 427.77,-21.74 411.21,-17.26 396.1,-14.49"/>
<polygon fill="#63b8ff" stroke="#63b8ff" points="525.97,-107.01 534.97,-112.61 531.42,-102.62 525.97,-107.01"/>
</a>
</g>
</g>
<!-- Node10 -->
<g id="Node000010" class="node">
<title>Node10</title>
<g id="a_Node000010"><a xlink:href="class_shader_program.html#a14f6d27e459534745935a25443a5eb1c" target="_top" xlink:title=" ">
<polygon fill="white" stroke="#666666" points="420.75,-58 279.5,-58 279.5,-38 420.75,-38 420.75,-58"/>
<text text-anchor="middle" x="350.12" y="-44.5" font-family="Helvetica,sans-Serif" font-size="10.00">ShaderProgram::LoadShader</text>
</a>
</g>
</g>
<!-- Node1&#45;&gt;Node10 -->
<g id="edge12_Node000001_Node000010" class="edge">
<title>Node1&#45;&gt;Node10</title>
<g id="a_edge12_Node000001_Node000010"><a xlink:title=" ">
<path fill="none" stroke="#63b8ff" d="M518.9,-107.34C498.89,-94.57 469.55,-77.41 441.75,-67 432.72,-63.62 422.94,-60.78 413.26,-58.41"/>
<polygon fill="#63b8ff" stroke="#63b8ff" points="516.9,-110.22 527.19,-112.74 520.72,-104.35 516.9,-110.22"/>
</a>
</g>
</g>
<!-- Node11 -->
<g id="Node000011" class="node">
<title>Node11</title>
<g id="a_Node000011"><a xlink:href="class_material.html#a5b84673f2855d9b0cc9e75b3f18cbc38" target="_top" xlink:title=" ">
<polygon fill="white" stroke="#666666" points="405,-210 295.25,-210 295.25,-190 405,-190 405,-210"/>
<text text-anchor="middle" x="350.12" y="-196.5" font-family="Helvetica,sans-Serif" font-size="10.00">Material::LoadTexture</text>
</a>
</g>
</g>
<!-- Node1&#45;&gt;Node11 -->
<g id="edge13_Node000001_Node000011" class="edge">
<title>Node1&#45;&gt;Node11</title>
<g id="a_edge13_Node000001_Node000011"><a xlink:title=" ">
<path fill="none" stroke="#63b8ff" d="M518.9,-140.66C498.89,-153.43 469.55,-170.59 441.75,-181 430.16,-185.34 417.34,-188.79 405.08,-191.49"/>
<polygon fill="#63b8ff" stroke="#63b8ff" points="520.72,-143.65 527.19,-135.26 516.9,-137.78 520.72,-143.65"/>
</a>
</g>
</g>
<!-- Node3 -->
<g id="Node000003" class="node">
<title>Node3</title>
<g id="a_Node000003"><a xlink:href="class_direct_x_manager.html#ac95cceb904d9893d0b135c2bd9039b33" target="_top" xlink:title=" ">
<polygon fill="white" stroke="#666666" points="222.5,-172 97,-172 97,-152 222.5,-152 222.5,-172"/>
<text text-anchor="middle" x="159.75" y="-158.5" font-family="Helvetica,sans-Serif" font-size="10.00">DirectXManager::Initialize</text>
</a>
</g>
</g>
<!-- Node2&#45;&gt;Node3 -->
<g id="edge2_Node000002_Node000003" class="edge">
<title>Node2&#45;&gt;Node3</title>
<g id="a_edge2_Node000002_Node000003"><a xlink:title=" ">
<path fill="none" stroke="#63b8ff" d="M262.41,-162C249.02,-162 235.42,-162 222.71,-162"/>
<polygon fill="#63b8ff" stroke="#63b8ff" points="262.08,-165.5 272.08,-162 262.08,-158.5 262.08,-165.5"/>
</a>
</g>
</g>
<!-- Node4 -->
<g id="Node000004" class="node">
<title>Node4</title>
<g id="a_Node000004"><a xlink:href="_game_engine_8cpp.html#a1e683c5a19c00d05cd803e46b805e339" target="_top" xlink:title=" ">
<polygon fill="white" stroke="#666666" points="61,-172 0,-172 0,-152 61,-152 61,-172"/>
<text text-anchor="middle" x="30.5" y="-158.5" font-family="Helvetica,sans-Serif" font-size="10.00">wWinMain</text>
</a>
</g>
</g>
<!-- Node3&#45;&gt;Node4 -->
<g id="edge3_Node000003_Node000004" class="edge">
<title>Node3&#45;&gt;Node4</title>
<g id="a_edge3_Node000003_Node000004"><a xlink:title=" ">
<path fill="none" stroke="#63b8ff" d="M85.18,-162C76.85,-162 68.76,-162 61.49,-162"/>
<polygon fill="#63b8ff" stroke="#63b8ff" points="85.1,-165.5 95.1,-162 85.1,-158.5 85.1,-165.5"/>
</a>
</g>
</g>
<!-- Node5&#45;&gt;Node3 -->
<g id="edge5_Node000005_Node000003" class="edge">
<title>Node5&#45;&gt;Node3</title>
<g id="a_edge5_Node000005_Node000003"><a xlink:title=" ">
<path fill="none" stroke="#63b8ff" d="M286.06,-136.72C262.18,-141.54 235.28,-146.96 212.55,-151.55"/>
<polygon fill="#63b8ff" stroke="#63b8ff" points="286.56,-140.19 295.67,-134.78 285.17,-133.33 286.56,-140.19"/>
</a>
</g>
</g>
<!-- Node6&#45;&gt;Node3 -->
<g id="edge7_Node000006_Node000003" class="edge">
<title>Node6&#45;&gt;Node3</title>
<g id="a_edge7_Node000006_Node000003"><a xlink:title=" ">
<path fill="none" stroke="#63b8ff" d="M275.76,-99.25C269.85,-100.96 264.03,-102.87 258.5,-105 226.96,-117.13 193.68,-138.69 175.23,-151.54"/>
<polygon fill="#63b8ff" stroke="#63b8ff" points="276.23,-102.75 284.99,-96.78 274.42,-95.99 276.23,-102.75"/>
</a>
</g>
</g>
<!-- Node7&#45;&gt;Node3 -->
<g id="edge9_Node000007_Node000003" class="edge">
<title>Node7&#45;&gt;Node3</title>
<g id="a_edge9_Node000007_Node000003"><a xlink:title=" ">
<path fill="none" stroke="#63b8ff" d="M275.76,-224.75C269.85,-223.04 264.03,-221.13 258.5,-219 226.96,-206.87 193.68,-185.31 175.23,-172.46"/>
<polygon fill="#63b8ff" stroke="#63b8ff" points="274.42,-228.01 284.99,-227.22 276.23,-221.25 274.42,-228.01"/>
</a>
</g>
</g>
<!-- Node9 -->
<g id="Node000009" class="node">
<title>Node9</title>
<g id="a_Node000009"><a xlink:href="class_mesh.html#ab5b929dca533034a5cb370f985544adc" target="_top" xlink:title=" ">
<polygon fill="white" stroke="#666666" points="194.75,-20 124.75,-20 124.75,0 194.75,0 194.75,-20"/>
<text text-anchor="middle" x="159.75" y="-6.5" font-family="Helvetica,sans-Serif" font-size="10.00">Mesh::Mesh</text>
</a>
</g>
</g>
<!-- Node8&#45;&gt;Node9 -->
<g id="edge11_Node000008_Node000009" class="edge">
<title>Node8&#45;&gt;Node9</title>
<g id="a_edge11_Node000008_Node000009"><a xlink:title=" ">
<path fill="none" stroke="#63b8ff" d="M293.1,-10C261.26,-10 222.41,-10 195.06,-10"/>
<polygon fill="#63b8ff" stroke="#63b8ff" points="292.97,-13.5 302.97,-10 292.97,-6.5 292.97,-13.5"/>
</a>
</g>
</g>
<!-- Node11&#45;&gt;Node3 -->
<g id="edge14_Node000011_Node000003" class="edge">
<title>Node11&#45;&gt;Node3</title>
<g id="a_edge14_Node000011_Node000003"><a xlink:title=" ">
<path fill="none" stroke="#63b8ff" d="M286.06,-187.28C262.18,-182.46 235.28,-177.04 212.55,-172.45"/>
<polygon fill="#63b8ff" stroke="#63b8ff" points="285.17,-190.67 295.67,-189.22 286.56,-183.81 285.17,-190.67"/>
</a>
</g>
</g>
</g>
</svg>
