<?xml version="1.0" encoding="UTF-8" standalone="no"?>
<!DOCTYPE svg PUBLIC "-//W3C//DTD SVG 1.1//EN"
 "http://www.w3.org/Graphics/SVG/1.1/DTD/svg11.dtd">
<!-- Generated by graphviz version 9.0.0 (20230911.1827)
 -->
<!-- Title: Camera::AdjustFOV Pages: 1 -->
<svg width="385pt" height="104pt"
 viewBox="0.00 0.00 384.50 104.00" xmlns="http://www.w3.org/2000/svg" xmlns:xlink="http://www.w3.org/1999/xlink">

<svg id="main" version="1.1" xmlns="http://www.w3.org/2000/svg" xmlns:xlink="http://www.w3.org/1999/xlink" xml:space="preserve" onload="init(evt)">
<style type="text/css"><![CDATA[
.node, .edge {opacity: 0.7;}
.node.selected, .edge.selected {opacity: 1;}
.edge:hover path { stroke: red; }
.edge:hover polygon { stroke: red; fill: red; }
]]></style>
<script type="application/ecmascript" xlink:href="svg.min.js"/>
<svg id="graph" class="graph">
<g id="graph0" class="graph" transform="scale(1 1) rotate(0) translate(4 100)">
<title>Camera::AdjustFOV</title>
<!-- Node1 -->
<g id="Node000001" class="node">
<title>Node1</title>
<g id="a_Node000001"><a xlink:title=" ">
<polygon fill="#999999" stroke="#666666" points="103.75,-58 0,-58 0,-38 103.75,-38 103.75,-58"/>
<text text-anchor="middle" x="51.88" y="-44.5" font-family="Helvetica,sans-Serif" font-size="10.00">Camera::AdjustFOV</text>
</a>
</g>
</g>
<!-- Node2 -->
<g id="Node000002" class="node">
<title>Node2</title>
<g id="a_Node000002"><a xlink:href="class_camera.html#aa083de8522b4424b0f0943d7e887019e" target="_top" xlink:title=" ">
<polygon fill="white" stroke="#666666" points="241.25,-96 139.75,-96 139.75,-76 241.25,-76 241.25,-96"/>
<text text-anchor="middle" x="190.5" y="-82.5" font-family="Helvetica,sans-Serif" font-size="10.00">Camera::calculateP</text>
</a>
</g>
</g>
<!-- Node1&#45;&gt;Node2 -->
<g id="edge1_Node000001_Node000002" class="edge">
<title>Node1&#45;&gt;Node2</title>
<g id="a_edge1_Node000001_Node000002"><a xlink:title=" ">
<path fill="none" stroke="#63b8ff" d="M90.57,-58.48C106.25,-62.85 124.64,-67.96 141.29,-72.59"/>
<polygon fill="#63b8ff" stroke="#63b8ff" points="139.9,-75.84 150.47,-75.14 141.77,-69.09 139.9,-75.84"/>
</a>
</g>
</g>
<!-- Node3 -->
<g id="Node000003" class="node">
<title>Node3</title>
<g id="a_Node000003"><a xlink:href="class_camera.html#aeffd7e25c1d933ac532ac3679d84ee4b" target="_top" xlink:title=" ">
<polygon fill="white" stroke="#666666" points="376.5,-77 277.25,-77 277.25,-57 376.5,-57 376.5,-77"/>
<text text-anchor="middle" x="326.88" y="-63.5" font-family="Helvetica,sans-Serif" font-size="10.00">Camera::toRadians</text>
</a>
</g>
</g>
<!-- Node1&#45;&gt;Node3 -->
<g id="edge4_Node000001_Node000003" class="edge">
<title>Node1&#45;&gt;Node3</title>
<g id="a_edge4_Node000001_Node000003"><a xlink:title=" ">
<path fill="none" stroke="#63b8ff" d="M104.22,-51.57C150.12,-54.77 217.41,-59.45 265.8,-62.82"/>
<polygon fill="#63b8ff" stroke="#63b8ff" points="265.32,-66.29 275.54,-63.5 265.81,-59.31 265.32,-66.29"/>
</a>
</g>
</g>
<!-- Node4 -->
<g id="Node000004" class="node">
<title>Node4</title>
<g id="a_Node000004"><a xlink:href="class_camera.html#a42ce8c5aa081254cd0b0fcf12b7d54da" target="_top" xlink:title=" ">
<polygon fill="white" stroke="#666666" points="240.5,-20 140.5,-20 140.5,0 240.5,0 240.5,-20"/>
<text text-anchor="middle" x="190.5" y="-6.5" font-family="Helvetica,sans-Serif" font-size="10.00">Camera::toDegrees</text>
</a>
</g>
</g>
<!-- Node1&#45;&gt;Node4 -->
<g id="edge3_Node000001_Node000004" class="edge">
<title>Node1&#45;&gt;Node4</title>
<g id="a_edge3_Node000001_Node000004"><a xlink:title=" ">
<path fill="none" stroke="#63b8ff" d="M90.57,-37.52C106.25,-33.15 124.64,-28.04 141.29,-23.41"/>
<polygon fill="#63b8ff" stroke="#63b8ff" points="141.77,-26.91 150.47,-20.86 139.9,-20.16 141.77,-26.91"/>
</a>
</g>
</g>
<!-- Node2&#45;&gt;Node3 -->
<g id="edge2_Node000002_Node000003" class="edge">
<title>Node2&#45;&gt;Node3</title>
<g id="a_edge2_Node000002_Node000003"><a xlink:title=" ">
<path fill="none" stroke="#63b8ff" d="M241.54,-78.93C249.45,-77.81 257.7,-76.64 265.81,-75.49"/>
<polygon fill="#63b8ff" stroke="#63b8ff" points="266.23,-78.97 275.64,-74.1 265.25,-72.04 266.23,-78.97"/>
</a>
</g>
</g>
</g>
</svg>
</svg>

<style type='text/css'>
<![CDATA[
[data-mouse-over-selected='false'] { opacity: 0.7; }
[data-mouse-over-selected='true']  { opacity: 1.0; }
]]>
</style>
<script type="application/ecmascript"><![CDATA[
document.addEventListener('DOMContentLoaded', (event) => {
  highlightEdges();
  highlightAdjacentNodes();
});
]]></script>
</svg>
