<?xml version="1.0" encoding="UTF-8" standalone="no"?>
<!DOCTYPE svg PUBLIC "-//W3C//DTD SVG 1.1//EN"
 "http://www.w3.org/Graphics/SVG/1.1/DTD/svg11.dtd">
<!-- Generated by graphviz version 9.0.0 (20230911.1827)
 -->
<!-- Title: ShaderProgram::CompileHLSL Pages: 1 -->
<svg width="527pt" height="28pt"
 viewBox="0.00 0.00 527.00 28.00" xmlns="http://www.w3.org/2000/svg" xmlns:xlink="http://www.w3.org/1999/xlink">
<g id="graph0" class="graph" transform="scale(1 1) rotate(0) translate(4 24)">
<title>ShaderProgram::CompileHLSL</title>
<!-- Node1 -->
<g id="Node000001" class="node">
<title>Node1</title>
<g id="a_Node000001"><a xlink:title=" ">
<polygon fill="#999999" stroke="#666666" points="519,-20 370.25,-20 370.25,0 519,0 519,-20"/>
<text text-anchor="middle" x="444.62" y="-6.5" font-family="Helvetica,sans-Serif" font-size="10.00">ShaderProgram::CompileHLSL</text>
</a>
</g>
</g>
<!-- Node2 -->
<g id="Node000002" class="node">
<title>Node2</title>
<g id="a_Node000002"><a xlink:href="class_shader_program.html#ae94d14696ac5bba6e5873153bb3242f2" target="_top" xlink:title=" ">
<polygon fill="white" stroke="#666666" points="334.25,-20 177.25,-20 177.25,0 334.25,0 334.25,-20"/>
<text text-anchor="middle" x="255.75" y="-6.5" font-family="Helvetica,sans-Serif" font-size="10.00">ShaderProgram::LoadShaderFile</text>
</a>
</g>
</g>
<!-- Node1&#45;&gt;Node2 -->
<g id="edge1_Node000001_Node000002" class="edge">
<title>Node1&#45;&gt;Node2</title>
<g id="a_edge1_Node000001_Node000002"><a xlink:title=" ">
<path fill="none" stroke="#63b8ff" d="M358.31,-10C350.44,-10 342.48,-10 334.68,-10"/>
<polygon fill="#63b8ff" stroke="#63b8ff" points="358.25,-13.5 368.25,-10 358.25,-6.5 358.25,-13.5"/>
</a>
</g>
</g>
<!-- Node3 -->
<g id="Node000003" class="node">
<title>Node3</title>
<g id="a_Node000003"><a xlink:href="class_shader_program.html#a14f6d27e459534745935a25443a5eb1c" target="_top" xlink:title=" ">
<polygon fill="white" stroke="#666666" points="141.25,-20 0,-20 0,0 141.25,0 141.25,-20"/>
<text text-anchor="middle" x="70.62" y="-6.5" font-family="Helvetica,sans-Serif" font-size="10.00">ShaderProgram::LoadShader</text>
</a>
</g>
</g>
<!-- Node2&#45;&gt;Node3 -->
<g id="edge2_Node000002_Node000003" class="edge">
<title>Node2&#45;&gt;Node3</title>
<g id="a_edge2_Node000002_Node000003"><a xlink:title=" ">
<path fill="none" stroke="#63b8ff" d="M165.53,-10C157.51,-10 149.47,-10 141.65,-10"/>
<polygon fill="#63b8ff" stroke="#63b8ff" points="165.31,-13.5 175.31,-10 165.31,-6.5 165.31,-13.5"/>
</a>
</g>
</g>
</g>
</svg>
