<?xml version="1.0" encoding="UTF-8" standalone="no"?>
<!DOCTYPE svg PUBLIC "-//W3C//DTD SVG 1.1//EN"
 "http://www.w3.org/Graphics/SVG/1.1/DTD/svg11.dtd">
<!-- Generated by graphviz version 9.0.0 (20230911.1827)
 -->
<!-- Title: DirectXManager::Update Pages: 1 -->
<!--zoomable 617 -->

<svg id="main" version="1.1" xmlns="http://www.w3.org/2000/svg" xmlns:xlink="http://www.w3.org/1999/xlink" xml:space="preserve" onload="init(evt)">
<style type="text/css"><![CDATA[
.node, .edge {opacity: 0.7;}
.node.selected, .edge.selected {opacity: 1;}
.edge:hover path { stroke: red; }
.edge:hover polygon { stroke: red; fill: red; }
]]></style>

<defs>
  <circle id="rim" cx="0" cy="0" r="7"/>
  <circle id="rim2" cx="0" cy="0" r="3.5"/>
  <g id="zoomPlus">
    <use xlink:href="#rim" fill="#404040"><set attributeName="fill" to="#808080" begin="zoomplus.mouseover" end="zoomplus.mouseout"/></use>
    <path d="M-4,0h8M0,-4v8" fill="none" stroke="white" stroke-width="1.5" pointer-events="none"/>
  </g>
  <g id="zoomMin">
    <use xlink:href="#rim" fill="#404040"><set attributeName="fill" to="#808080" begin="zoomminus.mouseover" end="zoomminus.mouseout"/></use>
    <path d="M-4,0h8" fill="none" stroke="white" stroke-width="1.5" pointer-events="none"/>
  </g>
  <g id="arrowUp" transform="translate(30 24)">
    <use xlink:href="#rim"/>
    <path pointer-events="none" fill="none" stroke="white" stroke-width="1.5" d="M0,-3.0v7 M-2.5,-0.5L0,-3.0L2.5,-0.5"/>
  </g>
  <g id="arrowRight" transform="rotate(90) translate(36 -43)">
    <use xlink:href="#rim"/>
    <path pointer-events="none" fill="none" stroke="white" stroke-width="1.5" d="M0,-3.0v7 M-2.5,-0.5L0,-3.0L2.5,-0.5"/>
  </g>
  <g id="arrowDown" transform="rotate(180) translate(-30 -48)">
    <use xlink:href="#rim"/>
    <path pointer-events="none" fill="none" stroke="white" stroke-width="1.5" d="M0,-3.0v7 M-2.5,-0.5L0,-3.0L2.5,-0.5"/>
  </g>
  <g id="arrowLeft" transform="rotate(270) translate(-36 17)">
    <use xlink:href="#rim"/>
    <path pointer-events="none" fill="none" stroke="white" stroke-width="1.5" d="M0,-3.0v7 M-2.5,-0.5L0,-3.0L2.5,-0.5"/>
  </g>
  <g id="resetDef">
    <use xlink:href="#rim2" fill="#404040"><set attributeName="fill" to="#808080" begin="reset.mouseover" end="reset.mouseout"/></use>
  </g>
</defs>
<script type="application/ecmascript">
var viewWidth = 976;
var viewHeight = 617;
var sectionId = 'dynsection-22';
</script>
<script type="application/ecmascript" xlink:href="svg.min.js"/>
<svg id="graph" class="graph">
<g id="viewport">
<title>DirectXManager::Update</title>
<!-- Node1 -->
<g id="Node000001" class="node">
<title>Node1</title>
<g id="a_Node000001"><a xlink:title=" ">
<polygon fill="#999999" stroke="#666666" points="121,-362 0,-362 0,-342 121,-342 121,-362"/>
<text text-anchor="middle" x="60.5" y="-348.5" font-family="Helvetica,sans-Serif" font-size="10.00">DirectXManager::Update</text>
</a>
</g>
</g>
<!-- Node2 -->
<g id="Node000002" class="node">
<title>Node2</title>
<g id="a_Node000002"><a xlink:href="class_shader_manager.html#a6eefb74e7cf9795b75f018a6e64ba931" target="_top" xlink:title=" ">
<polygon fill="white" stroke="#666666" points="356,-542 157,-542 157,-522 356,-522 356,-542"/>
<text text-anchor="middle" x="256.5" y="-528.5" font-family="Helvetica,sans-Serif" font-size="10.00">ShaderManager::CheckForShaderUpdates</text>
</a>
</g>
</g>
<!-- Node1&#45;&gt;Node2 -->
<g id="edge1_Node000001_Node000002" class="edge">
<title>Node1&#45;&gt;Node2</title>
<g id="a_edge1_Node000001_Node000002"><a xlink:title=" ">
<path fill="none" stroke="#63b8ff" d="M68.58,-362.28C83.37,-383.32 119.36,-432.18 157,-466 178.61,-485.42 206.34,-503.49 226.86,-515.79"/>
<polygon fill="#63b8ff" stroke="#63b8ff" points="224.89,-518.69 235.28,-520.75 228.44,-512.66 224.89,-518.69"/>
</a>
</g>
</g>
<!-- Node6 -->
<g id="Node000006" class="node">
<title>Node6</title>
<g id="a_Node000006"><a xlink:href="class_camera.html#a61d575df5de7aca99e4be6304857bd9c" target="_top" xlink:title=" ">
<polygon fill="white" stroke="#666666" points="317,-457 196,-457 196,-437 317,-437 317,-457"/>
<text text-anchor="middle" x="256.5" y="-443.5" font-family="Helvetica,sans-Serif" font-size="10.00">Camera::moveBackward</text>
</a>
</g>
</g>
<!-- Node1&#45;&gt;Node6 -->
<g id="edge6_Node000001_Node000006" class="edge">
<title>Node1&#45;&gt;Node6</title>
<g id="a_edge6_Node000001_Node000006"><a xlink:title=" ">
<path fill="none" stroke="#63b8ff" d="M70.99,-362.24C87.01,-378.87 121.2,-411.52 157,-428 165.64,-431.98 175.08,-435.12 184.58,-437.61"/>
<polygon fill="#63b8ff" stroke="#63b8ff" points="183.71,-441 194.25,-439.89 185.32,-434.19 183.71,-441"/>
</a>
</g>
</g>
<!-- Node7 -->
<g id="Node000007" class="node">
<title>Node7</title>
<g id="a_Node000007"><a xlink:href="class_camera.html#a230eecb31997d07c75e737ecf5e7edcf" target="_top" xlink:title=" ">
<polygon fill="white" stroke="#666666" points="312.88,-419 200.12,-419 200.12,-399 312.88,-399 312.88,-419"/>
<text text-anchor="middle" x="256.5" y="-405.5" font-family="Helvetica,sans-Serif" font-size="10.00">Camera::moveForward</text>
</a>
</g>
</g>
<!-- Node1&#45;&gt;Node7 -->
<g id="edge7_Node000001_Node000007" class="edge">
<title>Node1&#45;&gt;Node7</title>
<g id="a_edge7_Node000001_Node000007"><a xlink:title=" ">
<path fill="none" stroke="#63b8ff" d="M84.23,-362.45C103.32,-370.89 131.48,-382.53 157,-390 167.17,-392.98 178.08,-395.61 188.79,-397.9"/>
<polygon fill="#63b8ff" stroke="#63b8ff" points="187.86,-401.28 198.36,-399.85 189.26,-394.42 187.86,-401.28"/>
</a>
</g>
</g>
<!-- Node8 -->
<g id="Node000008" class="node">
<title>Node8</title>
<g id="a_Node000008"><a xlink:href="class_camera.html#acbf35947eb5d887a76538e9525cf34a0" target="_top" xlink:title=" ">
<polygon fill="white" stroke="#666666" points="303.5,-381 209.5,-381 209.5,-361 303.5,-361 303.5,-381"/>
<text text-anchor="middle" x="256.5" y="-367.5" font-family="Helvetica,sans-Serif" font-size="10.00">Camera::moveLeft</text>
</a>
</g>
</g>
<!-- Node1&#45;&gt;Node8 -->
<g id="edge8_Node000001_Node000008" class="edge">
<title>Node1&#45;&gt;Node8</title>
<g id="a_edge8_Node000001_Node000008"><a xlink:title=" ">
<path fill="none" stroke="#63b8ff" d="M121.29,-357.86C145.7,-360.25 173.82,-363 197.99,-365.37"/>
<polygon fill="#63b8ff" stroke="#63b8ff" points="197.35,-368.82 207.64,-366.31 198.03,-361.85 197.35,-368.82"/>
</a>
</g>
</g>
<!-- Node9 -->
<g id="Node000009" class="node">
<title>Node9</title>
<g id="a_Node000009"><a xlink:href="class_camera.html#acf2f00de2e99af1fcd9b5e770fce7ae3" target="_top" xlink:title=" ">
<polygon fill="white" stroke="#666666" points="306.88,-343 206.12,-343 206.12,-323 306.88,-323 306.88,-343"/>
<text text-anchor="middle" x="256.5" y="-329.5" font-family="Helvetica,sans-Serif" font-size="10.00">Camera::moveRight</text>
</a>
</g>
</g>
<!-- Node1&#45;&gt;Node9 -->
<g id="edge9_Node000001_Node000009" class="edge">
<title>Node1&#45;&gt;Node9</title>
<g id="a_edge9_Node000001_Node000009"><a xlink:title=" ">
<path fill="none" stroke="#63b8ff" d="M121.29,-346.14C144.54,-343.87 171.15,-341.26 194.51,-338.97"/>
<polygon fill="#63b8ff" stroke="#63b8ff" points="194.57,-342.48 204.18,-338.03 193.89,-335.52 194.57,-342.48"/>
</a>
</g>
</g>
<!-- Node10 -->
<g id="Node000010" class="node">
<title>Node10</title>
<g id="a_Node000010"><a xlink:href="class_direct_x_manager.html#a939df5d867998c476f7c8fbacb39556d" target="_top" xlink:title=" ">
<polygon fill="white" stroke="#666666" points="330.88,-305 182.12,-305 182.12,-285 330.88,-285 330.88,-305"/>
<text text-anchor="middle" x="256.5" y="-291.5" font-family="Helvetica,sans-Serif" font-size="10.00">DirectXManager::RenderFrame</text>
</a>
</g>
</g>
<!-- Node1&#45;&gt;Node10 -->
<g id="edge10_Node000001_Node000010" class="edge">
<title>Node1&#45;&gt;Node10</title>
<g id="a_edge10_Node000001_Node000010"><a xlink:title=" ">
<path fill="none" stroke="#63b8ff" d="M84.23,-341.55C103.32,-333.11 131.48,-321.47 157,-314 164.64,-311.76 172.7,-309.72 180.77,-307.87"/>
<polygon fill="#63b8ff" stroke="#63b8ff" points="181.26,-311.35 190.28,-305.8 179.76,-304.51 181.26,-311.35"/>
</a>
</g>
</g>
<!-- Node26 -->
<g id="Node000026" class="node">
<title>Node26</title>
<g id="a_Node000026"><a xlink:href="class_camera.html#a0b37aac023aa0f6d25d0bb646b2280f9" target="_top" xlink:title=" ">
<polygon fill="white" stroke="#666666" points="315.88,-267 197.12,-267 197.12,-247 315.88,-247 315.88,-267"/>
<text text-anchor="middle" x="256.5" y="-253.5" font-family="Helvetica,sans-Serif" font-size="10.00">Camera::stopMovement</text>
</a>
</g>
</g>
<!-- Node1&#45;&gt;Node26 -->
<g id="edge29_Node000001_Node000026" class="edge">
<title>Node1&#45;&gt;Node26</title>
<g id="a_edge29_Node000001_Node000026"><a xlink:title=" ">
<path fill="none" stroke="#63b8ff" d="M70.99,-341.76C87.01,-325.13 121.2,-292.48 157,-276 165.97,-271.87 175.79,-268.64 185.65,-266.11"/>
<polygon fill="#63b8ff" stroke="#63b8ff" points="186.33,-269.55 195.28,-263.89 184.75,-262.73 186.33,-269.55"/>
</a>
</g>
</g>
<!-- Node27 -->
<g id="Node000027" class="node">
<title>Node27</title>
<g id="a_Node000027"><a xlink:href="class_camera.html#a02990aac6f3ed367157b0b8bab0b0143" target="_top" xlink:title=" ">
<polygon fill="white" stroke="#666666" points="299.75,-134 213.25,-134 213.25,-114 299.75,-114 299.75,-134"/>
<text text-anchor="middle" x="256.5" y="-120.5" font-family="Helvetica,sans-Serif" font-size="10.00">Camera::Update</text>
</a>
</g>
</g>
<!-- Node1&#45;&gt;Node27 -->
<g id="edge30_Node000001_Node000027" class="edge">
<title>Node1&#45;&gt;Node27</title>
<g id="a_edge30_Node000001_Node000027"><a xlink:title=" ">
<path fill="none" stroke="#63b8ff" d="M70.14,-341.58C86.83,-321.47 124.71,-275.95 157,-238 185.62,-204.36 219.35,-165.49 238.98,-142.93"/>
<polygon fill="#63b8ff" stroke="#63b8ff" points="241.56,-145.31 245.49,-135.47 236.28,-140.71 241.56,-145.31"/>
</a>
</g>
</g>
<!-- Node3 -->
<g id="Node000003" class="node">
<title>Node3</title>
<g id="a_Node000003"><a xlink:href="class_shader_manager.html#ac6e7ac40f579b9ff0d44c91379e5e631" target="_top" xlink:title=" ">
<polygon fill="white" stroke="#666666" points="559.5,-590 408.5,-590 408.5,-570 559.5,-570 559.5,-590"/>
<text text-anchor="middle" x="484" y="-576.5" font-family="Helvetica,sans-Serif" font-size="10.00">ShaderManager::ReloadShader</text>
</a>
</g>
</g>
<!-- Node2&#45;&gt;Node3 -->
<g id="edge2_Node000002_Node000003" class="edge">
<title>Node2&#45;&gt;Node3</title>
<g id="a_edge2_Node000002_Node000003"><a xlink:title=" ">
<path fill="none" stroke="#63b8ff" d="M306.71,-542.47C340.88,-549.75 386.62,-559.49 422.95,-567.22"/>
<polygon fill="#63b8ff" stroke="#63b8ff" points="421.91,-570.57 432.42,-569.23 423.36,-563.73 421.91,-570.57"/>
</a>
</g>
</g>
<!-- Node4 -->
<g id="Node000004" class="node">
<title>Node4</title>
<g id="a_Node000004"><a xlink:href="class_shader_manager.html#a9e20b23487904239ee0fce4998585a11" target="_top" xlink:title=" ">
<polygon fill="white" stroke="#666666" points="968,-609 790,-609 790,-589 968,-589 968,-609"/>
<text text-anchor="middle" x="879" y="-595.5" font-family="Helvetica,sans-Serif" font-size="10.00">ShaderManager::GenerateShaderKey</text>
</a>
</g>
</g>
<!-- Node3&#45;&gt;Node4 -->
<g id="edge3_Node000003_Node000004" class="edge">
<title>Node3&#45;&gt;Node4</title>
<g id="a_edge3_Node000003_Node000004"><a xlink:title=" ">
<path fill="none" stroke="#63b8ff" d="M542.65,-590.47C564.31,-593.92 589.21,-597.3 612,-599 666.8,-603.08 728.12,-603.36 778.06,-602.5"/>
<polygon fill="#63b8ff" stroke="#63b8ff" points="778.07,-606 788,-602.31 777.94,-599 778.07,-606"/>
</a>
</g>
</g>
<!-- Node5 -->
<g id="Node000005" class="node">
<title>Node5</title>
<g id="a_Node000005"><a xlink:href="class_shader_manager.html#a6d8ac1d497a7ae3d1da64456d24b94a3" target="_top" xlink:title=" ">
<polygon fill="white" stroke="#666666" points="754,-590 612,-590 612,-570 754,-570 754,-590"/>
<text text-anchor="middle" x="683" y="-576.5" font-family="Helvetica,sans-Serif" font-size="10.00">ShaderManager::LoadShader</text>
</a>
</g>
</g>
<!-- Node3&#45;&gt;Node5 -->
<g id="edge4_Node000003_Node000005" class="edge">
<title>Node3&#45;&gt;Node5</title>
<g id="a_edge4_Node000003_Node000005"><a xlink:title=" ">
<path fill="none" stroke="#63b8ff" d="M559.76,-580C573.02,-580 586.9,-580 600.35,-580"/>
<polygon fill="#63b8ff" stroke="#63b8ff" points="600,-583.5 610,-580 600,-576.5 600,-583.5"/>
</a>
</g>
</g>
<!-- Node5&#45;&gt;Node4 -->
<g id="edge5_Node000005_Node000004" class="edge">
<title>Node5&#45;&gt;Node4</title>
<g id="a_edge5_Node000005_Node000004"><a xlink:title=" ">
<path fill="none" stroke="#63b8ff" d="M754.31,-586.89C762.13,-587.65 770.19,-588.44 778.28,-589.23"/>
<polygon fill="#63b8ff" stroke="#63b8ff" points="777.9,-592.71 788.2,-590.2 778.59,-585.75 777.9,-592.71"/>
</a>
</g>
</g>
<!-- Node11 -->
<g id="Node000011" class="node">
<title>Node11</title>
<g id="a_Node000011"><a xlink:href="class_mesh.html#afdd95c079fd0442afef8a6c421c8bfc9" target="_top" xlink:title=" ">
<polygon fill="white" stroke="#666666" points="716.88,-552 649.12,-552 649.12,-532 716.88,-532 716.88,-552"/>
<text text-anchor="middle" x="683" y="-538.5" font-family="Helvetica,sans-Serif" font-size="10.00">Mesh::Draw</text>
</a>
</g>
</g>
<!-- Node10&#45;&gt;Node11 -->
<g id="edge11_Node000010_Node000011" class="edge">
<title>Node10&#45;&gt;Node11</title>
<g id="a_edge11_Node000010_Node000011"><a xlink:title=" ">
<path fill="none" stroke="#63b8ff" d="M330.9,-298.77C340.29,-302.06 349.04,-306.92 356,-314 420.58,-379.62 323.97,-455.96 392,-518 426.83,-549.76 564.98,-547.97 637.31,-544.67"/>
<polygon fill="#63b8ff" stroke="#63b8ff" points="637.42,-548.17 647.24,-544.18 637.08,-541.17 637.42,-548.17"/>
</a>
</g>
</g>
<!-- Node12 -->
<g id="Node000012" class="node">
<title>Node12</title>
<g id="a_Node000012"><a xlink:href="class_graphics_device.html#acf91316dd6fe685f48258016a3098d41" target="_top" xlink:title=" ">
<polygon fill="white" stroke="#666666" points="962.75,-495 795.25,-495 795.25,-475 962.75,-475 962.75,-495"/>
<text text-anchor="middle" x="879" y="-481.5" font-family="Helvetica,sans-Serif" font-size="10.00">GraphicsDevice::GetDeviceContext</text>
</a>
</g>
</g>
<!-- Node10&#45;&gt;Node12 -->
<g id="edge14_Node000010_Node000012" class="edge">
<title>Node10&#45;&gt;Node12</title>
<g id="a_edge14_Node000010_Node000012"><a xlink:title=" ">
<path fill="none" stroke="#63b8ff" d="M331.19,-299.15C340.42,-302.41 349.05,-307.16 356,-314 411.38,-368.45 331.69,-436.06 392,-485 451.88,-533.59 674.04,-512.79 796.19,-496.92"/>
<polygon fill="#63b8ff" stroke="#63b8ff" points="796.38,-500.43 805.83,-495.65 795.46,-493.49 796.38,-500.43"/>
</a>
</g>
</g>
<!-- Node13 -->
<g id="Node000013" class="node">
<title>Node13</title>
<g id="a_Node000013"><a xlink:href="class_graphics_device.html#adb0057512a565256ef377441fe466985" target="_top" xlink:title=" ">
<polygon fill="white" stroke="#666666" points="574.88,-476 393.12,-476 393.12,-456 574.88,-456 574.88,-476"/>
<text text-anchor="middle" x="484" y="-462.5" font-family="Helvetica,sans-Serif" font-size="10.00">GraphicsDevice::GetDepthStencilView</text>
</a>
</g>
</g>
<!-- Node10&#45;&gt;Node13 -->
<g id="edge13_Node000010_Node000013" class="edge">
<title>Node10&#45;&gt;Node13</title>
<g id="a_edge13_Node000010_Node000013"><a xlink:title=" ">
<path fill="none" stroke="#63b8ff" d="M331.33,-299.69C340.43,-302.89 348.98,-307.48 356,-314 400.87,-355.68 347.45,-404.98 392,-447 392.91,-447.86 393.85,-448.68 394.81,-449.47"/>
<polygon fill="#63b8ff" stroke="#63b8ff" points="392.61,-452.21 402.86,-454.88 396.51,-446.4 392.61,-452.21"/>
</a>
</g>
</g>
<!-- Node14 -->
<g id="Node000014" class="node">
<title>Node14</title>
<g id="a_Node000014"><a xlink:href="class_camera.html#a0d0f678e977d6a7db6f357b255a01b4e" target="_top" xlink:title=" ">
<polygon fill="white" stroke="#666666" points="522,-438 446,-438 446,-418 522,-418 522,-438"/>
<text text-anchor="middle" x="484" y="-424.5" font-family="Helvetica,sans-Serif" font-size="10.00">Camera::getP</text>
</a>
</g>
</g>
<!-- Node10&#45;&gt;Node14 -->
<g id="edge15_Node000010_Node000014" class="edge">
<title>Node10&#45;&gt;Node14</title>
<g id="a_edge15_Node000010_Node000014"><a xlink:title=" ">
<path fill="none" stroke="#63b8ff" d="M331.26,-300.51C340.26,-303.6 348.8,-307.94 356,-314 390.55,-343.07 357.68,-379.66 392,-409 403.73,-419.03 419.4,-424.21 434.42,-426.78"/>
<polygon fill="#63b8ff" stroke="#63b8ff" points="433.83,-430.23 444.2,-428.07 434.75,-423.29 433.83,-430.23"/>
</a>
</g>
</g>
<!-- Node15 -->
<g id="Node000015" class="node">
<title>Node15</title>
<g id="a_Node000015"><a xlink:href="class_mesh.html#a5b502948f58e8c8e3e1876637b522cd3" target="_top" xlink:title=" ">
<polygon fill="white" stroke="#666666" points="542.25,-400 425.75,-400 425.75,-380 542.25,-380 542.25,-400"/>
<text text-anchor="middle" x="484" y="-386.5" font-family="Helvetica,sans-Serif" font-size="10.00">Mesh::GetParentModel</text>
</a>
</g>
</g>
<!-- Node10&#45;&gt;Node15 -->
<g id="edge16_Node000010_Node000015" class="edge">
<title>Node10&#45;&gt;Node15</title>
<g id="a_edge16_Node000010_Node000015"><a xlink:title=" ">
<path fill="none" stroke="#63b8ff" d="M331.21,-302.24C340.02,-305.08 348.52,-308.89 356,-314 380.75,-330.89 367.38,-353.92 392,-371 398.75,-375.68 406.4,-379.25 414.35,-381.97"/>
<polygon fill="#63b8ff" stroke="#63b8ff" points="413.26,-385.3 423.84,-384.74 415.22,-378.58 413.26,-385.3"/>
</a>
</g>
</g>
<!-- Node16 -->
<g id="Node000016" class="node">
<title>Node16</title>
<g id="a_Node000016"><a xlink:href="class_graphics_device.html#a8255f0c23dcbc89765a40b197a5db87f" target="_top" xlink:title=" ">
<polygon fill="white" stroke="#666666" points="576,-362 392,-362 392,-342 576,-342 576,-362"/>
<text text-anchor="middle" x="484" y="-348.5" font-family="Helvetica,sans-Serif" font-size="10.00">GraphicsDevice::GetRenderTargetView</text>
</a>
</g>
</g>
<!-- Node10&#45;&gt;Node16 -->
<g id="edge17_Node000010_Node000016" class="edge">
<title>Node10&#45;&gt;Node16</title>
<g id="a_edge17_Node000010_Node000016"><a xlink:title=" ">
<path fill="none" stroke="#63b8ff" d="M325.76,-305.44C336.03,-307.79 346.39,-310.62 356,-314 373.07,-320 374.98,-326.87 392,-333 397.79,-335.09 403.87,-336.97 410.03,-338.67"/>
<polygon fill="#63b8ff" stroke="#63b8ff" points="409.14,-342.05 419.69,-341.15 410.88,-335.27 409.14,-342.05"/>
</a>
</g>
</g>
<!-- Node17 -->
<g id="Node000017" class="node">
<title>Node17</title>
<g id="a_Node000017"><a xlink:href="class_material.html#a96434cf45f279c51bde30fb55e2706ac" target="_top" xlink:title=" ">
<polygon fill="white" stroke="#666666" points="553.88,-324 414.12,-324 414.12,-304 553.88,-304 553.88,-324"/>
<text text-anchor="middle" x="484" y="-310.5" font-family="Helvetica,sans-Serif" font-size="10.00">Material::GetShaderProgram</text>
</a>
</g>
</g>
<!-- Node10&#45;&gt;Node17 -->
<g id="edge18_Node000010_Node000017" class="edge">
<title>Node10&#45;&gt;Node17</title>
<g id="a_edge18_Node000010_Node000017"><a xlink:title=" ">
<path fill="none" stroke="#63b8ff" d="M331.34,-301.22C354.19,-303.15 379.47,-305.28 402.73,-307.24"/>
<polygon fill="#63b8ff" stroke="#63b8ff" points="402.2,-310.7 412.46,-308.06 402.79,-303.73 402.2,-310.7"/>
</a>
</g>
</g>
<!-- Node18 -->
<g id="Node000018" class="node">
<title>Node18</title>
<g id="a_Node000018"><a xlink:href="class_graphics_device.html#acb7d1c815260bbbb1776e130bbf62ffb" target="_top" xlink:title=" ">
<polygon fill="white" stroke="#666666" points="561,-286 407,-286 407,-266 561,-266 561,-286"/>
<text text-anchor="middle" x="484" y="-272.5" font-family="Helvetica,sans-Serif" font-size="10.00">GraphicsDevice::GetSwapChain</text>
</a>
</g>
</g>
<!-- Node10&#45;&gt;Node18 -->
<g id="edge19_Node000010_Node000018" class="edge">
<title>Node10&#45;&gt;Node18</title>
<g id="a_edge19_Node000010_Node000018"><a xlink:title=" ">
<path fill="none" stroke="#63b8ff" d="M331.34,-288.78C351.81,-287.05 374.23,-285.16 395.4,-283.38"/>
<polygon fill="#63b8ff" stroke="#63b8ff" points="395.5,-286.89 405.17,-282.56 394.91,-279.91 395.5,-286.89"/>
</a>
</g>
</g>
<!-- Node19 -->
<g id="Node000019" class="node">
<title>Node19</title>
<g id="a_Node000019"><a xlink:href="class_model.html#ae416dc1c473be023e26213ba793bf4ce" target="_top" xlink:title=" ">
<polygon fill="white" stroke="#666666" points="561.38,-248 406.62,-248 406.62,-228 561.38,-228 561.38,-248"/>
<text text-anchor="middle" x="484" y="-234.5" font-family="Helvetica,sans-Serif" font-size="10.00">Model::GetTransformationMatrix</text>
</a>
</g>
</g>
<!-- Node10&#45;&gt;Node19 -->
<g id="edge20_Node000010_Node000019" class="edge">
<title>Node10&#45;&gt;Node19</title>
<g id="a_edge20_Node000010_Node000019"><a xlink:title=" ">
<path fill="none" stroke="#63b8ff" d="M325.76,-284.56C336.03,-282.21 346.39,-279.38 356,-276 373.07,-270 374.98,-263.13 392,-257 397.79,-254.91 403.87,-253.03 410.03,-251.33"/>
<polygon fill="#63b8ff" stroke="#63b8ff" points="410.88,-254.73 419.69,-248.85 409.14,-247.95 410.88,-254.73"/>
</a>
</g>
</g>
<!-- Node20 -->
<g id="Node000020" class="node">
<title>Node20</title>
<g id="a_Node000020"><a xlink:href="class_camera.html#abb4a67224c4f219bba8a657907caf4a1" target="_top" xlink:title=" ">
<polygon fill="white" stroke="#666666" points="522,-210 446,-210 446,-190 522,-190 522,-210"/>
<text text-anchor="middle" x="484" y="-196.5" font-family="Helvetica,sans-Serif" font-size="10.00">Camera::getV</text>
</a>
</g>
</g>
<!-- Node10&#45;&gt;Node20 -->
<g id="edge21_Node000010_Node000020" class="edge">
<title>Node10&#45;&gt;Node20</title>
<g id="a_edge21_Node000010_Node000020"><a xlink:title=" ">
<path fill="none" stroke="#63b8ff" d="M331.21,-287.76C340.02,-284.92 348.52,-281.11 356,-276 380.75,-259.11 367.38,-236.08 392,-219 404.47,-210.35 420.05,-205.49 434.79,-202.8"/>
<polygon fill="#63b8ff" stroke="#63b8ff" points="434.95,-206.32 444.32,-201.37 433.91,-199.39 434.95,-206.32"/>
</a>
</g>
</g>
<!-- Node21 -->
<g id="Node000021" class="node">
<title>Node21</title>
<g id="a_Node000021"><a xlink:href="class_camera.html#ab2b7b6a0f6fddefaed1f31ddd90279dc" target="_top" xlink:title=" ">
<polygon fill="white" stroke="#666666" points="523.5,-172 444.5,-172 444.5,-152 523.5,-152 523.5,-172"/>
<text text-anchor="middle" x="484" y="-158.5" font-family="Helvetica,sans-Serif" font-size="10.00">Camera::getW</text>
</a>
</g>
</g>
<!-- Node10&#45;&gt;Node21 -->
<g id="edge22_Node000010_Node000021" class="edge">
<title>Node10&#45;&gt;Node21</title>
<g id="a_edge22_Node000010_Node000021"><a xlink:title=" ">
<path fill="none" stroke="#63b8ff" d="M331.26,-289.49C340.26,-286.4 348.8,-282.06 356,-276 390.55,-246.93 357.68,-210.34 392,-181 403.44,-171.22 418.62,-166.05 433.29,-163.42"/>
<polygon fill="#63b8ff" stroke="#63b8ff" points="433.43,-166.93 442.85,-162.08 432.46,-160 433.43,-166.93"/>
</a>
</g>
</g>
<!-- Node22 -->
<g id="Node000022" class="node">
<title>Node22</title>
<g id="a_Node000022"><a xlink:href="class_material.html#aebbf2f38964d3601bee4a73231e50683" target="_top" xlink:title=" ">
<polygon fill="white" stroke="#666666" points="541.5,-134 426.5,-134 426.5,-114 541.5,-114 541.5,-134"/>
<text text-anchor="middle" x="484" y="-120.5" font-family="Helvetica,sans-Serif" font-size="10.00">Material::isTransparent</text>
</a>
</g>
</g>
<!-- Node10&#45;&gt;Node22 -->
<g id="edge23_Node000010_Node000022" class="edge">
<title>Node10&#45;&gt;Node22</title>
<g id="a_edge23_Node000010_Node000022"><a xlink:title=" ">
<path fill="none" stroke="#63b8ff" d="M331.33,-290.31C340.43,-287.11 348.98,-282.52 356,-276 400.87,-234.32 347.45,-185.02 392,-143 398.68,-136.7 406.88,-132.26 415.6,-129.17"/>
<polygon fill="#63b8ff" stroke="#63b8ff" points="416.34,-132.6 424.97,-126.45 414.39,-125.88 416.34,-132.6"/>
</a>
</g>
</g>
<!-- Node23 -->
<g id="Node000023" class="node">
<title>Node23</title>
<g id="a_Node000023"><a xlink:href="class_material.html#a7877c23c5a3b522271a3be3408ae1e9c" target="_top" xlink:title=" ">
<polygon fill="white" stroke="#666666" points="551.62,-96 416.38,-96 416.38,-76 551.62,-76 551.62,-96"/>
<text text-anchor="middle" x="484" y="-82.5" font-family="Helvetica,sans-Serif" font-size="10.00">Material::SetConstantBuffer</text>
</a>
</g>
</g>
<!-- Node10&#45;&gt;Node23 -->
<g id="edge24_Node000010_Node000023" class="edge">
<title>Node10&#45;&gt;Node23</title>
<g id="a_edge24_Node000010_Node000023"><a xlink:title=" ">
<path fill="none" stroke="#63b8ff" d="M331.19,-290.85C340.42,-287.59 349.05,-282.84 356,-276 411.38,-221.55 337.04,-159.87 392,-105 396.11,-100.9 400.85,-97.58 405.98,-94.89"/>
<polygon fill="#63b8ff" stroke="#63b8ff" points="407.05,-98.25 414.85,-91.08 404.28,-91.81 407.05,-98.25"/>
</a>
</g>
</g>
<!-- Node24 -->
<g id="Node000024" class="node">
<title>Node24</title>
<g id="a_Node000024"><a xlink:href="class_material.html#a031a68217b55fb3c46a01757c58eb836" target="_top" xlink:title=" ">
<polygon fill="white" stroke="#666666" points="525,-58 443,-58 443,-38 525,-38 525,-58"/>
<text text-anchor="middle" x="484" y="-44.5" font-family="Helvetica,sans-Serif" font-size="10.00">Material::Setup</text>
</a>
</g>
</g>
<!-- Node10&#45;&gt;Node24 -->
<g id="edge25_Node000010_Node000024" class="edge">
<title>Node10&#45;&gt;Node24</title>
<g id="a_edge25_Node000010_Node000024"><a xlink:title=" ">
<path fill="none" stroke="#63b8ff" d="M330.93,-291.26C340.31,-287.96 349.05,-283.09 356,-276 421.98,-208.69 326.54,-134.81 392,-67 402.36,-56.27 417.11,-50.81 431.72,-48.21"/>
<polygon fill="#63b8ff" stroke="#63b8ff" points="431.83,-51.73 441.29,-46.95 430.91,-44.79 431.83,-51.73"/>
</a>
</g>
</g>
<!-- Node11&#45;&gt;Node12 -->
<g id="edge12_Node000011_Node000012" class="edge">
<title>Node11&#45;&gt;Node12</title>
<g id="a_edge12_Node000011_Node000012"><a xlink:title=" ">
<path fill="none" stroke="#63b8ff" d="M717.35,-532.2C748.83,-522.95 796.31,-509 831.5,-498.66"/>
<polygon fill="#63b8ff" stroke="#63b8ff" points="832.4,-502.05 841.01,-495.87 830.43,-495.33 832.4,-502.05"/>
</a>
</g>
</g>
<!-- Node24&#45;&gt;Node12 -->
<g id="edge26_Node000024_Node000012" class="edge">
<title>Node24&#45;&gt;Node12</title>
<g id="a_edge26_Node000024_Node000012"><a xlink:title=" ">
<path fill="none" stroke="#63b8ff" d="M525.48,-48.07C542.78,-50.06 562.14,-55.15 576,-67 610.32,-96.34 589.35,-122.94 612,-162 686.47,-290.4 811.52,-419.61 858.97,-466.53"/>
<polygon fill="#63b8ff" stroke="#63b8ff" points="856.47,-468.98 866.06,-473.49 861.38,-463.99 856.47,-468.98"/>
</a>
</g>
</g>
<!-- Node25 -->
<g id="Node000025" class="node">
<title>Node25</title>
<g id="a_Node000025"><a xlink:href="class_render_state.html#a6a48845d14ec5b7b8728549178626ce4" target="_top" xlink:title=" ">
<polygon fill="white" stroke="#666666" points="740.12,-153 625.88,-153 625.88,-133 740.12,-133 740.12,-153"/>
<text text-anchor="middle" x="683" y="-139.5" font-family="Helvetica,sans-Serif" font-size="10.00">RenderState::SetState</text>
</a>
</g>
</g>
<!-- Node24&#45;&gt;Node25 -->
<g id="edge27_Node000024_Node000025" class="edge">
<title>Node24&#45;&gt;Node25</title>
<g id="a_edge27_Node000024_Node000025"><a xlink:title=" ">
<path fill="none" stroke="#63b8ff" d="M525.08,-52.68C541.35,-55.51 560.04,-59.99 576,-67 609.11,-81.55 642.16,-107.52 662.34,-125"/>
<polygon fill="#63b8ff" stroke="#63b8ff" points="659.97,-127.58 669.78,-131.59 664.61,-122.34 659.97,-127.58"/>
</a>
</g>
</g>
<!-- Node25&#45;&gt;Node12 -->
<g id="edge28_Node000025_Node000012" class="edge">
<title>Node25&#45;&gt;Node12</title>
<g id="a_edge28_Node000025_Node000012"><a xlink:title=" ">
<path fill="none" stroke="#63b8ff" d="M689.81,-153.24C716.8,-200.83 830.29,-400.89 866.7,-465.08"/>
<polygon fill="#63b8ff" stroke="#63b8ff" points="863.49,-466.52 871.47,-473.49 869.58,-463.06 863.49,-466.52"/>
</a>
</g>
</g>
<!-- Node28 -->
<g id="Node000028" class="node">
<title>Node28</title>
<g id="a_Node000028"><a xlink:href="class_camera.html#ab41e9e98499b4b6f3898d6b7e52a8be0" target="_top" xlink:title=" ">
<polygon fill="white" stroke="#666666" points="534.75,-20 433.25,-20 433.25,0 534.75,0 534.75,-20"/>
<text text-anchor="middle" x="484" y="-6.5" font-family="Helvetica,sans-Serif" font-size="10.00">Camera::calculateV</text>
</a>
</g>
</g>
<!-- Node27&#45;&gt;Node28 -->
<g id="edge31_Node000027_Node000028" class="edge">
<title>Node27&#45;&gt;Node28</title>
<g id="a_edge31_Node000027_Node000028"><a xlink:title=" ">
<path fill="none" stroke="#63b8ff" d="M268.74,-113.57C290.65,-93.83 341.41,-51.01 392,-29 401.46,-24.89 411.86,-21.64 422.15,-19.09"/>
<polygon fill="#63b8ff" stroke="#63b8ff" points="422.76,-22.54 431.74,-16.92 421.22,-15.71 422.76,-22.54"/>
</a>
</g>
</g>
</g>
</svg>

<g id="navigator" transform="translate(0 0)" fill="#404254">
  <rect fill="#f2f5e9" fill-opacity="0.5" stroke="#606060" stroke-width=".5" x="0" y="0" width="60" height="60"/>
  <use id="zoomplus" xlink:href="#zoomPlus" x="17" y="9" onmousedown="handleZoom(evt,'in')"/>
  <use id="zoomminus" xlink:href="#zoomMin" x="42" y="9" onmousedown="handleZoom(evt,'out')"/>
  <use id="reset" xlink:href="#resetDef" x="30" y="36" onmousedown="handleReset()"/>
   <use id="arrowup" xlink:href="#arrowUp" x="0" y="0" onmousedown="handlePan(0,-1)"/>
  <use id="arrowright" xlink:href="#arrowRight" x="0" y="0" onmousedown="handlePan(1,0)"/>
  <use id="arrowdown" xlink:href="#arrowDown" x="0" y="0" onmousedown="handlePan(0,1)"/>
  <use id="arrowleft" xlink:href="#arrowLeft" x="0" y="0" onmousedown="handlePan(-1,0)"/>
</g>
<svg viewBox="0 0 15 15" width="100%" height="30px" preserveAspectRatio="xMaxYMin meet">
 <g id="arrow_out" transform="scale(0.3 0.3)">
  <a xlink:href="class_direct_x_manager_a2717dd089cad24c77c753ecc6bc139b2_cgraph_org.svg" target="_base">
   <rect id="button" ry="5" rx="5" y="6" x="6" height="38" width="38"
        fill="#f2f5e9" fill-opacity="0.5" stroke="#606060" stroke-width="1.0"/>
   <path id="arrow"
     d="M 11.500037,31.436501 C 11.940474,20.09759 22.043105,11.32322 32.158766,21.979434 L 37.068811,17.246167 C 37.068811,17.246167 37.088388,32 37.088388,32 L 22.160133,31.978069 C 22.160133,31.978069 26.997745,27.140456 26.997745,27.140456 C 18.528582,18.264221 13.291696,25.230495 11.500037,31.436501 z"
     style="fill:#404040;"/>
  </a>
 </g>
</svg>

<style type='text/css'>
<![CDATA[
[data-mouse-over-selected='false'] { opacity: 0.7; }
[data-mouse-over-selected='true']  { opacity: 1.0; }
]]>
</style>
<script type="application/ecmascript"><![CDATA[
document.addEventListener('DOMContentLoaded', (event) => {
  highlightEdges();
  highlightAdjacentNodes();
});
]]></script>
</svg>
