<?xml version="1.0" encoding="UTF-8" standalone="no"?>
<!DOCTYPE svg PUBLIC "-//W3C//DTD SVG 1.1//EN"
 "http://www.w3.org/Graphics/SVG/1.1/DTD/svg11.dtd">
<!-- Generated by graphviz version 9.0.0 (20230911.1827)
 -->
<!-- Title: Material::GetShaderProgram Pages: 1 -->
<svg width="748pt" height="66pt"
 viewBox="0.00 0.00 748.00 66.00" xmlns="http://www.w3.org/2000/svg" xmlns:xlink="http://www.w3.org/1999/xlink">
<g id="graph0" class="graph" transform="scale(1 1) rotate(0) translate(4 62)">
<title>Material::GetShaderProgram</title>
<!-- Node1 -->
<g id="Node000001" class="node">
<title>Node1</title>
<g id="a_Node000001"><a xlink:title=" ">
<polygon fill="#999999" stroke="#666666" points="740,-39 600.25,-39 600.25,-19 740,-19 740,-39"/>
<text text-anchor="middle" x="670.12" y="-25.5" font-family="Helvetica,sans-Serif" font-size="10.00">Material::GetShaderProgram</text>
</a>
</g>
</g>
<!-- Node2 -->
<g id="Node000002" class="node">
<title>Node2</title>
<g id="a_Node000002"><a xlink:href="class_direct_x_manager.html#aa0dc645dbe7cf4b07dae99c226bd7e69" target="_top" xlink:title=" ">
<polygon fill="white" stroke="#666666" points="556.75,-58 423,-58 423,-38 556.75,-38 556.75,-58"/>
<text text-anchor="middle" x="489.88" y="-44.5" font-family="Helvetica,sans-Serif" font-size="10.00">DirectXManager::AddModel</text>
</a>
</g>
</g>
<!-- Node1&#45;&gt;Node2 -->
<g id="edge1_Node000001_Node000002" class="edge">
<title>Node1&#45;&gt;Node2</title>
<g id="a_edge1_Node000001_Node000002"><a xlink:title=" ">
<path fill="none" stroke="#63b8ff" d="M588.6,-37.58C578.06,-38.71 567.35,-39.85 557.08,-40.94"/>
<polygon fill="#63b8ff" stroke="#63b8ff" points="588.88,-41.07 598.45,-36.53 588.13,-34.11 588.88,-41.07"/>
</a>
</g>
</g>
<!-- Node5 -->
<g id="Node000005" class="node">
<title>Node5</title>
<g id="a_Node000005"><a xlink:href="class_direct_x_manager.html#a939df5d867998c476f7c8fbacb39556d" target="_top" xlink:title=" ">
<polygon fill="white" stroke="#666666" points="564.25,-20 415.5,-20 415.5,0 564.25,0 564.25,-20"/>
<text text-anchor="middle" x="489.88" y="-6.5" font-family="Helvetica,sans-Serif" font-size="10.00">DirectXManager::RenderFrame</text>
</a>
</g>
</g>
<!-- Node1&#45;&gt;Node5 -->
<g id="edge4_Node000001_Node000005" class="edge">
<title>Node1&#45;&gt;Node5</title>
<g id="a_edge4_Node000001_Node000005"><a xlink:title=" ">
<path fill="none" stroke="#63b8ff" d="M588.74,-20.43C580.74,-19.58 572.65,-18.72 564.73,-17.87"/>
<polygon fill="#63b8ff" stroke="#63b8ff" points="588.13,-23.89 598.45,-21.47 588.88,-16.93 588.13,-23.89"/>
</a>
</g>
</g>
<!-- Node3 -->
<g id="Node000003" class="node">
<title>Node3</title>
<g id="a_Node000003"><a xlink:href="class_direct_x_manager.html#ac95cceb904d9893d0b135c2bd9039b33" target="_top" xlink:title=" ">
<polygon fill="white" stroke="#666666" points="222.5,-58 97,-58 97,-38 222.5,-38 222.5,-58"/>
<text text-anchor="middle" x="159.75" y="-44.5" font-family="Helvetica,sans-Serif" font-size="10.00">DirectXManager::Initialize</text>
</a>
</g>
</g>
<!-- Node2&#45;&gt;Node3 -->
<g id="edge2_Node000002_Node000003" class="edge">
<title>Node2&#45;&gt;Node3</title>
<g id="a_edge2_Node000002_Node000003"><a xlink:title=" ">
<path fill="none" stroke="#63b8ff" d="M411.63,-48C354.02,-48 276.35,-48 222.76,-48"/>
<polygon fill="#63b8ff" stroke="#63b8ff" points="411.36,-51.5 421.36,-48 411.36,-44.5 411.36,-51.5"/>
</a>
</g>
</g>
<!-- Node4 -->
<g id="Node000004" class="node">
<title>Node4</title>
<g id="a_Node000004"><a xlink:href="_game_engine_8cpp.html#a1e683c5a19c00d05cd803e46b805e339" target="_top" xlink:title=" ">
<polygon fill="white" stroke="#666666" points="61,-39 0,-39 0,-19 61,-19 61,-39"/>
<text text-anchor="middle" x="30.5" y="-25.5" font-family="Helvetica,sans-Serif" font-size="10.00">wWinMain</text>
</a>
</g>
</g>
<!-- Node3&#45;&gt;Node4 -->
<g id="edge3_Node000003_Node000004" class="edge">
<title>Node3&#45;&gt;Node4</title>
<g id="a_edge3_Node000003_Node000004"><a xlink:title=" ">
<path fill="none" stroke="#63b8ff" d="M85.46,-37.06C77.04,-35.8 68.84,-34.58 61.49,-33.48"/>
<polygon fill="#63b8ff" stroke="#63b8ff" points="84.71,-40.48 95.12,-38.5 85.75,-33.56 84.71,-40.48"/>
</a>
</g>
</g>
<!-- Node6 -->
<g id="Node000006" class="node">
<title>Node6</title>
<g id="a_Node000006"><a xlink:href="class_direct_x_manager.html#a2717dd089cad24c77c753ecc6bc139b2" target="_top" xlink:title=" ">
<polygon fill="white" stroke="#666666" points="379.5,-20 258.5,-20 258.5,0 379.5,0 379.5,-20"/>
<text text-anchor="middle" x="319" y="-6.5" font-family="Helvetica,sans-Serif" font-size="10.00">DirectXManager::Update</text>
</a>
</g>
</g>
<!-- Node5&#45;&gt;Node6 -->
<g id="edge5_Node000005_Node000006" class="edge">
<title>Node5&#45;&gt;Node6</title>
<g id="a_edge5_Node000005_Node000006"><a xlink:title=" ">
<path fill="none" stroke="#63b8ff" d="M403.88,-10C395.78,-10 387.7,-10 379.91,-10"/>
<polygon fill="#63b8ff" stroke="#63b8ff" points="403.78,-13.5 413.78,-10 403.78,-6.5 403.78,-13.5"/>
</a>
</g>
</g>
<!-- Node7 -->
<g id="Node000007" class="node">
<title>Node7</title>
<g id="a_Node000007"><a xlink:href="class_win32_application.html#a1d44083e5c10ac5faea4a4e0633898b6" target="_top" xlink:title=" ">
<polygon fill="white" stroke="#666666" points="217.25,-20 102.25,-20 102.25,0 217.25,0 217.25,-20"/>
<text text-anchor="middle" x="159.75" y="-6.5" font-family="Helvetica,sans-Serif" font-size="10.00">Win32Application::Run</text>
</a>
</g>
</g>
<!-- Node6&#45;&gt;Node7 -->
<g id="edge6_Node000006_Node000007" class="edge">
<title>Node6&#45;&gt;Node7</title>
<g id="a_edge6_Node000006_Node000007"><a xlink:title=" ">
<path fill="none" stroke="#63b8ff" d="M246.75,-10C237,-10 227.09,-10 217.63,-10"/>
<polygon fill="#63b8ff" stroke="#63b8ff" points="246.59,-13.5 256.59,-10 246.59,-6.5 246.59,-13.5"/>
</a>
</g>
</g>
<!-- Node7&#45;&gt;Node4 -->
<g id="edge7_Node000007_Node000004" class="edge">
<title>Node7&#45;&gt;Node4</title>
<g id="a_edge7_Node000007_Node000004"><a xlink:title=" ">
<path fill="none" stroke="#63b8ff" d="M90.6,-20.18C80.27,-21.72 70.1,-23.24 61.19,-24.57"/>
<polygon fill="#63b8ff" stroke="#63b8ff" points="90.95,-23.66 100.33,-18.72 89.92,-16.74 90.95,-23.66"/>
</a>
</g>
</g>
</g>
</svg>
