<?xml version="1.0" encoding="UTF-8" standalone="no"?>
<!DOCTYPE svg PUBLIC "-//W3C//DTD SVG 1.1//EN"
 "http://www.w3.org/Graphics/SVG/1.1/DTD/svg11.dtd">
<!-- Generated by graphviz version 9.0.0 (20230911.1827)
 -->
<!-- Title: Scene Pages: 1 -->
<!--zoomable 1472 -->

<svg id="main" version="1.1" xmlns="http://www.w3.org/2000/svg" xmlns:xlink="http://www.w3.org/1999/xlink" xml:space="preserve" onload="init(evt)">
<style type="text/css"><![CDATA[
.node, .edge {opacity: 0.7;}
.node.selected, .edge.selected {opacity: 1;}
.edge:hover path { stroke: red; }
.edge:hover polygon { stroke: red; fill: red; }
]]></style>

<defs>
  <circle id="rim" cx="0" cy="0" r="7"/>
  <circle id="rim2" cx="0" cy="0" r="3.5"/>
  <g id="zoomPlus">
    <use xlink:href="#rim" fill="#404040"><set attributeName="fill" to="#808080" begin="zoomplus.mouseover" end="zoomplus.mouseout"/></use>
    <path d="M-4,0h8M0,-4v8" fill="none" stroke="white" stroke-width="1.5" pointer-events="none"/>
  </g>
  <g id="zoomMin">
    <use xlink:href="#rim" fill="#404040"><set attributeName="fill" to="#808080" begin="zoomminus.mouseover" end="zoomminus.mouseout"/></use>
    <path d="M-4,0h8" fill="none" stroke="white" stroke-width="1.5" pointer-events="none"/>
  </g>
  <g id="arrowUp" transform="translate(30 24)">
    <use xlink:href="#rim"/>
    <path pointer-events="none" fill="none" stroke="white" stroke-width="1.5" d="M0,-3.0v7 M-2.5,-0.5L0,-3.0L2.5,-0.5"/>
  </g>
  <g id="arrowRight" transform="rotate(90) translate(36 -43)">
    <use xlink:href="#rim"/>
    <path pointer-events="none" fill="none" stroke="white" stroke-width="1.5" d="M0,-3.0v7 M-2.5,-0.5L0,-3.0L2.5,-0.5"/>
  </g>
  <g id="arrowDown" transform="rotate(180) translate(-30 -48)">
    <use xlink:href="#rim"/>
    <path pointer-events="none" fill="none" stroke="white" stroke-width="1.5" d="M0,-3.0v7 M-2.5,-0.5L0,-3.0L2.5,-0.5"/>
  </g>
  <g id="arrowLeft" transform="rotate(270) translate(-36 17)">
    <use xlink:href="#rim"/>
    <path pointer-events="none" fill="none" stroke="white" stroke-width="1.5" d="M0,-3.0v7 M-2.5,-0.5L0,-3.0L2.5,-0.5"/>
  </g>
  <g id="resetDef">
    <use xlink:href="#rim2" fill="#404040"><set attributeName="fill" to="#808080" begin="reset.mouseover" end="reset.mouseout"/></use>
  </g>
</defs>
<script type="application/ecmascript">
var viewWidth = 1408;
var viewHeight = 1472;
var sectionId = 'dynsection-0';
</script>
<script type="application/ecmascript" xlink:href="svg.min.js"/>
<svg id="graph" class="graph">
<g id="viewport">
<title>Scene</title>
<!-- Node1 -->
<g id="Node000001" class="node">
<title>Node1</title>
<g id="a_Node000001"><a xlink:title=" ">
<polygon fill="#999999" stroke="none" points="1241.5,-320 1028.5,-320 1028.5,-268 1241.5,-268 1241.5,-320"/>
<text text-anchor="start" x="1121.12" y="-306.5" font-family="Helvetica,sans-Serif" font-size="10.00">Scene</text>
<text text-anchor="start" x="1133.5" y="-290.5" font-family="Helvetica,sans-Serif" font-size="10.00"> </text>
<text text-anchor="start" x="1032.5" y="-274.5" font-family="Helvetica,sans-Serif" font-size="10.00">+</text>
<text text-anchor="start" x="1042.5" y="-274.5" font-family="Helvetica,sans-Serif" font-size="10.00">void LoadFromFile(const std::string &amp;filepath)</text>
<polygon fill="#666666" stroke="#666666" points="1028.5,-302 1028.5,-302 1241.5,-302 1241.5,-302 1028.5,-302"/>
<polygon fill="#666666" stroke="#666666" points="1028.5,-286 1028.5,-286 1241.5,-286 1241.5,-286 1028.5,-286"/>
<polygon fill="none" stroke="#666666" points="1028.5,-268 1028.5,-320 1241.5,-320 1241.5,-268 1028.5,-268"/>
</a>
</g>
</g>
<!-- Node2 -->
<g id="Node000002" class="node">
<title>Node2</title>
<g id="a_Node000002"><a xlink:title=" ">
<polygon fill="white" stroke="none" points="1218.5,-528 1119.5,-528 1119.5,-476 1218.5,-476 1218.5,-528"/>
<text text-anchor="start" x="1124.38" y="-514.5" font-family="Helvetica,sans-Serif" font-size="10.00">std::vector&lt; Model &gt;</text>
<text text-anchor="start" x="1167.5" y="-498.5" font-family="Helvetica,sans-Serif" font-size="10.00"> </text>
<text text-anchor="start" x="1167.5" y="-482.5" font-family="Helvetica,sans-Serif" font-size="10.00"> </text>
<polygon fill="#666666" stroke="#666666" points="1119.5,-510 1119.5,-510 1218.5,-510 1218.5,-510 1119.5,-510"/>
<polygon fill="#666666" stroke="#666666" points="1119.5,-494 1119.5,-494 1218.5,-494 1218.5,-494 1119.5,-494"/>
<polygon fill="none" stroke="#666666" points="1119.5,-476 1119.5,-528 1218.5,-528 1218.5,-476 1119.5,-476"/>
</a>
</g>
</g>
<!-- Node2&#45;&gt;Node1 -->
<g id="edge1_Node000001_Node000002" class="edge">
<title>Node2&#45;&gt;Node1</title>
<g id="a_edge1_Node000001_Node000002"><a xlink:title=" ">
<path fill="none" stroke="#63b8ff" d="M1164.9,-476.15C1159,-440.42 1148.08,-374.26 1141.2,-332.55"/>
<polygon fill="none" stroke="#63b8ff" points="1141.22,-332.67 1136.29,-327.4 1139.26,-320.83 1144.19,-326.09 1141.22,-332.67"/>
</a>
</g>
<text text-anchor="middle" x="1173.75" y="-408.5" font-family="Helvetica,sans-Serif" font-size="10.00" fill="grey"> &#45;models</text>
</g>
<!-- Node3 -->
<g id="Node000003" class="node">
<title>Node3</title>
<g id="a_Node000003"><a xlink:href="class_model.html" target="_top" xlink:title=" ">
<polygon fill="white" stroke="none" points="1400,-1092 1156,-1092 1156,-832 1400,-832 1400,-1092"/>
<text text-anchor="start" x="1264.88" y="-1078.5" font-family="Helvetica,sans-Serif" font-size="10.00">Model</text>
<text text-anchor="start" x="1161.5" y="-1062.5" font-family="Helvetica,sans-Serif" font-size="10.00">&#45;</text>
<text text-anchor="start" x="1170" y="-1062.5" font-family="Helvetica,sans-Serif" font-size="10.00">DirectX::XMFLOAT3 position</text>
<text text-anchor="start" x="1161.5" y="-1046.5" font-family="Helvetica,sans-Serif" font-size="10.00">&#45;</text>
<text text-anchor="start" x="1170" y="-1046.5" font-family="Helvetica,sans-Serif" font-size="10.00">DirectX::XMFLOAT3 rotation</text>
<text text-anchor="start" x="1161.5" y="-1030.5" font-family="Helvetica,sans-Serif" font-size="10.00">&#45;</text>
<text text-anchor="start" x="1170" y="-1030.5" font-family="Helvetica,sans-Serif" font-size="10.00">DirectX::XMFLOAT3 scale</text>
<text text-anchor="start" x="1161.5" y="-1014.5" font-family="Helvetica,sans-Serif" font-size="10.00">&#45;</text>
<text text-anchor="start" x="1170" y="-1014.5" font-family="Helvetica,sans-Serif" font-size="10.00">DirectX::XMMATRIX transformationMatrix</text>
<text text-anchor="start" x="1160" y="-998.5" font-family="Helvetica,sans-Serif" font-size="10.00">+</text>
<text text-anchor="start" x="1170" y="-998.5" font-family="Helvetica,sans-Serif" font-size="10.00">Model(GraphicsDevice *graphicsDevice)</text>
<text text-anchor="start" x="1160" y="-982.5" font-family="Helvetica,sans-Serif" font-size="10.00">+</text>
<text text-anchor="start" x="1170" y="-982.5" font-family="Helvetica,sans-Serif" font-size="10.00">void AddMeshEntry(Mesh *mesh, Material *material)</text>
<text text-anchor="start" x="1160" y="-966.5" font-family="Helvetica,sans-Serif" font-size="10.00">+</text>
<text text-anchor="start" x="1170" y="-966.5" font-family="Helvetica,sans-Serif" font-size="10.00">void SetPosition(const DirectX::XMFLOAT3 &amp;pos)</text>
<text text-anchor="start" x="1160" y="-950.5" font-family="Helvetica,sans-Serif" font-size="10.00">+</text>
<text text-anchor="start" x="1170" y="-950.5" font-family="Helvetica,sans-Serif" font-size="10.00">void SetRotation(const DirectX::XMFLOAT3 &amp;rot)</text>
<text text-anchor="start" x="1160" y="-934.5" font-family="Helvetica,sans-Serif" font-size="10.00">+</text>
<text text-anchor="start" x="1170" y="-934.5" font-family="Helvetica,sans-Serif" font-size="10.00">void SetScale(const DirectX::XMFLOAT3 &amp;scl)</text>
<text text-anchor="start" x="1160" y="-918.5" font-family="Helvetica,sans-Serif" font-size="10.00">+</text>
<text text-anchor="start" x="1170" y="-918.5" font-family="Helvetica,sans-Serif" font-size="10.00">DirectX::XMFLOAT3 GetPosition()</text>
<text text-anchor="start" x="1160" y="-902.5" font-family="Helvetica,sans-Serif" font-size="10.00">+</text>
<text text-anchor="start" x="1170" y="-902.5" font-family="Helvetica,sans-Serif" font-size="10.00">DirectX::XMFLOAT3 GetRotation()</text>
<text text-anchor="start" x="1160" y="-886.5" font-family="Helvetica,sans-Serif" font-size="10.00">+</text>
<text text-anchor="start" x="1170" y="-886.5" font-family="Helvetica,sans-Serif" font-size="10.00">DirectX::XMFLOAT3 GetScale()</text>
<text text-anchor="start" x="1160" y="-870.5" font-family="Helvetica,sans-Serif" font-size="10.00">+</text>
<text text-anchor="start" x="1170" y="-870.5" font-family="Helvetica,sans-Serif" font-size="10.00">void UpdateTransformationMatrix()</text>
<text text-anchor="start" x="1160" y="-854.5" font-family="Helvetica,sans-Serif" font-size="10.00">+</text>
<text text-anchor="start" x="1170" y="-854.5" font-family="Helvetica,sans-Serif" font-size="10.00">XMMATRIX GetTransformationMatrix()</text>
<text text-anchor="start" x="1160" y="-838.5" font-family="Helvetica,sans-Serif" font-size="10.00">+</text>
<text text-anchor="start" x="1170" y="-838.5" font-family="Helvetica,sans-Serif" font-size="10.00">std::vector&lt; MeshEntry &gt; GetMeshEntries()</text>
<polygon fill="#666666" stroke="#666666" points="1156,-1074 1156,-1074 1400,-1074 1400,-1074 1156,-1074"/>
<polygon fill="#666666" stroke="#666666" points="1156,-1010 1156,-1010 1168,-1010 1168,-1010 1156,-1010"/>
<polygon fill="#666666" stroke="#666666" points="1168,-1010 1168,-1010 1400,-1010 1400,-1010 1168,-1010"/>
<polygon fill="none" stroke="#666666" points="1156,-832 1156,-1092 1400,-1092 1400,-832 1156,-832"/>
</a>
</g>
</g>
<!-- Node3&#45;&gt;Node2 -->
<g id="edge2_Node000002_Node000003" class="edge">
<title>Node3&#45;&gt;Node2</title>
<g id="a_edge2_Node000002_Node000003"><a xlink:title=" ">
<path fill="none" stroke="#63b8ff" d="M1220.86,-832.2C1218.83,-826.1 1216.95,-820.01 1215.25,-814 1187.97,-717.51 1176.03,-599.37 1171.46,-540.33"/>
<polygon fill="none" stroke="#63b8ff" points="1171.47,-540.51 1167.04,-534.82 1170.58,-528.54 1175.02,-534.23 1171.47,-540.51"/>
</a>
</g>
<text text-anchor="middle" x="1239.38" y="-696.5" font-family="Helvetica,sans-Serif" font-size="10.00" fill="grey"> +elements</text>
</g>
<!-- Node6 -->
<g id="Node000006" class="node">
<title>Node6</title>
<g id="a_Node000006"><a xlink:href="class_mesh.html" target="_top" xlink:title=" ">
<polygon fill="white" stroke="none" points="1085,-568 815,-568 815,-436 1085,-436 1085,-568"/>
<text text-anchor="start" x="938" y="-554.5" font-family="Helvetica,sans-Serif" font-size="10.00">Mesh</text>
<text text-anchor="start" x="820.5" y="-538.5" font-family="Helvetica,sans-Serif" font-size="10.00">&#45;</text>
<text text-anchor="start" x="829" y="-538.5" font-family="Helvetica,sans-Serif" font-size="10.00">ID3D11Buffer * vertexBuffer</text>
<text text-anchor="start" x="820.5" y="-522.5" font-family="Helvetica,sans-Serif" font-size="10.00">&#45;</text>
<text text-anchor="start" x="829" y="-522.5" font-family="Helvetica,sans-Serif" font-size="10.00">ID3D11Buffer * indexBuffer</text>
<text text-anchor="start" x="819" y="-506.5" font-family="Helvetica,sans-Serif" font-size="10.00">+</text>
<text text-anchor="start" x="829" y="-506.5" font-family="Helvetica,sans-Serif" font-size="10.00">Mesh(GraphicsDevice *graphicsDevice, LPCSTR filename)</text>
<text text-anchor="start" x="819" y="-490.5" font-family="Helvetica,sans-Serif" font-size="10.00">+</text>
<text text-anchor="start" x="829" y="-490.5" font-family="Helvetica,sans-Serif" font-size="10.00">void SetParentModel(Model *model)</text>
<text text-anchor="start" x="819" y="-474.5" font-family="Helvetica,sans-Serif" font-size="10.00">+</text>
<text text-anchor="start" x="829" y="-474.5" font-family="Helvetica,sans-Serif" font-size="10.00">Model * GetParentModel() const</text>
<text text-anchor="start" x="819" y="-458.5" font-family="Helvetica,sans-Serif" font-size="10.00">+</text>
<text text-anchor="start" x="829" y="-458.5" font-family="Helvetica,sans-Serif" font-size="10.00">void LoadMesh(LPCSTR)</text>
<text text-anchor="start" x="819" y="-442.5" font-family="Helvetica,sans-Serif" font-size="10.00">+</text>
<text text-anchor="start" x="829" y="-442.5" font-family="Helvetica,sans-Serif" font-size="10.00">void Draw()</text>
<polygon fill="#666666" stroke="#666666" points="815,-550 815,-550 1085,-550 1085,-550 815,-550"/>
<polygon fill="#666666" stroke="#666666" points="815,-518 815,-518 827,-518 827,-518 815,-518"/>
<polygon fill="#666666" stroke="#666666" points="827,-518 827,-518 1085,-518 1085,-518 827,-518"/>
<polygon fill="none" stroke="#666666" points="815,-436 815,-568 1085,-568 1085,-436 815,-436"/>
</a>
</g>
</g>
<!-- Node3&#45;&gt;Node6 -->
<g id="edge6_Node000006_Node000003" class="edge">
<title>Node3&#45;&gt;Node6</title>
<g id="a_edge6_Node000006_Node000003"><a xlink:title=" ">
<path fill="none" stroke="#63b8ff" d="M1156.3,-838.93C1153.21,-836.56 1150.11,-834.24 1147,-832 1132.73,-821.71 1121.83,-828.42 1111.75,-814 1053.28,-730.32 1138.97,-672.02 1084,-586 1082.19,-583.18 1080.26,-580.43 1078.2,-577.77"/>
<polygon fill="none" stroke="#63b8ff" points="1078.12,-577.67 1071.18,-575.72 1070.31,-568.56 1077.25,-570.51 1078.12,-577.67"/>
</a>
</g>
<text text-anchor="middle" x="1140.62" y="-696.5" font-family="Helvetica,sans-Serif" font-size="10.00" fill="grey"> &#45;parentModel</text>
</g>
<!-- Node4 -->
<g id="Node000004" class="node">
<title>Node4</title>
<g id="a_Node000004"><a xlink:title=" ">
<polygon fill="white" stroke="none" points="1183,-52 1031,-52 1031,0 1183,0 1183,-52"/>
<text text-anchor="start" x="1035.75" y="-38.5" font-family="Helvetica,sans-Serif" font-size="10.00">std::vector&lt; Model::MeshEntry &gt;</text>
<text text-anchor="start" x="1105.5" y="-22.5" font-family="Helvetica,sans-Serif" font-size="10.00"> </text>
<text text-anchor="start" x="1105.5" y="-6.5" font-family="Helvetica,sans-Serif" font-size="10.00"> </text>
<polygon fill="#666666" stroke="#666666" points="1031,-34 1031,-34 1183,-34 1183,-34 1031,-34"/>
<polygon fill="#666666" stroke="#666666" points="1031,-18 1031,-18 1183,-18 1183,-18 1031,-18"/>
<polygon fill="none" stroke="#666666" points="1031,0 1031,-52 1183,-52 1183,0 1031,0"/>
</a>
</g>
</g>
<!-- Node4&#45;&gt;Node3 -->
<g id="edge3_Node000003_Node000004" class="edge">
<title>Node4&#45;&gt;Node3</title>
<g id="a_edge3_Node000003_Node000004"><a xlink:title=" ">
<path fill="none" stroke="#63b8ff" d="M1183,-40.31C1228.67,-53.17 1278,-77.95 1278,-125 1278,-503 1278,-503 1278,-503 1278,-609.02 1278,-728.85 1278,-819.33"/>
<polygon fill="none" stroke="#63b8ff" points="1278,-819.28 1282,-825.28 1278,-831.28 1274,-825.28 1278,-819.28"/>
</a>
</g>
<text text-anchor="middle" x="1308.38" y="-290.5" font-family="Helvetica,sans-Serif" font-size="10.00" fill="grey"> &#45;meshEntries</text>
</g>
<!-- Node5 -->
<g id="Node000005" class="node">
<title>Node5</title>
<g id="a_Node000005"><a xlink:href="class_model.html#struct_model_1_1_mesh_entry" target="_top" xlink:title=" ">
<polygon fill="white" stroke="none" points="994.5,-152 905.5,-152 905.5,-100 994.5,-100 994.5,-152"/>
<text text-anchor="start" x="910.25" y="-138.5" font-family="Helvetica,sans-Serif" font-size="10.00">Model::MeshEntry</text>
<text text-anchor="start" x="948.5" y="-122.5" font-family="Helvetica,sans-Serif" font-size="10.00"> </text>
<text text-anchor="start" x="948.5" y="-106.5" font-family="Helvetica,sans-Serif" font-size="10.00"> </text>
<polygon fill="#666666" stroke="#666666" points="905.5,-134 905.5,-134 994.5,-134 994.5,-134 905.5,-134"/>
<polygon fill="#666666" stroke="#666666" points="905.5,-118 905.5,-118 994.5,-118 994.5,-118 905.5,-118"/>
<polygon fill="none" stroke="#666666" points="905.5,-100 905.5,-152 994.5,-152 994.5,-100 905.5,-100"/>
</a>
</g>
</g>
<!-- Node5&#45;&gt;Node4 -->
<g id="edge4_Node000004_Node000005" class="edge">
<title>Node5&#45;&gt;Node4</title>
<g id="a_edge4_Node000004_Node000005"><a xlink:title=" ">
<path fill="none" stroke="#63b8ff" d="M990.02,-100.02C1010.14,-87.46 1034.73,-72.11 1056.17,-58.73"/>
<polygon fill="none" stroke="#63b8ff" points="1056.1,-58.77 1059.08,-52.2 1066.28,-52.41 1063.31,-58.99 1056.1,-58.77"/>
</a>
</g>
<text text-anchor="middle" x="1061.38" y="-72.5" font-family="Helvetica,sans-Serif" font-size="10.00" fill="grey"> +elements</text>
</g>
<!-- Node6&#45;&gt;Node5 -->
<g id="edge5_Node000005_Node000006" class="edge">
<title>Node6&#45;&gt;Node5</title>
<g id="a_edge5_Node000005_Node000006"><a xlink:title=" ">
<path fill="none" stroke="#63b8ff" d="M950,-436.28C950,-357.79 950,-228.1 950,-164.51"/>
<polygon fill="none" stroke="#63b8ff" points="950,-164.53 946,-158.53 950,-152.53 954,-158.53 950,-164.53"/>
</a>
</g>
<text text-anchor="middle" x="966.5" y="-290.5" font-family="Helvetica,sans-Serif" font-size="10.00" fill="grey"> +mesh</text>
</g>
<!-- Node7 -->
<g id="Node000007" class="node">
<title>Node7</title>
<g id="a_Node000007"><a xlink:title=" ">
<polygon fill="white" stroke="none" points="1138,-988 1016,-988 1016,-936 1138,-936 1138,-988"/>
<text text-anchor="start" x="1020.75" y="-974.5" font-family="Helvetica,sans-Serif" font-size="10.00">std::vector&lt; VertexType &gt;</text>
<text text-anchor="start" x="1075.5" y="-958.5" font-family="Helvetica,sans-Serif" font-size="10.00"> </text>
<text text-anchor="start" x="1075.5" y="-942.5" font-family="Helvetica,sans-Serif" font-size="10.00"> </text>
<polygon fill="#666666" stroke="#666666" points="1016,-970 1016,-970 1138,-970 1138,-970 1016,-970"/>
<polygon fill="#666666" stroke="#666666" points="1016,-954 1016,-954 1138,-954 1138,-954 1016,-954"/>
<polygon fill="none" stroke="#666666" points="1016,-936 1016,-988 1138,-988 1138,-936 1016,-936"/>
</a>
</g>
</g>
<!-- Node7&#45;&gt;Node6 -->
<g id="edge7_Node000006_Node000007" class="edge">
<title>Node7&#45;&gt;Node6</title>
<g id="a_edge7_Node000006_Node000007"><a xlink:title=" ">
<path fill="none" stroke="#63b8ff" d="M1071.42,-936.02C1055.09,-863.35 1007.18,-652.98 985,-586 984.35,-584.05 983.68,-582.08 982.99,-580.11"/>
<polygon fill="none" stroke="#63b8ff" points="982.95,-579.98 977.12,-575.73 978.81,-568.72 984.64,-572.97 982.95,-579.98"/>
</a>
</g>
<text text-anchor="middle" x="1060.5" y="-696.5" font-family="Helvetica,sans-Serif" font-size="10.00" fill="grey"> &#45;vertices</text>
</g>
<!-- Node8 -->
<g id="Node000008" class="node">
<title>Node8</title>
<g id="a_Node000008"><a xlink:href="_mesh_8h.html#struct_vertex_type" target="_top" xlink:title=" ">
<polygon fill="white" stroke="none" points="1134,-1344 1020,-1344 1020,-1260 1134,-1260 1134,-1344"/>
<text text-anchor="start" x="1052.25" y="-1330.5" font-family="Helvetica,sans-Serif" font-size="10.00">VertexType</text>
<text text-anchor="start" x="1024" y="-1314.5" font-family="Helvetica,sans-Serif" font-size="10.00">+</text>
<text text-anchor="start" x="1034" y="-1314.5" font-family="Helvetica,sans-Serif" font-size="10.00">XMFLOAT4 position</text>
<text text-anchor="start" x="1024" y="-1298.5" font-family="Helvetica,sans-Serif" font-size="10.00">+</text>
<text text-anchor="start" x="1034" y="-1298.5" font-family="Helvetica,sans-Serif" font-size="10.00">XMFLOAT2 texCoords</text>
<text text-anchor="start" x="1024" y="-1282.5" font-family="Helvetica,sans-Serif" font-size="10.00">+</text>
<text text-anchor="start" x="1034" y="-1282.5" font-family="Helvetica,sans-Serif" font-size="10.00">XMFLOAT3 normal</text>
<text text-anchor="start" x="1075.5" y="-1266.5" font-family="Helvetica,sans-Serif" font-size="10.00"> </text>
<polygon fill="#666666" stroke="#666666" points="1020,-1326 1020,-1326 1134,-1326 1134,-1326 1020,-1326"/>
<polygon fill="#666666" stroke="#666666" points="1020,-1278 1020,-1278 1032,-1278 1032,-1278 1020,-1278"/>
<polygon fill="#666666" stroke="#666666" points="1032,-1278 1032,-1278 1134,-1278 1134,-1278 1032,-1278"/>
<polygon fill="none" stroke="#666666" points="1020,-1260 1020,-1344 1134,-1344 1134,-1260 1020,-1260"/>
</a>
</g>
</g>
<!-- Node8&#45;&gt;Node7 -->
<g id="edge8_Node000007_Node000008" class="edge">
<title>Node8&#45;&gt;Node7</title>
<g id="a_edge8_Node000007_Node000008"><a xlink:title=" ">
<path fill="none" stroke="#63b8ff" d="M1077,-1260.23C1077,-1194.14 1077,-1064.6 1077,-1000.6"/>
<polygon fill="none" stroke="#63b8ff" points="1077,-1000.53 1073,-994.53 1077,-988.53 1081,-994.53 1077,-1000.53"/>
</a>
</g>
<text text-anchor="middle" x="1101.38" y="-1112.5" font-family="Helvetica,sans-Serif" font-size="10.00" fill="grey"> +elements</text>
</g>
<!-- Node9 -->
<g id="Node000009" class="node">
<title>Node9</title>
<g id="a_Node000009"><a xlink:title=" ">
<polygon fill="white" stroke="none" points="997.5,-988 872.5,-988 872.5,-936 997.5,-936 997.5,-988"/>
<text text-anchor="start" x="877.25" y="-974.5" font-family="Helvetica,sans-Serif" font-size="10.00">std::vector&lt; unsigned int &gt;</text>
<text text-anchor="start" x="879.5" y="-958.5" font-family="Helvetica,sans-Serif" font-size="10.00">+</text>
<text text-anchor="start" x="892.5" y="-958.5" font-family="Helvetica,sans-Serif" font-size="10.00">unsigned int elements</text>
<text text-anchor="start" x="933.5" y="-942.5" font-family="Helvetica,sans-Serif" font-size="10.00"> </text>
<polygon fill="#666666" stroke="#666666" points="872.5,-970 872.5,-970 997.5,-970 997.5,-970 872.5,-970"/>
<polygon fill="#666666" stroke="#666666" points="872.5,-954 872.5,-954 890.5,-954 890.5,-954 872.5,-954"/>
<polygon fill="#666666" stroke="#666666" points="890.5,-954 890.5,-954 997.5,-954 997.5,-954 890.5,-954"/>
<polygon fill="none" stroke="#666666" points="872.5,-936 872.5,-988 997.5,-988 997.5,-936 872.5,-936"/>
</a>
</g>
</g>
<!-- Node9&#45;&gt;Node6 -->
<g id="edge9_Node000006_Node000009" class="edge">
<title>Node9&#45;&gt;Node6</title>
<g id="a_edge9_Node000006_Node000009"><a xlink:title=" ">
<path fill="none" stroke="#63b8ff" d="M935.82,-936.05C937.99,-869.57 944.01,-686.04 947.46,-580.47"/>
<polygon fill="none" stroke="#63b8ff" points="947.46,-580.58 943.66,-574.45 947.85,-568.58 951.65,-574.71 947.46,-580.58"/>
</a>
</g>
<text text-anchor="middle" x="965.38" y="-696.5" font-family="Helvetica,sans-Serif" font-size="10.00" fill="grey"> &#45;indices</text>
</g>
<!-- Node10 -->
<g id="Node000010" class="node">
<title>Node10</title>
<g id="a_Node000010"><a xlink:href="class_graphics_device.html" target="_top" xlink:title=" ">
<polygon fill="white" stroke="none" points="713.5,-1464 448.5,-1464 448.5,-1140 713.5,-1140 713.5,-1464"/>
<text text-anchor="start" x="547.25" y="-1450.5" font-family="Helvetica,sans-Serif" font-size="10.00">GraphicsDevice</text>
<text text-anchor="start" x="454" y="-1434.5" font-family="Helvetica,sans-Serif" font-size="10.00">&#45;</text>
<text text-anchor="start" x="462.5" y="-1434.5" font-family="Helvetica,sans-Serif" font-size="10.00">ID3D11Device * device</text>
<text text-anchor="start" x="454" y="-1418.5" font-family="Helvetica,sans-Serif" font-size="10.00">&#45;</text>
<text text-anchor="start" x="462.5" y="-1418.5" font-family="Helvetica,sans-Serif" font-size="10.00">ID3D11DeviceContext * deviceContext</text>
<text text-anchor="start" x="454" y="-1402.5" font-family="Helvetica,sans-Serif" font-size="10.00">&#45;</text>
<text text-anchor="start" x="462.5" y="-1402.5" font-family="Helvetica,sans-Serif" font-size="10.00">IDXGISwapChain * swapChain</text>
<text text-anchor="start" x="454" y="-1386.5" font-family="Helvetica,sans-Serif" font-size="10.00">&#45;</text>
<text text-anchor="start" x="462.5" y="-1386.5" font-family="Helvetica,sans-Serif" font-size="10.00">ID3D11RenderTargetView * renderTargetView</text>
<text text-anchor="start" x="454" y="-1370.5" font-family="Helvetica,sans-Serif" font-size="10.00">&#45;</text>
<text text-anchor="start" x="462.5" y="-1370.5" font-family="Helvetica,sans-Serif" font-size="10.00">ID3D11DepthStencilView * depthStencilView</text>
<text text-anchor="start" x="454" y="-1354.5" font-family="Helvetica,sans-Serif" font-size="10.00">&#45;</text>
<text text-anchor="start" x="462.5" y="-1354.5" font-family="Helvetica,sans-Serif" font-size="10.00">ID3D11Texture2D * depthStencilBuffer</text>
<text text-anchor="start" x="454" y="-1338.5" font-family="Helvetica,sans-Serif" font-size="10.00">&#45;</text>
<text text-anchor="start" x="462.5" y="-1338.5" font-family="Helvetica,sans-Serif" font-size="10.00">int windowWidth</text>
<text text-anchor="start" x="454" y="-1322.5" font-family="Helvetica,sans-Serif" font-size="10.00">&#45;</text>
<text text-anchor="start" x="462.5" y="-1322.5" font-family="Helvetica,sans-Serif" font-size="10.00">int windowHeight</text>
<text text-anchor="start" x="454" y="-1306.5" font-family="Helvetica,sans-Serif" font-size="10.00">&#45;</text>
<text text-anchor="start" x="462.5" y="-1306.5" font-family="Helvetica,sans-Serif" font-size="10.00">HWND hWnd</text>
<text text-anchor="start" x="452.5" y="-1290.5" font-family="Helvetica,sans-Serif" font-size="10.00">+</text>
<text text-anchor="start" x="462.5" y="-1290.5" font-family="Helvetica,sans-Serif" font-size="10.00">void Initialize(HWND hWnd, int width, int height)</text>
<text text-anchor="start" x="452.5" y="-1274.5" font-family="Helvetica,sans-Serif" font-size="10.00">+</text>
<text text-anchor="start" x="462.5" y="-1274.5" font-family="Helvetica,sans-Serif" font-size="10.00">void ResizeBuffersAndViews(int width, int height)</text>
<text text-anchor="start" x="452.5" y="-1258.5" font-family="Helvetica,sans-Serif" font-size="10.00">+</text>
<text text-anchor="start" x="462.5" y="-1258.5" font-family="Helvetica,sans-Serif" font-size="10.00">ID3D11Device * GetDevice() const</text>
<text text-anchor="start" x="452.5" y="-1242.5" font-family="Helvetica,sans-Serif" font-size="10.00">+</text>
<text text-anchor="start" x="462.5" y="-1242.5" font-family="Helvetica,sans-Serif" font-size="10.00">ID3D11DeviceContext * GetDeviceContext() const</text>
<text text-anchor="start" x="452.5" y="-1226.5" font-family="Helvetica,sans-Serif" font-size="10.00">+</text>
<text text-anchor="start" x="462.5" y="-1226.5" font-family="Helvetica,sans-Serif" font-size="10.00">IDXGISwapChain * GetSwapChain() const</text>
<text text-anchor="start" x="452.5" y="-1210.5" font-family="Helvetica,sans-Serif" font-size="10.00">+</text>
<text text-anchor="start" x="462.5" y="-1210.5" font-family="Helvetica,sans-Serif" font-size="10.00">ID3D11RenderTargetView * GetRenderTargetView() const</text>
<text text-anchor="start" x="452.5" y="-1194.5" font-family="Helvetica,sans-Serif" font-size="10.00">+</text>
<text text-anchor="start" x="462.5" y="-1194.5" font-family="Helvetica,sans-Serif" font-size="10.00">ID3D11DepthStencilView * GetDepthStencilView() const</text>
<text text-anchor="start" x="452.5" y="-1178.5" font-family="Helvetica,sans-Serif" font-size="10.00">+</text>
<text text-anchor="start" x="462.5" y="-1178.5" font-family="Helvetica,sans-Serif" font-size="10.00">int GetWindowWidth()</text>
<text text-anchor="start" x="452.5" y="-1162.5" font-family="Helvetica,sans-Serif" font-size="10.00">+</text>
<text text-anchor="start" x="462.5" y="-1162.5" font-family="Helvetica,sans-Serif" font-size="10.00">int GetWindowHeight()</text>
<text text-anchor="start" x="452.5" y="-1146.5" font-family="Helvetica,sans-Serif" font-size="10.00">+</text>
<text text-anchor="start" x="462.5" y="-1146.5" font-family="Helvetica,sans-Serif" font-size="10.00">HWND GetHWND()</text>
<polygon fill="#666666" stroke="#666666" points="448.5,-1446 448.5,-1446 713.5,-1446 713.5,-1446 448.5,-1446"/>
<polygon fill="#666666" stroke="#666666" points="448.5,-1302 448.5,-1302 460.5,-1302 460.5,-1302 448.5,-1302"/>
<polygon fill="#666666" stroke="#666666" points="460.5,-1302 460.5,-1302 713.5,-1302 713.5,-1302 460.5,-1302"/>
<polygon fill="none" stroke="#666666" points="448.5,-1140 448.5,-1464 713.5,-1464 713.5,-1140 448.5,-1140"/>
</a>
</g>
</g>
<!-- Node10&#45;&gt;Node3 -->
<g id="edge18_Node000003_Node000010" class="edge">
<title>Node10&#45;&gt;Node3</title>
<g id="a_edge18_Node000003_Node000010"><a xlink:title=" ">
<path fill="none" stroke="#63b8ff" d="M713.29,-1243.29C797.18,-1208.76 908.77,-1166.56 1011,-1140 1062.77,-1126.55 1082.69,-1146.97 1130,-1122 1141.87,-1115.73 1153.31,-1108.13 1164.19,-1099.69"/>
<polygon fill="none" stroke="#63b8ff" points="1164.01,-1099.84 1166.15,-1092.96 1173.33,-1092.29 1171.19,-1099.17 1164.01,-1099.84"/>
</a>
</g>
<text text-anchor="middle" x="1180.62" y="-1112.5" font-family="Helvetica,sans-Serif" font-size="10.00" fill="grey"> &#45;graphicsDevice</text>
</g>
<!-- Node10&#45;&gt;Node6 -->
<g id="edge10_Node000006_Node000010" class="edge">
<title>Node10&#45;&gt;Node6</title>
<g id="a_edge10_Node000006_Node000010"><a xlink:title=" ">
<path fill="none" stroke="#63b8ff" d="M713.4,-1162.77C729.54,-1140.4 744.14,-1116.49 755,-1092 802.3,-985.31 757.89,-943.68 791.75,-832 819.25,-741.31 868.61,-644.32 904.91,-579.33"/>
<polygon fill="none" stroke="#63b8ff" points="904.98,-579.22 904.43,-572.03 910.86,-568.77 911.4,-575.96 904.98,-579.22"/>
</a>
</g>
<text text-anchor="middle" x="827.62" y="-958.5" font-family="Helvetica,sans-Serif" font-size="10.00" fill="grey"> &#45;graphicsDevice</text>
</g>
<!-- Node11 -->
<g id="Node000011" class="node">
<title>Node11</title>
<g id="a_Node000011"><a xlink:href="class_material.html" target="_top" xlink:title=" ">
<polygon fill="white" stroke="none" points="577,-388 289,-388 289,-200 577,-200 577,-388"/>
<text text-anchor="start" x="415.75" y="-374.5" font-family="Helvetica,sans-Serif" font-size="10.00">Material</text>
<text text-anchor="start" x="294.5" y="-358.5" font-family="Helvetica,sans-Serif" font-size="10.00">&#45;</text>
<text text-anchor="start" x="303" y="-358.5" font-family="Helvetica,sans-Serif" font-size="10.00">ID3D11ShaderResourceView * textureSRV</text>
<text text-anchor="start" x="294.5" y="-342.5" font-family="Helvetica,sans-Serif" font-size="10.00">&#45;</text>
<text text-anchor="start" x="303" y="-342.5" font-family="Helvetica,sans-Serif" font-size="10.00">bool transparent</text>
<text text-anchor="start" x="293" y="-326.5" font-family="Helvetica,sans-Serif" font-size="10.00">+</text>
<text text-anchor="start" x="303" y="-326.5" font-family="Helvetica,sans-Serif" font-size="10.00">Material(GraphicsDevice *graphicsDevice, std::shared</text>
<text text-anchor="start" x="303" y="-314.5" font-family="Helvetica,sans-Serif" font-size="10.00">_ptr&lt; ShaderProgram &gt; shader, RenderState *renderState,</text>
<text text-anchor="start" x="303" y="-302.5" font-family="Helvetica,sans-Serif" font-size="10.00"> bool transparent)</text>
<text text-anchor="start" x="293" y="-286.5" font-family="Helvetica,sans-Serif" font-size="10.00">+</text>
<text text-anchor="start" x="303" y="-286.5" font-family="Helvetica,sans-Serif" font-size="10.00">void LoadTexture(LPCSTR filename)</text>
<text text-anchor="start" x="293" y="-270.5" font-family="Helvetica,sans-Serif" font-size="10.00">+</text>
<text text-anchor="start" x="303" y="-270.5" font-family="Helvetica,sans-Serif" font-size="10.00">void SetConstantBuffer(ConstantBuffer cb)</text>
<text text-anchor="start" x="293" y="-254.5" font-family="Helvetica,sans-Serif" font-size="10.00">+</text>
<text text-anchor="start" x="303" y="-254.5" font-family="Helvetica,sans-Serif" font-size="10.00">void Setup()</text>
<text text-anchor="start" x="293" y="-238.5" font-family="Helvetica,sans-Serif" font-size="10.00">+</text>
<text text-anchor="start" x="303" y="-238.5" font-family="Helvetica,sans-Serif" font-size="10.00">bool isTransparent()</text>
<text text-anchor="start" x="293" y="-222.5" font-family="Helvetica,sans-Serif" font-size="10.00">+</text>
<text text-anchor="start" x="303" y="-222.5" font-family="Helvetica,sans-Serif" font-size="10.00">std::shared_ptr&lt; ShaderProgram &gt; GetShaderProgram() const</text>
<text text-anchor="start" x="293" y="-206.5" font-family="Helvetica,sans-Serif" font-size="10.00">+</text>
<text text-anchor="start" x="303" y="-206.5" font-family="Helvetica,sans-Serif" font-size="10.00">RenderState * GetRenderState() const</text>
<polygon fill="#666666" stroke="#666666" points="289,-370 289,-370 577,-370 577,-370 289,-370"/>
<polygon fill="#666666" stroke="#666666" points="289,-338 289,-338 301,-338 301,-338 289,-338"/>
<polygon fill="#666666" stroke="#666666" points="301,-338 301,-338 577,-338 577,-338 301,-338"/>
<polygon fill="none" stroke="#666666" points="289,-200 289,-388 577,-388 577,-200 289,-200"/>
</a>
</g>
</g>
<!-- Node10&#45;&gt;Node11 -->
<g id="edge17_Node000011_Node000010" class="edge">
<title>Node10&#45;&gt;Node11</title>
<g id="a_edge17_Node000011_Node000010"><a xlink:title=" ">
<path fill="none" stroke="#63b8ff" d="M448.66,-1169.76C431.2,-1145.63 415.94,-1119.35 406,-1092 360.99,-968.12 397.87,-587.63 419.72,-400.77"/>
<polygon fill="none" stroke="#63b8ff" points="419.73,-400.74 416.46,-394.32 421.13,-388.83 424.4,-395.25 419.73,-400.74"/>
</a>
</g>
<text text-anchor="middle" x="436.62" y="-696.5" font-family="Helvetica,sans-Serif" font-size="10.00" fill="grey"> &#45;graphicsDevice</text>
</g>
<!-- Node13 -->
<g id="Node000013" class="node">
<title>Node13</title>
<g id="a_Node000013"><a xlink:href="class_shader_program.html" target="_top" xlink:title=" ">
<polygon fill="white" stroke="none" points="746.5,-1066 415.5,-1066 415.5,-858 746.5,-858 746.5,-1066"/>
<text text-anchor="start" x="547.25" y="-1052.5" font-family="Helvetica,sans-Serif" font-size="10.00">ShaderProgram</text>
<text text-anchor="start" x="421" y="-1036.5" font-family="Helvetica,sans-Serif" font-size="10.00">&#45;</text>
<text text-anchor="start" x="429.5" y="-1036.5" font-family="Helvetica,sans-Serif" font-size="10.00">ID3D11VertexShader * vertexShader</text>
<text text-anchor="start" x="421" y="-1020.5" font-family="Helvetica,sans-Serif" font-size="10.00">&#45;</text>
<text text-anchor="start" x="429.5" y="-1020.5" font-family="Helvetica,sans-Serif" font-size="10.00">ID3D11PixelShader * pixelShader</text>
<text text-anchor="start" x="421" y="-1004.5" font-family="Helvetica,sans-Serif" font-size="10.00">&#45;</text>
<text text-anchor="start" x="429.5" y="-1004.5" font-family="Helvetica,sans-Serif" font-size="10.00">ID3D11InputLayout * inputLayout</text>
<text text-anchor="start" x="421" y="-988.5" font-family="Helvetica,sans-Serif" font-size="10.00">&#45;</text>
<text text-anchor="start" x="429.5" y="-988.5" font-family="Helvetica,sans-Serif" font-size="10.00">ID3D11Buffer * constantBuffer</text>
<text text-anchor="start" x="419.5" y="-972.5" font-family="Helvetica,sans-Serif" font-size="10.00">+</text>
<text text-anchor="start" x="429.5" y="-972.5" font-family="Helvetica,sans-Serif" font-size="10.00">ShaderProgram(GraphicsDevice *graphicsDevice)</text>
<text text-anchor="start" x="419.5" y="-956.5" font-family="Helvetica,sans-Serif" font-size="10.00">+</text>
<text text-anchor="start" x="429.5" y="-956.5" font-family="Helvetica,sans-Serif" font-size="10.00">void LoadShader(LPCSTR VSFilename, LPCSTR PSFilename)</text>
<text text-anchor="start" x="419.5" y="-940.5" font-family="Helvetica,sans-Serif" font-size="10.00">+</text>
<text text-anchor="start" x="429.5" y="-940.5" font-family="Helvetica,sans-Serif" font-size="10.00">void ClearResources()</text>
<text text-anchor="start" x="419.5" y="-924.5" font-family="Helvetica,sans-Serif" font-size="10.00">+</text>
<text text-anchor="start" x="429.5" y="-924.5" font-family="Helvetica,sans-Serif" font-size="10.00">void UpdateBuffers(ConstantBuffer cb)</text>
<text text-anchor="start" x="419.5" y="-908.5" font-family="Helvetica,sans-Serif" font-size="10.00">+</text>
<text text-anchor="start" x="429.5" y="-908.5" font-family="Helvetica,sans-Serif" font-size="10.00">void Bind()</text>
<text text-anchor="start" x="421" y="-892.5" font-family="Helvetica,sans-Serif" font-size="10.00">&#45;</text>
<text text-anchor="start" x="429.5" y="-892.5" font-family="Helvetica,sans-Serif" font-size="10.00">bool CompileHLSL(const std::string &amp;filename, ShaderType shaderType)</text>
<text text-anchor="start" x="421" y="-876.5" font-family="Helvetica,sans-Serif" font-size="10.00">&#45;</text>
<text text-anchor="start" x="429.5" y="-876.5" font-family="Helvetica,sans-Serif" font-size="10.00">std::vector&lt; byte &gt; LoadShaderFile(const std::string</text>
<text text-anchor="start" x="429.5" y="-864.5" font-family="Helvetica,sans-Serif" font-size="10.00"> &amp;filename, ShaderType shaderType)</text>
<polygon fill="#666666" stroke="#666666" points="415.5,-1048 415.5,-1048 746.5,-1048 746.5,-1048 415.5,-1048"/>
<polygon fill="#666666" stroke="#666666" points="415.5,-984 415.5,-984 427.5,-984 427.5,-984 415.5,-984"/>
<polygon fill="#666666" stroke="#666666" points="427.5,-984 427.5,-984 746.5,-984 746.5,-984 427.5,-984"/>
<polygon fill="none" stroke="#666666" points="415.5,-858 415.5,-1066 746.5,-1066 746.5,-858 415.5,-858"/>
</a>
</g>
</g>
<!-- Node10&#45;&gt;Node13 -->
<g id="edge14_Node000013_Node000010" class="edge">
<title>Node10&#45;&gt;Node13</title>
<g id="a_edge14_Node000013_Node000010"><a xlink:title=" ">
<path fill="none" stroke="#63b8ff" d="M581,-1140.41C581,-1119.59 581,-1098.61 581,-1078.71"/>
<polygon fill="none" stroke="#63b8ff" points="581,-1078.71 577,-1072.71 581,-1066.71 585,-1072.71 581,-1078.71"/>
</a>
</g>
<text text-anchor="middle" x="616.62" y="-1112.5" font-family="Helvetica,sans-Serif" font-size="10.00" fill="grey"> &#45;graphicsDevice</text>
</g>
<!-- Node14 -->
<g id="Node000014" class="node">
<title>Node14</title>
<g id="a_Node000014"><a xlink:href="class_render_state.html" target="_top" xlink:title=" ">
<polygon fill="white" stroke="none" points="364,-814 0,-814 0,-586 364,-586 364,-814"/>
<text text-anchor="start" x="155" y="-800.5" font-family="Helvetica,sans-Serif" font-size="10.00">RenderState</text>
<text text-anchor="start" x="5.5" y="-784.5" font-family="Helvetica,sans-Serif" font-size="10.00">&#45;</text>
<text text-anchor="start" x="14" y="-784.5" font-family="Helvetica,sans-Serif" font-size="10.00">ID3D11RasterizerState * rasterizerState</text>
<text text-anchor="start" x="5.5" y="-768.5" font-family="Helvetica,sans-Serif" font-size="10.00">&#45;</text>
<text text-anchor="start" x="14" y="-768.5" font-family="Helvetica,sans-Serif" font-size="10.00">ID3D11BlendState * blendState</text>
<text text-anchor="start" x="5.5" y="-752.5" font-family="Helvetica,sans-Serif" font-size="10.00">&#45;</text>
<text text-anchor="start" x="14" y="-752.5" font-family="Helvetica,sans-Serif" font-size="10.00">ID3D11DepthStencilState * depthStencilState</text>
<text text-anchor="start" x="5.5" y="-736.5" font-family="Helvetica,sans-Serif" font-size="10.00">&#45;</text>
<text text-anchor="start" x="14" y="-736.5" font-family="Helvetica,sans-Serif" font-size="10.00">ID3D11SamplerState * samplerState</text>
<text text-anchor="start" x="5.5" y="-720.5" font-family="Helvetica,sans-Serif" font-size="10.00">&#45;</text>
<text text-anchor="start" x="14" y="-720.5" font-family="Helvetica,sans-Serif" font-size="10.00">float blendFactor</text>
<text text-anchor="start" x="4" y="-704.5" font-family="Helvetica,sans-Serif" font-size="10.00">+</text>
<text text-anchor="start" x="14" y="-704.5" font-family="Helvetica,sans-Serif" font-size="10.00">RenderState(GraphicsDevice *graphicsDevice)</text>
<text text-anchor="start" x="4" y="-688.5" font-family="Helvetica,sans-Serif" font-size="10.00">+</text>
<text text-anchor="start" x="14" y="-688.5" font-family="Helvetica,sans-Serif" font-size="10.00">~RenderState()</text>
<text text-anchor="start" x="4" y="-672.5" font-family="Helvetica,sans-Serif" font-size="10.00">+</text>
<text text-anchor="start" x="14" y="-672.5" font-family="Helvetica,sans-Serif" font-size="10.00">void CreateRasterizerState(const D3D11_RASTERIZER_DESC &amp;rasterDesc)</text>
<text text-anchor="start" x="4" y="-656.5" font-family="Helvetica,sans-Serif" font-size="10.00">+</text>
<text text-anchor="start" x="14" y="-656.5" font-family="Helvetica,sans-Serif" font-size="10.00">void CreateBlendState(const D3D11_BLEND_DESC &amp;blendDesc)</text>
<text text-anchor="start" x="4" y="-640.5" font-family="Helvetica,sans-Serif" font-size="10.00">+</text>
<text text-anchor="start" x="14" y="-640.5" font-family="Helvetica,sans-Serif" font-size="10.00">void CreateBlendFactor(float, float, float, float)</text>
<text text-anchor="start" x="4" y="-624.5" font-family="Helvetica,sans-Serif" font-size="10.00">+</text>
<text text-anchor="start" x="14" y="-624.5" font-family="Helvetica,sans-Serif" font-size="10.00">void CreateDepthStencilState(const D3D11_DEPTH_STENCIL_DESC &amp;dsDesc)</text>
<text text-anchor="start" x="4" y="-608.5" font-family="Helvetica,sans-Serif" font-size="10.00">+</text>
<text text-anchor="start" x="14" y="-608.5" font-family="Helvetica,sans-Serif" font-size="10.00">void CreateSamplerState(const D3D11_SAMPLER_DESC &amp;sampDesc)</text>
<text text-anchor="start" x="4" y="-592.5" font-family="Helvetica,sans-Serif" font-size="10.00">+</text>
<text text-anchor="start" x="14" y="-592.5" font-family="Helvetica,sans-Serif" font-size="10.00">void SetState()</text>
<polygon fill="#666666" stroke="#666666" points="0,-796 0,-796 364,-796 364,-796 0,-796"/>
<polygon fill="#666666" stroke="#666666" points="0,-716 0,-716 12,-716 12,-716 0,-716"/>
<polygon fill="#666666" stroke="#666666" points="12,-716 12,-716 364,-716 364,-716 12,-716"/>
<polygon fill="none" stroke="#666666" points="0,-586 0,-814 364,-814 364,-586 0,-586"/>
</a>
</g>
</g>
<!-- Node10&#45;&gt;Node14 -->
<g id="edge16_Node000014_Node000010" class="edge">
<title>Node10&#45;&gt;Node14</title>
<g id="a_edge16_Node000014_Node000010"><a xlink:title=" ">
<path fill="none" stroke="#63b8ff" d="M448.62,-1242.16C396.14,-1212.86 339.44,-1172.73 301.75,-1122 237.65,-1035.72 207.83,-916.26 193.97,-826.63"/>
<polygon fill="none" stroke="#63b8ff" points="193.98,-826.66 189.14,-821.32 192.21,-814.79 197.05,-820.14 193.98,-826.66"/>
</a>
</g>
<text text-anchor="middle" x="337.62" y="-1112.5" font-family="Helvetica,sans-Serif" font-size="10.00" fill="grey"> &#45;graphicsDevice</text>
</g>
<!-- Node11&#45;&gt;Node5 -->
<g id="edge11_Node000005_Node000011" class="edge">
<title>Node11&#45;&gt;Node5</title>
<g id="a_edge11_Node000005_Node000011"><a xlink:title=" ">
<path fill="none" stroke="#63b8ff" d="M576.67,-246.87C681.54,-213.2 818.06,-169.36 893.56,-145.12"/>
<polygon fill="none" stroke="#63b8ff" points="893.3,-145.21 897.79,-139.56 904.73,-141.54 900.24,-147.18 893.3,-145.21"/>
</a>
</g>
<text text-anchor="middle" x="833.75" y="-172.5" font-family="Helvetica,sans-Serif" font-size="10.00" fill="grey"> +material</text>
</g>
<!-- Node12 -->
<g id="Node000012" class="node">
<title>Node12</title>
<g id="a_Node000012"><a xlink:title=" ">
<polygon fill="white" stroke="none" points="618,-528 458,-528 458,-476 618,-476 618,-528"/>
<text text-anchor="start" x="462.62" y="-514.5" font-family="Helvetica,sans-Serif" font-size="10.00">std::shared_ptr&lt; ShaderProgram &gt;</text>
<text text-anchor="start" x="536.5" y="-498.5" font-family="Helvetica,sans-Serif" font-size="10.00"> </text>
<text text-anchor="start" x="465.5" y="-482.5" font-family="Helvetica,sans-Serif" font-size="10.00">+</text>
<text text-anchor="start" x="479" y="-482.5" font-family="Helvetica,sans-Serif" font-size="10.00">ShaderProgram * operator&#45;&gt;()</text>
<polygon fill="#666666" stroke="#666666" points="458,-510 458,-510 618,-510 618,-510 458,-510"/>
<polygon fill="#666666" stroke="#666666" points="458,-494 458,-494 618,-494 618,-494 458,-494"/>
<polygon fill="none" stroke="#666666" points="458,-476 458,-528 618,-528 618,-476 458,-476"/>
</a>
</g>
</g>
<!-- Node12&#45;&gt;Node11 -->
<g id="edge12_Node000011_Node000012" class="edge">
<title>Node12&#45;&gt;Node11</title>
<g id="a_edge12_Node000011_Node000012"><a xlink:title=" ">
<path fill="none" stroke="#63b8ff" d="M525.33,-476.15C515.37,-456.6 500.75,-427.92 486.08,-399.13"/>
<polygon fill="none" stroke="#63b8ff" points="486.1,-399.18 479.81,-395.65 480.65,-388.48 486.94,-392.01 486.1,-399.18"/>
</a>
</g>
<text text-anchor="middle" x="512.62" y="-408.5" font-family="Helvetica,sans-Serif" font-size="10.00" fill="grey"> &#45;shader</text>
</g>
<!-- Node13&#45;&gt;Node12 -->
<g id="edge13_Node000012_Node000013" class="edge">
<title>Node13&#45;&gt;Node12</title>
<g id="a_edge13_Node000012_Node000013"><a xlink:title=" ">
<path fill="none" stroke="#63b8ff" d="M571.35,-858.22C561.88,-757.34 547.95,-608.93 541.5,-540.32"/>
<polygon fill="none" stroke="#63b8ff" points="541.52,-540.54 536.98,-534.94 540.4,-528.59 544.95,-534.19 541.52,-540.54"/>
</a>
</g>
<text text-anchor="middle" x="578.12" y="-696.5" font-family="Helvetica,sans-Serif" font-size="10.00" fill="grey"> +ptr</text>
</g>
<!-- Node14&#45;&gt;Node11 -->
<g id="edge15_Node000011_Node000014" class="edge">
<title>Node14&#45;&gt;Node11</title>
<g id="a_edge15_Node000011_Node000014"><a xlink:title=" ">
<path fill="none" stroke="#63b8ff" d="M233.09,-586.29C256.38,-538.6 285.68,-483.27 316.75,-436 325.14,-423.24 334.48,-410.29 344.12,-397.68"/>
<polygon fill="none" stroke="#63b8ff" points="344,-397.84 344.52,-390.65 351.36,-388.36 350.84,-395.55 344,-397.84"/>
</a>
</g>
<text text-anchor="middle" x="345.12" y="-498.5" font-family="Helvetica,sans-Serif" font-size="10.00" fill="grey"> &#45;renderState</text>
</g>
</g>
</svg>

<g id="navigator" transform="translate(0 0)" fill="#404254">
  <rect fill="#f2f5e9" fill-opacity="0.5" stroke="#606060" stroke-width=".5" x="0" y="0" width="60" height="60"/>
  <use id="zoomplus" xlink:href="#zoomPlus" x="17" y="9" onmousedown="handleZoom(evt,'in')"/>
  <use id="zoomminus" xlink:href="#zoomMin" x="42" y="9" onmousedown="handleZoom(evt,'out')"/>
  <use id="reset" xlink:href="#resetDef" x="30" y="36" onmousedown="handleReset()"/>
   <use id="arrowup" xlink:href="#arrowUp" x="0" y="0" onmousedown="handlePan(0,-1)"/>
  <use id="arrowright" xlink:href="#arrowRight" x="0" y="0" onmousedown="handlePan(1,0)"/>
  <use id="arrowdown" xlink:href="#arrowDown" x="0" y="0" onmousedown="handlePan(0,1)"/>
  <use id="arrowleft" xlink:href="#arrowLeft" x="0" y="0" onmousedown="handlePan(-1,0)"/>
</g>
<svg viewBox="0 0 15 15" width="100%" height="30px" preserveAspectRatio="xMaxYMin meet">
 <g id="arrow_out" transform="scale(0.3 0.3)">
  <a xlink:href="class_scene__coll__graph_org.svg" target="_base">
   <rect id="button" ry="5" rx="5" y="6" x="6" height="38" width="38"
        fill="#f2f5e9" fill-opacity="0.5" stroke="#606060" stroke-width="1.0"/>
   <path id="arrow"
     d="M 11.500037,31.436501 C 11.940474,20.09759 22.043105,11.32322 32.158766,21.979434 L 37.068811,17.246167 C 37.068811,17.246167 37.088388,32 37.088388,32 L 22.160133,31.978069 C 22.160133,31.978069 26.997745,27.140456 26.997745,27.140456 C 18.528582,18.264221 13.291696,25.230495 11.500037,31.436501 z"
     style="fill:#404040;"/>
  </a>
 </g>
</svg>

<style type='text/css'>
<![CDATA[
[data-mouse-over-selected='false'] { opacity: 0.7; }
[data-mouse-over-selected='true']  { opacity: 1.0; }
]]>
</style>
<script type="application/ecmascript"><![CDATA[
document.addEventListener('DOMContentLoaded', (event) => {
  highlightEdges();
  highlightAdjacentNodes();
});
]]></script>
</svg>
