<?xml version="1.0" encoding="UTF-8" standalone="no"?>
<!DOCTYPE svg PUBLIC "-//W3C//DTD SVG 1.1//EN"
 "http://www.w3.org/Graphics/SVG/1.1/DTD/svg11.dtd">
<!-- Generated by graphviz version 9.0.0 (20230911.1827)
 -->
<!-- Title: GraphicsDevice::GetSwapChain Pages: 1 -->
<svg width="752pt" height="28pt"
 viewBox="0.00 0.00 751.75 28.00" xmlns="http://www.w3.org/2000/svg" xmlns:xlink="http://www.w3.org/1999/xlink">
<g id="graph0" class="graph" transform="scale(1 1) rotate(0) translate(4 24)">
<title>GraphicsDevice::GetSwapChain</title>
<!-- Node1 -->
<g id="Node000001" class="node">
<title>Node1</title>
<g id="a_Node000001"><a xlink:title=" ">
<polygon fill="#999999" stroke="#666666" points="743.75,-20 589.75,-20 589.75,0 743.75,0 743.75,-20"/>
<text text-anchor="middle" x="666.75" y="-6.5" font-family="Helvetica,sans-Serif" font-size="10.00">GraphicsDevice::GetSwapChain</text>
</a>
</g>
</g>
<!-- Node2 -->
<g id="Node000002" class="node">
<title>Node2</title>
<g id="a_Node000002"><a xlink:href="class_direct_x_manager.html#a939df5d867998c476f7c8fbacb39556d" target="_top" xlink:title=" ">
<polygon fill="white" stroke="#666666" points="553.75,-20 405,-20 405,0 553.75,0 553.75,-20"/>
<text text-anchor="middle" x="479.38" y="-6.5" font-family="Helvetica,sans-Serif" font-size="10.00">DirectXManager::RenderFrame</text>
</a>
</g>
</g>
<!-- Node1&#45;&gt;Node2 -->
<g id="edge1_Node000001_Node000002" class="edge">
<title>Node1&#45;&gt;Node2</title>
<g id="a_edge1_Node000001_Node000002"><a xlink:title=" ">
<path fill="none" stroke="#63b8ff" d="M577.98,-10C569.95,-10 561.87,-10 553.98,-10"/>
<polygon fill="#63b8ff" stroke="#63b8ff" points="577.77,-13.5 587.77,-10 577.77,-6.5 577.77,-13.5"/>
</a>
</g>
</g>
<!-- Node3 -->
<g id="Node000003" class="node">
<title>Node3</title>
<g id="a_Node000003"><a xlink:href="class_direct_x_manager.html#a2717dd089cad24c77c753ecc6bc139b2" target="_top" xlink:title=" ">
<polygon fill="white" stroke="#666666" points="369,-20 248,-20 248,0 369,0 369,-20"/>
<text text-anchor="middle" x="308.5" y="-6.5" font-family="Helvetica,sans-Serif" font-size="10.00">DirectXManager::Update</text>
</a>
</g>
</g>
<!-- Node2&#45;&gt;Node3 -->
<g id="edge2_Node000002_Node000003" class="edge">
<title>Node2&#45;&gt;Node3</title>
<g id="a_edge2_Node000002_Node000003"><a xlink:title=" ">
<path fill="none" stroke="#63b8ff" d="M393.38,-10C385.28,-10 377.2,-10 369.41,-10"/>
<polygon fill="#63b8ff" stroke="#63b8ff" points="393.28,-13.5 403.28,-10 393.28,-6.5 393.28,-13.5"/>
</a>
</g>
</g>
<!-- Node4 -->
<g id="Node000004" class="node">
<title>Node4</title>
<g id="a_Node000004"><a xlink:href="class_win32_application.html#a1d44083e5c10ac5faea4a4e0633898b6" target="_top" xlink:title=" ">
<polygon fill="white" stroke="#666666" points="212,-20 97,-20 97,0 212,0 212,-20"/>
<text text-anchor="middle" x="154.5" y="-6.5" font-family="Helvetica,sans-Serif" font-size="10.00">Win32Application::Run</text>
</a>
</g>
</g>
<!-- Node3&#45;&gt;Node4 -->
<g id="edge3_Node000003_Node000004" class="edge">
<title>Node3&#45;&gt;Node4</title>
<g id="a_edge3_Node000003_Node000004"><a xlink:title=" ">
<path fill="none" stroke="#63b8ff" d="M236.55,-10C228.48,-10 220.33,-10 212.48,-10"/>
<polygon fill="#63b8ff" stroke="#63b8ff" points="236.35,-13.5 246.35,-10 236.35,-6.5 236.35,-13.5"/>
</a>
</g>
</g>
<!-- Node5 -->
<g id="Node000005" class="node">
<title>Node5</title>
<g id="a_Node000005"><a xlink:href="_game_engine_8cpp.html#a1e683c5a19c00d05cd803e46b805e339" target="_top" xlink:title=" ">
<polygon fill="white" stroke="#666666" points="61,-20 0,-20 0,0 61,0 61,-20"/>
<text text-anchor="middle" x="30.5" y="-6.5" font-family="Helvetica,sans-Serif" font-size="10.00">wWinMain</text>
</a>
</g>
</g>
<!-- Node4&#45;&gt;Node5 -->
<g id="edge4_Node000004_Node000005" class="edge">
<title>Node4&#45;&gt;Node5</title>
<g id="a_edge4_Node000004_Node000005"><a xlink:title=" ">
<path fill="none" stroke="#63b8ff" d="M85.34,-10C76.99,-10 68.82,-10 61.47,-10"/>
<polygon fill="#63b8ff" stroke="#63b8ff" points="85.27,-13.5 95.27,-10 85.27,-6.5 85.27,-13.5"/>
</a>
</g>
</g>
</g>
</svg>
