<?xml version="1.0" encoding="UTF-8" standalone="no"?>
<!DOCTYPE svg PUBLIC "-//W3C//DTD SVG 1.1//EN"
 "http://www.w3.org/Graphics/SVG/1.1/DTD/svg11.dtd">
<!-- Generated by graphviz version 9.0.0 (20230911.1827)
 -->
<!-- Title: src/pch.cpp Pages: 1 -->
<svg width="2935pt" height="420pt"
 viewBox="0.00 0.00 2934.88 420.00" xmlns="http://www.w3.org/2000/svg" xmlns:xlink="http://www.w3.org/1999/xlink">
<g id="graph0" class="graph" transform="scale(1 1) rotate(0) translate(4 416)">
<title>src/pch.cpp</title>
<!-- Node1 -->
<g id="Node000001" class="node">
<title>Node1</title>
<g id="a_Node000001"><a xlink:title=" ">
<polygon fill="#999999" stroke="#666666" points="2001.38,-412 1934.38,-412 1934.38,-392 2001.38,-392 2001.38,-412"/>
<text text-anchor="middle" x="1967.88" y="-398.5" font-family="Helvetica,sans-Serif" font-size="10.00">src/pch.cpp</text>
</a>
</g>
</g>
<!-- Node2 -->
<g id="Node000002" class="node">
<title>Node2</title>
<g id="a_Node000002"><a xlink:href="pch_8h.html" target="_top" xlink:title=" ">
<polygon fill="white" stroke="#666666" points="1987.88,-356 1947.88,-356 1947.88,-336 1987.88,-336 1987.88,-356"/>
<text text-anchor="middle" x="1967.88" y="-342.5" font-family="Helvetica,sans-Serif" font-size="10.00">pch.h</text>
</a>
</g>
</g>
<!-- Node1&#45;&gt;Node2 -->
<g id="edge1_Node000001_Node000002" class="edge">
<title>Node1&#45;&gt;Node2</title>
<g id="a_edge1_Node000001_Node000002"><a xlink:title=" ">
<path fill="none" stroke="#63b8ff" d="M1967.88,-391.59C1967.88,-385.01 1967.88,-375.96 1967.88,-367.73"/>
<polygon fill="#63b8ff" stroke="#63b8ff" points="1971.38,-367.81 1967.88,-357.81 1964.38,-367.81 1971.38,-367.81"/>
</a>
</g>
</g>
<!-- Node3 -->
<g id="Node000003" class="node">
<title>Node3</title>
<g id="a_Node000003"><a xlink:href="_game_engine_8h.html" target="_top" xlink:title=" ">
<polygon fill="white" stroke="#666666" points="2008.12,-300 1927.62,-300 1927.62,-280 2008.12,-280 2008.12,-300"/>
<text text-anchor="middle" x="1967.88" y="-286.5" font-family="Helvetica,sans-Serif" font-size="10.00">GameEngine.h</text>
</a>
</g>
</g>
<!-- Node2&#45;&gt;Node3 -->
<g id="edge2_Node000002_Node000003" class="edge">
<title>Node2&#45;&gt;Node3</title>
<g id="a_edge2_Node000002_Node000003"><a xlink:title=" ">
<path fill="none" stroke="#63b8ff" d="M1967.88,-335.59C1967.88,-329.01 1967.88,-319.96 1967.88,-311.73"/>
<polygon fill="#63b8ff" stroke="#63b8ff" points="1971.38,-311.81 1967.88,-301.81 1964.38,-311.81 1971.38,-311.81"/>
</a>
</g>
</g>
<!-- Node4 -->
<g id="Node000004" class="node">
<title>Node4</title>
<g id="a_Node000004"><a xlink:title=" ">
<polygon fill="#e0e0e0" stroke="#999999" points="79.75,-244 0,-244 0,-224 79.75,-224 79.75,-244"/>
<text text-anchor="middle" x="39.88" y="-230.5" font-family="Helvetica,sans-Serif" font-size="10.00">SDKDDKVer.h</text>
</a>
</g>
</g>
<!-- Node3&#45;&gt;Node4 -->
<g id="edge3_Node000003_Node000004" class="edge">
<title>Node3&#45;&gt;Node4</title>
<g id="a_edge3_Node000003_Node000004"><a xlink:title=" ">
<path fill="none" stroke="#63b8ff" d="M1927.16,-288.92C1690.21,-288.32 486.13,-283.42 91.57,-244.21"/>
<polygon fill="#63b8ff" stroke="#63b8ff" points="91.95,-240.73 81.64,-243.19 91.23,-247.69 91.95,-240.73"/>
</a>
</g>
</g>
<!-- Node5 -->
<g id="Node000005" class="node">
<title>Node5</title>
<g id="a_Node000005"><a xlink:title=" ">
<polygon fill="#e0e0e0" stroke="#999999" points="158.38,-244 97.38,-244 97.38,-224 158.38,-224 158.38,-244"/>
<text text-anchor="middle" x="127.88" y="-230.5" font-family="Helvetica,sans-Serif" font-size="10.00">windows.h</text>
</a>
</g>
</g>
<!-- Node3&#45;&gt;Node5 -->
<g id="edge4_Node000003_Node000005" class="edge">
<title>Node3&#45;&gt;Node5</title>
<g id="a_edge4_Node000003_Node000005"><a xlink:title=" ">
<path fill="none" stroke="#63b8ff" d="M1927.34,-289.1C1696.71,-289.49 547.25,-289.19 170.06,-244.12"/>
<polygon fill="#63b8ff" stroke="#63b8ff" points="170.71,-240.68 160.36,-242.93 169.85,-247.62 170.71,-240.68"/>
</a>
</g>
</g>
<!-- Node6 -->
<g id="Node000006" class="node">
<title>Node6</title>
<g id="a_Node000006"><a xlink:title=" ">
<polygon fill="#e0e0e0" stroke="#999999" points="223.62,-244 176.12,-244 176.12,-224 223.62,-224 223.62,-244"/>
<text text-anchor="middle" x="199.88" y="-230.5" font-family="Helvetica,sans-Serif" font-size="10.00">stdlib.h</text>
</a>
</g>
</g>
<!-- Node3&#45;&gt;Node6 -->
<g id="edge5_Node000003_Node000006" class="edge">
<title>Node3&#45;&gt;Node6</title>
<g id="a_edge5_Node000003_Node000006"><a xlink:title=" ">
<path fill="none" stroke="#63b8ff" d="M1927.32,-289.27C1701.71,-290.57 598.64,-294.28 235.2,-243.89"/>
<polygon fill="#63b8ff" stroke="#63b8ff" points="235.78,-240.43 225.38,-242.48 234.78,-247.36 235.78,-240.43"/>
</a>
</g>
</g>
<!-- Node7 -->
<g id="Node000007" class="node">
<title>Node7</title>
<g id="a_Node000007"><a xlink:title=" ">
<polygon fill="#e0e0e0" stroke="#999999" points="294.25,-244 241.5,-244 241.5,-224 294.25,-224 294.25,-244"/>
<text text-anchor="middle" x="267.88" y="-230.5" font-family="Helvetica,sans-Serif" font-size="10.00">malloc.h</text>
</a>
</g>
</g>
<!-- Node3&#45;&gt;Node7 -->
<g id="edge6_Node000003_Node000007" class="edge">
<title>Node3&#45;&gt;Node7</title>
<g id="a_edge6_Node000003_Node000007"><a xlink:title=" ">
<path fill="none" stroke="#63b8ff" d="M1927.16,-289.14C1706.8,-289.7 654.25,-289.98 305.85,-244.05"/>
<polygon fill="#63b8ff" stroke="#63b8ff" points="306.39,-240.59 296,-242.71 305.44,-247.53 306.39,-240.59"/>
</a>
</g>
</g>
<!-- Node8 -->
<g id="Node000008" class="node">
<title>Node8</title>
<g id="a_Node000008"><a xlink:title=" ">
<polygon fill="#e0e0e0" stroke="#999999" points="371.62,-244 312.12,-244 312.12,-224 371.62,-224 371.62,-244"/>
<text text-anchor="middle" x="341.88" y="-230.5" font-family="Helvetica,sans-Serif" font-size="10.00">memory.h</text>
</a>
</g>
</g>
<!-- Node3&#45;&gt;Node8 -->
<g id="edge7_Node000003_Node000008" class="edge">
<title>Node3&#45;&gt;Node8</title>
<g id="a_edge7_Node000003_Node000008"><a xlink:title=" ">
<path fill="none" stroke="#63b8ff" d="M1927.33,-288.94C1713.65,-288.46 715.82,-284.14 383.08,-243.96"/>
<polygon fill="#63b8ff" stroke="#63b8ff" points="383.86,-240.53 373.5,-242.76 382.99,-247.47 383.86,-240.53"/>
</a>
</g>
</g>
<!-- Node9 -->
<g id="Node000009" class="node">
<title>Node9</title>
<g id="a_Node000009"><a xlink:title=" ">
<polygon fill="#e0e0e0" stroke="#999999" points="435.88,-244 389.88,-244 389.88,-224 435.88,-224 435.88,-244"/>
<text text-anchor="middle" x="412.88" y="-230.5" font-family="Helvetica,sans-Serif" font-size="10.00">tchar.h</text>
</a>
</g>
</g>
<!-- Node3&#45;&gt;Node9 -->
<g id="edge8_Node000003_Node000009" class="edge">
<title>Node3&#45;&gt;Node9</title>
<g id="a_edge8_Node000003_Node000009"><a xlink:title=" ">
<path fill="none" stroke="#63b8ff" d="M1927.21,-289.14C1718.48,-289.67 765.35,-289.57 447.2,-243.9"/>
<polygon fill="#63b8ff" stroke="#63b8ff" points="448.05,-240.49 437.65,-242.48 447.02,-247.41 448.05,-240.49"/>
</a>
</g>
</g>
<!-- Node10 -->
<g id="Node000010" class="node">
<title>Node10</title>
<g id="a_Node000010"><a xlink:title=" ">
<polygon fill="#e0e0e0" stroke="#999999" points="515.75,-244 454,-244 454,-224 515.75,-224 515.75,-244"/>
<text text-anchor="middle" x="484.88" y="-230.5" font-family="Helvetica,sans-Serif" font-size="10.00">resource.h</text>
</a>
</g>
</g>
<!-- Node3&#45;&gt;Node10 -->
<g id="edge9_Node000003_Node000010" class="edge">
<title>Node3&#45;&gt;Node10</title>
<g id="a_edge9_Node000003_Node000010"><a xlink:title=" ">
<path fill="none" stroke="#63b8ff" d="M1927.38,-288.78C1725.99,-287.51 830.24,-280.01 527.6,-244.05"/>
<polygon fill="#63b8ff" stroke="#63b8ff" points="528.07,-240.58 517.72,-242.83 527.22,-247.53 528.07,-240.58"/>
</a>
</g>
</g>
<!-- Node11 -->
<g id="Node000011" class="node">
<title>Node11</title>
<g id="a_Node000011"><a xlink:title=" ">
<polygon fill="#e0e0e0" stroke="#999999" points="579.5,-244 534.25,-244 534.25,-224 579.5,-224 579.5,-244"/>
<text text-anchor="middle" x="556.88" y="-230.5" font-family="Helvetica,sans-Serif" font-size="10.00">chrono</text>
</a>
</g>
</g>
<!-- Node3&#45;&gt;Node11 -->
<g id="edge10_Node000003_Node000011" class="edge">
<title>Node3&#45;&gt;Node11</title>
<g id="a_edge10_Node000003_Node000011"><a xlink:title=" ">
<path fill="none" stroke="#63b8ff" d="M1927.15,-289.04C1730.64,-289.04 878.57,-286.62 590.97,-244.06"/>
<polygon fill="#63b8ff" stroke="#63b8ff" points="591.66,-240.63 581.25,-242.56 590.6,-247.54 591.66,-240.63"/>
</a>
</g>
</g>
<!-- Node12 -->
<g id="Node000012" class="node">
<title>Node12</title>
<g id="a_Node000012"><a xlink:title=" ">
<polygon fill="#e0e0e0" stroke="#999999" points="638.62,-244 597.12,-244 597.12,-224 638.62,-224 638.62,-244"/>
<text text-anchor="middle" x="617.88" y="-230.5" font-family="Helvetica,sans-Serif" font-size="10.00">vector</text>
</a>
</g>
</g>
<!-- Node3&#45;&gt;Node12 -->
<g id="edge11_Node000003_Node000012" class="edge">
<title>Node3&#45;&gt;Node12</title>
<g id="a_edge11_Node000003_Node000012"><a xlink:title=" ">
<path fill="none" stroke="#63b8ff" d="M1927.32,-289.02C1736.44,-288.9 925.73,-286 650.17,-243.85"/>
<polygon fill="#63b8ff" stroke="#63b8ff" points="650.94,-240.43 640.52,-242.32 649.84,-247.35 650.94,-240.43"/>
</a>
</g>
</g>
<!-- Node13 -->
<g id="Node000013" class="node">
<title>Node13</title>
<g id="a_Node000013"><a xlink:title=" ">
<polygon fill="#e0e0e0" stroke="#999999" points="710.62,-244 657.12,-244 657.12,-224 710.62,-224 710.62,-244"/>
<text text-anchor="middle" x="683.88" y="-230.5" font-family="Helvetica,sans-Serif" font-size="10.00">iostream</text>
</a>
</g>
</g>
<!-- Node3&#45;&gt;Node13 -->
<g id="edge12_Node000003_Node000013" class="edge">
<title>Node3&#45;&gt;Node13</title>
<g id="a_edge12_Node000003_Node000013"><a xlink:title=" ">
<path fill="none" stroke="#63b8ff" d="M1927.41,-288.68C1743.42,-287.04 983.82,-278.38 722.22,-243.95"/>
<polygon fill="#63b8ff" stroke="#63b8ff" points="722.76,-240.49 712.38,-242.6 721.81,-247.43 722.76,-240.49"/>
</a>
</g>
</g>
<!-- Node14 -->
<g id="Node000014" class="node">
<title>Node14</title>
<g id="a_Node000014"><a xlink:title=" ">
<polygon fill="#e0e0e0" stroke="#999999" points="777,-244 728.75,-244 728.75,-224 777,-224 777,-244"/>
<text text-anchor="middle" x="752.88" y="-230.5" font-family="Helvetica,sans-Serif" font-size="10.00">fstream</text>
</a>
</g>
</g>
<!-- Node3&#45;&gt;Node14 -->
<g id="edge13_Node000003_Node000014" class="edge">
<title>Node3&#45;&gt;Node14</title>
<g id="a_edge13_Node000003_Node000014"><a xlink:title=" ">
<path fill="none" stroke="#63b8ff" d="M1927.14,-288.7C1748.78,-287.17 1035.03,-279.07 788.29,-243.95"/>
<polygon fill="#63b8ff" stroke="#63b8ff" points="789.15,-240.54 778.75,-242.54 788.12,-247.47 789.15,-240.54"/>
</a>
</g>
</g>
<!-- Node15 -->
<g id="Node000015" class="node">
<title>Node15</title>
<g id="a_Node000015"><a xlink:title=" ">
<polygon fill="#e0e0e0" stroke="#999999" points="855,-244 794.75,-244 794.75,-224 855,-224 855,-244"/>
<text text-anchor="middle" x="824.88" y="-230.5" font-family="Helvetica,sans-Serif" font-size="10.00">filesystem</text>
</a>
</g>
</g>
<!-- Node3&#45;&gt;Node15 -->
<g id="edge14_Node000003_Node000015" class="edge">
<title>Node3&#45;&gt;Node15</title>
<g id="a_edge14_Node000003_Node000015"><a xlink:title=" ">
<path fill="none" stroke="#63b8ff" d="M1927.27,-288.36C1756.83,-285.51 1097.88,-272.91 866.77,-244.09"/>
<polygon fill="#63b8ff" stroke="#63b8ff" points="867.3,-240.63 856.93,-242.81 866.4,-247.57 867.3,-240.63"/>
</a>
</g>
</g>
<!-- Node16 -->
<g id="Node000016" class="node">
<title>Node16</title>
<g id="a_Node000016"><a xlink:title=" ">
<polygon fill="#e0e0e0" stroke="#999999" points="924.5,-244 873.25,-244 873.25,-224 924.5,-224 924.5,-244"/>
<text text-anchor="middle" x="898.88" y="-230.5" font-family="Helvetica,sans-Serif" font-size="10.00">sstream</text>
</a>
</g>
</g>
<!-- Node3&#45;&gt;Node16 -->
<g id="edge15_Node000003_Node000016" class="edge">
<title>Node3&#45;&gt;Node16</title>
<g id="a_edge15_Node000003_Node000016"><a xlink:title=" ">
<path fill="none" stroke="#63b8ff" d="M1927.32,-288.36C1763.94,-285.62 1152.73,-273.69 936,-243.91"/>
<polygon fill="#63b8ff" stroke="#63b8ff" points="936.64,-240.47 926.24,-242.51 935.64,-247.39 936.64,-240.47"/>
</a>
</g>
</g>
<!-- Node17 -->
<g id="Node000017" class="node">
<title>Node17</title>
<g id="a_Node000017"><a xlink:title=" ">
<polygon fill="#e0e0e0" stroke="#999999" points="1025.25,-244 942.5,-244 942.5,-224 1025.25,-224 1025.25,-244"/>
<text text-anchor="middle" x="983.88" y="-230.5" font-family="Helvetica,sans-Serif" font-size="10.00">unordered_map</text>
</a>
</g>
</g>
<!-- Node3&#45;&gt;Node17 -->
<g id="edge16_Node000003_Node000017" class="edge">
<title>Node3&#45;&gt;Node17</title>
<g id="a_edge16_Node000003_Node000017"><a xlink:title=" ">
<path fill="none" stroke="#63b8ff" d="M1927.26,-288.87C1798.47,-288.08 1387.51,-282.58 1036.96,-244.07"/>
<polygon fill="#63b8ff" stroke="#63b8ff" points="1037.39,-240.59 1027.07,-242.97 1036.62,-247.55 1037.39,-240.59"/>
</a>
</g>
</g>
<!-- Node18 -->
<g id="Node000018" class="node">
<title>Node18</title>
<g id="a_Node000018"><a xlink:title=" ">
<polygon fill="#e0e0e0" stroke="#999999" points="1148.12,-244 1043.62,-244 1043.62,-224 1148.12,-224 1148.12,-244"/>
<text text-anchor="middle" x="1095.88" y="-230.5" font-family="Helvetica,sans-Serif" font-size="10.00">assimp/Importer.hpp</text>
</a>
</g>
</g>
<!-- Node3&#45;&gt;Node18 -->
<g id="edge17_Node000003_Node000018" class="edge">
<title>Node3&#45;&gt;Node18</title>
<g id="a_edge17_Node000003_Node000018"><a xlink:title=" ">
<path fill="none" stroke="#63b8ff" d="M1927.27,-288.05C1809.94,-285.04 1460.18,-274.12 1159.53,-244.18"/>
<polygon fill="#63b8ff" stroke="#63b8ff" points="1160.22,-240.73 1149.92,-243.21 1159.52,-247.7 1160.22,-240.73"/>
</a>
</g>
</g>
<!-- Node19 -->
<g id="Node000019" class="node">
<title>Node19</title>
<g id="a_Node000019"><a xlink:title=" ">
<polygon fill="#e0e0e0" stroke="#999999" points="1251.38,-244 1166.38,-244 1166.38,-224 1251.38,-224 1251.38,-244"/>
<text text-anchor="middle" x="1208.88" y="-230.5" font-family="Helvetica,sans-Serif" font-size="10.00">assimp/scene.h</text>
</a>
</g>
</g>
<!-- Node3&#45;&gt;Node19 -->
<g id="edge18_Node000003_Node000019" class="edge">
<title>Node3&#45;&gt;Node19</title>
<g id="a_edge18_Node000003_Node000019"><a xlink:title=" ">
<path fill="none" stroke="#63b8ff" d="M1927.48,-287.95C1820.71,-284.86 1522.03,-274.11 1262.81,-244.09"/>
<polygon fill="#63b8ff" stroke="#63b8ff" points="1263.51,-240.65 1253.17,-242.96 1262.7,-247.6 1263.51,-240.65"/>
</a>
</g>
</g>
<!-- Node20 -->
<g id="Node000020" class="node">
<title>Node20</title>
<g id="a_Node000020"><a xlink:title=" ">
<polygon fill="#e0e0e0" stroke="#999999" points="1381.88,-244 1269.88,-244 1269.88,-224 1381.88,-224 1381.88,-244"/>
<text text-anchor="middle" x="1325.88" y="-230.5" font-family="Helvetica,sans-Serif" font-size="10.00">assimp/postprocess.h</text>
</a>
</g>
</g>
<!-- Node3&#45;&gt;Node20 -->
<g id="edge19_Node000003_Node000020" class="edge">
<title>Node3&#45;&gt;Node20</title>
<g id="a_edge19_Node000003_Node000020"><a xlink:title=" ">
<path fill="none" stroke="#63b8ff" d="M1927.22,-286.67C1834.56,-281.17 1600.33,-266.26 1393.6,-244.23"/>
<polygon fill="#63b8ff" stroke="#63b8ff" points="1394.04,-240.76 1383.72,-243.17 1393.29,-247.72 1394.04,-240.76"/>
</a>
</g>
</g>
<!-- Node21 -->
<g id="Node000021" class="node">
<title>Node21</title>
<g id="a_Node000021"><a xlink:title=" ">
<polygon fill="#e0e0e0" stroke="#999999" points="1545.38,-244 1400.38,-244 1400.38,-224 1545.38,-224 1545.38,-244"/>
<text text-anchor="middle" x="1472.88" y="-230.5" font-family="Helvetica,sans-Serif" font-size="10.00">directxtk\WICTextureLoader.h</text>
</a>
</g>
</g>
<!-- Node3&#45;&gt;Node21 -->
<g id="edge20_Node000003_Node000021" class="edge">
<title>Node3&#45;&gt;Node21</title>
<g id="a_edge20_Node000003_Node000021"><a xlink:title=" ">
<path fill="none" stroke="#63b8ff" d="M1927.13,-284.57C1854.92,-276.72 1699.44,-259.8 1556.87,-244.22"/>
<polygon fill="#63b8ff" stroke="#63b8ff" points="1557.58,-240.77 1547.26,-243.17 1556.82,-247.73 1557.58,-240.77"/>
</a>
</g>
</g>
<!-- Node22 -->
<g id="Node000022" class="node">
<title>Node22</title>
<g id="a_Node000022"><a xlink:title=" ">
<polygon fill="#e0e0e0" stroke="#999999" points="1628.25,-244 1563.5,-244 1563.5,-224 1628.25,-224 1628.25,-244"/>
<text text-anchor="middle" x="1595.88" y="-230.5" font-family="Helvetica,sans-Serif" font-size="10.00">wincodec.h</text>
</a>
</g>
</g>
<!-- Node3&#45;&gt;Node22 -->
<g id="edge21_Node000003_Node000022" class="edge">
<title>Node3&#45;&gt;Node22</title>
<g id="a_edge21_Node000003_Node000022"><a xlink:title=" ">
<path fill="none" stroke="#63b8ff" d="M1927.2,-284.55C1866.67,-277.68 1749.09,-263.45 1639.74,-244.39"/>
<polygon fill="#63b8ff" stroke="#63b8ff" points="1640.45,-240.96 1629.99,-242.67 1639.23,-247.86 1640.45,-240.96"/>
</a>
</g>
</g>
<!-- Node23 -->
<g id="Node000023" class="node">
<title>Node23</title>
<g id="a_Node000023"><a xlink:title=" ">
<polygon fill="#e0e0e0" stroke="#999999" points="1703.88,-244 1645.88,-244 1645.88,-224 1703.88,-224 1703.88,-244"/>
<text text-anchor="middle" x="1674.88" y="-230.5" font-family="Helvetica,sans-Serif" font-size="10.00">lodepng.h</text>
</a>
</g>
</g>
<!-- Node3&#45;&gt;Node23 -->
<g id="edge22_Node000003_Node000023" class="edge">
<title>Node3&#45;&gt;Node23</title>
<g id="a_edge22_Node000003_Node000023"><a xlink:title=" ">
<path fill="none" stroke="#63b8ff" d="M1927.55,-282.62C1879.33,-274.84 1795.94,-260.86 1715.16,-244.38"/>
<polygon fill="#63b8ff" stroke="#63b8ff" points="1716.28,-241.04 1705.78,-242.45 1714.87,-247.89 1716.28,-241.04"/>
</a>
</g>
</g>
<!-- Node24 -->
<g id="Node000024" class="node">
<title>Node24</title>
<g id="a_Node000024"><a xlink:title=" ">
<polygon fill="#e0e0e0" stroke="#999999" points="1772.12,-244 1721.62,-244 1721.62,-224 1772.12,-224 1772.12,-244"/>
<text text-anchor="middle" x="1746.88" y="-230.5" font-family="Helvetica,sans-Serif" font-size="10.00">d3d11.h</text>
</a>
</g>
</g>
<!-- Node3&#45;&gt;Node24 -->
<g id="edge23_Node000003_Node000024" class="edge">
<title>Node3&#45;&gt;Node24</title>
<g id="a_edge23_Node000003_Node000024"><a xlink:title=" ">
<path fill="none" stroke="#63b8ff" d="M1927.92,-279.51C1892.59,-271.08 1839.34,-258.27 1783.65,-244.41"/>
<polygon fill="#63b8ff" stroke="#63b8ff" points="1784.5,-241.02 1773.95,-242 1782.8,-247.81 1784.5,-241.02"/>
</a>
</g>
</g>
<!-- Node25 -->
<g id="Node000025" class="node">
<title>Node25</title>
<g id="a_Node000025"><a xlink:title=" ">
<polygon fill="#e0e0e0" stroke="#999999" points="1867.25,-244 1790.5,-244 1790.5,-224 1867.25,-224 1867.25,-244"/>
<text text-anchor="middle" x="1828.88" y="-230.5" font-family="Helvetica,sans-Serif" font-size="10.00">DirectXMath.h</text>
</a>
</g>
</g>
<!-- Node3&#45;&gt;Node25 -->
<g id="edge24_Node000003_Node000025" class="edge">
<title>Node3&#45;&gt;Node25</title>
<g id="a_edge24_Node000003_Node000025"><a xlink:title=" ">
<path fill="none" stroke="#63b8ff" d="M1943.66,-279.59C1921.57,-271.01 1888.68,-258.23 1863.75,-248.55"/>
<polygon fill="#63b8ff" stroke="#63b8ff" points="1865.28,-245.39 1854.69,-245.03 1862.74,-251.91 1865.28,-245.39"/>
</a>
</g>
</g>
<!-- Node26 -->
<g id="Node000026" class="node">
<title>Node26</title>
<g id="a_Node000026"><a xlink:title=" ">
<polygon fill="#e0e0e0" stroke="#999999" points="1964.75,-244 1885,-244 1885,-224 1964.75,-224 1964.75,-244"/>
<text text-anchor="middle" x="1924.88" y="-230.5" font-family="Helvetica,sans-Serif" font-size="10.00">D3Dcompiler.h</text>
</a>
</g>
</g>
<!-- Node3&#45;&gt;Node26 -->
<g id="edge25_Node000003_Node000026" class="edge">
<title>Node3&#45;&gt;Node26</title>
<g id="a_edge25_Node000003_Node000026"><a xlink:title=" ">
<path fill="none" stroke="#63b8ff" d="M1960.38,-279.59C1954.59,-272.32 1946.39,-262.02 1939.33,-253.15"/>
<polygon fill="#63b8ff" stroke="#63b8ff" points="1942.19,-251.12 1933.22,-245.48 1936.71,-255.49 1942.19,-251.12"/>
</a>
</g>
</g>
<!-- Node27 -->
<g id="Node000027" class="node">
<title>Node27</title>
<g id="a_Node000027"><a xlink:title=" ">
<polygon fill="#e0e0e0" stroke="#999999" points="2038.75,-244 1983,-244 1983,-224 2038.75,-224 2038.75,-244"/>
<text text-anchor="middle" x="2010.88" y="-230.5" font-family="Helvetica,sans-Serif" font-size="10.00">d2d1_2.h</text>
</a>
</g>
</g>
<!-- Node3&#45;&gt;Node27 -->
<g id="edge26_Node000003_Node000027" class="edge">
<title>Node3&#45;&gt;Node27</title>
<g id="a_edge26_Node000003_Node000027"><a xlink:title=" ">
<path fill="none" stroke="#63b8ff" d="M1975.37,-279.59C1981.16,-272.32 1989.36,-262.02 1996.42,-253.15"/>
<polygon fill="#63b8ff" stroke="#63b8ff" points="1999.04,-255.49 2002.53,-245.48 1993.56,-251.12 1999.04,-255.49"/>
</a>
</g>
</g>
<!-- Node28 -->
<g id="Node000028" class="node">
<title>Node28</title>
<g id="a_Node000028"><a xlink:title=" ">
<polygon fill="#e0e0e0" stroke="#999999" points="2112.75,-244 2057,-244 2057,-224 2112.75,-224 2112.75,-244"/>
<text text-anchor="middle" x="2084.88" y="-230.5" font-family="Helvetica,sans-Serif" font-size="10.00">d2d1_1.h</text>
</a>
</g>
</g>
<!-- Node3&#45;&gt;Node28 -->
<g id="edge27_Node000003_Node000028" class="edge">
<title>Node3&#45;&gt;Node28</title>
<g id="a_edge27_Node000003_Node000028"><a xlink:title=" ">
<path fill="none" stroke="#63b8ff" d="M1988.25,-279.59C2006.43,-271.21 2033.3,-258.8 2054.09,-249.21"/>
<polygon fill="#63b8ff" stroke="#63b8ff" points="2055.35,-252.48 2062.96,-245.11 2052.42,-246.13 2055.35,-252.48"/>
</a>
</g>
</g>
<!-- Node29 -->
<g id="Node000029" class="node">
<title>Node29</title>
<g id="a_Node000029"><a xlink:title=" ">
<polygon fill="#e0e0e0" stroke="#999999" points="2176.5,-244 2131.25,-244 2131.25,-224 2176.5,-224 2176.5,-244"/>
<text text-anchor="middle" x="2153.88" y="-230.5" font-family="Helvetica,sans-Serif" font-size="10.00">d2d1.h</text>
</a>
</g>
</g>
<!-- Node3&#45;&gt;Node29 -->
<g id="edge28_Node000003_Node000029" class="edge">
<title>Node3&#45;&gt;Node29</title>
<g id="a_edge28_Node000003_Node000029"><a xlink:title=" ">
<path fill="none" stroke="#63b8ff" d="M2000.27,-279.59C2033.84,-269.85 2086.08,-254.68 2120.13,-244.8"/>
<polygon fill="#63b8ff" stroke="#63b8ff" points="2120.85,-248.23 2129.48,-242.08 2118.9,-241.51 2120.85,-248.23"/>
</a>
</g>
</g>
<!-- Node30 -->
<g id="Node000030" class="node">
<title>Node30</title>
<g id="a_Node000030"><a xlink:title=" ">
<polygon fill="#e0e0e0" stroke="#999999" points="2244.75,-244 2195,-244 2195,-224 2244.75,-224 2244.75,-244"/>
<text text-anchor="middle" x="2219.88" y="-230.5" font-family="Helvetica,sans-Serif" font-size="10.00">dwrite.h</text>
</a>
</g>
</g>
<!-- Node3&#45;&gt;Node30 -->
<g id="edge29_Node000003_Node000030" class="edge">
<title>Node3&#45;&gt;Node30</title>
<g id="a_edge29_Node000003_Node000030"><a xlink:title=" ">
<path fill="none" stroke="#63b8ff" d="M2008.6,-281.29C2050.19,-273.26 2116.87,-259.97 2183.53,-244.45"/>
<polygon fill="#63b8ff" stroke="#63b8ff" points="2184.25,-247.88 2193.19,-242.19 2182.65,-241.06 2184.25,-247.88"/>
</a>
</g>
</g>
<!-- Node31 -->
<g id="Node000031" class="node">
<title>Node31</title>
<g id="a_Node000031"><a xlink:href="_win32_application_8h.html" target="_top" xlink:title=" ">
<polygon fill="white" stroke="#666666" points="2586.88,-244 2486.88,-244 2486.88,-224 2586.88,-224 2586.88,-244"/>
<text text-anchor="middle" x="2536.88" y="-230.5" font-family="Helvetica,sans-Serif" font-size="10.00">Win32Application.h</text>
</a>
</g>
</g>
<!-- Node3&#45;&gt;Node31 -->
<g id="edge30_Node000003_Node000031" class="edge">
<title>Node3&#45;&gt;Node31</title>
<g id="a_edge30_Node000003_Node000031"><a xlink:title=" ">
<path fill="none" stroke="#63b8ff" d="M2008.44,-285.71C2093.26,-279.15 2294.88,-263.4 2463.88,-244 2467.5,-243.58 2471.23,-243.13 2475.01,-242.65"/>
<polygon fill="#63b8ff" stroke="#63b8ff" points="2475.44,-246.12 2484.9,-241.36 2474.54,-239.18 2475.44,-246.12"/>
</a>
</g>
</g>
<!-- Node32 -->
<g id="Node000032" class="node">
<title>Node32</title>
<g id="a_Node000032"><a xlink:href="_direct_x_manager_8h.html" target="_top" xlink:title=" ">
<polygon fill="white" stroke="#666666" points="2644.12,-188 2551.62,-188 2551.62,-168 2644.12,-168 2644.12,-188"/>
<text text-anchor="middle" x="2597.88" y="-174.5" font-family="Helvetica,sans-Serif" font-size="10.00">DirectXManager.h</text>
</a>
</g>
</g>
<!-- Node3&#45;&gt;Node32 -->
<g id="edge54_Node000003_Node000032" class="edge">
<title>Node3&#45;&gt;Node32</title>
<g id="a_edge54_Node000003_Node000032"><a xlink:title=" ">
<path fill="none" stroke="#63b8ff" d="M2008.31,-289.17C2139.54,-289.25 2546.61,-285.94 2586.88,-244 2597.88,-232.54 2597.39,-214.03 2596.21,-199.69"/>
<polygon fill="#63b8ff" stroke="#63b8ff" points="2599.72,-199.62 2595.4,-189.95 2592.74,-200.2 2599.72,-199.62"/>
</a>
</g>
</g>
<!-- Node33 -->
<g id="Node000033" class="node">
<title>Node33</title>
<g id="a_Node000033"><a xlink:href="_camera_8h.html" target="_top" xlink:title=" ">
<polygon fill="white" stroke="#666666" points="2427.88,-132 2369.88,-132 2369.88,-112 2427.88,-112 2427.88,-132"/>
<text text-anchor="middle" x="2398.88" y="-118.5" font-family="Helvetica,sans-Serif" font-size="10.00">Camera.h</text>
</a>
</g>
</g>
<!-- Node3&#45;&gt;Node33 -->
<g id="edge55_Node000003_Node000033" class="edge">
<title>Node3&#45;&gt;Node33</title>
<g id="a_edge55_Node000003_Node000033"><a xlink:title=" ">
<path fill="none" stroke="#63b8ff" d="M2008.33,-289.8C2096.14,-290.48 2299.85,-286.96 2351.88,-244 2381.91,-219.2 2388.58,-170.89 2392.81,-143.41"/>
<polygon fill="#63b8ff" stroke="#63b8ff" points="2396.2,-144.34 2394.4,-133.9 2389.29,-143.19 2396.2,-144.34"/>
</a>
</g>
</g>
<!-- Node34 -->
<g id="Node000034" class="node">
<title>Node34</title>
<g id="a_Node000034"><a xlink:href="_graphics_device_8h.html" target="_top" xlink:title=" ">
<polygon fill="white" stroke="#666666" points="2460.75,-76 2369,-76 2369,-56 2460.75,-56 2460.75,-76"/>
<text text-anchor="middle" x="2414.88" y="-62.5" font-family="Helvetica,sans-Serif" font-size="10.00">GraphicsDevice.h</text>
</a>
</g>
</g>
<!-- Node3&#45;&gt;Node34 -->
<g id="edge56_Node000003_Node000034" class="edge">
<title>Node3&#45;&gt;Node34</title>
<g id="a_edge56_Node000003_Node000034"><a xlink:title=" ">
<path fill="none" stroke="#63b8ff" d="M2008.39,-288.37C2085.95,-286.38 2251.1,-278.12 2295.88,-244 2346.56,-205.37 2313.89,-163.17 2351.88,-112 2360.26,-100.71 2372.04,-90.46 2383.28,-82.61"/>
<polygon fill="#63b8ff" stroke="#63b8ff" points="2385.16,-85.56 2391.65,-77.18 2381.35,-79.69 2385.16,-85.56"/>
</a>
</g>
</g>
<!-- Node35 -->
<g id="Node000035" class="node">
<title>Node35</title>
<g id="a_Node000035"><a xlink:href="_mesh_8h.html" target="_top" xlink:title=" ">
<polygon fill="white" stroke="#666666" points="2494,-132 2445.75,-132 2445.75,-112 2494,-112 2494,-132"/>
<text text-anchor="middle" x="2469.88" y="-118.5" font-family="Helvetica,sans-Serif" font-size="10.00">Mesh.h</text>
</a>
</g>
</g>
<!-- Node3&#45;&gt;Node35 -->
<g id="edge58_Node000003_Node000035" class="edge">
<title>Node3&#45;&gt;Node35</title>
<g id="a_edge58_Node000003_Node000035"><a xlink:title=" ">
<path fill="none" stroke="#63b8ff" d="M2008.51,-289.04C2100.41,-288.35 2320.4,-282.48 2382.88,-244 2421.22,-220.39 2444.23,-170.07 2457.63,-142.34"/>
<polygon fill="#63b8ff" stroke="#63b8ff" points="2460.63,-144.16 2461.96,-133.65 2454.37,-141.04 2460.63,-144.16"/>
</a>
</g>
</g>
<!-- Node36 -->
<g id="Node000036" class="node">
<title>Node36</title>
<g id="a_Node000036"><a xlink:href="_render_state_8h.html" target="_top" xlink:title=" ">
<polygon fill="white" stroke="#666666" points="2458,-20 2379.75,-20 2379.75,0 2458,0 2458,-20"/>
<text text-anchor="middle" x="2418.88" y="-6.5" font-family="Helvetica,sans-Serif" font-size="10.00">RenderState.h</text>
</a>
</g>
</g>
<!-- Node3&#45;&gt;Node36 -->
<g id="edge60_Node000003_Node000036" class="edge">
<title>Node3&#45;&gt;Node36</title>
<g id="a_edge60_Node000003_Node000036"><a xlink:title=" ">
<path fill="none" stroke="#63b8ff" d="M2008.62,-286.56C2076.11,-282.05 2206.94,-270.33 2244.88,-244 2323.68,-189.31 2287.89,-128.35 2350.88,-56 2360.82,-44.58 2374.07,-34.15 2386.37,-26.22"/>
<polygon fill="#63b8ff" stroke="#63b8ff" points="2387.91,-29.38 2394.65,-21.21 2384.29,-23.39 2387.91,-29.38"/>
</a>
</g>
</g>
<!-- Node37 -->
<g id="Node000037" class="node">
<title>Node37</title>
<g id="a_Node000037"><a xlink:href="_shader_program_8h.html" target="_top" xlink:title=" ">
<polygon fill="white" stroke="#666666" points="2905.75,-20 2814,-20 2814,0 2905.75,0 2905.75,-20"/>
<text text-anchor="middle" x="2859.88" y="-6.5" font-family="Helvetica,sans-Serif" font-size="10.00">ShaderProgram.h</text>
</a>
</g>
</g>
<!-- Node3&#45;&gt;Node37 -->
<g id="edge61_Node000003_Node000037" class="edge">
<title>Node3&#45;&gt;Node37</title>
<g id="a_edge61_Node000003_Node000037"><a xlink:title=" ">
<path fill="none" stroke="#63b8ff" d="M2008.42,-288.6C2188.82,-286.32 2908.88,-271.51 2908.88,-179 2908.88,-179 2908.88,-179 2908.88,-121 2908.88,-85.54 2885,-50.3 2870.26,-29.6"/>
<polygon fill="#63b8ff" stroke="#63b8ff" points="2873.26,-27.77 2864.61,-21.65 2867.55,-31.83 2873.26,-27.77"/>
</a>
</g>
</g>
<!-- Node39 -->
<g id="Node000039" class="node">
<title>Node39</title>
<g id="a_Node000039"><a xlink:href="_material_8h.html" target="_top" xlink:title=" ">
<polygon fill="white" stroke="#666666" points="2775.25,-76 2716.5,-76 2716.5,-56 2775.25,-56 2775.25,-76"/>
<text text-anchor="middle" x="2745.88" y="-62.5" font-family="Helvetica,sans-Serif" font-size="10.00">Material.h</text>
</a>
</g>
</g>
<!-- Node3&#45;&gt;Node39 -->
<g id="edge57_Node000003_Node000039" class="edge">
<title>Node3&#45;&gt;Node39</title>
<g id="a_edge57_Node000003_Node000039"><a xlink:title=" ">
<path fill="none" stroke="#63b8ff" d="M2008.53,-289.59C2140.42,-290.87 2554.26,-290.68 2678.88,-244 2755.46,-215.31 2788.7,-205.35 2824.88,-132 2836.54,-108.34 2809.66,-91.23 2784.05,-80.51"/>
<polygon fill="#63b8ff" stroke="#63b8ff" points="2785.64,-77.38 2775.05,-77 2783.09,-83.9 2785.64,-77.38"/>
</a>
</g>
</g>
<!-- Node40 -->
<g id="Node000040" class="node">
<title>Node40</title>
<g id="a_Node000040"><a xlink:href="_model_8h.html" target="_top" xlink:title=" ">
<polygon fill="white" stroke="#666666" points="2714.12,-132 2663.62,-132 2663.62,-112 2714.12,-112 2714.12,-132"/>
<text text-anchor="middle" x="2688.88" y="-118.5" font-family="Helvetica,sans-Serif" font-size="10.00">Model.h</text>
</a>
</g>
</g>
<!-- Node3&#45;&gt;Node40 -->
<g id="edge59_Node000003_Node000040" class="edge">
<title>Node3&#45;&gt;Node40</title>
<g id="a_edge59_Node000003_Node000040"><a xlink:title=" ">
<path fill="none" stroke="#63b8ff" d="M2008.57,-288.42C2142.6,-286.25 2563.74,-277 2614.88,-244 2650.81,-220.8 2668.3,-170.71 2678.65,-142.8"/>
<polygon fill="#63b8ff" stroke="#63b8ff" points="2681.8,-144.34 2682.13,-133.75 2675.27,-141.82 2681.8,-144.34"/>
</a>
</g>
</g>
<!-- Node31&#45;&gt;Node3 -->
<g id="edge31_Node000031_Node000003" class="edge">
<title>Node31&#45;&gt;Node3</title>
<g id="a_edge31_Node000031_Node000003"><a xlink:title=" ">
<path fill="none" stroke="#63b8ff" d="M2486.61,-243.44C2485.02,-243.63 2483.44,-243.82 2481.88,-244 2313.53,-263.33 2112.79,-279.03 2019.75,-285.64"/>
<polygon fill="#63b8ff" stroke="#63b8ff" points="2019.66,-282.13 2009.93,-286.33 2020.15,-289.12 2019.66,-282.13"/>
</a>
</g>
</g>
<!-- Node31&#45;&gt;Node32 -->
<g id="edge32_Node000031_Node000032" class="edge">
<title>Node31&#45;&gt;Node32</title>
<g id="a_edge32_Node000031_Node000032"><a xlink:title=" ">
<path fill="none" stroke="#63b8ff" d="M2547.5,-223.59C2556.16,-215.93 2568.61,-204.91 2578.96,-195.75"/>
<polygon fill="#63b8ff" stroke="#63b8ff" points="2581.07,-198.55 2586.24,-189.3 2576.43,-193.31 2581.07,-198.55"/>
</a>
</g>
</g>
<!-- Node32&#45;&gt;Node3 -->
<g id="edge33_Node000032_Node000003" class="edge">
<title>Node32&#45;&gt;Node3</title>
<g id="a_edge33_Node000032_Node000003"><a xlink:title=" ">
<path fill="none" stroke="#63b8ff" d="M2606.8,-188.44C2614.11,-202.58 2619.11,-229.18 2604.88,-244 2564.94,-285.6 2164.08,-289.19 2019.45,-289.17"/>
<polygon fill="#63b8ff" stroke="#63b8ff" points="2019.8,-285.67 2009.79,-289.17 2019.79,-292.67 2019.8,-285.67"/>
</a>
</g>
</g>
<!-- Node32&#45;&gt;Node33 -->
<g id="edge34_Node000032_Node000033" class="edge">
<title>Node32&#45;&gt;Node33</title>
<g id="a_edge34_Node000032_Node000033"><a xlink:title=" ">
<path fill="none" stroke="#63b8ff" d="M2563.21,-167.59C2528.6,-158.2 2475.44,-143.78 2439.01,-133.89"/>
<polygon fill="#63b8ff" stroke="#63b8ff" points="2440.31,-130.62 2429.75,-131.38 2438.48,-137.37 2440.31,-130.62"/>
</a>
</g>
</g>
<!-- Node32&#45;&gt;Node34 -->
<g id="edge36_Node000032_Node000034" class="edge">
<title>Node32&#45;&gt;Node34</title>
<g id="a_edge36_Node000032_Node000034"><a xlink:title=" ">
<path fill="none" stroke="#63b8ff" d="M2585.31,-167.64C2567.44,-154.5 2533.45,-130.18 2502.88,-112 2484.19,-100.89 2462.44,-89.75 2445.24,-81.34"/>
<polygon fill="#63b8ff" stroke="#63b8ff" points="2447.08,-78.34 2436.55,-77.14 2444.03,-84.64 2447.08,-78.34"/>
</a>
</g>
</g>
<!-- Node32&#45;&gt;Node35 -->
<g id="edge38_Node000032_Node000035" class="edge">
<title>Node32&#45;&gt;Node35</title>
<g id="a_edge38_Node000032_Node000035"><a xlink:title=" ">
<path fill="none" stroke="#63b8ff" d="M2575.58,-167.59C2555.51,-159.13 2525.76,-146.58 2502.92,-136.94"/>
<polygon fill="#63b8ff" stroke="#63b8ff" points="2504.31,-133.73 2493.74,-133.07 2501.59,-140.18 2504.31,-133.73"/>
</a>
</g>
</g>
<!-- Node32&#45;&gt;Node36 -->
<g id="edge41_Node000032_Node000036" class="edge">
<title>Node32&#45;&gt;Node36</title>
<g id="a_edge41_Node000032_Node000036"><a xlink:title=" ">
<path fill="none" stroke="#63b8ff" d="M2588.6,-167.61C2575.94,-154.86 2552.47,-131.42 2531.88,-112 2504.86,-86.52 2497.57,-80.73 2469.88,-56 2459.33,-46.58 2447.49,-36.13 2437.88,-27.67"/>
<polygon fill="#63b8ff" stroke="#63b8ff" points="2440.41,-25.24 2430.59,-21.27 2435.79,-30.5 2440.41,-25.24"/>
</a>
</g>
</g>
<!-- Node32&#45;&gt;Node37 -->
<g id="edge43_Node000032_Node000037" class="edge">
<title>Node32&#45;&gt;Node37</title>
<g id="a_edge43_Node000032_Node000037"><a xlink:title=" ">
<path fill="none" stroke="#63b8ff" d="M2600.97,-167.8C2605.79,-154.43 2616.1,-129.34 2630.88,-112 2674.86,-60.4 2750.31,-34.18 2802.53,-21.57"/>
<polygon fill="#63b8ff" stroke="#63b8ff" points="2803.19,-25.01 2812.15,-19.35 2801.62,-18.19 2803.19,-25.01"/>
</a>
</g>
</g>
<!-- Node38 -->
<g id="Node000038" class="node">
<title>Node38</title>
<g id="a_Node000038"><a xlink:href="_shader_manager_8h.html" target="_top" xlink:title=" ">
<polygon fill="white" stroke="#666666" points="2825.12,-132 2732.62,-132 2732.62,-112 2825.12,-112 2825.12,-132"/>
<text text-anchor="middle" x="2778.88" y="-118.5" font-family="Helvetica,sans-Serif" font-size="10.00">ShaderManager.h</text>
</a>
</g>
</g>
<!-- Node32&#45;&gt;Node38 -->
<g id="edge45_Node000032_Node000038" class="edge">
<title>Node32&#45;&gt;Node38</title>
<g id="a_edge45_Node000032_Node000038"><a xlink:title=" ">
<path fill="none" stroke="#63b8ff" d="M2629.4,-167.59C2659.07,-158.74 2703.71,-145.43 2736.48,-135.65"/>
<polygon fill="#63b8ff" stroke="#63b8ff" points="2737.07,-139.13 2745.65,-132.91 2735.07,-132.42 2737.07,-139.13"/>
</a>
</g>
</g>
<!-- Node32&#45;&gt;Node39 -->
<g id="edge47_Node000032_Node000039" class="edge">
<title>Node32&#45;&gt;Node39</title>
<g id="a_edge47_Node000032_Node000039"><a xlink:title=" ">
<path fill="none" stroke="#63b8ff" d="M2604.3,-167.57C2613.97,-153.91 2633.45,-128.46 2654.88,-112 2671.54,-99.2 2692.43,-88.56 2709.98,-80.84"/>
<polygon fill="#63b8ff" stroke="#63b8ff" points="2711.18,-84.14 2719.02,-77.02 2708.45,-77.69 2711.18,-84.14"/>
</a>
</g>
</g>
<!-- Node32&#45;&gt;Node40 -->
<g id="edge51_Node000032_Node000040" class="edge">
<title>Node32&#45;&gt;Node40</title>
<g id="a_edge51_Node000032_Node000040"><a xlink:title=" ">
<path fill="none" stroke="#63b8ff" d="M2613.73,-167.59C2627.34,-159.51 2647.24,-147.71 2663.14,-138.27"/>
<polygon fill="#63b8ff" stroke="#63b8ff" points="2664.78,-141.37 2671.6,-133.25 2661.21,-135.35 2664.78,-141.37"/>
</a>
</g>
</g>
<!-- Node33&#45;&gt;Node3 -->
<g id="edge35_Node000033_Node000003" class="edge">
<title>Node33&#45;&gt;Node3</title>
<g id="a_edge35_Node000033_Node000003"><a xlink:title=" ">
<path fill="none" stroke="#63b8ff" d="M2403.54,-132.41C2408.08,-155.54 2404.51,-215.4 2369.88,-244 2318.1,-286.75 2116.11,-290.45 2019.59,-289.81"/>
<polygon fill="#63b8ff" stroke="#63b8ff" points="2019.91,-286.31 2009.88,-289.73 2019.84,-293.31 2019.91,-286.31"/>
</a>
</g>
</g>
<!-- Node34&#45;&gt;Node3 -->
<g id="edge37_Node000034_Node000003" class="edge">
<title>Node34&#45;&gt;Node3</title>
<g id="a_edge37_Node000034_Node000003"><a xlink:title=" ">
<path fill="none" stroke="#63b8ff" d="M2407.57,-76.2C2397.45,-84.38 2380.79,-97.3 2369.88,-112 2331.89,-163.17 2364.56,-205.37 2313.88,-244 2269.26,-278 2105.14,-286.32 2019.87,-288.35"/>
<polygon fill="#63b8ff" stroke="#63b8ff" points="2019.82,-284.85 2009.89,-288.56 2019.97,-291.85 2019.82,-284.85"/>
</a>
</g>
</g>
<!-- Node35&#45;&gt;Node3 -->
<g id="edge39_Node000035_Node000003" class="edge">
<title>Node35&#45;&gt;Node3</title>
<g id="a_edge39_Node000035_Node000003"><a xlink:title=" ">
<path fill="none" stroke="#63b8ff" d="M2471.39,-132.29C2468.28,-155.7 2444.5,-217.13 2400.88,-244 2338.73,-282.27 2120.75,-288.28 2019.77,-289.03"/>
<polygon fill="#63b8ff" stroke="#63b8ff" points="2019.83,-285.53 2009.85,-289.08 2019.87,-292.53 2019.83,-285.53"/>
</a>
</g>
</g>
<!-- Node35&#45;&gt;Node34 -->
<g id="edge40_Node000035_Node000034" class="edge">
<title>Node35&#45;&gt;Node34</title>
<g id="a_edge40_Node000035_Node000034"><a xlink:title=" ">
<path fill="none" stroke="#63b8ff" d="M2460.29,-111.59C2452.64,-104.08 2441.72,-93.35 2432.5,-84.3"/>
<polygon fill="#63b8ff" stroke="#63b8ff" points="2435.01,-81.87 2425.43,-77.36 2430.11,-86.86 2435.01,-81.87"/>
</a>
</g>
</g>
<!-- Node36&#45;&gt;Node3 -->
<g id="edge42_Node000036_Node000003" class="edge">
<title>Node36&#45;&gt;Node3</title>
<g id="a_edge42_Node000036_Node000003"><a xlink:title=" ">
<path fill="none" stroke="#63b8ff" d="M2410.62,-20.26C2399.64,-28.48 2381.56,-41.43 2368.88,-56 2305.89,-128.35 2341.68,-189.31 2262.88,-244 2224.9,-270.35 2093.88,-282.07 2019.77,-286.57"/>
<polygon fill="#63b8ff" stroke="#63b8ff" points="2019.68,-283.07 2009.9,-287.15 2020.08,-290.06 2019.68,-283.07"/>
</a>
</g>
</g>
<!-- Node37&#45;&gt;Node3 -->
<g id="edge44_Node000037_Node000003" class="edge">
<title>Node37&#45;&gt;Node3</title>
<g id="a_edge44_Node000037_Node000003"><a xlink:title=" ">
<path fill="none" stroke="#63b8ff" d="M2874.14,-20.42C2894.25,-38.4 2926.88,-79.55 2926.88,-121 2926.88,-179 2926.88,-179 2926.88,-179 2926.88,-270.67 2219.84,-286.04 2019.91,-288.53"/>
<polygon fill="#63b8ff" stroke="#63b8ff" points="2020.04,-285.03 2010.09,-288.65 2020.13,-292.03 2020.04,-285.03"/>
</a>
</g>
</g>
<!-- Node38&#45;&gt;Node3 -->
<g id="edge46_Node000038_Node000003" class="edge">
<title>Node38&#45;&gt;Node3</title>
<g id="a_edge46_Node000038_Node000003"><a xlink:title=" ">
<path fill="none" stroke="#63b8ff" d="M2773.21,-132.15C2758,-155.79 2713.62,-218.75 2657.88,-244 2600.26,-270.1 2169.84,-283.72 2019.51,-287.73"/>
<polygon fill="#63b8ff" stroke="#63b8ff" points="2019.76,-284.22 2009.85,-287.98 2019.94,-291.22 2019.76,-284.22"/>
</a>
</g>
</g>
<!-- Node39&#45;&gt;Node3 -->
<g id="edge48_Node000039_Node000003" class="edge">
<title>Node39&#45;&gt;Node3</title>
<g id="a_edge48_Node000039_Node000003"><a xlink:title=" ">
<path fill="none" stroke="#63b8ff" d="M2775.54,-72.98C2809.44,-82.1 2857.83,-101.68 2842.88,-132 2806.7,-205.35 2773.46,-215.31 2696.88,-244 2573.26,-290.3 2165.06,-290.86 2019.72,-289.62"/>
<polygon fill="#63b8ff" stroke="#63b8ff" points="2020.04,-286.12 2010.01,-289.53 2019.98,-293.12 2020.04,-286.12"/>
</a>
</g>
</g>
<!-- Node39&#45;&gt;Node36 -->
<g id="edge50_Node000039_Node000036" class="edge">
<title>Node39&#45;&gt;Node36</title>
<g id="a_edge50_Node000039_Node000036"><a xlink:title=" ">
<path fill="none" stroke="#63b8ff" d="M2716.28,-60.11C2660.36,-50.88 2538.6,-30.77 2469.47,-19.35"/>
<polygon fill="#63b8ff" stroke="#63b8ff" points="2470.36,-15.96 2459.92,-17.78 2469.22,-22.86 2470.36,-15.96"/>
</a>
</g>
</g>
<!-- Node39&#45;&gt;Node37 -->
<g id="edge49_Node000039_Node000037" class="edge">
<title>Node39&#45;&gt;Node37</title>
<g id="a_edge49_Node000039_Node000037"><a xlink:title=" ">
<path fill="none" stroke="#63b8ff" d="M2765.73,-55.59C2783.36,-47.24 2809.38,-34.92 2829.6,-25.34"/>
<polygon fill="#63b8ff" stroke="#63b8ff" points="2830.96,-28.57 2838.49,-21.13 2827.96,-22.25 2830.96,-28.57"/>
</a>
</g>
</g>
<!-- Node40&#45;&gt;Node3 -->
<g id="edge52_Node000040_Node000003" class="edge">
<title>Node40&#45;&gt;Node3</title>
<g id="a_edge52_Node000040_Node000003"><a xlink:title=" ">
<path fill="none" stroke="#63b8ff" d="M2691.43,-132.34C2690.92,-155.85 2673.95,-217.49 2632.88,-244 2582.16,-276.74 2167.4,-286.1 2019.73,-288.36"/>
<polygon fill="#63b8ff" stroke="#63b8ff" points="2019.79,-284.86 2009.85,-288.51 2019.9,-291.86 2019.79,-284.86"/>
</a>
</g>
</g>
<!-- Node40&#45;&gt;Node39 -->
<g id="edge53_Node000040_Node000039" class="edge">
<title>Node40&#45;&gt;Node39</title>
<g id="a_edge53_Node000040_Node000039"><a xlink:title=" ">
<path fill="none" stroke="#63b8ff" d="M2698.8,-111.59C2706.81,-104.01 2718.29,-93.13 2727.91,-84.02"/>
<polygon fill="#63b8ff" stroke="#63b8ff" points="2730.11,-86.76 2734.96,-77.34 2725.29,-81.68 2730.11,-86.76"/>
</a>
</g>
</g>
</g>
</svg>
