<?xml version="1.0" encoding="UTF-8" standalone="no"?>
<!DOCTYPE svg PUBLIC "-//W3C//DTD SVG 1.1//EN"
 "http://www.w3.org/Graphics/SVG/1.1/DTD/svg11.dtd">
<!-- Generated by graphviz version 9.0.0 (20230911.1827)
 -->
<!-- Title: src/pch.h Pages: 1 -->
<svg width="1509pt" height="84pt"
 viewBox="0.00 0.00 1509.00 84.00" xmlns="http://www.w3.org/2000/svg" xmlns:xlink="http://www.w3.org/1999/xlink">
<g id="graph0" class="graph" transform="scale(1 1) rotate(0) translate(4 80)">
<title>src/pch.h</title>
<!-- Node1 -->
<g id="Node000001" class="node">
<title>Node1</title>
<g id="a_Node000001"><a xlink:title=" ">
<polygon fill="#999999" stroke="#666666" points="766.75,-76 710.25,-76 710.25,-56 766.75,-56 766.75,-76"/>
<text text-anchor="middle" x="738.5" y="-62.5" font-family="Helvetica,sans-Serif" font-size="10.00">src/pch.h</text>
</a>
</g>
</g>
<!-- Node2 -->
<g id="Node000002" class="node">
<title>Node2</title>
<g id="a_Node000002"><a xlink:href="_camera_8cpp.html" target="_top" xlink:title=" ">
<polygon fill="white" stroke="#666666" points="85,-20 0,-20 0,0 85,0 85,-20"/>
<text text-anchor="middle" x="42.5" y="-6.5" font-family="Helvetica,sans-Serif" font-size="10.00">src/Camera.cpp</text>
</a>
</g>
</g>
<!-- Node1&#45;&gt;Node2 -->
<g id="edge1_Node000001_Node000002" class="edge">
<title>Node1&#45;&gt;Node2</title>
<g id="a_edge1_Node000001_Node000002"><a xlink:title=" ">
<path fill="none" stroke="#63b8ff" d="M698.57,-63.67C597.16,-59.99 321.51,-47.99 93.5,-20 90.82,-19.67 88.07,-19.3 85.3,-18.89"/>
<polygon fill="#63b8ff" stroke="#63b8ff" points="698.16,-67.16 708.27,-64.02 698.41,-60.17 698.16,-67.16"/>
</a>
</g>
</g>
<!-- Node3 -->
<g id="Node000003" class="node">
<title>Node3</title>
<g id="a_Node000003"><a xlink:href="_direct_x_manager_8cpp.html" target="_top" xlink:title=" ">
<polygon fill="white" stroke="#666666" points="222.25,-20 102.75,-20 102.75,0 222.25,0 222.25,-20"/>
<text text-anchor="middle" x="162.5" y="-6.5" font-family="Helvetica,sans-Serif" font-size="10.00">src/DirectXManager.cpp</text>
</a>
</g>
</g>
<!-- Node1&#45;&gt;Node3 -->
<g id="edge2_Node000001_Node000003" class="edge">
<title>Node1&#45;&gt;Node3</title>
<g id="a_edge2_Node000001_Node000003"><a xlink:title=" ">
<path fill="none" stroke="#63b8ff" d="M698.61,-62.02C612.97,-55.5 405.16,-39.02 231.5,-20 228.62,-19.68 225.67,-19.35 222.69,-19"/>
<polygon fill="#63b8ff" stroke="#63b8ff" points="698.13,-65.49 708.36,-62.76 698.66,-58.51 698.13,-65.49"/>
</a>
</g>
</g>
<!-- Node4 -->
<g id="Node000004" class="node">
<title>Node4</title>
<g id="a_Node000004"><a xlink:href="_game_engine_8cpp.html" target="_top" xlink:title=" ">
<polygon fill="white" stroke="#666666" points="348.25,-20 240.75,-20 240.75,0 348.25,0 348.25,-20"/>
<text text-anchor="middle" x="294.5" y="-6.5" font-family="Helvetica,sans-Serif" font-size="10.00">src/GameEngine.cpp</text>
</a>
</g>
</g>
<!-- Node1&#45;&gt;Node4 -->
<g id="edge3_Node000001_Node000004" class="edge">
<title>Node1&#45;&gt;Node4</title>
<g id="a_edge3_Node000001_Node000004"><a xlink:title=" ">
<path fill="none" stroke="#63b8ff" d="M698.55,-60.6C629.12,-52.9 481.74,-36.21 357.5,-20 354.54,-19.61 351.51,-19.21 348.44,-18.79"/>
<polygon fill="#63b8ff" stroke="#63b8ff" points="697.96,-64.06 708.29,-61.68 698.74,-57.1 697.96,-64.06"/>
</a>
</g>
</g>
<!-- Node5 -->
<g id="Node000005" class="node">
<title>Node5</title>
<g id="a_Node000005"><a xlink:href="_graphics_device_8cpp.html" target="_top" xlink:title=" ">
<polygon fill="white" stroke="#666666" points="484.88,-20 366.12,-20 366.12,0 484.88,0 484.88,-20"/>
<text text-anchor="middle" x="425.5" y="-6.5" font-family="Helvetica,sans-Serif" font-size="10.00">src/GraphicsDevice.cpp</text>
</a>
</g>
</g>
<!-- Node1&#45;&gt;Node5 -->
<g id="edge4_Node000001_Node000005" class="edge">
<title>Node1&#45;&gt;Node5</title>
<g id="a_edge4_Node000001_Node000005"><a xlink:title=" ">
<path fill="none" stroke="#63b8ff" d="M698.81,-58.15C643.49,-48.61 543,-31.27 480.5,-20.49"/>
<polygon fill="#63b8ff" stroke="#63b8ff" points="697.95,-61.56 708.4,-59.81 699.14,-54.66 697.95,-61.56"/>
</a>
</g>
</g>
<!-- Node6 -->
<g id="Node000006" class="node">
<title>Node6</title>
<g id="a_Node000006"><a xlink:href="_material_8cpp.html" target="_top" xlink:title=" ">
<polygon fill="white" stroke="#666666" points="588.38,-20 502.62,-20 502.62,0 588.38,0 588.38,-20"/>
<text text-anchor="middle" x="545.5" y="-6.5" font-family="Helvetica,sans-Serif" font-size="10.00">src/Material.cpp</text>
</a>
</g>
</g>
<!-- Node1&#45;&gt;Node6 -->
<g id="edge5_Node000001_Node000006" class="edge">
<title>Node1&#45;&gt;Node6</title>
<g id="a_edge5_Node000001_Node000006"><a xlink:title=" ">
<path fill="none" stroke="#63b8ff" d="M699.18,-54C663.93,-44.13 612.75,-29.82 579.3,-20.46"/>
<polygon fill="#63b8ff" stroke="#63b8ff" points="697.99,-57.3 708.56,-56.62 699.88,-50.56 697.99,-57.3"/>
</a>
</g>
</g>
<!-- Node7 -->
<g id="Node000007" class="node">
<title>Node7</title>
<g id="a_Node000007"><a xlink:href="_mesh_8cpp.html" target="_top" xlink:title=" ">
<polygon fill="white" stroke="#666666" points="682.12,-20 606.88,-20 606.88,0 682.12,0 682.12,-20"/>
<text text-anchor="middle" x="644.5" y="-6.5" font-family="Helvetica,sans-Serif" font-size="10.00">src/Mesh.cpp</text>
</a>
</g>
</g>
<!-- Node1&#45;&gt;Node7 -->
<g id="edge6_Node000001_Node000007" class="edge">
<title>Node1&#45;&gt;Node7</title>
<g id="a_edge6_Node000001_Node000007"><a xlink:title=" ">
<path fill="none" stroke="#63b8ff" d="M712.53,-50.08C696.06,-40.62 675.24,-28.66 661,-20.48"/>
<polygon fill="#63b8ff" stroke="#63b8ff" points="710.4,-52.89 720.81,-54.84 713.89,-46.82 710.4,-52.89"/>
</a>
</g>
</g>
<!-- Node8 -->
<g id="Node000008" class="node">
<title>Node8</title>
<g id="a_Node000008"><a xlink:href="_model_8cpp.html" target="_top" xlink:title=" ">
<polygon fill="white" stroke="#666666" points="777.25,-20 699.75,-20 699.75,0 777.25,0 777.25,-20"/>
<text text-anchor="middle" x="738.5" y="-6.5" font-family="Helvetica,sans-Serif" font-size="10.00">src/Model.cpp</text>
</a>
</g>
</g>
<!-- Node1&#45;&gt;Node8 -->
<g id="edge7_Node000001_Node000008" class="edge">
<title>Node1&#45;&gt;Node8</title>
<g id="a_edge7_Node000001_Node000008"><a xlink:title=" ">
<path fill="none" stroke="#63b8ff" d="M738.5,-44.13C738.5,-35.9 738.5,-26.85 738.5,-20.3"/>
<polygon fill="#63b8ff" stroke="#63b8ff" points="735,-44.08 738.5,-54.08 742,-44.08 735,-44.08"/>
</a>
</g>
</g>
<!-- Node9 -->
<g id="Node000009" class="node">
<title>Node9</title>
<g id="a_Node000009"><a xlink:href="_render_state_8cpp.html" target="_top" xlink:title=" ">
<polygon fill="white" stroke="#666666" points="900.12,-20 794.88,-20 794.88,0 900.12,0 900.12,-20"/>
<text text-anchor="middle" x="847.5" y="-6.5" font-family="Helvetica,sans-Serif" font-size="10.00">src/RenderState.cpp</text>
</a>
</g>
</g>
<!-- Node1&#45;&gt;Node9 -->
<g id="edge8_Node000001_Node000009" class="edge">
<title>Node1&#45;&gt;Node9</title>
<g id="a_edge8_Node000001_Node000009"><a xlink:title=" ">
<path fill="none" stroke="#63b8ff" d="M767.54,-50.61C786.8,-41.07 811.54,-28.81 828.37,-20.48"/>
<polygon fill="#63b8ff" stroke="#63b8ff" points="766.25,-47.35 758.84,-54.92 769.36,-53.62 766.25,-47.35"/>
</a>
</g>
</g>
<!-- Node10 -->
<g id="Node000010" class="node">
<title>Node10</title>
<g id="a_Node000010"><a xlink:href="_scene_8cpp.html" target="_top" xlink:title=" ">
<polygon fill="white" stroke="#666666" points="997,-20 918,-20 918,0 997,0 997,-20"/>
<text text-anchor="middle" x="957.5" y="-6.5" font-family="Helvetica,sans-Serif" font-size="10.00">src/Scene.cpp</text>
</a>
</g>
</g>
<!-- Node1&#45;&gt;Node10 -->
<g id="edge9_Node000001_Node000010" class="edge">
<title>Node1&#45;&gt;Node10</title>
<g id="a_edge9_Node000001_Node000010"><a xlink:title=" ">
<path fill="none" stroke="#63b8ff" d="M778.08,-55.24C818.15,-45.36 879.71,-30.18 919.29,-20.42"/>
<polygon fill="#63b8ff" stroke="#63b8ff" points="777.47,-51.79 768.6,-57.58 779.15,-58.58 777.47,-51.79"/>
</a>
</g>
</g>
<!-- Node11 -->
<g id="Node000011" class="node">
<title>Node11</title>
<g id="a_Node000011"><a xlink:href="_shader_manager_8cpp.html" target="_top" xlink:title=" ">
<polygon fill="white" stroke="#666666" points="1134.25,-20 1014.75,-20 1014.75,0 1134.25,0 1134.25,-20"/>
<text text-anchor="middle" x="1074.5" y="-6.5" font-family="Helvetica,sans-Serif" font-size="10.00">src/ShaderManager.cpp</text>
</a>
</g>
</g>
<!-- Node1&#45;&gt;Node11 -->
<g id="edge10_Node000001_Node000011" class="edge">
<title>Node1&#45;&gt;Node11</title>
<g id="a_edge10_Node000001_Node000011"><a xlink:title=" ">
<path fill="none" stroke="#63b8ff" d="M778.17,-58.62C836.89,-49.19 947.31,-31.44 1015.53,-20.48"/>
<polygon fill="#63b8ff" stroke="#63b8ff" points="777.96,-55.11 768.64,-60.16 779.07,-62.02 777.96,-55.11"/>
</a>
</g>
</g>
<!-- Node12 -->
<g id="Node000012" class="node">
<title>Node12</title>
<g id="a_Node000012"><a xlink:href="_shader_program_8cpp.html" target="_top" xlink:title=" ">
<polygon fill="white" stroke="#666666" points="1270.88,-20 1152.12,-20 1152.12,0 1270.88,0 1270.88,-20"/>
<text text-anchor="middle" x="1211.5" y="-6.5" font-family="Helvetica,sans-Serif" font-size="10.00">src/ShaderProgram.cpp</text>
</a>
</g>
</g>
<!-- Node1&#45;&gt;Node12 -->
<g id="edge11_Node000001_Node000012" class="edge">
<title>Node1&#45;&gt;Node12</title>
<g id="a_edge11_Node000001_Node000012"><a xlink:title=" ">
<path fill="none" stroke="#63b8ff" d="M778.31,-60.86C850.94,-53.23 1009.79,-36.28 1143.5,-20 1146.22,-19.67 1149,-19.32 1151.8,-18.97"/>
<polygon fill="#63b8ff" stroke="#63b8ff" points="778.09,-57.36 768.51,-61.88 778.82,-64.32 778.09,-57.36"/>
</a>
</g>
</g>
<!-- Node13 -->
<g id="Node000013" class="node">
<title>Node13</title>
<g id="a_Node000013"><a xlink:href="_win32_application_8cpp.html" target="_top" xlink:title=" ">
<polygon fill="white" stroke="#666666" points="1416,-20 1289,-20 1289,0 1416,0 1416,-20"/>
<text text-anchor="middle" x="1352.5" y="-6.5" font-family="Helvetica,sans-Serif" font-size="10.00">src/Win32Application.cpp</text>
</a>
</g>
</g>
<!-- Node1&#45;&gt;Node13 -->
<g id="edge12_Node000001_Node000013" class="edge">
<title>Node1&#45;&gt;Node13</title>
<g id="a_edge12_Node000001_Node000013"><a xlink:title=" ">
<path fill="none" stroke="#63b8ff" d="M778.22,-62.24C867.76,-55.89 1092.21,-39.33 1279.5,-20 1282.55,-19.69 1285.67,-19.35 1288.82,-19"/>
<polygon fill="#63b8ff" stroke="#63b8ff" points="778.22,-58.73 768.5,-62.92 778.72,-65.71 778.22,-58.73"/>
</a>
</g>
</g>
<!-- Node14 -->
<g id="Node000014" class="node">
<title>Node14</title>
<g id="a_Node000014"><a xlink:href="pch_8cpp.html" target="_top" xlink:title=" ">
<polygon fill="white" stroke="#666666" points="1501,-20 1434,-20 1434,0 1501,0 1501,-20"/>
<text text-anchor="middle" x="1467.5" y="-6.5" font-family="Helvetica,sans-Serif" font-size="10.00">src/pch.cpp</text>
</a>
</g>
</g>
<!-- Node1&#45;&gt;Node14 -->
<g id="edge13_Node000001_Node000014" class="edge">
<title>Node1&#45;&gt;Node14</title>
<g id="a_edge13_Node000001_Node000014"><a xlink:title=" ">
<path fill="none" stroke="#63b8ff" d="M778.51,-64.41C884.53,-62.42 1181.27,-53.98 1425.5,-20 1428.16,-19.63 1430.9,-19.19 1433.65,-18.7"/>
<polygon fill="#63b8ff" stroke="#63b8ff" points="778.57,-60.91 768.63,-64.59 778.69,-67.91 778.57,-60.91"/>
</a>
</g>
</g>
</g>
</svg>
