<?xml version="1.0" encoding="UTF-8" standalone="no"?>
<!DOCTYPE svg PUBLIC "-//W3C//DTD SVG 1.1//EN"
 "http://www.w3.org/Graphics/SVG/1.1/DTD/svg11.dtd">
<!-- Generated by graphviz version 9.0.0 (20230911.1827)
 -->
<!-- Title: Model::MeshEntry Pages: 1 -->
<svg width="718pt" height="1860pt"
 viewBox="0.00 0.00 717.50 1860.00" xmlns="http://www.w3.org/2000/svg" xmlns:xlink="http://www.w3.org/1999/xlink">
<g id="graph0" class="graph" transform="scale(1 1) rotate(0) translate(4 1856)">
<title>Model::MeshEntry</title>
<!-- Node1 -->
<g id="Node000001" class="node">
<title>Node1</title>
<g id="a_Node000001"><a xlink:title=" ">
<polygon fill="#999999" stroke="none" points="353,-672 264,-672 264,-620 353,-620 353,-672"/>
<text text-anchor="start" x="268.75" y="-658.5" font-family="Helvetica,sans-Serif" font-size="10.00">Model::MeshEntry</text>
<text text-anchor="start" x="307" y="-642.5" font-family="Helvetica,sans-Serif" font-size="10.00"> </text>
<text text-anchor="start" x="307" y="-626.5" font-family="Helvetica,sans-Serif" font-size="10.00"> </text>
<polygon fill="#666666" stroke="#666666" points="264,-654 264,-654 353,-654 353,-654 264,-654"/>
<polygon fill="#666666" stroke="#666666" points="264,-638 264,-638 353,-638 353,-638 264,-638"/>
<polygon fill="none" stroke="#666666" points="264,-620 264,-672 353,-672 353,-620 264,-620"/>
</a>
</g>
</g>
<!-- Node4 -->
<g id="Node000004" class="node">
<title>Node4</title>
<g id="a_Node000004"><a xlink:title=" ">
<polygon fill="white" stroke="none" points="277.5,-556 125.5,-556 125.5,-504 277.5,-504 277.5,-556"/>
<text text-anchor="start" x="130.25" y="-542.5" font-family="Helvetica,sans-Serif" font-size="10.00">std::vector&lt; Model::MeshEntry &gt;</text>
<text text-anchor="start" x="200" y="-526.5" font-family="Helvetica,sans-Serif" font-size="10.00"> </text>
<text text-anchor="start" x="200" y="-510.5" font-family="Helvetica,sans-Serif" font-size="10.00"> </text>
<polygon fill="#666666" stroke="#666666" points="125.5,-538 125.5,-538 277.5,-538 277.5,-538 125.5,-538"/>
<polygon fill="#666666" stroke="#666666" points="125.5,-522 125.5,-522 277.5,-522 277.5,-522 125.5,-522"/>
<polygon fill="none" stroke="#666666" points="125.5,-504 125.5,-556 277.5,-556 277.5,-504 125.5,-504"/>
</a>
</g>
</g>
<!-- Node1&#45;&gt;Node4 -->
<g id="edge4_Node000004_Node000001" class="edge">
<title>Node1&#45;&gt;Node4</title>
<g id="a_edge4_Node000004_Node000001"><a xlink:title=" ">
<path fill="none" stroke="#63b8ff" d="M267.06,-620.22C259.52,-614.74 252.05,-608.58 245.75,-602 235.85,-591.66 227.02,-578.77 219.9,-566.82"/>
<polygon fill="none" stroke="#63b8ff" points="219.99,-566.97 213.55,-563.73 214.06,-556.54 220.5,-559.78 219.99,-566.97"/>
</a>
</g>
<text text-anchor="middle" x="270.88" y="-592.5" font-family="Helvetica,sans-Serif" font-size="10.00" fill="grey"> +elements</text>
</g>
<!-- Node2 -->
<g id="Node000002" class="node">
<title>Node2</title>
<g id="a_Node000002"><a xlink:href="class_mesh.html" target="_top" xlink:title=" ">
<polygon fill="white" stroke="none" points="443.5,-132 173.5,-132 173.5,0 443.5,0 443.5,-132"/>
<text text-anchor="start" x="296.5" y="-118.5" font-family="Helvetica,sans-Serif" font-size="10.00">Mesh</text>
<text text-anchor="start" x="179" y="-102.5" font-family="Helvetica,sans-Serif" font-size="10.00">&#45;</text>
<text text-anchor="start" x="187.5" y="-102.5" font-family="Helvetica,sans-Serif" font-size="10.00">ID3D11Buffer * vertexBuffer</text>
<text text-anchor="start" x="179" y="-86.5" font-family="Helvetica,sans-Serif" font-size="10.00">&#45;</text>
<text text-anchor="start" x="187.5" y="-86.5" font-family="Helvetica,sans-Serif" font-size="10.00">ID3D11Buffer * indexBuffer</text>
<text text-anchor="start" x="177.5" y="-70.5" font-family="Helvetica,sans-Serif" font-size="10.00">+</text>
<text text-anchor="start" x="187.5" y="-70.5" font-family="Helvetica,sans-Serif" font-size="10.00">Mesh(GraphicsDevice *graphicsDevice, LPCSTR filename)</text>
<text text-anchor="start" x="177.5" y="-54.5" font-family="Helvetica,sans-Serif" font-size="10.00">+</text>
<text text-anchor="start" x="187.5" y="-54.5" font-family="Helvetica,sans-Serif" font-size="10.00">void SetParentModel(Model *model)</text>
<text text-anchor="start" x="177.5" y="-38.5" font-family="Helvetica,sans-Serif" font-size="10.00">+</text>
<text text-anchor="start" x="187.5" y="-38.5" font-family="Helvetica,sans-Serif" font-size="10.00">Model * GetParentModel() const</text>
<text text-anchor="start" x="177.5" y="-22.5" font-family="Helvetica,sans-Serif" font-size="10.00">+</text>
<text text-anchor="start" x="187.5" y="-22.5" font-family="Helvetica,sans-Serif" font-size="10.00">void LoadMesh(LPCSTR)</text>
<text text-anchor="start" x="177.5" y="-6.5" font-family="Helvetica,sans-Serif" font-size="10.00">+</text>
<text text-anchor="start" x="187.5" y="-6.5" font-family="Helvetica,sans-Serif" font-size="10.00">void Draw()</text>
<polygon fill="#666666" stroke="#666666" points="173.5,-114 173.5,-114 443.5,-114 443.5,-114 173.5,-114"/>
<polygon fill="#666666" stroke="#666666" points="173.5,-82 173.5,-82 185.5,-82 185.5,-82 173.5,-82"/>
<polygon fill="#666666" stroke="#666666" points="185.5,-82 185.5,-82 443.5,-82 443.5,-82 185.5,-82"/>
<polygon fill="none" stroke="#666666" points="173.5,0 173.5,-132 443.5,-132 443.5,0 173.5,0"/>
</a>
</g>
</g>
<!-- Node2&#45;&gt;Node1 -->
<g id="edge1_Node000001_Node000002" class="edge">
<title>Node2&#45;&gt;Node1</title>
<g id="a_edge1_Node000001_Node000002"><a xlink:title=" ">
<path fill="none" stroke="#63b8ff" d="M308.5,-131.9C308.5,-253.21 308.5,-510.79 308.5,-607.38"/>
<polygon fill="none" stroke="#63b8ff" points="308.5,-607.26 312.5,-613.26 308.5,-619.26 304.5,-613.26 308.5,-607.26"/>
</a>
</g>
<text text-anchor="middle" x="325" y="-460.5" font-family="Helvetica,sans-Serif" font-size="10.00" fill="grey"> +mesh</text>
</g>
<!-- Node3 -->
<g id="Node000003" class="node">
<title>Node3</title>
<g id="a_Node000003"><a xlink:href="class_model.html" target="_top" xlink:title=" ">
<polygon fill="white" stroke="none" points="280.5,-440 36.5,-440 36.5,-180 280.5,-180 280.5,-440"/>
<text text-anchor="start" x="145.38" y="-426.5" font-family="Helvetica,sans-Serif" font-size="10.00">Model</text>
<text text-anchor="start" x="42" y="-410.5" font-family="Helvetica,sans-Serif" font-size="10.00">&#45;</text>
<text text-anchor="start" x="50.5" y="-410.5" font-family="Helvetica,sans-Serif" font-size="10.00">DirectX::XMFLOAT3 position</text>
<text text-anchor="start" x="42" y="-394.5" font-family="Helvetica,sans-Serif" font-size="10.00">&#45;</text>
<text text-anchor="start" x="50.5" y="-394.5" font-family="Helvetica,sans-Serif" font-size="10.00">DirectX::XMFLOAT3 rotation</text>
<text text-anchor="start" x="42" y="-378.5" font-family="Helvetica,sans-Serif" font-size="10.00">&#45;</text>
<text text-anchor="start" x="50.5" y="-378.5" font-family="Helvetica,sans-Serif" font-size="10.00">DirectX::XMFLOAT3 scale</text>
<text text-anchor="start" x="42" y="-362.5" font-family="Helvetica,sans-Serif" font-size="10.00">&#45;</text>
<text text-anchor="start" x="50.5" y="-362.5" font-family="Helvetica,sans-Serif" font-size="10.00">DirectX::XMMATRIX transformationMatrix</text>
<text text-anchor="start" x="40.5" y="-346.5" font-family="Helvetica,sans-Serif" font-size="10.00">+</text>
<text text-anchor="start" x="50.5" y="-346.5" font-family="Helvetica,sans-Serif" font-size="10.00">Model(GraphicsDevice *graphicsDevice)</text>
<text text-anchor="start" x="40.5" y="-330.5" font-family="Helvetica,sans-Serif" font-size="10.00">+</text>
<text text-anchor="start" x="50.5" y="-330.5" font-family="Helvetica,sans-Serif" font-size="10.00">void AddMeshEntry(Mesh *mesh, Material *material)</text>
<text text-anchor="start" x="40.5" y="-314.5" font-family="Helvetica,sans-Serif" font-size="10.00">+</text>
<text text-anchor="start" x="50.5" y="-314.5" font-family="Helvetica,sans-Serif" font-size="10.00">void SetPosition(const DirectX::XMFLOAT3 &amp;pos)</text>
<text text-anchor="start" x="40.5" y="-298.5" font-family="Helvetica,sans-Serif" font-size="10.00">+</text>
<text text-anchor="start" x="50.5" y="-298.5" font-family="Helvetica,sans-Serif" font-size="10.00">void SetRotation(const DirectX::XMFLOAT3 &amp;rot)</text>
<text text-anchor="start" x="40.5" y="-282.5" font-family="Helvetica,sans-Serif" font-size="10.00">+</text>
<text text-anchor="start" x="50.5" y="-282.5" font-family="Helvetica,sans-Serif" font-size="10.00">void SetScale(const DirectX::XMFLOAT3 &amp;scl)</text>
<text text-anchor="start" x="40.5" y="-266.5" font-family="Helvetica,sans-Serif" font-size="10.00">+</text>
<text text-anchor="start" x="50.5" y="-266.5" font-family="Helvetica,sans-Serif" font-size="10.00">DirectX::XMFLOAT3 GetPosition()</text>
<text text-anchor="start" x="40.5" y="-250.5" font-family="Helvetica,sans-Serif" font-size="10.00">+</text>
<text text-anchor="start" x="50.5" y="-250.5" font-family="Helvetica,sans-Serif" font-size="10.00">DirectX::XMFLOAT3 GetRotation()</text>
<text text-anchor="start" x="40.5" y="-234.5" font-family="Helvetica,sans-Serif" font-size="10.00">+</text>
<text text-anchor="start" x="50.5" y="-234.5" font-family="Helvetica,sans-Serif" font-size="10.00">DirectX::XMFLOAT3 GetScale()</text>
<text text-anchor="start" x="40.5" y="-218.5" font-family="Helvetica,sans-Serif" font-size="10.00">+</text>
<text text-anchor="start" x="50.5" y="-218.5" font-family="Helvetica,sans-Serif" font-size="10.00">void UpdateTransformationMatrix()</text>
<text text-anchor="start" x="40.5" y="-202.5" font-family="Helvetica,sans-Serif" font-size="10.00">+</text>
<text text-anchor="start" x="50.5" y="-202.5" font-family="Helvetica,sans-Serif" font-size="10.00">XMMATRIX GetTransformationMatrix()</text>
<text text-anchor="start" x="40.5" y="-186.5" font-family="Helvetica,sans-Serif" font-size="10.00">+</text>
<text text-anchor="start" x="50.5" y="-186.5" font-family="Helvetica,sans-Serif" font-size="10.00">std::vector&lt; MeshEntry &gt; GetMeshEntries()</text>
<polygon fill="#666666" stroke="#666666" points="36.5,-422 36.5,-422 280.5,-422 280.5,-422 36.5,-422"/>
<polygon fill="#666666" stroke="#666666" points="36.5,-358 36.5,-358 48.5,-358 48.5,-358 36.5,-358"/>
<polygon fill="#666666" stroke="#666666" points="48.5,-358 48.5,-358 280.5,-358 280.5,-358 48.5,-358"/>
<polygon fill="none" stroke="#666666" points="36.5,-180 36.5,-440 280.5,-440 280.5,-180 36.5,-180"/>
</a>
</g>
</g>
<!-- Node3&#45;&gt;Node2 -->
<g id="edge2_Node000002_Node000003" class="edge">
<title>Node3&#45;&gt;Node2</title>
<g id="a_edge2_Node000002_Node000003"><a xlink:title=" ">
<path fill="none" stroke="#63b8ff" d="M216.89,-180.16C222.75,-169.76 228.89,-159.57 235.25,-150 237.02,-147.34 238.87,-144.67 240.77,-142.01"/>
<polygon fill="none" stroke="#63b8ff" points="240.67,-142.15 241.07,-134.95 247.86,-132.54 247.47,-139.74 240.67,-142.15"/>
</a>
</g>
<text text-anchor="middle" x="265.12" y="-152.5" font-family="Helvetica,sans-Serif" font-size="10.00" fill="grey"> &#45;parentModel</text>
</g>
<!-- Node4&#45;&gt;Node3 -->
<g id="edge3_Node000003_Node000004" class="edge">
<title>Node4&#45;&gt;Node3</title>
<g id="a_edge3_Node000003_Node000004"><a xlink:title=" ">
<path fill="none" stroke="#63b8ff" d="M196.65,-504.42C193.94,-490.68 190.32,-472.33 186.39,-452.38"/>
<polygon fill="none" stroke="#63b8ff" points="186.4,-452.45 181.31,-447.33 184.08,-440.67 189.16,-445.79 186.4,-452.45"/>
</a>
</g>
<text text-anchor="middle" x="219.88" y="-460.5" font-family="Helvetica,sans-Serif" font-size="10.00" fill="grey"> &#45;meshEntries</text>
</g>
<!-- Node5 -->
<g id="Node000005" class="node">
<title>Node5</title>
<g id="a_Node000005"><a xlink:href="class_graphics_device.html" target="_top" xlink:title=" ">
<polygon fill="white" stroke="none" points="265,-1852 0,-1852 0,-1528 265,-1528 265,-1852"/>
<text text-anchor="start" x="98.75" y="-1838.5" font-family="Helvetica,sans-Serif" font-size="10.00">GraphicsDevice</text>
<text text-anchor="start" x="5.5" y="-1822.5" font-family="Helvetica,sans-Serif" font-size="10.00">&#45;</text>
<text text-anchor="start" x="14" y="-1822.5" font-family="Helvetica,sans-Serif" font-size="10.00">ID3D11Device * device</text>
<text text-anchor="start" x="5.5" y="-1806.5" font-family="Helvetica,sans-Serif" font-size="10.00">&#45;</text>
<text text-anchor="start" x="14" y="-1806.5" font-family="Helvetica,sans-Serif" font-size="10.00">ID3D11DeviceContext * deviceContext</text>
<text text-anchor="start" x="5.5" y="-1790.5" font-family="Helvetica,sans-Serif" font-size="10.00">&#45;</text>
<text text-anchor="start" x="14" y="-1790.5" font-family="Helvetica,sans-Serif" font-size="10.00">IDXGISwapChain * swapChain</text>
<text text-anchor="start" x="5.5" y="-1774.5" font-family="Helvetica,sans-Serif" font-size="10.00">&#45;</text>
<text text-anchor="start" x="14" y="-1774.5" font-family="Helvetica,sans-Serif" font-size="10.00">ID3D11RenderTargetView * renderTargetView</text>
<text text-anchor="start" x="5.5" y="-1758.5" font-family="Helvetica,sans-Serif" font-size="10.00">&#45;</text>
<text text-anchor="start" x="14" y="-1758.5" font-family="Helvetica,sans-Serif" font-size="10.00">ID3D11DepthStencilView * depthStencilView</text>
<text text-anchor="start" x="5.5" y="-1742.5" font-family="Helvetica,sans-Serif" font-size="10.00">&#45;</text>
<text text-anchor="start" x="14" y="-1742.5" font-family="Helvetica,sans-Serif" font-size="10.00">ID3D11Texture2D * depthStencilBuffer</text>
<text text-anchor="start" x="5.5" y="-1726.5" font-family="Helvetica,sans-Serif" font-size="10.00">&#45;</text>
<text text-anchor="start" x="14" y="-1726.5" font-family="Helvetica,sans-Serif" font-size="10.00">int windowWidth</text>
<text text-anchor="start" x="5.5" y="-1710.5" font-family="Helvetica,sans-Serif" font-size="10.00">&#45;</text>
<text text-anchor="start" x="14" y="-1710.5" font-family="Helvetica,sans-Serif" font-size="10.00">int windowHeight</text>
<text text-anchor="start" x="5.5" y="-1694.5" font-family="Helvetica,sans-Serif" font-size="10.00">&#45;</text>
<text text-anchor="start" x="14" y="-1694.5" font-family="Helvetica,sans-Serif" font-size="10.00">HWND hWnd</text>
<text text-anchor="start" x="4" y="-1678.5" font-family="Helvetica,sans-Serif" font-size="10.00">+</text>
<text text-anchor="start" x="14" y="-1678.5" font-family="Helvetica,sans-Serif" font-size="10.00">void Initialize(HWND hWnd, int width, int height)</text>
<text text-anchor="start" x="4" y="-1662.5" font-family="Helvetica,sans-Serif" font-size="10.00">+</text>
<text text-anchor="start" x="14" y="-1662.5" font-family="Helvetica,sans-Serif" font-size="10.00">void ResizeBuffersAndViews(int width, int height)</text>
<text text-anchor="start" x="4" y="-1646.5" font-family="Helvetica,sans-Serif" font-size="10.00">+</text>
<text text-anchor="start" x="14" y="-1646.5" font-family="Helvetica,sans-Serif" font-size="10.00">ID3D11Device * GetDevice() const</text>
<text text-anchor="start" x="4" y="-1630.5" font-family="Helvetica,sans-Serif" font-size="10.00">+</text>
<text text-anchor="start" x="14" y="-1630.5" font-family="Helvetica,sans-Serif" font-size="10.00">ID3D11DeviceContext * GetDeviceContext() const</text>
<text text-anchor="start" x="4" y="-1614.5" font-family="Helvetica,sans-Serif" font-size="10.00">+</text>
<text text-anchor="start" x="14" y="-1614.5" font-family="Helvetica,sans-Serif" font-size="10.00">IDXGISwapChain * GetSwapChain() const</text>
<text text-anchor="start" x="4" y="-1598.5" font-family="Helvetica,sans-Serif" font-size="10.00">+</text>
<text text-anchor="start" x="14" y="-1598.5" font-family="Helvetica,sans-Serif" font-size="10.00">ID3D11RenderTargetView * GetRenderTargetView() const</text>
<text text-anchor="start" x="4" y="-1582.5" font-family="Helvetica,sans-Serif" font-size="10.00">+</text>
<text text-anchor="start" x="14" y="-1582.5" font-family="Helvetica,sans-Serif" font-size="10.00">ID3D11DepthStencilView * GetDepthStencilView() const</text>
<text text-anchor="start" x="4" y="-1566.5" font-family="Helvetica,sans-Serif" font-size="10.00">+</text>
<text text-anchor="start" x="14" y="-1566.5" font-family="Helvetica,sans-Serif" font-size="10.00">int GetWindowWidth()</text>
<text text-anchor="start" x="4" y="-1550.5" font-family="Helvetica,sans-Serif" font-size="10.00">+</text>
<text text-anchor="start" x="14" y="-1550.5" font-family="Helvetica,sans-Serif" font-size="10.00">int GetWindowHeight()</text>
<text text-anchor="start" x="4" y="-1534.5" font-family="Helvetica,sans-Serif" font-size="10.00">+</text>
<text text-anchor="start" x="14" y="-1534.5" font-family="Helvetica,sans-Serif" font-size="10.00">HWND GetHWND()</text>
<polygon fill="#666666" stroke="#666666" points="0,-1834 0,-1834 265,-1834 265,-1834 0,-1834"/>
<polygon fill="#666666" stroke="#666666" points="0,-1690 0,-1690 12,-1690 12,-1690 0,-1690"/>
<polygon fill="#666666" stroke="#666666" points="12,-1690 12,-1690 265,-1690 265,-1690 12,-1690"/>
<polygon fill="none" stroke="#666666" points="0,-1528 0,-1852 265,-1852 265,-1528 0,-1528"/>
</a>
</g>
</g>
<!-- Node5&#45;&gt;Node2 -->
<g id="edge9_Node000002_Node000005" class="edge">
<title>Node5&#45;&gt;Node2</title>
<g id="a_edge9_Node000002_Node000005"><a xlink:title=" ">
<path fill="none" stroke="#63b8ff" d="M42.22,-1528.12C23.07,-1480.89 8.5,-1428.15 8.5,-1377 8.5,-1377 8.5,-1377 8.5,-309 8.5,-251.05 -8.37,-225.52 27.5,-180 60.65,-137.93 111.9,-111.45 161.6,-94.82"/>
<polygon fill="none" stroke="#63b8ff" points="161.56,-94.83 166.06,-89.19 172.99,-91.17 168.5,-96.81 161.56,-94.83"/>
</a>
</g>
<text text-anchor="middle" x="44.12" y="-692.5" font-family="Helvetica,sans-Serif" font-size="10.00" fill="grey"> &#45;graphicsDevice</text>
</g>
<!-- Node5&#45;&gt;Node3 -->
<g id="edge5_Node000003_Node000005" class="edge">
<title>Node5&#45;&gt;Node3</title>
<g id="a_edge5_Node000003_Node000005"><a xlink:title=" ">
<path fill="none" stroke="#63b8ff" d="M105.39,-1528.32C99.25,-1479.84 94.5,-1426.38 94.5,-1377 94.5,-1377 94.5,-1377 94.5,-529 94.5,-503.78 98.49,-477.55 104.48,-452.4"/>
<polygon fill="none" stroke="#63b8ff" points="104.52,-452.26 102.11,-445.46 107.46,-440.63 109.87,-447.43 104.52,-452.26"/>
</a>
</g>
<text text-anchor="middle" x="130.12" y="-810.5" font-family="Helvetica,sans-Serif" font-size="10.00" fill="grey"> &#45;graphicsDevice</text>
</g>
<!-- Node9 -->
<g id="Node000009" class="node">
<title>Node9</title>
<g id="a_Node000009"><a xlink:href="class_material.html" target="_top" xlink:title=" ">
<polygon fill="white" stroke="none" points="471.5,-908 183.5,-908 183.5,-720 471.5,-720 471.5,-908"/>
<text text-anchor="start" x="310.25" y="-894.5" font-family="Helvetica,sans-Serif" font-size="10.00">Material</text>
<text text-anchor="start" x="189" y="-878.5" font-family="Helvetica,sans-Serif" font-size="10.00">&#45;</text>
<text text-anchor="start" x="197.5" y="-878.5" font-family="Helvetica,sans-Serif" font-size="10.00">ID3D11ShaderResourceView * textureSRV</text>
<text text-anchor="start" x="189" y="-862.5" font-family="Helvetica,sans-Serif" font-size="10.00">&#45;</text>
<text text-anchor="start" x="197.5" y="-862.5" font-family="Helvetica,sans-Serif" font-size="10.00">bool transparent</text>
<text text-anchor="start" x="187.5" y="-846.5" font-family="Helvetica,sans-Serif" font-size="10.00">+</text>
<text text-anchor="start" x="197.5" y="-846.5" font-family="Helvetica,sans-Serif" font-size="10.00">Material(GraphicsDevice *graphicsDevice, std::shared</text>
<text text-anchor="start" x="197.5" y="-834.5" font-family="Helvetica,sans-Serif" font-size="10.00">_ptr&lt; ShaderProgram &gt; shader, RenderState *renderState,</text>
<text text-anchor="start" x="197.5" y="-822.5" font-family="Helvetica,sans-Serif" font-size="10.00"> bool transparent)</text>
<text text-anchor="start" x="187.5" y="-806.5" font-family="Helvetica,sans-Serif" font-size="10.00">+</text>
<text text-anchor="start" x="197.5" y="-806.5" font-family="Helvetica,sans-Serif" font-size="10.00">void LoadTexture(LPCSTR filename)</text>
<text text-anchor="start" x="187.5" y="-790.5" font-family="Helvetica,sans-Serif" font-size="10.00">+</text>
<text text-anchor="start" x="197.5" y="-790.5" font-family="Helvetica,sans-Serif" font-size="10.00">void SetConstantBuffer(ConstantBuffer cb)</text>
<text text-anchor="start" x="187.5" y="-774.5" font-family="Helvetica,sans-Serif" font-size="10.00">+</text>
<text text-anchor="start" x="197.5" y="-774.5" font-family="Helvetica,sans-Serif" font-size="10.00">void Setup()</text>
<text text-anchor="start" x="187.5" y="-758.5" font-family="Helvetica,sans-Serif" font-size="10.00">+</text>
<text text-anchor="start" x="197.5" y="-758.5" font-family="Helvetica,sans-Serif" font-size="10.00">bool isTransparent()</text>
<text text-anchor="start" x="187.5" y="-742.5" font-family="Helvetica,sans-Serif" font-size="10.00">+</text>
<text text-anchor="start" x="197.5" y="-742.5" font-family="Helvetica,sans-Serif" font-size="10.00">std::shared_ptr&lt; ShaderProgram &gt; GetShaderProgram() const</text>
<text text-anchor="start" x="187.5" y="-726.5" font-family="Helvetica,sans-Serif" font-size="10.00">+</text>
<text text-anchor="start" x="197.5" y="-726.5" font-family="Helvetica,sans-Serif" font-size="10.00">RenderState * GetRenderState() const</text>
<polygon fill="#666666" stroke="#666666" points="183.5,-890 183.5,-890 471.5,-890 471.5,-890 183.5,-890"/>
<polygon fill="#666666" stroke="#666666" points="183.5,-858 183.5,-858 195.5,-858 195.5,-858 183.5,-858"/>
<polygon fill="#666666" stroke="#666666" points="195.5,-858 195.5,-858 471.5,-858 471.5,-858 195.5,-858"/>
<polygon fill="none" stroke="#666666" points="183.5,-720 183.5,-908 471.5,-908 471.5,-720 183.5,-720"/>
</a>
</g>
</g>
<!-- Node5&#45;&gt;Node9 -->
<g id="edge16_Node000009_Node000005" class="edge">
<title>Node5&#45;&gt;Node9</title>
<g id="a_edge16_Node000009_Node000005"><a xlink:title=" ">
<path fill="none" stroke="#63b8ff" d="M129.96,-1528.34C133.21,-1374.99 153.29,-1140.6 235.5,-956 241.01,-943.63 247.53,-931.12 254.53,-918.93"/>
<polygon fill="none" stroke="#63b8ff" points="254.52,-918.95 254.12,-911.75 260.61,-908.61 261.01,-915.81 254.52,-918.95"/>
</a>
</g>
<text text-anchor="middle" x="243.12" y="-1136.5" font-family="Helvetica,sans-Serif" font-size="10.00" fill="grey"> &#45;graphicsDevice</text>
</g>
<!-- Node11 -->
<g id="Node000011" class="node">
<title>Node11</title>
<g id="a_Node000011"><a xlink:href="class_shader_program.html" target="_top" xlink:title=" ">
<polygon fill="white" stroke="none" points="492,-1480 161,-1480 161,-1272 492,-1272 492,-1480"/>
<text text-anchor="start" x="292.75" y="-1466.5" font-family="Helvetica,sans-Serif" font-size="10.00">ShaderProgram</text>
<text text-anchor="start" x="166.5" y="-1450.5" font-family="Helvetica,sans-Serif" font-size="10.00">&#45;</text>
<text text-anchor="start" x="175" y="-1450.5" font-family="Helvetica,sans-Serif" font-size="10.00">ID3D11VertexShader * vertexShader</text>
<text text-anchor="start" x="166.5" y="-1434.5" font-family="Helvetica,sans-Serif" font-size="10.00">&#45;</text>
<text text-anchor="start" x="175" y="-1434.5" font-family="Helvetica,sans-Serif" font-size="10.00">ID3D11PixelShader * pixelShader</text>
<text text-anchor="start" x="166.5" y="-1418.5" font-family="Helvetica,sans-Serif" font-size="10.00">&#45;</text>
<text text-anchor="start" x="175" y="-1418.5" font-family="Helvetica,sans-Serif" font-size="10.00">ID3D11InputLayout * inputLayout</text>
<text text-anchor="start" x="166.5" y="-1402.5" font-family="Helvetica,sans-Serif" font-size="10.00">&#45;</text>
<text text-anchor="start" x="175" y="-1402.5" font-family="Helvetica,sans-Serif" font-size="10.00">ID3D11Buffer * constantBuffer</text>
<text text-anchor="start" x="165" y="-1386.5" font-family="Helvetica,sans-Serif" font-size="10.00">+</text>
<text text-anchor="start" x="175" y="-1386.5" font-family="Helvetica,sans-Serif" font-size="10.00">ShaderProgram(GraphicsDevice *graphicsDevice)</text>
<text text-anchor="start" x="165" y="-1370.5" font-family="Helvetica,sans-Serif" font-size="10.00">+</text>
<text text-anchor="start" x="175" y="-1370.5" font-family="Helvetica,sans-Serif" font-size="10.00">void LoadShader(LPCSTR VSFilename, LPCSTR PSFilename)</text>
<text text-anchor="start" x="165" y="-1354.5" font-family="Helvetica,sans-Serif" font-size="10.00">+</text>
<text text-anchor="start" x="175" y="-1354.5" font-family="Helvetica,sans-Serif" font-size="10.00">void ClearResources()</text>
<text text-anchor="start" x="165" y="-1338.5" font-family="Helvetica,sans-Serif" font-size="10.00">+</text>
<text text-anchor="start" x="175" y="-1338.5" font-family="Helvetica,sans-Serif" font-size="10.00">void UpdateBuffers(ConstantBuffer cb)</text>
<text text-anchor="start" x="165" y="-1322.5" font-family="Helvetica,sans-Serif" font-size="10.00">+</text>
<text text-anchor="start" x="175" y="-1322.5" font-family="Helvetica,sans-Serif" font-size="10.00">void Bind()</text>
<text text-anchor="start" x="166.5" y="-1306.5" font-family="Helvetica,sans-Serif" font-size="10.00">&#45;</text>
<text text-anchor="start" x="175" y="-1306.5" font-family="Helvetica,sans-Serif" font-size="10.00">bool CompileHLSL(const std::string &amp;filename, ShaderType shaderType)</text>
<text text-anchor="start" x="166.5" y="-1290.5" font-family="Helvetica,sans-Serif" font-size="10.00">&#45;</text>
<text text-anchor="start" x="175" y="-1290.5" font-family="Helvetica,sans-Serif" font-size="10.00">std::vector&lt; byte &gt; LoadShaderFile(const std::string</text>
<text text-anchor="start" x="175" y="-1278.5" font-family="Helvetica,sans-Serif" font-size="10.00"> &amp;filename, ShaderType shaderType)</text>
<polygon fill="#666666" stroke="#666666" points="161,-1462 161,-1462 492,-1462 492,-1462 161,-1462"/>
<polygon fill="#666666" stroke="#666666" points="161,-1398 161,-1398 173,-1398 173,-1398 161,-1398"/>
<polygon fill="#666666" stroke="#666666" points="173,-1398 173,-1398 492,-1398 492,-1398 173,-1398"/>
<polygon fill="none" stroke="#666666" points="161,-1272 161,-1480 492,-1480 492,-1272 161,-1272"/>
</a>
</g>
</g>
<!-- Node5&#45;&gt;Node11 -->
<g id="edge13_Node000011_Node000005" class="edge">
<title>Node5&#45;&gt;Node11</title>
<g id="a_edge13_Node000011_Node000005"><a xlink:title=" ">
<path fill="none" stroke="#63b8ff" d="M232.34,-1528.43C240.31,-1515.61 248.26,-1502.83 255.96,-1490.44"/>
<polygon fill="none" stroke="#63b8ff" points="255.85,-1490.62 255.62,-1483.41 262.19,-1480.43 262.42,-1487.64 255.85,-1490.62"/>
</a>
</g>
<text text-anchor="middle" x="283.12" y="-1500.5" font-family="Helvetica,sans-Serif" font-size="10.00" fill="grey"> &#45;graphicsDevice</text>
</g>
<!-- Node12 -->
<g id="Node000012" class="node">
<title>Node12</title>
<g id="a_Node000012"><a xlink:href="class_render_state.html" target="_top" xlink:title=" ">
<polygon fill="white" stroke="none" points="709.5,-1254 345.5,-1254 345.5,-1026 709.5,-1026 709.5,-1254"/>
<text text-anchor="start" x="500.5" y="-1240.5" font-family="Helvetica,sans-Serif" font-size="10.00">RenderState</text>
<text text-anchor="start" x="351" y="-1224.5" font-family="Helvetica,sans-Serif" font-size="10.00">&#45;</text>
<text text-anchor="start" x="359.5" y="-1224.5" font-family="Helvetica,sans-Serif" font-size="10.00">ID3D11RasterizerState * rasterizerState</text>
<text text-anchor="start" x="351" y="-1208.5" font-family="Helvetica,sans-Serif" font-size="10.00">&#45;</text>
<text text-anchor="start" x="359.5" y="-1208.5" font-family="Helvetica,sans-Serif" font-size="10.00">ID3D11BlendState * blendState</text>
<text text-anchor="start" x="351" y="-1192.5" font-family="Helvetica,sans-Serif" font-size="10.00">&#45;</text>
<text text-anchor="start" x="359.5" y="-1192.5" font-family="Helvetica,sans-Serif" font-size="10.00">ID3D11DepthStencilState * depthStencilState</text>
<text text-anchor="start" x="351" y="-1176.5" font-family="Helvetica,sans-Serif" font-size="10.00">&#45;</text>
<text text-anchor="start" x="359.5" y="-1176.5" font-family="Helvetica,sans-Serif" font-size="10.00">ID3D11SamplerState * samplerState</text>
<text text-anchor="start" x="351" y="-1160.5" font-family="Helvetica,sans-Serif" font-size="10.00">&#45;</text>
<text text-anchor="start" x="359.5" y="-1160.5" font-family="Helvetica,sans-Serif" font-size="10.00">float blendFactor</text>
<text text-anchor="start" x="349.5" y="-1144.5" font-family="Helvetica,sans-Serif" font-size="10.00">+</text>
<text text-anchor="start" x="359.5" y="-1144.5" font-family="Helvetica,sans-Serif" font-size="10.00">RenderState(GraphicsDevice *graphicsDevice)</text>
<text text-anchor="start" x="349.5" y="-1128.5" font-family="Helvetica,sans-Serif" font-size="10.00">+</text>
<text text-anchor="start" x="359.5" y="-1128.5" font-family="Helvetica,sans-Serif" font-size="10.00">~RenderState()</text>
<text text-anchor="start" x="349.5" y="-1112.5" font-family="Helvetica,sans-Serif" font-size="10.00">+</text>
<text text-anchor="start" x="359.5" y="-1112.5" font-family="Helvetica,sans-Serif" font-size="10.00">void CreateRasterizerState(const D3D11_RASTERIZER_DESC &amp;rasterDesc)</text>
<text text-anchor="start" x="349.5" y="-1096.5" font-family="Helvetica,sans-Serif" font-size="10.00">+</text>
<text text-anchor="start" x="359.5" y="-1096.5" font-family="Helvetica,sans-Serif" font-size="10.00">void CreateBlendState(const D3D11_BLEND_DESC &amp;blendDesc)</text>
<text text-anchor="start" x="349.5" y="-1080.5" font-family="Helvetica,sans-Serif" font-size="10.00">+</text>
<text text-anchor="start" x="359.5" y="-1080.5" font-family="Helvetica,sans-Serif" font-size="10.00">void CreateBlendFactor(float, float, float, float)</text>
<text text-anchor="start" x="349.5" y="-1064.5" font-family="Helvetica,sans-Serif" font-size="10.00">+</text>
<text text-anchor="start" x="359.5" y="-1064.5" font-family="Helvetica,sans-Serif" font-size="10.00">void CreateDepthStencilState(const D3D11_DEPTH_STENCIL_DESC &amp;dsDesc)</text>
<text text-anchor="start" x="349.5" y="-1048.5" font-family="Helvetica,sans-Serif" font-size="10.00">+</text>
<text text-anchor="start" x="359.5" y="-1048.5" font-family="Helvetica,sans-Serif" font-size="10.00">void CreateSamplerState(const D3D11_SAMPLER_DESC &amp;sampDesc)</text>
<text text-anchor="start" x="349.5" y="-1032.5" font-family="Helvetica,sans-Serif" font-size="10.00">+</text>
<text text-anchor="start" x="359.5" y="-1032.5" font-family="Helvetica,sans-Serif" font-size="10.00">void SetState()</text>
<polygon fill="#666666" stroke="#666666" points="345.5,-1236 345.5,-1236 709.5,-1236 709.5,-1236 345.5,-1236"/>
<polygon fill="#666666" stroke="#666666" points="345.5,-1156 345.5,-1156 357.5,-1156 357.5,-1156 345.5,-1156"/>
<polygon fill="#666666" stroke="#666666" points="357.5,-1156 357.5,-1156 709.5,-1156 709.5,-1156 357.5,-1156"/>
<polygon fill="none" stroke="#666666" points="345.5,-1026 345.5,-1254 709.5,-1254 709.5,-1026 345.5,-1026"/>
</a>
</g>
</g>
<!-- Node5&#45;&gt;Node12 -->
<g id="edge15_Node000012_Node000005" class="edge">
<title>Node5&#45;&gt;Node12</title>
<g id="a_edge15_Node000012_Node000005"><a xlink:title=" ">
<path fill="none" stroke="#63b8ff" d="M264.79,-1649.82C347.39,-1618.02 447.9,-1564.36 501.5,-1480 541.2,-1417.51 548.24,-1334.89 545.09,-1266.86"/>
<polygon fill="none" stroke="#63b8ff" points="545.09,-1266.77 540.76,-1261.01 544.42,-1254.79 548.75,-1260.56 545.09,-1266.77"/>
</a>
</g>
<text text-anchor="middle" x="523.12" y="-1500.5" font-family="Helvetica,sans-Serif" font-size="10.00" fill="grey"> &#45;graphicsDevice</text>
</g>
<!-- Node6 -->
<g id="Node000006" class="node">
<title>Node6</title>
<g id="a_Node000006"><a xlink:title=" ">
<polygon fill="white" stroke="none" points="458.5,-336 336.5,-336 336.5,-284 458.5,-284 458.5,-336"/>
<text text-anchor="start" x="341.25" y="-322.5" font-family="Helvetica,sans-Serif" font-size="10.00">std::vector&lt; VertexType &gt;</text>
<text text-anchor="start" x="396" y="-306.5" font-family="Helvetica,sans-Serif" font-size="10.00"> </text>
<text text-anchor="start" x="396" y="-290.5" font-family="Helvetica,sans-Serif" font-size="10.00"> </text>
<polygon fill="#666666" stroke="#666666" points="336.5,-318 336.5,-318 458.5,-318 458.5,-318 336.5,-318"/>
<polygon fill="#666666" stroke="#666666" points="336.5,-302 336.5,-302 458.5,-302 458.5,-302 336.5,-302"/>
<polygon fill="none" stroke="#666666" points="336.5,-284 336.5,-336 458.5,-336 458.5,-284 336.5,-284"/>
</a>
</g>
</g>
<!-- Node6&#45;&gt;Node2 -->
<g id="edge6_Node000002_Node000006" class="edge">
<title>Node6&#45;&gt;Node2</title>
<g id="a_edge6_Node000002_Node000006"><a xlink:title=" ">
<path fill="none" stroke="#63b8ff" d="M388.31,-284.01C376.25,-251.23 354.54,-192.19 336.81,-143.97"/>
<polygon fill="none" stroke="#63b8ff" points="336.84,-144.07 331.02,-139.82 332.7,-132.81 338.53,-137.06 336.84,-144.07"/>
</a>
</g>
<text text-anchor="middle" x="361" y="-152.5" font-family="Helvetica,sans-Serif" font-size="10.00" fill="grey"> &#45;vertices</text>
</g>
<!-- Node7 -->
<g id="Node000007" class="node">
<title>Node7</title>
<g id="a_Node000007"><a xlink:href="_mesh_8h.html#struct_vertex_type" target="_top" xlink:title=" ">
<polygon fill="white" stroke="none" points="454.5,-572 340.5,-572 340.5,-488 454.5,-488 454.5,-572"/>
<text text-anchor="start" x="372.75" y="-558.5" font-family="Helvetica,sans-Serif" font-size="10.00">VertexType</text>
<text text-anchor="start" x="344.5" y="-542.5" font-family="Helvetica,sans-Serif" font-size="10.00">+</text>
<text text-anchor="start" x="354.5" y="-542.5" font-family="Helvetica,sans-Serif" font-size="10.00">XMFLOAT4 position</text>
<text text-anchor="start" x="344.5" y="-526.5" font-family="Helvetica,sans-Serif" font-size="10.00">+</text>
<text text-anchor="start" x="354.5" y="-526.5" font-family="Helvetica,sans-Serif" font-size="10.00">XMFLOAT2 texCoords</text>
<text text-anchor="start" x="344.5" y="-510.5" font-family="Helvetica,sans-Serif" font-size="10.00">+</text>
<text text-anchor="start" x="354.5" y="-510.5" font-family="Helvetica,sans-Serif" font-size="10.00">XMFLOAT3 normal</text>
<text text-anchor="start" x="396" y="-494.5" font-family="Helvetica,sans-Serif" font-size="10.00"> </text>
<polygon fill="#666666" stroke="#666666" points="340.5,-554 340.5,-554 454.5,-554 454.5,-554 340.5,-554"/>
<polygon fill="#666666" stroke="#666666" points="340.5,-506 340.5,-506 352.5,-506 352.5,-506 340.5,-506"/>
<polygon fill="#666666" stroke="#666666" points="352.5,-506 352.5,-506 454.5,-506 454.5,-506 352.5,-506"/>
<polygon fill="none" stroke="#666666" points="340.5,-488 340.5,-572 454.5,-572 454.5,-488 340.5,-488"/>
</a>
</g>
</g>
<!-- Node7&#45;&gt;Node6 -->
<g id="edge7_Node000006_Node000007" class="edge">
<title>Node7&#45;&gt;Node6</title>
<g id="a_edge7_Node000006_Node000007"><a xlink:title=" ">
<path fill="none" stroke="#63b8ff" d="M397.5,-488.25C397.5,-448.23 397.5,-387.68 397.5,-348.74"/>
<polygon fill="none" stroke="#63b8ff" points="397.5,-348.83 393.5,-342.83 397.5,-336.83 401.5,-342.83 397.5,-348.83"/>
</a>
</g>
<text text-anchor="middle" x="421.88" y="-460.5" font-family="Helvetica,sans-Serif" font-size="10.00" fill="grey"> +elements</text>
</g>
<!-- Node8 -->
<g id="Node000008" class="node">
<title>Node8</title>
<g id="a_Node000008"><a xlink:title=" ">
<polygon fill="white" stroke="none" points="602,-336 477,-336 477,-284 602,-284 602,-336"/>
<text text-anchor="start" x="481.75" y="-322.5" font-family="Helvetica,sans-Serif" font-size="10.00">std::vector&lt; unsigned int &gt;</text>
<text text-anchor="start" x="484" y="-306.5" font-family="Helvetica,sans-Serif" font-size="10.00">+</text>
<text text-anchor="start" x="497" y="-306.5" font-family="Helvetica,sans-Serif" font-size="10.00">unsigned int elements</text>
<text text-anchor="start" x="538" y="-290.5" font-family="Helvetica,sans-Serif" font-size="10.00"> </text>
<polygon fill="#666666" stroke="#666666" points="477,-318 477,-318 602,-318 602,-318 477,-318"/>
<polygon fill="#666666" stroke="#666666" points="477,-302 477,-302 495,-302 495,-302 477,-302"/>
<polygon fill="#666666" stroke="#666666" points="495,-302 495,-302 602,-302 602,-302 495,-302"/>
<polygon fill="none" stroke="#666666" points="477,-284 477,-336 602,-336 602,-284 477,-284"/>
</a>
</g>
</g>
<!-- Node8&#45;&gt;Node2 -->
<g id="edge8_Node000002_Node000008" class="edge">
<title>Node8&#45;&gt;Node2</title>
<g id="a_edge8_Node000002_Node000008"><a xlink:title=" ">
<path fill="none" stroke="#63b8ff" d="M529.6,-284.13C517.76,-256.53 495.92,-211.7 467.5,-180 454.7,-165.73 439.79,-152.24 424.33,-139.9"/>
<polygon fill="none" stroke="#63b8ff" points="424.29,-139.87 417.1,-139.34 414.81,-132.5 422.01,-133.03 424.29,-139.87"/>
</a>
</g>
<text text-anchor="middle" x="466.88" y="-152.5" font-family="Helvetica,sans-Serif" font-size="10.00" fill="grey"> &#45;indices</text>
</g>
<!-- Node9&#45;&gt;Node1 -->
<g id="edge10_Node000001_Node000009" class="edge">
<title>Node9&#45;&gt;Node1</title>
<g id="a_edge10_Node000001_Node000009"><a xlink:title=" ">
<path fill="none" stroke="#63b8ff" d="M316.89,-720.29C315.45,-707.76 314.05,-695.53 312.82,-684.76"/>
<polygon fill="none" stroke="#63b8ff" points="312.83,-684.8 308.17,-679.3 311.46,-672.88 316.12,-678.39 312.83,-684.8"/>
</a>
</g>
<text text-anchor="middle" x="337.25" y="-692.5" font-family="Helvetica,sans-Serif" font-size="10.00" fill="grey"> +material</text>
</g>
<!-- Node10 -->
<g id="Node000010" class="node">
<title>Node10</title>
<g id="a_Node000010"><a xlink:title=" ">
<polygon fill="white" stroke="none" points="404.5,-1008 244.5,-1008 244.5,-956 404.5,-956 404.5,-1008"/>
<text text-anchor="start" x="249.12" y="-994.5" font-family="Helvetica,sans-Serif" font-size="10.00">std::shared_ptr&lt; ShaderProgram &gt;</text>
<text text-anchor="start" x="323" y="-978.5" font-family="Helvetica,sans-Serif" font-size="10.00"> </text>
<text text-anchor="start" x="252" y="-962.5" font-family="Helvetica,sans-Serif" font-size="10.00">+</text>
<text text-anchor="start" x="265.5" y="-962.5" font-family="Helvetica,sans-Serif" font-size="10.00">ShaderProgram * operator&#45;&gt;()</text>
<polygon fill="#666666" stroke="#666666" points="244.5,-990 244.5,-990 404.5,-990 404.5,-990 244.5,-990"/>
<polygon fill="#666666" stroke="#666666" points="244.5,-974 244.5,-974 404.5,-974 404.5,-974 244.5,-974"/>
<polygon fill="none" stroke="#666666" points="244.5,-956 244.5,-1008 404.5,-1008 404.5,-956 244.5,-956"/>
</a>
</g>
</g>
<!-- Node10&#45;&gt;Node9 -->
<g id="edge11_Node000009_Node000010" class="edge">
<title>Node10&#45;&gt;Node9</title>
<g id="a_edge11_Node000009_Node000010"><a xlink:title=" ">
<path fill="none" stroke="#63b8ff" d="M324.95,-956.15C325.13,-946.07 325.35,-933.7 325.59,-920.51"/>
<polygon fill="none" stroke="#63b8ff" points="325.59,-920.55 321.7,-914.48 325.81,-908.55 329.7,-914.63 325.59,-920.55"/>
</a>
</g>
<text text-anchor="middle" x="343.12" y="-928.5" font-family="Helvetica,sans-Serif" font-size="10.00" fill="grey"> &#45;shader</text>
</g>
<!-- Node11&#45;&gt;Node10 -->
<g id="edge12_Node000010_Node000011" class="edge">
<title>Node11&#45;&gt;Node10</title>
<g id="a_edge12_Node000010_Node000011"><a xlink:title=" ">
<path fill="none" stroke="#63b8ff" d="M317.18,-1272.06C316.82,-1265.95 316.5,-1259.9 316.25,-1254 311.97,-1152.76 306.66,-1126.88 316.25,-1026 316.42,-1024.25 316.62,-1022.46 316.85,-1020.66"/>
<polygon fill="none" stroke="#63b8ff" points="316.86,-1020.64 313.86,-1014.08 318.75,-1008.79 321.75,-1015.34 316.86,-1020.64"/>
</a>
</g>
<text text-anchor="middle" x="326.62" y="-1136.5" font-family="Helvetica,sans-Serif" font-size="10.00" fill="grey"> +ptr</text>
</g>
<!-- Node12&#45;&gt;Node9 -->
<g id="edge14_Node000009_Node000012" class="edge">
<title>Node12&#45;&gt;Node9</title>
<g id="a_edge14_Node000009_Node000012"><a xlink:title=" ">
<path fill="none" stroke="#63b8ff" d="M457.83,-1026.14C436.32,-991.28 412.73,-953.08 391.61,-918.86"/>
<polygon fill="none" stroke="#63b8ff" points="391.62,-918.88 385.07,-915.87 385.32,-908.67 391.87,-911.67 391.62,-918.88"/>
</a>
</g>
<text text-anchor="middle" x="472.62" y="-978.5" font-family="Helvetica,sans-Serif" font-size="10.00" fill="grey"> &#45;renderState</text>
</g>
</g>
</svg>
