<?xml version="1.0" encoding="UTF-8" standalone="no"?>
<!DOCTYPE svg PUBLIC "-//W3C//DTD SVG 1.1//EN"
 "http://www.w3.org/Graphics/SVG/1.1/DTD/svg11.dtd">
<!-- Generated by graphviz version 9.0.0 (20230911.1827)
 -->
<!-- Title: ShaderManager::ShaderInfo Pages: 1 -->
<!--zoomable 788 -->

<svg id="main" version="1.1" xmlns="http://www.w3.org/2000/svg" xmlns:xlink="http://www.w3.org/1999/xlink" xml:space="preserve" onload="init(evt)">
<style type="text/css"><![CDATA[
.node, .edge {opacity: 0.7;}
.node.selected, .edge.selected {opacity: 1;}
.edge:hover path { stroke: red; }
.edge:hover polygon { stroke: red; fill: red; }
]]></style>

<defs>
  <circle id="rim" cx="0" cy="0" r="7"/>
  <circle id="rim2" cx="0" cy="0" r="3.5"/>
  <g id="zoomPlus">
    <use xlink:href="#rim" fill="#404040"><set attributeName="fill" to="#808080" begin="zoomplus.mouseover" end="zoomplus.mouseout"/></use>
    <path d="M-4,0h8M0,-4v8" fill="none" stroke="white" stroke-width="1.5" pointer-events="none"/>
  </g>
  <g id="zoomMin">
    <use xlink:href="#rim" fill="#404040"><set attributeName="fill" to="#808080" begin="zoomminus.mouseover" end="zoomminus.mouseout"/></use>
    <path d="M-4,0h8" fill="none" stroke="white" stroke-width="1.5" pointer-events="none"/>
  </g>
  <g id="arrowUp" transform="translate(30 24)">
    <use xlink:href="#rim"/>
    <path pointer-events="none" fill="none" stroke="white" stroke-width="1.5" d="M0,-3.0v7 M-2.5,-0.5L0,-3.0L2.5,-0.5"/>
  </g>
  <g id="arrowRight" transform="rotate(90) translate(36 -43)">
    <use xlink:href="#rim"/>
    <path pointer-events="none" fill="none" stroke="white" stroke-width="1.5" d="M0,-3.0v7 M-2.5,-0.5L0,-3.0L2.5,-0.5"/>
  </g>
  <g id="arrowDown" transform="rotate(180) translate(-30 -48)">
    <use xlink:href="#rim"/>
    <path pointer-events="none" fill="none" stroke="white" stroke-width="1.5" d="M0,-3.0v7 M-2.5,-0.5L0,-3.0L2.5,-0.5"/>
  </g>
  <g id="arrowLeft" transform="rotate(270) translate(-36 17)">
    <use xlink:href="#rim"/>
    <path pointer-events="none" fill="none" stroke="white" stroke-width="1.5" d="M0,-3.0v7 M-2.5,-0.5L0,-3.0L2.5,-0.5"/>
  </g>
  <g id="resetDef">
    <use xlink:href="#rim2" fill="#404040"><set attributeName="fill" to="#808080" begin="reset.mouseover" end="reset.mouseout"/></use>
  </g>
</defs>
<script type="application/ecmascript">
var viewWidth = 339;
var viewHeight = 788;
var sectionId = 'dynsection-2';
</script>
<script type="application/ecmascript" xlink:href="svg.min.js"/>
<svg id="graph" class="graph">
<g id="viewport">
<title>ShaderManager::ShaderInfo</title>
<!-- Node1 -->
<g id="Node000001" class="node">
<title>Node1</title>
<g id="a_Node000001"><a xlink:title=" ">
<polygon fill="#999999" stroke="none" points="270.5,-52 60.5,-52 60.5,0 270.5,0 270.5,-52"/>
<text text-anchor="start" x="105.5" y="-38.5" font-family="Helvetica,sans-Serif" font-size="10.00">ShaderManager::ShaderInfo</text>
<text text-anchor="start" x="64.5" y="-22.5" font-family="Helvetica,sans-Serif" font-size="10.00">+</text>
<text text-anchor="start" x="74.5" y="-22.5" font-family="Helvetica,sans-Serif" font-size="10.00">std::filesystem::file_time_type lastWriteTime</text>
<text text-anchor="start" x="164" y="-6.5" font-family="Helvetica,sans-Serif" font-size="10.00"> </text>
<polygon fill="#666666" stroke="#666666" points="60.5,-34 60.5,-34 270.5,-34 270.5,-34 60.5,-34"/>
<polygon fill="#666666" stroke="#666666" points="60.5,-18 60.5,-18 72.5,-18 72.5,-18 60.5,-18"/>
<polygon fill="#666666" stroke="#666666" points="72.5,-18 72.5,-18 270.5,-18 270.5,-18 72.5,-18"/>
<polygon fill="none" stroke="#666666" points="60.5,0 60.5,-52 270.5,-52 270.5,0 60.5,0"/>
</a>
</g>
</g>
<!-- Node2 -->
<g id="Node000002" class="node">
<title>Node2</title>
<g id="a_Node000002"><a xlink:title=" ">
<polygon fill="white" stroke="none" points="245.5,-152 85.5,-152 85.5,-100 245.5,-100 245.5,-152"/>
<text text-anchor="start" x="90.12" y="-138.5" font-family="Helvetica,sans-Serif" font-size="10.00">std::shared_ptr&lt; ShaderProgram &gt;</text>
<text text-anchor="start" x="164" y="-122.5" font-family="Helvetica,sans-Serif" font-size="10.00"> </text>
<text text-anchor="start" x="93" y="-106.5" font-family="Helvetica,sans-Serif" font-size="10.00">+</text>
<text text-anchor="start" x="106.5" y="-106.5" font-family="Helvetica,sans-Serif" font-size="10.00">ShaderProgram * operator&#45;&gt;()</text>
<polygon fill="#666666" stroke="#666666" points="85.5,-134 85.5,-134 245.5,-134 245.5,-134 85.5,-134"/>
<polygon fill="#666666" stroke="#666666" points="85.5,-118 85.5,-118 245.5,-118 245.5,-118 85.5,-118"/>
<polygon fill="none" stroke="#666666" points="85.5,-100 85.5,-152 245.5,-152 245.5,-100 85.5,-100"/>
</a>
</g>
</g>
<!-- Node2&#45;&gt;Node1 -->
<g id="edge1_Node000001_Node000002" class="edge">
<title>Node2&#45;&gt;Node1</title>
<g id="a_edge1_Node000001_Node000002"><a xlink:title=" ">
<path fill="none" stroke="#63b8ff" d="M165.5,-100.02C165.5,-89.3 165.5,-76.56 165.5,-64.73"/>
<polygon fill="none" stroke="#63b8ff" points="165.5,-64.84 161.5,-58.84 165.5,-52.84 169.5,-58.84 165.5,-64.84"/>
</a>
</g>
<text text-anchor="middle" x="203" y="-72.5" font-family="Helvetica,sans-Serif" font-size="10.00" fill="grey"> +shaderProgram</text>
</g>
<!-- Node3 -->
<g id="Node000003" class="node">
<title>Node3</title>
<g id="a_Node000003"><a xlink:href="class_shader_program.html" target="_top" xlink:title=" ">
<polygon fill="white" stroke="none" points="331,-408 0,-408 0,-200 331,-200 331,-408"/>
<text text-anchor="start" x="131.75" y="-394.5" font-family="Helvetica,sans-Serif" font-size="10.00">ShaderProgram</text>
<text text-anchor="start" x="5.5" y="-378.5" font-family="Helvetica,sans-Serif" font-size="10.00">&#45;</text>
<text text-anchor="start" x="14" y="-378.5" font-family="Helvetica,sans-Serif" font-size="10.00">ID3D11VertexShader * vertexShader</text>
<text text-anchor="start" x="5.5" y="-362.5" font-family="Helvetica,sans-Serif" font-size="10.00">&#45;</text>
<text text-anchor="start" x="14" y="-362.5" font-family="Helvetica,sans-Serif" font-size="10.00">ID3D11PixelShader * pixelShader</text>
<text text-anchor="start" x="5.5" y="-346.5" font-family="Helvetica,sans-Serif" font-size="10.00">&#45;</text>
<text text-anchor="start" x="14" y="-346.5" font-family="Helvetica,sans-Serif" font-size="10.00">ID3D11InputLayout * inputLayout</text>
<text text-anchor="start" x="5.5" y="-330.5" font-family="Helvetica,sans-Serif" font-size="10.00">&#45;</text>
<text text-anchor="start" x="14" y="-330.5" font-family="Helvetica,sans-Serif" font-size="10.00">ID3D11Buffer * constantBuffer</text>
<text text-anchor="start" x="4" y="-314.5" font-family="Helvetica,sans-Serif" font-size="10.00">+</text>
<text text-anchor="start" x="14" y="-314.5" font-family="Helvetica,sans-Serif" font-size="10.00">ShaderProgram(GraphicsDevice *graphicsDevice)</text>
<text text-anchor="start" x="4" y="-298.5" font-family="Helvetica,sans-Serif" font-size="10.00">+</text>
<text text-anchor="start" x="14" y="-298.5" font-family="Helvetica,sans-Serif" font-size="10.00">void LoadShader(LPCSTR VSFilename, LPCSTR PSFilename)</text>
<text text-anchor="start" x="4" y="-282.5" font-family="Helvetica,sans-Serif" font-size="10.00">+</text>
<text text-anchor="start" x="14" y="-282.5" font-family="Helvetica,sans-Serif" font-size="10.00">void ClearResources()</text>
<text text-anchor="start" x="4" y="-266.5" font-family="Helvetica,sans-Serif" font-size="10.00">+</text>
<text text-anchor="start" x="14" y="-266.5" font-family="Helvetica,sans-Serif" font-size="10.00">void UpdateBuffers(ConstantBuffer cb)</text>
<text text-anchor="start" x="4" y="-250.5" font-family="Helvetica,sans-Serif" font-size="10.00">+</text>
<text text-anchor="start" x="14" y="-250.5" font-family="Helvetica,sans-Serif" font-size="10.00">void Bind()</text>
<text text-anchor="start" x="5.5" y="-234.5" font-family="Helvetica,sans-Serif" font-size="10.00">&#45;</text>
<text text-anchor="start" x="14" y="-234.5" font-family="Helvetica,sans-Serif" font-size="10.00">bool CompileHLSL(const std::string &amp;filename, ShaderType shaderType)</text>
<text text-anchor="start" x="5.5" y="-218.5" font-family="Helvetica,sans-Serif" font-size="10.00">&#45;</text>
<text text-anchor="start" x="14" y="-218.5" font-family="Helvetica,sans-Serif" font-size="10.00">std::vector&lt; byte &gt; LoadShaderFile(const std::string</text>
<text text-anchor="start" x="14" y="-206.5" font-family="Helvetica,sans-Serif" font-size="10.00"> &amp;filename, ShaderType shaderType)</text>
<polygon fill="#666666" stroke="#666666" points="0,-390 0,-390 331,-390 331,-390 0,-390"/>
<polygon fill="#666666" stroke="#666666" points="0,-326 0,-326 12,-326 12,-326 0,-326"/>
<polygon fill="#666666" stroke="#666666" points="12,-326 12,-326 331,-326 331,-326 12,-326"/>
<polygon fill="none" stroke="#666666" points="0,-200 0,-408 331,-408 331,-200 0,-200"/>
</a>
</g>
</g>
<!-- Node3&#45;&gt;Node2 -->
<g id="edge2_Node000002_Node000003" class="edge">
<title>Node3&#45;&gt;Node2</title>
<g id="a_edge2_Node000002_Node000003"><a xlink:title=" ">
<path fill="none" stroke="#63b8ff" d="M165.5,-200.11C165.5,-187.42 165.5,-175.15 165.5,-164.4"/>
<polygon fill="none" stroke="#63b8ff" points="165.5,-164.59 161.5,-158.59 165.5,-152.59 169.5,-158.59 165.5,-164.59"/>
</a>
</g>
<text text-anchor="middle" x="175.62" y="-172.5" font-family="Helvetica,sans-Serif" font-size="10.00" fill="grey"> +ptr</text>
</g>
<!-- Node4 -->
<g id="Node000004" class="node">
<title>Node4</title>
<g id="a_Node000004"><a xlink:href="class_graphics_device.html" target="_top" xlink:title=" ">
<polygon fill="white" stroke="none" points="298,-780 33,-780 33,-456 298,-456 298,-780"/>
<text text-anchor="start" x="131.75" y="-766.5" font-family="Helvetica,sans-Serif" font-size="10.00">GraphicsDevice</text>
<text text-anchor="start" x="38.5" y="-750.5" font-family="Helvetica,sans-Serif" font-size="10.00">&#45;</text>
<text text-anchor="start" x="47" y="-750.5" font-family="Helvetica,sans-Serif" font-size="10.00">ID3D11Device * device</text>
<text text-anchor="start" x="38.5" y="-734.5" font-family="Helvetica,sans-Serif" font-size="10.00">&#45;</text>
<text text-anchor="start" x="47" y="-734.5" font-family="Helvetica,sans-Serif" font-size="10.00">ID3D11DeviceContext * deviceContext</text>
<text text-anchor="start" x="38.5" y="-718.5" font-family="Helvetica,sans-Serif" font-size="10.00">&#45;</text>
<text text-anchor="start" x="47" y="-718.5" font-family="Helvetica,sans-Serif" font-size="10.00">IDXGISwapChain * swapChain</text>
<text text-anchor="start" x="38.5" y="-702.5" font-family="Helvetica,sans-Serif" font-size="10.00">&#45;</text>
<text text-anchor="start" x="47" y="-702.5" font-family="Helvetica,sans-Serif" font-size="10.00">ID3D11RenderTargetView * renderTargetView</text>
<text text-anchor="start" x="38.5" y="-686.5" font-family="Helvetica,sans-Serif" font-size="10.00">&#45;</text>
<text text-anchor="start" x="47" y="-686.5" font-family="Helvetica,sans-Serif" font-size="10.00">ID3D11DepthStencilView * depthStencilView</text>
<text text-anchor="start" x="38.5" y="-670.5" font-family="Helvetica,sans-Serif" font-size="10.00">&#45;</text>
<text text-anchor="start" x="47" y="-670.5" font-family="Helvetica,sans-Serif" font-size="10.00">ID3D11Texture2D * depthStencilBuffer</text>
<text text-anchor="start" x="38.5" y="-654.5" font-family="Helvetica,sans-Serif" font-size="10.00">&#45;</text>
<text text-anchor="start" x="47" y="-654.5" font-family="Helvetica,sans-Serif" font-size="10.00">int windowWidth</text>
<text text-anchor="start" x="38.5" y="-638.5" font-family="Helvetica,sans-Serif" font-size="10.00">&#45;</text>
<text text-anchor="start" x="47" y="-638.5" font-family="Helvetica,sans-Serif" font-size="10.00">int windowHeight</text>
<text text-anchor="start" x="38.5" y="-622.5" font-family="Helvetica,sans-Serif" font-size="10.00">&#45;</text>
<text text-anchor="start" x="47" y="-622.5" font-family="Helvetica,sans-Serif" font-size="10.00">HWND hWnd</text>
<text text-anchor="start" x="37" y="-606.5" font-family="Helvetica,sans-Serif" font-size="10.00">+</text>
<text text-anchor="start" x="47" y="-606.5" font-family="Helvetica,sans-Serif" font-size="10.00">void Initialize(HWND hWnd, int width, int height)</text>
<text text-anchor="start" x="37" y="-590.5" font-family="Helvetica,sans-Serif" font-size="10.00">+</text>
<text text-anchor="start" x="47" y="-590.5" font-family="Helvetica,sans-Serif" font-size="10.00">void ResizeBuffersAndViews(int width, int height)</text>
<text text-anchor="start" x="37" y="-574.5" font-family="Helvetica,sans-Serif" font-size="10.00">+</text>
<text text-anchor="start" x="47" y="-574.5" font-family="Helvetica,sans-Serif" font-size="10.00">ID3D11Device * GetDevice() const</text>
<text text-anchor="start" x="37" y="-558.5" font-family="Helvetica,sans-Serif" font-size="10.00">+</text>
<text text-anchor="start" x="47" y="-558.5" font-family="Helvetica,sans-Serif" font-size="10.00">ID3D11DeviceContext * GetDeviceContext() const</text>
<text text-anchor="start" x="37" y="-542.5" font-family="Helvetica,sans-Serif" font-size="10.00">+</text>
<text text-anchor="start" x="47" y="-542.5" font-family="Helvetica,sans-Serif" font-size="10.00">IDXGISwapChain * GetSwapChain() const</text>
<text text-anchor="start" x="37" y="-526.5" font-family="Helvetica,sans-Serif" font-size="10.00">+</text>
<text text-anchor="start" x="47" y="-526.5" font-family="Helvetica,sans-Serif" font-size="10.00">ID3D11RenderTargetView * GetRenderTargetView() const</text>
<text text-anchor="start" x="37" y="-510.5" font-family="Helvetica,sans-Serif" font-size="10.00">+</text>
<text text-anchor="start" x="47" y="-510.5" font-family="Helvetica,sans-Serif" font-size="10.00">ID3D11DepthStencilView * GetDepthStencilView() const</text>
<text text-anchor="start" x="37" y="-494.5" font-family="Helvetica,sans-Serif" font-size="10.00">+</text>
<text text-anchor="start" x="47" y="-494.5" font-family="Helvetica,sans-Serif" font-size="10.00">int GetWindowWidth()</text>
<text text-anchor="start" x="37" y="-478.5" font-family="Helvetica,sans-Serif" font-size="10.00">+</text>
<text text-anchor="start" x="47" y="-478.5" font-family="Helvetica,sans-Serif" font-size="10.00">int GetWindowHeight()</text>
<text text-anchor="start" x="37" y="-462.5" font-family="Helvetica,sans-Serif" font-size="10.00">+</text>
<text text-anchor="start" x="47" y="-462.5" font-family="Helvetica,sans-Serif" font-size="10.00">HWND GetHWND()</text>
<polygon fill="#666666" stroke="#666666" points="33,-762 33,-762 298,-762 298,-762 33,-762"/>
<polygon fill="#666666" stroke="#666666" points="33,-618 33,-618 45,-618 45,-618 33,-618"/>
<polygon fill="#666666" stroke="#666666" points="45,-618 45,-618 298,-618 298,-618 45,-618"/>
<polygon fill="none" stroke="#666666" points="33,-456 33,-780 298,-780 298,-456 33,-456"/>
</a>
</g>
</g>
<!-- Node4&#45;&gt;Node3 -->
<g id="edge3_Node000003_Node000004" class="edge">
<title>Node4&#45;&gt;Node3</title>
<g id="a_edge3_Node000003_Node000004"><a xlink:title=" ">
<path fill="none" stroke="#63b8ff" d="M165.5,-456.43C165.5,-444.39 165.5,-432.38 165.5,-420.7"/>
<polygon fill="none" stroke="#63b8ff" points="165.5,-420.57 161.5,-414.57 165.5,-408.57 169.5,-414.57 165.5,-420.57"/>
</a>
</g>
<text text-anchor="middle" x="201.12" y="-428.5" font-family="Helvetica,sans-Serif" font-size="10.00" fill="grey"> &#45;graphicsDevice</text>
</g>
</g>
</svg>

<g id="navigator" transform="translate(0 0)" fill="#404254">
  <rect fill="#f2f5e9" fill-opacity="0.5" stroke="#606060" stroke-width=".5" x="0" y="0" width="60" height="60"/>
  <use id="zoomplus" xlink:href="#zoomPlus" x="17" y="9" onmousedown="handleZoom(evt,'in')"/>
  <use id="zoomminus" xlink:href="#zoomMin" x="42" y="9" onmousedown="handleZoom(evt,'out')"/>
  <use id="reset" xlink:href="#resetDef" x="30" y="36" onmousedown="handleReset()"/>
   <use id="arrowup" xlink:href="#arrowUp" x="0" y="0" onmousedown="handlePan(0,-1)"/>
  <use id="arrowright" xlink:href="#arrowRight" x="0" y="0" onmousedown="handlePan(1,0)"/>
  <use id="arrowdown" xlink:href="#arrowDown" x="0" y="0" onmousedown="handlePan(0,1)"/>
  <use id="arrowleft" xlink:href="#arrowLeft" x="0" y="0" onmousedown="handlePan(-1,0)"/>
</g>
<svg viewBox="0 0 15 15" width="100%" height="30px" preserveAspectRatio="xMaxYMin meet">
 <g id="arrow_out" transform="scale(0.3 0.3)">
  <a xlink:href="struct_shader_manager_1_1_shader_info__coll__graph_org.svg" target="_base">
   <rect id="button" ry="5" rx="5" y="6" x="6" height="38" width="38"
        fill="#f2f5e9" fill-opacity="0.5" stroke="#606060" stroke-width="1.0"/>
   <path id="arrow"
     d="M 11.500037,31.436501 C 11.940474,20.09759 22.043105,11.32322 32.158766,21.979434 L 37.068811,17.246167 C 37.068811,17.246167 37.088388,32 37.088388,32 L 22.160133,31.978069 C 22.160133,31.978069 26.997745,27.140456 26.997745,27.140456 C 18.528582,18.264221 13.291696,25.230495 11.500037,31.436501 z"
     style="fill:#404040;"/>
  </a>
 </g>
</svg>

<style type='text/css'>
<![CDATA[
[data-mouse-over-selected='false'] { opacity: 0.7; }
[data-mouse-over-selected='true']  { opacity: 1.0; }
]]>
</style>
<script type="application/ecmascript"><![CDATA[
document.addEventListener('DOMContentLoaded', (event) => {
  highlightEdges();
  highlightAdjacentNodes();
});
]]></script>
</svg>
